<svg width="57" height="51" viewBox="0 0 57 51" fill="none" xmlns="http://www.w3.org/2000/svg">
<path d="M55.6823 45.5513C55.6823 45.5513 55.2575 45.5414 54.5461 45.5315C50.5647 45.4722 37.4841 45.2549 37.3655 45.2252C37.2667 45.1956 43.5008 39.7026 46.9685 36.8078C48.2726 35.7211 49.1914 34.9999 49.2408 35.069C49.2408 35.069 49.3495 35.1382 49.5372 35.2567C50.7129 36.0471 55.0994 39.2185 55.7416 43.2691C55.8601 44.0002 55.8502 44.7708 55.6823 45.5513Z" fill="#945339"/>
<path d="M55.6826 45.5513C55.6826 45.5513 55.2577 45.5414 54.5464 45.5315C53.2127 40.0681 48.757 37.5883 46.9786 36.8078C48.2827 35.7211 49.2015 34.9999 49.2509 35.069C49.2509 35.069 49.3596 35.1382 49.5473 35.2567C50.723 36.0471 55.1095 39.2185 55.7517 43.2691C55.8604 44.0002 55.8505 44.7708 55.6826 45.5513Z" fill="#AD6946"/>
<path d="M13.2198 14.8649C11.1254 18.2931 13.8423 20.6741 15.1068 21.5435C15.4526 21.7806 15.6897 21.9091 15.6897 21.9091L18.1201 17.9473L18.7129 16.9001L20.4319 13.8473C20.4319 13.8276 15.7589 10.7451 13.2198 14.8649ZM9.44584 12.6815C9.44584 12.6815 9.44584 12.6914 9.44584 12.6815C9.40632 12.7507 9.37668 12.8001 9.33716 12.8594C9.13957 13.215 8.96174 13.5608 8.80367 13.8967C5.71136 20.7334 11.9948 24.7544 13.8324 25.7522C14.1288 25.9202 14.3165 25.9992 14.3165 25.9992L19.118 18.6784L19.1278 18.6883L19.2069 18.5401L19.3155 18.382L19.2958 18.3722L21.8941 13.4126L23.3168 10.7056L23.3563 10.6266C23.3563 10.6365 14.5931 4.17521 9.44584 12.6815Z" fill="#B6724D"/>
<path d="M18.219 17.7606L18.1202 17.9384L18.051 18.0569L15.6997 21.9001C15.6997 21.9001 14.7611 21.416 13.8917 20.517C12.7654 19.3512 11.7577 17.4839 13.0915 15.0931C13.1606 14.9646 13.2298 14.8461 13.3088 14.7374C13.3582 14.6584 13.4076 14.5892 13.457 14.5201C15.5712 11.5858 18.8908 12.9887 20.0368 13.6013C20.2937 13.7396 20.4419 13.8384 20.4419 13.8384L18.219 17.7606Z" fill="#DCBD8A"/>
<path d="M19.2951 18.3824L19.3149 18.3923L19.2062 18.5504L19.1271 18.6986L19.1173 18.6887L14.3158 26.0094C14.3158 26.0094 5.99718 22.2157 8.4078 14.9344C8.51647 14.5985 8.65478 14.2527 8.81286 13.907C8.89189 16.3373 9.03021 20.2398 13.5748 22.8282C13.5748 22.8282 13.9502 21.4352 14.2071 20.7831C14.6023 19.7655 15.1062 18.8072 15.6594 17.9082C16.4103 16.7029 17.2797 15.5865 18.1491 14.5392C19.1568 13.3339 20.8067 14.4503 21.8835 13.4229L19.2951 18.3824Z" fill="#945339"/>
<path d="M15.6694 17.9075C14.4443 21.0097 13.8713 24.2897 13.8713 24.2897C8.89198 21.474 8.15101 17.6605 8.40788 14.9337C8.51656 14.5978 8.65487 14.252 8.81294 13.9062C8.89198 16.3366 9.0303 20.2391 13.5749 22.8275C13.5749 22.8275 13.9503 21.4345 14.2072 20.7824C14.6024 19.7648 15.1062 18.8065 15.6694 17.9075Z" fill="#AD6946"/>
<path d="M17.9028 14.2618C15.0773 16.7416 14.1782 19.1325 13.8917 20.5156C12.7654 19.3498 11.7577 17.4826 13.0915 15.0917C13.1606 14.9633 13.2298 14.8447 13.3088 14.7361C13.3582 14.657 13.4076 14.5879 13.457 14.5187C15.4823 13.3134 17.9028 14.2618 17.9028 14.2618Z" fill="#ECD09C"/>
<path d="M23.3552 10.6366L23.3157 10.7156L22.7822 10.9626C22.7822 10.9626 20.7568 9.51033 18.2968 9.05587C15.8269 8.6014 12.7445 9.42141 10.9365 11.5455C9.12857 13.6795 7.71579 17.7005 9.21749 20.6051C10.5908 23.2726 13.3966 25.4263 13.8411 25.7622C12.0134 24.7644 5.72012 20.7335 8.81243 13.9067C8.9705 13.5708 9.14833 13.2152 9.34592 12.8694C9.37556 12.8101 9.41508 12.7607 9.44472 12.7014C9.44472 12.7014 9.44472 12.6916 9.4546 12.6916C14.592 4.17535 23.3552 10.6366 23.3552 10.6366Z" fill="#D59A77"/>
<path d="M20.026 13.6009L19.7197 14.1146C16.4002 12.5932 14.4144 13.5811 13.298 14.737C15.4023 11.5163 18.8602 12.9686 20.026 13.6009Z" fill="#C59F6D"/>
<path d="M41.2775 8.34544L44.2414 10.2226L45.259 10.8647L49.2701 13.2062C49.2701 13.2062 49.4183 12.9888 49.6159 12.6134C50.3173 11.25 51.5918 7.86134 48.1241 5.83602C43.9351 3.41552 41.2775 8.34544 41.2775 8.34544ZM37.1874 6.90302L37.2664 6.95241L39.7956 8.67146L44.4291 11.8132L44.4192 11.8329L44.5872 11.9218L44.7255 12.0108L44.7354 12.0009L52.4217 16.1799C52.4217 16.1799 52.5402 16.0219 52.728 15.7354C53.8641 13.9867 57.4998 7.46615 51.5424 2.91166C51.246 2.68443 50.9299 2.46708 50.5841 2.24973C50.5248 2.22009 50.4754 2.18057 50.4161 2.15094H50.4063C41.8505 -2.92717 37.1874 6.90302 37.1874 6.90302Z" fill="#B6724D"/>
<path d="M45.0917 10.7557L45.2597 10.8644L45.3782 10.9335L49.2708 13.2058C49.2708 13.2058 49.8636 12.3364 50.2093 11.1311C50.6539 9.57015 50.6539 7.45592 48.352 5.97398C48.2334 5.89495 48.1149 5.82579 47.9963 5.76651C47.9173 5.72699 47.8382 5.68747 47.7592 5.64796C44.5088 4.06722 42.2464 6.87302 41.5252 7.9499C41.3671 8.18701 41.2782 8.34508 41.2782 8.34508L45.0917 10.7557Z" fill="#DCBD8A"/>
<path d="M44.4293 11.8136L44.4194 11.8334L44.5874 11.9223L44.7257 12.0112L44.7356 12.0013L52.4219 16.1804C52.4219 16.1804 57.9544 8.89914 52.3824 3.62344C52.1255 3.37645 51.8489 3.13934 51.5426 2.91211C52.6195 5.08562 54.3484 8.58299 51.5722 13.0288C51.5722 13.0288 50.5843 11.9816 50.0409 11.5271C49.211 10.8158 48.3219 10.2131 47.4031 9.6895C46.1681 8.97817 44.8739 8.40516 43.6093 7.9013C42.1471 7.3184 41.2283 9.07697 39.7958 8.68179L44.4293 11.8136Z" fill="#945339"/>
<path d="M47.403 9.67962C49.9519 11.8334 52.0068 14.4515 52.0068 14.4515C55.0596 9.61047 53.9136 5.89574 52.3921 3.62344C52.1353 3.37645 51.8586 3.13934 51.5524 2.91211C52.6293 5.08562 54.3582 8.58299 51.582 13.0288C51.582 13.0288 50.5941 11.9816 50.0507 11.5271C49.2208 10.8158 48.3316 10.2131 47.403 9.67962Z" fill="#AD6946"/>
<path d="M43.708 7.52489C47.3635 8.37453 49.2999 10.0541 50.2088 11.1408C50.6534 9.57984 50.6534 7.46561 48.3514 5.98367C48.2329 5.90463 48.1143 5.83548 47.9958 5.7762C47.9167 5.73668 47.8377 5.69716 47.7586 5.65764C45.3875 5.54897 43.708 7.52489 43.708 7.52489Z" fill="#ECD09C"/>
<path d="M37.1877 6.90212L37.2668 6.95152L37.8497 6.92188C37.8497 6.92188 38.9463 4.67921 40.9025 3.11824C42.8586 1.54738 45.9608 0.816294 48.569 1.83389C51.1674 2.85149 54.3189 5.73633 54.3782 8.99659C54.4276 11.9901 52.9753 15.2207 52.7382 15.7246C53.8744 13.9759 57.5101 7.45538 51.5527 2.90089C51.2563 2.67366 50.9401 2.45631 50.5943 2.23895C50.5351 2.20932 50.4857 2.1698 50.4264 2.14016H50.4165C41.8509 -2.92807 37.1877 6.90212 37.1877 6.90212Z" fill="#D59A77"/>
<path d="M41.5251 7.94985L42.0389 8.25611C44.242 5.34164 46.4649 5.27248 47.9864 5.76646C44.6175 3.92886 42.2562 6.84333 41.5251 7.94985Z" fill="#C59F6D"/>
<path d="M54.6459 19.6971C54.7447 19.9738 54.8435 20.2504 54.9423 20.527C54.9719 20.6061 55.0015 20.695 55.0213 20.774C55.0411 20.8432 55.0707 20.9123 55.0905 20.9914C55.0905 21.0012 55.1003 21.0111 55.1003 21.021C55.1003 21.021 55.1003 21.0309 55.1003 21.0408C55.1201 21.1198 55.1497 21.189 55.1695 21.268C55.1794 21.2878 55.1794 21.3174 55.1893 21.3372C55.209 21.4162 55.2288 21.4853 55.2485 21.5545C55.2584 21.5743 55.2584 21.594 55.2584 21.6138C55.2782 21.7027 55.2979 21.7916 55.3177 21.8706C55.3374 21.9596 55.3572 22.0485 55.377 22.1374C55.377 22.1473 55.377 22.1473 55.377 22.1572C55.3967 22.2461 55.4165 22.335 55.4264 22.4338C55.4362 22.5128 55.456 22.582 55.4659 22.661C55.4758 22.6907 55.4758 22.7302 55.4856 22.7598C55.4955 22.829 55.5054 22.8981 55.5153 22.9673C55.5153 22.9772 55.5153 22.9772 55.5153 22.987C55.5252 23.076 55.535 23.1649 55.5449 23.2538C55.5548 23.3328 55.5647 23.4217 55.5746 23.5008C55.5746 23.5205 55.5746 23.5403 55.5746 23.5502C55.5844 23.6292 55.5943 23.7083 55.5943 23.7873C55.6042 23.8663 55.6042 23.9454 55.6042 24.0244C55.6042 24.054 55.6042 24.0837 55.6042 24.1133C55.6042 24.1825 55.6141 24.2418 55.6141 24.3109C55.6141 24.3208 55.6141 24.3208 55.6141 24.3307C55.6141 24.4196 55.6141 24.4986 55.6141 24.5777C55.6141 24.6666 55.6141 24.7456 55.6141 24.8345C55.6141 24.9234 55.6141 25.0025 55.6042 25.0914C55.6042 25.1704 55.5943 25.2593 55.5943 25.3384C55.5943 25.3483 55.5943 25.3581 55.5943 25.3581C55.5943 25.4372 55.5844 25.5063 55.5746 25.5755C55.5746 25.5953 55.5746 25.615 55.5647 25.6447C55.5548 25.7138 55.5548 25.7731 55.5449 25.8422C55.535 25.9213 55.5252 26.0102 55.5153 26.0892C55.4955 26.2671 55.4659 26.4449 55.4264 26.6227C55.4165 26.682 55.4066 26.7512 55.3868 26.8203C55.2584 27.4625 55.0707 28.075 54.8336 28.6678C54.8138 28.7073 54.8039 28.7567 54.7842 28.7962C54.7644 28.8358 54.7447 28.8852 54.7348 28.9247C54.7052 29.0037 54.6656 29.0729 54.636 29.1519C54.5372 29.3594 54.4384 29.5668 54.3396 29.7743C54.3198 29.8138 54.2902 29.8632 54.2705 29.9028C54.2408 29.962 54.2013 30.0213 54.1717 30.0806C54.1519 30.13 54.1223 30.1695 54.1025 30.209C54.0432 30.3078 53.9839 30.4165 53.9247 30.5153C53.895 30.5647 53.8654 30.6042 53.8456 30.6536C53.8456 30.6635 53.8357 30.6635 53.8357 30.6734C53.7962 30.7326 53.7567 30.8018 53.7172 30.8611C53.7172 30.871 53.7073 30.871 53.7073 30.8808C53.6678 30.95 53.6184 31.0093 53.5789 31.0685C53.5295 31.1476 53.4801 31.2167 53.4208 31.2958C53.3813 31.3452 53.3418 31.4044 53.3022 31.4538C53.0948 31.7305 52.8873 32.0071 52.6601 32.2837C52.6107 32.3331 52.5712 32.3924 52.5218 32.4418C52.4724 32.5011 52.423 32.5604 52.3736 32.6098C52.3538 32.6394 52.3242 32.669 52.3044 32.6888C52.255 32.7481 52.2056 32.7975 52.1562 32.8567C51.9883 33.0445 51.8203 33.2223 51.6425 33.4001C51.6326 33.41 51.6227 33.4199 51.6128 33.4298C51.5634 33.4792 51.514 33.5286 51.4745 33.5681C51.4153 33.6274 51.356 33.6768 51.2967 33.736C51.2473 33.7854 51.1979 33.8249 51.1485 33.8743C51.0991 33.9237 51.0497 33.9633 51.0102 34.0028C50.9904 34.0225 50.9608 34.0423 50.941 34.0621C50.8818 34.1213 50.8225 34.1707 50.7632 34.2201C50.4668 34.4869 48.155 35.9293 47.8388 36.1763L50.9707 38.7055L51.9191 39.6341L46.7817 45.4137L39.5103 45.2556L37.3368 45.2062L36.2106 45.1865L34.9657 45.1568L32.9207 45.1173L32.0513 45.0976L23.1596 47.7156L22.3693 46.787L22.2902 46.6882L21.6876 45.9867L21.322 46.1645L20.9762 46.3325C21.0256 45.6311 21.1541 44.979 21.3418 44.3763C21.5888 43.5662 21.9247 42.8549 22.2705 42.2621C22.3594 42.1139 22.4483 41.9756 22.5273 41.8373C22.5767 41.7681 22.6163 41.699 22.6558 41.6397C22.7842 41.4421 22.9126 41.2643 23.0312 41.1062C23.0707 41.0568 23.1004 41.0173 23.13 40.9778C23.1498 40.958 23.1596 40.9383 23.1794 40.9185C23.2387 40.8493 23.2881 40.7802 23.3375 40.7209C23.3572 40.7011 23.377 40.6814 23.3967 40.6517C23.3967 40.6517 23.3967 40.6517 23.3967 40.6419C23.1596 40.5727 22.9324 40.5035 22.7052 40.4245C22.5965 40.385 22.4977 40.3554 22.389 40.3158C22.1124 40.217 21.8358 40.1182 21.569 39.9997C21.5097 39.9799 21.4603 39.9503 21.411 39.9305C21.3616 39.9108 21.3023 39.8811 21.2529 39.8614C21.0948 39.7922 20.9367 39.7231 20.7787 39.644C20.7293 39.6243 20.6799 39.5946 20.6305 39.5749C20.6305 39.5749 20.6206 39.5749 20.6206 39.565C20.5712 39.5353 20.5218 39.5156 20.4724 39.486C19.7018 39.0908 18.9608 38.6264 18.2791 38.083C18.2297 38.0435 18.1902 38.004 18.1408 37.9744C17.9136 37.7867 17.6863 37.5792 17.469 37.3717C17.4295 37.3322 17.3801 37.2927 17.3406 37.2433C17.301 37.2038 17.2516 37.1544 17.2121 37.1149C17.1726 37.0753 17.1331 37.0259 17.0936 36.9864C17.0047 36.8876 16.9157 36.7888 16.8169 36.6801C16.7873 36.6406 16.7577 36.611 16.728 36.5715C16.6885 36.5221 16.649 36.4727 16.6095 36.4332C16.57 36.3838 16.5304 36.3344 16.4909 36.285C16.4514 36.2356 16.4119 36.1862 16.3822 36.1368C16.3131 36.0479 16.2439 35.9491 16.1748 35.8601C16.1353 35.8009 16.0859 35.7317 16.0463 35.6724C16.0266 35.6428 16.0068 35.6132 15.9871 35.5835C15.9574 35.544 15.9377 35.5045 15.908 35.465C15.8784 35.4156 15.8487 35.3662 15.8191 35.3168C15.7203 35.1488 15.6215 34.9809 15.5227 34.8129C15.4931 34.7635 15.4733 34.7141 15.4437 34.6647C15.414 34.6054 15.3844 34.5462 15.3449 34.477C15.3152 34.4276 15.2955 34.3782 15.2658 34.3189C15.2461 34.2695 15.2165 34.2201 15.1967 34.1707C15.1671 34.1115 15.1374 34.0522 15.1078 33.9929C15.0781 33.9336 15.0485 33.8743 15.0287 33.8151C14.6336 32.8963 14.3372 31.8787 14.1495 30.7524C14.0803 30.3177 14.0111 29.883 13.9617 29.4582C13.942 29.31 13.9222 29.1618 13.9123 29.0136C13.8926 28.8456 13.8827 28.6777 13.8629 28.5097C13.8531 28.4109 13.8432 28.3023 13.8333 28.2035C13.7839 27.5317 13.7543 26.8796 13.7543 26.2473V26.2374C13.7543 25.5261 13.7839 24.8444 13.8432 24.1726C14.7422 14.1448 22.2408 9.02719 29.285 7.2785C29.4924 7.2291 30.2235 7.04139 30.3816 7.00187C37.9494 5.03584 47.8685 6.25102 53.2529 16.5357C53.2825 16.5949 53.322 16.6641 53.3517 16.7234C53.8259 17.6521 54.2606 18.64 54.6459 19.6971Z" fill="#B6724D"/>
<path d="M54.6551 19.7061C54.7539 19.9827 54.8527 20.2593 54.9515 20.5359C54.9811 20.615 55.0108 20.7039 55.0305 20.7829C55.0503 20.8521 55.0799 20.9212 55.0997 21.0003C55.0997 21.0102 55.1096 21.02 55.1096 21.0299C55.1096 21.0299 55.1096 21.0398 55.1096 21.0497C55.1293 21.1287 55.1589 21.1979 55.1787 21.2769C55.1886 21.2967 55.1886 21.3263 55.1985 21.3461C55.2182 21.4251 55.238 21.4943 55.2577 21.5634C55.2676 21.5832 55.2676 21.6029 55.2676 21.6227C55.2874 21.7116 55.3071 21.8005 55.3269 21.8796C55.3467 21.9685 55.3664 22.0574 55.3862 22.1463C55.3862 22.1562 55.3862 22.1562 55.3862 22.1661C55.4059 22.255 55.4257 22.3439 55.4356 22.4427C55.4455 22.5217 55.4652 22.5909 55.4751 22.6699C55.485 22.6996 55.485 22.7391 55.4949 22.7687C55.5047 22.8379 55.5146 22.907 55.5245 22.9762C55.5245 22.9861 55.5245 22.9861 55.5245 22.996C55.5344 23.0849 55.5443 23.1738 55.5541 23.2627C55.564 23.3417 55.5739 23.4307 55.5838 23.5097C55.5838 23.5295 55.5838 23.5492 55.5838 23.5591C55.5936 23.6381 55.6035 23.7172 55.6035 23.7962C55.6134 23.8752 55.6134 23.9543 55.6134 24.0333C55.6134 24.063 55.6134 24.0926 55.6134 24.1222C55.6134 24.1914 55.6233 24.2507 55.6233 24.3198C55.6233 24.3297 55.6233 24.3297 55.6233 24.3396C55.6233 24.4285 55.6233 24.5075 55.6233 24.5866C55.6233 24.6755 55.6233 24.7545 55.6233 24.8434C55.6233 24.9324 55.6233 25.0114 55.6134 25.1003C55.6134 25.1793 55.6035 25.2683 55.6035 25.3473C55.6035 25.3572 55.6035 25.3671 55.6035 25.3671C55.6035 25.4461 55.5936 25.5153 55.5838 25.5844C55.5838 25.6042 55.5838 25.6239 55.5739 25.6536C55.564 25.7227 55.564 25.782 55.5541 25.8512C55.5443 25.9302 55.5344 26.0191 55.5245 26.0981C55.5047 26.276 55.4751 26.4538 55.4356 26.6316C55.4257 26.6909 55.4158 26.7601 55.3961 26.8292C55.2676 27.4714 55.0799 28.0839 54.8428 28.6767C54.823 28.7162 54.8132 28.7656 54.7934 28.8052C54.7736 28.8447 54.7539 28.8941 54.744 28.9336C54.7144 29.0126 54.6748 29.0818 54.6452 29.1608C54.5464 29.3683 54.4476 29.5758 54.3488 29.7832C54.3291 29.8227 54.2994 29.8721 54.2797 29.9117C54.25 29.9709 54.2105 30.0302 54.1809 30.0895C54.1611 30.1389 54.1315 30.1784 54.1117 30.2179C54.0524 30.3167 53.9932 30.4254 53.9339 30.5242C53.9042 30.5736 53.8746 30.6131 53.8548 30.6625C53.8548 30.6724 53.845 30.6724 53.845 30.6823C53.8054 30.7416 53.7659 30.8107 53.7264 30.87C53.7264 30.8799 53.7165 30.8799 53.7165 30.8897C53.677 30.9589 53.6276 31.0182 53.5881 31.0775C53.5387 31.1565 53.4893 31.2256 53.43 31.3047C53.3905 31.3541 53.351 31.4134 53.3115 31.4628C53.104 31.7394 52.8965 32.016 52.6693 32.2926C52.6199 32.342 52.5804 32.4013 52.531 32.4507C52.4816 32.51 52.4322 32.5693 52.3828 32.6187C52.363 32.6483 52.3334 32.6779 52.3136 32.6977C52.2642 32.757 52.2148 32.8064 52.1654 32.8657C51.9876 33.0633 51.8098 33.251 51.6221 33.4288C51.5727 33.4782 51.5233 33.5276 51.4837 33.5671C51.4245 33.6264 51.3652 33.6758 51.3059 33.7351C51.2565 33.7845 51.2071 33.824 51.1577 33.8734C51.1083 33.9228 51.0589 33.9623 51.0194 34.0018C50.9996 34.0216 50.97 34.0413 50.9502 34.0611C50.891 34.1204 50.8317 34.1698 50.7724 34.2192C50.476 34.4859 49.1225 35.5727 48.0654 36.1753C48.0654 36.1753 51.1775 37.7264 52.3531 40.2062C55.7418 47.359 42.7699 43.7134 39.5294 45.2547C38.9367 45.5412 38.6996 46.2821 38.6798 46.2821C38.6502 46.2821 37.3263 46.8848 36.5063 46.8354C33.2361 46.6279 18.7724 49.6412 22.2599 42.2414C22.3488 42.0932 22.4378 41.9549 22.5168 41.8166C22.5662 41.7474 22.6057 41.6782 22.6452 41.619C22.7737 41.4214 22.9021 41.2435 23.0206 41.0855C23.0602 41.0361 23.0898 40.9966 23.1194 40.957C23.1392 40.9373 23.1491 40.9175 23.1688 40.8978C23.2281 40.8286 23.2775 40.7594 23.3269 40.7002C23.3467 40.6804 23.3664 40.6607 23.3862 40.631C23.3862 40.631 23.3862 40.631 23.3862 40.6211C23.1491 40.552 22.9219 40.4828 22.6946 40.4038C22.5859 40.3643 22.4872 40.3346 22.3785 40.2951C22.1018 40.1963 21.8252 40.0975 21.5585 39.979C21.4992 39.9592 21.4498 39.9296 21.4004 39.9098C21.351 39.89 21.2917 39.8604 21.2423 39.8406C21.0842 39.7715 20.9262 39.7023 20.7681 39.6233C20.7187 39.6035 20.6693 39.5739 20.6199 39.5541C20.6199 39.5541 20.61 39.5541 20.61 39.5443C20.5606 39.5146 20.5112 39.4949 20.4618 39.4652C19.6912 39.07 18.9503 38.6057 18.2686 38.0623C18.2192 38.0228 18.1797 37.9833 18.1303 37.9536C17.903 37.7659 17.6758 37.5585 17.4584 37.351C17.4189 37.3115 17.3695 37.272 17.33 37.2226C17.2905 37.183 17.2411 37.1336 17.2016 37.0941C17.1621 37.0546 17.1225 37.0052 17.083 36.9657C16.9941 36.8669 16.9052 36.7681 16.8064 36.6594C16.7768 36.6199 16.7471 36.5903 16.7175 36.5507C16.678 36.5013 16.6384 36.452 16.5989 36.4124C16.5594 36.363 16.5199 36.3136 16.4804 36.2642C16.4408 36.2148 16.4013 36.1654 16.3717 36.116C16.3025 36.0271 16.2334 35.9283 16.1642 35.8394C16.1247 35.7801 16.0753 35.711 16.0358 35.6517C16.016 35.6221 15.9963 35.5924 15.9765 35.5628C15.9469 35.5233 15.9271 35.4838 15.8975 35.4442C15.8678 35.3948 15.8382 35.3454 15.8086 35.296C15.7098 35.1281 15.611 34.9601 15.5122 34.7922C15.4825 34.7428 15.4628 34.6934 15.4331 34.644C15.4035 34.5847 15.3738 34.5254 15.3343 34.4563C15.3047 34.4069 15.2849 34.3575 15.2553 34.2982C15.2355 34.2488 15.2059 34.1994 15.1861 34.15C15.1565 34.0907 15.1269 34.0315 15.0972 33.9722C15.0676 33.9129 15.0379 33.8536 15.0182 33.7943C14.623 32.8755 14.3266 31.8579 14.1389 30.7317C14.0697 30.297 14.0006 29.8623 13.9512 29.4374C13.9314 29.2893 13.9117 29.1411 13.9018 28.9929C13.882 28.8249 13.8722 28.657 13.8524 28.489C13.8425 28.3902 13.8326 28.2815 13.8228 28.1827C13.8623 28.2717 13.9018 28.3705 13.9413 28.4692C15.5023 32.1346 20.6397 39.3565 36.4569 35.7505C53.025 32.016 54.6748 23.1639 54.6551 19.7061Z" fill="#945339"/>
<path d="M54.6551 19.7061C54.7539 19.9827 54.8527 20.2593 54.9515 20.5359C54.9811 20.615 55.0108 20.7039 55.0305 20.7829C55.0503 20.8521 55.0799 20.9212 55.0997 21.0003C55.0997 21.0102 55.1096 21.02 55.1096 21.0299C54.9515 27.5998 51.8394 36.3927 37.3658 38.9811C22.1611 41.698 16.4211 35.2664 14.2575 30.1982C14.1587 29.9611 14.0599 29.724 13.971 29.4868C13.9512 29.3386 13.9314 29.1905 13.9216 29.0423C13.9018 28.8743 13.8919 28.7064 13.8722 28.5384C13.8623 28.4396 13.8524 28.3309 13.8425 28.2321C13.882 28.321 13.9216 28.4198 13.9611 28.5186C15.5221 32.184 20.6594 39.4059 36.4767 35.7999C53.025 32.016 54.6748 23.1639 54.6551 19.7061Z" fill="#AD6946"/>
<path d="M53.1434 16.347C53.1533 16.3667 53.1236 16.3865 53.1138 16.3667C46.4253 7.63317 38.571 4.5705 25.0261 9.88572C17.1521 12.978 14.7513 20.1308 13.8523 24.1815C14.7513 14.1537 22.2499 9.03608 29.2941 7.28739C29.5016 7.23799 30.2326 7.05028 30.3907 7.01076C37.9091 5.06448 47.7393 6.25003 53.1434 16.347Z" fill="#D59A77"/>
<path d="M36.7987 34.1231C41.0774 33.0598 43.8407 29.3602 42.9708 25.8599C42.1009 22.3597 37.9271 20.3842 33.6485 21.4476C29.3698 22.511 26.6065 26.2106 27.4764 29.7108C28.3463 33.2111 32.5201 35.1865 36.7987 34.1231Z" fill="#AD6946"/>
<path d="M37.322 36.4462C41.6272 35.3762 44.412 31.6713 43.542 28.1711C42.6721 24.6708 38.4769 22.7007 34.1717 23.7707C29.8666 24.8406 27.0818 28.5455 27.9517 32.0458C28.8216 35.546 33.0169 37.5161 37.322 36.4462Z" fill="#945339"/>
<path d="M43.5899 26.9875C44.0543 28.8646 43.6295 30.7912 42.4933 32.3818C41.3572 33.9823 39.5294 35.2567 37.1781 35.8298C31.606 37.2129 28.3655 34.7529 27.4368 30.9888C27.3776 30.7615 27.338 30.5343 27.2985 30.3071C27.0614 28.6572 27.4269 27.027 28.2371 25.6637C28.5038 25.229 28.8101 24.814 29.1658 24.4485C30.0549 23.5 31.2207 22.7986 32.5742 22.4627L35.054 21.8501C36.3976 21.5142 37.7511 21.5933 38.9861 22.0082C40.7545 22.601 42.2661 23.8853 43.096 25.6241C43.3133 26.0588 43.4714 26.5133 43.5899 26.9875Z" fill="#DCBD8A"/>
<path d="M43.0956 25.624C43.4019 29.2795 40.6751 32.8164 36.5751 33.834C32.7616 34.7824 28.9777 33.2412 27.308 30.3168C27.0709 28.6669 27.4365 27.0368 28.2466 25.6734C28.5133 25.2387 28.8196 24.8238 29.1753 24.4582C30.0644 23.5098 31.2302 22.8083 32.5837 22.4724L35.0635 21.8599C36.4071 21.524 37.7606 21.603 38.9956 22.018C40.7542 22.6108 42.2657 23.8951 43.0956 25.624Z" fill="#ECD09C"/>
<path d="M35.5186 29.8427C35.4495 29.8427 35.3902 29.7933 35.3704 29.7341L34.4813 26.1675C34.4615 26.0885 34.5109 26.0095 34.59 25.9897C34.669 25.9699 34.748 26.0193 34.7678 26.0984L35.657 29.6649C35.6767 29.7439 35.6273 29.823 35.5483 29.8427C35.5483 29.8427 35.5384 29.8427 35.5186 29.8427Z" fill="#43281F"/>
<path d="M38.9855 22.0175C38.8867 22.6992 38.6595 23.3512 38.2939 23.9242C37.6221 25.0011 36.4761 25.831 34.8361 26.2361C33.0775 26.6708 31.6153 26.4238 30.4989 25.7124C29.9852 25.3864 29.5505 24.9616 29.1849 24.4577C30.0741 23.5093 31.4177 22.6201 33.6604 22.057C36.397 21.3753 37.7604 21.6025 38.9855 22.0175Z" fill="#5C392B"/>
<path d="M38.2943 23.9247C37.6224 25.0016 36.4764 25.8314 34.8364 26.2365C33.0778 26.6712 31.6157 26.4242 30.4993 25.7129C30.5783 25.4461 30.687 25.1991 30.8253 24.962C31.2402 24.2705 31.9219 23.7271 32.7716 23.5196L35.1526 22.9268C36.3282 22.6403 37.5335 23.0652 38.2943 23.9247Z" fill="#43281F"/>
<path d="M31.3882 23.7969C31.4771 23.7277 31.566 23.6684 31.6648 23.6092C31.7537 23.5499 31.8525 23.4906 31.9414 23.4412C32.1291 23.3325 32.3169 23.2337 32.5144 23.1448C32.9096 22.967 33.3147 22.8089 33.7296 22.6904C34.1446 22.5718 34.5793 22.4829 35.0239 22.4335C35.4684 22.394 35.9229 22.394 36.3675 22.4829C36.5848 22.5224 36.7232 22.7299 36.6836 22.9472C36.654 23.1053 36.5354 23.2239 36.3872 23.2535H36.3675C35.9822 23.3424 35.5969 23.4215 35.2215 23.5202C34.8362 23.619 34.4607 23.7178 34.0754 23.8265L32.9195 24.1624L32.3366 24.3304C32.2378 24.36 32.139 24.3897 32.0402 24.4094C31.9414 24.4391 31.8426 24.4687 31.7438 24.4884L31.7241 24.4983C31.5166 24.5477 31.2993 24.4094 31.2499 24.2019C31.2103 24.034 31.2696 23.8858 31.3882 23.7969Z" fill="white"/>
<path d="M28.2081 36.7285C27.9905 36.9362 27.8619 37.223 27.8521 37.5395L28.3762 37.4109L28.2081 36.7285Z" fill="white"/>
<path d="M28.8996 36.4121C28.6622 36.4319 28.4446 36.5308 28.2765 36.6693L28.9292 36.511L28.8996 36.4121Z" fill="#71495A"/>
<path d="M29.3267 36.4133C29.2273 36.4133 29.1378 36.4033 29.0384 36.4033C28.9887 36.4033 28.9489 36.4033 28.8992 36.4133L28.9191 36.5127L29.3267 36.4133Z" fill="#D8BFB4"/>
<path d="M29.0978 37.2337L28.9197 36.5117L28.267 36.67C28.2472 36.6897 28.2175 36.7095 28.1978 36.7293L28.3659 37.4117L29.0978 37.2337Z" fill="#D8BFB4"/>
<path d="M29.0972 37.233L29.8192 37.055L29.6609 36.422C29.5423 36.4121 29.4335 36.4121 29.3148 36.4121L28.9192 36.511L29.0972 37.233Z" fill="white"/>
<path d="M30.5499 36.8768L30.451 36.4713C30.1939 36.4515 29.9367 36.4318 29.6697 36.4219L29.8279 37.0548L30.5499 36.8768Z" fill="#D8BFB4"/>
<path d="M31.281 36.6982L31.2513 36.5597C30.9942 36.53 30.7271 36.5004 30.4601 36.4707L30.559 36.8762L31.281 36.6982Z" fill="white"/>
<path d="M31.6383 36.6112C31.5091 36.5914 31.3798 36.5715 31.2406 36.5615L31.2704 36.7007L31.6383 36.6112Z" fill="#D8BFB4"/>
<path d="M42.8616 33.7256C42.762 33.7953 42.6524 33.8751 42.5527 33.9448L42.8915 33.8651L42.8616 33.7256Z" fill="white"/>
<path d="M43.6213 33.6866L43.5224 33.291C43.2949 33.4394 43.0674 33.5877 42.8597 33.7361L42.8894 33.8745L43.6213 33.6866Z" fill="#D8BFB4"/>
<path d="M44.3524 33.5098L44.1941 32.8867C43.9667 33.0252 43.7392 33.1538 43.5216 33.2922L43.6205 33.6878L44.3524 33.5098Z" fill="white"/>
<path d="M44.8772 32.5098C44.8374 32.5297 44.8076 32.5396 44.7678 32.5595C44.6783 32.6092 44.5988 32.649 44.5093 32.6987L44.8971 32.6092L44.8772 32.5098Z" fill="#71495A"/>
<path d="M45.5668 32.4411C45.3393 32.3916 45.102 32.4114 44.8745 32.5103L44.8943 32.6092L45.5668 32.4411Z" fill="#D8BFB4"/>
<path d="M45.0736 33.3314L44.8956 32.6094L44.5197 32.6984C44.4109 32.7577 44.3021 32.8171 44.2032 32.8863L44.3615 33.5094L45.0736 33.3314Z" fill="#D8BFB4"/>
<path d="M45.0727 33.3325L45.7947 33.1545L45.6265 32.4622C45.6067 32.4523 45.5771 32.4523 45.5573 32.4424L44.8947 32.6006L45.0727 33.3325Z" fill="white"/>
<path d="M46.3372 33.0247C46.179 32.7379 45.9218 32.5401 45.6251 32.4609L45.7933 33.1532L46.3372 33.0247Z" fill="#D8BFB4"/>
<path d="M28.3762 37.4102L27.8521 37.5387C27.8521 37.5486 27.8521 37.5585 27.8521 37.5585C27.8521 37.7761 27.8619 38.0233 27.8817 38.3003L28.5543 38.1321L28.3762 37.4102Z" fill="#D8BFB4"/>
<path d="M27.9015 38.626C27.9114 38.7652 27.9313 38.9143 27.9512 39.0635L28.0109 39.0535L27.9015 38.626Z" fill="#D8BFB4"/>
<path d="M28.7319 38.8646L28.5539 38.1426L27.8813 38.3107C27.8912 38.4096 27.9011 38.5184 27.911 38.6272L28.0099 39.0426L28.7319 38.8646Z" fill="white"/>
<path d="M29.1038 37.2319L28.3737 37.4102L28.5519 38.1403L29.2821 37.962L29.1038 37.2319Z" fill="#71495A"/>
<path d="M29.8251 37.0561L29.095 37.2344L29.2733 37.9645L30.0034 37.7862L29.8251 37.0561Z" fill="#D8BFB4"/>
<path d="M29.2804 37.9526L28.5503 38.1309L28.7286 38.861L29.4587 38.6827L29.2804 37.9526Z" fill="#D8BFB4"/>
<path d="M30.0035 37.7856L29.2733 37.9639L29.4516 38.694L30.1818 38.5157L30.0035 37.7856Z" fill="white"/>
<path d="M30.5558 36.8764L29.8257 37.0547L30.004 37.7848L30.7341 37.6065L30.5558 36.8764Z" fill="#71495A"/>
<path d="M31.2764 36.6996L30.5463 36.8779L30.7246 37.6081L31.4547 37.4298L31.2764 36.6996Z" fill="#D8BFB4"/>
<path d="M30.7365 37.6048L30.0063 37.7832L30.1847 38.5134L30.9149 38.335L30.7365 37.6048Z" fill="#D8BFB4"/>
<path d="M31.4592 37.4271L30.729 37.6055L30.9074 38.3356L31.6375 38.1573L31.4592 37.4271Z" fill="white"/>
<path d="M31.4585 37.4312L32.1805 37.2532L32.0421 36.6796C31.9036 36.6598 31.775 36.6301 31.6366 36.6104L31.2805 36.6994L31.4585 37.4312Z" fill="#71495A"/>
<path d="M32.9117 37.0753L32.8524 36.8379C32.5952 36.7786 32.3282 36.7291 32.0414 36.6797L32.1798 37.2533L32.9117 37.0753Z" fill="#D8BFB4"/>
<path d="M32.1863 37.2514L31.4562 37.4297L31.6345 38.1598L32.3646 37.9815L32.1863 37.2514Z" fill="#D8BFB4"/>
<path d="M32.9076 37.0746L32.1775 37.2529L32.3558 37.9831L33.0859 37.8048L32.9076 37.0746Z" fill="white"/>
<path d="M33.3655 36.9566C33.1974 36.917 33.0292 36.8775 32.8512 36.8379L32.9105 37.0753L33.3655 36.9566Z" fill="#71495A"/>
<path d="M33.0885 37.7967L33.8105 37.6187L33.6721 37.0352C33.5732 37.0055 33.4743 36.9857 33.3655 36.9561L32.9006 37.0648L33.0885 37.7967Z" fill="#D8BFB4"/>
<path d="M34.541 37.4407L34.5014 37.2824C34.2443 37.1934 33.9674 37.1143 33.6707 37.0352L33.8091 37.6187L34.541 37.4407Z" fill="white"/>
<path d="M34.7795 37.3819C34.6898 37.352 34.5902 37.3221 34.5005 37.2822L34.5403 37.4417L34.7795 37.3819Z" fill="#D8BFB4"/>
<path d="M40.3131 35.8799C40.253 35.9499 40.183 36.01 40.1229 36.08L40.3431 36.03L40.3131 35.8799Z" fill="white"/>
<path d="M41.5675 34.7236C41.4283 34.833 41.299 34.9523 41.1797 35.0617L41.6271 34.9523L41.5675 34.7236Z" fill="#D8BFB4"/>
<path d="M41.0716 35.85L40.9331 35.2764C40.7057 35.4841 40.498 35.6819 40.3101 35.8797L40.3496 36.0181L41.0716 35.85Z" fill="#D8BFB4"/>
<path d="M41.8031 35.6732L41.625 34.9512L41.18 35.06C41.091 35.1391 41.0119 35.2083 40.9327 35.2874L41.0712 35.8611L41.8031 35.6732Z" fill="white"/>
<path d="M42.3465 34.763L42.208 34.1992C41.9806 34.3674 41.763 34.5454 41.5652 34.7135L41.6245 34.941L42.3465 34.763Z" fill="#71495A"/>
<path d="M43.0772 34.595L42.8992 33.873L42.563 33.9522C42.4443 34.0412 42.3256 34.1302 42.2168 34.2093L42.3553 34.7731L43.0772 34.595Z" fill="#D8BFB4"/>
<path d="M42.3543 34.7591L41.6241 34.9375L41.8025 35.6677L42.5327 35.4893L42.3543 34.7591Z" fill="#D8BFB4"/>
<path d="M43.072 34.5864L42.3418 34.7646L42.5201 35.4948L43.2502 35.3165L43.072 34.5864Z" fill="white"/>
<path d="M43.6266 33.686L42.8965 33.8643L43.0748 34.5944L43.8049 34.4161L43.6266 33.686Z" fill="#71495A"/>
<path d="M44.3473 33.5082L43.6172 33.6865L43.7955 34.4167L44.5256 34.2384L44.3473 33.5082Z" fill="#D8BFB4"/>
<path d="M43.8028 34.4067L43.0726 34.585L43.2509 35.3151L43.9811 35.1368L43.8028 34.4067Z" fill="#D8BFB4"/>
<path d="M44.5298 34.2357L43.7997 34.4141L43.978 35.1442L44.7082 34.9658L44.5298 34.2357Z" fill="white"/>
<path d="M45.0784 33.3295L44.3483 33.5078L44.5266 34.238L45.2567 34.0597L45.0784 33.3295Z" fill="#71495A"/>
<path d="M45.7997 33.1537L45.0696 33.332L45.2479 34.0622L45.978 33.8839L45.7997 33.1537Z" fill="#D8BFB4"/>
<path d="M45.2568 34.061L44.5266 34.2393L44.7049 34.9694L45.4351 34.7911L45.2568 34.061Z" fill="#D8BFB4"/>
<path d="M45.9771 33.8832L45.2469 34.0615L45.4252 34.7917L46.1554 34.6134L45.9771 33.8832Z" fill="white"/>
<path d="M45.9811 33.8849L46.6734 33.7167C46.5646 33.4596 46.4559 33.242 46.3569 33.0442C46.3569 33.0343 46.3471 33.0343 46.3471 33.0244L45.8031 33.153L45.9811 33.8849Z" fill="#71495A"/>
<path d="M46.1585 34.6059L46.8805 34.4279L46.7519 33.8938C46.7222 33.8345 46.7024 33.7752 46.6728 33.7158L45.9805 33.884L46.1585 34.6059Z" fill="#D8BFB4"/>
<path d="M46.9588 34.408C46.8896 34.2201 46.8203 34.0519 46.7511 33.8838L46.8797 34.4179L46.9588 34.408Z" fill="white"/>
<path d="M27.9996 39.041L27.9403 39.0509C27.97 39.2883 27.9996 39.5355 28.0491 39.7927L28.1777 39.763L27.9996 39.041Z" fill="#71495A"/>
<path d="M28.7321 38.8607L28.002 39.0391L28.1803 39.7692L28.9105 39.5908L28.7321 38.8607Z" fill="#D8BFB4"/>
<path d="M28.1783 39.7617L28.0497 39.7914C28.0892 40.0288 28.1387 40.2661 28.1881 40.5233L28.3563 40.4837L28.1783 39.7617Z" fill="#D8BFB4"/>
<path d="M28.9085 39.5814L28.1783 39.7598L28.3567 40.4899L29.0869 40.3116L28.9085 39.5814Z" fill="white"/>
<path d="M29.4593 38.683L28.7291 38.8613L28.9074 39.5915L29.6376 39.4132L29.4593 38.683Z" fill="#71495A"/>
<path d="M30.1808 38.5073L29.4507 38.6855L29.629 39.4157L30.3591 39.2374L30.1808 38.5073Z" fill="#D8BFB4"/>
<path d="M29.6391 39.4027L28.9089 39.5811L29.0873 40.3112L29.8175 40.1328L29.6391 39.4027Z" fill="#D8BFB4"/>
<path d="M30.3587 39.2377L29.6285 39.416L29.8068 40.1462L30.537 39.9679L30.3587 39.2377Z" fill="white"/>
<path d="M30.9119 38.3276L30.1818 38.5059L30.3601 39.236L31.0902 39.0577L30.9119 38.3276Z" fill="#71495A"/>
<path d="M31.6321 38.1518L30.902 38.3301L31.0803 39.0602L31.8104 38.8819L31.6321 38.1518Z" fill="#D8BFB4"/>
<path d="M31.081 39.061L30.3508 39.2393L30.5291 39.9694L31.2593 39.7911L31.081 39.061Z" fill="#D8BFB4"/>
<path d="M31.8115 38.8832L31.0813 39.0615L31.2596 39.7917L31.9897 39.6134L31.8115 38.8832Z" fill="white"/>
<path d="M32.3632 37.9731L31.6331 38.1514L31.8113 38.8815L32.5415 38.7032L32.3632 37.9731Z" fill="#71495A"/>
<path d="M33.0848 37.7953L32.3546 37.9736L32.5329 38.7038L33.2631 38.5255L33.0848 37.7953Z" fill="#D8BFB4"/>
<path d="M32.5328 38.7055L31.8026 38.8838L31.9809 39.6139L32.7111 39.4357L32.5328 38.7055Z" fill="#D8BFB4"/>
<path d="M33.2634 38.5268L32.5332 38.7051L32.7115 39.4352L33.4416 39.2569L33.2634 38.5268Z" fill="white"/>
<path d="M33.8146 37.6166L33.0845 37.7949L33.2628 38.5251L33.9929 38.3468L33.8146 37.6166Z" fill="#71495A"/>
<path d="M34.5366 37.4399L33.8064 37.6182L33.9847 38.3483L34.7148 38.17L34.5366 37.4399Z" fill="#D8BFB4"/>
<path d="M33.9848 38.35L33.2546 38.5283L33.4329 39.2585L34.1631 39.0802L33.9848 38.35Z" fill="#D8BFB4"/>
<path d="M34.7156 38.1713L33.9855 38.3496L34.1638 39.0798L34.8939 38.9015L34.7156 38.1713Z" fill="white"/>
<path d="M34.7189 38.1711L35.4409 37.9931L35.342 37.5975C35.164 37.5282 34.9761 37.459 34.7783 37.3799L34.5409 37.4392L34.7189 38.1711Z" fill="#71495A"/>
<path d="M35.9633 37.8657C35.7754 37.7767 35.5677 37.6876 35.3402 37.5986L35.4391 37.9942L35.9633 37.8657Z" fill="#D8BFB4"/>
<path d="M35.4367 37.9946L34.7065 38.1729L34.8848 38.903L35.615 38.7247L35.4367 37.9946Z" fill="#D8BFB4"/>
<path d="M35.6169 38.7149L36.3388 38.5369L36.2004 37.9732C36.1213 37.9336 36.0421 37.8941 35.963 37.8545L35.4388 37.9831L35.6169 38.7149Z" fill="white"/>
<path d="M36.9724 38.3889C36.7746 38.2702 36.5174 38.1318 36.2009 37.9834L36.3394 38.5471L36.9724 38.3889Z" fill="#D8BFB4"/>
<path d="M39.1152 37.2822C38.9174 37.5493 38.7592 37.7866 38.6405 37.9745L39.2537 37.8262L39.1152 37.2822Z" fill="white"/>
<path d="M39.7079 36.5518C39.5595 36.7298 39.4211 36.8979 39.2925 37.0562L39.7969 36.9375L39.7079 36.5518Z" fill="#71495A"/>
<path d="M40.5285 36.7493L40.3505 36.0273L40.1329 36.0768C39.9846 36.235 39.8461 36.3933 39.7175 36.5416L39.8065 36.9273L40.5285 36.7493Z" fill="#D8BFB4"/>
<path d="M39.9758 37.6575L39.7978 36.9355L39.2934 37.0542C39.234 37.1334 39.1747 37.2125 39.1154 37.2916L39.2538 37.8356L39.9758 37.6575Z" fill="#D8BFB4"/>
<path d="M40.523 36.7485L39.7928 36.9268L39.9711 37.6569L40.7013 37.4786L40.523 36.7485Z" fill="white"/>
<path d="M41.0706 35.847L40.3405 36.0254L40.5188 36.7555L41.249 36.5772L41.0706 35.847Z" fill="#71495A"/>
<path d="M41.798 35.6723L41.0679 35.8506L41.2462 36.5807L41.9763 36.4024L41.798 35.6723Z" fill="#D8BFB4"/>
<path d="M41.2448 36.5717L40.5146 36.75L40.6929 37.4802L41.4231 37.3019L41.2448 36.5717Z" fill="#D8BFB4"/>
<path d="M41.9791 36.39L41.2489 36.5684L41.4273 37.2985L42.1574 37.1201L41.9791 36.39Z" fill="white"/>
<path d="M42.5202 35.4946L41.79 35.6729L41.9683 36.403L42.6985 36.2247L42.5202 35.4946Z" fill="#71495A"/>
<path d="M43.254 35.3128L42.5238 35.4912L42.7022 36.2214L43.4323 36.043L43.254 35.3128Z" fill="#D8BFB4"/>
<path d="M42.6963 36.2172L41.9662 36.3955L42.1445 37.1257L42.8746 36.9474L42.6963 36.2172Z" fill="#D8BFB4"/>
<path d="M43.4277 36.0375L42.6975 36.2158L42.8758 36.946L43.606 36.7677L43.4277 36.0375Z" fill="white"/>
<path d="M43.9716 35.1401L43.2415 35.3184L43.4197 36.0485L44.1499 35.8702L43.9716 35.1401Z" fill="#71495A"/>
<path d="M44.7031 34.9614L43.9729 35.1396L44.1512 35.8698L44.8813 35.6915L44.7031 34.9614Z" fill="#D8BFB4"/>
<path d="M44.148 35.8608L43.4178 36.0391L43.5961 36.7692L44.3263 36.5909L44.148 35.8608Z" fill="#D8BFB4"/>
<path d="M44.8815 35.6928L44.1514 35.8711L44.3297 36.6012L45.0598 36.423L44.8815 35.6928Z" fill="white"/>
<path d="M45.4241 34.7846L44.694 34.9629L44.8723 35.693L45.6024 35.5148L45.4241 34.7846Z" fill="#71495A"/>
<path d="M46.155 34.6049L45.4248 34.7832L45.6031 35.5134L46.3333 35.3351L46.155 34.6049Z" fill="#D8BFB4"/>
<path d="M45.603 35.5151L44.8728 35.6934L45.0511 36.4235L45.7812 36.2452L45.603 35.5151Z" fill="#D8BFB4"/>
<path d="M46.3335 35.3354L45.6034 35.5137L45.7817 36.2438L46.5118 36.0655L46.3335 35.3354Z" fill="white"/>
<path d="M46.8763 34.4282L46.1461 34.6064L46.3244 35.3366L47.0546 35.1583L46.8763 34.4282Z" fill="#71495A"/>
<path d="M47.058 35.1589L47.2064 35.1193C47.1273 34.8622 47.0382 34.6347 46.9591 34.4072L46.88 34.427L47.058 35.1589Z" fill="#D8BFB4"/>
<path d="M47.0578 35.1546L46.3276 35.333L46.506 36.0632L47.2362 35.8848L47.0578 35.1546Z" fill="#D8BFB4"/>
<path d="M47.2365 35.8798L47.4244 35.8304C47.3552 35.5732 47.2859 35.3359 47.2068 35.1084L47.0585 35.148L47.2365 35.8798Z" fill="white"/>
<path d="M28.3561 40.4932L28.188 40.5327C28.2374 40.7701 28.2968 41.0075 28.3561 41.2646L28.5341 41.225L28.3561 40.4932Z" fill="#71495A"/>
<path d="M29.0882 40.3119L28.358 40.4902L28.5364 41.2204L29.2666 41.042L29.0882 40.3119Z" fill="#D8BFB4"/>
<path d="M28.5339 41.2139L28.3558 41.2534C28.3657 41.293 28.3756 41.3227 28.3855 41.3622C28.435 41.5798 28.4844 41.7875 28.5437 41.9853L28.7119 41.9457L28.5339 41.2139Z" fill="#D8BFB4"/>
<path d="M29.2638 41.0326L28.5337 41.2109L28.7121 41.9411L29.4422 41.7627L29.2638 41.0326Z" fill="white"/>
<path d="M29.8086 40.1351L29.0785 40.3135L29.2569 41.0436L29.987 40.8653L29.8086 40.1351Z" fill="#71495A"/>
<path d="M30.5363 39.9584L29.8062 40.1367L29.9844 40.8669L30.7146 40.6886L30.5363 39.9584Z" fill="#D8BFB4"/>
<path d="M29.9819 40.8588L29.2517 41.0371L29.43 41.7673L30.1602 41.589L29.9819 40.8588Z" fill="#D8BFB4"/>
<path d="M30.7151 40.6899L29.985 40.8682L30.1633 41.5983L30.8934 41.42L30.7151 40.6899Z" fill="white"/>
<path d="M31.2579 39.7826L30.5277 39.9609L30.706 40.6911L31.4362 40.5128L31.2579 39.7826Z" fill="#71495A"/>
<path d="M31.9919 39.6L31.2617 39.7783L31.4401 40.5085L32.1702 40.3301L31.9919 39.6Z" fill="#D8BFB4"/>
<path d="M31.4357 40.5131L30.7056 40.6914L30.8839 41.4216L31.614 41.2433L31.4357 40.5131Z" fill="#D8BFB4"/>
<path d="M32.1707 40.3314L31.4406 40.5098L31.6189 41.2399L32.3491 41.0616L32.1707 40.3314Z" fill="white"/>
<path d="M32.7096 39.4262L31.9795 39.6045L32.1578 40.3346L32.8879 40.1564L32.7096 39.4262Z" fill="#71495A"/>
<path d="M33.4397 39.2475L32.7096 39.4258L32.8879 40.1559L33.618 39.9776L33.4397 39.2475Z" fill="#D8BFB4"/>
<path d="M32.8875 40.1576L32.1573 40.3359L32.3356 41.0661L33.0658 40.8878L32.8875 40.1576Z" fill="#D8BFB4"/>
<path d="M33.6196 39.9789L32.8894 40.1572L33.0677 40.8874L33.7978 40.7091L33.6196 39.9789Z" fill="white"/>
<path d="M34.1642 39.0677L33.4341 39.2461L33.6124 39.9762L34.3426 39.7979L34.1642 39.0677Z" fill="#71495A"/>
<path d="M34.8928 38.893L34.1626 39.0713L34.3409 39.8014L35.071 39.6232L34.8928 38.893Z" fill="#D8BFB4"/>
<path d="M34.3399 39.8022L33.6097 39.9805L33.788 40.7106L34.5182 40.5323L34.3399 39.8022Z" fill="#D8BFB4"/>
<path d="M35.0712 39.6235L34.3411 39.8018L34.5194 40.5319L35.2495 40.3536L35.0712 39.6235Z" fill="white"/>
<path d="M35.6131 38.7162L34.8829 38.8945L35.0612 39.6247L35.7914 39.4464L35.6131 38.7162Z" fill="#71495A"/>
<path d="M36.3444 38.5366L35.6143 38.7148L35.7925 39.445L36.5227 39.2667L36.3444 38.5366Z" fill="#D8BFB4"/>
<path d="M35.7922 39.4457L35.062 39.624L35.2403 40.3542L35.9705 40.1759L35.7922 39.4457Z" fill="#D8BFB4"/>
<path d="M36.5232 39.268L35.7931 39.4463L35.9714 40.1764L36.7015 39.9982L36.5232 39.268Z" fill="white"/>
<path d="M36.5162 39.27L37.159 39.1118L37.0403 38.6172C37.0206 38.5579 37.0403 38.4986 37.07 38.4392C37.0403 38.4194 37.0107 38.3997 36.981 38.3799L36.348 38.5381L36.5162 39.27Z" fill="#71495A"/>
<path d="M36.5166 39.2676L36.6946 39.9995L37.3375 39.8412L37.1891 39.2281L37.1595 39.1094L36.5166 39.2676Z" fill="#D8BFB4"/>
<path d="M38.7298 38.2009L38.8485 38.6954L39.4221 38.5569L39.2441 37.835L38.6309 37.9833C38.621 38.0031 38.6012 38.0229 38.5913 38.0427C38.6605 38.0723 38.7199 38.1317 38.7298 38.2009Z" fill="#D8BFB4"/>
<path d="M38.858 38.6951L38.8877 38.8237L39.0361 39.427L39.5998 39.2885L39.4218 38.5566L38.858 38.6951Z" fill="white"/>
<path d="M39.9753 37.6546L39.2451 37.833L39.4235 38.5632L40.1536 38.3848L39.9753 37.6546Z" fill="#71495A"/>
<path d="M40.7028 37.4799L39.9727 37.6582L40.1509 38.3884L40.8811 38.2101L40.7028 37.4799Z" fill="#D8BFB4"/>
<path d="M40.1514 38.3763L39.4213 38.5547L39.5996 39.2848L40.3298 39.1065L40.1514 38.3763Z" fill="#D8BFB4"/>
<path d="M40.8787 38.2016L40.1486 38.3799L40.3269 39.11L41.057 38.9317L40.8787 38.2016Z" fill="white"/>
<path d="M41.4271 37.2992L40.6969 37.4775L40.8753 38.2077L41.6054 38.0293L41.4271 37.2992Z" fill="#71495A"/>
<path d="M42.1554 37.1244L41.4253 37.3027L41.6036 38.0329L42.3337 37.8546L42.1554 37.1244Z" fill="#D8BFB4"/>
<path d="M41.6 38.0248L40.8699 38.2031L41.0482 38.9333L41.7783 38.755L41.6 38.0248Z" fill="#D8BFB4"/>
<path d="M42.3343 37.8412L41.6041 38.0195L41.7825 38.7497L42.5126 38.5713L42.3343 37.8412Z" fill="white"/>
<path d="M42.8762 36.9467L42.146 37.125L42.3243 37.8552L43.0544 37.6769L42.8762 36.9467Z" fill="#71495A"/>
<path d="M43.6087 36.765L42.8785 36.9434L43.0569 37.6735L43.7871 37.4951L43.6087 36.765Z" fill="#D8BFB4"/>
<path d="M43.0527 37.6684L42.3225 37.8467L42.5008 38.5768L43.231 38.3985L43.0527 37.6684Z" fill="#D8BFB4"/>
<path d="M43.7839 37.4897L43.0537 37.668L43.232 38.3981L43.9622 38.2198L43.7839 37.4897Z" fill="white"/>
<path d="M44.3278 36.5922L43.5977 36.7705L43.7759 37.5007L44.5061 37.3224L44.3278 36.5922Z" fill="#71495A"/>
<path d="M45.0618 36.4085L44.3317 36.5869L44.51 37.3171L45.2402 37.1387L45.0618 36.4085Z" fill="#D8BFB4"/>
<path d="M44.5044 37.3129L43.7743 37.4912L43.9526 38.2214L44.6827 38.0431L44.5044 37.3129Z" fill="#D8BFB4"/>
<path d="M45.238 37.143L44.5078 37.3213L44.6861 38.0514L45.4163 37.8732L45.238 37.143Z" fill="white"/>
<path d="M45.7796 36.2358L45.0494 36.4141L45.2277 37.1442L45.9579 36.9659L45.7796 36.2358Z" fill="#71495A"/>
<path d="M46.5112 36.0571L45.781 36.2354L45.9593 36.9655L46.6895 36.7872L46.5112 36.0571Z" fill="#D8BFB4"/>
<path d="M45.9595 36.9672L45.2294 37.1455L45.4077 37.8757L46.1378 37.6974L45.9595 36.9672Z" fill="#D8BFB4"/>
<path d="M46.6888 36.7885L45.9586 36.9668L46.1369 37.6969L46.8671 37.5187L46.6888 36.7885Z" fill="white"/>
<path d="M47.2352 35.8763L46.505 36.0547L46.6834 36.7848L47.4135 36.6065L47.2352 35.8763Z" fill="#71495A"/>
<path d="M47.4136 36.6113L47.6114 36.5618C47.5521 36.3047 47.4927 36.0673 47.4235 35.8398L47.2356 35.8893L47.4136 36.6113Z" fill="#D8BFB4"/>
<path d="M47.4142 36.6078L46.6841 36.7861L46.8624 37.5163L47.5926 37.3379L47.4142 36.6078Z" fill="#D8BFB4"/>
<path d="M47.5914 37.3331L47.7793 37.2836C47.7298 37.0858 47.6804 36.8781 47.6309 36.6605C47.621 36.621 47.6111 36.5913 47.6012 36.5518L47.4034 36.6012L47.5914 37.3331Z" fill="white"/>
<path d="M28.7118 41.9453L28.5437 41.9849C28.6129 42.242 28.6822 42.4794 28.7514 42.7069L28.8899 42.6673L28.7118 41.9453Z" fill="#71495A"/>
<path d="M29.4434 41.763L28.7133 41.9414L28.8916 42.6716L29.6218 42.4932L29.4434 41.763Z" fill="#D8BFB4"/>
<path d="M28.8899 42.667L28.7515 42.7066C28.8306 42.9637 28.9097 43.2011 28.9888 43.4186L29.068 43.3989L28.8899 42.667Z" fill="#D8BFB4"/>
<path d="M29.6164 42.4877L28.8862 42.666L29.0645 43.3962L29.7947 43.2179L29.6164 42.4877Z" fill="white"/>
<path d="M30.1602 41.5903L29.4301 41.7686L29.6083 42.4987L30.3385 42.3204L30.1602 41.5903Z" fill="#71495A"/>
<path d="M30.8954 41.4085L30.1653 41.5869L30.3437 42.3171L31.0738 42.1387L30.8954 41.4085Z" fill="#D8BFB4"/>
<path d="M30.3372 42.311L29.6071 42.4893L29.7853 43.2194L30.5155 43.0411L30.3372 42.311Z" fill="#D8BFB4"/>
<path d="M31.0718 42.1293L30.3417 42.3076L30.52 43.0378L31.2502 42.8594L31.0718 42.1293Z" fill="white"/>
<path d="M31.6124 41.2348L30.8822 41.4131L31.0605 42.1432L31.7906 41.9649L31.6124 41.2348Z" fill="#71495A"/>
<path d="M32.3434 41.0551L31.6133 41.2334L31.7916 41.9636L32.5217 41.7853L32.3434 41.0551Z" fill="#D8BFB4"/>
<path d="M31.7922 41.9653L31.062 42.1436L31.2403 42.8737L31.9705 42.6954L31.7922 41.9653Z" fill="#D8BFB4"/>
<path d="M32.5223 41.7856L31.7921 41.9639L31.9704 42.694L32.7006 42.5157L32.5223 41.7856Z" fill="white"/>
<path d="M33.069 40.8753L32.3389 41.0537L32.5172 41.7839L33.2474 41.6055L33.069 40.8753Z" fill="#71495A"/>
<path d="M33.7952 40.7006L33.0651 40.8789L33.2434 41.6091L33.9735 41.4308L33.7952 40.7006Z" fill="#D8BFB4"/>
<path d="M33.2437 41.6108L32.5135 41.7891L32.6918 42.5192L33.422 42.3409L33.2437 41.6108Z" fill="#D8BFB4"/>
<path d="M33.975 41.4301L33.2449 41.6084L33.4232 42.3385L34.1533 42.1603L33.975 41.4301Z" fill="white"/>
<path d="M34.5204 40.5199L33.7903 40.6982L33.9687 41.4284L34.6988 41.25L34.5204 40.5199Z" fill="#71495A"/>
<path d="M35.2481 40.3442L34.5179 40.5225L34.6962 41.2526L35.4264 41.0743L35.2481 40.3442Z" fill="#D8BFB4"/>
<path d="M34.6954 41.2543L33.9652 41.4326L34.1435 42.1628L34.8737 41.9845L34.6954 41.2543Z" fill="#D8BFB4"/>
<path d="M35.4267 41.0746L34.6965 41.2529L34.8748 41.9831L35.605 41.8048L35.4267 41.0746Z" fill="white"/>
<path d="M35.969 40.1674L35.2389 40.3457L35.4172 41.0759L36.1473 40.8976L35.969 40.1674Z" fill="#71495A"/>
<path d="M36.7035 39.9857L35.9734 40.1641L36.1518 40.8942L36.8819 40.7158L36.7035 39.9857Z" fill="#D8BFB4"/>
<path d="M35.4207 41.0766L35.5987 41.7986L36.1624 41.6601C36.2119 41.6107 36.2514 41.5513 36.3009 41.5019L36.1525 40.8887L35.4207 41.0766Z" fill="#D8BFB4"/>
<path d="M36.1512 40.8986L36.2996 41.5118C36.5271 41.2448 36.7249 40.9975 36.893 40.7799L36.8831 40.7305L36.1512 40.8986Z" fill="white"/>
<path d="M37.3366 39.8506L36.6937 39.9989L36.8717 40.7209L36.9311 40.7011C37.1388 40.4143 37.3069 40.1671 37.4256 39.9693C37.386 39.9495 37.3564 39.9 37.3366 39.8506Z" fill="#71495A"/>
<path d="M36.8922 40.7708C36.9124 40.7507 36.9224 40.7305 36.9426 40.7002L36.8821 40.7204L36.8922 40.7708Z" fill="#D8BFB4"/>
<path d="M39.6002 39.2881L39.0266 39.4265V39.4364C39.0464 39.5057 39.0266 39.5749 38.9969 39.6244C39.1849 39.7331 39.4321 39.8716 39.7387 40.02L39.7783 40.0101L39.6002 39.2881Z" fill="#D8BFB4"/>
<path d="M39.7371 40.0187C39.7568 40.0286 39.7667 40.0384 39.7865 40.0483L39.7766 40.0088L39.7371 40.0187Z" fill="white"/>
<path d="M40.3261 39.1117L39.5959 39.29L39.7742 40.0202L40.5044 39.8419L40.3261 39.1117Z" fill="#71495A"/>
<path d="M41.0584 38.9311L40.3282 39.1094L40.5065 39.8395L41.2367 39.6612L41.0584 38.9311Z" fill="#D8BFB4"/>
<path d="M39.7772 40.009L39.7871 40.0485C40.0344 40.1672 40.3212 40.2958 40.6476 40.4342L40.4992 39.8408L39.7772 40.009Z" fill="#D8BFB4"/>
<path d="M41.2296 39.6533L40.5076 39.8313L40.6559 40.4248C40.7252 40.4544 40.8043 40.4841 40.8735 40.5138L41.4175 40.3852L41.2296 39.6533Z" fill="white"/>
<path d="M41.7789 38.7543L41.0487 38.9326L41.227 39.6628L41.9571 39.4845L41.7789 38.7543Z" fill="#71495A"/>
<path d="M42.5102 38.5756L41.78 38.7539L41.9583 39.4841L42.6885 39.3058L42.5102 38.5756Z" fill="#D8BFB4"/>
<path d="M41.9565 39.476L41.2263 39.6543L41.4046 40.3845L42.1348 40.2062L41.9565 39.476Z" fill="#D8BFB4"/>
<path d="M42.6895 39.2933L41.9594 39.4717L42.1377 40.2018L42.8679 40.0235L42.6895 39.2933Z" fill="white"/>
<path d="M43.2317 38.3998L42.5016 38.5781L42.6799 39.3083L43.41 39.13L43.2317 38.3998Z" fill="#71495A"/>
<path d="M43.962 38.2201L43.2318 38.3984L43.4101 39.1286L44.1403 38.9503L43.962 38.2201Z" fill="#D8BFB4"/>
<path d="M43.4081 39.1215L42.678 39.2998L42.8563 40.03L43.5864 39.8517L43.4081 39.1215Z" fill="#D8BFB4"/>
<path d="M44.1395 38.9418L43.4093 39.1201L43.5876 39.8503L44.3177 39.672L44.1395 38.9418Z" fill="white"/>
<path d="M44.6838 38.0444L43.9536 38.2227L44.1319 38.9528L44.8621 38.7745L44.6838 38.0444Z" fill="#71495A"/>
<path d="M45.4175 37.8607L44.6874 38.0391L44.8657 38.7692L45.5959 38.5908L45.4175 37.8607Z" fill="#D8BFB4"/>
<path d="M44.8636 38.7611L44.1334 38.9395L44.3118 39.6696L45.0419 39.4912L44.8636 38.7611Z" fill="#D8BFB4"/>
<path d="M45.5929 38.5961L44.8628 38.7744L45.0411 39.5046L45.7712 39.3263L45.5929 38.5961Z" fill="white"/>
<path d="M46.1349 37.6879L45.4048 37.8662L45.5831 38.5964L46.3132 38.4181L46.1349 37.6879Z" fill="#71495A"/>
<path d="M46.8666 37.5102L46.1365 37.6885L46.3148 38.4186L47.0449 38.2403L46.8666 37.5102Z" fill="#D8BFB4"/>
<path d="M46.3138 38.4203L45.5836 38.5986L45.7619 39.3288L46.4921 39.1505L46.3138 38.4203Z" fill="#D8BFB4"/>
<path d="M47.0441 38.2397L46.314 38.418L46.4923 39.1481L47.2224 38.9698L47.0441 38.2397Z" fill="white"/>
<path d="M47.5906 37.3285L46.8605 37.5068L47.0388 38.237L47.769 38.0586L47.5906 37.3285Z" fill="#71495A"/>
<path d="M47.7691 38.0634L47.9273 38.0239C47.8878 37.7865 47.8383 37.5491 47.779 37.292L47.5911 37.3414L47.7691 38.0634Z" fill="#D8BFB4"/>
<path d="M47.7697 38.058L47.0396 38.2363L47.2179 38.9665L47.9481 38.7881L47.7697 38.058Z" fill="#D8BFB4"/>
<path d="M47.9469 38.785L48.0458 38.7652C48.0162 38.5278 47.9766 38.2806 47.9272 38.0234L47.7689 38.063L47.9469 38.785Z" fill="white"/>
<path d="M28.9888 43.4182C29.0679 43.6358 29.147 43.8435 29.2261 44.0314L29.0679 43.3984L28.9888 43.4182Z" fill="#71495A"/>
<path d="M29.7892 43.2197L29.0673 43.3977L29.2255 44.0307C29.2354 44.0604 29.2552 44.0901 29.2651 44.1197L29.9772 43.9417L29.7892 43.2197Z" fill="#D8BFB4"/>
<path d="M29.9672 43.9404L29.2551 44.1185C29.3639 44.3756 29.4727 44.613 29.5716 44.8108L30.1452 44.6723L29.9672 43.9404Z" fill="white"/>
<path d="M30.516 43.0424L29.7859 43.2207L29.9642 43.9509L30.6943 43.7726L30.516 43.0424Z" fill="#71495A"/>
<path d="M31.2472 42.8627L30.5171 43.041L30.6954 43.7712L31.4255 43.5929L31.2472 42.8627Z" fill="#D8BFB4"/>
<path d="M30.6929 43.7631L29.9628 43.9414L30.1411 44.6716L30.8712 44.4933L30.6929 43.7631Z" fill="#D8BFB4"/>
<path d="M31.4238 43.5834L30.6936 43.7617L30.8719 44.4919L31.602 44.3136L31.4238 43.5834Z" fill="white"/>
<path d="M31.9715 42.6839L31.2413 42.8623L31.4197 43.5925L32.1499 43.4141L31.9715 42.6839Z" fill="#71495A"/>
<path d="M32.7031 42.5043L31.9729 42.6826L32.1513 43.4128L32.8814 43.2344L32.7031 42.5043Z" fill="#D8BFB4"/>
<path d="M32.1474 43.4174L31.4172 43.5957L31.5955 44.3259L32.3257 44.1476L32.1474 43.4174Z" fill="#D8BFB4"/>
<path d="M32.8777 43.2387L32.1476 43.417L32.3259 44.1471L33.056 43.9689L32.8777 43.2387Z" fill="white"/>
<path d="M33.4207 42.3305L32.6906 42.5088L32.8688 43.2389L33.599 43.0607L33.4207 42.3305Z" fill="#71495A"/>
<path d="M34.1536 42.1507L33.4235 42.3291L33.6018 43.0593L34.332 42.8809L34.1536 42.1507Z" fill="#D8BFB4"/>
<path d="M33.5993 43.0619L32.8691 43.2402L33.0474 43.9704L33.7776 43.7921L33.5993 43.0619Z" fill="#D8BFB4"/>
<path d="M33.6019 43.0618L33.78 43.7838L33.9085 43.7541C34.0964 43.6157 34.2646 43.4673 34.4327 43.3288L34.3239 42.8838L33.6019 43.0618Z" fill="white"/>
<path d="M34.8764 41.972L34.1462 42.1504L34.3246 42.8805L35.0548 42.7022L34.8764 41.972Z" fill="#71495A"/>
<path d="M34.8761 41.9759L35.0541 42.6979L35.1827 42.6682C35.3706 42.5001 35.5387 42.3319 35.697 42.1638L35.608 41.7979L34.8761 41.9759Z" fill="#D8BFB4"/>
<path d="M34.3226 42.8841L34.4314 43.3291C34.6589 43.1412 34.8666 42.9533 35.0644 42.7753L35.0446 42.7061L34.3226 42.8841Z" fill="#D8BFB4"/>
<path d="M35.064 42.7768C35.104 42.7468 35.134 42.7068 35.174 42.6768L35.0439 42.7068L35.064 42.7768Z" fill="white"/>
<path d="M35.6869 42.1724C35.855 41.9943 36.0133 41.8262 36.1517 41.668L35.588 41.8064L35.6869 42.1724Z" fill="#71495A"/>
<path d="M40.873 40.5133C41.0708 40.5925 41.2785 40.6617 41.4961 40.7408L41.4071 40.3848L40.873 40.5133Z" fill="#D8BFB4"/>
<path d="M42.1387 40.207L41.4167 40.3851L41.5058 40.7411C41.7332 40.8202 41.9706 40.8895 42.2179 40.9587L42.3266 40.929L42.1387 40.207Z" fill="#71495A"/>
<path d="M42.8656 40.0287L42.1355 40.207L42.3138 40.9372L43.0439 40.7589L42.8656 40.0287Z" fill="#D8BFB4"/>
<path d="M42.207 40.9578C42.2471 40.9678 42.2871 40.9778 42.3271 40.9878L42.3171 40.9277L42.207 40.9578Z" fill="#D8BFB4"/>
<path d="M42.3148 40.9279L42.3247 40.9872C42.5819 41.0565 42.8588 41.1257 43.1456 41.1949L43.0368 40.7598L42.3148 40.9279Z" fill="white"/>
<path d="M43.5899 39.849L42.8597 40.0273L43.0381 40.7575L43.7683 40.5791L43.5899 39.849Z" fill="#71495A"/>
<path d="M44.3176 39.6723L43.5874 39.8506L43.7657 40.5807L44.4958 40.4024L44.3176 39.6723Z" fill="#D8BFB4"/>
<path d="M43.7691 40.5723L43.0471 40.7503L43.1559 41.1855C43.3735 41.2349 43.601 41.2844 43.8383 41.3239L43.9471 41.2942L43.7691 40.5723Z" fill="#D8BFB4"/>
<path d="M44.4937 40.393L43.7635 40.5713L43.9418 41.3014L44.672 41.1231L44.4937 40.393Z" fill="white"/>
<path d="M45.039 39.4955L44.3088 39.6738L44.4871 40.404L45.2173 40.2257L45.039 39.4955Z" fill="#71495A"/>
<path d="M45.7728 39.3138L45.0426 39.4922L45.221 40.2223L45.9511 40.044L45.7728 39.3138Z" fill="#D8BFB4"/>
<path d="M45.2154 40.2172L44.4852 40.3955L44.6635 41.1257L45.3937 40.9474L45.2154 40.2172Z" fill="#D8BFB4"/>
<path d="M45.9491 40.0473L45.219 40.2256L45.3973 40.9557L46.1274 40.7774L45.9491 40.0473Z" fill="white"/>
<path d="M46.4909 39.1401L45.7607 39.3184L45.939 40.0485L46.6692 39.8702L46.4909 39.1401Z" fill="#71495A"/>
<path d="M47.2212 38.9614L46.4911 39.1396L46.6694 39.8698L47.3995 39.6915L47.2212 38.9614Z" fill="#D8BFB4"/>
<path d="M46.6695 39.8715L45.9393 40.0498L46.1176 40.78L46.8478 40.6017L46.6695 39.8715Z" fill="#D8BFB4"/>
<path d="M47.4008 39.6918L46.6707 39.8701L46.8489 40.6003L47.5791 40.422L47.4008 39.6918Z" fill="white"/>
<path d="M47.9468 38.7806L47.2167 38.959L47.395 39.6891L48.1252 39.5108L47.9468 38.7806Z" fill="#71495A"/>
<path d="M48.1255 39.5153C48.1058 39.278 48.086 39.0307 48.0464 38.7637L47.9475 38.7835L48.1255 39.5153Z" fill="#D8BFB4"/>
<path d="M47.3945 39.6938L47.5726 40.4158L48.166 40.2674C48.166 40.0498 48.1462 39.8026 48.1264 39.5355L48.1165 39.5059L47.3945 39.6938Z" fill="#D8BFB4"/>
<path d="M30.1447 44.6719L29.571 44.8103C29.6007 44.8697 29.6304 44.929 29.6601 44.9884C29.759 45.1862 29.9172 45.3444 30.0952 45.4532L30.3227 45.3939L30.1447 44.6719Z" fill="#D8BFB4"/>
<path d="M30.0948 45.4531C30.1845 45.503 30.2742 45.5428 30.3639 45.5727L30.324 45.4033L30.0948 45.4531Z" fill="white"/>
<path d="M30.8722 44.4936L30.1421 44.6719L30.3204 45.402L31.0505 45.2237L30.8722 44.4936Z" fill="#71495A"/>
<path d="M31.6026 44.3149L30.8724 44.4932L31.0507 45.2233L31.7809 45.045L31.6026 44.3149Z" fill="#D8BFB4"/>
<path d="M30.3224 45.394L30.362 45.5621C30.6092 45.6313 30.8762 45.6214 31.1235 45.5225L31.0444 45.2061L30.3224 45.394Z" fill="#D8BFB4"/>
<path d="M31.0537 45.2259L31.1328 45.5424C31.1724 45.5226 31.212 45.5028 31.2515 45.483C31.4394 45.3841 31.6273 45.2753 31.8054 45.1665L31.7757 45.0479L31.0537 45.2259Z" fill="white"/>
<path d="M31.5968 44.3167L31.7748 45.0387L32.1704 44.9398C32.2693 44.8804 32.3781 44.8112 32.477 44.7519L32.3287 44.1387L31.5968 44.3167Z" fill="#71495A"/>
<path d="M32.3274 44.138L32.4757 44.7512C32.7032 44.6028 32.9307 44.4545 33.1384 44.316L33.0494 43.96L32.3274 44.138Z" fill="#D8BFB4"/>
<path d="M31.8044 45.168C31.9237 45.0984 32.0529 45.0188 32.1723 44.9492L31.7745 45.0486L31.8044 45.168Z" fill="#D8BFB4"/>
<path d="M33.0487 43.9602L33.1377 44.3163C33.3652 44.1581 33.5828 43.9998 33.7905 43.8416L33.7806 43.7822L33.0487 43.9602Z" fill="#71495A"/>
<path d="M33.7893 43.843C33.8293 43.813 33.8694 43.783 33.9094 43.7529L33.7793 43.783L33.7893 43.843Z" fill="#D8BFB4"/>
<path d="M43.8276 41.3328C43.8677 41.3428 43.9077 41.3528 43.9577 41.3528L43.9477 41.3027L43.8276 41.3328Z" fill="#71495A"/>
<path d="M43.9458 41.304L43.9557 41.3535C44.2128 41.4029 44.4799 41.4425 44.7568 41.4721L44.6678 41.126L43.9458 41.304Z" fill="#D8BFB4"/>
<path d="M44.6664 41.1253L44.7554 41.4714C45.0125 41.5011 45.2796 41.5308 45.5466 41.5605L45.3983 40.9473L44.6664 41.1253Z" fill="#71495A"/>
<path d="M46.1196 40.7695L45.3976 40.9476L45.5459 41.5607C45.6745 41.5706 45.7932 41.5805 45.9218 41.5904L46.2976 41.5014L46.1196 40.7695Z" fill="#D8BFB4"/>
<path d="M45.9225 41.5906C46.0517 41.6006 46.1909 41.6105 46.3301 41.6105L46.3003 41.4912L45.9225 41.5906Z" fill="white"/>
<path d="M46.8464 40.5922L46.1162 40.7705L46.2945 41.5007L47.0247 41.3224L46.8464 40.5922Z" fill="#71495A"/>
<path d="M47.577 40.4135L46.8468 40.5918L47.0251 41.322L47.7552 41.1437L47.577 40.4135Z" fill="#D8BFB4"/>
<path d="M46.2968 41.5021L46.3264 41.6208C46.544 41.6307 46.7616 41.6406 46.9891 41.6406C47.0286 41.6406 47.0682 41.6406 47.1077 41.6406L47.0286 41.334L46.2968 41.5021Z" fill="#D8BFB4"/>
<path d="M47.0286 41.3235L47.1077 41.6301C47.3747 41.6103 47.6121 41.4917 47.8 41.3235L47.7604 41.1455L47.0286 41.3235Z" fill="white"/>
<path d="M47.7494 41.1467L47.9967 41.0874C48.1055 40.9093 48.1747 40.7016 48.1747 40.4742C48.1747 40.4049 48.1747 40.3456 48.1747 40.2764L47.5813 40.4247L47.7494 41.1467Z" fill="#71495A"/>
<path d="M47.7494 41.1457L47.7892 41.3251C47.869 41.2553 47.9387 41.1756 47.9885 41.0859L47.7494 41.1457Z" fill="#D8BFB4"/>
<path d="M38.0379 39.0203L38.8876 38.8128L38.8579 38.6942L38.7394 38.2003C38.7196 38.1212 38.6702 38.0718 38.6011 38.0422C38.5517 38.0224 38.5023 38.0126 38.443 38.0224L37.8304 38.1706L38.0379 39.0203Z" fill="#71495A"/>
<path d="M39.0359 39.4358L38.8877 38.8232L38.0381 39.0307L38.2456 39.8804L38.8581 39.7322C38.9174 39.7124 38.9668 39.6828 38.9964 39.6334C39.0359 39.5642 39.0458 39.5049 39.0359 39.4358Z" fill="#D8BFB4"/>
<path d="M37.0403 38.6165L37.1588 39.1104L37.1885 39.229L38.0381 39.0215L37.8306 38.1719L37.2181 38.3201C37.149 38.3398 37.0996 38.3793 37.0699 38.4386C37.0304 38.4979 37.0205 38.5572 37.0403 38.6165Z" fill="#D8BFB4"/>
<path d="M38.0375 39.0205L37.1879 39.228L37.3361 39.8306V39.8405C37.3459 39.8998 37.3855 39.9393 37.425 39.9689C37.4843 40.0085 37.5534 40.0282 37.6226 40.0085L38.2351 39.8603L38.0375 39.0205Z" fill="white"/>
<path d="M35.5085 29.7536C34.6687 29.9611 33.8289 29.9611 33.0485 29.7931C33.1868 29.9512 33.4832 30.3069 33.8289 30.8305C33.987 31.0775 34.1451 31.3146 34.3032 31.5319C34.8564 32.2927 35.4492 32.7669 36.4569 32.4606C37.4251 32.1741 37.6919 31.4134 37.7511 30.4353C37.7709 30.1883 37.7709 29.9314 37.7709 29.6647C37.7709 29.151 37.8104 28.7558 37.8401 28.5088C37.2078 29.0917 36.4174 29.5363 35.5085 29.7536Z" fill="#43281F"/>
<path d="M34.1942 30.0696C32.8308 30.0696 31.5267 29.5657 30.6079 28.6469C30.5487 28.5876 30.5487 28.4987 30.6079 28.4395C30.6672 28.3802 30.7561 28.3802 30.8154 28.4395C31.9713 29.5954 33.7595 30.0498 35.4786 29.625C37.1482 29.2101 38.5017 28.0146 39.0155 26.5031C39.0451 26.424 39.1241 26.3845 39.2032 26.4141C39.2822 26.4438 39.3217 26.5228 39.2921 26.6018C38.7487 28.2122 37.3162 29.4768 35.5477 29.9214C35.0933 30.0103 34.6388 30.0696 34.1942 30.0696Z" fill="#43281F"/>
<path d="M37.7506 30.4455C37.6913 31.4236 37.4246 32.1843 36.4564 32.4708C35.4486 32.7672 34.8559 32.293 34.3026 31.5322C34.4113 31.3939 34.5792 31.2161 34.8065 31.0383C35.2511 30.6925 35.9327 30.3467 36.8614 30.3467C37.1381 30.3467 37.4344 30.3763 37.7506 30.4455Z" fill="#C45D69"/>
<path d="M24.4528 25.0115C24.3244 25.0115 24.2157 24.9127 24.2058 24.7941C24.0774 23.5196 24.8183 22.3045 26.0138 21.8401C27.2191 21.3758 28.5825 21.771 29.3432 22.8083C29.4222 22.917 29.4025 23.0751 29.2938 23.1541C29.1851 23.2331 29.027 23.2134 28.948 23.1047C28.3157 22.2452 27.1894 21.9192 26.1916 22.3045C25.2036 22.6898 24.5812 23.6975 24.6899 24.7447C24.6998 24.883 24.601 25.0016 24.4726 25.0115C24.4726 25.0115 24.4627 25.0115 24.4528 25.0115Z" fill="#43281F"/>
<path d="M37.7509 20.9903C37.6225 20.9903 37.5138 20.8817 37.5039 20.7532C37.4545 19.4689 38.2844 18.3031 39.5095 17.9277C40.7345 17.5424 42.0782 18.0363 42.7697 19.1231C42.8389 19.2417 42.8093 19.3898 42.6907 19.4689C42.5722 19.538 42.424 19.5084 42.3449 19.3898C41.7719 18.4908 40.6654 18.0857 39.6478 18.4019C38.6302 18.718 37.9485 19.6764 37.988 20.7434C38.0078 20.8718 37.8991 20.9805 37.7509 20.9903C37.7608 20.9903 37.7509 20.9903 37.7509 20.9903Z" fill="#43281F"/>
<path d="M25.8365 40.6613C25.8365 40.6613 25.8168 40.6613 25.7871 40.6613C25.8069 40.6415 25.8267 40.6415 25.8365 40.6613Z" fill="#945339"/>
<path d="M55.7417 43.2683C53.7263 37.6073 48.7667 35.7697 48.7667 35.7697L49.5176 35.2461L49.5373 35.2659C50.713 36.0463 55.0995 39.2177 55.7417 43.2683Z" fill="#D59A77"/>
<path d="M25.7872 40.6606C25.4118 40.9767 23.426 47.2799 23.426 47.2799C23.426 47.2799 22.3491 47.27 20.8178 47.191C18.9802 47.0922 16.5004 46.8946 14.4455 46.4994C10.5529 45.7485 7.58902 45.3632 3.54827 42.429C2.28368 41.5102 1.39452 40.2456 0.900542 38.8822C-0.443082 35.207 1.02898 30.7414 5.3266 29.872C12.4103 28.4296 13.2204 35.1675 16.4214 37.7658C16.6387 37.9437 17.1327 38.2895 17.3797 38.4376C18.3775 39.0205 19.079 39.307 20.6301 39.5936C23.3173 40.0875 25.4217 40.621 25.7872 40.6606Z" fill="#945339"/>
<path d="M20.8277 47.1818C18.9901 47.083 16.5103 46.8854 14.4553 46.4903C14.3368 46.4705 14.2182 46.4409 14.0997 46.4211C10.3751 45.7098 7.47047 45.2652 3.55815 42.4199C-1.13465 39.0114 -0.561634 31.0583 5.3266 29.8629C10.2466 28.8651 11.9953 31.829 13.7539 34.5458C14.5245 35.7413 15.2951 36.8873 16.3423 37.6184C16.5696 37.7765 16.8067 37.9345 17.0635 38.0827C18.2787 40.1476 19.6026 42.983 20.7091 46.757C20.7585 46.9052 20.798 47.0435 20.8277 47.1818Z" fill="#AD6946"/>
<path d="M56.7688 44.6318H5.74072V47.2465H19.7331L23.04 47.9814L28.1839 47.2465H56.7688V44.6318Z" fill="#13B0B1"/>
<path d="M48.1049 50.9161C41.9894 51.1829 39.4207 48.3771 39.3713 45.3934C39.3713 45.1267 39.3713 44.8797 39.3911 44.6426H55.7221C55.8999 47.9918 53.9338 50.6592 48.1049 50.9161Z" fill="#5D8C8C" fill-opacity="0.5"/>
<path d="M55.6336 44.6318C55.2977 47.2993 53.2724 49.3148 48.5401 49.6309C42.9482 49.9965 40.4092 47.4772 40.1227 44.6318H55.6336Z" fill="#265D5D" fill-opacity="0.5"/>
<path d="M55.7318 45.7485C55.6725 45.9955 55.5935 46.2425 55.4947 46.4796C54.7537 48.2283 52.847 49.4533 49.231 49.6114C44.232 49.8288 41.9597 47.6849 41.6633 45.2743C41.6534 45.2051 41.6435 45.1261 41.6435 45.0569C41.6336 44.968 41.6336 44.889 41.6336 44.8001C41.604 42.9921 42.1869 41.7374 43.3132 40.8877C43.3231 40.8779 43.3428 40.868 43.3527 40.8581C44.4691 40.0282 46.119 39.5836 48.2332 39.386C51.3947 39.0798 54.2598 40.1369 55.3762 42.2412C55.4058 42.3005 55.4354 42.3499 55.4552 42.4092C55.6528 42.8241 55.7812 43.2786 55.8306 43.7627C55.8998 44.4543 55.88 45.1261 55.7318 45.7485Z" fill="#B6724D"/>
<path d="M8.0837 38.1221L8.04333 38.2331L8.0837 38.1221Z" fill="#C59F6D"/>
<path d="M55.4947 46.4701C54.7537 48.2188 52.847 49.4439 49.231 49.6019C44.232 49.8193 41.9597 47.6754 41.6633 45.2648C41.6435 45.1067 41.6336 44.9487 41.6336 44.7906C41.604 42.9826 42.1869 41.7279 43.3132 40.8783C43.3231 40.8684 43.3428 40.8585 43.3527 40.8486C43.0662 42.2318 42.9871 45.5612 48.8062 45.5612C53.6373 45.5612 55.2378 43.8915 55.3663 42.2318C55.3959 42.2911 55.4255 42.3405 55.4453 42.3997C55.6429 42.8147 55.7713 43.2691 55.8207 43.7532C55.9294 44.7313 55.8405 45.66 55.4947 46.4701Z" fill="#AD6946"/>
<path d="M55.4947 46.4708C54.7537 48.2194 52.847 49.4445 49.231 49.6026C44.232 49.8199 41.9597 47.6761 41.6633 45.2654C41.6435 45.1074 41.6336 44.9493 41.6336 44.7912C41.604 42.9833 42.1869 41.7286 43.3132 40.8789C42.7994 42.6671 41.9498 47.6563 48.4802 47.7749C54.6055 47.8934 55.5737 44.6825 55.4552 42.3905C55.6528 42.8054 55.7812 43.2599 55.8306 43.744C55.9294 44.7319 55.8405 45.6606 55.4947 46.4708Z" fill="#945339"/>
<path d="M55.4947 46.4701C55.7121 45.3339 55.7911 42.9925 54.6549 41.8959C52.106 39.4161 46.2277 39.6334 43.6195 41.313C41.7127 42.5479 41.6633 45.2747 41.6633 45.2747C41.6435 45.1166 41.6337 44.9585 41.6337 44.8005C41.5744 41.1944 43.9455 39.7915 48.2332 39.3766C52.0863 39.011 55.5046 40.651 55.8405 43.7532C55.9294 44.7313 55.8405 45.66 55.4947 46.4701Z" fill="#D59A77"/>
<path d="M55.7318 45.7486C55.6726 45.9955 55.5935 46.2425 55.4947 46.4796C54.7538 48.2283 52.847 49.4534 49.2311 49.6115C44.232 49.8288 41.9597 47.685 41.6633 45.2743C41.6534 45.2052 41.6436 45.1261 41.6436 45.057L41.6633 45.0273C41.6633 45.0273 41.9893 49.4732 49.0038 49.3645C53.4101 49.2953 55.0897 47.2503 55.7318 45.7486Z" fill="#AD6946"/>
<path d="M1.92667 31.8279C1.50185 33.8829 1.54137 36.9851 4.56452 39.4155C7.8149 42.0237 12.2607 42.3299 14.948 42.241C15.1653 39.208 14.5429 36.5603 13.7624 34.5547C12.0038 31.8378 10.2552 28.8641 5.33513 29.8718C3.86307 30.1583 2.7368 30.8696 1.92667 31.8279Z" fill="#B6724D"/>
<path d="M11.7874 35.1182C11.7676 35.0688 11.7577 35.0194 11.738 34.97C10.7698 32.4211 7.92444 31.1367 5.37551 32.1049C3.6861 32.7471 2.54995 34.2093 2.26344 35.869C2.24368 35.9876 2.22392 36.116 2.21404 36.2346C2.14488 36.9657 2.2338 37.7264 2.51043 38.4674C3.47863 41.0163 6.32395 42.3007 8.87288 41.3325C9.56445 41.0657 10.1572 40.6705 10.6512 40.1765C11.9158 38.8823 12.4098 36.936 11.7874 35.1182Z" fill="#AD6946"/>
<path d="M5.26669 31.6116C3.57728 32.2537 2.44113 33.7159 2.15462 35.3757C2.13486 35.4943 2.1151 35.6227 2.10522 35.7412C2.12498 36.2846 2.23366 36.8379 2.44113 37.3714C3.46861 40.0784 6.50164 41.4516 9.20865 40.4242C9.69275 40.2365 10.1472 39.9895 10.5424 39.6832C11.8169 38.389 12.3108 36.4328 11.6884 34.615C11.6687 34.5656 11.6588 34.5162 11.639 34.4668C10.6708 31.9376 7.81562 30.6533 5.26669 31.6116Z" fill="#ECD09C"/>
<path d="M11.6891 34.624C12.3115 36.4419 11.8176 38.3881 10.5431 39.6922C10.059 40.1862 9.45635 40.5913 8.76477 40.8482C6.21584 41.8164 3.36064 40.532 2.40232 37.9831C2.12569 37.2421 2.0269 36.4814 2.10594 35.7503C2.11581 35.6317 2.13557 35.5033 2.15533 35.3848C2.49124 36.9358 3.61751 39.712 7.2532 39.4156C10.4739 39.1588 11.7089 36.4913 11.6891 34.624Z" fill="#DCBD8A"/>
<path d="M2.51071 37.5481C2.26372 36.9553 2.13528 36.3527 2.10564 35.75C2.03649 36.4811 2.1254 37.2418 2.40203 37.9828C3.37023 40.5317 6.21555 41.8161 8.76448 40.8479C9.41654 40.6009 10.0785 40.1563 10.4638 39.7611C10.4737 39.7512 10.4638 39.7414 10.4539 39.7512C9.98955 40.0871 9.46593 40.3539 8.89292 40.5416C6.33411 41.332 3.53818 40.0279 2.51071 37.5481Z" fill="#C59F6D"/>
<path d="M20.6296 39.5742C18.9106 39.3272 15.8578 38.7937 13.5065 34.4566C12.726 33.0141 11.7578 31.7397 10.7007 30.9296C7.49967 28.4794 2.85626 30.0206 1.39409 32.8857C0.238175 35.1481 0.653118 37.3118 0.909987 38.8727C-0.433637 35.1975 0.35673 32.4016 2.79699 30.5739C5.67195 28.43 9.18908 28.5881 11.4416 30.7418C14.119 33.2908 14.3462 36.2744 17.2014 38.1515C18.466 38.9715 19.2959 39.258 20.6296 39.5742Z" fill="#D59A77"/>
<path d="M7.4791 38.2605C7.82285 38.2605 8.10152 37.9818 8.10152 37.638C8.10152 37.2943 7.82285 37.0156 7.4791 37.0156C7.13535 37.0156 6.85669 37.2943 6.85669 37.638C6.85669 37.9818 7.13535 38.2605 7.4791 38.2605Z" fill="#C59F6D"/>
<path d="M5.88914 37.2229C5.86938 37.2229 5.83974 37.213 5.81998 37.2031C5.75082 37.1636 5.72119 37.0747 5.75082 37.0056C5.96818 36.5709 6.3436 36.2152 6.79806 36.0275C7.24264 35.8398 7.73662 35.8101 8.19108 35.9484C8.27012 35.9682 8.30964 36.0571 8.28988 36.1361C8.27012 36.2152 8.1812 36.2547 8.10217 36.2349C7.70698 36.1164 7.28216 36.146 6.90674 36.3041C6.52143 36.4721 6.19541 36.7684 6.00769 37.1439C5.98793 37.1933 5.93854 37.2229 5.88914 37.2229Z" fill="#C59F6D"/>
<path d="M4.83245 36.7389C4.81269 36.7389 4.79293 36.7389 4.77317 36.729C4.69414 36.6994 4.6645 36.6105 4.69414 36.5314C5.0004 35.7806 5.57342 35.1977 6.31439 34.8815C6.99608 34.595 7.75681 34.5654 8.45826 34.8025C8.53729 34.8321 8.57681 34.9112 8.54717 34.9902C8.51753 35.0693 8.4385 35.1088 8.35946 35.0791C7.72717 34.8618 7.0356 34.8914 6.42306 35.1483C5.75125 35.4348 5.23751 35.9584 4.96088 36.6302C4.94112 36.6994 4.89173 36.7389 4.83245 36.7389Z" fill="#C59F6D"/>
<path d="M3.77523 36.2247C3.75547 36.2247 3.74559 36.2247 3.72583 36.2148C3.6468 36.1852 3.60728 36.1061 3.63692 36.0271C3.99258 34.9502 4.80271 34.0808 5.84006 33.6362C6.80826 33.2312 7.88514 33.2213 8.85334 33.6165C8.93237 33.6461 8.96201 33.735 8.93237 33.8141C8.90273 33.8931 8.81382 33.9228 8.73478 33.8931C7.83574 33.5276 6.8379 33.5375 5.94874 33.9129C4.98054 34.3179 4.23957 35.1281 3.90366 36.1259C3.90366 36.1852 3.84439 36.2247 3.77523 36.2247Z" fill="#C59F6D"/>
<path d="M36.19 31.9362C34.8958 32.2919 34.7674 31.5114 34.8069 31.047C35.2515 30.7013 35.9332 30.3555 36.8618 30.3555C37.3064 30.642 37.4546 31.5805 36.19 31.9362Z" fill="#D67679"/>
</svg>
