<svg width="62" height="90" viewBox="0 0 62 90" fill="none" xmlns="http://www.w3.org/2000/svg">
<path d="M21.8606 89.2053C33.4187 89.2053 42.7883 86.7257 42.7883 83.6671C42.7883 80.6084 33.4187 78.1289 21.8606 78.1289C10.3026 78.1289 0.932983 80.6084 0.932983 83.6671C0.932983 86.7257 10.3026 89.2053 21.8606 89.2053Z" fill="#F4F6FB"/>
<path d="M22.2181 87.5971C31.7958 87.5971 39.56 85.6603 39.56 83.2712C39.56 80.8821 31.7958 78.9453 22.2181 78.9453C12.6404 78.9453 4.87622 80.8821 4.87622 83.2712C4.87622 85.6603 12.6404 87.5971 22.2181 87.5971Z" fill="#E9EDF6"/>
<path d="M22.1792 86.4617C29.5368 86.4617 35.5014 85.022 35.5014 83.246C35.5014 81.47 29.5368 80.0303 22.1792 80.0303C14.8215 80.0303 8.85693 81.47 8.85693 83.246C8.85693 85.022 14.8215 86.4617 22.1792 86.4617Z" fill="#DCE2EC"/>
<path d="M15.8622 81.6378C15.8622 81.6123 15.7474 78.7922 16.3854 75.4488C17.0362 72.08 18.4654 70.4594 18.5292 70.3828L18.7972 70.6253C18.7845 70.638 17.368 72.2586 16.7427 75.5126C16.1047 78.8049 16.2195 81.5868 16.2195 81.6123L15.8622 81.6378Z" fill="#272425"/>
<path d="M29.5292 79.992C29.4016 79.9537 26.339 79.0094 26.0455 77.2612C25.7647 75.5895 26.3007 71.8251 26.3262 71.6592L26.6835 71.7102C26.6835 71.7485 26.122 75.5767 26.4028 77.1974C26.658 78.7286 29.6057 79.6347 29.6313 79.6347L29.5292 79.992Z" fill="#272425"/>
<path d="M17.1793 81.6626C17.1793 81.4457 17.0134 81.2543 16.7964 81.2543C15.4821 81.2415 15.3162 79.9144 14.8823 80.1058C14.4102 80.31 14.474 81.4074 14.474 81.4074C13.4404 81.6371 12.9682 82.122 12.7513 82.5303H17.1665L17.1793 81.6626Z" fill="#3B6876"/>
<path d="M12.7363 82.5303C12.5449 82.9003 12.5576 83.2066 12.5576 83.2066H17.1387L17.1515 82.5303H12.7363Z" fill="#5494A2"/>
<path d="M29.16 78.5495C28.943 78.5367 28.7516 78.7154 28.7516 78.9323C28.7133 80.2467 27.3862 80.387 27.5649 80.8337C27.769 81.3058 28.8537 81.2675 28.8537 81.2675C29.0706 82.3139 29.5428 82.7861 29.9511 83.003L30.0277 78.575L29.16 78.5495Z" fill="#3B6876"/>
<path d="M29.9636 82.9904C30.3337 83.1946 30.6399 83.1691 30.6399 83.1691L30.7165 78.588L30.0274 78.5752L29.9636 82.9904Z" fill="#5494A2"/>
<path fill-rule="evenodd" clip-rule="evenodd" d="M36.6636 73.9041C36.4339 75.3333 35.0685 76.3159 33.6393 76.0734L11.308 72.4111C9.87877 72.1814 8.89619 70.816 9.13865 69.3868L18.403 12.8438C18.6327 11.4146 19.9981 10.432 21.4273 10.6745L43.7459 14.3368C45.1751 14.5665 46.1576 15.9319 45.9152 17.3611" fill="#5494A2"/>
<path fill-rule="evenodd" clip-rule="evenodd" d="M39.7646 43.9163L34.9028 73.6106C34.6731 75.0398 33.3077 76.0224 31.8785 75.7927L9.54712 72.1303C8.11791 71.9007 7.13533 70.5352 7.37779 69.106L15.3533 20.4492C17.5226 28.0036 23.4946 38.4674 39.7646 43.9163Z" fill="#98DFEB"/>
<path fill-rule="evenodd" clip-rule="evenodd" d="M44.1663 17.0545L39.7638 43.9159C23.4939 38.4671 17.5218 27.9905 15.3397 20.4361L16.6286 12.5372C16.8583 11.108 18.2237 10.1254 19.6529 10.3678L41.9715 14.0302C43.4262 14.2726 44.396 15.6253 44.1663 17.0545Z" fill="#81C4D5"/>
<path fill-rule="evenodd" clip-rule="evenodd" d="M43.3111 28.9595L43.1069 28.9212C43.0176 28.9084 42.9538 28.8191 42.9665 28.717L43.9874 22.4643C44.0002 22.3749 44.0895 22.3111 44.1916 22.3239L44.3957 22.3622C44.4851 22.3749 44.5489 22.4643 44.5361 22.5663L43.5152 28.8191C43.5025 28.9212 43.4132 28.985 43.3111 28.9595Z" fill="#98DFEB"/>
<path fill-rule="evenodd" clip-rule="evenodd" d="M33.6138 15.2174L28.3947 14.3624C28.3181 14.3496 28.2543 14.2731 28.2671 14.1965L28.2926 14.0306C28.3054 13.954 28.3819 13.8902 28.4585 13.903L33.6776 14.758C33.7542 14.7707 33.818 14.8473 33.8053 14.9239L33.7797 15.0898C33.767 15.1791 33.6904 15.2301 33.6138 15.2174Z" fill="black"/>
<path d="M27.094 14.3252C27.3127 14.3252 27.49 14.1479 27.49 13.9292C27.49 13.7105 27.3127 13.5332 27.094 13.5332C26.8753 13.5332 26.698 13.7105 26.698 13.9292C26.698 14.1479 26.8753 14.3252 27.094 14.3252Z" fill="#E9EDF6"/>
<path d="M33.4212 70.6759L9.94133 66.7839C9.67336 66.7456 9.49471 66.4904 9.53299 66.2224L17.7892 16.4682C17.8275 16.2002 18.0827 16.0216 18.3507 16.0598L41.8305 19.9519C42.0985 19.9902 42.2771 20.2454 42.2388 20.5134L33.9826 70.2804C33.9443 70.5356 33.6891 70.727 33.4212 70.6759Z" fill="white"/>
<path d="M16.2077 0.491973C16.0929 0.45369 15.978 0.415408 15.8632 0.389886C15.4038 0.300561 14.9316 0.351604 14.4978 0.555776C13.9363 0.810992 13.4897 1.2959 13.2855 1.8829L13.0303 2.58474L12.1625 2.304C11.0141 1.90842 9.738 2.52093 9.32965 3.6694C9.12548 4.23088 9.16376 4.84339 9.41898 5.39211C9.68695 5.95358 10.1719 6.38745 10.7589 6.57886L12.7495 7.25518L15.4421 8.17396C15.5569 8.21224 15.6718 8.18672 15.7611 8.12291C15.8121 8.08463 15.8504 8.03359 15.8759 7.95702L17.5221 3.35038C17.9304 2.20192 17.3434 0.925839 16.2077 0.491973Z" fill="#C45D69"/>
<path d="M11.9334 20.9213C11.5123 22.2229 10.5552 23.3458 9.20257 23.9584C6.66318 25.0813 3.68992 23.9456 2.56697 21.419C2.10758 20.3853 2.01826 19.2752 2.26071 18.2415C2.59249 16.7485 3.61335 15.4342 5.10636 14.7706C7.64576 13.6349 10.619 14.7834 11.742 17.31C12.2652 18.4968 12.3034 19.7856 11.9334 20.9213Z" fill="#F9CC2E"/>
<path d="M11.9329 20.9213C11.3969 21.7507 10.6185 22.4526 9.64868 22.8865C6.99444 24.0732 3.89357 22.8737 2.70682 20.2322C2.41332 19.5814 2.27295 18.9051 2.26019 18.2415C2.59197 16.7485 3.61283 15.4342 5.10584 14.7706C7.64524 13.6349 10.6185 14.7834 11.7414 17.31C12.2646 18.4968 12.3029 19.7856 11.9329 20.9213Z" fill="#FFDA57"/>
<path d="M6.98077 22.313C6.08752 22.313 5.21979 21.9684 4.55623 21.3176C4.44138 21.2028 4.44138 21.0241 4.55623 20.9093C4.67107 20.7944 4.84973 20.7944 4.96457 20.9093C5.81954 21.7515 7.08286 21.9812 8.16753 21.4963C9.25219 21.0114 9.94127 19.8884 9.87747 18.7017C9.86471 18.5485 9.99232 18.4082 10.1454 18.3954C10.2986 18.3827 10.4389 18.5103 10.4517 18.6634C10.5283 20.0926 9.69882 21.4325 8.39722 22.0195C7.93783 22.2236 7.45292 22.313 6.98077 22.313Z" fill="#945339"/>
<path d="M5.47505 19.4544C5.07947 19.6331 4.60732 19.4544 4.42867 19.0589L4.2883 18.7271C4.10965 18.3315 4.2883 17.8593 4.68388 17.6807C5.07947 17.502 5.55162 17.6807 5.73027 18.0763L5.87064 18.4081C6.04929 18.8036 5.87064 19.2758 5.47505 19.4544Z" fill="#945339"/>
<path d="M8.4745 18.1146C8.07892 18.2932 7.60677 18.1146 7.42812 17.719L7.28775 17.3872C7.1091 16.9917 7.28775 16.5195 7.68333 16.3409C8.07892 16.1622 8.55107 16.3409 8.72972 16.7364L8.87009 17.0682C9.04874 17.4638 8.87009 17.9359 8.4745 18.1146Z" fill="#945339"/>
<path d="M16.2719 3.00578C16.0422 5.06026 14.613 6.68088 12.75 7.24235L10.7593 6.57879C10.1723 6.37462 9.68738 5.94076 9.41941 5.39204C9.15143 4.84333 9.12591 4.23081 9.33008 3.66934C9.73843 2.52087 11.0145 1.90835 12.163 2.30394L13.0179 2.59743L13.2732 1.89559C13.4773 1.32136 13.924 0.836448 14.4854 0.568472C14.9193 0.364299 15.4042 0.313256 15.8508 0.402582C16.2209 1.18099 16.374 2.087 16.2719 3.00578Z" fill="#ED6F71"/>
<path d="M60.5377 27.4301L58.0749 27.5577C57.8452 27.5704 57.6538 27.6853 57.5262 27.8767L57.0413 28.6679L56.2374 29.9822C55.9439 30.4671 55.2293 30.3906 55.0251 29.8674L54.1446 27.5577C54.068 27.3535 53.8894 27.1876 53.6724 27.1366L51.2734 26.5496C50.7247 26.422 50.5716 25.7201 51.0054 25.3628L52.9323 23.806C53.111 23.6656 53.2003 23.4487 53.1875 23.2318L52.9961 20.7689C52.9578 20.2075 53.5704 19.8374 54.0425 20.1437L55.4589 21.0624L56.1225 21.4963C56.3139 21.6239 56.5436 21.6367 56.7478 21.5601L59.032 20.6158C59.5552 20.3989 60.0911 20.8838 59.9507 21.4197L59.3127 23.806C59.2489 24.0229 59.2999 24.2526 59.4531 24.4185L61.0482 26.2944C61.3799 26.741 61.0992 27.4045 60.5377 27.4301Z" fill="#F9CC2E"/>
<path d="M60.5381 27.4297L58.0753 27.5573C57.8456 27.57 57.6542 27.6849 57.5266 27.8763L57.0417 28.6675C54.7958 27.787 53.5835 25.3114 54.2981 22.9762C54.5278 22.236 54.9234 21.598 55.4338 21.0748L56.0974 21.5087C56.2888 21.6363 56.5185 21.6491 56.7227 21.5725L59.0068 20.6282C59.53 20.4113 60.066 20.8962 59.9256 21.4321L59.2876 23.8184C59.2238 24.0353 59.2748 24.265 59.4279 24.4309L61.023 26.3067C61.3803 26.7406 61.0996 27.4042 60.5381 27.4297Z" fill="#FFDA57"/>
<path d="M46.3106 12.0281C45.1621 12.4109 43.8605 12.3088 42.7248 11.6707C40.5938 10.4585 39.8536 7.74043 41.0659 5.60939C41.5636 4.74165 42.3165 4.09085 43.1714 3.73355C44.4092 3.1976 45.864 3.23588 47.1273 3.95049C49.2583 5.16276 49.9985 7.8808 48.7862 10.0118C48.2119 11.0072 47.3187 11.6963 46.3106 12.0281Z" fill="#F9CC2E"/>
<path d="M46.3117 12.0281C45.4439 12.0791 44.5379 11.9004 43.7212 11.4283C41.4881 10.165 40.7097 7.31933 41.9858 5.09895C42.292 4.55024 42.7004 4.09085 43.1725 3.73355C44.4103 3.1976 45.865 3.23588 47.1284 3.95049C49.2594 5.16276 49.9995 7.8808 48.7873 10.0119C48.213 11.0072 47.3198 11.6963 46.3117 12.0281Z" fill="#FFDA57"/>
<path d="M45.7231 5.38053C45.7103 5.34224 45.7103 5.30396 45.6848 5.26568C45.6338 5.12531 45.5317 4.9977 45.4041 4.90838C45.2382 4.79353 45.0212 4.75525 44.8171 4.80629L44.5746 4.85734L44.5108 4.56384C44.4215 4.16825 44.0259 3.9258 43.6303 4.00236C43.4389 4.04065 43.273 4.15549 43.1709 4.33414C43.0561 4.51279 43.0306 4.71697 43.0688 4.92114L43.222 5.59746L43.4389 6.51624C43.4517 6.55452 43.4772 6.58004 43.5027 6.5928C43.5282 6.60556 43.541 6.60556 43.5665 6.5928L45.1488 6.24826C45.5444 6.15893 45.7996 5.76335 45.7231 5.38053Z" fill="#ED6F71"/>
<path d="M48.6967 7.23014C48.684 7.19185 48.684 7.15357 48.6584 7.11529C48.6074 6.97492 48.5053 6.84731 48.3777 6.75799C48.2118 6.64314 47.9949 6.60486 47.7907 6.6559L47.5482 6.70694L47.4844 6.41345C47.3951 6.01786 46.9995 5.77541 46.6039 5.85197C46.4125 5.89026 46.2466 6.0051 46.1446 6.18375C46.0297 6.3624 46.0042 6.56658 46.0425 6.77075L46.1956 7.44707L46.4125 8.36585C46.4253 8.40413 46.4508 8.42965 46.4763 8.44241C46.5019 8.45517 46.5146 8.45517 46.5401 8.44241L48.1225 8.09787C48.5308 8.00854 48.786 7.62572 48.6967 7.23014Z" fill="#ED6F71"/>
<path d="M45.9791 9.41198L45.928 9.48854C45.7111 9.82032 45.3921 10.05 45.0476 10.1776C44.5244 10.369 43.9246 10.3052 43.4269 9.97345C42.9293 9.64167 42.6485 9.09296 42.6358 8.53148C42.623 8.16142 42.7251 7.79136 42.942 7.47234L43.0058 7.38301C43.159 7.15332 43.478 7.08952 43.7077 7.24264L45.8515 8.71013C46.0812 8.87602 46.145 9.18228 45.9791 9.41198Z" fill="#272425"/>
<path d="M45.0472 10.1914C44.524 10.3828 43.9243 10.319 43.4266 9.98722C42.9289 9.65544 42.6482 9.10672 42.6354 8.54525C42.7886 8.50697 42.9545 8.48145 43.1203 8.48145C44.1157 8.48145 44.9324 9.23433 45.0472 10.1914Z" fill="#C45D69"/>
<path d="M33.9744 44.0341C34.0922 43.6778 34.1844 43.3212 34.2384 42.9643C34.3998 41.9575 34.4077 40.9877 34.2742 40.1444C34.5959 39.8152 34.8294 39.3577 34.9102 38.8352C35.1113 37.65 34.4694 36.5601 33.5009 36.399C33.0548 36.3316 32.6199 36.4557 32.2475 36.7334C31.462 36.0378 29.6556 35.3467 27.5019 34.9846C25.3736 34.6354 23.4717 34.6964 22.4858 35.0967C22.2337 34.7246 21.8657 34.4664 21.4324 34.399C20.4511 34.2378 19.4999 35.0723 19.3116 36.2576C19.2179 36.7928 19.303 37.3039 19.5039 37.7139C19.1149 38.4636 18.8139 39.38 18.6398 40.3867C18.6264 40.4632 18.613 40.5396 18.6124 40.6162L31.7386 42.7908C32.6436 42.9258 33.4182 43.3915 33.9744 44.0341Z" fill="#664535"/>
<path d="M24.6772 37.374C24.477 36.8875 23.9302 36.6533 23.4437 36.8407C22.9572 37.0409 22.723 37.5877 22.9104 38.0742C23.0481 38.4071 23.3398 38.6264 23.6713 38.6674C23.5187 38.6024 23.3921 38.4737 23.3297 38.3073C23.1922 37.9489 23.3613 37.5547 23.707 37.4171C24.0654 37.2797 24.4597 37.4488 24.5972 37.7945C24.6473 37.9097 24.6591 38.0247 24.6455 38.1267C24.7621 37.9107 24.7772 37.6301 24.6772 37.374Z" fill="white"/>
<path d="M30.8191 38.0731C30.4264 37.7254 29.8262 37.7715 29.4784 38.177C29.2981 38.3797 29.2321 38.6472 29.2555 38.9026C29.282 38.7879 29.3338 38.6863 29.4111 38.5976C29.656 38.3061 30.0901 38.2713 30.3815 38.5289C30.673 38.7738 30.7078 39.208 30.4502 39.4994C30.3342 39.6388 30.1677 39.714 30.0016 39.7382C30.3328 39.8047 30.6783 39.6926 30.9229 39.4267C31.2581 39.0083 31.212 38.4081 30.8191 38.0731Z" fill="white"/>
<path d="M30.4502 41.1979C30.342 40.393 29.347 38.777 28.5148 37.5579C27.859 36.5954 26.7121 36.4074 25.7876 37.1017C24.6062 37.9981 23.1543 39.2113 22.7783 39.9356C22.5707 40.355 22.465 40.8008 22.4486 41.2473L30.3116 42.5494C30.4682 42.1168 30.523 41.6579 30.4502 41.1979ZM28.0287 40.8208C27.9645 40.8713 27.5797 41.1106 26.6238 40.9624C26.611 40.9623 26.5983 40.9622 26.5855 40.9621C26.5728 40.962 26.56 40.9619 26.5472 40.9618C25.5916 40.7881 25.3137 40.4413 25.2631 40.3771C25.1875 40.2616 25.2143 40.1087 25.3299 40.0203C25.4453 39.9447 25.5982 39.9714 25.6866 40.087C25.6866 40.087 25.8509 40.2798 26.3858 40.4117L26.5198 39.6344C26.2542 39.3387 25.8371 38.8504 25.7879 38.6203C25.7141 38.2879 25.9464 37.9708 26.3042 37.9099C26.5853 37.8611 26.865 37.991 27.0036 38.2091C27.2091 38.0449 27.5028 38.0218 27.757 38.1515C28.0747 38.32 28.1992 38.691 28.0182 38.9831C27.9018 39.1735 27.3503 39.5136 27.0042 39.7022L26.8701 40.4923C27.4694 40.5482 27.7002 40.4225 27.7129 40.4226C27.8285 40.3342 27.9814 40.361 28.0698 40.4766C28.171 40.5795 28.1442 40.7451 28.0287 40.8208Z" fill="white"/>
<path d="M31.6172 43.4659L17.9047 41.1972L16.8171 47.7986C16.5354 49.4681 17.6709 51.0597 19.3532 51.3287L30.0327 53.0877C31.7021 53.3693 33.2938 52.2338 33.5628 50.5515L34.1534 46.9832C34.435 45.3266 33.2995 43.7349 31.6172 43.4659Z" fill="#7DACAC"/>
<path d="M21.876 45.6319C21.8356 45.8868 21.7065 46.0644 21.5014 46.1775C21.3092 46.278 21.092 46.3146 20.8371 46.2742C20.7097 46.2476 20.5824 46.2083 20.468 46.1563C20.3281 46.0914 20.2267 46.014 20.1764 45.9115C20.1513 45.8602 20.139 45.8091 20.1394 45.758C20.1528 45.6816 20.1915 45.6309 20.2429 45.593C20.307 45.5552 20.3709 45.543 20.4473 45.5564C20.4856 45.5567 20.5619 45.5956 20.6891 45.6477C20.8161 45.7125 20.9179 45.7516 21.0071 45.7651C21.0836 45.7785 21.1475 45.7663 21.2116 45.7285C21.2757 45.6908 21.3017 45.6399 21.315 45.5635C21.3285 45.4742 21.3036 45.3975 21.2402 45.3459C21.1769 45.2944 21.088 45.2426 20.9609 45.1777C20.7575 45.074 20.6179 44.9835 20.5294 44.8807C20.4156 44.7522 20.3659 44.5859 20.4058 44.3948C20.4459 44.1654 20.5622 43.9877 20.7545 43.8872C20.934 43.7865 21.1512 43.75 21.3806 43.7902C21.5845 43.8174 21.7371 43.8824 21.8385 43.9726C21.9398 44.0628 21.9902 44.1525 21.9767 44.2417C21.9499 44.3946 21.86 44.4577 21.6944 44.4308C21.6434 44.4176 21.5798 44.3916 21.4908 44.3526C21.4018 44.3136 21.3382 44.2875 21.2873 44.2744C21.2108 44.261 21.1597 44.2733 21.0958 44.2856C21.0318 44.3106 20.9931 44.3613 20.9926 44.4251C20.9922 44.4634 20.9919 44.5016 21.0045 44.5273C21.0297 44.5658 21.0803 44.6172 21.1692 44.669C21.2327 44.7078 21.3091 44.7339 21.3725 44.7727C21.5631 44.8764 21.7026 44.9796 21.791 45.0952C21.8789 45.2746 21.9158 45.4408 21.876 45.6319Z" fill="white"/>
<path d="M23.5072 45.9012L23.52 45.9013L24.0667 44.5913C24.1057 44.5023 24.1701 44.4263 24.2471 44.3759C24.3241 44.3255 24.4135 44.3134 24.5155 44.327C24.6302 44.3407 24.7191 44.3925 24.7822 44.4823C24.8452 44.5722 24.8828 44.6618 24.8819 44.7767L24.868 46.4738C24.8673 46.5631 24.8668 46.6142 24.8537 46.6651C24.8267 46.8435 24.724 46.9193 24.5583 46.8924C24.4563 46.8788 24.3929 46.8272 24.368 46.7504C24.3429 46.6992 24.3309 46.6098 24.3318 46.4949L24.3429 45.1423L24.3301 45.1422L23.8101 46.312C23.7582 46.4264 23.7064 46.5153 23.6549 46.566C23.5778 46.6291 23.4883 46.6539 23.3736 46.6402C23.2588 46.6265 23.1827 46.5749 23.1324 46.4851C23.0946 46.421 23.0826 46.3316 23.0582 46.191L22.941 44.9139L22.5222 46.1994C22.483 46.3139 22.444 46.3902 22.4055 46.4281C22.3411 46.4914 22.2644 46.5163 22.1751 46.5028C22.0095 46.4759 21.9465 46.3733 21.9735 46.1949C21.9737 46.1694 21.9997 46.1058 22.026 46.0167L22.5623 44.4132C22.6014 44.3114 22.6659 44.2226 22.7558 44.1595C22.8456 44.0964 22.9478 44.0845 23.0626 44.0982C23.1645 44.1118 23.2407 44.1635 23.304 44.2278C23.3671 44.3049 23.392 44.3817 23.404 44.4838L23.5072 45.9012Z" fill="white"/>
<path d="M26.5293 44.6625C26.7205 44.6896 26.8471 44.8183 26.8835 45.0483L27.2002 46.8885C27.2124 46.9651 27.2118 47.0289 27.2115 47.0672C27.1981 47.1437 27.1594 47.1944 27.1081 47.2323C27.044 47.27 26.9801 47.2823 26.9036 47.2689C26.7635 47.2422 26.675 47.1394 26.6509 46.9605L26.6023 46.6666L25.7485 46.5193L25.5929 46.8115C25.5151 46.964 25.4125 47.027 25.285 47.0132C25.2086 46.9998 25.1451 46.961 25.1072 46.9096C25.0694 46.8583 25.0572 46.7816 25.0706 46.7052C25.0839 46.6415 25.0971 46.5905 25.1229 46.5525L26.0293 44.9519C26.1715 44.7234 26.3381 44.6354 26.5293 44.6625ZM26.4096 45.2613L25.9947 46.0619L26.5426 46.1557L26.4096 45.2613Z" fill="white"/>
<path d="M28.1099 46.4622L28.0157 47.0612C27.9753 47.3161 27.8595 47.43 27.6811 47.403C27.5026 47.376 27.4273 47.2223 27.4677 46.9674L27.7493 45.298C27.776 45.1578 27.8151 45.056 27.8793 45.0055C27.9436 44.955 28.0457 44.9431 28.1859 44.9697L28.6192 45.0371C28.8869 45.0776 29.0903 45.1686 29.2295 45.3101C29.3941 45.4773 29.4562 45.682 29.4158 45.9369C29.3888 46.1153 29.3111 46.2551 29.1827 46.3561C29.067 46.4572 28.9135 46.507 28.7221 46.5055L29.0749 47.0571C29.1631 47.1982 29.2004 47.3133 29.1869 47.4026C29.1735 47.479 29.1348 47.5297 29.0834 47.5804C29.0193 47.6181 28.9553 47.6304 28.8789 47.617C28.7897 47.6035 28.701 47.5262 28.6129 47.3723L28.1099 46.4622ZM28.1766 46.1054L28.4315 46.1458C28.6609 46.1859 28.802 46.0978 28.8291 45.9066C28.8561 45.7154 28.7678 45.5998 28.5256 45.5595L28.258 45.5191L28.1766 46.1054Z" fill="white"/>
<path d="M30.1566 45.8281C29.9526 45.8009 29.838 45.7745 29.7871 45.7485C29.6472 45.6963 29.5841 45.6065 29.598 45.4662C29.625 45.2878 29.7787 45.2253 30.0335 45.2784L30.9892 45.4393C31.2441 45.4797 31.3708 45.5956 31.3439 45.7613C31.3173 45.8887 31.2403 45.9518 31.0743 45.9632C31.0232 45.9628 30.8957 45.949 30.7045 45.9219L30.4495 47.4639C30.4091 47.7188 30.2932 47.8455 30.1149 47.8058C29.9365 47.7788 29.8611 47.625 29.9015 47.3701L30.1566 45.8281Z" fill="white"/>
<path d="M20.7872 47.793C20.5832 47.7658 20.4686 47.7393 20.4178 47.7134C20.2778 47.6612 20.2147 47.5713 20.2287 47.4311C20.2556 47.2527 20.4093 47.1901 20.6641 47.2432L21.6198 47.4042C21.8747 47.4445 22.0014 47.5604 21.9745 47.7261C21.948 47.8535 21.8709 47.9167 21.7049 47.9281C21.6538 47.9277 21.5263 47.9139 21.3352 47.8868L21.0801 49.4288C21.0397 49.6837 20.9238 49.8104 20.7455 49.7706C20.5671 49.7436 20.4918 49.5899 20.5321 49.335L20.7872 47.793Z" fill="white"/>
<path d="M23.2496 47.6726C23.5045 47.7129 23.6312 47.8288 23.6043 47.9945C23.5774 48.1602 23.4365 48.2228 23.1689 48.1824L22.7229 48.1021L22.6555 48.5355L23.0378 48.6024C23.2927 48.6428 23.4195 48.7459 23.3925 48.9243C23.3656 49.09 23.2247 49.1527 22.9571 49.1122L22.5748 49.0453L22.4945 49.504L22.966 49.5844C23.2209 49.6248 23.3477 49.7279 23.3207 49.9064C23.2938 50.072 23.1529 50.1347 22.8853 50.0942L22.2353 49.9868C22.0952 49.9601 22.0061 49.9211 21.9555 49.8697C21.9049 49.8182 21.893 49.716 21.9196 49.5759L22.2014 47.8937C22.228 47.7535 22.2672 47.6518 22.3314 47.6013C22.3956 47.5507 22.4978 47.5388 22.6379 47.5655L23.2496 47.6726Z" fill="white"/>
<path d="M24.8175 47.9279C25.1233 47.9815 25.3523 48.0727 25.517 48.2144C25.6691 48.3432 25.7698 48.51 25.832 48.7146C25.8942 48.9066 25.9054 49.0981 25.8654 49.3147C25.7985 49.6842 25.6559 49.9638 25.4119 50.1532C25.1678 50.3426 24.8482 50.4166 24.4787 50.3498L23.9689 50.269C23.8287 50.2424 23.7397 50.2034 23.6891 50.1519C23.6385 50.1004 23.6266 49.9983 23.6532 49.8581L23.935 48.1759C23.9616 48.0358 24.0007 47.934 24.065 47.8835C24.1292 47.833 24.2314 47.821 24.3715 47.8477L24.8175 47.9279ZM24.228 49.799L24.4829 49.8394C24.9162 49.9067 25.1858 49.7047 25.2663 49.2205C25.3338 48.7744 25.1572 48.5177 24.7113 48.4375L24.4691 48.3972L24.228 49.799Z" fill="white"/>
<path d="M27.1755 48.3176C27.4814 48.3711 27.7103 48.4623 27.8751 48.604C28.0271 48.7329 28.1279 48.8996 28.19 49.1043C28.2522 49.2962 28.2634 49.4877 28.2234 49.7043C28.1566 50.0739 28.0139 50.3534 27.7699 50.5429C27.5259 50.7323 27.2062 50.8062 26.8367 50.7394L26.3269 50.6587C26.1868 50.632 26.0978 50.593 26.0471 50.5415C25.9965 50.4901 25.9846 50.3879 26.0113 50.2477L26.293 48.5656C26.3197 48.4254 26.3588 48.3236 26.423 48.2731C26.4872 48.2226 26.5894 48.2107 26.7296 48.2374L27.1755 48.3176ZM26.586 50.1886L26.8409 50.229C27.2742 50.2964 27.5439 50.0944 27.6244 49.6101C27.6918 49.164 27.5153 48.9074 27.0693 48.8271L26.8271 48.7869L26.586 50.1886Z" fill="white"/>
<path d="M30.0689 48.7621C30.1326 48.7754 30.1834 48.8014 30.2212 48.8655C30.259 48.9168 30.2713 48.9807 30.2708 49.0445C30.2575 49.1082 30.2057 49.1971 30.09 49.2983L29.408 49.9946L29.274 50.7719C29.2337 51.0268 29.1179 51.1407 28.9394 51.1137C28.761 51.0868 28.6857 50.933 28.7261 50.6781L28.86 49.9008L28.4334 49.0168C28.3706 48.8886 28.3459 48.7863 28.3592 48.7226C28.3726 48.6462 28.4113 48.5955 28.4626 48.5576C28.5268 48.5198 28.5907 48.5076 28.6671 48.521C28.7563 48.5345 28.8322 48.6244 28.9202 48.7783L29.2338 49.4444L29.7486 48.9127C29.8516 48.7987 29.9669 48.7486 30.0689 48.7621Z" fill="white"/>
</svg>
