<svg width="203" height="183" viewBox="0 0 203 183" fill="none" xmlns="http://www.w3.org/2000/svg">
<path d="M153.723 98.3652L151.981 143.294L29.3549 141.716L17.5886 141.552C17.5886 141.552 23.6361 127.715 38.6562 115.193C39.5107 114.503 40.3653 113.813 41.2527 113.122L101.826 122.884C101.826 122.884 117.241 124.199 140.05 109.211L153.723 98.3652Z" fill="#945339"/>
<path d="M42.2716 115.818C42.2716 115.818 32.6745 124.823 29.3549 141.717L17.5886 141.552C17.5886 141.552 23.6361 127.716 38.6562 115.193L42.2716 115.818Z" fill="#AD6946"/>
<path d="M107.412 33.5197L113.789 42.6895L115.991 45.8447L124.897 57.7096C124.897 57.7096 125.621 57.2495 126.639 56.3949C130.419 53.2726 138.34 44.8587 130.649 34.6043C121.315 22.3121 107.412 33.5197 107.412 33.5197ZM97.158 24.2184L97.3223 24.4484L102.647 32.6323L112.375 47.6195L112.342 47.6524L112.737 48.1125L113.033 48.5726L113.065 48.5398L130.485 70.3633C130.485 70.3633 131.044 70.0346 131.931 69.443C137.453 65.7291 156.22 51.0376 144.355 30.2658C143.763 29.2141 143.106 28.1952 142.35 27.1106C142.218 26.9463 142.087 26.782 141.988 26.5848C141.988 26.5848 141.988 26.5848 141.955 26.5519C123.09 1.08017 97.158 24.2184 97.158 24.2184Z" fill="#B6724D"/>
<path d="M115.631 45.3177L115.993 45.8435L116.256 46.2051L124.9 57.7413C124.9 57.7413 127.726 55.9007 130.224 52.7784C133.445 48.7358 136.107 42.524 131.144 35.3262C130.881 34.9646 130.618 34.6031 130.356 34.2744C130.191 34.0444 129.994 33.8472 129.83 33.6171C122.237 24.9403 112.115 30.3633 108.631 32.664C107.842 33.1898 107.415 33.5185 107.415 33.5185L115.631 45.3177Z" fill="#DCBD8A"/>
<path d="M112.38 47.6199L112.347 47.6528L112.741 48.1129L113.037 48.5731L113.07 48.5402L130.49 70.3637C130.49 70.3637 155.797 55.8366 145.97 33.3886C145.51 32.3697 144.984 31.318 144.392 30.2334C144.885 37.99 145.608 50.4136 131.903 60.0107C131.903 60.0107 130.292 55.7051 129.273 53.7003C127.729 50.5779 125.855 47.6856 123.785 44.9906C121.024 41.3752 117.934 38.0886 114.845 35.0319C111.262 31.4823 106.365 35.5578 102.651 32.5998L112.38 47.6199Z" fill="#945339"/>
<path d="M123.781 45.055C128.612 54.5535 131.406 64.8079 131.406 64.8079C146.393 54.3563 147.609 42.0313 145.966 33.4531C145.506 32.4342 144.98 31.3825 144.388 30.2979C144.881 38.0544 145.605 50.478 131.899 60.0751C131.899 60.0751 130.289 55.7696 129.27 53.7647C127.692 50.6095 125.819 47.7501 123.781 45.055Z" fill="#AD6946"/>
<path d="M115.599 34.1096C125.295 41.1431 128.91 48.4724 130.225 52.7779C133.446 48.7353 136.108 42.5235 131.145 35.3257C130.882 34.9641 130.619 34.6026 130.356 34.2739C130.192 34.0439 129.995 33.8467 129.83 33.6166C122.961 30.3628 115.599 34.1096 115.599 34.1096Z" fill="#ECD09C"/>
<path d="M97.158 24.2184L97.3223 24.4484L99.0971 25.1058C99.0971 25.1058 105.079 19.88 112.803 17.7107C120.493 15.5415 130.551 17.2177 136.927 23.4296C143.303 29.6742 148.989 42.0321 145.111 51.695C141.561 60.569 133.279 68.2598 131.964 69.443C137.485 65.7291 156.252 51.0376 144.387 30.2658C143.796 29.2141 143.139 28.1952 142.383 27.1106C142.251 26.9463 142.12 26.782 142.021 26.5848C142.021 26.5848 142.021 26.5848 141.988 26.5519C123.09 1.08017 97.158 24.2184 97.158 24.2184Z" fill="#D59A77"/>
<path d="M108.631 32.6324L109.781 34.1771C119.872 28.3597 126.511 30.8905 130.356 34.2429C122.698 24.6458 112.148 30.2989 108.631 32.6324Z" fill="#C59F6D"/>
<path d="M23.6409 16.5938C12.6963 23.2658 16.9361 33.9803 19.2697 38.3188C19.8941 39.502 20.42 40.1922 20.42 40.1922L33.1066 32.4685L36.3275 30.3321L45.6617 24.186C45.6617 24.186 36.8862 8.60721 23.6409 16.5938ZM16.1473 4.89326C16.1145 4.89326 16.1145 4.89326 16.1473 4.89326C15.9501 5.02473 15.7529 5.12333 15.5886 5.2548C14.504 5.97786 13.4851 6.70093 12.5648 7.424C-6.20208 22.3126 5.79429 42.9201 9.5411 48.4417C10.1656 49.3291 10.56 49.855 10.56 49.855L34.8485 36.0838L34.8814 36.1167L35.3086 35.8209L35.8345 35.5251L35.8016 35.4593L50.3945 25.1721L58.3811 19.5518L58.6112 19.3875C58.6112 19.3546 43.1638 -11.7373 16.1473 4.89326Z" fill="#B6724D"/>
<path d="M33.6293 32.1082L33.1034 32.4698L32.7419 32.6998L20.4497 40.1935C20.4497 40.1935 18.4777 37.4326 17.3274 33.6201C15.8155 28.6572 15.684 21.8867 22.9476 17.0553C23.342 16.7923 23.7035 16.5623 24.065 16.3651C24.328 16.2336 24.558 16.1021 24.821 15.9707C35.1083 10.7448 42.4704 19.5531 44.8368 22.9713C45.3627 23.7272 45.6585 24.2202 45.6585 24.2202L33.6293 32.1082Z" fill="#DCBD8A"/>
<path d="M35.7631 35.4605L35.796 35.5262L35.2701 35.822L34.8428 36.1178L34.81 36.085L10.5214 49.8561C10.5214 49.8561 -7.55527 26.948 9.89697 9.79155C10.6858 9.00274 11.5732 8.21394 12.5592 7.45801C9.20677 14.4586 3.91522 25.6991 13.0522 39.7332C13.0522 39.7332 16.1417 36.3479 17.8507 34.836C20.4472 32.5353 23.2737 30.5305 26.166 28.7885C30.0772 26.455 34.1526 24.5487 38.1624 22.8725C42.7966 20.9005 45.8532 26.4879 50.3888 25.1403L35.7631 35.4605Z" fill="#945339"/>
<path d="M26.1661 28.7872C18.1466 35.8207 11.7376 44.2675 11.7376 44.2675C1.71325 29.0173 5.16426 17.0867 9.8642 9.75737C10.653 8.96857 11.5404 8.17976 12.5264 7.42383C9.20687 14.4573 3.91532 25.6977 13.0523 39.7318C13.0523 39.7318 16.1418 36.3466 17.8508 34.8347C20.4473 32.534 23.241 30.5292 26.1661 28.7872Z" fill="#AD6946"/>
<path d="M37.8362 21.6872C26.2014 24.6123 20.1539 30.0682 17.3274 33.5849C15.8155 28.6221 15.684 21.8515 22.9476 17.0201C23.342 16.7572 23.7035 16.5271 24.065 16.3299C24.328 16.1984 24.558 16.067 24.821 15.9355C32.3475 15.4754 37.8362 21.6872 37.8362 21.6872Z" fill="#ECD09C"/>
<path d="M58.6068 19.3515L58.3768 19.5158L56.5033 19.4501C56.5033 19.4501 52.888 12.3838 46.5447 7.48661C40.2014 2.58946 30.2428 0.420254 21.9932 3.8384C13.7437 7.25654 3.88367 16.6236 3.88367 27.0423C3.88367 36.6065 8.71508 46.8281 9.50388 48.4386C5.75707 42.9498 -6.20643 22.3424 12.5276 7.42087C13.4479 6.66494 14.4668 5.94187 15.5514 5.25167C15.7157 5.15307 15.9129 5.0216 16.0772 4.923H16.1101C43.1594 -11.7404 58.6068 19.3515 58.6068 19.3515Z" fill="#D59A77"/>
<path d="M44.8362 22.9374L43.1929 23.9563C36.028 14.7865 28.9287 14.655 24.0645 16.3312C34.7462 10.2837 42.437 19.4535 44.8362 22.9374Z" fill="#C59F6D"/>
<path d="M131.242 102.079C131.242 102.112 131.209 102.112 131.209 102.145C131.11 102.375 131.011 102.572 130.913 102.769C130.88 102.835 130.847 102.901 130.814 102.966C130.716 103.164 130.617 103.361 130.518 103.525C130.387 103.755 130.256 103.985 130.157 104.215C129.861 104.741 129.565 105.234 129.27 105.694C129.171 105.859 129.039 106.056 128.941 106.22C127.791 107.962 126.542 109.573 125.128 111.084C125.063 111.15 124.997 111.216 124.931 111.314C124.898 111.347 124.865 111.38 124.833 111.413C124.734 111.512 124.635 111.643 124.537 111.742C124.372 111.939 124.175 112.103 123.978 112.301C123.452 112.826 122.926 113.319 122.368 113.812C122.236 113.911 122.137 114.01 122.006 114.108C121.842 114.24 121.677 114.404 121.513 114.535C121.382 114.634 121.25 114.733 121.151 114.831C120.856 115.061 120.56 115.324 120.264 115.521C120.133 115.62 120.001 115.719 119.87 115.817C119.837 115.85 119.837 115.85 119.804 115.85C119.607 115.982 119.41 116.146 119.212 116.277C119.212 116.31 119.179 116.31 119.147 116.31C118.949 116.475 118.752 116.606 118.555 116.738C118.325 116.902 118.095 117.066 117.832 117.231C117.668 117.362 117.47 117.461 117.306 117.592C116.386 118.184 115.433 118.775 114.447 119.301C114.249 119.4 114.052 119.498 113.855 119.63C113.658 119.728 113.428 119.86 113.231 119.958C113.132 120.024 113.033 120.057 112.902 120.123C112.705 120.221 112.475 120.32 112.277 120.451C111.916 120.616 111.554 120.813 111.193 120.977C110.798 121.175 110.404 121.339 109.977 121.536C109.78 121.635 109.582 121.7 109.385 121.799C109.155 121.898 108.925 121.996 108.662 122.095C108.465 122.161 108.268 122.259 108.07 122.325C107.873 122.423 107.676 122.489 107.479 122.555C107.38 122.588 107.315 122.621 107.216 122.654C106.986 122.752 106.723 122.851 106.493 122.916C105.277 123.377 104.061 123.771 102.845 124.165C102.845 124.165 83.7491 128.8 62.2871 125.48C41.5482 122.259 31.3595 117.921 20.7435 112.399C19.6589 111.84 18.5743 111.084 17.5554 110.328C15.4191 108.685 13.5786 106.877 13.0198 106.319C12.987 106.286 12.987 106.286 12.9541 106.253C12.8226 106.122 12.6912 105.99 12.5597 105.859C12.4282 105.727 12.2968 105.596 12.1653 105.464C11.7709 105.07 11.3765 104.675 11.015 104.248C10.8835 104.117 10.7849 103.985 10.6534 103.854C10.6534 103.854 10.6534 103.821 10.6206 103.821C10.4891 103.689 10.3905 103.558 10.259 103.426C8.41849 101.356 6.77515 99.1209 5.36188 96.7216C5.26328 96.5573 5.16468 96.393 5.06608 96.2286C4.60595 95.407 4.17868 94.5196 3.75141 93.6322C3.65281 93.4678 3.58708 93.3035 3.52134 93.1063C3.45561 92.942 3.35701 92.7448 3.29128 92.5804C3.22554 92.4161 3.15981 92.2189 3.09408 92.0546C2.92974 91.6602 2.79828 91.2329 2.63394 90.8385C2.56821 90.707 2.53534 90.5427 2.46961 90.4112C2.40387 90.214 2.33814 90.0497 2.27241 89.8525C2.20667 89.6553 2.14094 89.4581 2.10807 89.2938C2.04234 89.0966 2.00947 88.9322 1.94374 88.735C1.87801 88.505 1.81227 88.2749 1.74654 88.0448C1.71367 87.9134 1.68081 87.8148 1.64794 87.6833C1.58221 87.4532 1.51647 87.2232 1.48361 86.9931C1.45074 86.8616 1.41787 86.763 1.41787 86.6316C1.38501 86.5001 1.35214 86.3358 1.31927 86.1714C1.2864 86.0071 1.25354 85.8099 1.22067 85.6127C1.0892 84.9882 0.990604 84.3966 0.924871 83.7721C0.892004 83.6078 0.892004 83.4106 0.859137 83.2463C0.82627 83.0162 0.82627 82.819 0.793404 82.5889C0.760537 82.3917 0.760537 82.2274 0.760537 82.0302C0.760537 81.8659 0.72767 81.7015 0.72767 81.5043C0.72767 81.3071 0.694803 81.0771 0.694803 80.8799C0.694803 80.6827 0.661937 80.4526 0.661937 80.2554C0.563336 77.0673 0.82627 73.7149 1.58221 70.1324C1.87801 68.752 2.17381 67.4045 2.53534 66.0898C2.66681 65.6297 2.76541 65.1696 2.89688 64.7094C3.02834 64.1836 3.19268 63.6906 3.32414 63.1647C3.42274 62.836 3.52134 62.5402 3.61994 62.2116C4.01435 60.9626 4.40875 59.7465 4.83601 58.5633C5.09895 57.8074 5.39475 57.0515 5.65768 56.3284V56.2955C6.47935 54.1921 7.36675 52.1872 8.31989 50.2809C17.6212 31.5797 32.8056 22.2784 48.5817 18.8603C57.0942 17.0198 65.8038 16.8883 73.8562 17.94C74.5135 18.0386 76.9128 18.3344 77.4387 18.4002C99.8867 21.0624 125.03 33.7161 132.622 63.4276C133.246 65.8269 133.739 68.3248 134.101 70.9541C134.2 71.71 134.298 72.4988 134.397 73.2877C134.43 73.5177 134.43 73.7478 134.463 73.945C134.791 77.1988 134.956 80.6169 134.89 84.2323C134.857 85.1525 134.857 86.1057 134.791 87.0588C134.791 87.3218 134.758 87.6176 134.758 87.8805C134.758 88.1106 134.725 88.3735 134.725 88.6036C134.725 88.6364 134.725 88.6693 134.725 88.7022C134.725 88.735 134.725 88.735 134.725 88.7679C134.693 89.0308 134.693 89.2609 134.66 89.5238C134.66 89.5896 134.66 89.6882 134.627 89.7539C134.594 90.0168 134.594 90.2469 134.561 90.477C134.561 90.5427 134.528 90.6084 134.528 90.6742C134.495 90.97 134.462 91.2329 134.43 91.5287C134.397 91.8245 134.331 92.1203 134.298 92.4161V92.4818C134.232 92.7776 134.2 93.0734 134.134 93.3364C134.101 93.5664 134.035 93.8294 134.002 94.0594C133.969 94.1581 133.969 94.2895 133.937 94.3881C133.904 94.6182 133.838 94.8483 133.772 95.0454C133.772 95.0454 133.772 95.0783 133.772 95.1112C133.707 95.3741 133.641 95.6699 133.575 95.9328C133.509 96.1958 133.444 96.4587 133.378 96.6888C133.378 96.7545 133.345 96.7874 133.345 96.8531C133.279 97.1161 133.214 97.3461 133.115 97.5762C133.049 97.8063 132.983 98.0692 132.885 98.2993C132.852 98.3979 132.819 98.4965 132.786 98.5622C132.721 98.7594 132.655 98.9566 132.589 99.1538C132.589 99.1867 132.589 99.1867 132.556 99.2195C132.458 99.4825 132.359 99.7125 132.293 99.9755C132.195 100.238 132.096 100.501 131.997 100.731C131.899 100.994 131.8 101.224 131.669 101.487C131.472 101.619 131.34 101.849 131.242 102.079Z" fill="#B6724D"/>
<path d="M124.898 111.348C124.865 111.381 124.833 111.413 124.8 111.446C124.701 111.545 124.602 111.676 124.504 111.775C124.34 111.972 124.142 112.137 123.945 112.334C123.452 112.827 109.878 134.88 68.466 127.65C66.4612 127.288 64.4234 126.894 62.2871 126.401C41.844 121.602 32.9371 118.907 22.3211 113.385C19.9876 112.169 18.5743 111.085 17.5554 110.296C15.4191 108.653 13.6114 106.845 13.0198 106.286C12.987 106.253 12.987 106.253 12.9541 106.22C12.8226 106.089 12.6912 105.958 12.5597 105.826C12.4282 105.695 12.2968 105.563 12.1653 105.432C11.7709 105.037 11.3765 104.643 11.015 104.216C10.8835 104.084 10.7849 103.953 10.6534 103.821C10.6534 103.821 10.6534 103.788 10.6206 103.788C10.4891 103.657 10.3905 103.525 10.259 103.394C8.41849 101.323 6.77515 99.0884 5.36188 96.6891C5.26328 96.5248 5.16468 96.3605 5.06608 96.1961C4.60595 95.3745 4.14581 94.4871 3.75141 93.5997C3.65281 93.4353 3.58708 93.271 3.52134 93.0738C3.45561 92.9095 3.35701 92.7123 3.29128 92.5479C3.22554 92.3836 3.15981 92.1864 3.09408 92.0221C2.92974 91.6277 2.76541 91.2004 2.63394 90.806C2.56821 90.6745 2.53534 90.5102 2.46961 90.3787C2.40387 90.1815 2.33814 90.0172 2.27241 89.82C2.20667 89.6228 2.14094 89.4585 2.10807 89.2613C2.04234 89.0641 2.00947 88.8997 1.94374 88.7025C1.87801 88.4725 1.81227 88.2424 1.74654 88.0123C1.71367 87.8808 1.68081 87.7822 1.64794 87.6508C1.58221 87.4207 1.51647 87.1906 1.48361 86.9277C1.45074 86.7962 1.41787 86.6976 1.41787 86.5662C1.38501 86.4347 1.35214 86.2704 1.31927 86.106C1.2864 85.9417 1.25354 85.7445 1.22067 85.5473C1.0892 84.9228 0.990604 84.3312 0.924871 83.7068C0.892004 83.5424 0.892004 83.3452 0.859137 83.1809C0.82627 82.9508 0.82627 82.7536 0.793404 82.5236C0.760537 82.3264 0.760537 82.162 0.760537 81.9648C0.760537 81.8005 0.72767 81.6362 0.72767 81.439C0.72767 81.2418 0.694803 81.0117 0.694803 80.8145C0.694803 80.6173 0.661937 80.3872 0.661937 80.19C0.563336 77.002 0.82627 73.6495 1.58221 70.0671C1.87801 68.6867 2.17381 67.3391 2.53534 66.0245C2.66681 65.5643 2.76541 65.1042 2.89688 64.6441C3.02834 64.1182 3.19268 63.6252 3.32414 63.0993C3.42274 62.7706 3.52134 62.4748 3.61994 62.1462C4.01435 60.8972 4.40875 59.6812 4.83601 58.498C5.09895 57.742 5.39475 56.9861 5.65768 56.263V56.2302C6.47935 54.1267 7.36675 52.1218 8.31989 50.2155C15.1562 36.4772 25.1805 27.8004 36.2566 22.8047C40.2664 20.997 44.4076 19.6823 48.5817 18.7949C37.8342 27.0116 14.9918 49.1967 22.3211 84.397C27.6784 110.033 80.1338 139.317 124.898 111.348Z" fill="#AD6946"/>
<path d="M68.4661 127.617C66.4612 127.255 64.4235 126.861 62.2871 126.368C41.844 121.602 32.9371 118.907 22.3211 113.385C19.9876 112.169 18.5743 111.085 17.5555 110.296C15.4191 108.653 13.6114 106.845 13.0198 106.286C12.987 106.253 12.987 106.253 12.9541 106.221C12.8226 106.089 12.6912 105.958 12.5597 105.826C12.4282 105.695 12.2968 105.563 12.1653 105.432C11.7709 105.037 11.3765 104.643 11.015 104.216C10.8835 104.084 10.7849 103.953 10.6534 103.821C10.6534 103.821 10.6534 103.788 10.6206 103.788C10.4891 103.657 10.3905 103.525 10.259 103.394C8.41849 101.323 6.77515 99.0884 5.36188 96.6892C5.26328 96.5248 5.16468 96.3605 5.06608 96.1962C4.60595 95.3745 4.14581 94.4871 3.75141 93.5997C3.65281 93.4353 3.58708 93.271 3.52134 93.0738C3.45561 92.9095 3.35701 92.7123 3.29128 92.548C3.22554 92.3836 3.15981 92.1864 3.09408 92.0221C2.92974 91.6277 2.76541 91.2004 2.63394 90.806C2.56821 90.6745 2.53534 90.5102 2.46961 90.3787C2.40387 90.1815 2.33814 90.0172 2.27241 89.82C2.20667 89.6228 2.14094 89.4585 2.10807 89.2613C2.04234 89.0641 2.00947 88.8997 1.94374 88.7025C1.87801 88.4725 1.81227 88.2424 1.74654 88.0123C1.71367 87.8809 1.68081 87.7823 1.64794 87.6508C1.58221 87.4207 1.51647 87.1907 1.48361 86.9277C1.45074 86.7963 1.41787 86.6977 1.41787 86.5662C1.38501 86.4347 1.35214 86.2704 1.31927 86.1061C1.2864 85.9417 1.25354 85.7445 1.22067 85.5473C1.0892 84.9229 0.990604 84.3313 0.924871 83.7068C0.892004 83.5425 0.892004 83.3453 0.859137 83.1809C0.82627 82.9509 0.82627 82.7537 0.793404 82.5236C0.760537 82.3264 0.760537 82.1621 0.760537 81.9649C0.760537 81.8005 0.72767 81.6362 0.72767 81.439C0.72767 81.2418 0.694803 81.0117 0.694803 80.8145C0.694803 80.6173 0.661937 80.3872 0.661937 80.19C0.563336 77.002 0.82627 73.6496 1.58221 70.0671C1.87801 68.6867 2.17381 67.3391 2.53534 66.0245C2.66681 65.5643 2.76541 65.1042 2.89688 64.6441C3.02834 64.1182 3.19268 63.6252 3.32414 63.0993C3.42274 62.7707 3.52134 62.4749 3.61994 62.1462C4.01435 60.8973 4.40875 59.6812 4.83601 58.498C5.09895 57.7421 5.39475 56.9861 5.65768 56.263V56.2302C6.47935 54.1267 7.36675 52.1218 8.31989 50.2156C15.1562 36.4773 25.1805 27.8004 36.2566 22.8047L26.1994 29.1808C26.1994 29.1808 4.86888 51.9904 9.17443 82.1621C12.2639 103.986 43.0929 120.583 68.4661 127.617Z" fill="#945339"/>
<path d="M134.626 89.0656C134.133 92.911 133.279 96.7235 131.964 100.405V100.437C128.612 109.804 122.334 118.317 111.817 123.773C111.619 123.871 111.422 123.97 111.192 124.069C110.436 124.463 109.647 124.825 108.826 125.186C108.333 125.416 107.84 125.613 107.314 125.811C107.051 125.909 106.755 126.041 106.492 126.139C105.736 126.435 104.948 126.698 104.126 126.961C103.37 127.224 102.581 127.454 101.759 127.651C101.365 127.75 100.971 127.881 100.576 127.98C100.576 127.98 100.182 128.078 99.393 128.21C98.9 128.308 98.3084 128.407 97.5525 128.506C97.3882 128.539 97.2238 128.571 97.0266 128.571C96.3364 128.67 95.5476 128.769 94.6602 128.867C93.9371 128.933 93.1483 129.032 92.2938 129.097C91.5379 129.163 90.7491 129.196 89.9274 129.229C89.1715 129.262 88.3827 129.294 87.5281 129.294C86.7722 129.294 85.9505 129.327 85.1289 129.294C84.5044 129.294 83.847 129.294 83.1897 129.262C82.3023 129.229 81.382 129.196 80.4618 129.13C79.5415 129.064 78.6212 128.999 77.6681 128.933C76.9779 128.867 76.2877 128.801 75.5646 128.736C74.7758 128.637 73.987 128.539 73.1654 128.44C72.3765 128.341 71.5877 128.21 70.7661 128.078C69.9773 127.947 69.1885 127.815 68.3668 127.651C67.578 127.487 66.7892 127.355 65.9675 127.158C65.9347 127.158 65.9018 127.158 65.8689 127.125C65.5731 127.06 65.2773 126.994 64.9815 126.928C64.5871 126.829 64.0941 126.731 63.5354 126.567C62.8123 126.402 61.9907 126.172 61.1361 125.975C60.7089 125.876 60.3144 125.778 59.8872 125.646C59.8543 125.646 59.8214 125.646 59.7886 125.613C59.427 125.515 59.0655 125.416 58.704 125.35C58.211 125.219 57.7508 125.12 57.3236 125.022C56.962 124.923 56.6334 124.857 56.3047 124.792C55.8117 124.693 55.4173 124.595 55.0558 124.529C55.0229 124.529 54.99 124.529 54.9572 124.496H54.99C55.3844 124.562 55.8446 124.627 56.2718 124.693C56.7977 124.792 57.3564 124.89 57.9152 124.989C58.1452 125.022 58.4082 125.088 58.6711 125.153C59.427 125.318 60.2487 125.482 61.0704 125.679C61.8263 125.843 62.648 126.041 63.4697 126.205C64.2256 126.369 65.0144 126.534 65.8361 126.731H65.8689C66.3948 126.829 66.8878 126.961 67.4465 127.06C67.7095 127.125 68.0053 127.191 68.3011 127.224C69.0899 127.388 69.8787 127.52 70.7003 127.684C71.4891 127.815 72.2779 127.947 73.0996 128.078C73.8884 128.21 74.6772 128.308 75.4989 128.407C75.9262 128.473 76.3534 128.506 76.8136 128.571C77.0765 128.604 77.3394 128.637 77.6024 128.67C78.5226 128.769 79.4429 128.834 80.396 128.933C81.3163 128.999 82.2366 129.032 83.1897 129.064C83.8142 129.097 84.4386 129.097 85.096 129.097C85.8848 129.097 86.6736 129.097 87.4953 129.064C88.2841 129.032 89.0729 128.999 89.8945 128.933C90.6833 128.867 91.4721 128.801 92.2609 128.703C92.5567 128.67 92.8525 128.637 93.1483 128.604C93.6413 128.539 94.1343 128.473 94.6273 128.374C95.4161 128.243 96.205 128.078 96.9938 127.914C97.7826 127.75 98.5714 127.553 99.3602 127.355C99.7546 127.257 100.116 127.158 100.51 127.027C100.905 126.895 101.332 126.797 101.727 126.665C102.483 126.435 103.238 126.139 103.994 125.876C104.027 125.876 104.06 125.843 104.093 125.843C104.882 125.548 105.671 125.219 106.459 124.857C107.248 124.496 108.037 124.134 108.793 123.707C109.023 123.576 109.286 123.444 109.516 123.313C110.075 123.017 110.601 122.688 111.159 122.36C111.357 122.261 111.521 122.13 111.718 122.031C114.282 120.453 116.78 118.514 119.212 116.213C120.329 115.162 121.348 114.044 122.301 112.828C129.696 103.363 131.898 89.2299 130.649 72.5007C130.321 68.0637 129.598 63.791 128.447 59.7484C127.428 56.1331 126.114 52.6821 124.438 49.4611C120.263 41.343 113.953 34.5067 105.309 29.3467C105.309 29.3467 105.309 29.3467 105.276 29.3467C104.685 28.9851 104.06 28.6565 103.468 28.2949C99.656 26.1915 95.4161 24.4166 90.7491 23.0034C90.5519 22.9376 90.3218 22.8719 90.1246 22.8062C83.6498 20.867 76.3534 19.5852 68.1696 19.0265C67.1179 18.9608 66.0333 18.895 64.9487 18.8293C64.2256 18.7964 63.5025 18.7636 62.7795 18.7636C61.662 18.7307 60.5117 18.6978 59.3613 18.6978C57.5536 18.6978 55.8117 18.7636 54.1355 18.895C52.6894 18.9936 51.309 19.158 49.9286 19.3552C49.0083 19.4866 48.088 19.651 47.2006 19.8153C41.5804 21.0314 36.7819 22.839 32.5749 25.1068C30.5043 26.2243 28.598 27.4733 26.7904 28.7551C26.7246 28.7879 26.6918 28.8208 26.626 28.8537C26.4288 29.018 26.1988 29.1495 26.0016 29.3138C24.9827 30.0697 24.0296 30.8914 23.0764 31.6802C21.9589 32.6333 20.9401 33.6193 19.9541 34.6053C18.4751 36.1172 17.1275 37.6291 15.9115 39.1081C14.8597 40.3899 13.9066 41.6717 13.0192 42.8878C11.0472 45.6157 9.50245 48.1464 8.28638 50.1185C8.41784 49.8226 8.58218 49.5268 8.71365 49.2639C8.77938 49.1653 8.81225 49.0667 8.87798 48.9681C9.04231 48.6723 9.20665 48.3436 9.37098 48.0478C9.37098 48.015 9.40385 48.015 9.40385 47.9821C10.4556 46.0101 11.5731 44.1038 12.7563 42.329C13.6765 40.9158 14.6297 39.5682 15.6157 38.2864C16.9303 36.5773 18.2779 34.9997 19.6911 33.5207C20.71 32.469 21.7289 31.4501 22.7806 30.497C23.9967 29.3795 25.2785 28.3278 26.5932 27.3747C33.1336 22.4775 40.5287 19.3223 48.6468 17.7447C49.9614 17.4818 51.309 17.2517 52.6565 17.0874C55.4173 16.7258 58.2767 16.5286 61.2019 16.4629C62.0564 16.4629 62.9109 16.4629 63.7655 16.4629C64.9487 16.4958 66.1647 16.5286 67.3479 16.5944C70.7989 16.7916 74.3485 17.186 77.9968 17.8104C82.861 18.5992 87.3309 19.6838 91.4721 20.9985C92.1295 21.1957 92.7868 21.4258 93.4441 21.6558C97.7497 23.1348 101.694 24.8768 105.243 26.8817C105.901 27.2432 106.558 27.6376 107.182 27.9991C112.145 31.0229 116.352 34.5396 119.869 38.4508C122.301 41.1787 124.438 44.071 126.245 47.1276C127.626 49.4611 128.842 51.8933 129.893 54.424C129.893 54.424 129.893 54.424 129.893 54.4569C130.781 56.5932 131.57 58.8281 132.227 61.0631C133.016 63.7582 133.64 66.519 134.133 69.3455C135.185 75.4587 135.514 82.2621 134.626 89.0656Z" fill="#D59A77"/>
<path d="M16.4694 109.477C15.3848 108.622 13.6429 106.88 12.9855 106.223C12.8541 106.091 12.7226 105.96 12.5911 105.828C12.4597 105.697 12.3282 105.565 12.1967 105.434C11.8023 105.04 11.4079 104.645 11.0464 104.218C10.9149 104.086 10.8163 103.955 10.6849 103.824C10.6849 103.824 10.6849 103.791 10.652 103.791C10.5205 103.659 10.4219 103.528 10.2905 103.396C8.44994 101.326 6.8066 99.0907 5.39333 96.6914C5.29473 96.5271 5.19613 96.3628 5.13039 96.1984C4.67026 95.3768 4.21012 94.4894 3.81572 93.6348C3.71712 93.4705 3.65139 93.2733 3.58566 93.109C3.51992 92.9446 3.42132 92.7474 3.35559 92.5831C3.28985 92.4188 3.22412 92.2216 3.12552 92.0572C2.96119 91.6628 2.82972 91.2684 2.66539 90.8412C2.59965 90.7097 2.56679 90.5454 2.50105 90.4139C2.43532 90.2167 2.36959 90.0523 2.30385 89.8551C2.23812 89.6579 2.17238 89.4608 2.13952 89.2964C2.07378 89.0992 2.04092 88.9349 1.97518 88.7377C1.87658 88.3761 1.77798 88.0146 1.67938 87.6859C1.61365 87.4559 1.58078 87.2258 1.51505 86.9957C1.48218 86.8643 1.44932 86.7657 1.44932 86.6342C1.41645 86.5027 1.38358 86.3384 1.35072 86.2069C1.31785 86.0426 1.28498 85.8454 1.25212 85.6482C1.15352 85.0237 1.05491 84.4321 0.956315 83.8077C0.923448 83.6433 0.923448 83.4461 0.890581 83.2818C0.857714 83.0517 0.857714 82.8545 0.824848 82.6245C0.791981 82.4273 0.791981 82.2629 0.759114 82.0657C0.759114 81.9014 0.726247 81.7371 0.726247 81.5399C0.726247 81.3427 0.69338 81.1126 0.69338 80.9154C0.69338 80.7182 0.660514 80.4881 0.660514 80.2909C0.561913 77.1028 0.857714 73.7504 1.58078 70.168C1.87658 68.7876 2.17238 67.44 2.53392 66.1253C2.66539 65.6652 2.76399 65.2051 2.89545 64.7449C3.02692 64.2191 3.19125 63.7261 3.32272 63.2002C3.42132 62.8715 3.51992 62.5757 3.61852 62.2471C4.24299 60.2093 4.93319 58.2373 5.65626 56.3311C5.09753 57.9415 4.34159 60.3408 3.61852 63.2002C3.22412 64.8435 2.86259 66.6512 2.53392 68.5575C1.64652 74.1448 1.35072 80.6196 2.82972 86.7657C5.75486 98.7292 18.6386 111.186 28.0385 116.083C27.3812 115.82 22.4183 114.242 16.4694 109.477Z" fill="#AD6946"/>
<path d="M56.2063 67.6029C54.4973 64.382 55.6805 60.4051 58.9014 58.6631C61.7608 57.1184 65.2118 57.9072 67.151 60.3393C67.4139 60.6351 67.644 60.9967 67.8412 61.3582C69.5502 64.5792 68.367 68.556 65.1461 70.298C62.944 71.4812 60.3804 71.284 58.4084 70.0022C57.521 69.4106 56.7322 68.6218 56.2063 67.6029Z" fill="#333132"/>
<path d="M57.7518 68.9842C56.0427 65.7633 57.2259 61.7864 60.4468 60.0445C62.6489 58.8613 65.2125 59.0585 67.1845 60.3403C67.4474 60.6361 67.6775 60.9976 67.8747 61.3591C69.5838 64.5801 68.4006 68.557 65.1796 70.2989C62.9776 71.4821 60.414 71.2849 58.442 70.0031C58.1462 69.7073 57.949 69.3458 57.7518 68.9842Z" fill="#272425"/>
<path d="M64.0972 68.9508C65.4768 68.9508 66.5951 67.8325 66.5951 66.4529C66.5951 65.0734 65.4768 63.9551 64.0972 63.9551C62.7177 63.9551 61.5994 65.0734 61.5994 66.4529C61.5994 67.8325 62.7177 68.9508 64.0972 68.9508Z" fill="white"/>
<path d="M99.5245 73.0931C98.0455 69.7735 99.5903 65.8624 102.91 64.4163C105.868 63.1016 109.253 64.1533 110.995 66.7169C111.225 67.0456 111.422 67.4071 111.587 67.8015C113.066 71.1211 111.521 75.0322 108.201 76.5112C105.934 77.5301 103.37 77.1028 101.529 75.6896C100.675 75.0322 99.9847 74.1448 99.5245 73.0931Z" fill="#333132"/>
<path d="M101.069 74.7371C99.4913 71.4505 100.905 67.5064 104.191 65.9288C106.459 64.8442 108.99 65.1729 110.896 66.5204C111.126 66.8491 111.356 67.2106 111.521 67.5722C113.098 70.8589 111.685 74.8029 108.398 76.3805C106.13 77.4651 103.6 77.1364 101.693 75.7889C101.463 75.4931 101.233 75.1315 101.069 74.7371Z" fill="#272425"/>
<path d="M106.955 75.1959C108.335 75.1959 109.453 74.0776 109.453 72.6981C109.453 71.3185 108.335 70.2002 106.955 70.2002C105.576 70.2002 104.458 71.3185 104.458 72.6981C104.458 74.0776 105.576 75.1959 106.955 75.1959Z" fill="white"/>
<path d="M106.507 94.7735C108.587 83.4552 99.0583 72.218 85.2228 69.6745C71.3872 67.1311 58.4846 74.2446 56.4039 85.5629C54.3232 96.8813 63.8524 108.118 77.6879 110.662C91.5235 113.205 104.426 106.092 106.507 94.7735Z" fill="#AD6946"/>
<path d="M103.765 102.154C105.846 90.8359 96.244 79.5854 82.3192 77.0255C68.3944 74.4657 55.4194 81.5659 53.3387 92.8842C51.258 104.203 60.8596 115.453 74.7844 118.013C88.7092 120.573 101.684 113.473 103.765 102.154Z" fill="#945339"/>
<path d="M61.4019 92.6151C63.9655 105.762 87.3995 120.157 104.753 104.776C105.739 102.968 106.462 100.963 106.857 98.8598C107.152 97.3151 107.251 95.7703 107.218 94.2584C107.054 88.1124 104.392 82.3935 100.02 78.3509C96.9966 75.5244 93.1512 73.5195 88.8128 72.6978L80.7933 71.2188C76.422 70.43 72.1165 70.9559 68.2711 72.5335C66.8907 73.0923 65.576 73.8153 64.3271 74.637C62.0921 77.6279 59.6271 83.3138 61.4019 92.6151Z" fill="#ECD09C"/>
<path d="M61.4025 92.6145C59.5948 83.3132 62.0598 77.6273 64.2948 74.6035C64.1962 74.6692 64.0647 74.735 63.9661 74.8336C59.792 77.7259 56.5711 81.9657 55.0921 87.0929C54.8949 87.7831 54.7305 88.5062 54.5662 89.2621C52.3313 101.423 58.5102 112.86 76.5212 116.147C84.1134 117.528 91.114 116.246 96.5042 113.09C100.021 111.02 102.847 108.193 104.721 104.742C87.433 120.157 63.9661 105.761 61.4025 92.6145Z" fill="#DCBD8A"/>
<path d="M84.2433 83.377C84.2433 83.377 84.0461 90.6076 82.3042 99.3831" stroke="#43281F" stroke-miterlimit="10" stroke-linecap="round"/>
<path d="M74.0587 70.9893C71.8566 71.2851 69.9504 71.8109 68.2742 72.5011C68.6686 74.4403 69.3916 76.2808 70.4434 77.8913C72.744 81.4409 76.6881 84.0702 82.374 85.122C84.9047 85.5821 87.2383 85.615 89.3418 85.2863C77.0825 81.7367 74.486 74.9333 74.0587 70.9893Z" fill="#43281F"/>
<path d="M95.487 82.9523C97.2947 81.7691 98.8394 80.1915 100.023 78.3181C96.9989 75.4916 93.3178 73.0594 84.4438 71.4161C80.3354 70.6602 76.9173 70.5944 74.0579 70.9888C74.4851 74.9328 77.0816 81.7362 89.3409 85.2859C91.6416 84.9243 93.7122 84.1355 95.487 82.9523Z" fill="#5C392B"/>
<path d="M79.3137 72.9254C79.6752 72.8925 80.0367 72.8597 80.3654 72.8268C80.7269 72.7939 81.0556 72.7939 81.4171 72.7939C82.1073 72.7939 82.7976 72.8268 83.4878 72.8925C84.8682 73.024 86.2157 73.2541 87.5632 73.5827C88.9108 73.9114 90.2583 74.3716 91.5401 74.9632C92.8219 75.5548 94.0708 76.3107 95.1555 77.2638C95.6813 77.724 95.7471 78.5128 95.2869 79.0386C94.9582 79.433 94.4324 79.5645 93.9722 79.4002L93.9065 79.3673C92.6904 78.9729 91.5072 78.6114 90.324 78.2498C89.108 77.9212 87.8919 77.5596 86.6758 77.2638L82.9619 76.3436L81.0885 75.8834C80.7598 75.7848 80.464 75.7191 80.1353 75.6205C79.8395 75.5219 79.5109 75.4562 79.2151 75.3576L79.1493 75.3247C78.492 75.1275 78.1305 74.4044 78.3277 73.7471C78.4263 73.2869 78.8535 72.9911 79.3137 72.9254Z" fill="white"/>
<path d="M72.7409 89.458C72.7409 89.458 72.5108 98.3649 82.831 99.4495C92.0994 100.436 94.2358 92.2845 94.2358 92.2845" stroke="#43281F" stroke-miterlimit="10" stroke-linecap="round"/>
<path d="M51.3413 110.33C50.4868 110.724 49.7637 111.48 49.4351 112.434L51.1441 112.565L51.3413 110.33Z" fill="white"/>
<path d="M53.7716 110.068C53.0485 109.904 52.2926 109.969 51.6353 110.199L53.7387 110.397L53.7716 110.068Z" fill="#71495A"/>
<path d="M55.0534 110.495C54.7576 110.397 54.4947 110.265 54.1989 110.167C54.0674 110.134 53.936 110.068 53.7716 110.035L53.7388 110.364L55.0534 110.495Z" fill="#D8BFB4"/>
<path d="M53.5407 112.764L53.7379 110.397L51.6344 110.2C51.5358 110.233 51.4372 110.266 51.3715 110.299L51.1743 112.534L53.5407 112.764Z" fill="#D8BFB4"/>
<path d="M53.5413 112.764L55.9077 112.961L56.072 110.89C55.7433 110.759 55.3818 110.628 55.0203 110.496L53.7056 110.397L53.5413 112.764Z" fill="white"/>
<path d="M58.2739 113.157L58.3725 111.843C57.6165 111.514 56.8606 111.185 56.0718 110.89L55.9075 112.96L58.2739 113.157Z" fill="#D8BFB4"/>
<path d="M60.6743 113.356L60.7071 112.895C59.9512 112.534 59.1953 112.172 58.4065 111.844L58.3079 113.158L60.6743 113.356Z" fill="white"/>
<path d="M61.8266 113.454C61.4651 113.257 61.0707 113.093 60.7091 112.896L60.6763 113.356L61.8266 113.454Z" fill="#D8BFB4"/>
<path d="M98.7351 116.182C98.3407 116.28 97.9791 116.412 97.5847 116.51L98.7022 116.609L98.7351 116.182Z" fill="white"/>
<path d="M101.067 116.806L101.166 115.491C100.311 115.688 99.4894 115.918 98.7006 116.149L98.6677 116.576L101.067 116.806Z" fill="#D8BFB4"/>
<path d="M103.465 117.037L103.629 114.999C102.807 115.163 101.986 115.361 101.197 115.558L101.098 116.872L103.465 117.037Z" fill="white"/>
<path d="M106.062 114.537C105.93 114.537 105.832 114.57 105.7 114.57C105.405 114.636 105.109 114.669 104.78 114.734L106.029 114.833L106.062 114.537Z" fill="#71495A"/>
<path d="M108.233 115.032C107.608 114.67 106.852 114.473 106.063 114.539L106.031 114.868L108.233 115.032Z" fill="#D8BFB4"/>
<path d="M105.832 117.233L106.029 114.866L104.78 114.768C104.386 114.833 103.992 114.932 103.63 114.998L103.466 117.035L105.832 117.233Z" fill="#D8BFB4"/>
<path d="M105.833 117.233L108.199 117.43L108.397 115.163C108.331 115.13 108.265 115.064 108.199 115.031L106.03 114.834L105.833 117.233Z" fill="white"/>
<path d="M109.974 117.593C109.809 116.574 109.218 115.72 108.396 115.161L108.199 117.429L109.974 117.593Z" fill="#D8BFB4"/>
<path d="M51.1428 112.565L49.4338 112.434C49.4338 112.466 49.4009 112.466 49.4009 112.499C49.1708 113.157 48.9408 113.913 48.7107 114.767L50.9128 114.964L51.1428 112.565Z" fill="#D8BFB4"/>
<path d="M48.4818 115.753C48.3832 116.18 48.2846 116.64 48.186 117.1H48.3832L48.4818 115.753Z" fill="#D8BFB4"/>
<path d="M50.7503 117.298L50.9476 114.932L48.7455 114.734C48.6469 115.063 48.5811 115.392 48.4825 115.72L48.3511 117.101L50.7503 117.298Z" fill="white"/>
<path d="M51.1672 112.55L50.9631 114.94L53.3538 115.145L53.5579 112.754L51.1672 112.55Z" fill="#71495A"/>
<path d="M53.5373 112.763L53.3333 115.153L55.7239 115.357L55.928 112.967L53.5373 112.763Z" fill="#D8BFB4"/>
<path d="M50.957 114.921L50.7529 117.312L53.1436 117.516L53.3477 115.125L50.957 114.921Z" fill="#D8BFB4"/>
<path d="M53.3257 115.132L53.1216 117.522L55.5122 117.727L55.7163 115.336L53.3257 115.132Z" fill="white"/>
<path d="M55.9119 112.942L55.7078 115.333L58.0984 115.537L58.3025 113.147L55.9119 112.942Z" fill="#71495A"/>
<path d="M58.2825 113.154L58.0784 115.545L60.469 115.749L60.6731 113.358L58.2825 113.154Z" fill="#D8BFB4"/>
<path d="M55.6982 115.312L55.4941 117.703L57.8848 117.907L58.0889 115.517L55.6982 115.312Z" fill="#D8BFB4"/>
<path d="M58.1023 115.53L57.8982 117.921L60.2888 118.125L60.4929 115.734L58.1023 115.53Z" fill="white"/>
<path d="M60.4788 115.755L62.8452 115.952L63.0095 114.079C62.6151 113.881 62.2536 113.651 61.8263 113.454L60.676 113.355L60.4788 115.755Z" fill="#71495A"/>
<path d="M65.208 116.148L65.2737 115.392C64.5506 114.965 63.7947 114.537 63.0059 114.077L62.8416 115.951L65.208 116.148Z" fill="#D8BFB4"/>
<path d="M60.4717 115.741L60.2676 118.132L62.6582 118.336L62.8623 115.945L60.4717 115.741Z" fill="#D8BFB4"/>
<path d="M62.8474 115.922L62.6433 118.312L65.0339 118.517L65.238 116.126L62.8474 115.922Z" fill="white"/>
<path d="M66.7238 116.282C66.2637 115.986 65.7706 115.69 65.2776 115.395L65.2119 116.15L66.7238 116.282Z" fill="#71495A"/>
<path d="M65.0122 118.515L67.3786 118.713L67.543 116.806C67.28 116.609 66.9842 116.445 66.7213 116.248L65.2094 116.116L65.0122 118.515Z" fill="#D8BFB4"/>
<path d="M69.7796 118.941L69.8125 118.448C69.1223 117.922 68.3664 117.397 67.5447 116.838L67.3804 118.744L69.7796 118.941Z" fill="white"/>
<path d="M70.5679 119.008C70.3378 118.811 70.0749 118.614 69.8119 118.449L69.7791 118.942L70.5679 119.008Z" fill="#D8BFB4"/>
<path d="M88.8409 120.091C88.578 120.222 88.315 120.354 88.085 120.485L88.808 120.551L88.8409 120.091Z" fill="white"/>
<path d="M93.8022 117.857C93.2763 118.055 92.7833 118.252 92.2903 118.482L93.7364 118.613L93.8022 117.857Z" fill="#D8BFB4"/>
<path d="M91.1735 120.749L91.3379 118.876C90.4505 119.27 89.6288 119.665 88.84 120.092L88.8071 120.552L91.1735 120.749Z" fill="#D8BFB4"/>
<path d="M93.5431 120.979L93.7403 118.613L92.2941 118.481C91.9655 118.613 91.6368 118.777 91.3081 118.909L91.1438 120.782L93.5431 120.979Z" fill="white"/>
<path d="M96.1049 118.778L96.2693 116.938C95.4147 117.233 94.5931 117.529 93.8043 117.825L93.7385 118.548L96.1049 118.778Z" fill="#71495A"/>
<path d="M98.504 119.008L98.7012 116.642L97.5837 116.543C97.1236 116.674 96.6963 116.839 96.2691 116.97L96.1047 118.811L98.504 119.008Z" fill="#D8BFB4"/>
<path d="M93.7419 118.569L93.5378 120.96L95.9285 121.164L96.1326 118.773L93.7419 118.569Z" fill="#D8BFB4"/>
<path d="M96.1113 118.782L95.9072 121.173L98.2979 121.377L98.502 118.986L96.1113 118.782Z" fill="white"/>
<path d="M98.6973 116.592L98.4932 118.982L100.884 119.187L101.088 116.796L98.6973 116.592Z" fill="#71495A"/>
<path d="M101.07 116.807L100.866 119.197L103.256 119.401L103.46 117.011L101.07 116.807Z" fill="#D8BFB4"/>
<path d="M98.5195 118.967L98.3154 121.357L100.706 121.562L100.91 119.171L98.5195 118.967Z" fill="#D8BFB4"/>
<path d="M100.89 119.179L100.686 121.569L103.076 121.773L103.28 119.383L100.89 119.179Z" fill="white"/>
<path d="M103.473 117.021L103.269 119.412L105.659 119.616L105.863 117.226L103.473 117.021Z" fill="#71495A"/>
<path d="M105.845 117.203L105.641 119.594L108.032 119.798L108.236 117.407L105.845 117.203Z" fill="#D8BFB4"/>
<path d="M103.257 119.395L103.053 121.785L105.444 121.989L105.648 119.599L103.257 119.395Z" fill="#D8BFB4"/>
<path d="M105.635 119.574L105.431 121.965L107.821 122.169L108.025 119.778L105.635 119.574Z" fill="white"/>
<path d="M108.001 119.797L110.269 119.994C110.204 119.107 110.105 118.318 109.973 117.661C109.973 117.628 109.973 117.595 109.973 117.595L108.199 117.431L108.001 119.797Z" fill="#71495A"/>
<path d="M107.805 122.196L110.172 122.393L110.336 120.619C110.336 120.421 110.303 120.191 110.27 119.994L108.003 119.797L107.805 122.196Z" fill="#D8BFB4"/>
<path d="M110.435 122.392C110.402 121.768 110.37 121.176 110.337 120.617L110.172 122.392H110.435Z" fill="white"/>
<path d="M48.3835 117.103H48.1863C48.022 117.826 47.8905 118.614 47.759 119.469L48.1863 119.502L48.3835 117.103Z" fill="#71495A"/>
<path d="M48.3706 117.11L48.1665 119.501L50.5571 119.705L50.7613 117.314L48.3706 117.11Z" fill="#D8BFB4"/>
<path d="M48.1842 119.502L47.7569 119.469C47.6254 120.225 47.5268 121.013 47.4282 121.835L47.987 121.868L48.1842 119.502Z" fill="#D8BFB4"/>
<path d="M48.1885 119.483L47.9844 121.874L50.375 122.078L50.5791 119.687L48.1885 119.483Z" fill="white"/>
<path d="M50.7429 117.29L50.5388 119.681L52.9295 119.885L53.1335 117.494L50.7429 117.29Z" fill="#71495A"/>
<path d="M53.1457 117.505L52.9417 119.896L55.3323 120.1L55.5364 117.709L53.1457 117.505Z" fill="#D8BFB4"/>
<path d="M50.563 119.663L50.3589 122.054L52.7495 122.258L52.9536 119.867L50.563 119.663Z" fill="#D8BFB4"/>
<path d="M52.9336 119.877L52.7295 122.268L55.1201 122.472L55.3242 120.081L52.9336 119.877Z" fill="white"/>
<path d="M55.5183 117.72L55.3142 120.11L57.7048 120.314L57.9089 117.924L55.5183 117.72Z" fill="#71495A"/>
<path d="M57.8889 117.899L57.6848 120.29L60.0754 120.494L60.2795 118.103L57.8889 117.899Z" fill="#D8BFB4"/>
<path d="M55.3025 120.09L55.0984 122.48L57.489 122.685L57.6931 120.294L55.3025 120.09Z" fill="#D8BFB4"/>
<path d="M57.6772 120.27L57.4731 122.661L59.8638 122.865L60.0679 120.475L57.6772 120.27Z" fill="white"/>
<path d="M60.2615 118.114L60.0574 120.505L62.448 120.709L62.6521 118.318L60.2615 118.114Z" fill="#71495A"/>
<path d="M62.6301 118.327L62.426 120.718L64.8167 120.922L65.0208 118.531L62.6301 118.327Z" fill="#D8BFB4"/>
<path d="M60.0474 120.483L59.8433 122.874L62.2339 123.078L62.438 120.688L60.0474 120.483Z" fill="#D8BFB4"/>
<path d="M62.4514 120.699L62.2473 123.09L64.6379 123.294L64.842 120.903L62.4514 120.699Z" fill="white"/>
<path d="M65.0027 118.507L64.7986 120.897L67.1892 121.102L67.3933 118.711L65.0027 118.507Z" fill="#71495A"/>
<path d="M67.4067 118.724L67.2026 121.114L69.5933 121.318L69.7974 118.928L67.4067 118.724Z" fill="#D8BFB4"/>
<path d="M64.8225 120.882L64.6184 123.272L67.009 123.477L67.2132 121.086L64.8225 120.882Z" fill="#D8BFB4"/>
<path d="M67.1934 121.094L66.9893 123.484L69.3799 123.688L69.584 121.298L67.1934 121.094Z" fill="white"/>
<path d="M69.5815 121.308L71.9479 121.505L72.0465 120.223C71.5864 119.829 71.0934 119.402 70.5347 119.007L69.7459 118.941L69.5815 121.308Z" fill="#71495A"/>
<path d="M73.6568 121.67C73.1638 121.21 72.638 120.75 72.0464 120.224L71.9478 121.505L73.6568 121.67Z" fill="#D8BFB4"/>
<path d="M69.5654 121.307L69.3613 123.697L71.752 123.901L71.9561 121.511L69.5654 121.307Z" fill="#D8BFB4"/>
<path d="M71.7502 123.904L74.1167 124.101L74.281 122.26C74.0838 122.063 73.8866 121.866 73.6565 121.669L71.9474 121.537L71.7502 123.904Z" fill="white"/>
<path d="M76.1888 124.267C75.6958 123.708 75.0713 123.018 74.2825 122.262L74.1182 124.102L76.1888 124.267Z" fill="#D8BFB4"/>
<path d="M83.7789 123.116C82.8915 123.741 82.1684 124.299 81.6426 124.727L83.6475 124.891L83.7789 123.116Z" fill="white"/>
<path d="M86.308 121.473C85.6835 121.867 85.0919 122.229 84.5332 122.59L86.1765 122.722L86.308 121.473Z" fill="#71495A"/>
<path d="M88.5788 122.953L88.776 120.586L88.0529 120.521C87.4285 120.849 86.8369 121.178 86.311 121.507L86.2124 122.755L88.5788 122.953Z" fill="#D8BFB4"/>
<path d="M86.0165 125.12L86.2137 122.754L84.5704 122.622C84.3075 122.786 84.0445 122.984 83.8145 123.148L83.6501 124.956L86.0165 125.12Z" fill="#D8BFB4"/>
<path d="M86.1997 122.705L85.9956 125.096L88.3862 125.3L88.5903 122.909L86.1997 122.705Z" fill="white"/>
<path d="M88.7859 120.548L88.5818 122.938L90.9724 123.143L91.1765 120.752L88.7859 120.548Z" fill="#71495A"/>
<path d="M91.156 120.761L90.9519 123.151L93.3425 123.355L93.5466 120.965L91.156 120.761Z" fill="#D8BFB4"/>
<path d="M88.604 122.921L88.3999 125.312L90.7905 125.516L90.9946 123.125L88.604 122.921Z" fill="#D8BFB4"/>
<path d="M90.9741 123.135L90.77 125.525L93.1607 125.729L93.3647 123.339L90.9741 123.135Z" fill="white"/>
<path d="M93.5593 120.945L93.3552 123.336L95.7459 123.54L95.95 121.149L93.5593 120.945Z" fill="#71495A"/>
<path d="M95.9312 121.157L95.7271 123.548L98.1177 123.752L98.3218 121.361L95.9312 121.157Z" fill="#D8BFB4"/>
<path d="M93.3484 123.314L93.1443 125.705L95.5349 125.909L95.739 123.519L93.3484 123.314Z" fill="#D8BFB4"/>
<path d="M95.7178 123.527L95.5137 125.918L97.9043 126.122L98.1084 123.731L95.7178 123.527Z" fill="white"/>
<path d="M98.3037 121.37L98.0996 123.761L100.49 123.965L100.694 121.574L98.3037 121.37Z" fill="#71495A"/>
<path d="M100.674 121.552L100.47 123.942L102.861 124.146L103.065 121.756L100.674 121.552Z" fill="#D8BFB4"/>
<path d="M98.0903 123.741L97.8862 126.132L100.277 126.336L100.481 123.945L98.0903 123.741Z" fill="#D8BFB4"/>
<path d="M100.463 123.922L100.259 126.312L102.649 126.517L102.853 124.126L100.463 123.922Z" fill="white"/>
<path d="M103.046 121.764L102.842 124.154L105.233 124.358L105.437 121.968L103.046 121.764Z" fill="#71495A"/>
<path d="M105.416 121.977L105.212 124.367L107.602 124.571L107.806 122.181L105.416 121.977Z" fill="#D8BFB4"/>
<path d="M102.864 124.137L102.66 126.527L105.051 126.731L105.255 124.341L102.864 124.137Z" fill="#D8BFB4"/>
<path d="M105.236 124.351L105.031 126.741L107.422 126.945L107.626 124.555L105.236 124.351Z" fill="white"/>
<path d="M107.822 122.161L107.618 124.552L110.008 124.756L110.212 122.365L107.822 122.161Z" fill="#71495A"/>
<path d="M109.976 124.759L110.469 124.792C110.469 123.937 110.469 123.148 110.436 122.392L110.174 122.359L109.976 124.759Z" fill="#D8BFB4"/>
<path d="M107.61 124.531L107.406 126.922L109.797 127.126L110.001 124.735L107.61 124.531Z" fill="#D8BFB4"/>
<path d="M109.777 127.126L110.368 127.192C110.401 126.37 110.434 125.549 110.434 124.793L109.941 124.76L109.777 127.126Z" fill="white"/>
<path d="M47.9521 121.867L47.3934 121.834C47.2948 122.59 47.2291 123.379 47.1633 124.2L47.7221 124.233L47.9521 121.867Z" fill="#71495A"/>
<path d="M47.9751 121.853L47.771 124.243L50.1616 124.447L50.3657 122.057L47.9751 121.853Z" fill="#D8BFB4"/>
<path d="M47.7589 124.233L47.2001 124.2C47.2001 124.332 47.1673 124.43 47.1673 124.562C47.1015 125.252 47.0358 125.942 47.0029 126.599L47.5617 126.632L47.7589 124.233Z" fill="#D8BFB4"/>
<path d="M47.761 124.224L47.5569 126.614L49.9475 126.818L50.1516 124.428L47.761 124.224Z" fill="white"/>
<path d="M50.3452 122.068L50.1411 124.459L52.5317 124.663L52.7358 122.272L50.3452 122.068Z" fill="#71495A"/>
<path d="M52.7195 122.248L52.5154 124.639L54.906 124.843L55.1101 122.452L52.7195 122.248Z" fill="#D8BFB4"/>
<path d="M50.1318 124.438L49.9277 126.829L52.3184 127.033L52.5225 124.643L50.1318 124.438Z" fill="#D8BFB4"/>
<path d="M52.5376 124.62L52.3335 127.011L54.7241 127.215L54.9282 124.824L52.5376 124.62Z" fill="white"/>
<path d="M55.0889 122.461L54.8848 124.852L57.2754 125.056L57.4795 122.665L55.0889 122.461Z" fill="#71495A"/>
<path d="M57.4929 122.675L57.2888 125.065L59.6795 125.27L59.8836 122.879L57.4929 122.675Z" fill="#D8BFB4"/>
<path d="M54.9089 124.833L54.7048 127.224L57.0955 127.428L57.2996 125.037L54.9089 124.833Z" fill="#D8BFB4"/>
<path d="M57.2795 125.048L57.0754 127.438L59.4661 127.643L59.6702 125.252L57.2795 125.048Z" fill="white"/>
<path d="M59.8674 122.857L59.6633 125.248L62.054 125.452L62.2581 123.062L59.8674 122.857Z" fill="#71495A"/>
<path d="M62.238 123.07L62.0339 125.461L64.4246 125.665L64.6287 123.274L62.238 123.07Z" fill="#D8BFB4"/>
<path d="M59.6518 125.228L59.4478 127.618L61.8384 127.822L62.0425 125.432L59.6518 125.228Z" fill="#D8BFB4"/>
<path d="M62.0239 125.439L61.8198 127.83L64.2105 128.034L64.4145 125.644L62.0239 125.439Z" fill="white"/>
<path d="M64.6069 123.284L64.4028 125.675L66.7935 125.879L66.9976 123.488L64.6069 123.284Z" fill="#71495A"/>
<path d="M66.9817 123.465L66.7776 125.855L69.1682 126.06L69.3724 123.669L66.9817 123.465Z" fill="#D8BFB4"/>
<path d="M64.3933 125.655L64.1892 128.046L66.5798 128.25L66.7839 125.859L64.3933 125.655Z" fill="#D8BFB4"/>
<path d="M66.7998 125.837L66.5957 128.228L68.9863 128.432L69.1904 126.041L66.7998 125.837Z" fill="white"/>
<path d="M69.3518 123.677L69.1477 126.067L71.5383 126.271L71.7424 123.881L69.3518 123.677Z" fill="#71495A"/>
<path d="M71.7559 123.894L71.5518 126.284L73.9424 126.488L74.1465 124.098L71.7559 123.894Z" fill="#D8BFB4"/>
<path d="M69.1716 126.052L68.9675 128.442L71.3582 128.646L71.5623 126.256L69.1716 126.052Z" fill="#D8BFB4"/>
<path d="M71.5425 126.265L71.3384 128.655L73.729 128.859L73.9331 126.469L71.5425 126.265Z" fill="white"/>
<path d="M73.9211 126.469L76.0246 126.633L76.1561 125.023C76.1889 124.826 76.2547 124.661 76.419 124.53C76.3533 124.431 76.2875 124.365 76.1889 124.267L74.1183 124.103L73.9211 126.469Z" fill="#71495A"/>
<path d="M73.9199 126.469L73.7227 128.835L75.7933 129.032L75.9576 127.06L75.9905 126.666L73.9199 126.469Z" fill="#D8BFB4"/>
<path d="M81.6759 125.516L81.5444 127.126L83.4178 127.291L83.615 124.924L81.6101 124.76C81.5444 124.825 81.4787 124.858 81.4458 124.924C81.6101 125.056 81.7087 125.253 81.6759 125.516Z" fill="#D8BFB4"/>
<path d="M81.5446 127.126L81.5117 127.52L81.3474 129.492L83.2208 129.657L83.418 127.29L81.5446 127.126Z" fill="white"/>
<path d="M83.6128 124.895L83.4087 127.286L85.7993 127.49L86.0034 125.1L83.6128 124.895Z" fill="#71495A"/>
<path d="M86.0156 125.11L85.8115 127.501L88.2022 127.705L88.4063 125.314L86.0156 125.11Z" fill="#D8BFB4"/>
<path d="M83.4329 127.268L83.2288 129.658L85.6194 129.862L85.8235 127.472L83.4329 127.268Z" fill="#D8BFB4"/>
<path d="M85.802 127.48L85.5979 129.871L87.9885 130.075L88.1926 127.685L85.802 127.48Z" fill="white"/>
<path d="M88.3899 125.29L88.1858 127.681L90.5764 127.885L90.7805 125.494L88.3899 125.29Z" fill="#71495A"/>
<path d="M90.7605 125.505L90.5564 127.896L92.947 128.1L93.1511 125.709L90.7605 125.505Z" fill="#D8BFB4"/>
<path d="M88.1741 127.661L87.97 130.052L90.3606 130.256L90.5647 127.865L88.1741 127.661Z" fill="#D8BFB4"/>
<path d="M90.5466 127.875L90.3425 130.266L92.7332 130.47L92.9373 128.079L90.5466 127.875Z" fill="white"/>
<path d="M93.1294 125.718L92.9253 128.108L95.3159 128.312L95.52 125.922L93.1294 125.718Z" fill="#71495A"/>
<path d="M95.5051 125.897L95.301 128.288L97.6917 128.492L97.8958 126.102L95.5051 125.897Z" fill="#D8BFB4"/>
<path d="M92.9507 128.09L92.7466 130.48L95.1372 130.685L95.3413 128.294L92.9507 128.09Z" fill="#D8BFB4"/>
<path d="M95.3254 128.272L95.1213 130.663L97.512 130.867L97.7161 128.477L95.3254 128.272Z" fill="white"/>
<path d="M97.9085 126.114L97.7043 128.505L100.095 128.709L100.299 126.318L97.9085 126.114Z" fill="#71495A"/>
<path d="M100.279 126.327L100.074 128.718L102.465 128.922L102.669 126.531L100.279 126.327Z" fill="#D8BFB4"/>
<path d="M97.6943 128.484L97.4902 130.875L99.8809 131.079L100.085 128.688L97.6943 128.484Z" fill="#D8BFB4"/>
<path d="M100.065 128.697L99.8608 131.088L102.251 131.292L102.456 128.901L100.065 128.697Z" fill="white"/>
<path d="M102.655 126.507L102.451 128.897L104.842 129.102L105.046 126.711L102.655 126.507Z" fill="#71495A"/>
<path d="M105.025 126.722L104.821 129.112L107.212 129.316L107.416 126.926L105.025 126.722Z" fill="#D8BFB4"/>
<path d="M102.439 128.88L102.235 131.271L104.626 131.475L104.83 129.084L102.439 128.88Z" fill="#D8BFB4"/>
<path d="M104.81 129.093L104.605 131.483L106.996 131.687L107.2 129.297L104.81 129.093Z" fill="white"/>
<path d="M107.395 126.935L107.19 129.325L109.581 129.529L109.785 127.139L107.395 126.935Z" fill="#71495A"/>
<path d="M109.581 129.525L110.205 129.59C110.271 128.769 110.336 127.98 110.369 127.224L109.778 127.158L109.581 129.525Z" fill="#D8BFB4"/>
<path d="M107.215 129.307L107.01 131.697L109.401 131.901L109.605 129.511L107.215 129.307Z" fill="#D8BFB4"/>
<path d="M109.383 131.89L110.008 131.956C110.073 131.299 110.139 130.642 110.205 129.918C110.205 129.787 110.238 129.688 110.238 129.557L109.613 129.491L109.383 131.89Z" fill="white"/>
<path d="M47.5597 126.631L47.0009 126.599C46.9352 127.42 46.9023 128.209 46.9023 128.998L47.3625 129.031L47.5597 126.631Z" fill="#71495A"/>
<path d="M47.5791 126.598L47.375 128.988L49.7656 129.192L49.9697 126.802L47.5791 126.598Z" fill="#D8BFB4"/>
<path d="M47.3632 128.998L46.9031 128.965C46.8702 129.819 46.8702 130.608 46.9031 131.364L47.166 131.397L47.3632 128.998Z" fill="#D8BFB4"/>
<path d="M47.3674 128.969L47.1633 131.359L49.554 131.563L49.7581 129.173L47.3674 128.969Z" fill="white"/>
<path d="M49.9517 126.811L49.7476 129.201L52.1382 129.405L52.3423 127.015L49.9517 126.811Z" fill="#71495A"/>
<path d="M52.3242 127.023L52.1201 129.414L54.5108 129.618L54.7149 127.228L52.3242 127.023Z" fill="#D8BFB4"/>
<path d="M49.74 129.182L49.5359 131.572L51.9265 131.776L52.1306 129.386L49.74 129.182Z" fill="#D8BFB4"/>
<path d="M52.1101 129.395L51.906 131.786L54.2966 131.99L54.5008 129.6L52.1101 129.395Z" fill="white"/>
<path d="M54.6968 127.205L54.4927 129.596L56.8833 129.8L57.0874 127.409L54.6968 127.205Z" fill="#71495A"/>
<path d="M57.0654 127.418L56.8613 129.809L59.252 130.013L59.4561 127.622L57.0654 127.418Z" fill="#D8BFB4"/>
<path d="M54.4827 129.575L54.2786 131.966L56.6692 132.17L56.8733 129.779L54.4827 129.575Z" fill="#D8BFB4"/>
<path d="M56.886 129.792L56.6819 132.183L59.0725 132.387L59.2766 129.996L56.886 129.792Z" fill="white"/>
<path d="M59.4363 127.633L59.2322 130.023L61.6228 130.228L61.8269 127.837L59.4363 127.633Z" fill="#71495A"/>
<path d="M61.8445 127.814L61.6404 130.205L64.031 130.409L64.2351 128.019L61.8445 127.814Z" fill="#D8BFB4"/>
<path d="M59.2561 130.005L59.052 132.396L61.4426 132.6L61.6468 130.209L59.2561 130.005Z" fill="#D8BFB4"/>
<path d="M61.6287 130.185L61.4246 132.575L63.8152 132.779L64.0193 130.389L61.6287 130.185Z" fill="white"/>
<path d="M64.2131 128.027L64.009 130.418L66.3997 130.622L66.6038 128.231L64.2131 128.027Z" fill="#71495A"/>
<path d="M66.584 128.242L66.3799 130.633L68.7705 130.837L68.9746 128.446L66.584 128.242Z" fill="#D8BFB4"/>
<path d="M63.9973 130.4L63.7932 132.791L66.1838 132.995L66.3879 130.604L63.9973 130.4Z" fill="#D8BFB4"/>
<path d="M66.3699 130.612L66.1658 133.003L68.5564 133.207L68.7605 130.816L66.3699 130.612Z" fill="white"/>
<path d="M68.9563 128.422L68.7522 130.812L71.1428 131.017L71.3469 128.626L68.9563 128.422Z" fill="#71495A"/>
<path d="M71.3284 128.637L71.1243 131.027L73.5149 131.231L73.719 128.841L71.3284 128.637Z" fill="#D8BFB4"/>
<path d="M68.7595 130.806L68.5623 133.172L70.4028 133.336C70.6 133.238 70.7972 133.106 70.9944 133.008L71.1587 131.003L68.7595 130.806Z" fill="#D8BFB4"/>
<path d="M71.125 131.038L70.9607 133.043C71.9138 132.484 72.7684 131.925 73.4914 131.432V131.268L71.125 131.038Z" fill="white"/>
<path d="M75.7924 129.064L73.6889 128.867L73.4917 131.234L73.6889 131.266C74.6092 130.609 75.3651 130.018 75.9238 129.557C75.8252 129.393 75.7924 129.229 75.7924 129.064Z" fill="#71495A"/>
<path d="M73.4917 131.397C73.5574 131.364 73.6232 131.298 73.7218 131.265L73.5246 131.232L73.4917 131.397Z" fill="#D8BFB4"/>
<path d="M83.2193 129.656L81.3459 129.491V129.524C81.313 129.754 81.2144 129.918 81.05 130.05C81.5102 130.576 82.1018 131.233 82.8577 132.022H82.9892L83.2193 129.656Z" fill="#D8BFB4"/>
<path d="M82.8923 132.022C82.9252 132.055 82.9909 132.121 83.0238 132.154V132.055L82.8923 132.022Z" fill="white"/>
<path d="M83.2192 129.639L83.0151 132.029L85.4058 132.233L85.6099 129.843L83.2192 129.639Z" fill="#71495A"/>
<path d="M85.5913 129.852L85.3872 132.242L87.7778 132.446L87.9819 130.056L85.5913 129.852Z" fill="#D8BFB4"/>
<path d="M83.0249 132.055V132.153C83.6494 132.778 84.4053 133.468 85.2598 134.191L85.4242 132.252L83.0249 132.055Z" fill="#D8BFB4"/>
<path d="M87.7568 132.45L85.3904 132.253L85.2261 134.192C85.4233 134.356 85.5876 134.521 85.7848 134.685L87.5596 134.849L87.7568 132.45Z" fill="white"/>
<path d="M87.9607 130.065L87.7566 132.456L90.1472 132.66L90.3513 130.27L87.9607 130.065Z" fill="#71495A"/>
<path d="M90.3669 130.248L90.1628 132.639L92.5535 132.843L92.7576 130.452L90.3669 130.248Z" fill="#D8BFB4"/>
<path d="M87.7805 132.438L87.5764 134.829L89.9671 135.033L90.1712 132.643L87.7805 132.438Z" fill="#D8BFB4"/>
<path d="M90.1531 132.618L89.949 135.009L92.3396 135.213L92.5437 132.822L90.1531 132.618Z" fill="white"/>
<path d="M92.7373 130.462L92.5332 132.853L94.9238 133.057L95.1279 130.666L92.7373 130.462Z" fill="#71495A"/>
<path d="M95.1096 130.675L94.9055 133.065L97.2962 133.27L97.5003 130.879L95.1096 130.675Z" fill="#D8BFB4"/>
<path d="M92.5257 132.833L92.3215 135.224L94.7122 135.428L94.9163 133.037L92.5257 132.833Z" fill="#D8BFB4"/>
<path d="M94.8979 133.046L94.6938 135.437L97.0845 135.641L97.2886 133.25L94.8979 133.046Z" fill="white"/>
<path d="M97.481 130.855L97.2769 133.246L99.6675 133.45L99.8716 131.06L97.481 130.855Z" fill="#71495A"/>
<path d="M99.8511 131.07L99.647 133.461L102.038 133.665L102.242 131.274L99.8511 131.07Z" fill="#D8BFB4"/>
<path d="M97.3008 133.229L97.0967 135.62L99.4873 135.824L99.6914 133.434L97.3008 133.229Z" fill="#D8BFB4"/>
<path d="M99.6709 133.442L99.4668 135.833L101.857 136.037L102.062 133.646L99.6709 133.442Z" fill="white"/>
<path d="M102.255 131.284L102.051 133.675L104.442 133.879L104.646 131.488L102.255 131.284Z" fill="#71495A"/>
<path d="M104.63 131.465L104.426 133.855L106.816 134.06L107.021 131.669L104.63 131.465Z" fill="#D8BFB4"/>
<path d="M102.043 133.655L101.839 136.046L104.23 136.25L104.434 133.859L102.043 133.655Z" fill="#D8BFB4"/>
<path d="M104.416 133.837L104.212 136.228L106.603 136.432L106.807 134.041L104.416 133.837Z" fill="white"/>
<path d="M106.999 131.68L106.795 134.07L109.185 134.274L109.389 131.884L106.999 131.68Z" fill="#71495A"/>
<path d="M109.153 134.257L109.679 134.29C109.778 133.534 109.876 132.745 109.975 131.923L109.35 131.857L109.153 134.257Z" fill="#D8BFB4"/>
<path d="M106.789 134.049L106.584 136.439L108.975 136.644L109.179 134.253L106.789 134.049Z" fill="#D8BFB4"/>
<path d="M108.957 136.657L109.285 136.69C109.417 135.967 109.548 135.178 109.68 134.324L109.154 134.291L108.957 136.657Z" fill="white"/>
<path d="M46.9023 131.365C46.9023 132.121 46.9352 132.811 47.0009 133.469L47.1653 131.398L46.9023 131.365Z" fill="#71495A"/>
<path d="M49.5309 131.562L47.1645 131.365L46.9673 133.436C46.9673 133.534 46.9673 133.633 47.0002 133.765L49.3337 133.962L49.5309 131.562Z" fill="#D8BFB4"/>
<path d="M49.3365 133.961L47.0029 133.764C47.0687 134.651 47.1673 135.473 47.2659 136.196L49.1393 136.36L49.3365 133.961Z" fill="white"/>
<path d="M49.5242 131.554L49.3201 133.944L51.7107 134.148L51.9148 131.758L49.5242 131.554Z" fill="#71495A"/>
<path d="M51.9282 131.769L51.7241 134.159L54.1148 134.363L54.3189 131.973L51.9282 131.769Z" fill="#D8BFB4"/>
<path d="M49.3445 133.926L49.1404 136.316L51.531 136.521L51.7351 134.13L49.3445 133.926Z" fill="#D8BFB4"/>
<path d="M51.7148 134.138L51.5107 136.528L53.9014 136.732L54.1055 134.342L51.7148 134.138Z" fill="white"/>
<path d="M54.2993 131.982L54.0952 134.373L56.4859 134.577L56.69 132.187L54.2993 131.982Z" fill="#71495A"/>
<path d="M56.6719 132.163L56.4678 134.554L58.8584 134.758L59.0625 132.367L56.6719 132.163Z" fill="#D8BFB4"/>
<path d="M54.084 134.351L53.8799 136.741L56.2705 136.945L56.4746 134.555L54.084 134.351Z" fill="#D8BFB4"/>
<path d="M56.4585 134.533L56.2544 136.924L58.645 137.128L58.8491 134.737L56.4585 134.533Z" fill="white"/>
<path d="M59.0425 132.376L58.8384 134.767L61.229 134.971L61.4331 132.58L59.0425 132.376Z" fill="#71495A"/>
<path d="M61.4129 132.587L61.2087 134.978L63.5994 135.182L63.8035 132.791L61.4129 132.587Z" fill="#D8BFB4"/>
<path d="M58.8308 134.745L58.6267 137.136L61.0174 137.34L61.2214 134.949L58.8308 134.745Z" fill="#D8BFB4"/>
<path d="M61.1987 134.98L61.0015 137.347L61.4287 137.38C62.1189 137.15 62.8091 136.887 63.4665 136.624L63.5979 135.145L61.1987 134.98Z" fill="white"/>
<path d="M63.7871 132.768L63.583 135.158L65.9736 135.362L66.1778 132.972L63.7871 132.768Z" fill="#71495A"/>
<path d="M66.1613 133.01L65.9641 135.376L66.3585 135.409C67.0816 135.08 67.7718 134.752 68.4291 134.39L68.5277 133.174L66.1613 133.01Z" fill="#D8BFB4"/>
<path d="M63.6 135.178L63.4685 136.657C64.3559 136.328 65.1776 135.967 65.9664 135.605L65.9992 135.375L63.6 135.178Z" fill="#D8BFB4"/>
<path d="M65.9641 135.606C66.0956 135.54 66.2599 135.475 66.3914 135.409L65.997 135.376L65.9641 135.606Z" fill="white"/>
<path d="M68.4312 134.391C69.1214 134.029 69.7458 133.701 70.3703 133.339L68.5298 133.175L68.4312 134.391Z" fill="#71495A"/>
<path d="M85.8169 134.686C86.3428 135.113 86.9015 135.54 87.4931 136L87.5917 134.85L85.8169 134.686Z" fill="#D8BFB4"/>
<path d="M89.9582 135.013L87.5918 134.815L87.4932 135.966C88.0848 136.426 88.7421 136.886 89.4323 137.346L89.7938 137.379L89.9582 135.013Z" fill="#71495A"/>
<path d="M89.9394 135.023L89.7354 137.414L92.126 137.618L92.3301 135.228L89.9394 135.023Z" fill="#D8BFB4"/>
<path d="M89.4004 137.382C89.499 137.448 89.6305 137.546 89.7291 137.612L89.7619 137.415L89.4004 137.382Z" fill="#D8BFB4"/>
<path d="M89.7304 137.414L89.6975 137.611C90.4206 138.104 91.1765 138.564 91.9653 139.057L92.0968 137.611L89.7304 137.414Z" fill="white"/>
<path d="M92.3437 135.205L92.1396 137.596L94.5303 137.8L94.7344 135.409L92.3437 135.205Z" fill="#71495A"/>
<path d="M94.7161 135.42L94.512 137.811L96.9026 138.015L97.1067 135.624L94.7161 135.42Z" fill="#D8BFB4"/>
<path d="M94.493 137.808L92.1266 137.61L91.9951 139.056C92.6196 139.418 93.2441 139.812 93.9343 140.174L94.2958 140.207L94.493 137.808Z" fill="#D8BFB4"/>
<path d="M94.5022 137.791L94.2981 140.182L96.6887 140.386L96.8928 137.995L94.5022 137.791Z" fill="white"/>
<path d="M97.0881 135.633L96.884 138.023L99.2747 138.228L99.4788 135.837L97.0881 135.633Z" fill="#71495A"/>
<path d="M99.4575 135.812L99.2534 138.203L101.644 138.407L101.848 136.017L99.4575 135.812Z" fill="#D8BFB4"/>
<path d="M96.8728 138.003L96.6687 140.394L99.0593 140.598L99.2634 138.207L96.8728 138.003Z" fill="#D8BFB4"/>
<path d="M99.2471 138.183L99.043 140.573L101.434 140.777L101.638 138.387L99.2471 138.183Z" fill="white"/>
<path d="M101.83 136.024L101.626 138.415L104.017 138.619L104.221 136.229L101.83 136.024Z" fill="#71495A"/>
<path d="M104.2 136.24L103.996 138.631L106.387 138.835L106.591 136.444L104.2 136.24Z" fill="#D8BFB4"/>
<path d="M101.65 138.4L101.446 140.791L103.836 140.995L104.041 138.604L101.65 138.4Z" fill="#D8BFB4"/>
<path d="M104.02 138.612L103.816 141.003L106.207 141.207L106.411 138.816L104.02 138.612Z" fill="white"/>
<path d="M106.606 136.422L106.402 138.812L108.793 139.017L108.997 136.626L106.606 136.422Z" fill="#71495A"/>
<path d="M108.759 139.024C108.956 138.301 109.121 137.512 109.285 136.69L108.956 136.657L108.759 139.024Z" fill="#D8BFB4"/>
<path d="M106.393 138.828L106.195 141.195L108.134 141.359C108.332 140.702 108.562 139.946 108.759 139.091V138.992L106.393 138.828Z" fill="#D8BFB4"/>
<path d="M108.759 139.123C108.759 139.09 108.759 139.056 108.793 139.022L108.759 139.123Z" fill="white"/>
<path d="M49.1376 136.329L47.2642 136.165C47.297 136.395 47.3299 136.592 47.3628 136.79C47.4614 137.513 47.79 138.137 48.2173 138.63L48.9404 138.696L49.1376 136.329Z" fill="#D8BFB4"/>
<path d="M48.186 138.628C48.3832 138.858 48.6133 139.088 48.8762 139.252L48.9091 138.694L48.186 138.628Z" fill="white"/>
<path d="M49.1289 136.329L48.9248 138.72L51.3154 138.924L51.5195 136.533L49.1289 136.329Z" fill="#71495A"/>
<path d="M51.5012 136.509L51.2971 138.899L53.6878 139.104L53.8918 136.713L51.5012 136.509Z" fill="#D8BFB4"/>
<path d="M48.9076 138.695L48.8748 139.254C49.5321 139.714 50.3538 139.977 51.2083 139.911L51.3069 138.893L48.9076 138.695Z" fill="#D8BFB4"/>
<path d="M51.3064 138.925L51.2078 139.944C51.3392 139.944 51.5036 139.911 51.635 139.911C52.3252 139.779 52.9826 139.648 53.6399 139.516L53.6728 139.122L51.3064 138.925Z" fill="white"/>
<path d="M53.871 136.724L53.6738 139.09L54.9556 139.189C55.35 139.09 55.7116 139.024 56.0731 138.926L56.2374 136.921L53.871 136.724Z" fill="#71495A"/>
<path d="M56.2703 136.954L56.106 138.959C56.9605 138.762 57.7822 138.532 58.571 138.302L58.6696 137.151L56.2703 136.954Z" fill="#D8BFB4"/>
<path d="M53.6404 139.517C54.1005 139.419 54.5278 139.32 54.9551 139.222L53.6732 139.123L53.6404 139.517Z" fill="#D8BFB4"/>
<path d="M58.6364 137.148L58.5378 138.299C59.3924 138.069 60.214 137.806 61.0028 137.543V137.346L58.6364 137.148Z" fill="#71495A"/>
<path d="M61.0015 137.544C61.1658 137.478 61.2973 137.445 61.4616 137.38L61.0343 137.347L61.0015 137.544Z" fill="#D8BFB4"/>
<path d="M93.936 140.142C94.0675 140.207 94.1661 140.273 94.2976 140.339V140.174L93.936 140.142Z" fill="#71495A"/>
<path d="M94.2981 140.175V140.339C95.0212 140.734 95.81 141.128 96.5988 141.522L96.6974 140.372L94.2981 140.175Z" fill="#D8BFB4"/>
<path d="M96.6611 140.404L96.5625 141.555C97.2856 141.916 98.0744 142.278 98.8632 142.606L99.0275 140.601L96.6611 140.404Z" fill="#71495A"/>
<path d="M101.429 140.799L99.063 140.602L98.8987 142.606C99.2602 142.771 99.6546 142.935 100.016 143.067L101.232 143.165L101.429 140.799Z" fill="#D8BFB4"/>
<path d="M99.981 143.066C100.375 143.231 100.77 143.395 101.164 143.559L101.197 143.198L99.981 143.066Z" fill="white"/>
<path d="M101.436 140.77L101.232 143.16L103.623 143.364L103.827 140.974L101.436 140.77Z" fill="#71495A"/>
<path d="M103.807 140.985L103.603 143.376L105.993 143.58L106.197 141.189L103.807 140.985Z" fill="#D8BFB4"/>
<path d="M101.229 143.165L101.197 143.527C101.854 143.79 102.478 144.02 103.169 144.25C103.3 144.283 103.399 144.315 103.53 144.348L103.629 143.329L101.229 143.165Z" fill="#D8BFB4"/>
<path d="M105.965 143.592L103.598 143.395L103.5 144.413C104.321 144.611 105.176 144.512 105.899 144.183L105.965 143.592Z" fill="white"/>
<path d="M105.965 143.593L106.754 143.658C107.28 143.231 107.674 142.672 107.904 141.982C107.97 141.785 108.036 141.588 108.102 141.358L106.163 141.193L105.965 143.593Z" fill="#71495A"/>
<path d="M105.932 144.183C106.228 144.052 106.523 143.855 106.786 143.658L105.998 143.592L105.932 144.183Z" fill="#D8BFB4"/>
<path d="M78.7495 127.291L81.5103 127.521L81.5432 127.127L81.6747 125.516C81.7075 125.286 81.6089 125.056 81.4446 124.892C81.3131 124.793 81.1817 124.695 80.9845 124.695L78.9796 124.53L78.7495 127.291Z" fill="#71495A"/>
<path d="M81.3461 129.526L81.5104 127.521L78.7496 127.291L78.5195 130.052L80.5244 130.216C80.7216 130.249 80.9188 130.183 81.0503 130.052C81.2146 129.953 81.3132 129.756 81.3461 129.526Z" fill="#D8BFB4"/>
<path d="M76.1551 125.023L76.0236 126.633L75.9907 127.028L78.7515 127.258L78.9816 124.497L76.9767 124.333C76.7467 124.3 76.5495 124.398 76.418 124.53C76.2537 124.661 76.1551 124.826 76.1551 125.023Z" fill="#D8BFB4"/>
<path d="M78.7491 127.291L75.9883 127.061L75.824 129.033V129.065C75.824 129.23 75.8568 129.427 75.9554 129.558C76.0869 129.756 76.2841 129.887 76.5142 129.887L78.519 130.051L78.7491 127.291Z" fill="white"/>
<path d="M200.687 139.153L197.729 142.802L167.721 179.842C166.177 181.749 163.909 182.702 161.674 182.669C159.538 182.636 157.401 181.683 155.889 179.842L141.691 162.291L132.291 150.69L122.924 139.12C120.525 136.162 120.821 132.35 122.76 129.753C124.107 127.946 126.244 126.73 128.84 126.73H136.728V82.9183C136.728 79.1057 139.818 75.9834 143.63 75.9834H179.948C183.629 75.9834 186.653 78.8757 186.85 82.491C186.85 82.6225 186.85 82.754 186.85 82.8854V126.697H194.738C201.18 126.763 204.729 134.158 200.687 139.153Z" fill="#77CF08"/>
<path d="M132.327 150.722L122.96 139.153C120.56 136.195 120.856 132.383 122.795 129.786C125.951 131.397 132.885 136.59 132.327 150.722Z" fill="#609F10"/>
<path d="M130.387 150.692C128.81 161.67 118.095 172.088 98.5724 170.215C57.7519 166.304 39.9709 137.217 39.9709 137.217L44.9667 122.032C44.9667 122.032 48.0562 123.281 53.7093 124.727C63.3721 127.159 80.4957 130.085 102.484 128.08C110.963 127.291 117.504 129 122.138 132.089C125.589 134.423 127.988 137.512 129.336 140.963C130.486 144.053 130.848 147.405 130.387 150.692Z" fill="#AD6946"/>
<path d="M144.947 79.3027C142.449 79.3027 140.411 81.3405 140.411 83.8383V104.216C140.411 105.267 141.824 105.596 142.284 104.676C148.759 91.8907 160.854 82.5237 175.315 79.8943C175.677 79.8286 175.611 79.3356 175.283 79.3356C165.948 79.3356 144.651 79.3027 144.947 79.3027Z" fill="#83DC13"/>
<path d="M194.773 126.763H186.885V127.058C186.885 128.603 188.134 129.885 189.679 129.918L195.135 130.049C198.454 130.148 200.262 133.993 198.191 136.59L195.003 140.6L164.24 178.166C162.958 179.744 160.559 179.777 159.244 178.199L146.361 162.982C145.243 161.569 143.238 161.273 141.759 162.292L141.726 162.325L155.925 179.875C157.404 181.716 159.54 182.669 161.709 182.702C163.944 182.735 166.212 181.815 167.757 179.875L197.731 142.835L200.689 139.186C204.732 134.158 201.182 126.763 194.773 126.763Z" fill="#74BD17"/>
<path d="M184.816 80.6504C184.816 80.6504 168.744 86.8622 169.763 107.141C171.078 133.5 186.887 126.795 186.887 126.795L184.816 80.6504Z" fill="#609F10"/>
<path d="M202.696 104.975C202.598 106.059 202.434 107.111 202.236 108.163C201.349 112.468 199.475 116.314 196.945 119.305C196.353 120.028 195.696 120.685 195.038 121.31C194.315 121.967 193.592 122.558 192.804 123.084C190.371 124.728 187.643 125.747 184.751 126.042C177.159 126.765 171.933 117.53 170.388 108.459C169.895 105.566 169.764 102.707 170.06 100.209C171.342 88.8701 178.244 78.7471 186.033 79.9303C186.066 79.9303 186.099 79.9303 186.132 79.9303C186.493 79.996 186.855 80.0618 187.216 80.1604C194.808 82.1652 203.847 92.2882 202.696 104.975Z" fill="#B6724D"/>
<path d="M195.001 121.276C192.109 123.938 188.559 125.614 184.714 125.976C174.69 126.962 168.839 110.529 170.023 100.143C171.304 88.8037 178.206 78.6807 185.996 79.8639C186.029 79.8639 186.062 79.8639 186.094 79.8968C186.456 79.9625 186.818 80.0282 187.179 80.1268C185.371 81.0471 182.906 83.5778 180.376 90.1841C176.004 101.556 187.343 121.046 196.908 119.271C196.316 119.994 195.659 120.684 195.001 121.276Z" fill="#AD6946"/>
<path d="M195.001 121.275C192.109 123.937 188.559 125.613 184.714 125.975C174.689 126.961 168.839 110.527 170.022 100.141C170.811 93.3051 173.605 86.9289 177.417 83.1821C179.948 80.7171 182.906 79.3696 185.996 79.8626C186.028 79.8626 186.061 79.8626 186.094 79.8954C180.737 79.3367 167.492 91.3988 176.53 111.217C182.972 125.284 190.334 125.35 195.001 121.275Z" fill="#945339"/>
<path d="M98.5716 170.215C68.1369 167.29 50.4875 150.396 43.4869 141.982C41.0876 139.123 39.9373 137.217 39.9373 137.217L44.933 122.032C44.933 122.032 54.4315 151.415 88.4157 158.942C114.906 164.825 126.41 155.03 128.809 145.565C129.203 143.987 129.368 142.442 129.302 140.963C134.462 154.275 123.945 172.647 98.5716 170.215Z" fill="#945339"/>
<path d="M106.951 155.192C78.1598 158.38 57.4537 137.871 52.951 129.852C50.9132 126.236 51.965 125.152 53.674 124.725C63.3369 127.157 80.4604 130.082 102.448 128.077C110.928 127.288 117.468 128.997 122.103 132.087C128.249 139.843 125.685 153.121 106.951 155.192Z" fill="#B6724D"/>
<path d="M98.572 170.212C68.1374 167.287 50.4879 150.394 43.4873 141.98C43.553 141.98 43.553 142.013 43.553 142.013C43.553 142.013 66.1654 166.531 97.6846 168.339C122.861 169.785 129.039 153.91 128.809 145.562C129.204 143.985 129.368 142.44 129.302 140.961C134.462 154.272 123.945 172.645 98.572 170.212Z" fill="#AD6946"/>
<path d="M130.421 150.462C130.421 150.495 130.388 150.495 130.388 150.462C128.35 125.122 106.231 131.301 85.426 131.498C66.3633 131.695 44.967 122.032 44.967 122.032C44.967 122.032 48.0565 123.281 53.7096 124.727C63.3724 127.159 80.496 130.085 102.484 128.08C110.963 127.291 117.504 129 122.138 132.089C125.589 134.423 127.988 137.512 129.336 140.963C130.453 143.987 130.848 147.241 130.421 150.462Z" fill="#D59A77"/>
<path d="M202.694 104.974C202.562 106.058 202.431 107.11 202.234 108.162C202.628 95.8698 198.783 91.0384 193.688 85.8783C188.331 80.4553 179.128 81.8357 174.593 89.4936C170.156 96.9872 170.386 107.899 170.386 108.425C169.893 105.533 169.761 102.673 170.057 100.175C171.339 88.8363 177.781 78.9434 185.669 79.4693C195.036 80.0609 204.403 92.4188 202.694 104.974Z" fill="#D59A77"/>
</svg>
