<svg width="16" height="13" viewBox="0 0 16 13" fill="none" xmlns="http://www.w3.org/2000/svg">
<path d="M7.62979 1.90917L8.01035 2.35573L8.3909 1.90917C9.44008 0.678012 11.2071 0.156168 12.8533 0.737718C14.9499 1.4934 16.0133 3.74736 15.2553 5.78062L15.2542 5.78361C15.1428 6.08844 14.8704 6.51634 14.4501 7.03987C14.0377 7.55341 13.5121 8.12382 12.9318 8.70951C11.7718 9.88034 10.4178 11.0879 9.37341 11.9862L9.37341 11.9861L9.37095 11.9883C8.58799 12.6706 7.40455 12.6706 6.62159 11.9883L6.62056 11.9874C5.57537 11.0816 4.2211 9.87029 3.06075 8.6991C2.48031 8.11324 1.95448 7.54351 1.54199 7.03144C1.12153 6.5095 0.849303 6.0842 0.737951 5.78265C-0.00771516 3.7483 1.05668 1.49332 3.16759 0.737655C4.79918 0.156374 6.58032 0.677673 7.62979 1.90917Z" fill="white" stroke="white"/>
</svg>
