<svg width="60" height="60" viewBox="0 0 60 60" fill="none" xmlns="http://www.w3.org/2000/svg">
<path d="M30 60C46.5685 60 60 46.5685 60 30C60 13.4315 46.5685 0 30 0C13.4315 0 0 13.4315 0 30C0 46.5685 13.4315 60 30 60Z" fill="#F4D12E"/>
<path fill-rule="evenodd" clip-rule="evenodd" d="M30.2426 45.7869C32.2991 45.7869 37.0773 42.8837 40.162 39.9804C44.0329 36.3514 46.9362 31.0288 46.9362 26.674C46.9362 15.424 32.6015 14.2748 30.2426 22.8635C27.8838 14.2748 13.5491 15.424 13.5491 26.674C13.5491 31.0288 16.5128 36.2909 20.3233 39.9804C23.4079 42.8837 28.1862 45.7869 30.2426 45.7869Z" fill="#C20E1A"/>
<path d="M16.754 26.4921C16.633 25.5243 16.8144 24.5566 17.2378 23.6493C17.6612 22.7421 18.266 21.9558 18.9919 21.3509C19.7177 20.7461 20.6249 20.2622 21.5322 20.0808C22.4394 19.8388 23.4677 19.8388 24.3749 20.1413C24.9798 20.3227 25.2822 20.9275 25.1612 21.5324C25.0402 22.0163 24.5564 22.3187 24.0725 22.3187H24.012C23.4072 22.3187 22.8023 22.4396 22.258 22.6211C21.7136 22.863 21.2298 23.105 20.7459 23.5284C19.8386 24.3146 19.2943 25.3429 19.0523 26.4921V26.5525C18.9314 27.2179 18.3265 27.5808 17.6612 27.5203C17.1773 27.4598 16.754 26.9759 16.754 26.4921Z" fill="white"/>
</svg>
