<svg width="149" height="104" viewBox="0 0 149 104" fill="none" xmlns="http://www.w3.org/2000/svg">
<path d="M23.5399 17.5056C15.9526 25.1387 21.5768 33.0633 24.3358 36.1113C25.1052 36.9594 25.6357 37.41 25.6357 37.41L34.4168 28.5577L36.6188 26.1724L43.0123 19.2814C43.0388 19.2549 32.7455 8.33529 23.5399 17.5056ZM15.0507 9.47496C15.0507 9.47496 15.0507 9.50146 15.0507 9.47496C14.918 9.60748 14.7854 9.73999 14.6527 9.87251C13.9099 10.6676 13.2202 11.4627 12.61 12.2579C0.300528 28.1866 14.2283 42.5782 18.3933 46.3152C19.0831 46.9248 19.5075 47.2429 19.5075 47.2429L36.5657 31.1021L36.5922 31.1286L36.884 30.784L37.2555 30.4395L37.2289 30.413L47.1242 19.0958L52.5096 12.8939L52.6688 12.7084C52.6688 12.7084 33.7536 -9.55478 15.0507 9.47496Z" fill="#B6724D"/>
<path d="M34.8161 28.1588L34.4447 28.5564L34.1794 28.8214L25.637 37.4087C25.637 37.4087 23.4882 35.5534 21.7638 32.6645C19.5353 28.9274 18.0762 23.4412 23.0106 18.0079C23.2759 17.7163 23.5412 17.4513 23.78 17.2128C23.9657 17.0537 24.1249 16.8947 24.3106 16.7357C31.6591 10.4013 39.4586 16.0996 42.0585 18.4054C42.6421 18.909 42.9605 19.2536 42.9605 19.2536L34.8161 28.1588Z" fill="#DCBD8A"/>
<path d="M37.2555 30.4384L37.2821 30.4649L36.9107 30.8095L36.6188 31.154L36.5923 31.1275L19.5341 47.2684C19.5341 47.2684 0.141412 32.2142 10.9387 14.6952C11.4428 13.8736 11.9999 13.0785 12.6366 12.2568C11.3367 18.6443 9.2674 28.9012 19.5607 38.4956C19.5607 38.4956 21.4177 35.1031 22.4789 33.5394C24.1502 31.1275 26.0338 28.9542 28.05 26.9399C30.7559 24.2366 33.7272 21.8777 36.6454 19.6779C40.0411 17.1335 43.649 21.0826 47.0978 19.0683L37.2555 30.4384Z" fill="#945339"/>
<path d="M28.0763 26.9653C22.9562 34.3069 19.4279 42.4966 19.4279 42.4966C8.15304 32.0806 8.57751 21.6381 10.9386 14.7206C11.4426 13.899 11.9998 13.1038 12.6364 12.2822C11.3365 18.6696 9.26726 28.9266 19.5605 38.521C19.5605 38.521 21.4176 35.1285 22.4787 33.5648C24.15 31.1529 26.0336 28.9531 28.0763 26.9653Z" fill="#AD6946"/>
<path d="M36.1676 18.8041C27.2539 23.5483 23.4072 29.2201 21.8154 32.6656C19.587 28.9285 18.1279 23.4423 23.0623 18.009C23.3276 17.7174 23.5929 17.4524 23.8316 17.2139C24.0173 17.0548 24.1765 16.8958 24.3622 16.7368C30.4374 14.855 36.1676 18.8041 36.1676 18.8041Z" fill="#ECD09C"/>
<path d="M52.6708 12.7101L52.5116 12.8956L50.9729 13.2401C50.9729 13.2401 46.5956 8.20441 40.4143 5.47452C34.2596 2.77113 25.6907 2.98316 19.6421 7.4358C13.5935 11.8884 7.43875 21.5093 9.53454 30.017C11.4712 37.8092 17.4667 45.1772 18.4218 46.3434C14.2567 42.6063 0.328966 28.2148 12.6384 12.286C13.2486 11.4909 13.9384 10.6958 14.6812 9.90065C14.8138 9.76813 14.9199 9.63561 15.0526 9.5296C15.0526 9.5296 15.0526 9.5296 15.0791 9.50309C33.7556 -9.55314 52.6708 12.7101 52.6708 12.7101Z" fill="#D59A77"/>
<path d="M42.1378 18.4048L40.997 19.5709C33.2771 13.5546 27.4672 14.8798 23.8328 17.2386C31.3405 10.1091 39.4584 16.0459 42.1378 18.4048Z" fill="#C59F6D"/>
<path d="M100.899 17.8242L107.478 24.5561L109.733 26.862L118.78 35.4757C118.78 35.4757 119.31 34.9986 120.053 34.124C122.733 30.9966 128.145 22.9394 120.345 15.5183C110.901 6.61307 100.899 17.8242 100.899 17.8242ZM91.11 11.5428L91.2692 11.7283L96.8403 17.7712L107.001 28.8233L106.974 28.8498L107.346 29.1943L107.638 29.5124L107.664 29.4858L125.173 45.1496C125.173 45.1496 125.571 44.805 126.261 44.169C130.32 40.3259 143.85 25.5368 131.089 9.95255C130.453 9.18394 129.763 8.38882 128.993 7.62021C128.861 7.48769 128.728 7.38168 128.622 7.24916C128.622 7.24916 128.622 7.24916 128.596 7.22265C109.388 -11.2505 91.11 11.5428 91.11 11.5428Z" fill="#B6724D"/>
<path d="M109.388 26.4639L109.759 26.8615L110.024 27.1265L118.779 35.4752C118.779 35.4752 120.875 33.5669 122.52 30.625C124.642 26.8085 125.968 21.2957 120.848 16.0214C120.583 15.7564 120.318 15.4913 120.052 15.2528C119.867 15.0938 119.681 14.9347 119.522 14.8022C112.014 8.65334 104.374 14.5902 101.827 16.9755C101.27 17.5056 100.951 17.8502 100.951 17.8502L109.388 26.4639Z" fill="#DCBD8A"/>
<path d="M107.001 28.8227L106.974 28.8492L107.346 29.1938L107.638 29.5118L107.664 29.4853L125.173 45.1491C125.173 45.1491 144.141 29.5648 132.84 12.3639C132.31 11.5687 131.726 10.7736 131.089 9.97852C132.575 16.3394 134.909 26.5169 124.908 36.4028C124.908 36.4028 122.971 33.0633 121.857 31.5526C120.133 29.1938 118.17 27.047 116.1 25.1122C113.315 22.4883 110.29 20.209 107.293 18.1152C103.844 15.6768 100.342 19.7319 96.8402 17.7971L107.001 28.8227Z" fill="#945339"/>
<path d="M116.1 25.0857C121.433 32.2947 125.173 40.3784 125.173 40.3784C136.156 29.6443 135.44 19.2283 132.867 12.3639C132.336 11.5687 131.753 10.7736 131.116 9.97852C132.601 16.3394 134.936 26.5169 124.935 36.4028C124.935 36.4028 122.998 33.0633 121.884 31.5526C120.133 29.1673 118.17 27.047 116.1 25.0857Z" fill="#AD6946"/>
<path d="M107.77 17.1599C116.817 21.6391 120.823 27.2048 122.521 30.5973C124.643 26.7808 125.969 21.268 120.849 15.9937C120.584 15.7287 120.319 15.4637 120.053 15.2251C119.868 15.0661 119.682 14.9071 119.523 14.7746C113.395 13.0518 107.77 17.1599 107.77 17.1599Z" fill="#ECD09C"/>
<path d="M91.1097 11.543L91.2689 11.7285L92.8341 12.0201C92.8341 12.0201 97.0788 6.85182 103.154 3.96291C109.256 1.07399 117.824 1.07399 123.979 5.34111C130.134 9.60822 136.58 19.0701 134.723 27.6308C132.999 35.4759 127.216 43.003 126.287 44.1957C130.346 40.3526 143.876 25.5635 131.115 9.97927C130.479 9.21066 129.789 8.41555 129.02 7.64694C128.887 7.51442 128.754 7.4084 128.648 7.27588C128.648 7.27588 128.648 7.27588 128.622 7.24938C109.388 -11.2503 91.1097 11.543 91.1097 11.543Z" fill="#D59A77"/>
<path d="M101.801 16.9237L102.968 18.0369C110.502 11.8085 116.365 13.0012 120.053 15.2275C112.359 8.33648 104.401 14.5119 101.801 16.9237Z" fill="#C59F6D"/>
<path d="M129.258 61.8193C129.258 62.0578 129.258 62.3228 129.258 62.5614V62.6144C129.258 62.8529 129.231 63.118 129.231 63.3565C129.231 63.5685 129.205 63.754 129.205 63.9661C129.205 64.0721 129.205 64.1516 129.178 64.2311C129.152 64.4166 129.152 64.6022 129.125 64.8142C129.125 64.8407 129.125 64.8407 129.125 64.8672C129.099 65.1057 129.072 65.3443 129.046 65.5828C129.019 65.7948 128.993 66.0334 128.966 66.2454C128.966 66.2984 128.939 66.3249 128.939 66.3779C128.913 66.59 128.886 66.802 128.833 67.014C128.807 67.226 128.754 67.4381 128.727 67.6236C128.701 67.7031 128.701 67.7826 128.674 67.8621C128.648 68.0477 128.621 68.2067 128.568 68.3922C128.568 68.4187 128.568 68.4187 128.568 68.4452C128.515 68.6572 128.462 68.8958 128.435 69.1078C128.382 69.3198 128.329 69.5584 128.276 69.7704C128.223 69.9824 128.17 70.221 128.091 70.433C128.037 70.645 127.958 70.8571 127.905 71.0691C127.905 71.0956 127.905 71.1221 127.878 71.1221C127.825 71.3076 127.772 71.4932 127.693 71.6787C127.666 71.7317 127.666 71.7847 127.64 71.8377C127.586 71.9967 127.533 72.1823 127.454 72.3413C127.374 72.5533 127.295 72.7653 127.215 72.9774C127.029 73.4279 126.844 73.8785 126.658 74.3291C126.578 74.4881 126.525 74.6471 126.446 74.8061C125.703 76.3964 124.827 77.8806 123.846 79.2853C123.766 79.3913 123.713 79.4973 123.634 79.5768C123.554 79.6828 123.501 79.7888 123.421 79.8684C123.289 80.0539 123.156 80.2129 123.024 80.3984C122.652 80.8755 122.254 81.3526 121.856 81.8296C121.777 81.9357 121.697 82.0152 121.591 82.1212C121.458 82.2537 121.352 82.3862 121.22 82.5187C121.14 82.6247 121.034 82.7308 120.954 82.8103C120.742 83.0488 120.53 83.2873 120.291 83.4994C120.185 83.6054 120.079 83.7114 119.999 83.7909C119.999 83.8174 119.973 83.8174 119.946 83.8439C119.813 83.9764 119.654 84.1355 119.522 84.268C119.495 84.2945 119.495 84.2945 119.469 84.321C119.309 84.4535 119.177 84.6125 119.018 84.7451C118.832 84.9041 118.673 85.0631 118.487 85.2486C118.354 85.3546 118.222 85.4872 118.089 85.5932C117.373 86.2028 116.657 86.7859 115.914 87.3424C115.755 87.4484 115.622 87.5545 115.463 87.687C115.304 87.793 115.144 87.9255 114.985 88.0315C114.906 88.0845 114.826 88.1375 114.746 88.217C114.587 88.3231 114.428 88.4291 114.269 88.5616C113.712 88.9327 113.155 89.3037 112.598 89.6483C112.571 89.6748 112.545 89.6748 112.518 89.7013C112.359 89.8073 112.2 89.8868 112.067 89.9928C111.881 90.0988 111.696 90.2313 111.51 90.3374C111.351 90.4169 111.192 90.5229 111.059 90.6024C110.9 90.6819 110.767 90.7879 110.608 90.8674C110.528 90.9204 110.475 90.9469 110.396 90.9999C110.21 91.106 110.024 91.212 109.812 91.318C108.857 91.8481 107.902 92.3251 106.92 92.8022L108.141 95.6911H29.3761C29.6944 95.3466 29.9862 95.002 30.3046 94.684C30.6229 94.3394 30.9413 94.0214 31.2331 93.7298C31.3923 93.5708 31.5514 93.4383 31.7106 93.2793C32.1881 92.8552 32.6126 92.4577 33.0371 92.1396C33.1432 92.0336 33.2758 91.9541 33.3819 91.8746C33.435 91.8216 33.488 91.7951 33.5411 91.7421C33.7268 91.583 33.9125 91.4505 34.0717 91.3445C34.1247 91.2915 34.2043 91.265 34.2574 91.212C33.7003 90.8939 33.1432 90.5494 32.5861 90.2048C32.3208 90.0458 32.082 89.8868 31.8167 89.7278C31.1535 89.3037 30.5168 88.8531 29.8801 88.4026C29.7475 88.3231 29.6148 88.2171 29.5087 88.1375C29.3761 88.0315 29.2699 87.952 29.1373 87.846C28.7659 87.5545 28.3945 87.2629 28.0231 86.9714C27.917 86.8654 27.7843 86.7859 27.6782 86.6798C27.6782 86.6798 27.6517 86.6798 27.6517 86.6533C27.5455 86.5473 27.4129 86.4678 27.3068 86.3618C25.5293 84.8511 23.8845 83.1813 22.452 81.3526C22.3459 81.22 22.2663 81.0875 22.1602 80.9815C21.6826 80.3454 21.2051 79.6828 20.7806 78.9937C20.7011 78.8612 20.5949 78.7287 20.5154 78.5962C20.4358 78.4637 20.3562 78.3046 20.2501 78.1721C20.1705 78.0396 20.0909 77.9071 20.0113 77.748C19.8256 77.43 19.6664 77.112 19.4807 76.7939C19.4277 76.6879 19.3746 76.5554 19.295 76.4494C19.2154 76.2903 19.1358 76.1578 19.0828 75.9988C19.0032 75.8398 18.9236 75.7073 18.8706 75.5482C18.791 75.3892 18.7379 75.2567 18.6583 75.0977C18.5257 74.8061 18.4196 74.5411 18.2869 74.2495C18.2073 74.064 18.1277 73.8785 18.0747 73.693C18.0482 73.587 17.9951 73.5074 17.9686 73.4014C17.9155 73.2954 17.889 73.1629 17.8359 73.0569C17.7829 72.9244 17.7298 72.7653 17.6768 72.6063C17.5176 72.1027 17.3584 71.5992 17.1992 71.0956C17.1462 70.9366 17.1196 70.8041 17.0931 70.645C17.0401 70.4595 17.0135 70.3005 16.9605 70.115C16.9339 69.9559 16.8809 69.8234 16.8544 69.6644C16.8278 69.5319 16.8013 69.3994 16.7482 69.2403C16.7217 69.0548 16.6686 68.8958 16.6421 68.7103C16.6156 68.5247 16.5891 68.3657 16.536 68.1802C16.085 65.5563 15.9258 62.7204 16.1381 59.646C16.2177 58.4533 16.3238 57.2871 16.4564 56.174C16.5095 55.7764 16.536 55.3788 16.5891 54.9813C16.6421 54.5307 16.6952 54.0802 16.7748 53.6561C16.8013 53.3911 16.8544 53.0995 16.9074 52.8345C17.1992 51.0587 17.5176 49.336 17.9155 47.6662C17.9155 47.6662 17.9155 47.6662 17.9155 47.6397C18.34 45.7845 18.8706 44.0087 19.4277 42.3125C27.9965 16.5773 50.7319 7.85753 70.2307 7.672C70.7879 7.672 72.8306 7.6455 73.2816 7.61899C94.266 7.16843 119.442 16.4713 127.136 46.6326C127.189 46.8181 127.242 47.0036 127.268 47.1892C127.931 49.8661 128.462 52.702 128.833 55.6969C128.939 56.4655 129.019 57.2606 129.099 58.0557C129.125 58.2943 129.152 58.5328 129.152 58.7448C129.178 58.9569 129.178 59.1424 129.205 59.3544C129.205 59.3809 129.205 59.4074 129.205 59.4339C129.205 59.4339 129.205 59.4604 129.205 59.4869C129.231 59.699 129.231 59.911 129.231 60.123C129.231 60.176 129.231 60.2555 129.231 60.3351C129.231 60.5471 129.258 60.7326 129.258 60.9446C129.258 60.9976 129.258 61.0507 129.258 61.1037C129.258 61.3157 129.258 61.5807 129.258 61.8193Z" fill="#B6724D"/>
<path d="M129.258 61.8217C129.258 62.0602 129.258 62.3253 129.258 62.5638V62.6168C129.258 62.8554 129.231 63.1204 129.231 63.3589C129.231 63.571 129.205 63.7565 129.205 63.9685C129.205 64.0745 129.205 64.154 129.178 64.2336C129.152 64.4191 129.152 64.6046 129.125 64.8166C129.125 64.8431 129.125 64.8431 129.125 64.8696C129.099 65.1082 129.072 65.3467 129.046 65.5852C129.019 65.7973 128.993 66.0358 128.966 66.2478C128.966 66.3009 128.939 66.3274 128.939 66.3804C128.913 66.5924 128.886 66.8044 128.833 67.0165C128.807 67.2285 128.754 67.4405 128.727 67.626C128.701 67.7056 128.701 67.7851 128.674 67.8646C128.648 68.0501 128.621 68.2091 128.568 68.3947C128.568 68.4212 128.568 68.4212 128.568 68.4477C128.515 68.6597 128.462 68.8982 128.435 69.1103C128.382 69.3223 128.329 69.5608 128.276 69.7729C128.223 69.9849 128.17 70.2234 128.091 70.4355C128.037 70.6475 127.958 70.8595 127.905 71.0715C127.905 71.098 127.905 71.1245 127.878 71.1245C127.825 71.3101 127.772 71.4956 127.693 71.6811C127.666 71.7341 127.666 71.7871 127.64 71.8402C127.586 71.9992 127.533 72.1847 127.454 72.3437C127.374 72.5558 127.295 72.7678 127.215 72.9798C127.029 73.4304 126.844 73.8809 126.658 74.3315C126.578 74.4905 126.525 74.6496 126.446 74.8086C125.703 76.3988 124.827 77.883 123.846 79.2877C123.766 79.3937 123.713 79.4998 123.634 79.5793C123.554 79.6853 123.501 79.7913 123.421 79.8708C123.289 80.0563 123.156 80.2154 123.024 80.4009C122.652 80.878 122.254 81.355 121.856 81.8321C121.777 81.9381 121.697 82.0176 121.591 82.1236C121.458 82.2561 121.352 82.3887 121.22 82.5212C121.14 82.6272 121.034 82.7332 120.954 82.8127C120.742 83.0513 120.53 83.2898 120.291 83.5018C120.185 83.6078 120.079 83.7139 119.999 83.7934C119.999 83.8199 119.973 83.8199 119.946 83.8464C119.813 83.9789 119.654 84.1379 119.522 84.2704C119.495 84.2969 119.495 84.2969 119.469 84.3235C119.309 84.456 119.177 84.615 119.018 84.7475C118.832 84.9065 118.673 85.0656 118.487 85.2511C118.354 85.3571 118.222 85.4896 118.089 85.5956C117.373 86.2052 116.657 86.7883 115.914 87.3449C115.755 87.4509 115.622 87.5569 115.463 87.6894C115.304 87.7954 115.144 87.928 114.985 88.034C114.906 88.087 114.826 88.14 114.746 88.2195C114.587 88.3255 114.428 88.4315 114.269 88.5641C113.685 88.9616 113.102 89.3327 112.491 89.7037C112.332 89.8097 112.173 89.8893 112.04 89.9953C111.855 90.1013 111.669 90.2338 111.483 90.3398C111.324 90.4193 111.165 90.5253 111.032 90.6049C110.873 90.6844 110.741 90.7904 110.581 90.8699C110.502 90.9229 110.449 90.9494 110.369 91.0024C110.183 91.1084 109.998 91.2144 109.786 91.3205C108.83 91.8505 107.875 92.3276 106.894 92.8047L108.114 95.6936H48.2912C46.0628 93.8648 44.6037 92.6456 44.6037 92.6456C44.6037 92.6456 37.0164 91.612 30.3046 94.6864C30.6229 94.3419 30.9413 94.0238 31.2331 93.7323C31.3923 93.5733 31.5514 93.4408 31.7106 93.2817C32.1881 92.8577 32.6126 92.4601 33.0371 92.1421C33.1432 92.0361 33.2758 91.9566 33.3819 91.877C33.435 91.824 33.488 91.7975 33.5411 91.7445C33.7268 91.5855 33.9125 91.453 34.0717 91.347C34.1247 91.294 34.2043 91.2675 34.2574 91.2144C33.7003 90.8964 33.1432 90.5518 32.5861 90.2073C32.3208 90.0483 32.082 89.8893 31.8167 89.7302C31.1535 89.3062 30.5168 88.8556 29.8801 88.405C29.7475 88.3255 29.6148 88.2195 29.5087 88.14C29.3761 88.034 29.2699 87.9545 29.1373 87.8485C28.7659 87.5569 28.3945 87.2654 28.0231 86.9738C27.917 86.8678 27.7843 86.7883 27.6782 86.6823C27.6782 86.6823 27.6517 86.6823 27.6517 86.6558C27.5455 86.5498 27.4129 86.4703 27.3068 86.3642C25.5293 84.8535 23.8845 83.1838 22.452 81.355C22.3459 81.2225 22.2663 81.09 22.1602 80.984C21.6826 80.3479 21.2051 79.6853 20.7806 78.9962C20.7011 78.8637 20.5949 78.7311 20.5154 78.5986C20.4358 78.4661 20.3562 78.3071 20.2501 78.1746C20.1705 78.042 20.0909 77.9095 20.0113 77.7505C19.8256 77.4325 19.6664 77.1144 19.4807 76.7964C19.4277 76.6904 19.3746 76.5578 19.295 76.4518C19.2154 76.2928 19.1358 76.1603 19.0828 76.0013C19.0032 75.8422 18.9236 75.7097 18.8706 75.5507C18.791 75.3917 18.7379 75.2591 18.6583 75.1001C18.5257 74.8086 18.4196 74.5435 18.2869 74.252C18.2073 74.0665 18.1277 73.8809 18.0747 73.6954C18.0482 73.5894 17.9951 73.5099 17.9686 73.4039C17.9155 73.2979 17.889 73.1653 17.8359 73.0593C17.7829 72.9268 17.7298 72.7678 17.6768 72.6088C17.5176 72.1052 17.3584 71.6016 17.1992 71.098C17.1462 70.939 17.1196 70.8065 17.0931 70.6475C17.0401 70.462 17.0135 70.3029 16.9605 70.1174C16.9339 69.9584 16.8809 69.8259 16.8544 69.6668C16.8278 69.5343 16.8013 69.4018 16.7482 69.2428C16.7217 69.0573 16.6686 68.8982 16.6421 68.7127C16.6156 68.5272 16.5891 68.3682 16.536 68.1826C16.085 65.5588 15.9258 62.7228 16.1381 59.6484C16.2177 58.4557 16.3238 57.2896 16.4564 56.1764C16.5095 55.7788 16.536 55.3813 16.5891 54.9837C16.6421 54.5332 16.6952 54.0826 16.7748 53.6585C16.8013 53.3935 16.8544 53.102 16.9074 52.8369C16.9339 53.102 16.987 53.367 17.0401 53.6585C18.844 64.1805 27.8108 86.2317 71.3715 86.6028C116.948 87.0003 126.738 64.8696 128.807 55.8318C128.913 56.6005 128.993 57.3956 129.072 58.1907C129.099 58.4292 129.125 58.6678 129.125 58.8798C129.152 59.0918 129.152 59.2773 129.178 59.4894C129.178 59.5159 129.178 59.5424 129.178 59.5689C129.178 59.5689 129.178 59.5954 129.178 59.6219C129.205 59.8339 129.205 60.046 129.205 60.258C129.205 60.311 129.205 60.3905 129.205 60.47C129.205 60.682 129.231 60.8676 129.231 61.0796C129.231 61.1326 129.231 61.1856 129.231 61.2386C129.258 61.3181 129.258 61.5832 129.258 61.8217Z" fill="#945339"/>
<path d="M128.836 55.6997C128.942 56.4683 129.021 57.2635 129.101 58.0586C129.127 58.2971 129.154 58.5091 129.154 58.7477C129.181 58.9597 129.181 59.1452 129.207 59.3573C129.207 59.3838 129.207 59.4103 129.207 59.4368C124.724 76.5052 111.167 97.5227 71.7451 95.3229C30.3598 93.0171 19.3237 72.6887 16.7769 58.1116C16.6443 57.4225 16.5647 56.7599 16.4851 56.0973C16.5382 55.6997 16.5912 55.3022 16.6178 54.9046C16.6708 54.4541 16.7239 54.0035 16.8035 53.5794C16.8565 53.3144 16.883 53.0229 16.9361 52.7578C16.9626 53.0229 17.0157 53.2879 17.0687 53.5794C18.8727 64.1014 27.8395 86.1526 71.4002 86.5237C116.977 86.8682 126.74 64.7375 128.836 55.6997Z" fill="#AD6946"/>
<path d="M127.138 46.6326C118.834 24.9525 101.352 7.22143 58.0827 12.5487C34.3127 15.4641 23.9929 34.2818 19.4299 42.233C27.9988 16.5773 50.7342 7.85753 70.233 7.672C70.7902 7.672 72.8329 7.6455 73.2839 7.61899C94.2683 7.16843 119.418 16.4713 127.138 46.6326Z" fill="#D59A77"/>
<path d="M73.2616 75.5196C85.0989 75.3879 94.6074 67.4383 94.4996 57.7638C94.3917 48.0893 84.7082 40.3533 72.8709 40.4851C61.0336 40.6168 51.5251 48.5664 51.633 58.2409C51.7408 67.9154 61.4243 75.6514 73.2616 75.5196Z" fill="#AD6946"/>
<path d="M73.1831 81.9058C85.0936 81.7733 94.6616 73.8231 94.5537 64.1486C94.4458 54.474 84.703 46.7388 72.7924 46.8713C60.8819 47.0039 51.3139 54.9541 51.4218 64.6286C51.5296 74.3031 61.2725 82.0384 73.1831 81.9058Z" fill="#945339"/>
<path d="M95.4341 61.0787C95.4872 66.2734 93.1791 71.0176 89.2263 74.4896C85.2735 77.9616 79.7024 80.1614 73.2028 80.2144C57.7894 80.3734 50.8388 71.9452 50.7327 61.5557C50.7327 60.9196 50.7592 60.3101 50.8123 59.7005C51.2102 55.2478 53.1733 51.1928 56.1446 48.1713C57.0996 47.1907 58.1608 46.3161 59.3281 45.574C62.2463 43.6657 65.7216 42.526 69.4622 42.473L76.3332 42.3935C80.0473 42.3405 83.5491 43.4006 86.4938 45.2559C90.7385 47.9063 93.8954 52.1999 95.0096 57.2356C95.2484 58.4813 95.4076 59.7535 95.4341 61.0787Z" fill="#DCBD8A"/>
<path d="M94.9794 57.2355C93.5203 66.9624 84.2086 74.516 72.8542 74.6485C62.2957 74.7545 53.3554 68.4201 50.8086 59.7268C51.2065 55.2742 53.1697 51.2191 56.1409 48.1977C57.096 47.2171 58.1571 46.3424 59.3244 45.6003C62.2426 43.692 65.7179 42.5524 69.4585 42.4994L76.3295 42.4199C80.0436 42.3669 83.5454 43.427 86.4901 45.2823C90.7083 47.9062 93.8652 52.1998 94.9794 57.2355Z" fill="#ECD09C"/>
<path d="M72.672 60.4426C72.4598 60.4426 72.2741 60.2571 72.2741 60.0451L72.1415 50.1856C72.1415 49.9736 72.3272 49.7881 72.5394 49.7881C72.7516 49.7881 72.9373 49.9736 72.9373 50.1856L73.0699 60.0451C73.0699 60.2571 72.8843 60.4426 72.672 60.4426Z" fill="#43281F"/>
<path d="M86.4671 45.2563C85.7773 46.979 84.7692 48.5427 83.4693 49.8149C81.0286 52.2003 77.5533 53.658 72.9903 53.711C68.109 53.764 64.448 52.2268 61.9808 49.6559C60.84 48.4897 59.9646 47.085 59.3279 45.5478C62.2461 43.6395 66.2785 42.1288 72.5128 42.0493C80.1001 41.9963 83.5224 43.401 86.4671 45.2563Z" fill="#5C392B"/>
<path d="M83.4687 49.8168C81.028 52.2021 77.5527 53.6598 72.9897 53.7128C68.1083 53.7658 64.4473 52.2286 61.9801 49.6577C62.3515 49.0216 62.8025 48.4386 63.3066 47.9085C64.8187 46.3448 66.941 45.3641 69.2756 45.3376L75.8548 45.2581C79.1444 45.2316 82.0361 47.0869 83.4687 49.8168Z" fill="#43281F"/>
<path d="M65.509 45.2042C65.8008 45.0717 66.0661 44.9657 66.3314 44.8862C66.5967 44.7801 66.8885 44.7006 67.1538 44.6211C67.7109 44.4621 68.268 44.3296 68.8516 44.1971C69.9924 43.9585 71.1331 43.826 72.3269 43.7465C73.4942 43.6935 74.688 43.72 75.8553 43.879C77.0226 44.038 78.2164 44.3296 79.3306 44.8331C79.8612 45.0717 80.0999 45.7078 79.8612 46.2378C79.6755 46.6354 79.3041 46.8739 78.8796 46.8739H78.8266C77.7654 46.8739 76.7042 46.8474 75.6696 46.8474C74.6084 46.8739 73.5473 46.9004 72.4861 46.9534L69.2496 47.139L67.6313 47.2185C67.366 47.2185 67.0742 47.245 66.8089 47.245C66.5436 47.245 66.2518 47.2715 65.9865 47.2715H65.9334C65.3498 47.2715 64.8723 46.7944 64.8988 46.2113C64.8723 45.7343 65.1376 45.3632 65.509 45.2042Z" fill="white"/>
<path d="M72.4327 60.5773C69.037 60.5773 65.7739 59.4376 63.2271 57.3704C63.0679 57.2378 63.0414 56.9728 63.174 56.8138C63.3067 56.6548 63.572 56.6282 63.7312 56.7608C66.1188 58.722 69.1961 59.7822 72.4327 59.7822C72.4857 59.7822 72.5388 59.7822 72.5918 59.7822C75.7753 59.7557 78.8262 58.669 81.1872 56.7343C81.3464 56.6017 81.6117 56.6282 81.7444 56.7873C81.877 56.9463 81.8505 57.2113 81.6913 57.3439C79.1976 59.3846 75.961 60.5243 72.6184 60.5773C72.5388 60.5773 72.4857 60.5773 72.4327 60.5773Z" fill="#43281F"/>
<path d="M49.1938 77.0068C48.504 77.4044 47.9735 78.067 47.7612 78.9151H49.2203L49.1938 77.0068Z" fill="white"/>
<path d="M51.2104 76.5844C50.5737 76.5049 49.9636 76.6109 49.433 76.876H51.2104V76.5844Z" fill="#71495A"/>
<path d="M52.2996 76.8472C52.0608 76.7677 51.7956 76.7147 51.5568 76.6352C51.4507 76.6087 51.318 76.5822 51.2119 76.5557V76.8207L52.2996 76.8472Z" fill="#D8BFB4"/>
<path d="M51.2112 78.8619L51.1846 76.8477H49.4072C49.3276 76.8742 49.248 76.9272 49.1949 76.9537L49.2215 78.8354L51.2112 78.8619Z" fill="#D8BFB4"/>
<path d="M51.2119 78.8631L53.2281 78.8366V77.0873C52.9363 77.0078 52.618 76.9283 52.3261 76.8223H51.2119V78.8631Z" fill="white"/>
<path d="M55.2435 78.836V77.7229C54.6068 77.5108 53.917 77.2988 53.2273 77.1133V78.8625L55.2435 78.836Z" fill="#D8BFB4"/>
<path d="M57.2328 78.8358V78.4383C56.5961 78.1997 55.9063 77.9612 55.2166 77.7227V78.8358H57.2328Z" fill="white"/>
<path d="M58.2148 78.8369C57.8965 78.7044 57.5516 78.5718 57.2333 78.4658V78.8634L58.2148 78.8369Z" fill="#D8BFB4"/>
<path d="M89.3599 78.2275C89.0415 78.3601 88.7232 78.4661 88.4314 78.5986H89.3599V78.2275Z" fill="white"/>
<path d="M91.3497 78.5964V77.5098C90.6599 77.7483 89.9967 77.9868 89.36 78.2519V78.6229L91.3497 78.5964Z" fill="#D8BFB4"/>
<path d="M93.3659 78.5704V76.8477C92.6761 77.0597 92.0129 77.2717 91.3762 77.5103V78.5969L93.3659 78.5704Z" fill="white"/>
<path d="M95.3555 76.291C95.2494 76.3175 95.1433 76.3175 95.0372 76.344C94.7719 76.4235 94.5331 76.4765 94.2943 76.556H95.3555V76.291Z" fill="#71495A"/>
<path d="M97.1868 76.5303C96.6297 76.2652 95.993 76.1592 95.3563 76.2652V76.5303H97.1868Z" fill="#D8BFB4"/>
<path d="M95.3812 78.57L95.3547 76.5557H94.2935C93.9752 76.6352 93.6568 76.7412 93.3385 76.8472V78.57H95.3812Z" fill="#D8BFB4"/>
<path d="M95.3821 78.57L97.3983 78.5435L97.3718 76.6352C97.3187 76.6087 97.2656 76.5822 97.2126 76.5557H95.3821V78.57Z" fill="white"/>
<path d="M98.8845 78.545C98.6457 77.6969 98.0886 77.0343 97.3723 76.6367L97.3988 78.545H98.8845Z" fill="#D8BFB4"/>
<path d="M49.2206 78.8887H47.7615C47.7615 78.9152 47.7615 78.9417 47.735 78.9417C47.6023 79.4983 47.4697 80.1609 47.337 80.8765L49.1941 80.8499L49.2206 78.8887Z" fill="#D8BFB4"/>
<path d="M47.2323 81.75C47.1792 82.1211 47.1262 82.4921 47.0731 82.9162H47.2323V81.75Z" fill="#D8BFB4"/>
<path d="M49.2477 82.8903L49.2211 80.876L47.3641 80.9025C47.311 81.1675 47.2845 81.4591 47.2314 81.7506V82.9168L49.2477 82.8903Z" fill="white"/>
<path d="M51.2319 78.8831L49.2157 78.8975L49.23 80.9118L51.2463 80.8974L51.2319 78.8831Z" fill="#71495A"/>
<path d="M53.2479 78.8587L51.2317 78.873L51.246 80.8873L53.2622 80.873L53.2479 78.8587Z" fill="#D8BFB4"/>
<path d="M51.2319 80.8714L49.2157 80.8857L49.23 82.9L51.2463 82.8857L51.2319 80.8714Z" fill="#D8BFB4"/>
<path d="M53.2499 80.8734L51.2336 80.8877L51.248 82.902L53.2642 82.8877L53.2499 80.8734Z" fill="white"/>
<path d="M55.2372 78.8587L53.2209 78.873L53.2353 80.8873L55.2515 80.873L55.2372 78.8587Z" fill="#71495A"/>
<path d="M57.2545 78.8304L55.2383 78.8447L55.2526 80.859L57.2688 80.8447L57.2545 78.8304Z" fill="#D8BFB4"/>
<path d="M55.2645 80.845L53.2483 80.8594L53.2627 82.8737L55.2789 82.8593L55.2645 80.845Z" fill="#D8BFB4"/>
<path d="M57.2545 80.845L55.2383 80.8594L55.2526 82.8737L57.2689 82.8593L57.2545 80.845Z" fill="white"/>
<path d="M57.2589 80.8239L59.2751 80.7973V79.2336C58.9302 79.1011 58.5854 78.9421 58.2405 78.8096H57.2589V80.8239Z" fill="#71495A"/>
<path d="M61.2656 80.797V80.1609C60.6289 79.8428 59.9657 79.5513 59.2494 79.2598V80.8235L61.2656 80.797Z" fill="#D8BFB4"/>
<path d="M59.2702 80.8207L57.254 80.835L57.2683 82.8493L59.2845 82.835L59.2702 80.8207Z" fill="#D8BFB4"/>
<path d="M61.2866 80.8177L59.2704 80.832L59.2847 82.8463L61.3009 82.832L61.2866 80.8177Z" fill="white"/>
<path d="M62.5393 80.7992C62.1413 80.5871 61.6903 80.3751 61.2659 80.1631V80.7992H62.5393Z" fill="#71495A"/>
<path d="M61.2915 82.8113L63.3077 82.7848V81.1681C63.069 81.0355 62.8302 80.903 62.5649 80.7705H61.2915V82.8113Z" fill="#D8BFB4"/>
<path d="M65.2984 82.7846V82.3605C64.6617 81.963 63.9985 81.5919 63.2822 81.1943V82.8111L65.2984 82.7846Z" fill="white"/>
<path d="M65.9608 82.7844C65.7486 82.6519 65.5098 82.4929 65.2976 82.3604V82.7844H65.9608Z" fill="#D8BFB4"/>
<path d="M81.3487 82.2822C81.1365 82.4147 80.9242 82.5473 80.7385 82.6798H81.3487V82.2822Z" fill="white"/>
<path d="M85.3526 80.0029C84.9282 80.215 84.5302 80.427 84.1323 80.639H85.3526V80.0029Z" fill="#D8BFB4"/>
<path d="M83.3648 82.6527V81.0625C82.6485 81.4601 81.9853 81.8576 81.3751 82.2552V82.6527H83.3648Z" fill="#D8BFB4"/>
<path d="M85.3533 82.652L85.3268 80.6377H84.1064C83.8411 80.7702 83.5758 80.9292 83.3105 81.0617V82.652H85.3533Z" fill="white"/>
<path d="M87.3709 80.6126V79.0488C86.6811 79.3669 86.0179 79.6849 85.3812 80.003V80.6126H87.3709Z" fill="#71495A"/>
<path d="M89.3608 80.611L89.3343 78.5967H88.4058C88.0344 78.7557 87.6895 78.9147 87.3446 79.0472V80.611H89.3608Z" fill="#D8BFB4"/>
<path d="M87.3663 80.6341L85.3501 80.6484L85.3644 82.6627L87.3807 82.6484L87.3663 80.6341Z" fill="#D8BFB4"/>
<path d="M89.3816 80.6068L87.3654 80.6211L87.3797 82.6354L89.3959 82.6211L89.3816 80.6068Z" fill="white"/>
<path d="M91.3723 78.5921L89.3561 78.6064L89.3704 80.6207L91.3866 80.6064L91.3723 78.5921Z" fill="#71495A"/>
<path d="M93.3882 78.5668L91.3719 78.5811L91.3863 80.5953L93.4025 80.581L93.3882 78.5668Z" fill="#D8BFB4"/>
<path d="M91.3723 80.6068L89.3561 80.6211L89.3704 82.6354L91.3866 82.6211L91.3723 80.6068Z" fill="#D8BFB4"/>
<path d="M93.3881 80.5794L91.3719 80.5938L91.3863 82.608L93.4025 82.5937L93.3881 80.5794Z" fill="white"/>
<path d="M95.3764 78.5638L93.3602 78.5781L93.3746 80.5924L95.3908 80.578L95.3764 78.5638Z" fill="#71495A"/>
<path d="M97.3943 78.5403L95.3781 78.5547L95.3924 80.569L97.4086 80.5546L97.3943 78.5403Z" fill="#D8BFB4"/>
<path d="M95.4034 80.5813L93.3872 80.5957L93.4016 82.61L95.4178 82.5956L95.4034 80.5813Z" fill="#D8BFB4"/>
<path d="M97.3943 80.555L95.3781 80.5693L95.3924 82.5836L97.4086 82.5693L97.3943 80.555Z" fill="white"/>
<path d="M97.3988 80.5602L99.309 80.5337C99.1764 79.8181 99.0437 79.1555 98.8845 78.5989C98.8845 78.5724 98.8845 78.5459 98.858 78.5459H97.3723L97.3988 80.5602Z" fill="#71495A"/>
<path d="M97.3984 82.5457L99.4147 82.5192V81.035C99.3881 80.8494 99.3616 80.6904 99.3351 80.5049L97.425 80.5314L97.3984 82.5457Z" fill="#D8BFB4"/>
<path d="M99.6257 82.5467C99.5461 82.0166 99.493 81.5396 99.4135 81.0625V82.5467H99.6257Z" fill="white"/>
<path d="M47.2331 82.917H47.0739C46.9943 83.5531 46.9412 84.2157 46.8882 84.9313H47.2331V82.917Z" fill="#71495A"/>
<path d="M49.2425 82.9134L47.2263 82.9277L47.2407 84.942L49.2569 84.9277L49.2425 82.9134Z" fill="#D8BFB4"/>
<path d="M47.2583 84.9053H46.9134C46.8604 85.5414 46.8339 86.204 46.8339 86.9196H47.2849L47.2583 84.9053Z" fill="#D8BFB4"/>
<path d="M49.2679 84.9007L47.2517 84.915L47.2661 86.9293L49.2823 86.915L49.2679 84.9007Z" fill="white"/>
<path d="M51.2599 82.886L49.2437 82.9004L49.258 84.9147L51.2742 84.9003L51.2599 82.886Z" fill="#71495A"/>
<path d="M53.2751 82.8597L51.2589 82.874L51.2733 84.8883L53.2895 84.874L53.2751 82.8597Z" fill="#D8BFB4"/>
<path d="M51.2599 84.9007L49.2437 84.915L49.258 86.9293L51.2742 86.915L51.2599 84.9007Z" fill="#D8BFB4"/>
<path d="M53.2751 84.8724L51.2589 84.8867L51.2733 86.901L53.2895 86.8866L53.2751 84.8724Z" fill="white"/>
<path d="M55.2645 82.8597L53.2483 82.874L53.2626 84.8883L55.2788 84.874L55.2645 82.8597Z" fill="#71495A"/>
<path d="M57.281 82.8343L55.2648 82.8486L55.2791 84.8629L57.2954 84.8486L57.281 82.8343Z" fill="#D8BFB4"/>
<path d="M55.2912 84.8724L53.275 84.8867L53.2894 86.901L55.3056 86.8867L55.2912 84.8724Z" fill="#D8BFB4"/>
<path d="M57.281 84.849L55.2648 84.8633L55.2791 86.8776L57.2953 86.8633L57.281 84.849Z" fill="white"/>
<path d="M59.2971 82.8343L57.2809 82.8486L57.2952 84.8629L59.3114 84.8486L59.2971 82.8343Z" fill="#71495A"/>
<path d="M61.2866 82.807L59.2704 82.8213L59.2847 84.8356L61.3009 84.8212L61.2866 82.807Z" fill="#D8BFB4"/>
<path d="M59.2971 84.8489L57.2809 84.8633L57.2952 86.8776L59.3114 86.8632L59.2971 84.8489Z" fill="#D8BFB4"/>
<path d="M61.3133 84.8196L59.2971 84.834L59.3115 86.8483L61.3277 86.8339L61.3133 84.8196Z" fill="white"/>
<path d="M63.3038 82.807L61.2876 82.8213L61.3019 84.8356L63.3181 84.8213L63.3038 82.807Z" fill="#71495A"/>
<path d="M65.3189 82.7806L63.3027 82.7949L63.3171 84.8092L65.3333 84.7948L65.3189 82.7806Z" fill="#D8BFB4"/>
<path d="M63.3014 84.7953L61.2852 84.8096L61.2995 86.8239L63.3157 86.8096L63.3014 84.7953Z" fill="#D8BFB4"/>
<path d="M65.3189 84.7933L63.3027 84.8076L63.3171 86.8219L65.3333 86.8076L65.3189 84.7933Z" fill="white"/>
<path d="M65.2976 84.7975L67.3138 84.771V83.6843C66.8894 83.3928 66.4384 83.0747 65.9608 82.7832H65.2976V84.7975Z" fill="#71495A"/>
<path d="M68.772 84.7712C68.321 84.4267 67.8434 84.0556 67.3129 83.6846V84.7712H68.772Z" fill="#D8BFB4"/>
<path d="M67.3344 84.7679L65.3182 84.7822L65.3326 86.7965L67.3488 86.7822L67.3344 84.7679Z" fill="#D8BFB4"/>
<path d="M67.3408 86.7869L69.357 86.7604V85.1967C69.1713 85.0641 68.9856 84.9051 68.7999 84.7461H67.3408V86.7869Z" fill="white"/>
<path d="M71.082 86.7628C70.631 86.3387 70.0473 85.8087 69.3311 85.2256V86.7893L71.082 86.7628Z" fill="#D8BFB4"/>
<path d="M77.3417 85.1963C76.652 85.7794 76.0949 86.3095 75.6704 86.707H77.3683L77.3417 85.1963Z" fill="white"/>
<path d="M79.3564 83.6328C78.8524 84.0039 78.4014 84.3484 77.9769 84.693H79.383L79.3564 83.6328Z" fill="#71495A"/>
<path d="M81.3742 84.6676L81.3477 82.6533H80.7375C80.2335 82.9714 79.7825 83.3159 79.358 83.6075V84.6676H81.3742Z" fill="#D8BFB4"/>
<path d="M79.3841 86.7086L79.3575 84.6943H77.9515C77.7392 84.8534 77.527 85.0389 77.3413 85.1979V86.7086H79.3841Z" fill="#D8BFB4"/>
<path d="M81.3712 84.6888L79.355 84.7031L79.3693 86.7174L81.3855 86.7031L81.3712 84.6888Z" fill="white"/>
<path d="M83.3607 82.6497L81.3445 82.6641L81.3588 84.6783L83.3751 84.664L83.3607 82.6497Z" fill="#71495A"/>
<path d="M85.3758 82.6498L83.3596 82.6641L83.3739 84.6783L85.3901 84.664L85.3758 82.6498Z" fill="#D8BFB4"/>
<path d="M83.3851 84.6625L81.3689 84.6768L81.3832 86.6911L83.3994 86.6768L83.3851 84.6625Z" fill="#D8BFB4"/>
<path d="M85.4015 84.6624L83.3854 84.6768L83.3997 86.691L85.4158 86.6767L85.4015 84.6624Z" fill="white"/>
<path d="M87.3911 82.6214L85.3749 82.6357L85.3893 84.65L87.4055 84.6357L87.3911 82.6214Z" fill="#71495A"/>
<path d="M89.3816 82.6204L87.3654 82.6348L87.3797 84.649L89.3959 84.6347L89.3816 82.6204Z" fill="#D8BFB4"/>
<path d="M87.3918 84.636L85.3756 84.6504L85.39 86.6647L87.4062 86.6503L87.3918 84.636Z" fill="#D8BFB4"/>
<path d="M89.4076 84.6087L87.3915 84.623L87.4058 86.6373L89.422 86.623L89.4076 84.6087Z" fill="white"/>
<path d="M91.3965 82.5961L89.3802 82.6104L89.3946 84.6246L91.4108 84.6103L91.3965 82.5961Z" fill="#71495A"/>
<path d="M93.4148 82.5941L91.3987 82.6084L91.413 84.6227L93.4292 84.6084L93.4148 82.5941Z" fill="#D8BFB4"/>
<path d="M91.4246 84.6087L89.4084 84.623L89.4228 86.6373L91.439 86.623L91.4246 84.6087Z" fill="#D8BFB4"/>
<path d="M93.4141 84.5823L91.3979 84.5967L91.4123 86.611L93.4285 86.5966L93.4141 84.5823Z" fill="white"/>
<path d="M95.4034 82.5687L93.3872 82.583L93.4016 84.5973L95.4178 84.583L95.4034 82.5687Z" fill="#71495A"/>
<path d="M97.4198 82.5677L95.4036 82.582L95.4179 84.5963L97.4341 84.582L97.4198 82.5677Z" fill="#D8BFB4"/>
<path d="M95.4305 84.5823L93.4143 84.5967L93.4287 86.611L95.4448 86.5966L95.4305 84.5823Z" fill="#D8BFB4"/>
<path d="M97.4463 84.556L95.4301 84.5703L95.4444 86.5846L97.4606 86.5703L97.4463 84.556Z" fill="white"/>
<path d="M99.437 82.5413L97.4208 82.5557L97.4352 84.5699L99.4514 84.5556L99.437 82.5413Z" fill="#71495A"/>
<path d="M99.44 84.5338H99.8379C99.7848 83.8182 99.7053 83.1556 99.6257 82.5195H99.4135L99.44 84.5338Z" fill="#D8BFB4"/>
<path d="M99.4369 84.557L97.4208 84.5713L97.4351 86.5856L99.4513 86.5712L99.4369 84.557Z" fill="#D8BFB4"/>
<path d="M99.44 86.5485H99.944C99.9175 85.8594 99.8644 85.1703 99.8114 84.5342H99.4135L99.44 86.5485Z" fill="white"/>
<path d="M47.2583 86.9199H46.8073C46.7807 87.556 46.7807 88.2186 46.8073 88.9342H47.2848L47.2583 86.9199Z" fill="#71495A"/>
<path d="M49.2679 86.9154L47.2517 86.9297L47.2661 88.944L49.2823 88.9297L49.2679 86.9154Z" fill="#D8BFB4"/>
<path d="M47.2849 88.9355H46.8074C46.8074 89.0416 46.8074 89.1211 46.8074 89.2271C46.8074 89.8102 46.8074 90.3933 46.8339 90.9498H47.3115L47.2849 88.9355Z" fill="#D8BFB4"/>
<path d="M49.2951 88.93L47.2789 88.9443L47.2933 90.9586L49.3095 90.9443L49.2951 88.93Z" fill="white"/>
<path d="M51.2856 86.889L49.2694 86.9033L49.2838 88.9176L51.3 88.9033L51.2856 86.889Z" fill="#71495A"/>
<path d="M53.3017 86.889L51.2855 86.9033L51.2999 88.9176L53.3161 88.9033L53.3017 86.889Z" fill="#D8BFB4"/>
<path d="M51.3112 88.9017L49.295 88.916L49.3094 90.9303L51.3256 90.916L51.3112 88.9017Z" fill="#D8BFB4"/>
<path d="M53.301 88.8753L51.2848 88.8896L51.2992 90.9039L53.3153 90.8896L53.301 88.8753Z" fill="white"/>
<path d="M55.2912 86.8617L53.275 86.876L53.2893 88.8903L55.3055 88.876L55.2912 86.8617Z" fill="#71495A"/>
<path d="M57.3069 86.8617L55.2906 86.876L55.305 88.8903L57.3212 88.8759L57.3069 86.8617Z" fill="#D8BFB4"/>
<path d="M55.3162 88.8753L53.2999 88.8896L53.3143 90.9039L55.3305 90.8896L55.3162 88.8753Z" fill="#D8BFB4"/>
<path d="M57.3343 88.8489L55.3181 88.8633L55.3325 90.8776L57.3487 90.8632L57.3343 88.8489Z" fill="white"/>
<path d="M59.325 86.8352L57.3088 86.8496L57.3232 88.8639L59.3394 88.8495L59.325 86.8352Z" fill="#71495A"/>
<path d="M61.3133 86.8352L59.2971 86.8496L59.3115 88.8639L61.3277 88.8495L61.3133 86.8352Z" fill="#D8BFB4"/>
<path d="M59.3221 88.849L57.3059 88.8633L57.3202 90.8776L59.3364 90.8633L59.3221 88.849Z" fill="#D8BFB4"/>
<path d="M61.3402 88.8226L59.324 88.8369L59.3383 90.8512L61.3545 90.8369L61.3402 88.8226Z" fill="white"/>
<path d="M63.329 86.8089L61.3127 86.8232L61.3271 88.8375L63.3433 88.8232L63.329 86.8089Z" fill="#71495A"/>
<path d="M65.3462 86.8089L63.33 86.8232L63.3443 88.8375L65.3605 88.8232L65.3462 86.8089Z" fill="#D8BFB4"/>
<path d="M63.3309 88.8225L61.3147 88.8369L61.3291 90.8512L63.3453 90.8368L63.3309 88.8225Z" fill="#D8BFB4"/>
<path d="M65.3447 88.7962L63.3285 88.8105L63.3429 90.8248L65.3591 90.8105L65.3447 88.7962Z" fill="white"/>
<path d="M67.3344 86.7826L65.3182 86.7969L65.3326 88.8112L67.3488 88.7969L67.3344 86.7826Z" fill="#71495A"/>
<path d="M69.353 86.7562L67.3368 86.7705L67.3511 88.7848L69.3673 88.7705L69.353 86.7562Z" fill="#D8BFB4"/>
<path d="M67.3628 88.7962L65.3466 88.8105L65.3609 90.8248L67.3771 90.8105L67.3628 88.7962Z" fill="#D8BFB4"/>
<path d="M69.353 88.7698L67.3368 88.7842L67.3512 90.7985L69.3674 90.7841L69.353 88.7698Z" fill="white"/>
<path d="M69.3572 88.7761H71.1346V87.3979C71.1346 87.2389 71.1877 87.0799 71.3203 86.9474C71.2673 86.8944 71.1877 86.8149 71.1081 86.7354H69.3572V88.7761Z" fill="#71495A"/>
<path d="M71.1081 88.749L69.3572 88.7755V90.7898L71.1346 90.7633L71.1081 89.0936V88.749Z" fill="#D8BFB4"/>
<path d="M75.8042 87.3714V88.7496H77.396L77.3694 86.7354H75.6716C75.6185 86.7884 75.5655 86.8149 75.5389 86.8679C75.6981 86.9739 75.7777 87.1594 75.8042 87.3714Z" fill="#D8BFB4"/>
<path d="M75.8036 88.7217V89.0662V90.736L77.3954 90.7095L77.3688 88.7217H75.8036Z" fill="white"/>
<path d="M79.381 86.7025L77.3647 86.7168L77.3791 88.7311L79.3953 88.7168L79.381 86.7025Z" fill="#71495A"/>
<path d="M81.3969 86.677L79.3807 86.6914L79.3951 88.7057L81.4113 88.6913L81.3969 86.677Z" fill="#D8BFB4"/>
<path d="M79.4065 88.6908L77.3903 88.7051L77.4046 90.7194L79.4208 90.7051L79.4065 88.6908Z" fill="#D8BFB4"/>
<path d="M81.3969 88.6908L79.3807 88.7051L79.3951 90.7194L81.4112 90.7051L81.3969 88.6908Z" fill="white"/>
<path d="M83.3851 86.6771L81.3689 86.6914L81.3832 88.7057L83.3994 88.6914L83.3851 86.6771Z" fill="#71495A"/>
<path d="M85.4028 86.6488L83.3866 86.6631L83.4009 88.6774L85.4171 88.6631L85.4028 86.6488Z" fill="#D8BFB4"/>
<path d="M83.4125 88.6654L81.3964 88.6797L81.4107 90.694L83.4268 90.6797L83.4125 88.6654Z" fill="#D8BFB4"/>
<path d="M85.4274 88.6654L83.4111 88.6797L83.4255 90.694L85.4417 90.6796L85.4274 88.6654Z" fill="white"/>
<path d="M87.4188 86.6497L85.4026 86.6641L85.4169 88.6783L87.4331 88.664L87.4188 86.6497Z" fill="#71495A"/>
<path d="M89.4094 86.6224L87.3932 86.6367L87.4076 88.651L89.4238 88.6366L89.4094 86.6224Z" fill="#D8BFB4"/>
<path d="M87.4188 88.638L85.4026 88.6523L85.4169 90.6666L87.4331 90.6523L87.4188 88.638Z" fill="#D8BFB4"/>
<path d="M89.4341 88.638L87.418 88.6523L87.4323 90.6666L89.4485 90.6523L89.4341 88.638Z" fill="white"/>
<path d="M91.4247 86.6224L89.4084 86.6367L89.4228 88.651L91.439 88.6367L91.4247 86.6224Z" fill="#71495A"/>
<path d="M93.4401 86.595L91.4238 86.6094L91.4382 88.6237L93.4544 88.6093L93.4401 86.595Z" fill="#D8BFB4"/>
<path d="M91.4508 88.6117L89.4346 88.626L89.4489 90.6403L91.4651 90.626L91.4508 88.6117Z" fill="#D8BFB4"/>
<path d="M93.44 88.6116L91.4238 88.626L91.4382 90.6403L93.4544 90.6259L93.44 88.6116Z" fill="white"/>
<path d="M95.4305 86.5706L93.4143 86.585L93.4287 88.5992L95.4449 88.5849L95.4305 86.5706Z" fill="#71495A"/>
<path d="M97.4463 86.5706L95.4301 86.585L95.4444 88.5993L97.4606 88.5849L97.4463 86.5706Z" fill="#D8BFB4"/>
<path d="M95.4565 88.5853L93.4403 88.5996L93.4547 90.6139L95.4709 90.5996L95.4565 88.5853Z" fill="#D8BFB4"/>
<path d="M97.4723 88.5853L95.4562 88.5996L95.4705 90.6139L97.4867 90.5996L97.4723 88.5853Z" fill="white"/>
<path d="M99.4633 86.5443L97.4471 86.5586L97.4615 88.5729L99.4777 88.5585L99.4633 86.5443Z" fill="#71495A"/>
<path d="M99.4666 88.5621H99.9971C99.9971 87.873 99.9706 87.2104 99.9706 86.5479H99.4666V88.5621Z" fill="#D8BFB4"/>
<path d="M99.4641 88.5579L97.4479 88.5723L97.4622 90.5866L99.4784 90.5722L99.4641 88.5579Z" fill="#D8BFB4"/>
<path d="M99.4666 90.5514H99.9971C99.9971 89.9948 99.9971 89.4382 99.9971 88.8287C99.9971 88.7226 99.9971 88.6431 99.9971 88.5371H99.4666V90.5514Z" fill="white"/>
<path d="M47.2849 90.9219H46.8074C46.8339 91.611 46.8604 92.3001 46.9135 92.9362H47.3115L47.2849 90.9219Z" fill="#71495A"/>
<path d="M49.2964 90.9173L47.2802 90.9316L47.2945 92.9459L49.3107 92.9316L49.2964 90.9173Z" fill="#D8BFB4"/>
<path d="M47.3119 92.9355H46.9139C46.967 93.6511 47.0201 94.3137 47.0996 94.9498H47.3119V92.9355Z" fill="#D8BFB4"/>
<path d="M49.3222 92.93L47.306 92.9443L47.3203 94.9586L49.3365 94.9443L49.3222 92.93Z" fill="white"/>
<path d="M51.3112 90.9173L49.295 90.9316L49.3094 92.9459L51.3256 92.9316L51.3112 90.9173Z" fill="#71495A"/>
<path d="M53.3277 90.889L51.3115 90.9033L51.3259 92.9176L53.3421 92.9033L53.3277 90.889Z" fill="#D8BFB4"/>
<path d="M51.3375 92.9066L49.3213 92.9209L49.3356 94.9352L51.3518 94.9209L51.3375 92.9066Z" fill="#D8BFB4"/>
<path d="M53.3277 92.9066L51.3115 92.9209L51.3259 94.9352L53.3421 94.9209L53.3277 92.9066Z" fill="white"/>
<path d="M55.3175 90.889L53.3013 90.9033L53.3156 92.9176L55.3318 92.9033L55.3175 90.889Z" fill="#71495A"/>
<path d="M57.3343 90.8655L55.3181 90.8799L55.3325 92.8942L57.3487 92.8798L57.3343 90.8655Z" fill="#D8BFB4"/>
<path d="M55.3443 92.8782L53.3281 92.8926L53.3425 94.9069L55.3587 94.8925L55.3443 92.8782Z" fill="#D8BFB4"/>
<path d="M57.3606 92.8783L55.3444 92.8926L55.3587 94.9069L57.3749 94.8926L57.3606 92.8783Z" fill="white"/>
<path d="M59.3503 90.8353L57.3341 90.8496L57.3484 92.8639L59.3646 92.8496L59.3503 90.8353Z" fill="#71495A"/>
<path d="M61.3402 90.8382L59.324 90.8525L59.3383 92.8668L61.3545 92.8525L61.3402 90.8382Z" fill="#D8BFB4"/>
<path d="M59.3503 92.8519L57.3341 92.8662L57.3484 94.8805L59.3646 94.8662L59.3503 92.8519Z" fill="#D8BFB4"/>
<path d="M61.3662 92.8519L59.35 92.8662L59.3643 94.8805L61.3805 94.8662L61.3662 92.8519Z" fill="white"/>
<path d="M63.3554 90.8109L61.3392 90.8252L61.3536 92.8395L63.3698 92.8252L63.3554 90.8109Z" fill="#71495A"/>
<path d="M65.372 90.8099L63.3558 90.8242L63.3701 92.8385L65.3864 92.8242L65.372 90.8099Z" fill="#D8BFB4"/>
<path d="M63.3836 92.8255L61.3674 92.8398L61.3817 94.8541L63.398 94.8398L63.3836 92.8255Z" fill="#D8BFB4"/>
<path d="M65.372 92.8255L63.3558 92.8398L63.3702 94.8541L65.3864 94.8398L65.372 92.8255Z" fill="white"/>
<path d="M67.3628 90.7854L65.3466 90.7998L65.3609 92.8141L67.3771 92.7997L67.3628 90.7854Z" fill="#71495A"/>
<path d="M69.379 90.7855L67.3628 90.7998L67.3771 92.8141L69.3933 92.7998L69.379 90.7855Z" fill="#D8BFB4"/>
<path d="M65.3777 92.8027L65.4042 94.817H66.9429C67.1021 94.711 67.2612 94.605 67.3939 94.499V92.8292L65.3777 92.8027Z" fill="#D8BFB4"/>
<path d="M67.3667 92.8029V94.4726C68.136 93.916 68.7993 93.4125 69.3564 92.9089V92.7764L67.3667 92.8029Z" fill="white"/>
<path d="M71.1346 90.7617H69.3572L69.3837 92.776H69.5429C70.2857 92.1664 70.8428 91.6098 71.2673 91.1858C71.1877 91.0798 71.1346 90.9472 71.1346 90.7617Z" fill="#71495A"/>
<path d="M69.3839 92.9104C69.4376 92.8568 69.4912 92.8032 69.5449 92.7764H69.3839V92.9104Z" fill="#D8BFB4"/>
<path d="M77.3953 90.7109H75.8035V90.7374C75.8035 90.923 75.724 91.082 75.5913 91.2145C76.0158 91.6121 76.5729 92.1421 77.2626 92.7252H77.3687L77.3953 90.7109Z" fill="#D8BFB4"/>
<path d="M77.2889 92.7236C77.3152 92.7499 77.3678 92.7762 77.3941 92.8287V92.7236H77.2889Z" fill="white"/>
<path d="M79.4065 90.7044L77.3903 90.7188L77.4046 92.733L79.4208 92.7187L79.4065 90.7044Z" fill="#71495A"/>
<path d="M81.4216 90.7044L79.4054 90.7188L79.4198 92.733L81.436 92.7187L81.4216 90.7044Z" fill="#D8BFB4"/>
<path d="M77.4214 92.7236V92.8297C78.005 93.3067 78.6683 93.8103 79.4376 94.3669V92.7236H77.4214Z" fill="#D8BFB4"/>
<path d="M81.428 92.6973L79.4119 92.7238V94.367C79.571 94.473 79.7567 94.6055 79.9424 94.7381H81.428V92.6973Z" fill="white"/>
<path d="M83.4408 90.6781L81.4246 90.6924L81.4389 92.7067L83.4552 92.6923L83.4408 90.6781Z" fill="#71495A"/>
<path d="M85.4273 90.6517L83.4111 90.666L83.4254 92.6803L85.4417 92.666L85.4273 90.6517Z" fill="#D8BFB4"/>
<path d="M83.4381 92.6937L81.4219 92.708L81.4362 94.7223L83.4524 94.708L83.4381 92.6937Z" fill="#D8BFB4"/>
<path d="M85.4557 92.6673L83.4395 92.6816L83.4538 94.6959L85.47 94.6816L85.4557 92.6673Z" fill="white"/>
<path d="M87.4459 90.6517L85.4297 90.666L85.444 92.6803L87.4603 92.666L87.4459 90.6517Z" fill="#71495A"/>
<path d="M89.4612 90.6253L87.4449 90.6396L87.4593 92.6539L89.4755 92.6396L89.4612 90.6253Z" fill="#D8BFB4"/>
<path d="M87.4459 92.6673L85.4297 92.6816L85.4441 94.6959L87.4603 94.6816L87.4459 92.6673Z" fill="#D8BFB4"/>
<path d="M89.4601 92.64L87.4438 92.6543L87.4582 94.6686L89.4744 94.6543L89.4601 92.64Z" fill="white"/>
<path d="M91.4508 90.6253L89.4346 90.6396L89.4489 92.6539L91.4651 92.6396L91.4508 90.6253Z" fill="#71495A"/>
<path d="M93.4675 90.599L91.4513 90.6133L91.4656 92.6276L93.4818 92.6133L93.4675 90.599Z" fill="#D8BFB4"/>
<path d="M91.4765 92.64L89.4603 92.6543L89.4747 94.6686L91.4909 94.6543L91.4765 92.64Z" fill="#D8BFB4"/>
<path d="M93.4658 92.6116L91.4496 92.626L91.464 94.6403L93.4802 94.6259L93.4658 92.6116Z" fill="white"/>
<path d="M95.4565 90.5999L93.4403 90.6143L93.4547 92.6285L95.4709 92.6142L95.4565 90.5999Z" fill="#71495A"/>
<path d="M97.4741 90.5706L95.4579 90.585L95.4722 92.5992L97.4884 92.5849L97.4741 90.5706Z" fill="#D8BFB4"/>
<path d="M95.4847 92.5882L93.4685 92.6025L93.4828 94.6168L95.499 94.6025L95.4847 92.5882Z" fill="#D8BFB4"/>
<path d="M97.4998 92.5863L95.4836 92.6006L95.498 94.6149L97.5142 94.6005L97.4998 92.5863Z" fill="white"/>
<path d="M99.4903 90.5706L97.4741 90.585L97.4885 92.5992L99.5046 92.5849L99.4903 90.5706Z" fill="#71495A"/>
<path d="M99.4933 92.5641H99.9443C99.9708 91.928 99.9973 91.2654 100.024 90.5498H99.4933V92.5641Z" fill="#D8BFB4"/>
<path d="M99.4881 92.5609L97.4719 92.5752L97.4863 94.5895L99.5024 94.5752L99.4881 92.5609Z" fill="#D8BFB4"/>
<path d="M99.4931 94.5797H99.7584C99.8114 93.9436 99.8645 93.281 99.9176 92.5654H99.4666L99.4931 94.5797Z" fill="white"/>
<path d="M47.0983 94.9502C47.1779 95.5598 47.2574 96.1429 47.337 96.6994V94.9502H47.0983Z" fill="#71495A"/>
<path d="M49.3277 94.9238L47.3115 94.9503V96.6996C47.3381 96.7791 47.3381 96.8851 47.3646 96.9646L49.3277 96.9381V94.9238Z" fill="#D8BFB4"/>
<path d="M49.328 96.9375L47.3649 96.964C47.4975 97.7061 47.6302 98.3687 47.7628 98.9783H49.3545L49.328 96.9375Z" fill="white"/>
<path d="M51.3375 94.9202L49.3213 94.9346L49.3356 96.9489L51.3518 96.9345L51.3375 94.9202Z" fill="#71495A"/>
<path d="M53.3529 94.8929L51.3367 94.9072L51.351 96.9215L53.3672 96.9072L53.3529 94.8929Z" fill="#D8BFB4"/>
<path d="M51.3654 96.9329L49.3492 96.9473L49.3636 98.9615L51.3798 98.9472L51.3654 96.9329Z" fill="#D8BFB4"/>
<path d="M53.3529 96.9065L51.3367 96.9209L51.351 98.9352L53.3673 98.9208L53.3529 96.9065Z" fill="white"/>
<path d="M55.3443 94.8929L53.3281 94.9072L53.3424 96.9215L55.3586 96.9072L55.3443 94.8929Z" fill="#71495A"/>
<path d="M57.3615 94.8656L55.3453 94.8799L55.3597 96.8942L57.3759 96.8798L57.3615 94.8656Z" fill="#D8BFB4"/>
<path d="M55.3713 96.9066L53.3551 96.9209L53.3694 98.9352L55.3856 98.9209L55.3713 96.9066Z" fill="#D8BFB4"/>
<path d="M57.3862 96.8812L55.37 96.8955L55.3843 98.9098L57.4005 98.8955L57.3862 96.8812Z" fill="white"/>
<path d="M59.3767 94.8675L57.3605 94.8818L57.3749 96.8961L59.3911 96.8818L59.3767 94.8675Z" fill="#71495A"/>
<path d="M61.3662 94.8402L59.35 94.8545L59.3643 96.8688L61.3805 96.8545L61.3662 94.8402Z" fill="#D8BFB4"/>
<path d="M59.3757 96.8538L57.3595 96.8682L57.3738 98.8825L59.39 98.8681L59.3757 96.8538Z" fill="#D8BFB4"/>
<path d="M59.3835 96.8584L59.4101 98.8727H59.7815C60.3386 98.6077 60.8957 98.3691 61.4263 98.1041V96.8584H59.3835Z" fill="white"/>
<path d="M63.3836 94.8402L61.3674 94.8545L61.3818 96.8688L63.398 96.8545L63.3836 94.8402Z" fill="#71495A"/>
<path d="M63.3621 94.8174L63.3886 96.8317H63.7335C64.3171 96.4871 64.8742 96.1691 65.3783 95.8245V94.8174H63.3621Z" fill="#D8BFB4"/>
<path d="M61.3716 96.8584V98.1041C62.0879 97.7595 62.7511 97.3885 63.3613 97.0439V96.8584H61.3716Z" fill="#D8BFB4"/>
<path d="M63.3879 97.0195C63.4941 96.9665 63.6267 96.887 63.7328 96.834H63.3879V97.0195Z" fill="white"/>
<path d="M65.3777 95.8266C65.9348 95.4821 66.4389 95.1375 66.9164 94.793H65.3777V95.8266Z" fill="#71495A"/>
<path d="M79.9419 94.7109C80.4194 95.029 80.8969 95.347 81.4541 95.6916V94.7109H79.9419Z" fill="#D8BFB4"/>
<path d="M83.4444 94.6855L81.4282 94.712V95.6927C81.9588 96.0372 82.5424 96.3553 83.1526 96.6998H83.4444V94.6855Z" fill="#71495A"/>
<path d="M85.4557 94.68L83.4395 94.6943L83.4538 96.7086L85.47 96.6943L85.4557 94.68Z" fill="#D8BFB4"/>
<path d="M83.1519 96.6992C83.258 96.7522 83.3376 96.8052 83.4437 96.8582V96.6992H83.1519Z" fill="#D8BFB4"/>
<path d="M83.4694 96.6984V96.8574C84.106 97.2019 84.7693 97.5465 85.4855 97.891V96.6719L83.4694 96.6984Z" fill="white"/>
<path d="M87.4707 94.6527L85.4545 94.667L85.4688 96.6813L87.485 96.667L87.4707 94.6527Z" fill="#71495A"/>
<path d="M89.4895 94.6527L87.4733 94.667L87.4876 96.6813L89.5038 96.6669L89.4895 94.6527Z" fill="#D8BFB4"/>
<path d="M87.4761 96.6719L85.4598 96.6984V97.9175C86.017 98.1826 86.5741 98.4476 87.1577 98.6862H87.4761V96.6719Z" fill="#D8BFB4"/>
<path d="M89.4868 96.6429L87.4706 96.6572L87.4849 98.6715L89.5011 98.6572L89.4868 96.6429Z" fill="white"/>
<path d="M91.4765 94.6263L89.4603 94.6406L89.4747 96.6549L91.4909 96.6405L91.4765 94.6263Z" fill="#71495A"/>
<path d="M93.4939 94.6263L91.4778 94.6406L91.4921 96.6549L93.5083 96.6406L93.4939 94.6263Z" fill="#D8BFB4"/>
<path d="M91.5038 96.6419L89.4875 96.6562L89.5019 98.6705L91.5181 98.6562L91.5038 96.6419Z" fill="#D8BFB4"/>
<path d="M93.4939 96.6155L91.4778 96.6299L91.4922 98.6442L93.5083 98.6298L93.4939 96.6155Z" fill="white"/>
<path d="M95.5103 94.6018L93.4941 94.6162L93.5085 96.6305L95.5247 96.6161L95.5103 94.6018Z" fill="#71495A"/>
<path d="M97.4998 94.6018L95.4836 94.6162L95.498 96.6305L97.5142 96.6161L97.4998 94.6018Z" fill="#D8BFB4"/>
<path d="M95.5093 96.6146L93.4932 96.6289L93.5075 98.6432L95.5237 98.6289L95.5093 96.6146Z" fill="#D8BFB4"/>
<path d="M97.5266 96.5882L95.5104 96.6025L95.5247 98.6168L97.5409 98.6025L97.5266 96.5882Z" fill="white"/>
<path d="M99.5172 94.5736L97.501 94.5879L97.5153 96.6022L99.5315 96.5878L99.5172 94.5736Z" fill="#71495A"/>
<path d="M99.5204 96.567C99.6265 95.9574 99.7061 95.2683 99.7857 94.5527H99.5204V96.567Z" fill="#D8BFB4"/>
<path d="M97.5028 96.5928L97.5293 98.6071H99.1741C99.3067 98.024 99.4129 97.3879 99.519 96.6723V96.5928H97.5028Z" fill="#D8BFB4"/>
<path d="M49.353 98.9512H47.7612C47.8143 99.1367 47.8408 99.3222 47.8939 99.4812C48.0265 100.064 48.3449 100.568 48.7428 100.939H49.353V98.9512Z" fill="#D8BFB4"/>
<path d="M48.7433 100.94C48.929 101.126 49.1412 101.285 49.38 101.418V100.94H48.7433Z" fill="white"/>
<path d="M51.3654 98.9231L49.3492 98.9375L49.3636 100.952L51.3798 100.937L51.3654 98.9231Z" fill="#71495A"/>
<path d="M53.3808 98.9232L51.3646 98.9375L51.379 100.952L53.3952 100.937L53.3808 98.9232Z" fill="#D8BFB4"/>
<path d="M49.3804 100.941V101.418C49.964 101.762 50.6803 101.895 51.3966 101.789V100.914L49.3804 100.941Z" fill="#D8BFB4"/>
<path d="M51.3695 100.941V101.815C51.4756 101.789 51.6083 101.762 51.7144 101.736C52.2715 101.577 52.8286 101.418 53.3592 101.259V100.914L51.3695 100.941Z" fill="white"/>
<path d="M53.359 98.8994L53.3855 100.914H54.4732C54.7916 100.808 55.0834 100.702 55.4017 100.596V98.8994H53.359Z" fill="#71495A"/>
<path d="M55.3777 98.8996V100.596C56.0674 100.357 56.7307 100.119 57.3674 99.8537V98.873L55.3777 98.8996Z" fill="#D8BFB4"/>
<path d="M53.387 101.259C53.7584 101.153 54.1033 101.047 54.4747 100.914H53.387V101.259Z" fill="#D8BFB4"/>
<path d="M57.3928 98.873V99.8537C58.0826 99.5887 58.7458 99.2971 59.3825 99.0321V98.873H57.3928Z" fill="#71495A"/>
<path d="M59.3835 99.0321C59.5162 98.9791 59.6223 98.9261 59.755 98.873H59.3835V99.0321Z" fill="#D8BFB4"/>
<path d="M87.1835 98.6611C87.2896 98.7141 87.3957 98.7406 87.5018 98.7936V98.6611H87.1835Z" fill="#71495A"/>
<path d="M87.4751 98.6611V98.7937C88.1118 99.0587 88.8015 99.3502 89.4913 99.6153V98.6611H87.4751Z" fill="#D8BFB4"/>
<path d="M89.4937 98.6613V99.6154C90.1303 99.8539 90.8201 100.092 91.5098 100.331V98.6348L89.4937 98.6613Z" fill="#71495A"/>
<path d="M93.4986 98.6348L91.4824 98.6613V100.358C91.8008 100.464 92.1191 100.57 92.464 100.676H93.4986V98.6348Z" fill="#D8BFB4"/>
<path d="M93.525 100.622H92.4904C92.8352 100.728 93.1801 100.834 93.525 100.94V100.622Z" fill="white"/>
<path d="M95.5361 98.6048L93.5199 98.6191L93.5342 100.633L95.5504 100.619L95.5361 98.6048Z" fill="#71495A"/>
<path d="M97.5266 98.6048L95.5104 98.6191L95.5247 100.633L97.5409 100.619L97.5266 98.6048Z" fill="#D8BFB4"/>
<path d="M93.5243 100.622V100.94C94.0814 101.099 94.6385 101.258 95.2221 101.417C95.3283 101.444 95.4344 101.47 95.5405 101.47V100.622H93.5243Z" fill="#D8BFB4"/>
<path d="M95.5413 100.622V101.47C96.2575 101.576 96.9473 101.444 97.5575 101.099V100.596L95.5413 100.622Z" fill="white"/>
<path d="M97.5304 100.595H98.1936C98.5915 100.198 98.8833 99.6942 99.016 99.1111C99.0425 98.9521 99.0956 98.7666 99.1221 98.5811H97.4773L97.5304 100.595Z" fill="#71495A"/>
<path d="M97.5284 101.099C97.7672 100.967 98.006 100.781 98.1917 100.596H97.5284V101.099Z" fill="#D8BFB4"/>
<path d="M73.4431 87.557H74.8757C75.0083 87.4244 75.1409 87.2654 75.3532 87.0534C75.4062 87.0004 75.4593 86.9474 75.5389 86.8679C75.4328 86.7884 75.3001 86.7354 75.1409 86.7354H73.4431V87.557Z" fill="#71495A"/>
<path d="M75.3785 88.7236V87.0273C75.1928 87.2129 75.0336 87.3984 74.901 87.5309H73.4684V88.7236H75.3785Z" fill="#71495A"/>
<path d="M75.3793 88.7206H75.8037V87.3424C75.8037 87.1304 75.6976 86.9714 75.565 86.8389C75.5119 86.8919 75.4323 86.9714 75.3793 87.0244V88.7206Z" fill="#71495A"/>
<path d="M75.3807 88.7452L73.4706 88.7588L73.473 89.1034L75.3831 89.0898L75.3807 88.7452Z" fill="#71495A"/>
<path d="M75.8047 88.7216L75.3802 88.7246L75.3827 89.0691L75.8072 89.0661L75.8047 88.7216Z" fill="#71495A"/>
<path d="M75.1144 90.7366C74.9553 90.551 74.8226 90.4185 74.7165 90.3125H73.4431V91.3991H75.141C75.3002 91.3991 75.4593 91.3196 75.5654 91.2136C75.4858 91.1341 75.4063 91.0546 75.3532 91.0016C75.3001 90.9221 75.194 90.8161 75.1144 90.7366Z" fill="#D8BFB4"/>
<path d="M73.4684 89.0664V90.3121H74.7418C74.8214 90.4181 74.954 90.5506 75.1397 90.7361H75.405V89.0664H73.4684Z" fill="#D8BFB4"/>
<path d="M75.8001 89.0673L75.3756 89.0703L75.3875 90.7401L75.812 90.737L75.8001 89.0673Z" fill="#D8BFB4"/>
<path d="M75.3787 91.0014V90.7363H75.1134C75.193 90.8158 75.2991 90.9219 75.3787 91.0014Z" fill="#D8BFB4"/>
<path d="M75.8037 90.7628L75.3793 90.7363V91.0014C75.4589 91.0809 75.5119 91.1339 75.5915 91.2134C75.7507 91.1074 75.8303 90.9484 75.8037 90.7628Z" fill="#D8BFB4"/>
<path d="M71.3479 87.0269C71.5601 87.2389 71.7458 87.4244 71.8784 87.557H73.3641H73.4702V86.7354H71.7723C71.5866 86.7354 71.4274 86.8149 71.2948 86.9474C71.2948 86.9739 71.3213 87.0004 71.3479 87.0269Z" fill="#D8BFB4"/>
<path d="M71.1088 88.7476H71.3475V86.9983C71.321 86.9718 71.2945 86.9453 71.2945 86.9453C71.1884 87.0513 71.1088 87.2104 71.1088 87.3959V88.7476Z" fill="#D8BFB4"/>
<path d="M73.3626 87.5574H71.877C71.7444 87.4249 71.5587 87.2394 71.3464 87.0273V88.7766L73.3626 88.7501V87.5574Z" fill="#D8BFB4"/>
<path d="M71.3475 88.7483L71.1088 88.75L71.1112 89.0945L71.3499 89.0929L71.3475 88.7483Z" fill="#D8BFB4"/>
<path d="M73.3906 88.7447L71.3744 88.7588L71.3768 89.1033L73.393 89.0892L73.3906 88.7447Z" fill="#D8BFB4"/>
<path d="M73.4667 87.5569L73.3606 87.5576L73.3691 88.7503L73.4752 88.7495L73.4667 87.5569Z" fill="#D8BFB4"/>
<path d="M73.4689 88.7493L73.3628 88.75L73.3652 89.0945L73.4713 89.0938L73.4689 88.7493Z" fill="#D8BFB4"/>
<path d="M73.4688 90.3379H73.3626H72.0627C71.9831 90.4439 71.8505 90.5764 71.6913 90.762C71.6117 90.868 71.5056 90.974 71.373 91.08C71.3464 91.1065 71.3199 91.133 71.2668 91.186C71.373 91.345 71.5587 91.4245 71.7709 91.4245H73.4688V90.3379Z" fill="white"/>
<path d="M71.369 89.094L71.1302 89.0957L71.1421 90.7654L71.3809 90.7637L71.369 89.094Z" fill="white"/>
<path d="M71.3726 89.0938V90.7635H71.6909C71.8501 90.578 71.9827 90.4454 72.0623 90.3394H73.3622V89.0938H71.3726Z" fill="white"/>
<path d="M73.4663 89.0686L73.3601 89.0693L73.369 90.315L73.4751 90.3143L73.4663 89.0686Z" fill="white"/>
<path d="M71.3727 90.7617H71.1339V90.7882C71.1339 90.9472 71.187 91.0798 71.2666 91.1858C71.2931 91.1593 71.3462 91.1063 71.3727 91.0798V90.7617Z" fill="white"/>
<path d="M71.3726 91.0798C71.4787 90.9472 71.5848 90.8412 71.6909 90.7617H71.3726V91.0798Z" fill="white"/>
<path d="M34.5495 91.2417L34.2842 91.1092C33.7271 90.7912 33.1434 90.4466 32.6128 90.1286C32.3476 89.9696 32.1088 89.8105 31.8435 89.6515C31.1803 89.2275 30.5436 88.7769 29.9069 88.3263C29.7742 88.2468 29.6416 88.1408 29.5355 88.0613C29.4028 87.9553 29.2702 87.8758 29.1641 87.7697C28.7927 87.4782 28.4213 87.1867 28.0499 86.8951C27.9437 86.7891 27.8111 86.7096 27.705 86.6036L27.6784 86.5771C27.5723 86.4711 27.4397 86.3915 27.3336 86.2855C25.5561 84.7748 23.9113 83.1051 22.4788 81.2763C22.3726 81.1438 22.2931 81.0378 22.1869 80.9053C21.7094 80.2692 21.2319 79.6066 20.8074 78.9175C20.7278 78.785 20.6217 78.6524 20.5421 78.4934C20.4625 78.3609 20.383 78.2284 20.2768 78.0694C20.1973 77.9368 20.1177 77.7778 20.0381 77.6453C19.8524 77.3272 19.6932 77.0092 19.5075 76.6912C19.4544 76.5851 19.4014 76.4526 19.3218 76.3466C19.2422 76.1876 19.1626 76.0551 19.1096 75.896C19.03 75.737 18.9504 75.6045 18.8973 75.4455C18.8177 75.2865 18.7647 75.1539 18.6851 74.9949C18.5525 74.7034 18.4463 74.4383 18.3137 74.1468C18.2341 73.9613 18.1545 73.7757 18.1015 73.5902C18.0749 73.4842 18.0219 73.4047 17.9954 73.2987C17.9423 73.1927 17.9158 73.0601 17.8627 72.9541C17.8096 72.8216 17.7566 72.6626 17.7035 72.5036C17.5444 72 17.3852 71.4964 17.2525 70.9928C17.1995 70.8603 17.1729 70.7013 17.1464 70.5688C17.0934 70.3833 17.0668 70.2242 17.0138 70.0387C16.9872 69.8797 16.9342 69.7472 16.9077 69.5881C16.8811 69.4556 16.8546 69.2966 16.8281 69.1641C16.8015 68.9785 16.7485 68.8195 16.722 68.634C16.6954 68.4485 16.6424 68.2894 16.6158 68.1039C16.1648 65.48 16.0057 62.6441 16.2179 59.5697C16.2975 58.377 16.4036 57.2109 16.5363 56.0712C16.5893 55.6736 16.6424 55.2761 16.6689 54.8785C16.722 54.428 16.775 53.9774 16.8546 53.5533C16.9077 53.2883 16.9342 52.9968 16.9872 52.7317C17.2791 50.956 17.5974 49.2332 17.9954 47.5635C17.7035 48.9947 17.3587 51.062 17.1199 53.5268C16.9872 54.9315 16.8811 56.4688 16.8546 58.112C16.775 62.8562 17.2791 68.2894 19.2422 73.2457C23.0624 82.893 34.0985 91.3478 41.6062 92.1959C41.5266 92.1959 37.3615 92.3284 34.5495 91.2417Z" fill="#B6724D"/>
<path d="M128.835 55.6973C128.941 56.4659 129.02 57.261 129.1 58.0561C129.127 58.2947 129.153 58.5067 129.153 58.7453C129.18 58.9573 129.18 59.1428 129.206 59.3548C129.206 59.3813 129.206 59.4078 129.206 59.4343C129.206 59.4343 129.206 59.4608 129.206 59.4874C129.206 59.6994 129.233 59.9114 129.233 60.1234C129.233 60.1765 129.233 60.256 129.233 60.3355C129.233 60.5475 129.259 60.7595 129.259 60.9451C129.259 60.9981 129.259 61.0511 129.259 61.1041C129.259 61.3426 129.259 61.5812 129.259 61.8197C129.259 62.0582 129.259 62.3233 129.259 62.5618C129.259 62.5883 129.259 62.5883 129.259 62.6148C129.259 62.8533 129.233 63.1184 129.233 63.3569C129.233 63.5689 129.206 63.781 129.206 63.9665C129.206 64.0725 129.206 64.152 129.18 64.2315C129.153 64.4171 129.153 64.6026 129.127 64.8146C129.127 64.8411 129.127 64.8411 129.127 64.8676C129.1 65.1062 129.074 65.3447 129.047 65.5832C129.02 65.7953 128.994 66.0338 128.967 66.2458C128.967 66.2988 128.967 66.3253 128.941 66.3783C128.914 66.5904 128.888 66.8024 128.835 67.0144C128.808 67.2265 128.755 67.4385 128.729 67.624C128.702 67.7035 128.702 67.783 128.676 67.8626C128.649 68.0481 128.596 68.2071 128.569 68.3926C128.569 68.4191 128.569 68.4191 128.569 68.4456C128.516 68.6577 128.463 68.8962 128.41 69.1082C128.357 69.3468 128.304 69.5588 128.251 69.7708C128.198 69.9829 128.145 70.2214 128.065 70.4334C128.012 70.6455 127.933 70.8575 127.88 71.0695C127.88 71.096 127.88 71.096 127.853 71.1225C127.8 71.308 127.747 71.4936 127.667 71.6791C127.641 71.7321 127.641 71.7851 127.614 71.8381C127.561 71.9971 127.508 72.1827 127.429 72.3417C127.349 72.5537 127.27 72.7658 127.19 72.9778C127.004 73.4284 126.819 73.8789 126.633 74.3295C126.553 74.4885 126.5 74.6475 126.421 74.8066C125.678 76.3968 124.802 77.881 123.821 79.2857C123.741 79.3917 123.688 79.4977 123.609 79.5772C123.529 79.6833 123.476 79.7893 123.396 79.8688C123.264 80.0543 123.131 80.2133 122.998 80.3988C122.627 80.8759 122.229 81.353 121.831 81.8301C121.752 81.9361 121.672 82.0156 121.566 82.1216C121.433 82.2541 121.327 82.3866 121.194 82.5192C121.115 82.6252 121.009 82.7047 120.929 82.8107C120.717 83.0492 120.505 83.2613 120.266 83.4998C120.16 83.6058 120.054 83.7118 119.974 83.7913C119.974 83.8178 119.948 83.8178 119.921 83.8443C119.788 83.9769 119.629 84.1359 119.497 84.2684C119.47 84.2949 119.47 84.2949 119.443 84.3214C119.284 84.4539 119.152 84.613 118.992 84.7455C118.807 84.9045 118.648 85.0635 118.462 85.2225C118.329 85.3286 118.197 85.4611 118.064 85.5671C117.348 86.1767 116.631 86.7598 115.862 87.3163C115.703 87.4224 115.57 87.5284 115.411 87.6609C115.252 87.7669 115.093 87.8994 114.934 88.0054C114.854 88.0585 114.774 88.1115 114.695 88.1645C114.536 88.2705 114.376 88.403 114.217 88.509C113.66 88.8801 113.103 89.2511 112.546 89.5957L110.981 89.1186C123.237 82.0156 127.641 71.7851 128.331 62.3498C128.755 56.678 127.959 50.8736 127.27 47.1631C127.933 49.8665 128.463 52.7024 128.835 55.6973Z" fill="#B6724D"/>
<path d="M61.1348 39.8497C57.5534 40.4063 54.7944 41.4134 52.7251 42.3941C52.0884 42.7121 51.5313 43.0036 51.0273 43.2952C50.6028 42.8976 50.2314 42.4206 49.9396 41.8905C49.6478 41.3604 49.4621 40.7773 49.3559 40.1412C49.3029 39.7437 49.2764 39.3196 49.3029 38.9221C49.4355 37.1463 50.3906 35.5826 51.8497 34.655C52.4864 34.2574 53.2027 33.9924 53.972 33.8598L54.7944 33.7273C57.3942 33.3298 59.8614 34.814 60.7634 37.1728C60.9226 37.5439 61.0287 37.9414 61.0818 38.3655C61.1879 38.8691 61.1879 39.3726 61.1348 39.8497Z" fill="#333132"/>
<path d="M60.8145 37.1728C59.435 39.2401 57.0208 40.5918 54.2618 40.5918C52.4048 40.5918 50.6804 39.9557 49.3274 38.9221C49.46 37.1463 50.4151 35.5826 51.8742 34.655C52.5109 34.2574 53.2272 33.9924 53.9965 33.8598L54.8189 33.7273C57.4187 33.3298 59.886 34.814 60.8145 37.1728Z" fill="#272425"/>
<path d="M55.4473 37.7894C56.5047 37.6284 57.2348 36.6649 57.078 35.6375C56.9213 34.6101 55.937 33.9078 54.8796 34.0688C53.8223 34.2298 53.0922 35.1932 53.2489 36.2207C53.4057 37.2481 54.39 37.9504 55.4473 37.7894Z" fill="white"/>
<path d="M48.2933 45.7595C48.1872 45.786 48.0546 45.7329 47.975 45.6534C47.8158 45.4944 47.8158 45.2559 47.975 45.0969C48.1607 44.9113 52.3788 40.6972 61.7701 39.372C61.9823 39.3455 62.1945 39.5046 62.2211 39.7166C62.2476 39.9286 62.0884 40.1406 61.8762 40.1671C57.1275 40.8297 53.7583 42.2875 51.7421 43.4006C49.5932 44.5933 48.5321 45.6534 48.5321 45.6534C48.4525 45.7064 48.3729 45.7329 48.2933 45.7595Z" fill="#43281F"/>
<path d="M84.1866 39.8497C87.768 40.4063 90.527 41.4134 92.5963 42.3941C93.233 42.7121 93.7901 43.0036 94.2942 43.2952C94.7186 42.8976 95.09 42.4206 95.3819 41.8905C95.6737 41.3604 95.8594 40.7773 95.9655 40.1412C96.0186 39.7437 96.0451 39.3196 96.0185 38.9221C95.8859 37.1463 94.9309 35.5826 93.4718 34.655C92.8351 34.2574 92.1188 33.9924 91.3494 33.8598L90.527 33.7273C87.9272 33.3298 85.46 34.814 84.558 37.1728C84.3988 37.5439 84.2927 37.9414 84.2396 38.3655C84.1335 38.8691 84.1335 39.3726 84.1866 39.8497Z" fill="#333132"/>
<path d="M84.5315 37.1728C85.911 39.2401 88.3252 40.5918 91.0842 40.5918C92.9412 40.5918 94.6656 39.9557 96.0186 38.9221C95.886 37.1463 94.9309 35.5826 93.4718 34.655C92.8351 34.2574 92.1188 33.9924 91.3495 33.8598L90.5271 33.7273C87.9007 33.3298 85.4335 34.814 84.5315 37.1728Z" fill="#272425"/>
<path d="M92.0638 36.2316C92.2205 35.2042 91.4904 34.2408 90.4331 34.0797C89.3757 33.9187 88.3914 34.6211 88.2347 35.6485C88.0779 36.6759 88.808 37.6393 89.8654 37.8004C90.9227 37.9614 91.907 37.259 92.0638 36.2316Z" fill="white"/>
<path d="M97.0255 45.7595C97.1316 45.786 97.2642 45.7329 97.3438 45.6534C97.503 45.4944 97.503 45.2559 97.3438 45.0969C97.1581 44.9113 92.94 40.6972 83.5487 39.372C83.3365 39.3455 83.1243 39.5046 83.0977 39.7166C83.0712 39.9286 83.2304 40.1406 83.4426 40.1671C88.1913 40.8297 91.5605 42.2875 93.5767 43.4006C95.7256 44.5933 96.7867 45.6534 96.7867 45.6534C96.8663 45.7064 96.9459 45.7329 97.0255 45.7595Z" fill="#43281F"/>
<path d="M80.1017 58.2158C80.1017 58.2158 79.3323 59.7795 78.7487 62.5359C78.563 63.3575 78.2712 64.3117 77.8202 65.2128C76.8121 67.2801 75.0612 69.1884 72.5674 69.1354C70.0472 69.1884 68.3228 67.2801 67.3147 65.2128C66.8637 64.3117 66.5719 63.3575 66.3862 62.5359C65.8025 59.806 65.0332 58.2158 65.0332 58.2158H65.1658C67.3147 59.488 69.8615 60.2036 72.6205 60.1771C75.2469 60.1506 77.7141 59.435 79.7568 58.2158H80.1017Z" fill="#43281F"/>
<path d="M77.8196 65.2143C76.8115 67.2816 75.0606 69.1899 72.5668 69.1369C70.0466 69.1899 68.3222 67.2816 67.3141 65.2143C67.712 65.0023 68.1365 64.8167 68.614 64.6577C69.7813 64.2337 71.1343 63.9951 72.5934 63.9951C73.9994 63.9951 75.3259 64.2072 76.4666 64.6047C76.9441 64.7902 77.3951 65.0023 77.8196 65.2143Z" fill="#C45D69"/>
<path d="M76.4404 64.6312C75.4589 65.7709 74.1324 66.566 72.5141 66.513C70.8959 66.5395 69.596 65.7709 68.6144 64.6577C69.7817 64.2337 71.1346 63.9951 72.5937 63.9951C73.9732 63.9951 75.2997 64.2337 76.4404 64.6312Z" fill="#D67679"/>
<path d="M147.934 93.2277C147.775 93.8902 147.562 94.5528 147.297 95.1889C145.307 99.8801 140.187 103.167 130.478 103.591C117.054 104.174 110.952 98.4224 110.156 91.9555C110.13 91.7699 110.103 91.5579 110.103 91.3724C110.077 91.1339 110.077 90.9218 110.077 90.6833C109.997 85.8331 111.562 82.4671 114.587 80.1878C114.613 80.1613 114.666 80.1348 114.693 80.1083C117.691 77.8819 122.121 76.6893 127.798 76.1592C136.288 75.3376 143.981 78.1735 146.979 83.8188C147.058 83.9778 147.138 84.1103 147.191 84.2694C147.722 85.3825 148.066 86.6017 148.199 87.9004C148.385 89.7556 148.305 91.5579 147.934 93.2277Z" fill="#B6724D"/>
<path d="M147.297 95.1627C145.307 99.8539 140.187 103.14 130.478 103.564C117.054 104.147 110.952 98.3961 110.156 91.9292C110.103 91.5052 110.077 91.0811 110.077 90.657C109.997 85.8068 111.562 82.4409 114.587 80.1615C114.613 80.135 114.666 80.1085 114.693 80.082C113.924 83.7926 113.711 92.7243 129.337 92.7243C142.31 92.7243 146.607 88.2452 146.952 83.7926C147.032 83.9516 147.111 84.0841 147.164 84.2431C147.695 85.3563 148.04 86.5755 148.173 87.8741C148.464 90.498 148.226 92.9894 147.297 95.1627Z" fill="#AD6946"/>
<path d="M147.297 95.1642C145.307 99.8554 140.187 103.142 130.478 103.566C117.054 104.149 110.952 98.3977 110.156 91.9308C110.103 91.5067 110.077 91.0826 110.077 90.6586C109.997 85.8084 111.562 82.4424 114.587 80.1631C113.207 84.9603 110.926 98.3447 128.462 98.6627C144.91 98.9808 147.509 90.367 147.191 84.2182C147.722 85.3313 148.066 86.5505 148.199 87.8492C148.464 90.4996 148.226 92.9909 147.297 95.1642Z" fill="#945339"/>
<path d="M147.297 95.1629C147.881 92.115 148.093 85.8336 145.042 82.8917C138.198 76.2392 122.413 76.8223 115.409 81.328C110.289 84.6409 110.156 91.956 110.156 91.956C110.103 91.5319 110.077 91.1079 110.077 90.6838C109.918 81.0099 116.285 77.2464 127.798 76.1332C138.145 75.1526 147.324 79.5522 148.226 87.8744C148.464 90.4983 148.226 92.9896 147.297 95.1629Z" fill="#D59A77"/>
<path d="M147.934 93.2277C147.775 93.8903 147.563 94.5529 147.298 95.189C145.308 99.8802 140.188 103.167 130.478 103.591C117.054 104.174 110.953 98.4225 110.157 91.9556C110.13 91.77 110.104 91.558 110.104 91.3725L110.157 91.293C110.157 91.293 111.032 103.22 129.868 102.928C141.673 102.743 146.21 97.2563 147.934 93.2277Z" fill="#AD6946"/>
<path d="M0.593166 93.2277C0.75234 93.8902 0.964572 94.5528 1.22986 95.1889C3.21954 99.8801 8.33964 103.167 18.0493 103.591C31.473 104.174 37.5746 98.4224 38.3705 91.9555C38.397 91.7699 38.4236 91.5579 38.4236 91.3724C38.4501 91.1339 38.4501 90.9218 38.4501 90.6833C38.5297 85.8331 36.9645 82.4671 33.9402 80.1878C33.9136 80.1613 33.8606 80.1348 33.834 80.1083C30.8363 77.8819 26.4059 76.6893 20.7287 76.1592C12.2394 75.3376 4.54599 78.1735 1.54821 83.8188C1.46862 83.9778 1.38904 84.1103 1.33598 84.2694C0.805398 85.3825 0.460521 86.6017 0.327876 87.9004C0.142173 89.7556 0.195231 91.5579 0.593166 93.2277Z" fill="#B6724D"/>
<path d="M1.23075 95.1627C3.22043 99.8539 8.34053 103.14 18.0502 103.564C31.4738 104.147 37.5755 98.3961 38.3714 91.9292C38.4244 91.5052 38.451 91.0811 38.451 90.657C38.5306 85.8068 36.9654 82.4409 33.941 80.1615C33.9145 80.135 33.8615 80.1085 33.8349 80.082C34.6043 83.7926 34.8165 92.7243 19.1909 92.7243C6.21821 92.7243 1.92051 88.2452 1.57563 83.7926C1.49604 83.9516 1.41645 84.0841 1.36339 84.2431C0.832814 85.3563 0.487937 86.5755 0.355292 87.8741C0.0634724 90.498 0.302233 92.9894 1.23075 95.1627Z" fill="#AD6946"/>
<path d="M1.22999 95.1633C3.21967 99.8544 8.33977 103.141 18.0494 103.565C31.4731 104.148 37.5748 98.3967 38.3706 91.9298C38.4237 91.5057 38.4502 91.0817 38.4502 90.6576C38.5298 85.8074 36.9646 82.4414 33.9403 80.1621C35.3198 84.9593 37.6013 98.3437 20.0656 98.6618C3.6176 98.9798 1.01776 90.3661 1.3361 84.2172C0.805523 85.3304 0.460646 86.5495 0.328001 87.8482C0.0627104 90.4986 0.301471 92.9899 1.22999 95.1633Z" fill="#945339"/>
<path d="M1.22934 95.1629C0.645701 92.115 0.433469 85.8336 3.48431 82.8917C10.3288 76.2392 26.1136 76.8223 33.1172 81.328C38.2373 84.6409 38.37 91.956 38.37 91.956C38.423 91.5319 38.4496 91.1079 38.4496 90.6838C38.6087 81.0099 32.2418 77.2464 20.7282 76.1332C10.3819 75.1526 1.20281 79.5522 0.300824 87.8744C0.0620627 90.4983 0.300824 92.9896 1.22934 95.1629Z" fill="#D59A77"/>
<path d="M0.59314 93.2287C0.752314 93.8913 0.964545 94.5539 1.22984 95.19C3.21951 99.8812 8.33961 103.168 18.0492 103.592C31.4729 104.175 37.5746 98.4235 38.3705 91.9565C38.397 91.771 38.4235 91.559 38.4235 91.3735L38.3705 91.2939C38.3705 91.2939 37.495 103.221 18.6594 102.929C6.85399 102.744 2.31753 97.2573 0.59314 93.2287Z" fill="#AD6946"/>
</svg>
