<svg width="195" height="176" viewBox="0 0 195 176" fill="none" xmlns="http://www.w3.org/2000/svg">
<path d="M190.581 154.268C190.581 154.268 189.12 154.234 186.674 154.2C172.983 153.996 128.003 153.249 127.596 153.147C127.256 153.045 148.693 134.156 160.617 124.202C165.101 120.465 168.261 117.985 168.431 118.223C168.431 118.223 168.804 118.461 169.45 118.868C173.493 121.586 188.576 132.491 190.785 146.42C191.192 148.934 191.158 151.584 190.581 154.268Z" fill="#945339"/>
<path d="M190.582 154.268C190.582 154.268 189.121 154.234 186.675 154.2C182.088 135.413 166.767 126.886 160.652 124.202C165.136 120.465 168.296 117.985 168.465 118.223C168.465 118.223 168.839 118.461 169.485 118.868C173.527 121.586 188.611 132.491 190.819 146.42C191.193 148.934 191.159 151.584 190.582 154.268Z" fill="#AD6946"/>
<path d="M44.5659 48.7492C37.3637 60.5377 46.7062 68.7251 51.0547 71.7147C52.2437 72.53 53.0591 72.9717 53.0591 72.9717L61.4163 59.3487L63.4547 55.7476L69.3659 45.25C69.3659 45.1821 53.2969 34.5826 44.5659 48.7492ZM31.5884 41.2413C31.5884 41.2413 31.5884 41.2752 31.5884 41.2413C31.4525 41.4791 31.3506 41.6489 31.2147 41.8528C30.5352 43.0758 29.9237 44.2648 29.3801 45.4199C18.7467 68.9289 40.3533 82.7558 46.6722 86.187C47.6914 86.7646 48.3369 87.0363 48.3369 87.0363L64.8476 61.8626L64.8815 61.8966L65.1533 61.387L65.527 60.8435L65.4591 60.8095L74.3939 43.7552L79.2859 34.4467L79.4218 34.175C79.4218 34.2089 49.2881 11.9908 31.5884 41.2413Z" fill="#B6724D"/>
<path d="M61.7578 58.7037L61.4181 59.3152L61.1803 59.7229L53.0948 72.9382C53.0948 72.9382 49.8674 71.2735 46.8778 68.182C43.0049 64.1733 39.5397 57.7524 44.126 49.5311C44.3638 49.0894 44.6016 48.6818 44.8734 48.3081C45.0433 48.0363 45.2131 47.7985 45.383 47.5607C52.6532 37.4708 64.0679 42.2949 68.0088 44.4012C68.8921 44.8768 69.4017 45.2165 69.4017 45.2165L61.7578 58.7037Z" fill="#DCBD8A"/>
<path d="M65.4588 60.8433L65.5268 60.8773L65.1531 61.4209L64.8813 61.9304L64.8473 61.8965L48.3366 87.0702C48.3366 87.0702 19.7317 74.0247 28.021 48.9869C28.3947 47.8318 28.8703 46.6428 29.4139 45.4537C29.6857 53.811 30.1613 67.2302 45.7887 76.131C45.7887 76.131 47.0796 71.3409 47.9629 69.0987C49.3218 65.5995 51.0544 62.3041 52.9569 59.2126C55.5388 55.068 58.5284 51.2291 61.518 47.628C64.9832 43.4833 70.6566 47.3222 74.3597 43.7891L65.4588 60.8433Z" fill="#945339"/>
<path d="M52.9919 59.213C48.7793 69.8804 46.8088 81.1593 46.8088 81.1593C29.6866 71.4771 27.1387 58.3637 28.022 48.9873C28.3957 47.8322 28.8713 46.6431 29.4149 45.4541C29.6866 53.8114 30.1623 67.2306 45.7897 76.1314C45.7897 76.1314 47.0806 71.3412 47.9639 69.099C49.3228 65.5999 51.0554 62.3045 52.9919 59.213Z" fill="#AD6946"/>
<path d="M60.6689 46.6774C50.9527 55.2045 47.8612 63.4259 46.876 68.1821C43.0031 64.1733 39.5379 57.7525 44.1242 49.5311C44.362 49.0895 44.5998 48.6818 44.8716 48.3081C45.0415 48.0363 45.2113 47.7985 45.3812 47.5607C52.3456 43.416 60.6689 46.6774 60.6689 46.6774Z" fill="#ECD09C"/>
<path d="M79.4215 34.2091L79.2856 34.4809L77.4511 35.3302C77.4511 35.3302 70.4867 30.3362 62.0276 28.7735C53.5344 27.2108 42.9349 30.0305 36.718 37.3346C30.501 44.6727 25.6429 58.4995 30.8067 68.4875C35.5289 77.6601 45.1771 85.0661 46.7059 86.2212C40.421 82.79 18.7804 68.9291 29.4138 45.4541C29.9574 44.299 30.5689 43.076 31.2484 41.8869C31.3503 41.6831 31.4862 41.5132 31.5881 41.3094C31.5881 41.3094 31.5881 41.2754 31.6221 41.2754C49.2878 11.991 79.4215 34.2091 79.4215 34.2091Z" fill="#D59A77"/>
<path d="M67.973 44.4012L66.9199 46.1678C55.505 40.936 48.6766 44.3333 44.8376 48.3081C52.0738 37.233 63.9642 42.227 67.973 44.4012Z" fill="#C59F6D"/>
<path d="M141.049 26.3272L151.241 32.782L154.74 34.9902L168.533 43.0417C168.533 43.0417 169.042 42.2943 169.722 41.0033C172.134 36.3151 176.516 24.6625 164.592 17.6981C150.188 9.37484 141.049 26.3272 141.049 26.3272ZM126.984 21.3672L127.256 21.537L135.953 27.4483L151.886 38.2516L151.852 38.3195L152.43 38.6253L152.905 38.931L152.939 38.897L179.37 53.2675C179.37 53.2675 179.778 52.7239 180.423 51.7387C184.33 45.7255 196.832 23.3036 176.347 7.64223C175.327 6.86086 174.24 6.11347 173.051 5.36607C172.847 5.26415 172.678 5.12826 172.474 5.02634H172.44C143.019 -12.4356 126.984 21.3672 126.984 21.3672Z" fill="#B6724D"/>
<path d="M154.162 34.6162L154.74 34.9899L155.147 35.2277L168.532 43.0414C168.532 43.0414 170.571 40.0518 171.76 35.9072C173.289 30.5395 173.289 23.2694 165.373 18.1735C164.965 17.9017 164.558 17.6639 164.15 17.46C163.878 17.3241 163.606 17.1883 163.335 17.0524C152.158 11.6167 144.378 21.265 141.898 24.968C141.354 25.7833 141.049 26.3269 141.049 26.3269L154.162 34.6162Z" fill="#DCBD8A"/>
<path d="M151.885 38.2509L151.851 38.3189L152.429 38.6246L152.904 38.9304L152.938 38.8964L179.369 53.2668C179.369 53.2668 198.393 28.229 179.233 10.0876C178.35 9.23831 177.398 8.42297 176.345 7.6416C180.048 15.1156 185.993 27.1419 176.447 42.4296C176.447 42.4296 173.05 38.8285 171.181 37.2657C168.328 34.8197 165.27 32.7474 162.111 30.9468C157.864 28.5008 153.414 26.5304 149.065 24.7978C144.037 22.7934 140.878 28.8405 135.952 27.4816L151.885 38.2509Z" fill="#945339"/>
<path d="M162.111 30.9128C170.876 38.3189 177.942 47.3216 177.942 47.3216C188.44 30.675 184.499 17.9013 179.267 10.0876C178.384 9.23831 177.433 8.42297 176.38 7.6416C180.083 15.1156 186.028 27.1419 176.481 42.4296C176.481 42.4296 173.084 38.8285 171.216 37.2657C168.362 34.8197 165.305 32.7474 162.111 30.9128Z" fill="#AD6946"/>
<path d="M149.405 23.507C161.975 26.4286 168.633 32.204 171.759 35.941C173.288 30.5733 173.288 23.3031 165.372 18.2073C164.964 17.9355 164.557 17.6977 164.149 17.4938C163.877 17.3579 163.605 17.222 163.334 17.0862C155.18 16.7125 149.405 23.507 149.405 23.507Z" fill="#ECD09C"/>
<path d="M126.984 21.3667L127.256 21.5365L129.26 21.4346C129.26 21.4346 133.031 13.7228 139.757 8.35514C146.484 2.9535 157.151 0.439523 166.12 3.9387C175.055 7.43788 185.892 17.3579 186.096 28.5689C186.266 38.8626 181.272 49.9716 180.457 51.7042C184.364 45.691 196.865 23.2691 176.38 7.60774C175.361 6.82637 174.274 6.07898 173.085 5.33158C172.881 5.22966 172.711 5.09377 172.507 4.99185H172.473C143.019 -12.4361 126.984 21.3667 126.984 21.3667Z" fill="#D59A77"/>
<path d="M141.898 24.9671L143.664 26.0203C151.24 15.9984 158.884 15.7606 164.116 17.4592C152.531 11.1403 144.412 21.1622 141.898 24.9671Z" fill="#C59F6D"/>
<path d="M187.013 65.3607C187.353 66.312 187.693 67.2632 188.033 68.2144C188.135 68.4862 188.236 68.792 188.304 69.0637C188.372 69.3015 188.474 69.5394 188.542 69.8111C188.542 69.8451 188.576 69.8791 188.576 69.9131C188.576 69.9131 188.576 69.947 188.576 69.981C188.644 70.2528 188.746 70.4906 188.814 70.7624C188.848 70.8303 188.848 70.9322 188.882 71.0002C188.95 71.272 189.018 71.5098 189.086 71.7476C189.12 71.8155 189.12 71.8835 189.12 71.9514C189.188 72.2572 189.256 72.5629 189.324 72.8347C189.391 73.1405 189.459 73.4462 189.527 73.752C189.527 73.7859 189.527 73.7859 189.527 73.8199C189.595 74.1257 189.663 74.4314 189.697 74.7711C189.731 75.0429 189.799 75.2807 189.833 75.5525C189.867 75.6544 189.867 75.7903 189.901 75.8922C189.935 76.13 189.969 76.3679 190.003 76.6057C190.003 76.6396 190.003 76.6396 190.003 76.6736C190.037 76.9794 190.071 77.2851 190.105 77.5909C190.139 77.8626 190.173 78.1684 190.207 78.4402C190.207 78.5081 190.207 78.5761 190.207 78.61C190.241 78.8818 190.275 79.1536 190.275 79.4254C190.309 79.6972 190.309 79.9689 190.309 80.2407C190.309 80.3426 190.309 80.4446 190.309 80.5465C190.309 80.7843 190.343 80.9881 190.343 81.2259C190.343 81.2599 190.343 81.2599 190.343 81.2939C190.343 81.5996 190.343 81.8714 190.343 82.1432C190.343 82.449 190.343 82.7207 190.343 83.0265C190.343 83.3322 190.343 83.604 190.309 83.9098C190.309 84.1816 190.275 84.4873 190.275 84.7591C190.275 84.7931 190.275 84.827 190.275 84.827C190.275 85.0988 190.241 85.3366 190.207 85.5744C190.207 85.6424 190.207 85.7103 190.173 85.8122C190.139 86.0501 190.139 86.2539 190.105 86.4917C190.071 86.7635 190.037 87.0692 190.003 87.341C189.935 87.9525 189.833 88.564 189.697 89.1755C189.663 89.3794 189.629 89.6172 189.561 89.855C189.12 92.0632 188.474 94.1695 187.659 96.2079C187.591 96.3438 187.557 96.5136 187.489 96.6495C187.421 96.7854 187.353 96.9553 187.319 97.0911C187.217 97.3629 187.081 97.6007 186.979 97.8725C186.64 98.5859 186.3 99.2994 185.96 100.013C185.892 100.149 185.79 100.319 185.722 100.454C185.621 100.658 185.485 100.862 185.383 101.066C185.315 101.236 185.213 101.372 185.145 101.508C184.941 101.847 184.737 102.221 184.533 102.561C184.432 102.731 184.33 102.866 184.262 103.036C184.262 103.07 184.228 103.07 184.228 103.104C184.092 103.308 183.956 103.546 183.82 103.75C183.82 103.784 183.786 103.784 183.786 103.818C183.65 104.056 183.48 104.259 183.344 104.463C183.175 104.735 183.005 104.973 182.801 105.245C182.665 105.414 182.529 105.618 182.393 105.788C181.68 106.739 180.966 107.691 180.185 108.642C180.015 108.812 179.879 109.016 179.709 109.185C179.539 109.389 179.37 109.593 179.2 109.763C179.132 109.865 179.03 109.967 178.962 110.035C178.792 110.239 178.622 110.408 178.452 110.612C177.875 111.258 177.297 111.869 176.686 112.481C176.652 112.515 176.618 112.549 176.584 112.583C176.414 112.753 176.244 112.922 176.108 113.058C175.904 113.262 175.701 113.432 175.497 113.636C175.327 113.806 175.157 113.942 174.987 114.111C174.817 114.281 174.647 114.417 174.512 114.553C174.444 114.621 174.342 114.689 174.274 114.757C174.07 114.961 173.866 115.131 173.662 115.3C172.643 116.218 164.693 121.178 163.606 122.027L174.376 130.724L177.637 133.917L159.971 153.791L134.967 153.248L127.493 153.078L123.621 153.01L119.34 152.908L112.308 152.772L109.318 152.704L78.7427 161.707L76.0249 158.514L75.7531 158.174L73.6808 155.762L72.4238 156.373L71.2347 156.951C71.4046 154.539 71.8462 152.297 72.4917 150.224C73.341 147.439 74.4961 144.993 75.6852 142.954C75.9909 142.445 76.2967 141.969 76.5684 141.493C76.7383 141.256 76.8742 141.018 77.0101 140.814C77.4517 140.134 77.8934 139.523 78.301 138.979C78.4369 138.81 78.5389 138.674 78.6408 138.538C78.7087 138.47 78.7427 138.402 78.8106 138.334C79.0145 138.096 79.1843 137.858 79.3542 137.654C79.4221 137.587 79.4901 137.519 79.558 137.417C79.558 137.417 79.558 137.417 79.558 137.383C78.7427 137.145 77.9613 136.907 77.1799 136.635C76.8062 136.499 76.4665 136.397 76.0928 136.262C75.1416 135.922 74.1904 135.582 73.2731 135.174C73.0693 135.107 72.8994 135.005 72.7295 134.937C72.5597 134.869 72.3558 134.767 72.186 134.699C71.6424 134.461 71.0988 134.223 70.5553 133.951C70.3854 133.883 70.2156 133.782 70.0457 133.714C70.0457 133.714 70.0117 133.714 70.0117 133.68C69.8419 133.578 69.672 133.51 69.5021 133.408C66.8523 132.049 64.3043 130.452 61.9602 128.584C61.7903 128.448 61.6545 128.312 61.4846 128.21C60.7032 127.565 59.9219 126.851 59.1745 126.138C59.0386 126.002 58.8687 125.866 58.7328 125.696C58.5969 125.56 58.4271 125.39 58.2912 125.254C58.1553 125.119 58.0194 124.949 57.8835 124.813C57.5777 124.473 57.272 124.133 56.9323 123.76C56.8304 123.624 56.7284 123.522 56.6265 123.386C56.4906 123.216 56.3547 123.046 56.2188 122.91C56.083 122.74 55.9471 122.571 55.8112 122.401C55.6753 122.231 55.5394 122.061 55.4375 121.891C55.1997 121.585 54.9619 121.246 54.724 120.94C54.5882 120.736 54.4183 120.498 54.2824 120.294C54.2145 120.193 54.1465 120.091 54.0786 119.989C53.9766 119.853 53.9087 119.717 53.8068 119.581C53.7049 119.411 53.6029 119.241 53.501 119.071C53.1613 118.494 52.8216 117.916 52.4819 117.339C52.3799 117.169 52.312 116.999 52.2101 116.829C52.1082 116.625 52.0062 116.422 51.8703 116.184C51.7684 116.014 51.7005 115.844 51.5986 115.64C51.5306 115.47 51.4287 115.3 51.3608 115.131C51.2588 114.927 51.1569 114.723 51.055 114.519C50.9531 114.315 50.8512 114.111 50.7832 113.908C49.4243 110.748 48.4051 107.249 47.7597 103.376C47.5219 101.881 47.284 100.386 47.1142 98.9257C47.0462 98.4161 46.9783 97.9065 46.9443 97.3969C46.8764 96.8194 46.8424 96.2418 46.7745 95.6643C46.7405 95.3246 46.7065 94.9509 46.6725 94.6111C46.5027 92.301 46.4008 90.0588 46.4008 87.8846V87.8506C46.4008 85.4046 46.5027 83.0605 46.7065 80.7503C49.798 46.2681 75.5832 28.6703 99.8057 22.6571C100.519 22.4873 103.033 21.8418 103.577 21.7059C129.6 14.9454 163.708 19.124 182.223 54.4895C182.325 54.6933 182.461 54.9311 182.563 55.135C184.194 58.3284 185.688 61.7257 187.013 65.3607Z" fill="#B6724D"/>
<path d="M187.048 65.3955C187.387 66.3467 187.727 67.298 188.067 68.2492C188.169 68.521 188.271 68.8267 188.339 69.0985C188.407 69.3363 188.509 69.5741 188.577 69.8459C188.577 69.8799 188.61 69.9139 188.61 69.9478C188.61 69.9478 188.61 69.9818 188.61 70.0158C188.678 70.2876 188.78 70.5254 188.848 70.7972C188.882 70.8651 188.882 70.967 188.916 71.035C188.984 71.3067 189.052 71.5446 189.12 71.7824C189.154 71.8503 189.154 71.9182 189.154 71.9862C189.222 72.2919 189.29 72.5977 189.358 72.8695C189.426 73.1752 189.494 73.481 189.562 73.7867C189.562 73.8207 189.562 73.8207 189.562 73.8547C189.63 74.1604 189.698 74.4662 189.732 74.8059C189.766 75.0777 189.834 75.3155 189.867 75.5873C189.901 75.6892 189.901 75.8251 189.935 75.927C189.969 76.1648 190.003 76.4026 190.037 76.6404C190.037 76.6744 190.037 76.6744 190.037 76.7084C190.071 77.0141 190.105 77.3199 190.139 77.6256C190.173 77.8974 190.207 78.2032 190.241 78.475C190.241 78.5429 190.241 78.6109 190.241 78.6448C190.275 78.9166 190.309 79.1884 190.309 79.4602C190.343 79.7319 190.343 80.0037 190.343 80.2755C190.343 80.3774 190.343 80.4793 190.343 80.5813C190.343 80.8191 190.377 81.0229 190.377 81.2607C190.377 81.2947 190.377 81.2947 190.377 81.3287C190.377 81.6344 190.377 81.9062 190.377 82.178C190.377 82.4837 190.377 82.7555 190.377 83.0613C190.377 83.367 190.377 83.6388 190.343 83.9446C190.343 84.2163 190.309 84.5221 190.309 84.7939C190.309 84.8278 190.309 84.8618 190.309 84.8618C190.309 85.1336 190.275 85.3714 190.241 85.6092C190.241 85.6772 190.241 85.7451 190.207 85.847C190.173 86.0848 190.173 86.2887 190.139 86.5265C190.105 86.7983 190.071 87.104 190.037 87.3758C189.969 87.9873 189.867 88.5988 189.732 89.2103C189.698 89.4141 189.664 89.652 189.596 89.8898C189.154 92.098 188.509 94.2043 187.693 96.2426C187.625 96.3785 187.591 96.5484 187.523 96.6843C187.455 96.8202 187.387 96.99 187.354 97.1259C187.252 97.3977 187.116 97.6355 187.014 97.9073C186.674 98.6207 186.334 99.3342 185.995 100.048C185.927 100.183 185.825 100.353 185.757 100.489C185.655 100.693 185.519 100.897 185.417 101.101C185.349 101.271 185.247 101.406 185.179 101.542C184.975 101.882 184.772 102.256 184.568 102.596C184.466 102.765 184.364 102.901 184.296 103.071C184.296 103.105 184.262 103.105 184.262 103.139C184.126 103.343 183.99 103.581 183.854 103.785C183.854 103.819 183.82 103.819 183.82 103.853C183.684 104.09 183.515 104.294 183.379 104.498C183.209 104.77 183.039 105.008 182.835 105.279C182.699 105.449 182.563 105.653 182.427 105.823C181.714 106.774 181.001 107.725 180.219 108.677C180.049 108.846 179.913 109.05 179.744 109.22C179.574 109.424 179.404 109.628 179.234 109.798C179.166 109.9 179.064 110.002 178.996 110.069C178.826 110.273 178.657 110.443 178.487 110.647C177.875 111.326 177.264 111.972 176.618 112.583C176.448 112.753 176.278 112.923 176.143 113.059C175.939 113.263 175.735 113.433 175.531 113.637C175.361 113.806 175.191 113.942 175.021 114.112C174.852 114.282 174.682 114.418 174.546 114.554C174.478 114.622 174.376 114.69 174.308 114.758C174.104 114.962 173.9 115.131 173.697 115.301C172.677 116.219 168.023 119.956 164.388 122.028C164.388 122.028 175.089 127.362 179.132 135.889C190.785 160.485 146.179 147.949 135.036 153.249C132.997 154.234 132.182 156.782 132.114 156.782C132.012 156.782 127.46 158.854 124.64 158.684C113.395 157.971 63.6592 168.333 75.6515 142.887C75.9573 142.377 76.263 141.902 76.5348 141.426C76.7047 141.188 76.8406 140.951 76.9765 140.747C77.4181 140.067 77.8597 139.456 78.2674 138.912C78.4033 138.742 78.5052 138.606 78.6071 138.471C78.6751 138.403 78.7091 138.335 78.777 138.267C78.9808 138.029 79.1507 137.791 79.3206 137.587C79.3885 137.519 79.4565 137.451 79.5244 137.35C79.5244 137.35 79.5244 137.35 79.5244 137.316C78.7091 137.078 77.9277 136.84 77.1463 136.568C76.7726 136.432 76.4329 136.33 76.0592 136.194C75.108 135.855 74.1567 135.515 73.2395 135.107C73.0356 135.039 72.8658 134.937 72.6959 134.87C72.526 134.802 72.3222 134.7 72.1523 134.632C71.6088 134.394 71.0652 134.156 70.5217 133.884C70.3518 133.816 70.1819 133.714 70.0121 133.646C70.0121 133.646 69.9781 133.646 69.9781 133.613C69.8082 133.511 69.6384 133.443 69.4685 133.341C66.8186 131.982 64.2707 130.385 61.9266 128.517C61.7567 128.381 61.6208 128.245 61.451 128.143C60.6696 127.497 59.8882 126.784 59.1408 126.071C59.0049 125.935 58.8351 125.799 58.6992 125.629C58.5633 125.493 58.3934 125.323 58.2576 125.187C58.1217 125.051 57.9858 124.882 57.8499 124.746C57.5441 124.406 57.2384 124.066 56.8986 123.693C56.7967 123.557 56.6948 123.455 56.5929 123.319C56.457 123.149 56.3211 122.979 56.1852 122.843C56.0493 122.673 55.9134 122.503 55.7775 122.334C55.6417 122.164 55.5058 121.994 55.4039 121.824C55.166 121.518 54.9282 121.179 54.6904 120.873C54.5545 120.669 54.3847 120.431 54.2488 120.227C54.1808 120.125 54.1129 120.023 54.0449 119.922C53.943 119.786 53.8751 119.65 53.7732 119.514C53.6712 119.344 53.5693 119.174 53.4674 119.004C53.1277 118.427 52.788 117.849 52.4482 117.272C52.3463 117.102 52.2784 116.932 52.1765 116.762C52.0745 116.558 51.9726 116.354 51.8367 116.117C51.7348 115.947 51.6669 115.777 51.5649 115.573C51.497 115.403 51.3951 115.233 51.3271 115.063C51.2252 114.86 51.1233 114.656 51.0214 114.452C50.9195 114.248 50.8175 114.044 50.7496 113.84C49.3907 110.681 48.3715 107.182 47.726 103.309C47.4882 101.814 47.2504 100.319 47.0806 98.8585C47.0126 98.3489 46.9447 97.8394 46.9107 97.3298C46.8428 96.7522 46.8088 96.1747 46.7408 95.5972C46.7069 95.2574 46.6729 94.8837 46.6389 94.544C46.7748 94.8498 46.9107 95.1895 47.0466 95.5292C52.4143 108.133 70.08 132.967 124.47 120.567C181.442 107.725 187.116 77.2859 187.048 65.3955Z" fill="#945339"/>
<path d="M187.048 65.3955C187.387 66.3467 187.727 67.298 188.067 68.2492C188.169 68.521 188.271 68.8267 188.339 69.0985C188.407 69.3363 188.508 69.5741 188.576 69.8459C188.576 69.8799 188.61 69.9139 188.61 69.9478C188.067 92.5396 177.365 122.775 127.596 131.676C75.3117 141.019 55.5736 118.902 48.1336 101.474C47.7939 100.659 47.4542 99.8437 47.1484 99.0284C47.0805 98.5188 47.0125 98.0092 46.9786 97.4996C46.9106 96.9221 46.8767 96.3446 46.8087 95.767C46.7747 95.4273 46.7408 95.0536 46.7068 94.7139C46.8427 95.0196 46.9786 95.3594 47.1145 95.6991C52.4821 108.303 70.1479 133.137 124.538 120.737C181.442 107.725 187.116 77.2859 187.048 65.3955Z" fill="#AD6946"/>
<path d="M181.85 53.8438C181.884 53.9118 181.782 53.9797 181.748 53.9118C158.749 23.88 131.74 13.3484 85.164 31.6257C58.0878 42.2591 49.8325 66.8553 46.741 80.7841C49.8325 46.3019 75.6177 28.7041 99.8402 22.6909C100.554 22.5211 103.068 21.8756 103.611 21.7397C129.464 15.0471 163.267 19.1238 181.85 53.8438Z" fill="#D59A77"/>
<path d="M125.646 114.976C140.359 111.319 149.862 98.5976 146.87 86.5614C143.879 74.5252 129.527 67.7322 114.814 71.3889C100.101 75.0455 90.5986 87.767 93.5899 99.8032C96.5813 111.839 110.933 118.632 125.646 114.976Z" fill="#AD6946"/>
<path d="M127.444 122.958C142.248 119.279 151.824 106.539 148.833 94.5029C145.842 82.4667 131.416 75.6921 116.612 79.3713C101.808 83.0506 92.2317 95.7905 95.2231 107.827C98.2145 119.863 112.64 126.637 127.444 122.958Z" fill="#945339"/>
<path d="M148.999 90.4331C150.596 96.8879 149.135 103.513 145.228 108.982C141.322 114.486 135.037 118.868 126.951 120.839C107.791 125.595 96.6476 117.136 93.4542 104.192C93.2503 103.411 93.1144 102.629 92.9785 101.848C92.1632 96.1745 93.4202 90.569 96.2059 85.8808C97.1232 84.386 98.1764 82.9591 99.3994 81.7021C102.457 78.4407 106.466 76.0287 111.12 74.8736L119.647 72.7673C124.267 71.6123 128.922 71.884 133.168 73.3109C139.249 75.3492 144.447 79.7657 147.301 85.7449C148.048 87.2397 148.592 88.8024 148.999 90.4331Z" fill="#DCBD8A"/>
<path d="M147.301 85.7451C148.354 98.3149 138.978 110.477 124.879 113.976C111.765 117.238 98.754 111.938 93.0126 101.882C92.1973 96.2086 93.4542 90.6032 96.24 85.9149C97.1573 84.4201 98.2104 82.9933 99.4334 81.7363C102.491 78.4749 106.5 76.0629 111.154 74.9078L119.681 72.8015C124.301 71.6464 128.956 71.9182 133.202 73.3451C139.249 75.3834 144.447 79.7999 147.301 85.7451Z" fill="#ECD09C"/>
<path d="M121.244 100.251C121.006 100.251 120.802 100.081 120.735 99.8769L117.677 87.6128C117.609 87.341 117.779 87.0693 118.051 87.0013C118.322 86.9334 118.594 87.1032 118.662 87.375L121.72 99.6391C121.788 99.9109 121.618 100.183 121.346 100.251C121.346 100.251 121.312 100.251 121.244 100.251Z" fill="#43281F"/>
<path d="M133.168 73.3446C132.829 75.6887 132.047 77.9309 130.79 79.9013C128.48 83.6043 124.539 86.4581 118.9 87.8509C112.853 89.3457 107.825 88.4964 103.986 86.0504C102.219 84.9293 100.725 83.4685 99.4675 81.7359C102.525 78.4745 107.145 75.4169 114.857 73.4805C124.268 71.1364 128.956 71.9178 133.168 73.3446Z" fill="#5C392B"/>
<path d="M130.79 79.9012C128.48 83.6042 124.539 86.4579 118.899 87.8508C112.852 89.3456 107.824 88.4962 103.985 86.0502C104.257 85.133 104.631 84.2836 105.106 83.4683C106.533 81.0902 108.877 79.2217 111.799 78.5083L119.986 76.4699C124.029 75.4847 128.174 76.9456 130.79 79.9012Z" fill="#43281F"/>
<path d="M107.043 79.4598C107.349 79.2219 107.655 79.0181 107.995 78.8143C108.3 78.6104 108.64 78.4066 108.946 78.2367C109.591 77.863 110.237 77.5233 110.916 77.2176C112.275 76.6061 113.668 76.0625 115.095 75.6548C116.522 75.2472 118.016 74.9414 119.545 74.7715C121.074 74.6356 122.637 74.6356 124.165 74.9414C124.913 75.0773 125.389 75.7907 125.253 76.5381C125.151 77.0817 124.743 77.4893 124.233 77.5913H124.165C122.841 77.897 121.516 78.1688 120.225 78.5085C118.9 78.8483 117.609 79.188 116.284 79.5617L112.309 80.7167L110.305 81.2943C109.965 81.3962 109.625 81.4981 109.285 81.5661C108.946 81.668 108.606 81.7699 108.266 81.8378L108.198 81.8718C107.485 82.0417 106.738 81.5661 106.568 80.8526C106.432 80.2751 106.636 79.7655 107.043 79.4598Z" fill="white"/>
<path d="M96.1039 123.931C95.3565 124.644 94.9148 125.629 94.8809 126.716L96.6814 126.275L96.1039 123.931Z" fill="white"/>
<path d="M98.4826 122.843C97.6672 122.911 96.9198 123.25 96.3423 123.726L98.5845 123.182L98.4826 122.843Z" fill="#71495A"/>
<path d="M99.9431 122.844C99.6034 122.844 99.2976 122.81 98.9579 122.81C98.7881 122.81 98.6522 122.81 98.4823 122.844L98.5502 123.183L99.9431 122.844Z" fill="#D8BFB4"/>
<path d="M99.1617 125.664L98.5502 123.184L96.308 123.727C96.2401 123.795 96.1381 123.863 96.0702 123.931L96.6477 126.275L99.1617 125.664Z" fill="#D8BFB4"/>
<path d="M99.1617 125.662L101.642 125.051L101.098 122.877C100.69 122.843 100.317 122.843 99.9091 122.843L98.5502 123.182L99.1617 125.662Z" fill="white"/>
<path d="M104.156 124.44L103.816 123.047C102.933 122.979 102.049 122.911 101.132 122.877L101.676 125.051L104.156 124.44Z" fill="#D8BFB4"/>
<path d="M106.669 123.828L106.567 123.353C105.684 123.251 104.767 123.149 103.849 123.047L104.189 124.44L106.669 123.828Z" fill="white"/>
<path d="M107.893 123.522C107.451 123.454 107.01 123.387 106.534 123.353L106.636 123.828L107.893 123.522Z" fill="#D8BFB4"/>
<path d="M146.485 113.603C146.145 113.84 145.772 114.112 145.432 114.35L146.587 114.078L146.485 113.603Z" fill="white"/>
<path d="M149.101 113.467L148.762 112.108C147.98 112.618 147.199 113.128 146.485 113.637L146.587 114.113L149.101 113.467Z" fill="#D8BFB4"/>
<path d="M151.615 112.855L151.071 110.715C150.29 111.19 149.509 111.632 148.761 112.108L149.101 113.467L151.615 112.855Z" fill="white"/>
<path d="M153.416 109.424C153.28 109.492 153.178 109.526 153.043 109.594C152.737 109.764 152.465 109.899 152.159 110.069L153.484 109.764L153.416 109.424Z" fill="#71495A"/>
<path d="M155.794 109.186C155.013 109.016 154.197 109.084 153.416 109.424L153.484 109.764L155.794 109.186Z" fill="#D8BFB4"/>
<path d="M154.095 112.244L153.484 109.764L152.193 110.069C151.819 110.273 151.446 110.477 151.106 110.715L151.649 112.855L154.095 112.244Z" fill="#D8BFB4"/>
<path d="M154.095 112.243L156.575 111.632L155.998 109.253C155.93 109.22 155.828 109.22 155.76 109.186L153.484 109.729L154.095 112.243Z" fill="white"/>
<path d="M158.445 111.19C157.901 110.205 157.018 109.526 155.999 109.254L156.576 111.632L158.445 111.19Z" fill="#D8BFB4"/>
<path d="M96.6814 126.274L94.8809 126.716C94.8809 126.75 94.8809 126.784 94.8809 126.784C94.8809 127.531 94.9148 128.381 94.9828 129.332L97.2929 128.754L96.6814 126.274Z" fill="#D8BFB4"/>
<path d="M95.0509 130.453C95.0849 130.929 95.1528 131.438 95.2208 131.948L95.4246 131.914L95.0509 130.453Z" fill="#D8BFB4"/>
<path d="M97.9046 131.269L97.293 128.789L94.9829 129.367C95.0169 129.706 95.0509 130.08 95.0848 130.454L95.4246 131.881L97.9046 131.269Z" fill="white"/>
<path d="M99.1822 125.66L96.6741 126.272L97.2865 128.781L99.7946 128.168L99.1822 125.66Z" fill="#71495A"/>
<path d="M101.662 125.053L99.1539 125.665L99.7664 128.173L102.274 127.561L101.662 125.053Z" fill="#D8BFB4"/>
<path d="M99.7902 128.14L97.2821 128.752L97.8945 131.26L100.403 130.648L99.7902 128.14Z" fill="#D8BFB4"/>
<path d="M102.277 127.565L99.7694 128.178L100.382 130.686L102.89 130.073L102.277 127.565Z" fill="white"/>
<path d="M104.175 124.437L101.667 125.05L102.279 127.558L104.788 126.945L104.175 124.437Z" fill="#71495A"/>
<path d="M106.654 123.83L104.146 124.442L104.759 126.95L107.267 126.338L106.654 123.83Z" fill="#D8BFB4"/>
<path d="M104.801 126.943L102.292 127.556L102.905 130.064L105.413 129.451L104.801 126.943Z" fill="#D8BFB4"/>
<path d="M107.282 126.334L104.774 126.946L105.387 129.454L107.895 128.842L107.282 126.334Z" fill="white"/>
<path d="M107.281 126.342L109.761 125.731L109.285 123.76C108.809 123.692 108.368 123.59 107.892 123.522L106.669 123.828L107.281 126.342Z" fill="#71495A"/>
<path d="M112.275 125.12L112.071 124.304C111.188 124.1 110.27 123.931 109.285 123.761L109.761 125.731L112.275 125.12Z" fill="#D8BFB4"/>
<path d="M109.783 125.727L107.275 126.34L107.888 128.848L110.396 128.235L109.783 125.727Z" fill="#D8BFB4"/>
<path d="M112.263 125.12L109.755 125.732L110.368 128.241L112.876 127.628L112.263 125.12Z" fill="white"/>
<path d="M113.838 124.711C113.26 124.575 112.683 124.44 112.071 124.304L112.275 125.119L113.838 124.711Z" fill="#71495A"/>
<path d="M112.886 127.6L115.366 126.988L114.891 124.984C114.551 124.882 114.211 124.814 113.838 124.712L112.241 125.086L112.886 127.6Z" fill="#D8BFB4"/>
<path d="M117.881 126.376L117.745 125.833C116.861 125.527 115.91 125.255 114.891 124.983L115.367 126.988L117.881 126.376Z" fill="white"/>
<path d="M118.695 126.173C118.39 126.071 118.05 125.969 117.744 125.833L117.88 126.377L118.695 126.173Z" fill="#D8BFB4"/>
<path d="M137.721 121.009C137.517 121.247 137.279 121.45 137.075 121.688L137.822 121.518L137.721 121.009Z" fill="white"/>
<path d="M142.035 117.034C141.56 117.408 141.118 117.816 140.71 118.189L142.239 117.816L142.035 117.034Z" fill="#D8BFB4"/>
<path d="M140.336 120.907L139.86 118.937C139.079 119.65 138.366 120.329 137.72 121.009L137.856 121.484L140.336 120.907Z" fill="#D8BFB4"/>
<path d="M142.85 120.295L142.238 117.815L140.71 118.189C140.404 118.461 140.132 118.699 139.86 118.971L140.336 120.941L142.85 120.295Z" fill="white"/>
<path d="M144.719 117.17L144.243 115.233C143.462 115.811 142.714 116.422 142.035 117L142.239 117.781L144.719 117.17Z" fill="#71495A"/>
<path d="M147.233 116.592L146.622 114.112L145.467 114.384C145.059 114.69 144.651 114.996 144.278 115.267L144.753 117.204L147.233 116.592Z" fill="#D8BFB4"/>
<path d="M144.745 117.155L142.237 117.768L142.85 120.276L145.358 119.663L144.745 117.155Z" fill="#D8BFB4"/>
<path d="M147.214 116.561L144.706 117.174L145.318 119.682L147.826 119.069L147.214 116.561Z" fill="white"/>
<path d="M149.12 113.466L146.612 114.078L147.224 116.586L149.732 115.974L149.12 113.466Z" fill="#71495A"/>
<path d="M151.6 112.858L149.092 113.471L149.705 115.979L152.213 115.366L151.6 112.858Z" fill="#D8BFB4"/>
<path d="M149.727 115.946L147.219 116.559L147.831 119.067L150.339 118.454L149.727 115.946Z" fill="#D8BFB4"/>
<path d="M152.226 115.357L149.718 115.97L150.33 118.478L152.838 117.865L152.226 115.357Z" fill="white"/>
<path d="M154.113 112.243L151.605 112.855L152.218 115.364L154.726 114.751L154.113 112.243Z" fill="#71495A"/>
<path d="M156.593 111.636L154.084 112.248L154.697 114.756L157.205 114.144L156.593 111.636Z" fill="#D8BFB4"/>
<path d="M154.728 114.756L152.22 115.368L152.832 117.876L155.34 117.264L154.728 114.756Z" fill="#D8BFB4"/>
<path d="M157.209 114.149L154.701 114.762L155.313 117.27L157.821 116.657L157.209 114.149Z" fill="white"/>
<path d="M157.221 114.146L159.599 113.569C159.225 112.685 158.851 111.938 158.512 111.258C158.512 111.224 158.478 111.224 158.478 111.19L156.609 111.632L157.221 114.146Z" fill="#71495A"/>
<path d="M157.833 116.627L160.313 116.015L159.871 114.181C159.769 113.977 159.701 113.773 159.599 113.569L157.221 114.147L157.833 116.627Z" fill="#D8BFB4"/>
<path d="M160.584 115.947C160.346 115.302 160.108 114.724 159.87 114.146L160.312 115.981L160.584 115.947Z" fill="white"/>
<path d="M95.3907 131.88L95.1869 131.914C95.2888 132.729 95.3907 133.579 95.5606 134.462L96.0022 134.36L95.3907 131.88Z" fill="#71495A"/>
<path d="M97.904 131.258L95.3959 131.871L96.0086 134.379L98.5166 133.766L97.904 131.258Z" fill="#D8BFB4"/>
<path d="M96.0027 134.36L95.561 134.462C95.6969 135.278 95.8668 136.093 96.0367 136.976L96.6142 136.84L96.0027 134.36Z" fill="#D8BFB4"/>
<path d="M98.5121 133.739L96.004 134.352L96.6167 136.86L99.1248 136.247L98.5121 133.739Z" fill="white"/>
<path d="M100.405 130.652L97.8967 131.265L98.5092 133.773L101.017 133.16L100.405 130.652Z" fill="#71495A"/>
<path d="M102.885 130.046L100.377 130.658L100.989 133.166L103.497 132.554L102.885 130.046Z" fill="#D8BFB4"/>
<path d="M101.025 133.124L98.517 133.736L99.1297 136.244L101.638 135.632L101.025 133.124Z" fill="#D8BFB4"/>
<path d="M103.501 132.558L100.993 133.171L101.605 135.679L104.113 135.067L103.501 132.558Z" fill="white"/>
<path d="M105.398 129.43L102.89 130.042L103.502 132.55L106.01 131.938L105.398 129.43Z" fill="#71495A"/>
<path d="M107.878 128.823L105.37 129.436L105.983 131.944L108.491 131.331L107.878 128.823Z" fill="#D8BFB4"/>
<path d="M105.98 131.951L103.472 132.563L104.084 135.072L106.592 134.459L105.98 131.951Z" fill="#D8BFB4"/>
<path d="M108.493 131.336L105.985 131.948L106.598 134.456L109.106 133.844L108.493 131.336Z" fill="white"/>
<path d="M110.391 128.208L107.883 128.82L108.495 131.328L111.003 130.716L110.391 128.208Z" fill="#71495A"/>
<path d="M112.871 127.6L110.363 128.213L110.975 130.721L113.483 130.109L112.871 127.6Z" fill="#D8BFB4"/>
<path d="M110.974 130.728L108.466 131.341L109.078 133.849L111.586 133.236L110.974 130.728Z" fill="#D8BFB4"/>
<path d="M113.486 130.113L110.978 130.726L111.59 133.234L114.099 132.621L113.486 130.113Z" fill="white"/>
<path d="M115.384 126.984L112.876 127.597L113.488 130.105L115.996 129.492L115.384 126.984Z" fill="#71495A"/>
<path d="M117.864 126.377L115.355 126.989L115.968 129.497L118.476 128.885L117.864 126.377Z" fill="#D8BFB4"/>
<path d="M115.967 129.506L113.459 130.118L114.071 132.626L116.579 132.014L115.967 129.506Z" fill="#D8BFB4"/>
<path d="M118.48 128.89L115.972 129.502L116.584 132.01L119.092 131.398L118.48 128.89Z" fill="white"/>
<path d="M118.492 128.891L120.972 128.279L120.632 126.92C120.02 126.682 119.375 126.445 118.695 126.173L117.88 126.377L118.492 128.891Z" fill="#71495A"/>
<path d="M122.772 127.837C122.127 127.531 121.414 127.226 120.632 126.92L120.972 128.279L122.772 127.837Z" fill="#D8BFB4"/>
<path d="M120.959 128.283L118.451 128.896L119.063 131.404L121.571 130.791L120.959 128.283Z" fill="#D8BFB4"/>
<path d="M121.583 130.759L124.063 130.148L123.587 128.211C123.315 128.075 123.044 127.94 122.772 127.804L120.971 128.245L121.583 130.759Z" fill="white"/>
<path d="M126.238 129.638C125.559 129.23 124.675 128.755 123.588 128.245L124.064 130.182L126.238 129.638Z" fill="#D8BFB4"/>
<path d="M133.609 125.833C132.93 126.75 132.386 127.566 131.978 128.211L134.085 127.702L133.609 125.833Z" fill="white"/>
<path d="M135.648 123.319C135.138 123.931 134.663 124.508 134.221 125.052L135.954 124.644L135.648 123.319Z" fill="#71495A"/>
<path d="M138.468 123.999L137.856 121.519L137.109 121.688C136.599 122.232 136.123 122.776 135.682 123.285L135.988 124.61L138.468 123.999Z" fill="#D8BFB4"/>
<path d="M136.565 127.124L135.954 124.644L134.221 125.051C134.018 125.323 133.814 125.595 133.61 125.867L134.085 127.735L136.565 127.124Z" fill="#D8BFB4"/>
<path d="M138.451 124L135.943 124.612L136.555 127.12L139.064 126.508L138.451 124Z" fill="white"/>
<path d="M140.335 120.899L137.827 121.512L138.44 124.02L140.948 123.407L140.335 120.899Z" fill="#71495A"/>
<path d="M142.836 120.297L140.328 120.909L140.94 123.417L143.448 122.805L142.836 120.297Z" fill="#D8BFB4"/>
<path d="M140.931 123.392L138.423 124.005L139.035 126.513L141.543 125.901L140.931 123.392Z" fill="#D8BFB4"/>
<path d="M143.456 122.764L140.948 123.377L141.56 125.885L144.068 125.272L143.456 122.764Z" fill="white"/>
<path d="M145.317 119.689L142.809 120.302L143.421 122.81L145.929 122.197L145.317 119.689Z" fill="#71495A"/>
<path d="M147.842 119.061L145.333 119.674L145.946 122.182L148.454 121.569L147.842 119.061Z" fill="#D8BFB4"/>
<path d="M145.924 122.17L143.416 122.782L144.028 125.29L146.536 124.678L145.924 122.17Z" fill="#D8BFB4"/>
<path d="M148.437 121.555L145.929 122.167L146.541 124.675L149.049 124.063L148.437 121.555Z" fill="white"/>
<path d="M150.309 118.467L147.801 119.079L148.413 121.587L150.921 120.975L150.309 118.467Z" fill="#71495A"/>
<path d="M152.822 117.851L150.314 118.464L150.926 120.972L153.434 120.36L152.822 117.851Z" fill="#D8BFB4"/>
<path d="M150.917 120.946L148.409 121.559L149.021 124.067L151.529 123.454L150.917 120.946Z" fill="#D8BFB4"/>
<path d="M153.438 120.364L150.93 120.977L151.543 123.485L154.051 122.872L153.438 120.364Z" fill="white"/>
<path d="M155.303 117.243L152.795 117.855L153.407 120.364L155.915 119.751L155.303 117.243Z" fill="#71495A"/>
<path d="M157.815 116.629L155.307 117.241L155.919 119.749L158.427 119.137L157.815 116.629Z" fill="#D8BFB4"/>
<path d="M155.917 119.758L153.409 120.37L154.022 122.878L156.53 122.266L155.917 119.758Z" fill="#D8BFB4"/>
<path d="M158.43 119.141L155.922 119.754L156.535 122.262L159.043 121.65L158.43 119.141Z" fill="white"/>
<path d="M160.295 116.021L157.787 116.634L158.399 119.142L160.907 118.529L160.295 116.021Z" fill="#71495A"/>
<path d="M160.924 118.528L161.433 118.392C161.162 117.509 160.856 116.728 160.584 115.946L160.312 116.014L160.924 118.528Z" fill="#D8BFB4"/>
<path d="M160.922 118.521L158.414 119.134L159.027 121.642L161.535 121.029L160.922 118.521Z" fill="#D8BFB4"/>
<path d="M161.535 121.008L162.18 120.838C161.943 119.955 161.705 119.14 161.433 118.358L160.923 118.494L161.535 121.008Z" fill="white"/>
<path d="M96.6138 136.874L96.0363 137.01C96.2061 137.825 96.4099 138.641 96.6138 139.524L97.2253 139.388L96.6138 136.874Z" fill="#71495A"/>
<path d="M99.1275 136.253L96.6194 136.865L97.2321 139.373L99.7401 138.761L99.1275 136.253Z" fill="#D8BFB4"/>
<path d="M97.2252 139.354L96.6136 139.489C96.6476 139.625 96.6816 139.727 96.7156 139.863C96.8854 140.611 97.0553 141.324 97.2591 142.003L97.8367 141.867L97.2252 139.354Z" fill="#D8BFB4"/>
<path d="M99.7354 138.732L97.2273 139.345L97.84 141.853L100.348 141.24L99.7354 138.732Z" fill="white"/>
<path d="M101.607 135.644L99.0994 136.257L99.7121 138.765L102.22 138.152L101.607 135.644Z" fill="#71495A"/>
<path d="M104.107 135.038L101.599 135.65L102.212 138.158L104.72 137.546L104.107 135.038Z" fill="#D8BFB4"/>
<path d="M102.202 138.134L99.6938 138.746L100.306 141.254L102.814 140.642L102.202 138.134Z" fill="#D8BFB4"/>
<path d="M104.723 137.551L102.215 138.163L102.827 140.671L105.335 140.059L104.723 137.551Z" fill="white"/>
<path d="M106.588 134.432L104.08 135.044L104.692 137.552L107.2 136.94L106.588 134.432Z" fill="#71495A"/>
<path d="M109.113 133.805L106.605 134.418L107.218 136.926L109.726 136.313L109.113 133.805Z" fill="#D8BFB4"/>
<path d="M107.203 136.944L104.695 137.557L105.308 140.065L107.816 139.452L107.203 136.944Z" fill="#D8BFB4"/>
<path d="M109.729 136.318L107.221 136.931L107.834 139.439L110.342 138.826L109.729 136.318Z" fill="white"/>
<path d="M111.58 133.208L109.072 133.82L109.684 136.328L112.193 135.716L111.58 133.208Z" fill="#71495A"/>
<path d="M114.093 132.593L111.585 133.205L112.197 135.713L114.705 135.101L114.093 132.593Z" fill="#D8BFB4"/>
<path d="M112.196 135.722L109.688 136.334L110.3 138.842L112.808 138.23L112.196 135.722Z" fill="#D8BFB4"/>
<path d="M114.709 135.106L112.2 135.719L112.813 138.227L115.321 137.614L114.709 135.106Z" fill="white"/>
<path d="M116.586 131.975L114.078 132.588L114.691 135.096L117.199 134.483L116.586 131.975Z" fill="#71495A"/>
<path d="M119.086 131.37L116.578 131.982L117.19 134.491L119.698 133.878L119.086 131.37Z" fill="#D8BFB4"/>
<path d="M117.188 134.498L114.68 135.11L115.293 137.618L117.801 137.006L117.188 134.498Z" fill="#D8BFB4"/>
<path d="M119.701 133.883L117.193 134.495L117.806 137.003L120.314 136.391L119.701 133.883Z" fill="white"/>
<path d="M121.566 130.763L119.058 131.375L119.67 133.883L122.178 133.271L121.566 130.763Z" fill="#71495A"/>
<path d="M124.079 130.147L121.571 130.76L122.184 133.268L124.692 132.655L124.079 130.147Z" fill="#D8BFB4"/>
<path d="M122.181 133.275L119.673 133.888L120.286 136.396L122.794 135.783L122.181 133.275Z" fill="#D8BFB4"/>
<path d="M124.694 132.661L122.186 133.273L122.798 135.782L125.306 135.169L124.694 132.661Z" fill="white"/>
<path d="M124.675 132.661L126.883 132.117L126.475 130.419C126.408 130.215 126.476 130.011 126.577 129.807C126.476 129.739 126.374 129.671 126.272 129.604L124.097 130.147L124.675 132.661Z" fill="#71495A"/>
<path d="M124.676 132.662L125.287 135.176L127.495 134.632L126.986 132.526L126.884 132.118L124.676 132.662Z" fill="#D8BFB4"/>
<path d="M132.286 128.992L132.693 130.691L134.664 130.215L134.052 127.735L131.946 128.245C131.912 128.313 131.844 128.381 131.81 128.449C132.048 128.551 132.252 128.755 132.286 128.992Z" fill="#D8BFB4"/>
<path d="M132.726 130.69L132.828 131.132L133.338 133.204L135.274 132.729L134.663 130.215L132.726 130.69Z" fill="white"/>
<path d="M136.565 127.115L134.057 127.728L134.669 130.236L137.178 129.623L136.565 127.115Z" fill="#71495A"/>
<path d="M139.067 126.513L136.558 127.125L137.171 129.633L139.679 129.021L139.067 126.513Z" fill="#D8BFB4"/>
<path d="M137.173 129.595L134.665 130.208L135.277 132.716L137.786 132.103L137.173 129.595Z" fill="#D8BFB4"/>
<path d="M139.673 128.992L137.165 129.604L137.778 132.113L140.286 131.5L139.673 128.992Z" fill="white"/>
<path d="M141.558 125.892L139.05 126.505L139.662 129.013L142.17 128.4L141.558 125.892Z" fill="#71495A"/>
<path d="M144.059 125.29L141.551 125.902L142.164 128.41L144.672 127.798L144.059 125.29Z" fill="#D8BFB4"/>
<path d="M142.154 128.386L139.646 128.998L140.259 131.506L142.767 130.894L142.154 128.386Z" fill="#D8BFB4"/>
<path d="M144.678 127.757L142.17 128.37L142.783 130.878L145.291 130.266L144.678 127.757Z" fill="white"/>
<path d="M146.54 124.682L144.032 125.295L144.645 127.803L147.153 127.191L146.54 124.682Z" fill="#71495A"/>
<path d="M149.061 124.057L146.553 124.67L147.166 127.178L149.674 126.565L149.061 124.057Z" fill="#D8BFB4"/>
<path d="M147.146 127.163L144.638 127.775L145.251 130.283L147.759 129.671L147.146 127.163Z" fill="#D8BFB4"/>
<path d="M149.66 126.547L147.152 127.159L147.765 129.667L150.273 129.055L149.66 126.547Z" fill="white"/>
<path d="M151.532 123.46L149.024 124.072L149.637 126.58L152.145 125.968L151.532 123.46Z" fill="#71495A"/>
<path d="M154.057 122.831L151.549 123.443L152.162 125.951L154.67 125.339L154.057 122.831Z" fill="#D8BFB4"/>
<path d="M152.139 125.94L149.631 126.553L150.244 129.061L152.752 128.448L152.139 125.94Z" fill="#D8BFB4"/>
<path d="M154.66 125.357L152.152 125.97L152.764 128.478L155.272 127.865L154.66 125.357Z" fill="white"/>
<path d="M156.525 122.237L154.017 122.85L154.63 125.358L157.138 124.745L156.525 122.237Z" fill="#71495A"/>
<path d="M159.038 121.621L156.53 122.233L157.143 124.741L159.651 124.129L159.038 121.621Z" fill="#D8BFB4"/>
<path d="M157.141 124.75L154.633 125.362L155.245 127.87L157.753 127.258L157.141 124.75Z" fill="#D8BFB4"/>
<path d="M159.654 124.135L157.146 124.747L157.758 127.255L160.266 126.643L159.654 124.135Z" fill="white"/>
<path d="M161.53 121L159.022 121.612L159.634 124.12L162.142 123.508L161.53 121Z" fill="#71495A"/>
<path d="M162.147 123.522L162.827 123.352C162.623 122.469 162.419 121.653 162.181 120.872L161.536 121.042L162.147 123.522Z" fill="#D8BFB4"/>
<path d="M162.145 123.512L159.637 124.125L160.25 126.633L162.758 126.02L162.145 123.512Z" fill="#D8BFB4"/>
<path d="M162.758 126.003L163.404 125.833C163.234 125.154 163.064 124.44 162.894 123.693C162.86 123.557 162.826 123.455 162.792 123.319L162.113 123.489L162.758 126.003Z" fill="white"/>
<path d="M97.8363 141.868L97.2588 142.004C97.4966 142.887 97.7344 143.703 97.9722 144.484L98.4478 144.348L97.8363 141.868Z" fill="#71495A"/>
<path d="M100.351 141.245L97.8427 141.857L98.4553 144.366L100.963 143.753L100.351 141.245Z" fill="#D8BFB4"/>
<path d="M98.4486 144.348L97.973 144.484C98.2448 145.367 98.5166 146.182 98.7884 146.93L99.0602 146.862L98.4486 144.348Z" fill="#D8BFB4"/>
<path d="M100.944 143.734L98.4364 144.347L99.0488 146.855L101.557 146.242L100.944 143.734Z" fill="white"/>
<path d="M102.817 140.646L100.309 141.259L100.922 143.767L103.43 143.154L102.817 140.646Z" fill="#71495A"/>
<path d="M105.343 140.022L102.835 140.635L103.448 143.143L105.956 142.53L105.343 140.022Z" fill="#D8BFB4"/>
<path d="M103.424 143.127L100.916 143.739L101.529 146.247L104.037 145.635L103.424 143.127Z" fill="#D8BFB4"/>
<path d="M105.951 142.502L103.443 143.114L104.056 145.622L106.564 145.01L105.951 142.502Z" fill="white"/>
<path d="M107.81 139.424L105.302 140.036L105.914 142.544L108.422 141.932L107.81 139.424Z" fill="#71495A"/>
<path d="M110.323 138.809L107.815 139.422L108.427 141.93L110.935 141.318L110.323 138.809Z" fill="#D8BFB4"/>
<path d="M108.426 141.936L105.918 142.549L106.53 145.057L109.038 144.444L108.426 141.936Z" fill="#D8BFB4"/>
<path d="M110.938 141.322L108.43 141.935L109.042 144.443L111.551 143.83L110.938 141.322Z" fill="white"/>
<path d="M112.816 138.191L110.308 138.804L110.92 141.312L113.429 140.699L112.816 138.191Z" fill="#71495A"/>
<path d="M115.317 137.586L112.808 138.198L113.421 140.706L115.929 140.094L115.317 137.586Z" fill="#D8BFB4"/>
<path d="M113.419 140.715L110.911 141.327L111.523 143.835L114.031 143.223L113.419 140.715Z" fill="#D8BFB4"/>
<path d="M115.932 140.099L113.424 140.711L114.036 143.219L116.544 142.607L115.932 140.099Z" fill="white"/>
<path d="M117.809 136.968L115.301 137.581L115.914 140.089L118.422 139.476L117.809 136.968Z" fill="#71495A"/>
<path d="M120.309 136.363L117.801 136.976L118.413 139.484L120.921 138.871L120.309 136.363Z" fill="#D8BFB4"/>
<path d="M118.411 139.492L115.903 140.104L116.515 142.613L119.023 142L118.411 139.492Z" fill="#D8BFB4"/>
<path d="M120.925 138.876L118.417 139.488L119.029 141.996L121.538 141.384L120.925 138.876Z" fill="white"/>
<path d="M122.789 135.756L120.281 136.368L120.893 138.876L123.401 138.264L122.789 135.756Z" fill="#71495A"/>
<path d="M125.315 135.129L122.807 135.742L123.42 138.25L125.928 137.638L125.315 135.129Z" fill="#D8BFB4"/>
<path d="M120.903 138.879L121.515 141.359L123.451 140.883C123.621 140.713 123.757 140.51 123.927 140.34L123.417 138.233L120.903 138.879Z" fill="#D8BFB4"/>
<path d="M123.418 138.267L123.928 140.373C124.709 139.456 125.389 138.607 125.966 137.859L125.932 137.689L123.418 138.267Z" fill="white"/>
<path d="M127.495 134.666L125.287 135.176L125.898 137.656L126.102 137.588C126.816 136.602 127.393 135.753 127.801 135.074C127.665 135.006 127.563 134.836 127.495 134.666Z" fill="#71495A"/>
<path d="M125.966 137.826C126.034 137.758 126.068 137.69 126.136 137.588L125.932 137.656L125.966 137.826Z" fill="#D8BFB4"/>
<path d="M135.275 132.729L133.305 133.205V133.239C133.372 133.477 133.305 133.715 133.203 133.885C133.848 134.258 134.697 134.734 135.751 135.243L135.886 135.209L135.275 132.729Z" fill="#D8BFB4"/>
<path d="M135.75 135.243C135.817 135.277 135.851 135.311 135.919 135.345L135.885 135.209L135.75 135.243Z" fill="white"/>
<path d="M137.776 132.121L135.268 132.733L135.88 135.241L138.388 134.629L137.776 132.121Z" fill="#71495A"/>
<path d="M140.289 131.506L137.781 132.118L138.393 134.626L140.901 134.014L140.289 131.506Z" fill="#D8BFB4"/>
<path d="M135.886 135.209L135.92 135.345C136.769 135.753 137.754 136.195 138.875 136.67L138.366 134.632L135.886 135.209Z" fill="#D8BFB4"/>
<path d="M140.88 133.986L138.4 134.598L138.91 136.636C139.148 136.738 139.42 136.84 139.657 136.942L141.526 136.5L140.88 133.986Z" fill="white"/>
<path d="M142.769 130.898L140.261 131.511L140.873 134.019L143.381 133.406L142.769 130.898Z" fill="#71495A"/>
<path d="M145.282 130.282L142.774 130.895L143.386 133.403L145.894 132.79L145.282 130.282Z" fill="#D8BFB4"/>
<path d="M143.376 133.378L140.868 133.99L141.48 136.498L143.988 135.886L143.376 133.378Z" fill="#D8BFB4"/>
<path d="M145.901 132.751L143.393 133.363L144.006 135.871L146.514 135.259L145.901 132.751Z" fill="white"/>
<path d="M147.762 129.676L145.254 130.288L145.866 132.796L148.374 132.184L147.762 129.676Z" fill="#71495A"/>
<path d="M150.275 129.06L147.767 129.673L148.379 132.181L150.887 131.568L150.275 129.06Z" fill="#D8BFB4"/>
<path d="M148.369 132.155L145.861 132.768L146.473 135.276L148.981 134.663L148.369 132.155Z" fill="#D8BFB4"/>
<path d="M150.883 131.54L148.375 132.152L148.987 134.66L151.495 134.048L150.883 131.54Z" fill="white"/>
<path d="M152.756 128.453L150.247 129.065L150.86 131.574L153.368 130.961L152.756 128.453Z" fill="#71495A"/>
<path d="M155.28 127.823L152.772 128.436L153.385 130.944L155.893 130.331L155.28 127.823Z" fill="#D8BFB4"/>
<path d="M153.375 130.919L150.867 131.531L151.48 134.039L153.988 133.427L153.375 130.919Z" fill="#D8BFB4"/>
<path d="M155.883 130.35L153.375 130.963L153.988 133.471L156.496 132.859L155.883 130.35Z" fill="white"/>
<path d="M157.748 127.229L155.24 127.842L155.852 130.35L158.36 129.737L157.748 127.229Z" fill="#71495A"/>
<path d="M160.261 126.614L157.753 127.227L158.365 129.735L160.873 129.122L160.261 126.614Z" fill="#D8BFB4"/>
<path d="M158.363 129.743L155.855 130.355L156.468 132.864L158.976 132.251L158.363 129.743Z" fill="#D8BFB4"/>
<path d="M160.876 129.128L158.368 129.74L158.98 132.248L161.489 131.636L160.876 129.128Z" fill="white"/>
<path d="M162.753 125.992L160.245 126.604L160.858 129.113L163.366 128.5L162.753 125.992Z" fill="#71495A"/>
<path d="M163.37 128.516L163.913 128.38C163.777 127.565 163.608 126.749 163.404 125.866L162.758 126.036L163.37 128.516Z" fill="#D8BFB4"/>
<path d="M163.369 128.505L160.86 129.118L161.473 131.626L163.981 131.014L163.369 128.505Z" fill="#D8BFB4"/>
<path d="M163.982 130.997L164.322 130.929C164.22 130.113 164.084 129.264 163.914 128.381L163.37 128.517L163.982 130.997Z" fill="white"/>
<path d="M98.7883 146.929C99.0601 147.677 99.3319 148.39 99.6037 149.036L99.0601 146.861L98.7883 146.929Z" fill="#71495A"/>
<path d="M101.539 146.25L99.0593 146.862L99.6029 149.036C99.6369 149.138 99.7048 149.24 99.7388 149.342L102.185 148.73L101.539 146.25Z" fill="#D8BFB4"/>
<path d="M102.151 148.73L99.7047 149.342C100.078 150.225 100.452 151.041 100.792 151.72L102.762 151.244L102.151 148.73Z" fill="white"/>
<path d="M104.04 145.64L101.532 146.252L102.144 148.76L104.652 148.148L104.04 145.64Z" fill="#71495A"/>
<path d="M106.553 145.024L104.045 145.637L104.657 148.145L107.165 147.532L106.553 145.024Z" fill="#D8BFB4"/>
<path d="M104.647 148.119L102.139 148.731L102.751 151.24L105.26 150.627L104.647 148.119Z" fill="#D8BFB4"/>
<path d="M107.16 147.504L104.652 148.116L105.265 150.624L107.773 150.012L107.16 147.504Z" fill="white"/>
<path d="M109.043 144.411L106.535 145.023L107.147 147.532L109.656 146.919L109.043 144.411Z" fill="#71495A"/>
<path d="M111.559 143.792L109.051 144.404L109.664 146.912L112.172 146.3L111.559 143.792Z" fill="#D8BFB4"/>
<path d="M109.647 146.93L107.139 147.542L107.752 150.05L110.26 149.438L109.647 146.93Z" fill="#D8BFB4"/>
<path d="M112.161 146.314L109.652 146.927L110.265 149.435L112.773 148.822L112.161 146.314Z" fill="white"/>
<path d="M114.026 143.194L111.518 143.807L112.13 146.315L114.638 145.702L114.026 143.194Z" fill="#71495A"/>
<path d="M116.55 142.572L114.042 143.185L114.655 145.693L117.163 145.08L116.55 142.572Z" fill="#D8BFB4"/>
<path d="M114.641 145.707L112.133 146.319L112.746 148.827L115.254 148.215L114.641 145.707Z" fill="#D8BFB4"/>
<path d="M114.653 145.706L115.265 148.186L115.706 148.084C116.352 147.609 116.929 147.099 117.507 146.623L117.133 145.095L114.653 145.706Z" fill="white"/>
<path d="M119.032 141.961L116.524 142.573L117.137 145.081L119.645 144.469L119.032 141.961Z" fill="#71495A"/>
<path d="M119.036 141.97L119.647 144.45L120.089 144.348C120.734 143.77 121.312 143.193 121.855 142.615L121.55 141.358L119.036 141.97Z" fill="#D8BFB4"/>
<path d="M117.133 145.096L117.507 146.625C118.288 145.979 119.002 145.334 119.681 144.722L119.613 144.484L117.133 145.096Z" fill="#D8BFB4"/>
<path d="M119.681 144.721C119.817 144.619 119.919 144.483 120.055 144.381L119.613 144.483L119.681 144.721Z" fill="white"/>
<path d="M121.821 142.65C122.399 142.038 122.942 141.461 123.418 140.917L121.482 141.393L121.821 142.65Z" fill="#71495A"/>
<path d="M139.657 136.943C140.336 137.214 141.05 137.452 141.797 137.724L141.492 136.501L139.657 136.943Z" fill="#D8BFB4"/>
<path d="M144.005 135.889L141.525 136.5L141.831 137.723C142.612 137.995 143.427 138.233 144.277 138.471L144.65 138.369L144.005 135.889Z" fill="#71495A"/>
<path d="M146.504 135.275L143.996 135.888L144.609 138.396L147.117 137.783L146.504 135.275Z" fill="#D8BFB4"/>
<path d="M144.243 138.47C144.379 138.504 144.514 138.538 144.65 138.572L144.616 138.368L144.243 138.47Z" fill="#D8BFB4"/>
<path d="M144.617 138.369L144.651 138.572C145.534 138.81 146.485 139.048 147.471 139.286L147.097 137.791L144.617 138.369Z" fill="white"/>
<path d="M148.994 134.659L146.486 135.271L147.099 137.78L149.607 137.167L148.994 134.659Z" fill="#71495A"/>
<path d="M151.498 134.053L148.99 134.665L149.602 137.173L152.11 136.561L151.498 134.053Z" fill="#D8BFB4"/>
<path d="M149.611 137.146L147.131 137.757L147.504 139.252C148.252 139.422 149.033 139.592 149.848 139.727L150.222 139.626L149.611 137.146Z" fill="#D8BFB4"/>
<path d="M152.105 136.533L149.596 137.146L150.209 139.654L152.717 139.041L152.105 136.533Z" fill="white"/>
<path d="M153.977 133.446L151.469 134.059L152.082 136.567L154.59 135.954L153.977 133.446Z" fill="#71495A"/>
<path d="M156.501 132.821L153.993 133.434L154.606 135.942L157.114 135.329L156.501 132.821Z" fill="#D8BFB4"/>
<path d="M154.585 135.926L152.077 136.538L152.69 139.046L155.198 138.434L154.585 135.926Z" fill="#D8BFB4"/>
<path d="M157.106 135.344L154.598 135.956L155.21 138.464L157.718 137.852L157.106 135.344Z" fill="white"/>
<path d="M158.97 132.224L156.462 132.836L157.075 135.344L159.583 134.732L158.97 132.224Z" fill="#71495A"/>
<path d="M161.483 131.608L158.975 132.221L159.588 134.729L162.096 134.116L161.483 131.608Z" fill="#D8BFB4"/>
<path d="M159.586 134.736L157.078 135.349L157.69 137.857L160.198 137.244L159.586 134.736Z" fill="#D8BFB4"/>
<path d="M162.099 134.12L159.591 134.732L160.203 137.241L162.711 136.628L162.099 134.12Z" fill="white"/>
<path d="M163.977 130.985L161.469 131.598L162.081 134.106L164.589 133.493L163.977 130.985Z" fill="#71495A"/>
<path d="M164.593 133.511C164.525 132.695 164.457 131.846 164.321 130.929L163.982 130.997L164.593 133.511Z" fill="#D8BFB4"/>
<path d="M162.079 134.123L162.69 136.603L164.729 136.093C164.729 135.346 164.661 134.497 164.593 133.579L164.559 133.478L162.079 134.123Z" fill="#D8BFB4"/>
<path d="M102.763 151.244L100.792 151.72C100.894 151.924 100.996 152.127 101.098 152.331C101.438 153.011 101.981 153.554 102.593 153.928L103.374 153.724L102.763 151.244Z" fill="#D8BFB4"/>
<path d="M102.594 153.929C102.899 154.099 103.205 154.234 103.511 154.336L103.375 153.759L102.594 153.929Z" fill="white"/>
<path d="M105.262 150.633L102.754 151.245L103.367 153.753L105.875 153.141L105.262 150.633Z" fill="#71495A"/>
<path d="M107.776 150.016L105.268 150.629L105.88 153.137L108.388 152.525L107.776 150.016Z" fill="#D8BFB4"/>
<path d="M103.374 153.724L103.51 154.301C104.359 154.539 105.276 154.505 106.126 154.165L105.854 153.078L103.374 153.724Z" fill="#D8BFB4"/>
<path d="M105.888 153.147L106.16 154.234C106.295 154.166 106.431 154.098 106.567 154.03C107.213 153.69 107.858 153.317 108.47 152.943L108.368 152.535L105.888 153.147Z" fill="white"/>
<path d="M107.756 150.022L108.368 152.502L109.727 152.162C110.067 151.958 110.44 151.72 110.78 151.516L110.27 149.41L107.756 150.022Z" fill="#71495A"/>
<path d="M110.27 149.409L110.78 151.516C111.561 151.006 112.343 150.496 113.056 150.021L112.75 148.798L110.27 149.409Z" fill="#D8BFB4"/>
<path d="M108.47 152.943C108.877 152.705 109.319 152.433 109.727 152.195L108.368 152.535L108.47 152.943Z" fill="#D8BFB4"/>
<path d="M112.75 148.799L113.056 150.022C113.837 149.478 114.585 148.935 115.298 148.391L115.264 148.188L112.75 148.799Z" fill="#71495A"/>
<path d="M115.298 148.391C115.434 148.289 115.57 148.187 115.706 148.085L115.264 148.187L115.298 148.391Z" fill="#D8BFB4"/>
<path d="M149.815 139.762C149.95 139.796 150.086 139.83 150.256 139.83L150.222 139.66L149.815 139.762Z" fill="#71495A"/>
<path d="M150.223 139.659L150.256 139.829C151.14 139.999 152.057 140.135 153.008 140.237L152.703 139.048L150.223 139.659Z" fill="#D8BFB4"/>
<path d="M152.703 139.048L153.008 140.237C153.892 140.339 154.809 140.441 155.726 140.543L155.216 138.437L152.703 139.048Z" fill="#71495A"/>
<path d="M157.697 137.825L155.217 138.437L155.726 140.543C156.168 140.577 156.575 140.611 157.017 140.645L158.308 140.339L157.697 137.825Z" fill="#D8BFB4"/>
<path d="M157.017 140.644C157.459 140.678 157.934 140.712 158.41 140.712L158.308 140.305L157.017 140.644Z" fill="white"/>
<path d="M160.193 137.217L157.685 137.829L158.297 140.337L160.805 139.725L160.193 137.217Z" fill="#71495A"/>
<path d="M162.706 136.6L160.198 137.213L160.81 139.721L163.318 139.109L162.706 136.6Z" fill="#D8BFB4"/>
<path d="M158.308 140.339L158.41 140.747C159.157 140.781 159.904 140.815 160.686 140.815C160.822 140.815 160.958 140.815 161.093 140.815L160.822 139.762L158.308 140.339Z" fill="#D8BFB4"/>
<path d="M160.822 139.728L161.093 140.781C162.011 140.713 162.826 140.305 163.471 139.728L163.336 139.116L160.822 139.728Z" fill="white"/>
<path d="M163.302 139.116L164.151 138.912C164.525 138.3 164.763 137.587 164.763 136.805C164.763 136.568 164.763 136.364 164.763 136.126L162.724 136.636L163.302 139.116Z" fill="#71495A"/>
<path d="M163.302 139.116L163.438 139.727C163.71 139.49 163.948 139.218 164.118 138.912L163.302 139.116Z" fill="#D8BFB4"/>
<path d="M129.907 131.812L132.828 131.098L132.726 130.691L132.319 128.992C132.251 128.72 132.081 128.55 131.843 128.448C131.673 128.381 131.503 128.347 131.299 128.381L129.193 128.89L129.907 131.812Z" fill="#71495A"/>
<path d="M133.338 133.239L132.828 131.133L129.906 131.846L130.62 134.768L132.726 134.258C132.93 134.19 133.1 134.088 133.202 133.919C133.338 133.681 133.372 133.477 133.338 133.239Z" fill="#D8BFB4"/>
<path d="M126.476 130.419L126.884 132.118L126.986 132.526L129.907 131.812L129.194 128.891L127.088 129.4C126.85 129.468 126.68 129.604 126.578 129.808C126.442 130.012 126.408 130.216 126.476 130.419Z" fill="#D8BFB4"/>
<path d="M129.906 131.812L126.984 132.526L127.494 134.598V134.632C127.528 134.836 127.664 134.972 127.8 135.074C128.004 135.21 128.241 135.278 128.479 135.21L130.586 134.7L129.906 131.812Z" fill="white"/>
<path d="M121.209 99.9456C118.321 100.659 115.433 100.659 112.75 100.081C113.225 100.625 114.244 101.848 115.433 103.649C115.977 104.498 116.52 105.313 117.064 106.061C118.967 108.677 121.005 110.307 124.47 109.254C127.799 108.269 128.717 105.653 128.92 102.29C128.988 101.44 128.988 100.557 128.988 99.6398C128.988 97.8733 129.124 96.5144 129.226 95.665C127.052 97.6694 124.334 99.1982 121.209 99.9456Z" fill="#43281F"/>
<path d="M116.691 101.032C112.003 101.032 107.518 99.2998 104.359 96.1404C104.155 95.9365 104.155 95.6308 104.359 95.4269C104.563 95.2231 104.868 95.2231 105.072 95.4269C109.047 99.4017 115.196 100.964 121.107 99.5037C126.849 98.0768 131.503 93.9661 133.27 88.7683C133.371 88.4965 133.643 88.3606 133.915 88.4625C134.187 88.5645 134.323 88.8362 134.221 89.108C132.352 94.6456 127.426 98.9941 121.345 100.523C119.782 100.829 118.22 101.032 116.691 101.032Z" fill="#43281F"/>
<path d="M128.921 102.324C128.717 105.687 127.799 108.303 124.47 109.288C121.005 110.308 118.967 108.677 117.064 106.061C117.438 105.585 118.015 104.974 118.797 104.362C120.325 103.173 122.67 101.984 125.863 101.984C126.814 101.984 127.833 102.086 128.921 102.324Z" fill="#C45D69"/>
<path d="M83.1936 83.639C82.752 83.639 82.3783 83.2993 82.3443 82.8916C81.9027 78.5091 84.4506 74.3305 88.5613 72.7338C92.706 71.1371 97.3942 72.496 100.01 76.0631C100.282 76.4368 100.214 76.9803 99.8402 77.2521C99.4665 77.5239 98.923 77.456 98.6512 77.0823C96.4769 74.1266 92.6041 73.0056 89.1728 74.3305C85.7756 75.6554 83.6353 79.1206 84.009 82.7217C84.043 83.1973 83.7032 83.605 83.2616 83.639C83.2616 83.639 83.2276 83.639 83.1936 83.639Z" fill="#43281F"/>
<path d="M128.921 69.8119C128.479 69.8119 128.106 69.4382 128.072 68.9966C127.902 64.5801 130.755 60.5713 134.968 59.2804C139.181 57.9555 143.801 59.6541 146.179 63.3911C146.417 63.7987 146.315 64.3083 145.907 64.5801C145.5 64.8179 144.99 64.716 144.718 64.3083C142.748 61.2168 138.943 59.8239 135.444 60.9111C131.945 61.9982 129.6 65.2935 129.736 68.9626C129.804 69.4042 129.431 69.7779 128.921 69.8119C128.921 69.8119 128.955 69.8119 128.921 69.8119Z" fill="#43281F"/>
<path d="M87.9496 137.451C87.9496 137.451 87.8817 137.451 87.7798 137.451C87.8477 137.383 87.9157 137.383 87.9496 137.451Z" fill="#945339"/>
<path d="M190.784 146.42C183.854 126.953 166.8 120.635 166.8 120.635L169.382 118.834L169.45 118.902C173.492 121.586 188.576 132.491 190.784 146.42Z" fill="#D59A77"/>
<path d="M87.7799 137.451C86.489 138.539 79.6605 160.213 79.6605 160.213C79.6605 160.213 75.9575 160.179 70.6917 159.907C64.3728 159.568 55.8457 158.888 48.7794 157.529C35.3942 154.947 25.2024 153.622 11.3076 143.533C6.95908 140.373 3.90155 136.025 2.20292 131.336C-2.41736 118.699 2.64456 103.343 17.4226 100.353C41.781 95.3934 44.5668 118.563 55.5739 127.497C56.3213 128.109 58.0199 129.298 58.8692 129.808C62.3005 131.812 64.7125 132.797 70.0462 133.782C79.2868 135.481 86.5229 137.316 87.7799 137.451Z" fill="#945339"/>
<path d="M70.7256 159.873C64.4067 159.533 55.8796 158.854 48.8132 157.495C48.4056 157.427 47.9979 157.325 47.5902 157.257C34.7826 154.811 24.7946 153.282 11.3414 143.498C-4.79555 131.778 -2.82514 104.43 17.4225 100.319C34.3409 96.8879 40.3541 107.08 46.4012 116.422C49.0511 120.533 51.7009 124.474 55.302 126.988C56.0834 127.531 56.8987 128.075 57.782 128.584C61.9607 135.685 66.513 145.435 70.3179 158.412C70.4878 158.922 70.6237 159.397 70.7256 159.873Z" fill="#AD6946"/>
<path d="M194.318 151.108H18.8497V175.806H194.318V151.108Z" fill="#FF8543"/>
<path d="M164.524 172.714C143.495 173.631 134.662 163.983 134.492 153.724C134.492 152.806 134.492 151.957 134.56 151.142H190.717C191.329 162.658 184.568 171.831 164.524 172.714Z" fill="#F38143"/>
<path d="M190.41 151.108C189.255 160.281 182.291 167.211 166.018 168.299C146.79 169.556 138.059 160.893 137.073 151.108H190.41Z" fill="#D8743E"/>
<path d="M190.75 154.947C190.547 155.796 190.275 156.646 189.935 157.461C187.387 163.474 180.83 167.687 168.396 168.23C151.206 168.978 143.393 161.606 142.373 153.316C142.339 153.079 142.305 152.807 142.305 152.569C142.272 152.263 142.272 151.991 142.272 151.686C142.17 145.469 144.174 141.154 148.047 138.232C148.081 138.199 148.149 138.165 148.183 138.131C152.022 135.277 157.695 133.748 164.965 133.069C175.836 132.016 185.689 135.651 189.527 142.887C189.629 143.091 189.731 143.26 189.799 143.464C190.479 144.891 190.92 146.454 191.09 148.119C191.328 150.497 191.26 152.807 190.75 154.947Z" fill="#B6724D"/>
<path d="M26.9014 128.72L26.7655 129.093L26.9014 128.72Z" fill="#C59F6D"/>
<path d="M189.935 157.427C187.387 163.44 180.83 167.653 168.396 168.196C151.206 168.944 143.393 161.572 142.373 153.282C142.306 152.739 142.272 152.195 142.272 151.652C142.17 145.435 144.174 141.12 148.047 138.199C148.081 138.165 148.149 138.131 148.183 138.097C147.198 142.853 146.926 154.302 166.936 154.302C183.548 154.302 189.052 148.56 189.493 142.853C189.595 143.057 189.697 143.227 189.765 143.43C190.445 144.857 190.886 146.42 191.056 148.085C191.43 151.448 191.124 154.641 189.935 157.427Z" fill="#AD6946"/>
<path d="M189.935 157.427C187.387 163.44 180.83 167.653 168.396 168.196C151.206 168.943 143.393 161.571 142.373 153.282C142.306 152.739 142.272 152.195 142.272 151.651C142.17 145.434 144.174 141.12 148.047 138.198C146.28 144.347 143.359 161.503 165.815 161.911C186.878 162.319 190.207 151.278 189.799 143.396C190.479 144.823 190.92 146.386 191.09 148.05C191.43 151.448 191.124 154.641 189.935 157.427Z" fill="#945339"/>
<path d="M189.935 157.427C190.683 153.52 190.954 145.469 187.047 141.698C178.283 133.17 158.069 133.918 149.1 139.693C142.543 143.94 142.373 153.316 142.373 153.316C142.306 152.773 142.272 152.229 142.272 151.686C142.068 139.286 150.221 134.461 164.965 133.035C178.215 131.778 189.969 137.417 191.124 148.084C191.43 151.448 191.124 154.641 189.935 157.427Z" fill="#D59A77"/>
<path d="M190.751 154.948C190.547 155.797 190.275 156.646 189.936 157.462C187.388 163.475 180.831 167.688 168.397 168.231C151.207 168.978 143.393 161.606 142.374 153.317C142.34 153.079 142.306 152.808 142.306 152.57L142.374 152.468C142.374 152.468 143.495 167.755 167.616 167.382C182.767 167.144 188.543 160.112 190.751 154.948Z" fill="#AD6946"/>
<path d="M5.73566 107.079C4.27484 114.146 4.41073 124.813 14.8063 133.17C25.9833 142.139 41.271 143.192 50.5116 142.887C51.259 132.457 49.1187 123.352 46.4349 116.456C40.3877 107.113 34.3746 96.8877 17.4562 100.353C12.3943 101.338 8.52141 103.784 5.73566 107.079Z" fill="#B6724D"/>
<path d="M39.6409 118.392C39.5729 118.222 39.539 118.052 39.471 117.883C36.1417 109.118 26.3576 104.701 17.5926 108.031C11.7833 110.239 7.87647 115.267 6.89127 120.974C6.82332 121.382 6.75538 121.823 6.7214 122.231C6.4836 124.745 6.78935 127.361 7.74058 129.909C11.0699 138.674 20.854 143.09 29.6189 139.761C31.997 138.844 34.0354 137.485 35.734 135.786C40.0825 131.336 41.7811 124.643 39.6409 118.392Z" fill="#AD6946"/>
<path d="M17.2185 106.332C11.4092 108.541 7.50236 113.569 6.51715 119.276C6.44921 119.684 6.38126 120.125 6.34729 120.533C6.41524 122.401 6.78893 124.304 7.50236 126.138C11.0355 135.447 21.4651 140.169 30.7736 136.636C32.4383 135.991 34.001 135.141 35.3599 134.088C39.7424 129.638 41.441 122.911 39.3007 116.66C39.2328 116.49 39.1988 116.32 39.1309 116.151C35.8015 107.454 25.9835 103.037 17.2185 106.332Z" fill="#ECD09C"/>
<path d="M39.301 116.694C41.4413 122.945 39.7426 129.638 35.3602 134.122C33.6955 135.821 31.6232 137.214 29.2451 138.097C20.4802 141.426 10.6621 137.01 7.36673 128.245C6.4155 125.697 6.07577 123.081 6.34755 120.567C6.38152 120.16 6.44947 119.718 6.51741 119.31C7.67248 124.644 11.5454 134.19 24.0473 133.171C35.1224 132.288 39.3689 123.115 39.301 116.694Z" fill="#DCBD8A"/>
<path d="M7.74014 126.75C6.89082 124.712 6.44918 122.64 6.34726 120.567C6.10945 123.081 6.4152 125.697 7.36644 128.245C10.6958 137.01 20.4799 141.427 29.2448 138.097C31.487 137.248 33.7632 135.719 35.0881 134.36C35.1221 134.326 35.0881 134.292 35.0541 134.326C33.4574 135.481 31.6569 136.399 29.6865 137.044C20.8875 139.762 11.2733 135.278 7.74014 126.75Z" fill="#C59F6D"/>
<path d="M70.0461 133.714C64.1348 132.865 53.6373 131.03 45.5518 116.116C42.868 111.156 39.5387 106.774 35.9036 103.988C24.8965 95.5627 8.92934 100.862 3.90139 110.714C-0.0734034 118.494 1.35345 125.934 2.23673 131.302C-2.38354 118.664 0.334268 109.05 8.72551 102.765C18.6115 95.3928 30.7058 95.9364 38.4515 103.342C47.6581 112.107 48.4395 122.367 58.2576 128.822C62.6061 131.642 65.4598 132.627 70.0461 133.714Z" fill="#D59A77"/>
<path d="M24.8277 129.197C26.0097 129.197 26.9679 128.238 26.9679 127.056C26.9679 125.874 26.0097 124.916 24.8277 124.916C23.6456 124.916 22.6874 125.874 22.6874 127.056C22.6874 128.238 23.6456 129.197 24.8277 129.197Z" fill="#C59F6D"/>
<path d="M19.3579 125.629C19.2899 125.629 19.188 125.595 19.1201 125.561C18.8822 125.425 18.7803 125.119 18.8822 124.881C19.6296 123.387 20.9206 122.164 22.4833 121.518C24.0121 120.873 25.7107 120.771 27.2735 121.246C27.5453 121.314 27.6812 121.62 27.6132 121.892C27.5453 122.164 27.2395 122.3 26.9677 122.232C25.6088 121.824 24.148 121.926 22.857 122.469C21.5321 123.047 20.411 124.066 19.7655 125.357C19.6976 125.527 19.5277 125.629 19.3579 125.629Z" fill="#C59F6D"/>
<path d="M15.723 123.964C15.6551 123.964 15.5871 123.964 15.5192 123.93C15.2474 123.828 15.1455 123.522 15.2474 123.251C16.3005 120.669 18.2709 118.664 20.8189 117.577C23.163 116.592 25.7789 116.49 28.191 117.305C28.4627 117.407 28.5986 117.679 28.4967 117.951C28.3948 118.223 28.123 118.359 27.8512 118.257C25.677 117.509 23.2989 117.611 21.1926 118.494C18.8825 119.48 17.1159 121.28 16.1646 123.59C16.0967 123.828 15.9268 123.964 15.723 123.964Z" fill="#C59F6D"/>
<path d="M12.0887 122.198C12.0207 122.198 11.9868 122.198 11.9188 122.164C11.647 122.062 11.5111 121.79 11.6131 121.518C12.8361 117.815 15.6218 114.825 19.189 113.297C22.5183 111.904 26.2213 111.87 29.5506 113.229C29.8224 113.331 29.9243 113.636 29.8224 113.908C29.7205 114.18 29.4147 114.282 29.1429 114.18C26.0514 112.923 22.6202 112.957 19.5627 114.248C16.2333 115.641 13.6854 118.427 12.5303 121.858C12.5303 122.062 12.3265 122.198 12.0887 122.198Z" fill="#C59F6D"/>
<path d="M123.553 107.453C119.103 108.676 118.661 105.992 118.797 104.396C120.326 103.207 122.67 102.018 125.863 102.018C127.392 103.003 127.902 106.23 123.553 107.453Z" fill="#D67679"/>
</svg>
