<svg width="125" height="272" viewBox="0 0 125 272" fill="none" xmlns="http://www.w3.org/2000/svg">
<path d="M167.93 255.416C162.088 260.484 155.666 262.72 149.296 262.693C146.054 262.676 142.873 262.07 139.763 260.963C138.429 260.483 137.128 259.909 135.841 259.266C128.965 255.75 122.828 249.752 118.505 242.185C109.668 226.784 104.421 213.458 104.421 213.458L129.544 195.581C129.544 195.581 131.089 195.075 132.357 196.457C135.202 199.54 136.674 202.193 148.327 208.348C148.327 208.348 164.159 204.372 175.415 214.308C175.643 214.525 175.891 214.718 176.119 214.935C176.65 215.427 177.161 215.943 177.629 216.465C179.654 218.713 181.099 221.146 181.977 223.694C185.207 233.23 180.424 244.599 167.93 255.416Z" fill="#945339"/>
<path d="M133.869 255.47C121.521 249.648 105.3 215.648 105.3 215.648L105.108 215.538C106.982 219.972 111.596 230.385 118.259 241.992C122.607 249.578 128.719 255.558 135.595 259.074C136.453 259.502 137.33 259.906 138.202 260.265L133.869 255.47Z" fill="#B6724D"/>
<path d="M146.436 208.228C141.886 209.536 133.928 207.005 133.928 207.005C134.167 206.238 134.367 205.521 134.568 204.803L131.462 207.114C131.462 207.114 129.099 210.002 125.993 212.671C127.713 215.158 130.294 218.632 133.273 221.9C133.273 221.9 143.368 209.775 160.671 209.68C165.38 209.648 169.943 211.287 173.741 213.96C165.074 207.027 154.93 205.776 146.436 208.228Z" fill="#AD6946"/>
<path d="M178.522 218.587C178.522 218.587 175.003 213.153 168.557 210.924C162.111 208.695 158.067 209.046 153.957 209.942C136.59 213.797 113.302 243.262 134.984 258.837L178.522 218.587Z" fill="#AD6946"/>
<path d="M127.816 208.689C120.607 214.442 112.25 216.563 107.315 216.222C96.9295 215.537 84.3904 207.304 84.3904 207.304L55.2956 191.408L49.9505 201.507C46.392 195.051 44.1389 187.425 42.984 176.802C41.8292 166.178 50.8211 158.079 63.1782 149.736C74.6283 141.999 103.168 133.009 103.168 133.009C103.168 133.009 105.542 133.94 109.183 135.539C121.943 141.086 150.437 154.689 149.494 165.151C148.256 178.599 142.634 189.515 134.837 201.083C132.804 204.108 130.372 206.625 127.816 208.689Z" fill="#AD6946"/>
<path d="M127.815 208.689C118.607 213.285 108.112 213.508 97.0548 204.441C96.8815 204.306 96.6835 204.152 96.5294 203.993C94.9285 202.63 93.5035 201.245 92.2545 199.838C70.6229 175.767 97.9229 146.045 109.226 135.533C111.374 136.448 113.956 137.62 116.805 138.961C117.638 139.37 118.516 139.773 119.399 140.221L119.448 140.26C133.086 146.925 150.303 157.007 149.518 165.17C148.28 178.618 142.658 189.534 134.861 201.102C132.803 204.109 130.371 206.626 127.815 208.689Z" fill="#AD6946"/>
<path d="M92.2316 199.819C70.5999 175.748 97.9 146.026 109.203 135.514C111.351 136.429 113.933 137.601 116.782 138.942C118.746 151.385 118.46 176.331 92.2316 199.819Z" fill="#945339"/>
<path d="M145.709 181.622C136.88 175 135.831 162.197 135.831 162.197L134.148 160.889C129.448 164.741 122.308 165.346 118.129 164.799C118.111 172.129 117.911 180.152 114.687 187.214C109.327 198.968 102.686 202.304 97.0504 204.396C108.089 213.489 118.583 213.266 127.811 208.645C130.391 206.6 132.799 204.064 134.851 201.014C138.812 195.199 143.15 187.573 145.709 181.622Z" fill="#B6724D"/>
<path d="M105.707 140.063C101.14 145.328 96.7221 151.066 85.9314 158.005C76.2567 164.224 58.9828 171.129 47.5982 172.804C41.5004 173.703 31.1443 170.58 24.2591 164.318C20.3503 160.765 17.5682 156.221 17.3647 150.863C17.2811 148.773 17.4506 146.92 17.8484 145.284C18.6548 141.742 20.4296 139.151 22.6501 137.264C26.8109 133.748 32.653 132.769 36.9642 132.943C44.6656 133.249 54.8547 132.551 69.1431 131.584C74.2596 131.232 78.8704 131.122 82.8269 131.139C84.57 131.144 86.2059 131.184 87.7099 131.241C95.2491 131.501 99.4891 132.175 99.4891 132.175C99.4891 132.175 110.274 134.798 105.707 140.063Z" fill="#945339"/>
<path d="M115.483 50.6349C104.342 55.6751 107.108 66.3195 108.815 70.6627C109.278 71.8557 109.68 72.5649 109.68 72.5649L122.577 66.7457L125.878 65.1025L135.427 60.3739C135.408 60.3987 128.941 44.656 115.483 50.6349ZM109.741 38.7109C109.717 38.6916 109.697 38.7164 109.741 38.7109C109.532 38.8265 109.362 38.8925 109.172 38.9834C108.059 39.5476 107.009 40.0815 106.058 40.6924C86.5736 52.5886 95.4984 73.4962 98.3993 79.164C98.8727 80.0876 99.1836 80.6071 99.1836 80.6071L123.794 70.3908L123.8 70.4348L124.261 70.1981L124.792 69.9751L124.762 69.9119L139.791 61.8591L147.999 57.4776L148.252 57.3565C148.252 57.3565 137.246 26.0983 109.741 38.7109Z" fill="#B6724D"/>
<path d="M123.127 66.4982L122.558 66.7707L122.178 66.9524L109.66 72.5899C109.66 72.5899 108.141 69.7422 107.471 66.0061C106.638 61.151 107.306 54.7224 114.724 50.9985C115.104 50.8168 115.483 50.6352 115.887 50.4727C116.14 50.3516 116.399 50.2745 116.632 50.1782C126.974 46.4224 132.931 55.6162 134.759 59.14C135.171 59.9371 135.389 60.4237 135.389 60.4237L123.127 66.4982Z" fill="#DCBD8A"/>
<path d="M124.76 69.9115L124.79 69.9747L124.26 70.1977L123.798 70.4344L123.792 70.3904L99.1821 80.6067C99.1821 80.6067 84.7321 56.7958 103.283 42.6264C104.141 41.9825 105.067 41.3524 106.062 40.736C102.087 46.9766 95.752 57.021 102.757 71.3556C102.757 71.3556 106.085 68.5027 107.855 67.2975C110.59 65.4127 113.501 63.8632 116.445 62.5776C120.425 60.8269 124.504 59.5105 128.493 58.3619C133.112 57.0672 135.336 62.6859 139.801 61.9467L124.76 69.9115Z" fill="#945339"/>
<path d="M116.434 62.49C108.016 68.2161 100.995 75.4646 100.995 75.4646C93.2908 59.8325 97.9591 48.9697 103.279 42.5827C104.136 41.9389 105.062 41.3088 106.057 40.6924C102.082 46.933 95.7473 56.9773 102.752 71.312C102.752 71.312 106.08 68.459 107.85 67.2538C110.585 65.369 113.471 63.8003 116.434 62.49Z" fill="#AD6946"/>
<path d="M128.295 57.1353C116.946 58.5601 110.58 63.023 107.47 66.0051C106.637 61.15 107.304 54.7214 114.723 50.9975C115.102 50.8158 115.482 50.6342 115.886 50.4717C116.139 50.3506 116.397 50.2735 116.631 50.1772C123.859 50.6325 128.295 57.1353 128.295 57.1353Z" fill="#ECD09C"/>
<path d="M148.251 57.3563L147.998 57.4774L146.222 57.2089C146.222 57.2089 143.628 50.0727 138.195 44.7004C132.762 39.3281 123.599 36.0996 115.396 38.3805C107.193 40.6614 96.7658 48.3598 95.5255 58.2338C94.4058 67.2883 97.7683 77.5227 98.3492 79.1253C95.4538 73.5015 86.5291 52.5939 106.033 40.673C107.009 40.0813 108.053 39.5034 109.147 38.9639C109.337 38.8731 109.507 38.807 109.697 38.7162L109.716 38.6914C137.245 26.0981 148.251 57.3563 148.251 57.3563Z" fill="#D59A77"/>
<path d="M134.801 59.134L133.133 59.902C127.381 50.3919 120.694 49.4442 115.911 50.4915C126.692 45.9657 132.919 55.5277 134.801 59.134Z" fill="#C59F6D"/>
<path d="M203.242 151.411C203.223 151.435 203.223 151.435 203.204 151.46C203.069 151.633 202.934 151.807 202.8 151.98C202.761 152.03 202.723 152.079 202.684 152.129C202.569 152.277 202.434 152.45 202.294 152.58C202.14 152.778 201.962 152.957 201.783 153.135C201.387 153.542 201.036 153.944 200.634 154.307C200.494 154.436 200.335 154.591 200.195 154.72C198.76 156.106 197.235 157.303 195.605 158.379C195.523 158.434 195.44 158.489 195.358 158.544C195.339 158.569 195.275 158.599 195.256 158.624C195.154 158.704 195.009 158.789 194.882 158.85C194.673 158.965 194.47 159.125 194.261 159.24C193.659 159.606 193.052 159.928 192.425 160.275C192.299 160.336 192.153 160.421 192.026 160.482C191.837 160.572 191.647 160.663 191.458 160.754C191.331 160.815 191.185 160.9 191.034 160.941C190.718 161.093 190.383 161.269 190.042 161.401C189.896 161.486 189.745 161.528 189.619 161.588C189.599 161.613 189.575 161.594 189.555 161.618C189.366 161.709 189.132 161.806 188.918 161.877C188.898 161.902 188.874 161.883 188.854 161.907C188.621 162.004 188.406 162.075 188.217 162.166C187.964 162.287 187.705 162.364 187.428 162.466C187.257 162.532 187.043 162.604 186.872 162.67C185.888 163.017 184.855 163.325 183.84 163.609C183.645 163.656 183.431 163.728 183.235 163.775C183.021 163.846 182.801 163.874 182.587 163.945C182.48 163.981 182.348 163.998 182.24 164.033C182.026 164.105 181.806 164.133 181.592 164.204C181.22 164.273 180.855 164.386 180.484 164.455C180.069 164.53 179.678 164.623 179.263 164.698C179.068 164.745 178.848 164.772 178.672 164.794C178.433 164.847 178.169 164.88 177.949 164.907C177.754 164.954 177.553 164.957 177.358 165.004C177.163 165.051 176.962 165.054 176.767 165.1C176.679 165.111 176.591 165.123 176.503 165.134C176.264 165.186 176.019 165.194 175.755 165.227C174.523 165.382 173.311 165.512 172.068 165.579C172.068 165.579 153.355 165.649 134.163 157.804C115.611 150.258 107.115 143.975 98.5133 136.498C97.6358 135.737 96.805 134.814 96.0374 133.86C94.4224 131.851 93.1346 129.779 92.719 129.138C92.6943 129.119 92.6888 129.075 92.664 129.056C92.5787 128.91 92.4686 128.745 92.3833 128.599C92.298 128.454 92.1879 128.289 92.1026 128.143C91.822 127.687 91.5413 127.231 91.3046 126.769C91.2193 126.623 91.1339 126.477 91.0486 126.332L91.0239 126.313C90.9386 126.167 90.8533 126.021 90.7872 125.851C89.535 123.528 88.4916 121.09 87.7452 118.525C87.6791 118.355 87.657 118.179 87.5909 118.008C87.3485 117.145 87.1446 116.232 86.9406 115.32C86.8938 115.124 86.8525 114.973 86.8496 114.773C86.8275 114.597 86.7807 114.401 86.7586 114.225C86.7365 114.05 86.7144 113.874 86.6676 113.678C86.5931 113.263 86.5434 112.867 86.513 112.447C86.4964 112.315 86.4991 112.158 86.4577 112.007C86.4356 111.831 86.4328 111.63 86.4107 111.454C86.3886 111.278 86.3858 111.078 86.3829 110.877C86.3608 110.701 86.358 110.5 86.3359 110.324C86.3275 110.08 86.3246 109.879 86.3163 109.634C86.3244 109.521 86.3079 109.389 86.3161 109.277C86.3077 109.032 86.3241 108.807 86.2965 108.587C86.3046 108.474 86.2881 108.342 86.2963 108.229C86.2989 108.072 86.3071 107.96 86.3098 107.803C86.3124 107.646 86.3344 107.465 86.3315 107.264C86.3477 106.681 86.4079 106.093 86.4625 105.46C86.4844 105.279 86.4871 105.122 86.509 104.941C86.5501 104.734 86.5665 104.509 86.5884 104.328C86.6103 104.146 86.6322 103.965 86.6788 103.802C86.7007 103.621 86.7282 103.483 86.7501 103.302C86.7912 103.096 86.8131 102.914 86.8542 102.708C86.8954 102.502 86.9173 102.32 86.9584 102.114C87.548 99.1581 88.5911 96.0782 90.0494 92.9238C90.6344 91.7109 91.2002 90.5229 91.8154 89.3733C92.0104 88.969 92.2494 88.5592 92.4692 88.1742C92.7026 87.7204 92.9608 87.2858 93.2191 86.8513C93.3866 86.5845 93.5295 86.2985 93.697 86.0317C94.3233 84.9701 94.9744 83.9277 95.6255 82.8853C96.0376 82.2527 96.4689 81.5954 96.9057 80.982L96.925 80.9573C98.153 79.1722 99.4416 77.5136 100.722 75.9678C113.48 60.6713 129.641 55.4031 145.03 55.7276C153.328 55.9817 161.398 57.8058 168.669 60.5569C169.28 60.793 171.417 61.6195 171.884 61.7842C192.118 69.208 212.655 86.5132 213.11 115.767C213.139 118.132 213.041 120.557 212.823 123.086C212.76 123.831 212.672 124.557 212.59 125.327C212.549 125.533 212.533 125.759 212.492 125.965C212.075 129.056 211.45 132.262 210.616 135.584C210.388 136.439 210.161 137.294 209.914 138.174C209.834 138.43 209.754 138.685 209.694 138.916C209.634 139.147 209.549 139.359 209.507 139.565C209.488 139.59 209.494 139.634 209.474 139.659C209.474 139.659 209.455 139.684 209.48 139.703C209.42 139.934 209.335 140.146 209.23 140.382C209.216 140.451 209.184 140.544 209.145 140.594C209.06 140.806 209 141.037 208.914 141.248C208.876 141.298 208.862 141.367 208.849 141.435C208.769 141.691 208.665 141.928 208.566 142.208C208.442 142.469 208.363 142.725 208.239 142.986L208.201 143.036C208.077 143.297 207.997 143.553 207.874 143.814C207.789 144.026 207.704 144.238 207.574 144.455C207.541 144.548 207.489 144.667 207.432 144.741C207.346 144.953 207.237 145.145 207.146 145.313C207.146 145.313 207.127 145.338 207.107 145.363C206.984 145.624 206.855 145.841 206.75 146.078C206.621 146.295 206.517 146.531 206.388 146.749C206.349 146.798 206.33 146.823 206.316 146.892C206.187 147.109 206.077 147.301 205.948 147.519C205.819 147.736 205.709 147.929 205.58 148.146C205.523 148.22 205.49 148.314 205.432 148.388C205.341 148.556 205.207 148.729 205.116 148.897C205.097 148.921 205.097 148.921 205.078 148.946C204.948 149.163 204.795 149.361 204.665 149.579C204.512 149.777 204.363 150.019 204.209 150.217C204.056 150.415 203.882 150.638 203.729 150.836C203.569 150.99 203.396 151.213 203.242 151.411Z" fill="#B6724D"/>
<path d="M195.338 158.569C195.319 158.594 195.256 158.624 195.236 158.649C195.11 158.709 194.989 158.814 194.863 158.874C194.654 158.99 194.45 159.149 194.241 159.265C193.659 159.606 176.192 177.08 139.391 161.191C137.617 160.408 135.794 159.587 133.935 158.659C116.015 149.738 108.347 145.25 99.726 137.798C97.8225 136.16 96.7605 134.819 95.9737 133.89C94.3587 131.881 93.0708 129.809 92.6553 129.168C92.6306 129.149 92.625 129.105 92.6003 129.086C92.515 128.94 92.4049 128.775 92.3196 128.63C92.2343 128.484 92.1242 128.319 92.0389 128.173C91.7582 127.717 91.4776 127.261 91.2409 126.799C91.1555 126.653 91.0702 126.508 90.9849 126.362L90.9602 126.343C90.8749 126.197 90.7895 126.051 90.7235 125.881C89.4712 123.558 88.4279 121.12 87.6814 118.555C87.6154 118.385 87.5933 118.209 87.5272 118.038C87.26 117.156 87.0809 116.263 86.8769 115.35C86.8301 115.155 86.7888 115.003 86.7859 114.803C86.7638 114.627 86.717 114.432 86.6949 114.256C86.6728 114.08 86.6507 113.904 86.6039 113.709C86.5294 113.293 86.4797 112.898 86.4492 112.477C86.4327 112.345 86.4353 112.188 86.394 112.037C86.3719 111.861 86.3691 111.66 86.347 111.484C86.3249 111.308 86.322 111.108 86.3192 110.907C86.2971 110.731 86.2942 110.53 86.2721 110.354C86.2638 110.11 86.2609 109.909 86.2525 109.664C86.2607 109.552 86.2442 109.42 86.2523 109.307C86.244 109.062 86.2603 108.837 86.2327 108.617C86.2409 108.504 86.2491 108.391 86.2573 108.279C86.26 108.122 86.2682 108.009 86.2708 107.852C86.2735 107.696 86.2954 107.514 86.2925 107.314C86.3087 106.731 86.3689 106.142 86.4235 105.51C86.4454 105.328 86.4481 105.172 86.47 104.99C86.5111 104.784 86.5275 104.558 86.5494 104.377C86.5713 104.195 86.5932 104.014 86.6399 103.852C86.6618 103.67 86.6892 103.533 86.7111 103.351C86.7522 103.145 86.7741 102.964 86.8153 102.757C86.8564 102.551 86.8783 102.37 86.9194 102.163C87.5282 99.1827 88.5522 96.1276 90.0104 92.9732C90.5954 91.7604 91.1612 90.5723 91.7765 89.4227C91.9715 89.0184 92.2104 88.6086 92.4302 88.2236C92.6637 87.7698 92.9219 87.3353 93.1801 86.9007C93.3477 86.6339 93.4905 86.3479 93.6581 86.0811C94.2844 85.0195 94.9355 83.9771 95.5865 82.9347C95.9986 82.3021 96.4299 81.6448 96.8668 81.0314L96.886 81.0067C98.114 79.2216 99.4027 77.563 100.683 76.0172C110.061 64.7642 121.284 58.9542 132.652 56.7898C136.754 56.0068 140.891 55.6885 144.972 55.8018C133.168 61.0815 107.057 76.6022 106.11 110.88C105.427 135.876 147.622 174.612 195.338 158.569Z" fill="#AD6946"/>
<path d="M139.392 161.191C137.618 160.409 135.795 159.587 133.935 158.659C116.015 149.738 108.347 145.25 99.7267 137.798C97.8232 136.16 96.7612 134.819 95.9744 133.89C94.3594 131.881 93.0716 129.809 92.6561 129.168C92.6313 129.149 92.6258 129.105 92.601 129.086C92.5157 128.94 92.4057 128.775 92.3204 128.63C92.2351 128.484 92.125 128.319 92.0397 128.173C91.759 127.717 91.4783 127.261 91.2416 126.799C91.1563 126.653 91.071 126.508 90.9857 126.362L90.9609 126.343C90.8756 126.197 90.7903 126.051 90.7242 125.881C89.472 123.558 88.4287 121.12 87.6822 118.555C87.6161 118.385 87.594 118.209 87.528 118.039C87.2608 117.156 87.0816 116.263 86.8777 115.35C86.8308 115.155 86.7895 115.004 86.7867 114.803C86.7646 114.627 86.7177 114.432 86.6956 114.256C86.6735 114.08 86.6515 113.904 86.6046 113.709C86.5302 113.294 86.4805 112.898 86.45 112.477C86.4334 112.345 86.4361 112.188 86.3948 112.037C86.3727 111.861 86.3698 111.66 86.3477 111.484C86.3256 111.309 86.3228 111.108 86.3199 110.907C86.2978 110.731 86.295 110.53 86.2729 110.354C86.2645 110.11 86.2617 109.909 86.2533 109.664C86.2615 109.552 86.2449 109.42 86.2531 109.307C86.2447 109.062 86.2611 108.837 86.2335 108.617C86.2417 108.504 86.2499 108.391 86.2581 108.279C86.2607 108.122 86.2689 108.009 86.2716 107.852C86.2742 107.696 86.2961 107.514 86.2933 107.314C86.3095 106.731 86.3696 106.142 86.4243 105.51C86.4462 105.328 86.4489 105.172 86.4708 104.99C86.5119 104.784 86.5283 104.559 86.5502 104.377C86.5721 104.196 86.594 104.014 86.6406 103.852C86.6625 103.67 86.69 103.533 86.7119 103.351C86.753 103.145 86.7749 102.964 86.816 102.757C86.8572 102.551 86.8791 102.37 86.9202 102.164C87.529 99.1828 88.5529 96.1276 90.0112 92.9732C90.5962 91.7604 91.1619 90.5724 91.7772 89.4228C91.9722 89.0185 92.2112 88.6087 92.431 88.2237C92.6644 87.7699 92.9226 87.3353 93.1809 86.9008C93.3484 86.634 93.4912 86.348 93.6588 86.0812C94.2851 85.0196 94.9362 83.9772 95.5873 82.9348C95.9994 82.3022 96.4307 81.6449 96.8675 81.0315L96.8867 81.0067C98.1148 79.2217 99.4034 77.5631 100.684 76.0172C110.062 64.7643 121.285 58.9542 132.653 56.7899L121.879 60.4881C121.879 60.4881 97.044 76.921 94.3319 105.858C92.4514 126.826 117.381 149.053 139.392 161.191Z" fill="#945339"/>
<path d="M172.536 61.4557C145.39 50.0516 120.361 52.4789 100.709 76.0356C108.387 68.5035 125.496 51.03 154.927 58.2152C198.828 68.9011 213.903 94.309 209.173 123.901C206.317 141.73 200.114 155.489 188.924 161.92C162.567 177.092 137.483 159.151 127.52 155.42C129.412 156.255 134.184 158.851 136.26 159.908C154.051 168.689 169.082 168.656 169.082 168.656C200.637 168.202 211.888 141.969 213.205 121.675C214.751 97.8663 204.869 75.0237 172.536 61.4557Z" fill="#D59A77"/>
<path d="M95.1538 132.854C94.3559 131.837 93.1176 129.803 92.647 129.08C92.5617 128.934 92.4516 128.769 92.3663 128.624C92.281 128.478 92.1709 128.313 92.0856 128.168C91.805 127.711 91.5243 127.255 91.2876 126.793C91.2023 126.648 91.1169 126.502 91.0316 126.356L91.0069 126.337C90.9216 126.191 90.8363 126.046 90.7702 125.875C89.518 123.553 88.4746 121.114 87.7089 118.574C87.6429 118.404 87.6208 118.228 87.5547 118.057C87.2875 117.175 87.1083 116.282 86.9044 115.369C86.8823 115.193 86.8355 114.998 86.8134 114.822C86.7913 114.646 86.7444 114.451 86.7224 114.275C86.7003 114.099 86.6534 113.904 86.6313 113.728C86.5816 113.332 86.5072 112.917 86.4767 112.496C86.4601 112.364 86.4628 112.207 86.4215 112.056C86.3994 111.88 86.3966 111.679 86.3745 111.503C86.3716 111.303 86.3495 111.127 86.3467 110.926C86.3246 110.75 86.3217 110.549 86.2996 110.373C86.2802 110.041 86.28 109.683 86.2798 109.326C86.2714 109.081 86.2878 108.856 86.2602 108.636C86.2684 108.523 86.2766 108.41 86.2848 108.298C86.2874 108.141 86.2956 108.028 86.2983 107.871C86.3202 107.69 86.2981 107.514 86.32 107.333C86.3554 106.725 86.3964 106.161 86.451 105.529C86.4729 105.347 86.4756 105.191 86.4975 105.009C86.5386 104.803 86.5358 104.602 86.5769 104.396C86.5988 104.214 86.6207 104.033 86.6674 103.871C86.6893 103.689 86.7167 103.552 86.7386 103.37C86.7797 103.164 86.8016 102.983 86.8427 102.776C86.8839 102.57 86.9058 102.389 86.9469 102.182C87.5557 99.2017 88.5796 96.1466 90.0379 92.9922C90.6229 91.7794 91.1887 90.5913 91.8039 89.4417C91.9989 89.0374 92.2379 88.6276 92.4577 88.2426C92.6911 87.7888 92.9494 87.3543 93.2076 86.9197C93.3752 86.6529 93.518 86.3669 93.6856 86.1001C94.7129 84.3179 95.8008 82.6622 96.875 81.0752C95.9987 82.4586 94.7597 84.5131 93.4633 86.9993C92.7492 88.4294 91.9885 90.0217 91.2635 91.7213C89.1848 96.6961 87.497 102.65 87.4947 108.682C87.5395 120.427 96.788 134.838 104.413 141.477C103.879 141.141 99.6274 138.592 95.1538 132.854Z" fill="#AD6946"/>
<path d="M143.364 150.442C155.582 156.194 169.277 152.807 173.953 142.876C178.629 132.945 172.515 120.231 160.297 114.478C148.078 108.726 134.383 112.113 129.708 122.044C125.032 131.975 131.146 144.689 143.364 150.442Z" fill="#945339"/>
<path d="M137.221 123.776C136.364 136.528 154.501 155.542 174.223 145.537C175.583 144.093 176.715 142.432 177.6 140.578C178.256 139.222 178.706 137.825 179.044 136.42C180.407 130.731 179.304 124.793 176.288 119.988C174.194 116.654 171.138 113.843 167.337 112.042L160.308 108.724C156.463 106.928 152.372 106.369 148.457 106.861C147.049 107.037 145.639 107.371 144.289 107.831C141.472 110.128 137.788 114.768 137.221 123.776Z" fill="#ECD09C"/>
<path d="M137.221 123.775C137.832 114.762 141.472 110.128 144.295 107.874C144.188 107.91 144.036 107.951 143.929 107.987C139.374 109.609 135.37 112.77 132.769 117.141C132.42 117.743 132.096 118.364 131.752 119.011C126.724 129.673 129.642 141.706 145.436 149.173C152.086 152.315 158.874 152.826 164.595 151.236C168.331 150.209 171.637 148.252 174.179 145.542C154.476 155.522 136.364 136.528 137.221 123.775Z" fill="#DCBD8A"/>
<path d="M36.3401 161.596C25.7948 159.278 18.8816 152.081 17.8497 145.285C18.6562 141.743 20.431 139.152 22.6515 137.265C26.8123 133.749 32.6544 132.77 36.9656 132.943C44.667 133.25 54.8561 132.552 69.1444 131.585C74.261 131.233 78.8718 131.123 82.8282 131.14C84.5714 131.145 86.2073 131.185 87.7113 131.242C87.7113 131.242 96.4884 132.821 91.2435 139.981C85.7293 147.487 58.0991 166.393 36.3401 161.596Z" fill="#AD6946"/>
<path d="M64.1243 152.813C43.0408 161.76 16.8562 148.403 22.6516 137.265C26.8124 133.749 32.6545 132.77 36.9657 132.943C44.6671 133.25 54.8562 132.552 69.1446 131.585C74.2611 131.233 78.8719 131.123 82.8283 131.14C82.8283 131.14 87.1592 132.004 87.9601 133.579C90.5419 138.84 88.1573 142.625 64.1243 152.813Z" fill="#B6724D"/>
<path d="M98.6867 208.169C94.3861 212.529 86.9212 217.487 75.335 217.378C74.8648 217.37 74.3699 217.343 73.8998 217.335C57.5337 214.742 47.8445 204.118 46.4923 189.61C46.3402 187.864 46.2705 186.063 46.3712 184.196C46.8902 172.492 53.7971 162.733 63.2748 158.147C64.1159 157.729 64.9873 157.374 65.8642 157.063C68.5334 156.08 71.3843 155.476 74.3206 155.375C75.3874 155.331 76.4597 155.33 77.5183 155.399C91.1257 156.125 103.814 165.189 106.881 178.767C107.862 183.023 107.974 186.762 107.638 189.954C107.618 190.336 107.575 190.699 107.487 191.068C107.243 192.863 106.859 194.431 106.428 195.803C106.329 196.083 106.236 196.408 106.137 196.688C106.038 196.969 105.939 197.249 105.835 197.486C105.684 197.885 105.528 198.239 105.371 198.594C105.3 198.737 105.247 198.855 105.195 198.974C104.292 200.852 103.503 201.867 103.465 201.917C103.415 201.878 101.998 204.826 98.6867 208.169Z" fill="#B6724D"/>
<path d="M98.3017 208.664C93.6273 213.25 86.3187 217.496 75.3346 217.378C74.8645 217.37 74.3695 217.343 73.8994 217.335C57.5333 214.743 47.8441 204.118 46.4919 189.61C46.3398 187.864 46.2701 186.064 46.3709 184.197C46.8898 172.492 53.7968 162.733 63.2744 158.148C61.1392 160.181 59.1445 162.799 57.4771 165.712C53.1205 173.363 51.0197 183.323 54.3017 192.026C56.2097 197.081 59.9624 201.704 66.167 205.214C66.5521 205.434 66.9123 205.634 67.3166 205.829C73.8126 209.169 80.3838 209.193 86.2887 207.469C94.3488 205.117 101.203 199.565 105.008 194.82C106.11 193.453 106.929 192.144 107.481 191.024C107.237 192.82 106.853 194.387 106.422 195.759C106.348 196.059 106.23 196.364 106.131 196.645C106.032 196.925 105.934 197.206 105.829 197.442C105.678 197.841 105.522 198.196 105.365 198.551C105.294 198.694 105.242 198.812 105.189 198.93C104.176 201.001 102.083 204.972 98.3017 208.664Z" fill="#AD6946"/>
<path d="M76.9216 165.058C68.7116 164.792 61.4168 168.97 57.3125 175.428C57.0158 175.912 56.7384 176.371 56.4665 176.875C55.6181 179.193 55.1053 181.692 55.0297 184.293C54.605 197.461 64.946 208.472 78.0886 208.878C80.4641 208.937 82.7763 208.669 84.9618 208.104C92.5541 204.872 98.0518 197.592 98.5889 188.878C98.6053 188.653 98.6216 188.427 98.6133 188.183C98.9999 175.78 89.2806 165.45 76.9216 165.058Z" fill="#ECD09C"/>
<path d="M71.7375 198.505C71.413 198.411 71.1599 198.175 71.0525 197.853L66.3519 184.078C65.7791 182.363 65.9183 180.447 66.7175 178.805C67.5223 177.207 68.8717 176.032 70.5485 175.509C73.9655 174.432 77.6838 176.289 78.8238 179.675L79.6967 182.18L81.8025 181.513C83.5178 180.94 85.4398 181.124 87.0624 181.948C88.641 182.777 89.7965 184.151 90.3198 185.828C91.3526 189.251 89.4465 192.93 86.035 194.051L72.3396 198.496C72.1004 198.548 71.8997 198.551 71.7375 198.505ZM71.9926 197.512L71.5006 197.685L71.9926 197.512ZM74.0573 176.409C73.0399 176.134 71.9428 176.116 70.846 176.454C69.4275 176.901 68.3007 177.891 67.6004 179.252C66.9055 180.658 66.7964 182.28 67.292 183.737L71.9926 197.512L85.688 193.067C88.5635 192.125 90.2032 188.993 89.3054 186.112C88.884 184.713 87.8881 183.542 86.5707 182.836C85.1846 182.116 83.5568 181.963 82.0999 182.459L79.5461 183.293C79.2877 183.37 79.0017 183.228 78.9246 182.969L77.9029 179.992C77.2559 178.219 75.7732 176.908 74.0573 176.409Z" fill="#C59F6D"/>
<path d="M98.564 188.859C98.027 197.572 92.5347 204.897 84.9369 208.085C82.0314 209.321 78.8479 209.944 75.4825 209.83C63.1235 209.438 53.3795 199.089 53.7908 186.705C53.9017 183.139 54.843 179.782 56.4361 176.811C56.708 176.308 56.9855 175.849 57.2821 175.365C56.0266 182.448 55.8579 196.052 71.6039 201.18C85.579 205.726 95.4201 196.738 98.564 188.859Z" fill="#DCBD8A"/>
<path d="M55.03 184.294C55.1056 181.693 55.6184 179.193 56.4668 176.875C54.8929 179.82 53.9516 183.178 53.8216 186.769C53.4294 199.128 63.1295 209.483 75.5132 209.894C78.8786 210.008 82.0814 209.36 84.9676 208.149C82.7821 208.713 80.4947 209.001 78.0944 208.922C64.9216 208.453 54.6053 197.461 55.03 184.294Z" fill="#C59F6D"/>
<path d="M98.3009 208.663C98.4356 208.49 98.5702 208.317 98.7048 208.144C101.559 204.367 103.746 199.714 105.008 194.819C108.031 182.956 103.55 168.439 92.6811 161.94C75.4613 151.658 59.811 161.173 54.354 167.533C46.8114 176.321 46.4225 189.596 46.5655 189.667C46.5655 189.667 46.5407 189.648 46.4472 189.615C46.2951 187.869 46.2254 186.069 46.3261 184.202C46.8451 172.497 53.7218 162.675 63.2297 158.153C84.1862 148.194 103.696 162.478 107.064 178.275C107.982 182.561 107.948 186.743 107.631 189.91C107.612 190.292 107.568 190.655 107.48 191.024C107.236 192.819 106.852 194.387 106.421 195.759C106.347 196.059 106.229 196.364 106.13 196.644C106.032 196.925 105.933 197.205 105.828 197.442C105.677 197.84 105.521 198.195 105.364 198.55C105.293 198.693 105.241 198.811 105.189 198.93C104.175 201 102.082 204.972 98.3009 208.663Z" fill="#D59A77"/>
<path d="M87.6666 131.247C87.6666 131.247 66.6537 133.46 54.3835 134.487C37.4284 135.923 27.3202 133.707 22.0521 143.706C17.2042 152.961 20.4768 159.632 24.2598 164.318C20.3509 160.765 17.5688 156.222 17.3653 150.863C17.2817 148.773 17.4512 146.92 17.849 145.284C18.6555 141.742 20.4302 139.151 22.6508 137.264C26.8116 133.748 32.6536 132.769 36.9649 132.943C44.6662 133.249 54.8553 132.551 69.1437 131.584C74.2602 131.232 78.871 131.122 82.8275 131.14C84.5514 131.169 86.1626 131.19 87.6666 131.247Z" fill="#D59A77"/>
<path d="M167.932 255.416C157.819 264.192 146.013 264.468 135.842 259.266C129.715 256.014 123.27 245.965 134.797 232.253C134.797 232.253 129.218 256.858 154.784 254.967C176.231 253.369 149.127 222.188 149.127 222.188C149.127 222.188 158.369 213.767 169.576 214.415C172.884 214.603 175.505 215.369 177.6 216.402C179.625 218.65 181.07 221.082 181.948 223.631C185.209 233.23 180.425 244.599 167.932 255.416Z" fill="#B6724D"/>
<path d="M140.046 217.475C140.046 217.475 109.225 243.707 134.877 258.516C134.901 258.535 112.695 245.372 140.046 217.475Z" fill="#B6724D"/>
<path d="M112.976 163.256C112.976 163.256 123.83 166.25 133.129 161.486L136.371 162.933C136.371 162.933 137.684 175.703 147.659 181.667L148.065 175.115C148.065 175.115 139.239 163.534 139.041 163.38C138.843 163.226 134.668 160.578 134.668 160.578L124.616 156.5L112.199 159.913L112.976 163.256Z" fill="#945339"/>
<path d="M118.637 134.865C117.722 134.869 116.826 135.205 116.155 135.914L117.577 136.741L118.637 134.865Z" fill="white"/>
<path d="M120.833 135.617C120.264 135.175 119.584 134.925 118.908 134.876L120.665 135.884L120.833 135.617Z" fill="#71495A"/>
<path d="M121.77 136.504C121.567 136.306 121.363 136.108 121.154 135.867C121.074 135.765 120.951 135.669 120.852 135.592L120.684 135.859L121.77 136.504Z" fill="#D8BFB4"/>
<path d="M119.554 137.877L120.691 135.903L118.934 134.895C118.846 134.906 118.752 134.873 118.664 134.884L117.604 136.759L119.554 137.877Z" fill="#D8BFB4"/>
<path d="M119.553 137.878L121.528 139.015L122.517 137.282C122.283 137.021 122.03 136.785 121.771 136.505L120.666 135.884L119.553 137.878Z" fill="white"/>
<path d="M123.497 140.108L124.118 139.002C123.62 138.417 123.078 137.837 122.492 137.263L121.503 138.995L123.497 140.108Z" fill="#D8BFB4"/>
<path d="M125.471 141.245L125.691 140.86C125.212 140.25 124.665 139.626 124.117 139.002L123.496 140.108L125.471 141.245Z" fill="white"/>
<path d="M117.577 136.74L116.155 135.913C116.136 135.938 116.117 135.963 116.117 135.963C115.663 136.444 115.152 137 114.608 137.649L116.459 138.69L117.577 136.74Z" fill="#D8BFB4"/>
<path d="M113.994 138.441C113.744 138.763 113.456 139.135 113.186 139.481L113.354 139.572L113.994 138.441Z" fill="#D8BFB4"/>
<path d="M115.304 140.69L116.441 138.715L114.59 137.674C114.398 137.922 114.181 138.15 113.969 138.422L113.329 139.553L115.304 140.69Z" fill="white"/>
<path d="M119.568 137.897L117.58 136.763L116.446 138.75L118.433 139.885L119.568 137.897Z" fill="#71495A"/>
<path d="M121.531 138.991L119.543 137.856L118.409 139.844L120.396 140.978L121.531 138.991Z" fill="#D8BFB4"/>
<path d="M118.431 139.873L116.443 138.738L115.309 140.726L117.297 141.86L118.431 139.873Z" fill="#D8BFB4"/>
<path d="M120.421 140.984L118.434 139.85L117.299 141.837L119.287 142.972L120.421 140.984Z" fill="white"/>
<path d="M123.509 140.13L121.521 138.995L120.387 140.983L122.375 142.117L123.509 140.13Z" fill="#71495A"/>
<path d="M125.482 141.267L123.494 140.133L122.36 142.12L124.347 143.255L125.482 141.267Z" fill="#D8BFB4"/>
<path d="M122.398 142.121L120.41 140.986L119.276 142.974L121.263 144.108L122.398 142.121Z" fill="#D8BFB4"/>
<path d="M124.347 143.243L122.359 142.108L121.225 144.096L123.213 145.23L124.347 143.243Z" fill="white"/>
<path d="M124.358 143.24L126.333 144.377L127.212 142.837C126.948 142.513 126.703 142.163 126.439 141.839L125.476 141.29L124.358 143.24Z" fill="#71495A"/>
<path d="M126.322 144.38L124.334 143.245L123.2 145.233L125.187 146.367L126.322 144.38Z" fill="#D8BFB4"/>
<path d="M113.354 139.571L113.186 139.481C112.743 140.05 112.331 140.683 111.856 141.346L112.216 141.546L113.354 139.571Z" fill="#71495A"/>
<path d="M115.318 140.713L113.33 139.578L112.196 141.566L114.183 142.7L115.318 140.713Z" fill="#D8BFB4"/>
<path d="M112.216 141.547L111.856 141.346C111.463 141.954 111.051 142.587 110.62 143.244L111.054 143.502L112.216 141.547Z" fill="#D8BFB4"/>
<path d="M114.206 142.704L112.219 141.569L111.084 143.557L113.072 144.691L114.206 142.704Z" fill="white"/>
<path d="M117.308 141.822L115.32 140.688L114.186 142.675L116.173 143.81L117.308 141.822Z" fill="#71495A"/>
<path d="M119.283 142.96L117.295 141.825L116.16 143.813L118.148 144.947L119.283 142.96Z" fill="#D8BFB4"/>
<path d="M116.169 143.798L114.182 142.663L113.047 144.651L115.035 145.785L116.169 143.798Z" fill="#D8BFB4"/>
<path d="M118.146 144.935L116.158 143.801L115.024 145.788L117.011 146.923L118.146 144.935Z" fill="white"/>
<path d="M121.259 144.096L119.271 142.962L118.137 144.949L120.125 146.084L121.259 144.096Z" fill="#71495A"/>
<path d="M123.236 145.235L121.248 144.101L120.114 146.088L122.101 147.223L123.236 145.235Z" fill="#D8BFB4"/>
<path d="M120.122 146.073L118.135 144.938L117 146.926L118.988 148.061L120.122 146.073Z" fill="#D8BFB4"/>
<path d="M122.099 147.211L120.111 146.076L118.977 148.064L120.964 149.198L122.099 147.211Z" fill="white"/>
<path d="M125.228 146.344L123.24 145.21L122.106 147.198L124.093 148.332L125.228 146.344Z" fill="#71495A"/>
<path d="M127.177 147.466L125.189 146.332L124.055 148.32L126.043 149.454L127.177 147.466Z" fill="#D8BFB4"/>
<path d="M124.091 148.32L122.104 147.186L120.969 149.173L122.957 150.308L124.091 148.32Z" fill="#D8BFB4"/>
<path d="M126.066 149.458L124.078 148.323L122.944 150.311L124.931 151.445L126.066 149.458Z" fill="white"/>
<path d="M128.044 150.595L126.057 149.461L124.922 151.449L126.91 152.583L128.044 150.595Z" fill="#D8BFB4"/>
<path d="M111.08 143.522L110.645 143.263C110.277 143.89 109.89 144.542 109.483 145.219L109.942 145.496L111.08 143.522Z" fill="#71495A"/>
<path d="M113.085 144.652L111.098 143.518L109.963 145.505L111.951 146.64L113.085 144.652Z" fill="#D8BFB4"/>
<path d="M109.942 145.496L109.483 145.218C109.431 145.337 109.373 145.411 109.321 145.529C108.991 146.107 108.662 146.684 108.371 147.212L108.83 147.49L109.942 145.496Z" fill="#D8BFB4"/>
<path d="M111.947 146.629L109.959 145.494L108.825 147.482L110.812 148.616L111.947 146.629Z" fill="white"/>
<path d="M115.062 145.79L113.074 144.655L111.94 146.643L113.927 147.777L115.062 145.79Z" fill="#71495A"/>
<path d="M117.036 146.927L115.049 145.793L113.914 147.781L115.902 148.915L117.036 146.927Z" fill="#D8BFB4"/>
<path d="M113.923 147.766L111.936 146.632L110.801 148.619L112.789 149.754L113.923 147.766Z" fill="#D8BFB4"/>
<path d="M115.9 148.904L113.912 147.77L112.778 149.757L114.765 150.892L115.9 148.904Z" fill="white"/>
<path d="M118.984 148.049L116.996 146.915L115.862 148.903L117.849 150.037L118.984 148.049Z" fill="#71495A"/>
<path d="M120.978 149.16L118.99 148.025L117.856 150.013L119.843 151.147L120.978 149.16Z" fill="#D8BFB4"/>
<path d="M117.874 150.041L115.887 148.906L114.752 150.894L116.74 152.028L117.874 150.041Z" fill="#D8BFB4"/>
<path d="M119.866 151.151L117.879 150.017L116.744 152.004L118.732 153.139L119.866 151.151Z" fill="white"/>
<path d="M122.952 150.297L120.965 149.162L119.83 151.15L121.818 152.284L122.952 150.297Z" fill="#71495A"/>
<path d="M124.929 151.434L122.941 150.3L121.807 152.287L123.795 153.422L124.929 151.434Z" fill="#D8BFB4"/>
<path d="M121.816 152.273L119.828 151.139L118.694 153.126L120.681 154.261L121.816 152.273Z" fill="#D8BFB4"/>
<path d="M123.79 153.411L121.803 152.276L120.668 154.264L122.656 155.398L123.79 153.411Z" fill="white"/>
<path d="M126.906 152.572L124.918 151.438L123.784 153.425L125.771 154.56L126.906 152.572Z" fill="#71495A"/>
<path d="M125.783 154.52L123.795 153.386L122.66 155.373L124.648 156.508L125.783 154.52Z" fill="#D8BFB4"/>
<path d="M127.759 155.658L125.771 154.523L124.637 156.511L126.625 157.645L127.759 155.658Z" fill="white"/>
<path d="M108.829 147.489L108.37 147.212C107.988 147.907 107.65 148.598 107.326 149.219L107.711 149.439L108.829 147.489Z" fill="#71495A"/>
<path d="M110.81 148.605L108.822 147.471L107.688 149.458L109.675 150.593L110.81 148.605Z" fill="#D8BFB4"/>
<path d="M107.692 149.465L107.307 149.245C106.95 149.96 106.637 150.669 106.338 151.31L106.555 151.439L107.692 149.465Z" fill="#D8BFB4"/>
<path d="M109.699 150.596L107.711 149.462L106.576 151.449L108.564 152.584L109.699 150.596Z" fill="white"/>
<path d="M112.784 149.743L110.797 148.608L109.662 150.596L111.65 151.73L112.784 149.743Z" fill="#71495A"/>
<path d="M114.761 150.881L112.773 149.746L111.639 151.734L113.627 152.868L114.761 150.881Z" fill="#D8BFB4"/>
<path d="M111.648 151.718L109.66 150.584L108.526 152.572L110.513 153.706L111.648 151.718Z" fill="#D8BFB4"/>
<path d="M113.626 152.855L111.639 151.721L110.504 153.708L112.492 154.843L113.626 152.855Z" fill="white"/>
<path d="M116.753 151.99L114.766 150.855L113.631 152.843L115.619 153.978L116.753 151.99Z" fill="#71495A"/>
<path d="M118.728 153.127L116.74 151.992L115.606 153.98L117.593 155.114L118.728 153.127Z" fill="#D8BFB4"/>
<path d="M115.615 153.966L113.627 152.832L112.493 154.82L114.48 155.954L115.615 153.966Z" fill="#D8BFB4"/>
<path d="M117.591 155.103L115.604 153.969L114.469 155.956L116.457 157.091L117.591 155.103Z" fill="white"/>
<path d="M120.704 154.264L118.717 153.13L117.582 155.117L119.57 156.252L120.704 154.264Z" fill="#71495A"/>
<path d="M122.681 155.402L120.693 154.268L119.559 156.255L121.546 157.39L122.681 155.402Z" fill="#D8BFB4"/>
<path d="M119.57 156.241L117.582 155.106L116.448 157.094L118.435 158.228L119.57 156.241Z" fill="#D8BFB4"/>
<path d="M121.558 157.35L119.57 156.216L118.436 158.203L120.423 159.338L121.558 157.35Z" fill="white"/>
<path d="M124.646 156.497L122.658 155.362L121.524 157.35L123.511 158.484L124.646 156.497Z" fill="#71495A"/>
<path d="M126.622 157.634L124.635 156.5L123.5 158.488L125.488 159.622L126.622 157.634Z" fill="#D8BFB4"/>
<path d="M123.536 158.488L121.549 157.354L120.414 159.341L122.402 160.476L123.536 158.488Z" fill="#D8BFB4"/>
<path d="M125.513 159.626L123.525 158.491L122.391 160.479L124.379 161.613L125.513 159.626Z" fill="white"/>
<path d="M125.497 159.606L124.36 161.581L125.875 162.44C126.095 162.413 126.296 162.41 126.516 162.382L127.447 160.724L125.497 159.606Z" fill="#D8BFB4"/>
<path d="M106.337 151.31C106.062 151.97 105.801 152.562 105.584 153.147L106.573 151.415L106.337 151.31Z" fill="#71495A"/>
<path d="M108.55 152.552L106.575 151.415L105.586 153.147C105.553 153.241 105.52 153.334 105.488 153.428L107.413 154.526L108.55 152.552Z" fill="#D8BFB4"/>
<path d="M107.413 154.527L105.487 153.428C105.185 154.226 104.941 154.949 104.735 155.623L106.3 156.521L107.413 154.527Z" fill="white"/>
<path d="M110.538 153.71L108.551 152.575L107.416 154.563L109.404 155.697L110.538 153.71Z" fill="#71495A"/>
<path d="M112.531 154.821L110.543 153.687L109.409 155.674L111.396 156.809L112.531 154.821Z" fill="#D8BFB4"/>
<path d="M109.4 155.686L107.412 154.552L106.278 156.539L108.265 157.674L109.4 155.686Z" fill="#D8BFB4"/>
<path d="M111.392 156.797L109.404 155.662L108.27 157.65L110.257 158.784L111.392 156.797Z" fill="white"/>
<path d="M114.478 155.942L112.49 154.808L111.356 156.795L113.343 157.93L114.478 155.942Z" fill="#71495A"/>
<path d="M116.454 157.08L114.467 155.945L113.332 157.933L115.32 159.067L116.454 157.08Z" fill="#D8BFB4"/>
<path d="M113.368 157.934L111.381 156.8L110.246 158.787L112.234 159.922L113.368 157.934Z" fill="#D8BFB4"/>
<path d="M115.343 159.071L113.355 157.937L112.221 159.924L114.209 161.059L115.343 159.071Z" fill="white"/>
<path d="M118.429 158.217L116.441 157.083L115.307 159.071L117.295 160.205L118.429 158.217Z" fill="#71495A"/>
<path d="M120.425 159.327L118.438 158.192L117.303 160.18L119.291 161.314L120.425 159.327Z" fill="#D8BFB4"/>
<path d="M117.31 160.166L115.322 159.031L114.188 161.019L116.175 162.153L117.31 160.166Z" fill="#D8BFB4"/>
<path d="M117.304 160.188L116.167 162.163L116.527 162.363C117.228 162.432 117.904 162.481 118.581 162.53L119.278 161.325L117.304 160.188Z" fill="white"/>
<path d="M122.398 160.465L120.41 159.33L119.276 161.318L121.263 162.452L122.398 160.465Z" fill="#71495A"/>
<path d="M122.386 160.444L121.249 162.419L121.584 162.6C122.343 162.594 123.077 162.569 123.767 162.549L124.336 161.562L122.386 160.444Z" fill="#D8BFB4"/>
<path d="M119.275 161.281L118.577 162.486C119.479 162.551 120.331 162.578 121.159 162.586L121.269 162.394L119.275 161.281Z" fill="#D8BFB4"/>
<path d="M121.139 162.611C121.295 162.614 121.452 162.617 121.584 162.6L121.249 162.419L121.139 162.611Z" fill="white"/>
<path d="M123.791 162.568C124.525 162.543 125.235 162.499 125.875 162.441L124.36 161.581L123.791 162.568Z" fill="#71495A"/>
<path d="M106.274 156.501L104.709 155.602C104.644 155.789 104.583 156.02 104.537 156.183C104.35 156.832 104.345 157.502 104.535 158.126L105.137 158.475L106.274 156.501Z" fill="#D8BFB4"/>
<path d="M104.534 158.127C104.617 158.429 104.738 158.682 104.884 158.954L105.161 158.495L104.534 158.127Z" fill="white"/>
<path d="M108.279 157.635L106.291 156.501L105.157 158.489L107.144 159.623L108.279 157.635Z" fill="#71495A"/>
<path d="M110.255 158.772L108.268 157.638L107.133 159.625L109.121 160.76L110.255 158.772Z" fill="#D8BFB4"/>
<path d="M105.161 158.496L104.884 158.955C105.28 159.62 105.885 160.17 106.639 160.477L107.136 159.633L105.161 158.496Z" fill="#D8BFB4"/>
<path d="M107.157 159.608L106.66 160.452C106.778 160.504 106.916 160.532 107.034 160.584C107.658 160.751 108.302 160.894 108.926 161.061L109.107 160.726L107.157 159.608Z" fill="white"/>
<path d="M110.243 158.75L109.106 160.725L110.187 161.327C110.555 161.415 110.899 161.483 111.243 161.552L112.193 159.868L110.243 158.75Z" fill="#71495A"/>
<path d="M112.218 159.888L111.267 161.571C112.092 161.736 112.868 161.862 113.643 161.988L114.193 161.025L112.218 159.888Z" fill="#D8BFB4"/>
<path d="M108.926 161.062C109.363 161.163 109.775 161.246 110.169 161.353L109.088 160.751L108.926 161.062Z" fill="#D8BFB4"/>
<path d="M114.193 161.026L113.643 161.989C114.488 162.129 115.282 162.23 116.096 162.306L116.187 162.139L114.193 161.026Z" fill="#71495A"/>
<path d="M116.095 162.306C116.252 162.309 116.39 162.336 116.546 162.339L116.186 162.138L116.095 162.306Z" fill="#D8BFB4"/>
</svg>
