<svg width="62" height="62" viewBox="0 0 62 62" fill="none" xmlns="http://www.w3.org/2000/svg">
<path d="M31.0804 61.2013C47.7161 61.2013 61.202 47.7154 61.202 31.0796C61.202 14.4439 47.7161 0.958008 31.0804 0.958008C14.4447 0.958008 0.958771 14.4439 0.958771 31.0796C0.958771 47.7154 14.4447 61.2013 31.0804 61.2013Z" fill="white"/>
<path fill-rule="evenodd" clip-rule="evenodd" d="M44.2238 18.6201C43.5392 18.6201 42.8546 18.894 42.4439 19.3047C39.8425 21.9061 32.7228 25.4659 29.4368 25.4659H20.6742C17.7989 25.4659 15.4713 27.7935 15.4713 30.6688C15.4713 33.544 17.7989 35.8716 20.6742 35.8716H22.4541V43.5389C22.4541 45.045 23.6863 46.2773 25.1924 46.2773C26.5616 46.2773 27.6569 45.3188 27.9307 43.9497L28.7522 39.2945H30.806C31.2167 39.2945 31.4906 39.0207 31.6275 38.6099L32.1751 36.2824C35.735 37.3777 40.3901 39.9791 42.4439 41.8959C42.8546 42.3067 43.5392 42.5805 44.2238 42.5805C45.7299 42.5805 46.8252 41.4852 46.8252 39.9791V21.2215C46.8252 19.8524 45.593 18.6201 44.2238 18.6201ZM20.5372 34.2286C18.6204 34.2286 16.9774 32.7225 16.9774 30.8057C16.9774 28.8889 18.4835 27.3828 20.5372 27.3828V34.2286ZM23.9602 27.2459H22.1802V34.0917H23.1387H23.9602V27.2459ZM26.0139 43.6759C25.877 44.2235 25.4662 44.4974 25.0555 44.4974C24.5078 44.4974 24.0971 44.0866 24.0971 43.5389V35.8716H27.3831L26.0139 43.6759ZM28.8892 37.6515H29.9845L30.3952 36.0085C29.9845 36.0085 29.7107 35.8716 29.2999 35.8716H29.163L28.8892 37.6515ZM41.4855 39.2945C38.0626 36.9669 32.5859 34.2286 29.163 34.2286H28.3415H25.7401V27.3828H29.2999C32.7228 27.3828 38.1995 24.7814 41.6224 22.3169V39.2945H41.4855ZM44.2238 41.0744C44.7715 41.0744 45.0453 40.6637 45.0453 40.2529V21.2215C45.0453 20.8108 44.6345 20.4 44.2238 20.4C43.6761 20.4 43.4023 20.8108 43.4023 21.2215V40.2529C43.2654 40.6637 43.6761 41.0744 44.2238 41.0744Z" fill="#5695A4"/>
</svg>
