<svg width="204" height="301" viewBox="0 0 204 301" fill="none" xmlns="http://www.w3.org/2000/svg">
<path d="M70.6947 300.165C109.738 300.165 141.389 291.789 141.389 281.456C141.389 271.124 109.738 262.748 70.6947 262.748C31.6511 262.748 0 271.124 0 281.456C0 291.789 31.6511 300.165 70.6947 300.165Z" fill="#12A9AA"/>
<path d="M71.9027 294.733C104.257 294.733 130.485 288.191 130.485 280.12C130.485 272.049 104.257 265.507 71.9027 265.507C39.5489 265.507 13.3209 272.049 13.3209 280.12C13.3209 288.191 39.5489 294.733 71.9027 294.733Z" fill="#17A2AB"/>
<path d="M71.7721 290.898C96.6267 290.898 116.775 286.034 116.775 280.035C116.775 274.035 96.6267 269.172 71.7721 269.172C46.9176 269.172 26.7689 274.035 26.7689 280.035C26.7689 286.034 46.9176 290.898 71.7721 290.898Z" fill="#0096A6"/>
<path d="M50.4306 274.602C50.4306 274.516 50.0427 264.989 52.198 253.695C54.3964 242.315 59.2244 236.841 59.4399 236.582L60.3451 237.401C60.302 237.444 55.5172 242.919 53.405 253.911C51.2497 265.032 51.6376 274.43 51.6376 274.516L50.4306 274.602Z" fill="#272425"/>
<path d="M96.6009 269.043C96.1698 268.914 85.8242 265.724 84.8328 259.818C83.8844 254.171 85.6949 241.455 85.7811 240.895L86.9881 241.067C86.9881 241.196 85.0914 254.128 86.0397 259.603C86.9019 264.776 96.8595 267.836 96.9457 267.836L96.6009 269.043Z" fill="#272425"/>
<path d="M54.8744 274.688C54.8744 273.955 54.314 273.309 53.5812 273.309C49.1412 273.265 48.5808 268.782 47.1152 269.429C45.5202 270.119 45.7358 273.826 45.7358 273.826C42.2441 274.602 40.6492 276.24 39.9164 277.619H54.8312L54.8744 274.688Z" fill="#3B6876"/>
<path d="M39.8708 277.618C39.2242 278.868 39.2673 279.903 39.2673 279.903H54.7426L54.7857 277.618H39.8708Z" fill="#5494A2"/>
<path d="M95.3519 264.167C94.6191 264.124 93.9725 264.728 93.9725 265.46C93.8432 269.9 89.3601 270.375 89.9636 271.883C90.6533 273.478 94.3173 273.349 94.3173 273.349C95.0501 276.884 96.6451 278.479 98.0245 279.211L98.2831 264.253L95.3519 264.167Z" fill="#3B6876"/>
<path d="M98.0654 279.171C99.3155 279.86 100.35 279.774 100.35 279.774L100.609 264.299L98.281 264.256L98.0654 279.171Z" fill="#5494A2"/>
<path fill-rule="evenodd" clip-rule="evenodd" d="M120.699 248.479C119.923 253.307 115.311 256.626 110.483 255.807L35.0464 243.435C30.2184 242.66 26.8992 238.047 27.7182 233.219L59.0136 42.2141C59.7895 37.3861 64.4019 34.0669 69.2299 34.886L144.623 47.2575C149.451 48.0335 152.77 52.6459 151.951 57.4738" fill="#5494A2"/>
<path fill-rule="evenodd" clip-rule="evenodd" d="M131.174 147.179L114.75 247.488C113.975 252.316 109.362 255.635 104.534 254.859L29.0977 242.488C24.2698 241.712 20.9506 237.099 21.7696 232.272L48.7112 67.9062C56.0393 93.4253 76.2132 128.773 131.174 147.179Z" fill="#98DFEB"/>
<path fill-rule="evenodd" clip-rule="evenodd" d="M146.045 56.4386L131.173 147.178C76.212 128.771 56.0381 93.3809 48.6669 67.8619L53.0206 41.1789C53.7965 36.351 58.4089 33.0318 63.2369 33.8508L138.63 46.2224C143.544 47.0414 146.82 51.6107 146.045 56.4386Z" fill="#81C4D5"/>
<path fill-rule="evenodd" clip-rule="evenodd" d="M143.154 96.6562L142.464 96.5269C142.162 96.4838 141.947 96.1821 141.99 95.8372L145.438 74.715C145.481 74.4133 145.783 74.1977 146.128 74.2408L146.818 74.3702C147.119 74.4133 147.335 74.715 147.292 75.0599L143.843 96.1821C143.8 96.5269 143.498 96.7425 143.154 96.6562Z" fill="#98DFEB"/>
<path fill-rule="evenodd" clip-rule="evenodd" d="M110.394 50.2316L92.7632 47.3435C92.5046 47.3004 92.2891 47.0417 92.3322 46.7831L92.4184 46.2227C92.4615 45.9641 92.7201 45.7485 92.9788 45.7917L110.609 48.6798C110.868 48.7229 111.084 48.9815 111.04 49.2402L110.954 49.8006C110.911 50.1023 110.652 50.2747 110.394 50.2316Z" fill="black"/>
<path d="M88.3702 47.2146C89.1083 47.2146 89.7065 46.6163 89.7065 45.8783C89.7065 45.1403 89.1083 44.542 88.3702 44.542C87.6322 44.542 87.0339 45.1403 87.0339 45.8783C87.0339 46.6163 87.6322 47.2146 88.3702 47.2146Z" fill="#E9EDF6"/>
<path d="M109.748 237.572L30.4319 224.425C29.5266 224.295 28.9231 223.433 29.0525 222.528L56.9424 54.4554C57.0717 53.5502 57.9338 52.9467 58.8391 53.076L138.155 66.2235C139.06 66.3528 139.664 67.215 139.535 68.1202L111.645 236.236C111.515 237.098 110.653 237.744 109.748 237.572Z" fill="white"/>
<path d="M51.5999 0.487508C51.2119 0.358188 50.824 0.228869 50.436 0.142656C48.8842 -0.15909 47.2893 0.0133361 45.8236 0.703041C43.9269 1.56517 42.4182 3.20322 41.7285 5.18612L40.8664 7.55698L37.9351 6.60864C34.0555 5.27233 29.7449 7.34145 28.3655 11.221C27.6758 13.1177 27.8051 15.1868 28.6672 17.0404C29.5725 18.9371 31.2105 20.4027 33.1934 21.0493L39.918 23.334L49.0135 26.4376C49.4015 26.567 49.7894 26.4808 50.0912 26.2652C50.2636 26.1359 50.3929 25.9635 50.4791 25.7048L56.0399 10.1434C57.4193 6.26378 55.4364 1.95313 51.5999 0.487508Z" fill="#C45D69"/>
<path d="M37.1589 69.5001C35.7364 73.897 32.5034 77.6903 27.9341 79.7595C19.3559 83.5528 9.31209 79.7164 5.51871 71.1813C3.96687 67.6896 3.66513 63.9394 4.48415 60.4477C5.60492 55.4043 9.05345 50.9643 14.0969 48.7227C22.6751 44.8863 32.7189 48.7658 36.5123 57.3009C38.2797 61.3099 38.409 65.6636 37.1589 69.5001Z" fill="#F9CC2E"/>
<path d="M37.1606 69.5001C35.3501 72.302 32.7206 74.6729 29.4445 76.1385C20.4784 80.1474 10.0035 76.0954 5.99457 67.1724C5.00312 64.9739 4.52895 62.6893 4.48584 60.4477C5.60661 55.4043 9.05513 50.9643 14.0986 48.7227C22.6768 44.8863 32.7206 48.7658 36.514 57.3009C38.2814 61.3099 38.4107 65.6636 37.1606 69.5001Z" fill="#FFDA57"/>
<path d="M20.4308 74.2006C17.4133 74.2006 14.4821 73.0367 12.2406 70.8382C11.8526 70.4503 11.8526 69.8468 12.2406 69.4588C12.6285 69.0709 13.232 69.0709 13.62 69.4588C16.5081 72.3039 20.7756 73.0798 24.4397 71.4417C28.1038 69.8037 30.4315 66.0103 30.216 62.0014C30.1729 61.4841 30.6039 61.01 31.1212 60.9668C31.6385 60.9237 32.1127 61.3548 32.1558 61.8721C32.4144 66.7 29.6125 71.2262 25.2156 73.2091C23.6638 73.8988 22.0257 74.2006 20.4308 74.2006Z" fill="#945339"/>
<path d="M15.3435 64.5425C14.0072 65.146 12.4122 64.5425 11.8087 63.2062L11.3345 62.0855C10.7311 60.7492 11.3345 59.1542 12.6708 58.5507C14.0072 57.9472 15.6021 58.5507 16.2056 59.887L16.6798 61.0078C17.2832 62.3441 16.6798 63.939 15.3435 64.5425Z" fill="#945339"/>
<path d="M25.4757 60.0171C24.1394 60.6206 22.5444 60.0172 21.9409 58.6808L21.4667 57.5601C20.8633 56.2238 21.4667 54.6288 22.8031 54.0253C24.1394 53.4218 25.7343 54.0253 26.3378 55.3616L26.812 56.4824C27.4155 57.8187 26.812 59.4137 25.4757 60.0171Z" fill="#945339"/>
<path d="M51.8167 8.97936C51.0408 15.9195 46.2128 21.394 39.9193 23.2907L33.1947 21.0492C31.2118 20.3595 29.5737 18.8939 28.6685 17.0403C27.7632 15.1867 27.677 13.1176 28.3667 11.2209C29.7461 7.34131 34.0568 5.2722 37.9364 6.6085L40.8245 7.59995L41.6867 5.22909C42.3764 3.2893 43.8851 1.65125 45.7818 0.74601C47.2474 0.0563049 48.8854 -0.116121 50.3942 0.185625C51.6443 2.81512 52.1615 5.87569 51.8167 8.97936Z" fill="#ED6F71"/>
<path d="M201.347 91.486L193.028 91.9171C192.252 91.9602 191.605 92.3481 191.174 92.9947L189.536 95.6673L186.82 100.107C185.829 101.745 183.415 101.487 182.725 99.7194L179.751 91.9171C179.492 91.2274 178.889 90.667 178.156 90.4946L170.052 88.5117C168.198 88.0806 167.681 85.7097 169.147 84.5028L175.656 79.2438C176.259 78.7696 176.561 78.0368 176.518 77.304L175.871 68.9844C175.742 67.0877 177.811 65.8376 179.406 66.8722L184.191 69.9758L186.433 71.4415C187.079 71.8725 187.855 71.9156 188.545 71.657L196.261 68.4671C198.028 67.7343 199.839 69.3724 199.365 71.1828L197.209 79.2438C196.994 79.9766 197.166 80.7525 197.683 81.3129L203.072 87.6495C204.192 89.1583 203.244 91.3998 201.347 91.486Z" fill="#F9CC2E"/>
<path d="M201.351 91.4839L193.031 91.915C192.255 91.9581 191.609 92.346 191.177 92.9926L189.539 95.6652C181.953 92.6909 177.858 84.3282 180.272 76.4397C181.047 73.9395 182.384 71.7842 184.108 70.0168L186.35 71.4825C186.996 71.9135 187.772 71.9566 188.462 71.698L196.178 68.5081C197.945 67.7753 199.756 69.4134 199.281 71.2238L197.126 79.2848C196.911 80.0176 197.083 80.7935 197.6 81.3539L202.989 87.6905C204.196 89.1562 203.247 91.3977 201.351 91.4839Z" fill="#FFDA57"/>
<path d="M153.289 39.4586C149.41 40.7518 145.013 40.407 141.176 38.2516C133.977 34.1565 131.477 24.9748 135.572 17.776C137.254 14.8448 139.797 12.6464 142.685 11.4394C146.866 9.6289 151.78 9.75822 156.048 12.1722C163.247 16.2673 165.747 25.449 161.652 32.6478C159.712 36.0101 156.695 38.3379 153.289 39.4586Z" fill="#F9CC2E"/>
<path d="M153.289 39.4567C150.358 39.6291 147.298 39.0256 144.539 37.4307C136.995 33.1631 134.366 23.5504 138.676 16.0498C139.711 14.1962 141.09 12.6444 142.685 11.4374C146.867 9.62695 151.781 9.75627 156.048 12.1702C163.247 16.2654 165.747 25.447 161.652 32.6458C159.712 36.0082 156.695 38.3359 153.289 39.4567Z" fill="#FFDA57"/>
<path d="M151.306 17C151.263 16.8706 151.263 16.7413 151.177 16.612C151.004 16.1378 150.659 15.7068 150.228 15.405C149.668 15.0171 148.935 14.8877 148.245 15.0602L147.426 15.2326L147.211 14.2411C146.909 12.9048 145.573 12.0858 144.237 12.3444C143.59 12.4738 143.03 12.8617 142.685 13.4652C142.297 14.0687 142.211 14.7584 142.34 15.4481L142.857 17.7328L143.59 20.8364C143.633 20.9658 143.719 21.052 143.805 21.0951C143.892 21.1382 143.935 21.1382 144.021 21.0951L149.366 19.9312C150.703 19.6295 151.565 18.2932 151.306 17Z" fill="#ED6F71"/>
<path d="M161.35 23.249C161.307 23.1197 161.307 22.9903 161.22 22.861C161.048 22.3868 160.703 21.9558 160.272 21.654C159.712 21.2661 158.979 21.1368 158.289 21.3092L157.47 21.4816L157.255 20.4902C156.953 19.1539 155.617 18.3348 154.28 18.5935C153.634 18.7228 153.073 19.1107 152.728 19.7142C152.34 20.3177 152.254 21.0074 152.384 21.6971L152.901 23.9818L153.634 27.0855C153.677 27.2148 153.763 27.301 153.849 27.3441C153.935 27.3872 153.979 27.3872 154.065 27.3441L159.41 26.1802C160.789 25.8785 161.651 24.5853 161.35 23.249Z" fill="#ED6F71"/>
<path d="M152.171 30.6179L151.999 30.8765C151.266 31.9973 150.189 32.7732 149.025 33.2043C147.257 33.8509 145.231 33.6353 143.55 32.5146C141.869 31.3938 140.921 29.5402 140.877 27.6435C140.834 26.3934 141.179 25.1433 141.912 24.0657L142.128 23.7639C142.645 22.988 143.723 22.7725 144.498 23.2898L151.74 28.247C152.516 28.8074 152.732 29.842 152.171 30.6179Z" fill="#272425"/>
<path d="M149.024 33.2499C147.256 33.8965 145.23 33.681 143.549 32.5602C141.868 31.4394 140.92 29.5859 140.877 27.6892C141.394 27.5598 141.954 27.4736 142.515 27.4736C145.877 27.4736 148.636 30.0169 149.024 33.2499Z" fill="#C45D69"/>
<path d="M111.617 147.575C112.015 146.371 112.326 145.166 112.508 143.961C113.054 140.56 113.08 137.284 112.629 134.435C113.716 133.323 114.505 131.778 114.778 130.012C115.457 126.009 113.289 122.327 110.017 121.783C108.51 121.555 107.041 121.974 105.783 122.912C103.13 120.563 97.0274 118.228 89.7522 117.005C82.5628 115.825 76.138 116.031 72.8076 117.384C71.9558 116.127 70.7128 115.254 69.2489 115.027C65.9341 114.482 62.721 117.301 62.0848 121.305C61.7683 123.113 62.0559 124.84 62.7343 126.225C61.4204 128.757 60.4036 131.853 59.8154 135.254C59.7702 135.512 59.725 135.77 59.7229 136.029L104.064 143.375C107.121 143.831 109.738 145.404 111.617 147.575Z" fill="#664535"/>
<path d="M80.2023 125.075C79.526 123.431 77.6788 122.64 76.0355 123.273C74.3919 123.949 73.6009 125.797 74.2341 127.44C74.6991 128.564 75.6845 129.305 76.8042 129.444C76.2887 129.224 75.8611 128.789 75.6502 128.227C75.1859 127.017 75.7572 125.685 76.9249 125.22C78.1357 124.756 79.4674 125.327 79.932 126.495C80.1013 126.884 80.1412 127.273 80.0953 127.617C80.4892 126.887 80.5401 125.939 80.2023 125.075Z" fill="white"/>
<path d="M100.957 127.44C99.6307 126.266 97.6033 126.421 96.4282 127.791C95.8191 128.476 95.5962 129.38 95.6753 130.242C95.7647 129.855 95.9399 129.512 96.201 129.212C97.0281 128.227 98.4948 128.11 99.4791 128.98C100.464 129.807 100.581 131.274 99.711 132.258C99.3192 132.729 98.7567 132.983 98.1956 133.065C99.3146 133.29 100.482 132.911 101.308 132.013C102.44 130.599 102.284 128.572 100.957 127.44Z" fill="white"/>
<path d="M99.7121 137.992C99.3463 135.273 95.9854 129.814 93.1739 125.696C90.9589 122.445 87.0844 121.81 83.9614 124.155C79.9707 127.183 75.066 131.282 73.7959 133.728C73.0946 135.145 72.7374 136.651 72.682 138.159L99.2437 142.558C99.7729 141.097 99.958 139.546 99.7121 137.992ZM91.532 136.718C91.315 136.889 90.0152 137.697 86.7862 137.197C86.7431 137.197 86.7 137.196 86.6569 137.196C86.6138 137.195 86.5707 137.195 86.5276 137.195C83.2992 136.608 82.3604 135.436 82.1898 135.219C81.9343 134.829 82.0248 134.313 82.4152 134.014C82.8052 133.759 83.3218 133.849 83.6204 134.24C83.6204 134.24 84.1754 134.891 85.9823 135.337L86.4349 132.711C85.5378 131.712 84.1287 130.062 83.9626 129.285C83.7131 128.162 84.4978 127.091 85.7065 126.885C86.6563 126.721 87.601 127.159 88.0692 127.896C88.7635 127.341 89.7556 127.263 90.6142 127.701C91.6872 128.27 92.1081 129.524 91.4965 130.511C91.1033 131.154 89.2402 132.303 88.0711 132.94L87.6182 135.609C89.6427 135.798 90.4222 135.373 90.4653 135.373C90.8557 135.075 91.3722 135.165 91.6708 135.556C92.0128 135.903 91.922 136.463 91.532 136.718Z" fill="white"/>
<path d="M103.654 145.655L57.3329 137.992L53.6589 160.291C52.7076 165.931 56.5434 171.308 62.2262 172.216L98.3021 178.158C103.941 179.109 109.318 175.274 110.227 169.591L112.222 157.537C113.173 151.941 109.337 146.564 103.654 145.655Z" fill="#7DACAC"/>
<path d="M70.7484 152.972C70.6121 153.833 70.1761 154.433 69.4832 154.815C68.8338 155.155 68.1 155.278 67.2389 155.142C66.8086 155.052 66.3786 154.919 65.9921 154.744C65.5197 154.524 65.1769 154.263 65.0073 153.917C64.9225 153.744 64.8808 153.571 64.8823 153.398C64.9275 153.14 65.0582 152.969 65.2317 152.841C65.4483 152.713 65.6641 152.672 65.9224 152.717C66.0517 152.718 66.3093 152.85 66.7389 153.026C67.1682 153.245 67.512 153.377 67.8134 153.422C68.0717 153.468 68.2876 153.426 68.5041 153.299C68.7207 153.171 68.8083 152.999 68.8536 152.741C68.8991 152.44 68.815 152.18 68.6009 152.006C68.3868 151.832 68.0865 151.657 67.6572 151.438C66.9703 151.088 66.4986 150.782 66.1997 150.435C65.8153 150.001 65.6474 149.439 65.782 148.793C65.9177 148.018 66.3106 147.418 66.96 147.079C67.5663 146.739 68.3001 146.615 69.0749 146.751C69.7639 146.843 70.2794 147.063 70.6218 147.367C70.9642 147.672 71.1341 147.975 71.0886 148.276C70.9981 148.793 70.6946 149.006 70.135 148.915C69.9629 148.871 69.7481 148.783 69.4474 148.651C69.1467 148.519 68.9319 148.431 68.7598 148.386C68.5015 148.341 68.3288 148.383 68.1129 148.424C67.8967 148.509 67.7659 148.68 67.7642 148.896C67.7631 149.025 67.7621 149.154 67.8045 149.241C67.8896 149.371 68.0606 149.545 68.361 149.72C68.5754 149.851 68.8334 149.939 69.0478 150.07C69.6916 150.42 70.1629 150.769 70.4615 151.159C70.7583 151.765 70.883 152.327 70.7484 152.972Z" fill="white"/>
<path d="M76.259 153.879L76.3021 153.88L78.1488 149.455C78.2806 149.154 78.4982 148.897 78.7582 148.727C79.0183 148.557 79.3204 148.516 79.6648 148.562C80.0524 148.608 80.3528 148.783 80.5658 149.087C80.7789 149.39 80.9057 149.693 80.9026 150.081L80.8557 155.814C80.8532 156.115 80.8518 156.288 80.8073 156.46C80.7162 157.063 80.3692 157.319 79.8096 157.228C79.4651 157.182 79.251 157.008 79.1669 156.748C79.0821 156.575 79.0414 156.273 79.0446 155.885L79.0819 151.316L79.0388 151.316L77.2822 155.267C77.1066 155.654 76.9317 155.954 76.7579 156.125C76.4975 156.339 76.1951 156.422 75.8075 156.376C75.4199 156.33 75.1627 156.155 74.9927 155.852C74.8652 155.635 74.8245 155.333 74.7422 154.858L74.3464 150.544L72.9314 154.887C72.7989 155.274 72.6675 155.531 72.5371 155.66C72.3198 155.873 72.0605 155.957 71.7591 155.912C71.1995 155.821 70.9868 155.474 71.0779 154.872C71.0786 154.785 71.1666 154.571 71.2553 154.27L73.0669 148.853C73.1991 148.509 73.4171 148.209 73.7206 147.996C74.0241 147.783 74.3693 147.743 74.7569 147.789C75.1013 147.835 75.3586 148.009 75.5723 148.227C75.7857 148.487 75.8698 148.746 75.9101 149.092L76.259 153.879Z" fill="white"/>
<path d="M86.4675 149.696C87.1134 149.787 87.5409 150.222 87.6639 150.999L88.7339 157.215C88.7749 157.474 88.7731 157.69 88.772 157.819C88.7268 158.077 88.5961 158.249 88.4226 158.376C88.206 158.504 87.9902 158.545 87.7319 158.5C87.2584 158.41 86.9595 158.063 86.8782 157.459L86.7139 156.466L83.8298 155.968L83.3044 156.955C83.0415 157.47 82.6949 157.683 82.2642 157.636C82.006 157.591 81.7915 157.46 81.6636 157.287C81.5357 157.113 81.4947 156.854 81.5399 156.596C81.5848 156.381 81.6293 156.209 81.7165 156.08L84.7783 150.673C85.2588 149.901 85.8216 149.604 86.4675 149.696ZM86.063 151.719L84.6614 154.423L86.5125 154.74L86.063 151.719Z" fill="white"/>
<path d="M91.8039 155.776L91.4856 157.8C91.3493 158.661 90.9582 159.045 90.3554 158.954C89.7526 158.863 89.4982 158.344 89.6346 157.483L90.5859 151.843C90.676 151.37 90.8082 151.026 91.0251 150.855C91.242 150.685 91.5872 150.645 92.0607 150.735L93.5245 150.962C94.4286 151.099 95.1159 151.406 95.5861 151.884C96.1419 152.449 96.3518 153.141 96.2155 154.002C96.1243 154.604 95.8618 155.076 95.4279 155.418C95.0372 155.759 94.5185 155.928 93.8719 155.922L95.0637 157.786C95.3616 158.262 95.4877 158.651 95.4422 158.953C95.3969 159.211 95.2662 159.382 95.0924 159.553C94.8758 159.681 94.6599 159.722 94.4016 159.677C94.1003 159.632 93.8006 159.37 93.5031 158.851L91.8039 155.776ZM92.0293 154.571L92.8904 154.707C93.6652 154.843 94.1418 154.545 94.2333 153.899C94.3248 153.253 94.0263 152.863 93.2083 152.727L92.3042 152.59L92.0293 154.571Z" fill="white"/>
<path d="M98.7196 153.634C98.0307 153.542 97.6434 153.452 97.4717 153.365C96.999 153.188 96.7859 152.885 96.8329 152.411C96.924 151.808 97.443 151.597 98.3037 151.777L101.532 152.32C102.393 152.457 102.821 152.848 102.731 153.408C102.641 153.838 102.38 154.051 101.82 154.09C101.647 154.089 101.217 154.042 100.571 153.95L99.7091 159.159C99.5727 160.021 99.1812 160.448 98.5788 160.314C97.9761 160.223 97.7217 159.704 97.858 158.843L98.7196 153.634Z" fill="white"/>
<path d="M67.0684 160.275C66.3794 160.183 65.9922 160.094 65.8205 160.006C65.3477 159.83 65.1347 159.527 65.1816 159.053C65.2728 158.45 65.7918 158.239 66.6525 158.418L69.8812 158.962C70.7422 159.098 71.1701 159.49 71.0793 160.049C70.9896 160.48 70.7292 160.693 70.1684 160.732C69.996 160.73 69.5653 160.684 68.9195 160.592L68.0578 165.801C67.9215 166.662 67.53 167.09 66.9276 166.956C66.3248 166.865 66.0704 166.345 66.2068 165.484L67.0684 160.275Z" fill="white"/>
<path d="M75.3886 159.869C76.2496 160.005 76.6775 160.397 76.5867 160.956C76.4959 161.516 76.02 161.728 75.1159 161.591L73.6093 161.32L73.3818 162.784L74.6732 163.01C75.5342 163.146 75.9625 163.495 75.8713 164.097C75.7805 164.657 75.3046 164.869 74.4005 164.732L73.1091 164.506L72.8378 166.056L74.4305 166.327C75.2916 166.464 75.7198 166.812 75.6287 167.415C75.5379 167.974 75.062 168.186 74.1578 168.049L71.9623 167.687C71.4888 167.596 71.1881 167.465 71.0171 167.291C70.8461 167.117 70.8058 166.772 70.8959 166.298L71.8476 160.616C71.9377 160.142 72.0698 159.799 72.2868 159.628C72.5037 159.457 72.8489 159.417 73.3223 159.507L75.3886 159.869Z" fill="white"/>
<path d="M80.6836 160.729C81.7168 160.91 82.4902 161.218 83.0467 161.697C83.5604 162.132 83.9007 162.695 84.1106 163.387C84.3208 164.035 84.3586 164.682 84.2233 165.414C83.9976 166.662 83.5157 167.607 82.6914 168.246C81.8671 168.886 80.7874 169.136 79.5391 168.91L77.817 168.638C77.3435 168.548 77.0429 168.416 76.8719 168.242C76.7008 168.068 76.6606 167.723 76.7506 167.25L77.7024 161.567C77.7924 161.094 77.9246 160.75 78.1415 160.579C78.3584 160.409 78.7036 160.368 79.1771 160.458L80.6836 160.729ZM78.6921 167.05L79.5532 167.186C81.017 167.414 81.9278 166.731 82.1999 165.096C82.4277 163.589 81.8313 162.722 80.3247 162.451L79.5068 162.315L78.6921 167.05Z" fill="white"/>
<path d="M88.6517 162.045C89.6848 162.226 90.4582 162.534 91.0147 163.012C91.5284 163.448 91.8687 164.011 92.0786 164.702C92.2888 165.351 92.3266 165.998 92.1913 166.729C91.9656 167.978 91.4837 168.922 90.6594 169.562C89.8351 170.202 88.7554 170.452 87.5071 170.226L85.785 169.953C85.3116 169.863 85.0109 169.731 84.8399 169.557C84.6689 169.384 84.6286 169.038 84.7187 168.565L85.6704 162.883C85.7605 162.409 85.8926 162.065 86.1095 161.895C86.3265 161.724 86.6716 161.684 87.1451 161.774L88.6517 162.045ZM86.6602 168.365L87.5212 168.502C88.985 168.729 89.8959 168.047 90.1679 166.411C90.3957 164.904 89.7993 164.037 88.2927 163.766L87.4748 163.63L86.6602 168.365Z" fill="white"/>
<path d="M98.4217 163.547C98.6369 163.592 98.8086 163.68 98.9362 163.896C99.0641 164.07 99.1054 164.286 99.1037 164.501C99.0588 164.716 98.8839 165.017 98.4932 165.358L96.1892 167.711L95.7367 170.336C95.6003 171.198 95.2092 171.582 94.6064 171.491C94.0037 171.4 93.7493 170.881 93.8856 170.02L94.3382 167.394L92.8969 164.407C92.6849 163.975 92.6015 163.629 92.6464 163.414C92.6916 163.156 92.8223 162.984 92.9958 162.856C93.2124 162.729 93.4282 162.687 93.6865 162.733C93.9879 162.778 94.2441 163.082 94.5416 163.602L95.6009 165.852L97.3399 164.056C97.6879 163.671 98.0773 163.501 98.4217 163.547Z" fill="white"/>
</svg>
