<svg width="149" height="162" viewBox="0 0 149 162" fill="none" xmlns="http://www.w3.org/2000/svg">
<path d="M175.615 142.153C175.615 142.153 174.269 142.121 172.015 142.09C159.399 141.902 117.952 141.213 117.576 141.12C117.263 141.026 137.016 123.62 148.004 114.448C152.136 111.004 155.048 108.719 155.204 108.938C155.204 108.938 155.549 109.157 156.143 109.533C159.869 112.037 173.768 122.086 175.803 134.921C176.178 137.238 176.147 139.68 175.615 142.153Z" fill="#945339"/>
<path d="M175.615 142.153C175.615 142.153 174.268 142.121 172.015 142.09C167.788 124.778 153.67 116.921 148.035 114.448C152.167 111.004 155.079 108.719 155.235 108.938C155.235 108.938 155.58 109.157 156.174 109.533C159.9 112.037 173.799 122.086 175.834 134.921C176.178 137.238 176.147 139.68 175.615 142.153Z" fill="#AD6946"/>
<path d="M41.0658 44.9209C34.4293 55.7836 43.038 63.328 47.045 66.0828C48.1407 66.8342 48.892 67.2411 48.892 67.2411L56.593 54.6879L58.4713 51.3696L63.9183 41.6965C63.9183 41.6339 49.1111 31.8668 41.0658 44.9209ZM29.1075 38.0025C29.1075 38.0025 29.1075 38.0339 29.1075 38.0025C28.9822 38.2217 28.8883 38.3782 28.7631 38.566C28.137 39.693 27.5735 40.7887 27.0727 41.853C17.2743 63.5159 37.1841 76.2569 43.0067 79.4186C43.9459 79.9508 44.5407 80.2013 44.5407 80.2013L59.7547 57.0045L59.786 57.0358L60.0365 56.5662L60.3808 56.0654L60.3182 56.034L68.5514 40.3191L73.0592 31.7416L73.1845 31.4912C73.1845 31.5225 45.4172 11.0492 29.1075 38.0025Z" fill="#B6724D"/>
<path d="M56.9081 54.0928L56.5951 54.6563L56.376 55.0319L48.9254 67.2094C48.9254 67.2094 45.9515 65.6755 43.1967 62.8268C39.6279 59.1328 36.4349 53.2162 40.661 45.6405C40.8801 45.2335 41.0993 44.8579 41.3497 44.5135C41.5062 44.2631 41.6628 44.044 41.8193 43.8248C48.5185 34.5273 59.0369 38.9726 62.6682 40.9135C63.4821 41.3518 63.9517 41.6648 63.9517 41.6648L56.9081 54.0928Z" fill="#DCBD8A"/>
<path d="M60.3183 56.0655L60.3809 56.0968L60.0365 56.5977L59.7861 57.0673L59.7548 57.036L44.5407 80.2328C44.5407 80.2328 18.1821 68.2118 25.8205 45.1402C26.1648 44.0758 26.6031 42.9802 27.104 41.8845C27.3544 49.5855 27.7927 61.9508 42.1928 70.1527C42.1928 70.1527 43.3824 65.7387 44.1963 63.6726C45.4485 60.4482 47.0451 57.4116 48.7981 54.5629C51.1773 50.7437 53.9321 47.2063 56.6869 43.888C59.88 40.0688 65.1079 43.6063 68.5201 40.3506L60.3183 56.0655Z" fill="#945339"/>
<path d="M48.8307 54.5622C44.949 64.3919 43.1333 74.785 43.1333 74.785C27.3557 65.8632 25.0079 53.7796 25.8218 45.1395C26.1662 44.0751 26.6044 42.9795 27.1053 41.8838C27.3557 49.5847 27.794 61.9501 42.1942 70.1519C42.1942 70.1519 43.3837 65.738 44.1977 63.6718C45.4498 60.4475 47.0464 57.4109 48.8307 54.5622Z" fill="#AD6946"/>
<path d="M55.9044 43.0113C46.9513 50.8688 44.1026 58.4445 43.1947 62.8272C39.626 59.1332 36.4329 53.2167 40.659 45.6409C40.8782 45.234 41.0973 44.8583 41.3478 44.514C41.5043 44.2635 41.6608 44.0444 41.8173 43.8252C48.2348 40.0061 55.9044 43.0113 55.9044 43.0113Z" fill="#ECD09C"/>
<path d="M73.1836 31.5224L73.0583 31.7729L71.3679 32.5555C71.3679 32.5555 64.9504 27.9537 57.1556 26.5137C49.3294 25.0737 39.5623 27.672 33.8336 34.4025C28.1048 41.1643 23.6282 53.9053 28.3865 63.1089C32.7379 71.5611 41.6284 78.3856 43.0371 79.4499C37.2458 76.2881 17.3047 63.5158 27.1031 41.8843C27.6039 40.8199 28.1674 39.693 28.7935 38.5973C28.8874 38.4095 29.0126 38.253 29.1066 38.0651C29.1066 38.0651 29.1066 38.0338 29.1379 38.0338C45.4163 11.0492 73.1836 31.5224 73.1836 31.5224Z" fill="#D59A77"/>
<path d="M62.6349 40.9138L61.6645 42.5416C51.1461 37.7207 44.8538 40.8512 41.3164 44.5138C47.9843 34.3085 58.9409 38.9103 62.6349 40.9138Z" fill="#C59F6D"/>
<path d="M129.972 24.2601L139.363 30.2079L142.588 32.2428L155.297 39.662C155.297 39.662 155.767 38.9733 156.393 37.7837C158.616 33.4636 162.654 22.7261 151.666 16.3087C138.393 8.63902 129.972 24.2601 129.972 24.2601ZM117.012 19.6896L117.262 19.8461L125.276 25.2931L139.958 35.248L139.927 35.3106L140.459 35.5924L140.897 35.8741L140.929 35.8428L165.284 49.0847C165.284 49.0847 165.659 48.5838 166.254 47.676C169.854 42.135 181.374 21.4739 162.497 7.04248C161.558 6.32247 160.557 5.63377 159.461 4.94506C159.273 4.85115 159.117 4.72593 158.929 4.63202H158.897C131.788 -11.4586 117.012 19.6896 117.012 19.6896Z" fill="#B6724D"/>
<path d="M142.056 31.8975L142.588 32.2418L142.964 32.4609L155.298 39.661C155.298 39.661 157.176 36.9062 158.272 33.087C159.681 28.1409 159.681 21.4417 152.387 16.746C152.011 16.4956 151.635 16.2764 151.26 16.0886C151.009 15.9634 150.759 15.8382 150.509 15.7129C140.209 10.7042 133.041 19.5947 130.755 23.0069C130.254 23.7582 129.973 24.2591 129.973 24.2591L142.056 31.8975Z" fill="#DCBD8A"/>
<path d="M139.957 35.2475L139.926 35.3101L140.458 35.5919L140.896 35.8736L140.928 35.8423L165.283 49.0842C165.283 49.0842 182.813 26.0126 165.158 9.29593C164.344 8.51331 163.467 7.762 162.497 7.04199C165.909 13.929 171.387 25.0109 162.591 39.098C162.591 39.098 159.46 35.7797 157.738 34.3397C155.109 32.0857 152.291 30.1762 149.38 28.517C145.467 26.2631 141.366 24.4474 137.359 22.8509C132.726 21.0039 129.815 26.5761 125.275 25.3239L139.957 35.2475Z" fill="#945339"/>
<path d="M137.672 21.6608C149.255 24.353 155.39 29.6748 158.27 33.1183C159.679 28.1721 159.679 21.4729 152.385 16.7772C152.009 16.5268 151.634 16.3077 151.258 16.1198C151.008 15.9946 150.757 15.8694 150.507 15.7442C142.994 15.3998 137.672 21.6608 137.672 21.6608Z" fill="#ECD09C"/>
<path d="M117.012 19.6887L117.262 19.8452L119.109 19.7513C119.109 19.7513 122.584 12.6451 128.782 7.699C134.981 2.72155 144.81 0.405006 153.075 3.62939C161.308 6.85377 171.294 15.9947 171.482 26.3253C171.638 35.8106 167.037 46.0472 166.285 47.6438C169.885 42.1028 181.405 21.4418 162.529 7.01029C161.59 6.29029 160.588 5.60158 159.492 4.91288C159.304 4.81897 159.148 4.69375 158.96 4.59983H158.929C131.788 -11.4595 117.012 19.6887 117.012 19.6887Z" fill="#D59A77"/>
<path d="M130.754 23.0073L132.382 23.9777C139.363 14.7428 146.406 14.5237 151.227 16.0889C140.552 10.2663 133.07 19.5011 130.754 23.0073Z" fill="#C59F6D"/>
<path d="M172.328 60.228C172.641 61.1045 172.954 61.981 173.267 62.8576C173.361 63.108 173.455 63.3897 173.517 63.6402C173.58 63.8593 173.674 64.0784 173.737 64.3289C173.737 64.3602 173.768 64.3915 173.768 64.4228C173.768 64.4228 173.768 64.4541 173.768 64.4854C173.831 64.7358 173.924 64.955 173.987 65.2054C174.018 65.268 174.018 65.3619 174.05 65.4245C174.112 65.675 174.175 65.8941 174.237 66.1132C174.269 66.1759 174.269 66.2385 174.269 66.3011C174.331 66.5828 174.394 66.8646 174.457 67.115C174.519 67.3967 174.582 67.6785 174.644 67.9602C174.644 67.9915 174.644 67.9915 174.644 68.0228C174.707 68.3046 174.77 68.5863 174.801 68.8994C174.832 69.1498 174.895 69.3689 174.926 69.6194C174.957 69.7133 174.957 69.8385 174.989 69.9324C175.02 70.1516 175.051 70.3707 175.083 70.5898C175.083 70.6211 175.083 70.6211 175.083 70.6524C175.114 70.9342 175.145 71.2159 175.177 71.4977C175.208 71.7481 175.239 72.0298 175.271 72.2803C175.271 72.3429 175.271 72.4055 175.271 72.4368C175.302 72.6872 175.333 72.9377 175.333 73.1881C175.364 73.4385 175.364 73.689 175.364 73.9394C175.364 74.0333 175.364 74.1272 175.364 74.2212C175.364 74.4403 175.396 74.6281 175.396 74.8473C175.396 74.8786 175.396 74.8786 175.396 74.9099C175.396 75.1916 175.396 75.442 175.396 75.6925C175.396 75.9742 175.396 76.2247 175.396 76.5064C175.396 76.7881 175.396 77.0386 175.364 77.3203C175.364 77.5708 175.333 77.8525 175.333 78.1029C175.333 78.1342 175.333 78.1656 175.333 78.1656C175.333 78.416 175.302 78.6351 175.271 78.8543C175.271 78.9169 175.271 78.9795 175.239 79.0734C175.208 79.2925 175.208 79.4803 175.177 79.6995C175.145 79.9499 175.114 80.2317 175.083 80.4821C175.02 81.0456 174.926 81.6091 174.801 82.1726C174.77 82.3604 174.738 82.5795 174.676 82.7986C174.269 84.8334 173.674 86.7743 172.923 88.6526C172.86 88.7778 172.829 88.9344 172.766 89.0596C172.704 89.1848 172.641 89.3413 172.61 89.4665C172.516 89.717 172.391 89.9361 172.297 90.1866C171.984 90.844 171.671 91.5013 171.357 92.1587C171.295 92.284 171.201 92.4405 171.138 92.5657C171.044 92.7535 170.919 92.9414 170.825 93.1292C170.763 93.2857 170.669 93.4109 170.606 93.5361C170.418 93.8492 170.23 94.1935 170.043 94.5066C169.949 94.6631 169.855 94.7883 169.792 94.9449C169.792 94.9762 169.761 94.9762 169.761 95.0075C169.636 95.1953 169.51 95.4144 169.385 95.6023C169.385 95.6336 169.354 95.6336 169.354 95.6649C169.229 95.884 169.072 96.0718 168.947 96.2597C168.79 96.5101 168.634 96.7292 168.446 96.9797C168.321 97.1362 168.196 97.324 168.07 97.4805C167.413 98.3571 166.756 99.2336 166.036 100.11C165.879 100.267 165.754 100.454 165.597 100.611C165.441 100.799 165.284 100.987 165.128 101.143C165.065 101.237 164.971 101.331 164.909 101.394C164.752 101.581 164.596 101.738 164.439 101.926C163.907 102.521 163.375 103.084 162.811 103.648C162.78 103.679 162.749 103.71 162.717 103.741C162.561 103.898 162.404 104.055 162.279 104.18C162.091 104.368 161.903 104.524 161.716 104.712C161.559 104.868 161.403 104.994 161.246 105.15C161.09 105.307 160.933 105.432 160.808 105.557C160.745 105.62 160.651 105.682 160.589 105.745C160.401 105.933 160.213 106.089 160.025 106.246C159.086 107.091 151.761 111.662 150.759 112.444L160.683 120.458L163.688 123.401L147.409 141.714L124.369 141.213L117.482 141.057L113.913 140.994L109.969 140.9L103.489 140.775L100.734 140.712L72.5599 149.008L70.0555 146.065L69.8051 145.752L67.8955 143.53L66.7372 144.093L65.6415 144.625C65.7981 142.403 66.205 140.337 66.7998 138.427C67.5824 135.86 68.6468 133.606 69.7424 131.728C70.0242 131.258 70.3059 130.82 70.5564 130.382C70.7129 130.163 70.8381 129.943 70.9633 129.756C71.3703 129.13 71.7773 128.566 72.1529 128.065C72.2781 127.909 72.372 127.783 72.466 127.658C72.5286 127.596 72.5599 127.533 72.6225 127.47C72.8103 127.251 72.9668 127.032 73.1234 126.844C73.186 126.782 73.2486 126.719 73.3112 126.625C73.3112 126.625 73.3112 126.625 73.3112 126.594C72.5599 126.375 71.8399 126.156 71.1199 125.905C70.7755 125.78 70.4625 125.686 70.1181 125.561C69.2416 125.248 68.365 124.935 67.5198 124.559C67.332 124.496 67.1755 124.403 67.0189 124.34C66.8624 124.277 66.6746 124.183 66.5181 124.121C66.0172 123.902 65.5163 123.683 65.0154 123.432C64.8589 123.37 64.7024 123.276 64.5459 123.213C64.5459 123.213 64.5146 123.213 64.5146 123.182C64.358 123.088 64.2015 123.025 64.045 122.931C61.6032 121.679 59.2554 120.208 57.0954 118.486C56.9388 118.361 56.8136 118.236 56.6571 118.142C55.9371 117.547 55.2171 116.889 54.5284 116.232C54.4032 116.107 54.2466 115.982 54.1214 115.825C53.9962 115.7 53.8397 115.543 53.7145 115.418C53.5892 115.293 53.464 115.136 53.3388 115.011C53.057 114.698 52.7753 114.385 52.4623 114.041C52.3684 113.915 52.2744 113.822 52.1805 113.696C52.0553 113.54 51.9301 113.383 51.8049 113.258C51.6796 113.102 51.5544 112.945 51.4292 112.789C51.304 112.632 51.1788 112.475 51.0849 112.319C50.8657 112.037 50.6466 111.724 50.4275 111.442C50.3022 111.255 50.1457 111.035 50.0205 110.848C49.9579 110.754 49.8953 110.66 49.8327 110.566C49.7388 110.441 49.6761 110.315 49.5822 110.19C49.4883 110.034 49.3944 109.877 49.3005 109.721C48.9874 109.188 48.6744 108.656 48.3613 108.124C48.2674 107.968 48.2048 107.811 48.1109 107.655C48.017 107.467 47.9231 107.279 47.7979 107.06C47.7039 106.903 47.6413 106.747 47.5474 106.559C47.4848 106.402 47.3909 106.246 47.3283 106.089C47.2344 105.901 47.1405 105.714 47.0466 105.526C46.9526 105.338 46.8587 105.15 46.7961 104.962C45.5439 102.051 44.6048 98.8266 44.01 95.2579C43.7909 93.8805 43.5717 92.5031 43.4152 91.157C43.3526 90.6874 43.29 90.2179 43.2587 89.7483C43.1961 89.2161 43.1648 88.6839 43.1022 88.1517C43.0709 87.8387 43.0396 87.4943 43.0082 87.1813C42.8517 85.0526 42.7578 82.9865 42.7578 80.983V80.9517C42.7578 78.6977 42.8517 76.5377 43.0396 74.409C45.8883 42.6347 69.6485 26.4189 91.9688 20.878C92.6262 20.7215 94.9427 20.1267 95.4436 20.0014C119.423 13.7718 150.853 17.6223 167.914 50.2105C168.008 50.3983 168.133 50.6174 168.227 50.8053C169.73 53.7479 171.107 56.8784 172.328 60.228Z" fill="#B6724D"/>
<path d="M172.359 60.2598C172.672 61.1363 172.985 62.0128 173.298 62.8894C173.392 63.1398 173.486 63.4215 173.548 63.672C173.611 63.8911 173.705 64.1102 173.768 64.3607C173.768 64.392 173.799 64.4233 173.799 64.4546C173.799 64.4546 173.799 64.4859 173.799 64.5172C173.861 64.7676 173.955 64.9868 174.018 65.2372C174.049 65.2998 174.049 65.3937 174.081 65.4563C174.143 65.7068 174.206 65.9259 174.268 66.145C174.3 66.2077 174.3 66.2703 174.3 66.3329C174.362 66.6146 174.425 66.8964 174.488 67.1468C174.55 67.4285 174.613 67.7103 174.675 67.992C174.675 68.0233 174.675 68.0233 174.675 68.0546C174.738 68.3364 174.801 68.6181 174.832 68.9312C174.863 69.1816 174.926 69.4007 174.957 69.6512C174.988 69.7451 174.988 69.8703 175.02 69.9642C175.051 70.1833 175.082 70.4025 175.114 70.6216C175.114 70.6529 175.114 70.6529 175.114 70.6842C175.145 70.966 175.176 71.2477 175.208 71.5295C175.239 71.7799 175.27 72.0616 175.301 72.3121C175.301 72.3747 175.301 72.4373 175.301 72.4686C175.333 72.719 175.364 72.9695 175.364 73.2199C175.395 73.4703 175.395 73.7208 175.395 73.9712C175.395 74.0651 175.395 74.159 175.395 74.253C175.395 74.4721 175.427 74.6599 175.427 74.8791C175.427 74.9104 175.427 74.9104 175.427 74.9417C175.427 75.2234 175.427 75.4738 175.427 75.7243C175.427 76.006 175.427 76.2565 175.427 76.5382C175.427 76.8199 175.427 77.0704 175.395 77.3521C175.395 77.6026 175.364 77.8843 175.364 78.1347C175.364 78.166 175.364 78.1973 175.364 78.1973C175.364 78.4478 175.333 78.6669 175.301 78.8861C175.301 78.9487 175.301 79.0113 175.27 79.1052C175.239 79.3243 175.239 79.5121 175.208 79.7313C175.176 79.9817 175.145 80.2635 175.114 80.5139C175.051 81.0774 174.957 81.6409 174.832 82.2043C174.801 82.3922 174.769 82.6113 174.707 82.8304C174.3 84.8652 173.705 86.8061 172.954 88.6844C172.891 88.8096 172.86 88.9662 172.797 89.0914C172.734 89.2166 172.672 89.3731 172.641 89.4983C172.547 89.7488 172.421 89.9679 172.328 90.2183C172.014 90.8757 171.701 91.5331 171.388 92.1905C171.326 92.3158 171.232 92.4723 171.169 92.5975C171.075 92.7853 170.95 92.9732 170.856 93.161C170.794 93.3175 170.7 93.4427 170.637 93.5679C170.449 93.881 170.261 94.2253 170.074 94.5384C169.98 94.6949 169.886 94.8201 169.823 94.9767C169.823 95.008 169.792 95.008 169.792 95.0393C169.667 95.2271 169.541 95.4462 169.416 95.6341C169.416 95.6654 169.385 95.6654 169.385 95.6967C169.26 95.9158 169.103 96.1036 168.978 96.2915C168.821 96.5419 168.665 96.761 168.477 97.0115C168.352 97.168 168.227 97.3558 168.101 97.5123C167.444 98.3889 166.787 99.2654 166.067 100.142C165.91 100.298 165.785 100.486 165.628 100.643C165.472 100.831 165.315 101.018 165.159 101.175C165.096 101.269 165.002 101.363 164.94 101.425C164.783 101.613 164.627 101.77 164.47 101.958C163.907 102.584 163.343 103.178 162.748 103.742C162.592 103.898 162.435 104.055 162.31 104.18C162.122 104.368 161.934 104.525 161.747 104.712C161.59 104.869 161.433 104.994 161.277 105.151C161.12 105.307 160.964 105.432 160.839 105.558C160.776 105.62 160.682 105.683 160.62 105.745C160.432 105.933 160.244 106.09 160.056 106.246C159.117 107.092 154.828 110.535 151.479 112.445C151.479 112.445 161.34 117.36 165.065 125.217C175.802 147.882 134.699 136.33 124.431 141.214C122.553 142.122 121.802 144.469 121.739 144.469C121.645 144.469 117.45 146.379 114.852 146.222C104.49 145.565 58.6602 155.113 69.7108 131.666C69.9925 131.196 70.2742 130.758 70.5247 130.32C70.6812 130.101 70.8064 129.881 70.9316 129.694C71.3386 129.067 71.7456 128.504 72.1212 128.003C72.2464 127.847 72.3404 127.721 72.4343 127.596C72.4969 127.534 72.5282 127.471 72.5908 127.408C72.7786 127.189 72.9351 126.97 73.0917 126.782C73.1543 126.72 73.2169 126.657 73.2795 126.563C73.2795 126.563 73.2795 126.563 73.2795 126.532C72.5282 126.313 71.8082 126.094 71.0882 125.843C70.7438 125.718 70.4308 125.624 70.0864 125.499C69.2099 125.186 68.3334 124.873 67.4881 124.497C67.3003 124.434 67.1438 124.34 66.9873 124.278C66.8307 124.215 66.6429 124.121 66.4864 124.059C65.9855 123.84 65.4846 123.62 64.9838 123.37C64.8272 123.307 64.6707 123.213 64.5142 123.151C64.5142 123.151 64.4829 123.151 64.4829 123.12C64.3264 123.026 64.1698 122.963 64.0133 122.869C61.5715 121.617 59.2237 120.146 57.0637 118.424C56.9071 118.299 56.7819 118.173 56.6254 118.08C55.9054 117.485 55.1854 116.827 54.4967 116.17C54.3715 116.045 54.2149 115.919 54.0897 115.763C53.9645 115.638 53.808 115.481 53.6828 115.356C53.5575 115.231 53.4323 115.074 53.3071 114.949C53.0254 114.636 52.7436 114.323 52.4306 113.979C52.3367 113.853 52.2428 113.759 52.1488 113.634C52.0236 113.478 51.8984 113.321 51.7732 113.196C51.648 113.039 51.5227 112.883 51.3975 112.726C51.2723 112.57 51.1471 112.413 51.0532 112.257C50.834 111.975 50.6149 111.662 50.3958 111.38C50.2706 111.192 50.114 110.973 49.9888 110.786C49.9262 110.692 49.8636 110.598 49.801 110.504C49.7071 110.379 49.6445 110.253 49.5505 110.128C49.4566 109.972 49.3627 109.815 49.2688 109.659C48.9558 109.126 48.6427 108.594 48.3297 108.062C48.2357 107.905 48.1731 107.749 48.0792 107.592C47.9853 107.405 47.8914 107.217 47.7662 106.998C47.6723 106.841 47.6097 106.685 47.5157 106.497C47.4531 106.34 47.3592 106.184 47.2966 106.027C47.2027 105.839 47.1088 105.652 47.0149 105.464C46.921 105.276 46.827 105.088 46.7644 104.9C45.5122 101.989 44.5731 98.7645 43.9783 95.1958C43.7592 93.8184 43.54 92.441 43.3835 91.0949C43.3209 90.6253 43.2583 90.1557 43.227 89.6862C43.1644 89.154 43.1331 88.6218 43.0705 88.0896C43.0392 87.7766 43.0079 87.4322 42.9766 87.1192C43.1018 87.4009 43.227 87.714 43.3522 88.027C48.2984 99.6411 64.5768 122.525 114.696 111.099C167.194 99.2654 172.421 71.2164 172.359 60.2598Z" fill="#945339"/>
<path d="M172.359 60.2598C172.672 61.1363 172.985 62.0128 173.298 62.8894C173.392 63.1398 173.486 63.4215 173.548 63.672C173.611 63.8911 173.705 64.1102 173.767 64.3607C173.767 64.392 173.799 64.4233 173.799 64.4546C173.298 85.2722 163.437 113.133 117.576 121.335C69.3976 129.944 51.2096 109.565 44.3539 93.5053C44.0408 92.754 43.7278 92.0027 43.446 91.2514C43.3834 90.7818 43.3208 90.3123 43.2895 89.8427C43.2269 89.3105 43.1956 88.7783 43.133 88.2462C43.1017 87.9331 43.0704 87.5888 43.0391 87.2757C43.1643 87.5574 43.2895 87.8705 43.4147 88.1836C48.3609 99.7976 64.6393 122.681 114.758 111.255C167.193 99.2654 172.421 71.2164 172.359 60.2598Z" fill="#AD6946"/>
<path d="M167.569 49.6163C167.6 49.6789 167.506 49.7415 167.475 49.6789C146.282 22.0055 121.395 12.3011 78.4759 29.143C53.5261 38.9414 45.919 61.606 43.0703 74.4409C45.919 42.6666 69.6793 26.4508 91.9995 20.9099C92.6569 20.7533 94.9735 20.1585 95.4744 20.0333C119.297 13.8663 150.445 17.6229 167.569 49.6163Z" fill="#D59A77"/>
<path d="M115.78 105.946C129.338 102.576 138.093 90.8538 135.337 79.7629C132.581 68.6719 119.355 62.4124 105.798 65.7819C92.2405 69.1513 83.4845 80.8738 86.241 91.9648C88.9975 103.056 102.223 109.315 115.78 105.946Z" fill="#AD6946"/>
<path d="M117.436 113.303C131.077 109.912 139.901 98.1729 137.145 87.0819C134.388 75.9909 121.095 69.7483 107.454 73.1386C93.8124 76.5289 84.9885 88.2683 87.7449 99.3593C90.5014 110.45 103.794 116.693 117.436 113.303Z" fill="#945339"/>
<path d="M137.298 83.331C138.77 89.2789 137.423 95.3833 133.823 100.423C130.223 105.495 124.432 109.533 116.982 111.349C99.3257 115.731 89.0577 107.936 86.1151 96.0094C85.9273 95.2894 85.8021 94.5694 85.6768 93.8493C84.9255 88.6215 86.0838 83.4562 88.6508 79.1361C89.496 77.7587 90.4665 76.4439 91.5934 75.2857C94.4108 72.2804 98.1048 70.0578 102.394 68.9934L110.251 67.0525C114.508 65.9882 118.797 66.2386 122.71 67.5534C128.314 69.4317 133.103 73.5013 135.733 79.0109C136.422 80.3883 136.923 81.8284 137.298 83.331Z" fill="#DCBD8A"/>
<path d="M135.733 79.0118C136.703 90.5946 128.063 101.802 115.072 105.026C102.988 108.031 90.9986 103.148 85.7081 93.8816C84.9568 88.6537 86.1151 83.4884 88.682 79.1684C89.5273 77.791 90.4977 76.4762 91.6247 75.3179C94.4421 72.3126 98.1361 70.09 102.425 69.0257L110.282 67.0848C114.54 66.0204 118.828 66.2708 122.742 67.5856C128.314 69.4639 133.103 73.5335 135.733 79.0118Z" fill="#ECD09C"/>
<path d="M111.723 92.3779C111.504 92.3779 111.316 92.2214 111.253 92.0336L108.436 80.7326C108.373 80.4821 108.53 80.2317 108.78 80.1691C109.03 80.1065 109.281 80.263 109.344 80.5134L112.161 91.8144C112.224 92.0649 112.067 92.3153 111.817 92.3779C111.817 92.3779 111.785 92.3779 111.723 92.3779Z" fill="#43281F"/>
<path d="M122.71 67.5838C122.397 69.7438 121.677 71.8099 120.519 73.6256C118.39 77.0378 114.759 79.6674 109.563 80.9509C103.99 82.3283 99.3572 81.5457 95.8198 79.2918C94.1919 78.2587 92.8145 76.9126 91.6562 75.3161C94.4737 72.3108 98.7311 69.4934 105.837 67.709C114.509 65.549 118.829 66.269 122.71 67.5838Z" fill="#5C392B"/>
<path d="M120.52 73.6262C118.391 77.0385 114.76 79.6681 109.563 80.9515C103.991 82.329 99.3577 81.5463 95.8203 79.2924C96.0708 78.4472 96.4151 77.6646 96.8534 76.9132C98.1682 74.7219 100.328 73.0002 103.02 72.3428L110.565 70.4645C114.29 69.5566 118.109 70.9027 120.52 73.6262Z" fill="#43281F"/>
<path d="M98.6371 73.2195C98.9188 73.0004 99.2005 72.8126 99.5136 72.6247C99.7953 72.4369 100.108 72.2491 100.39 72.0926C100.985 71.7482 101.58 71.4352 102.206 71.1534C103.458 70.5899 104.741 70.0891 106.056 69.7134C107.371 69.3377 108.748 69.056 110.157 68.8995C111.566 68.7743 113.006 68.7743 114.415 69.056C115.103 69.1812 115.542 69.8386 115.416 70.5273C115.322 71.0282 114.947 71.4038 114.477 71.4978H114.415C113.194 71.7795 111.973 72.0299 110.783 72.343C109.562 72.656 108.373 72.9691 107.152 73.3134L103.489 74.3778L101.642 74.91C101.329 75.0039 101.016 75.0978 100.703 75.1604C100.39 75.2543 100.077 75.3482 99.764 75.4108L99.7014 75.4422C99.044 75.5987 98.3553 75.1604 98.1988 74.503C98.0736 73.9708 98.2614 73.5013 98.6371 73.2195Z" fill="white"/>
<path d="M88.5567 114.198C87.868 114.856 87.461 115.763 87.4297 116.765L89.0888 116.358L88.5567 114.198Z" fill="white"/>
<path d="M90.7495 113.196C89.9982 113.259 89.3095 113.572 88.7773 114.01L90.8435 113.509L90.7495 113.196Z" fill="#71495A"/>
<path d="M92.0942 113.196C91.7811 113.196 91.4994 113.165 91.1863 113.165C91.0298 113.165 90.9046 113.165 90.748 113.196L90.8107 113.509L92.0942 113.196Z" fill="#D8BFB4"/>
<path d="M91.3741 115.795L90.8106 113.51L88.7445 114.011C88.6819 114.073 88.588 114.136 88.5254 114.198L89.0576 116.358L91.3741 115.795Z" fill="#D8BFB4"/>
<path d="M91.374 115.795L93.6593 115.231L93.1584 113.228C92.7827 113.196 92.4384 113.196 92.0627 113.196L90.8105 113.509L91.374 115.795Z" fill="white"/>
<path d="M95.9756 114.668L95.6625 113.384C94.8486 113.321 94.0347 113.259 93.1895 113.228L93.6903 115.231L95.9756 114.668Z" fill="#D8BFB4"/>
<path d="M98.2916 114.105L98.1977 113.667C97.3838 113.573 96.5386 113.479 95.6934 113.385L96.0064 114.668L98.2916 114.105Z" fill="white"/>
<path d="M99.4202 113.823C99.0132 113.76 98.6062 113.697 98.168 113.666L98.2619 114.104L99.4202 113.823Z" fill="#D8BFB4"/>
<path d="M134.982 104.682C134.669 104.901 134.325 105.151 134.012 105.37L135.076 105.12L134.982 104.682Z" fill="white"/>
<path d="M137.393 104.556L137.08 103.304C136.36 103.773 135.64 104.243 134.982 104.712L135.076 105.151L137.393 104.556Z" fill="#D8BFB4"/>
<path d="M139.708 103.993L139.207 102.021C138.487 102.459 137.767 102.866 137.078 103.304L137.391 104.556L139.708 103.993Z" fill="white"/>
<path d="M141.369 100.831C141.244 100.894 141.15 100.925 141.025 100.988C140.743 101.144 140.493 101.269 140.211 101.426L141.432 101.144L141.369 100.831Z" fill="#71495A"/>
<path d="M143.559 100.612C142.839 100.455 142.087 100.518 141.367 100.831L141.43 101.144L143.559 100.612Z" fill="#D8BFB4"/>
<path d="M141.995 103.429L141.432 101.144L140.242 101.425C139.898 101.613 139.553 101.801 139.24 102.02L139.741 103.992L141.995 103.429Z" fill="#D8BFB4"/>
<path d="M141.993 103.429L144.278 102.865L143.746 100.674C143.684 100.643 143.59 100.643 143.527 100.611L141.43 101.112L141.993 103.429Z" fill="white"/>
<path d="M146.002 102.458C145.501 101.55 144.687 100.924 143.748 100.674L144.28 102.865L146.002 102.458Z" fill="#D8BFB4"/>
<path d="M89.0888 116.358L87.4297 116.765C87.4297 116.797 87.4297 116.828 87.4297 116.828C87.4297 117.517 87.461 118.299 87.5236 119.176L89.6523 118.644L89.0888 116.358Z" fill="#D8BFB4"/>
<path d="M87.5859 120.208C87.6172 120.646 87.6799 121.116 87.7425 121.585L87.9303 121.554L87.5859 120.208Z" fill="#D8BFB4"/>
<path d="M90.2156 120.96L89.6522 118.675L87.5234 119.207C87.5547 119.52 87.586 119.864 87.6173 120.209L87.9304 121.524L90.2156 120.96Z" fill="white"/>
<path d="M91.3931 115.791L89.082 116.355L89.6464 118.667L91.9575 118.102L91.3931 115.791Z" fill="#71495A"/>
<path d="M93.6783 115.232L91.3672 115.796L91.9315 118.107L94.2426 117.543L93.6783 115.232Z" fill="#D8BFB4"/>
<path d="M91.9537 118.076L89.6426 118.641L90.2069 120.952L92.518 120.387L91.9537 118.076Z" fill="#D8BFB4"/>
<path d="M94.2447 117.548L91.9336 118.112L92.4979 120.423L94.809 119.859L94.2447 117.548Z" fill="white"/>
<path d="M95.9947 114.665L93.6836 115.229L94.2479 117.541L96.559 116.976L95.9947 114.665Z" fill="#71495A"/>
<path d="M98.2779 114.106L95.9668 114.67L96.5311 116.981L98.8422 116.417L98.2779 114.106Z" fill="#D8BFB4"/>
<path d="M96.5709 116.974L94.2598 117.539L94.8243 119.85L97.1355 119.286L96.5709 116.974Z" fill="#D8BFB4"/>
<path d="M98.858 116.413L96.5469 116.978L97.1114 119.289L99.4226 118.724L98.858 116.413Z" fill="white"/>
<path d="M98.8564 116.421L101.142 115.857L100.703 114.041C100.265 113.979 99.8582 113.885 99.4199 113.822L98.293 114.104L98.8564 116.421Z" fill="#71495A"/>
<path d="M103.458 115.294L103.27 114.543C102.456 114.355 101.611 114.199 100.703 114.042L101.141 115.858L103.458 115.294Z" fill="#D8BFB4"/>
<path d="M101.163 115.855L98.8516 116.419L99.4159 118.73L101.727 118.166L101.163 115.855Z" fill="#D8BFB4"/>
<path d="M103.448 115.294L101.137 115.858L101.701 118.17L104.012 117.605L103.448 115.294Z" fill="white"/>
<path d="M104.897 114.918C104.365 114.792 103.833 114.667 103.27 114.542L103.457 115.293L104.897 114.918Z" fill="#71495A"/>
<path d="M104.021 117.579L106.306 117.015L105.868 115.168C105.555 115.074 105.241 115.012 104.897 114.918L103.426 115.262L104.021 117.579Z" fill="#D8BFB4"/>
<path d="M108.624 116.452L108.499 115.952C107.685 115.67 106.808 115.419 105.869 115.169L106.307 117.016L108.624 116.452Z" fill="white"/>
<path d="M109.375 116.264C109.093 116.17 108.78 116.076 108.498 115.951L108.623 116.452L109.375 116.264Z" fill="#D8BFB4"/>
<path d="M126.905 111.506C126.718 111.725 126.498 111.913 126.311 112.132L126.999 111.975L126.905 111.506Z" fill="white"/>
<path d="M130.881 107.843C130.443 108.187 130.036 108.563 129.66 108.907L131.069 108.563L130.881 107.843Z" fill="#D8BFB4"/>
<path d="M129.315 111.412L128.876 109.597C128.156 110.254 127.499 110.88 126.904 111.506L127.03 111.945L129.315 111.412Z" fill="#D8BFB4"/>
<path d="M131.632 110.849L131.068 108.563L129.66 108.908C129.378 109.158 129.127 109.377 128.877 109.628L129.315 111.444L131.632 110.849Z" fill="white"/>
<path d="M133.354 107.969L132.916 106.185C132.196 106.717 131.507 107.28 130.881 107.812L131.069 108.532L133.354 107.969Z" fill="#71495A"/>
<path d="M135.671 107.437L135.107 105.151L134.043 105.402C133.667 105.684 133.292 105.965 132.947 106.216L133.386 108L135.671 107.437Z" fill="#D8BFB4"/>
<path d="M133.378 107.955L131.066 108.52L131.631 110.831L133.942 110.266L133.378 107.955Z" fill="#D8BFB4"/>
<path d="M135.653 107.408L133.342 107.973L133.906 110.284L136.217 109.719L135.653 107.408Z" fill="white"/>
<path d="M137.409 104.555L135.098 105.119L135.662 107.43L137.973 106.866L137.409 104.555Z" fill="#71495A"/>
<path d="M139.694 103.996L137.383 104.561L137.947 106.872L140.258 106.307L139.694 103.996Z" fill="#D8BFB4"/>
<path d="M137.969 106.84L135.658 107.404L136.223 109.715L138.534 109.151L137.969 106.84Z" fill="#D8BFB4"/>
<path d="M140.272 106.299L137.961 106.863L138.526 109.174L140.837 108.61L140.272 106.299Z" fill="white"/>
<path d="M142.01 103.429L139.699 103.993L140.264 106.304L142.575 105.74L142.01 103.429Z" fill="#71495A"/>
<path d="M144.295 102.869L141.984 103.434L142.549 105.745L144.86 105.18L144.295 102.869Z" fill="#D8BFB4"/>
<path d="M142.577 105.744L140.266 106.309L140.83 108.62L143.141 108.055L142.577 105.744Z" fill="#D8BFB4"/>
<path d="M144.862 105.185L142.551 105.749L143.115 108.06L145.426 107.496L144.862 105.185Z" fill="white"/>
<path d="M144.874 105.182L147.065 104.65C146.721 103.836 146.377 103.148 146.064 102.522C146.064 102.49 146.032 102.49 146.032 102.459L144.311 102.866L144.874 105.182Z" fill="#71495A"/>
<path d="M145.438 107.468L147.724 106.904L147.317 105.214C147.223 105.026 147.16 104.838 147.066 104.65L144.875 105.183L145.438 107.468Z" fill="#D8BFB4"/>
<path d="M147.972 106.842C147.753 106.247 147.534 105.715 147.314 105.183L147.721 106.873L147.972 106.842Z" fill="white"/>
<path d="M87.8988 121.523L87.7109 121.555C87.8049 122.306 87.8988 123.089 88.0553 123.903L88.4622 123.809L87.8988 121.523Z" fill="#71495A"/>
<path d="M90.2154 120.951L87.9043 121.516L88.4689 123.827L90.78 123.262L90.2154 120.951Z" fill="#D8BFB4"/>
<path d="M88.4636 123.809L88.0566 123.903C88.1819 124.654 88.3384 125.405 88.4949 126.219L89.0271 126.094L88.4636 123.809Z" fill="#D8BFB4"/>
<path d="M90.776 123.236L88.4648 123.801L89.0294 126.112L91.3405 125.547L90.776 123.236Z" fill="white"/>
<path d="M92.5201 120.393L90.209 120.957L90.7733 123.268L93.0844 122.704L92.5201 120.393Z" fill="#71495A"/>
<path d="M94.8053 119.833L92.4941 120.397L93.0585 122.709L95.3696 122.144L94.8053 119.833Z" fill="#D8BFB4"/>
<path d="M93.0924 122.669L90.7812 123.233L91.3458 125.545L93.6569 124.98L93.0924 122.669Z" fill="#D8BFB4"/>
<path d="M95.3736 122.149L93.0625 122.713L93.6268 125.024L95.938 124.46L95.3736 122.149Z" fill="white"/>
<path d="M97.1197 119.266L94.8086 119.83L95.3729 122.141L97.684 121.577L97.1197 119.266Z" fill="#71495A"/>
<path d="M99.4068 118.706L97.0957 119.271L97.66 121.582L99.9712 121.017L99.4068 118.706Z" fill="#D8BFB4"/>
<path d="M97.6568 121.589L95.3457 122.153L95.91 124.464L98.2212 123.9L97.6568 121.589Z" fill="#D8BFB4"/>
<path d="M99.9732 121.022L97.6621 121.586L98.2264 123.897L100.538 123.333L99.9732 121.022Z" fill="white"/>
<path d="M101.721 118.14L99.4102 118.704L99.9745 121.015L102.286 120.451L101.721 118.14Z" fill="#71495A"/>
<path d="M104.006 117.579L101.695 118.144L102.26 120.455L104.571 119.89L104.006 117.579Z" fill="#D8BFB4"/>
<path d="M102.258 120.462L99.9473 121.026L100.512 123.337L102.823 122.773L102.258 120.462Z" fill="#D8BFB4"/>
<path d="M104.573 119.896L102.262 120.46L102.826 122.771L105.137 122.207L104.573 119.896Z" fill="white"/>
<path d="M106.323 117.013L104.012 117.577L104.576 119.888L106.887 119.324L106.323 117.013Z" fill="#71495A"/>
<path d="M108.608 116.453L106.297 117.018L106.861 119.329L109.172 118.764L108.608 116.453Z" fill="#D8BFB4"/>
<path d="M106.86 119.335L104.549 119.899L105.113 122.211L107.424 121.646L106.86 119.335Z" fill="#D8BFB4"/>
<path d="M109.176 118.769L106.865 119.333L107.43 121.644L109.741 121.08L109.176 118.769Z" fill="white"/>
<path d="M109.187 118.768L111.472 118.205L111.159 116.952C110.595 116.733 110 116.514 109.374 116.264L108.623 116.452L109.187 118.768Z" fill="#71495A"/>
<path d="M113.13 117.798C112.536 117.517 111.878 117.235 111.158 116.953L111.471 118.205L113.13 117.798Z" fill="#D8BFB4"/>
<path d="M111.46 118.209L109.148 118.773L109.713 121.085L112.024 120.52L111.46 118.209Z" fill="#D8BFB4"/>
<path d="M112.034 120.49L114.319 119.927L113.881 118.142C113.631 118.017 113.38 117.892 113.13 117.767L111.471 118.174L112.034 120.49Z" fill="white"/>
<path d="M116.325 119.457C115.698 119.082 114.885 118.643 113.883 118.174L114.321 119.958L116.325 119.457Z" fill="#D8BFB4"/>
<path d="M123.116 115.951C122.49 116.796 121.989 117.548 121.613 118.142L123.554 117.673L123.116 115.951Z" fill="white"/>
<path d="M124.994 113.635C124.525 114.198 124.087 114.73 123.68 115.231L125.276 114.856L124.994 113.635Z" fill="#71495A"/>
<path d="M127.592 114.261L127.029 111.976L126.34 112.132C125.871 112.633 125.432 113.134 125.025 113.603L125.307 114.824L127.592 114.261Z" fill="#D8BFB4"/>
<path d="M125.841 117.141L125.277 114.855L123.681 115.231C123.493 115.482 123.305 115.732 123.117 115.982L123.555 117.704L125.841 117.141Z" fill="#D8BFB4"/>
<path d="M127.579 114.262L125.268 114.826L125.832 117.137L128.143 116.573L127.579 114.262Z" fill="white"/>
<path d="M129.315 111.405L127.004 111.97L127.568 114.281L129.88 113.716L129.315 111.405Z" fill="#71495A"/>
<path d="M131.62 110.85L129.309 111.414L129.873 113.725L132.184 113.161L131.62 110.85Z" fill="#D8BFB4"/>
<path d="M129.864 113.702L127.553 114.267L128.117 116.578L130.428 116.013L129.864 113.702Z" fill="#D8BFB4"/>
<path d="M132.19 113.123L129.879 113.688L130.443 115.999L132.755 115.434L132.19 113.123Z" fill="white"/>
<path d="M133.905 110.29L131.594 110.854L132.158 113.166L134.469 112.601L133.905 110.29Z" fill="#71495A"/>
<path d="M136.231 109.711L133.92 110.275L134.484 112.587L136.796 112.022L136.231 109.711Z" fill="#D8BFB4"/>
<path d="M134.463 112.575L132.152 113.14L132.717 115.451L135.028 114.886L134.463 112.575Z" fill="#D8BFB4"/>
<path d="M136.78 112.009L134.469 112.573L135.033 114.884L137.344 114.32L136.78 112.009Z" fill="white"/>
<path d="M138.504 109.164L136.193 109.729L136.758 112.04L139.069 111.475L138.504 109.164Z" fill="#71495A"/>
<path d="M140.821 108.597L138.51 109.161L139.074 111.472L141.385 110.908L140.821 108.597Z" fill="#D8BFB4"/>
<path d="M139.065 111.448L136.754 112.013L137.318 114.324L139.629 113.759L139.065 111.448Z" fill="#D8BFB4"/>
<path d="M141.389 110.912L139.078 111.477L139.642 113.788L141.954 113.223L141.389 110.912Z" fill="white"/>
<path d="M143.106 108.036L140.795 108.601L141.359 110.912L143.67 110.347L143.106 108.036Z" fill="#71495A"/>
<path d="M145.422 107.47L143.111 108.034L143.676 110.345L145.987 109.781L145.422 107.47Z" fill="#D8BFB4"/>
<path d="M143.672 110.353L141.361 110.917L141.926 113.228L144.237 112.664L143.672 110.353Z" fill="#D8BFB4"/>
<path d="M145.989 109.785L143.678 110.35L144.242 112.661L146.553 112.096L145.989 109.785Z" fill="white"/>
<path d="M147.708 106.91L145.396 107.475L145.961 109.786L148.272 109.221L147.708 106.91Z" fill="#71495A"/>
<path d="M148.286 109.221L148.756 109.096C148.505 108.282 148.224 107.562 147.973 106.842L147.723 106.904L148.286 109.221Z" fill="#D8BFB4"/>
<path d="M148.284 109.213L145.973 109.777L146.537 112.088L148.848 111.524L148.284 109.213Z" fill="#D8BFB4"/>
<path d="M148.849 111.505L149.443 111.349C149.224 110.535 149.005 109.783 148.755 109.063L148.285 109.189L148.849 111.505Z" fill="white"/>
<path d="M89.0263 126.125L88.4941 126.25C88.6507 127.002 88.8385 127.753 89.0263 128.567L89.5898 128.442L89.0263 126.125Z" fill="#71495A"/>
<path d="M91.3424 125.552L89.0312 126.116L89.5958 128.427L91.9069 127.863L91.3424 125.552Z" fill="#D8BFB4"/>
<path d="M89.5889 128.41L89.0254 128.535C89.0567 128.661 89.088 128.755 89.1193 128.88C89.2758 129.568 89.4323 130.226 89.6202 130.852L90.1524 130.727L89.5889 128.41Z" fill="#D8BFB4"/>
<path d="M91.9029 127.837L89.5918 128.401L90.1564 130.712L92.4675 130.148L91.9029 127.837Z" fill="white"/>
<path d="M93.6275 124.992L91.3164 125.557L91.881 127.868L94.1921 127.303L93.6275 124.992Z" fill="#71495A"/>
<path d="M95.9322 124.434L93.6211 124.998L94.1854 127.309L96.4965 126.745L95.9322 124.434Z" fill="#D8BFB4"/>
<path d="M94.1763 127.285L91.8652 127.85L92.4296 130.161L94.7407 129.596L94.1763 127.285Z" fill="#D8BFB4"/>
<path d="M96.4986 126.749L94.1875 127.313L94.7518 129.625L97.0629 129.06L96.4986 126.749Z" fill="white"/>
<path d="M98.2174 123.874L95.9062 124.438L96.4706 126.75L98.7817 126.185L98.2174 123.874Z" fill="#71495A"/>
<path d="M100.545 123.298L98.2344 123.862L98.7989 126.173L101.11 125.609L100.545 123.298Z" fill="#D8BFB4"/>
<path d="M98.7838 126.19L96.4727 126.754L97.037 129.065L99.3481 128.501L98.7838 126.19Z" fill="#D8BFB4"/>
<path d="M101.112 125.613L98.8008 126.178L99.3654 128.489L101.676 127.924L101.112 125.613Z" fill="white"/>
<path d="M102.817 122.747L100.506 123.312L101.07 125.623L103.381 125.058L102.817 122.747Z" fill="#71495A"/>
<path d="M105.133 122.181L102.822 122.745L103.387 125.056L105.698 124.492L105.133 122.181Z" fill="#D8BFB4"/>
<path d="M103.385 125.064L101.074 125.628L101.639 127.939L103.95 127.375L103.385 125.064Z" fill="#D8BFB4"/>
<path d="M105.7 124.496L103.389 125.061L103.953 127.372L106.264 126.807L105.7 124.496Z" fill="white"/>
<path d="M107.43 121.611L105.119 122.176L105.684 124.487L107.995 123.922L107.43 121.611Z" fill="#71495A"/>
<path d="M109.735 121.054L107.424 121.618L107.988 123.929L110.299 123.365L109.735 121.054Z" fill="#D8BFB4"/>
<path d="M107.985 123.937L105.674 124.501L106.238 126.812L108.549 126.248L107.985 123.937Z" fill="#D8BFB4"/>
<path d="M110.301 123.369L107.99 123.934L108.555 126.245L110.866 125.68L110.301 123.369Z" fill="white"/>
<path d="M112.02 120.494L109.709 121.059L110.273 123.37L112.584 122.805L112.02 120.494Z" fill="#71495A"/>
<path d="M114.335 119.927L112.023 120.491L112.588 122.802L114.899 122.238L114.335 119.927Z" fill="#D8BFB4"/>
<path d="M112.587 122.81L110.275 123.374L110.84 125.685L113.151 125.121L112.587 122.81Z" fill="#D8BFB4"/>
<path d="M114.901 122.242L112.59 122.807L113.154 125.118L115.465 124.553L114.901 122.242Z" fill="white"/>
<path d="M114.884 122.243L116.919 121.742L116.543 120.177C116.48 119.989 116.543 119.801 116.637 119.614C116.543 119.551 116.449 119.488 116.355 119.426L114.352 119.927L114.884 122.243Z" fill="#71495A"/>
<path d="M114.885 122.244L115.448 124.561L117.483 124.06L117.013 122.119L116.92 121.743L114.885 122.244Z" fill="#D8BFB4"/>
<path d="M121.897 118.862L122.273 120.428L124.089 119.989L123.525 117.704L121.584 118.174C121.553 118.236 121.49 118.299 121.459 118.362C121.678 118.455 121.866 118.643 121.897 118.862Z" fill="#D8BFB4"/>
<path d="M122.303 120.428L122.397 120.834L122.866 122.744L124.651 122.306L124.087 119.989L122.303 120.428Z" fill="white"/>
<path d="M125.84 117.133L123.529 117.697L124.094 120.008L126.405 119.444L125.84 117.133Z" fill="#71495A"/>
<path d="M128.145 116.577L125.834 117.142L126.398 119.453L128.709 118.888L128.145 116.577Z" fill="#D8BFB4"/>
<path d="M126.401 119.418L124.09 119.982L124.654 122.294L126.966 121.729L126.401 119.418Z" fill="#D8BFB4"/>
<path d="M128.706 118.862L126.395 119.427L126.959 121.738L129.27 121.174L128.706 118.862Z" fill="white"/>
<path d="M130.442 116.006L128.131 116.57L128.695 118.881L131.007 118.317L130.442 116.006Z" fill="#71495A"/>
<path d="M132.747 115.45L130.436 116.015L131 118.326L133.311 117.761L132.747 115.45Z" fill="#D8BFB4"/>
<path d="M130.991 118.303L128.68 118.867L129.244 121.178L131.555 120.614L130.991 118.303Z" fill="#D8BFB4"/>
<path d="M133.317 117.724L131.006 118.289L131.57 120.6L133.882 120.036L133.317 117.724Z" fill="white"/>
<path d="M135.032 114.891L132.721 115.455L133.285 117.766L135.596 117.202L135.032 114.891Z" fill="#71495A"/>
<path d="M137.356 114.315L135.045 114.88L135.609 117.191L137.921 116.626L137.356 114.315Z" fill="#D8BFB4"/>
<path d="M135.59 117.176L133.279 117.74L133.844 120.051L136.155 119.487L135.59 117.176Z" fill="#D8BFB4"/>
<path d="M137.907 116.609L135.596 117.174L136.16 119.485L138.471 118.921L137.907 116.609Z" fill="white"/>
<path d="M139.631 113.765L137.32 114.329L137.885 116.64L140.196 116.076L139.631 113.765Z" fill="#71495A"/>
<path d="M141.96 113.184L139.648 113.749L140.213 116.06L142.524 115.496L141.96 113.184Z" fill="#D8BFB4"/>
<path d="M140.192 116.05L137.881 116.614L138.445 118.925L140.756 118.361L140.192 116.05Z" fill="#D8BFB4"/>
<path d="M142.514 115.513L140.203 116.077L140.767 118.388L143.079 117.824L142.514 115.513Z" fill="white"/>
<path d="M144.233 112.638L141.922 113.202L142.486 115.513L144.797 114.949L144.233 112.638Z" fill="#71495A"/>
<path d="M146.549 112.07L144.238 112.635L144.803 114.946L147.114 114.382L146.549 112.07Z" fill="#D8BFB4"/>
<path d="M144.799 114.953L142.488 115.518L143.053 117.829L145.364 117.264L144.799 114.953Z" fill="#D8BFB4"/>
<path d="M147.116 114.386L144.805 114.95L145.369 117.261L147.68 116.697L147.116 114.386Z" fill="white"/>
<path d="M148.844 111.497L146.533 112.062L147.098 114.373L149.409 113.808L148.844 111.497Z" fill="#71495A"/>
<path d="M149.413 113.823L150.039 113.666C149.851 112.852 149.664 112.101 149.444 111.381L148.85 111.537L149.413 113.823Z" fill="#D8BFB4"/>
<path d="M149.413 113.813L147.102 114.378L147.666 116.689L149.977 116.124L149.413 113.813Z" fill="#D8BFB4"/>
<path d="M90.1533 130.728L89.6211 130.853C89.8402 131.667 90.0594 132.418 90.2785 133.138L90.7168 133.013L90.1533 130.728Z" fill="#71495A"/>
<path d="M92.4693 130.152L90.1582 130.717L90.7228 133.028L93.0339 132.463L92.4693 130.152Z" fill="#D8BFB4"/>
<path d="M90.7176 133.013L90.2793 133.138C90.5297 133.952 90.7802 134.703 91.0306 135.392L91.2811 135.329L90.7176 133.013Z" fill="#D8BFB4"/>
<path d="M93.0181 132.446L90.707 133.011L91.2714 135.322L93.5825 134.758L93.0181 132.446Z" fill="white"/>
<path d="M94.7428 129.602L92.4316 130.166L92.996 132.477L95.3071 131.913L94.7428 129.602Z" fill="#71495A"/>
<path d="M97.0709 129.025L94.7598 129.59L95.3243 131.901L97.6355 131.336L97.0709 129.025Z" fill="#D8BFB4"/>
<path d="M95.3033 131.887L92.9922 132.451L93.5565 134.762L95.8676 134.198L95.3033 131.887Z" fill="#D8BFB4"/>
<path d="M97.6295 131.31L95.3184 131.875L95.8829 134.186L98.194 133.622L97.6295 131.31Z" fill="white"/>
<path d="M99.3424 128.475L97.0312 129.039L97.5956 131.35L99.9067 130.786L99.3424 128.475Z" fill="#71495A"/>
<path d="M101.659 127.908L99.3477 128.473L99.912 130.784L102.223 130.219L101.659 127.908Z" fill="#D8BFB4"/>
<path d="M99.9107 130.79L97.5996 131.354L98.1639 133.666L100.475 133.101L99.9107 130.79Z" fill="#D8BFB4"/>
<path d="M102.225 130.224L99.9141 130.788L100.478 133.099L102.79 132.535L102.225 130.224Z" fill="white"/>
<path d="M103.956 127.339L101.645 127.903L102.209 130.214L104.52 129.65L103.956 127.339Z" fill="#71495A"/>
<path d="M106.26 126.781L103.949 127.346L104.514 129.657L106.825 129.092L106.26 126.781Z" fill="#D8BFB4"/>
<path d="M104.512 129.664L102.201 130.229L102.766 132.54L105.077 131.975L104.512 129.664Z" fill="#D8BFB4"/>
<path d="M106.827 129.097L104.516 129.661L105.08 131.972L107.391 131.408L106.827 129.097Z" fill="white"/>
<path d="M108.557 126.212L106.246 126.776L106.811 129.087L109.122 128.523L108.557 126.212Z" fill="#71495A"/>
<path d="M110.86 125.654L108.549 126.219L109.113 128.53L111.424 127.966L110.86 125.654Z" fill="#D8BFB4"/>
<path d="M109.112 128.537L106.801 129.102L107.365 131.413L109.676 130.848L109.112 128.537Z" fill="#D8BFB4"/>
<path d="M111.428 127.97L109.117 128.534L109.682 130.845L111.993 130.281L111.428 127.97Z" fill="white"/>
<path d="M113.145 125.095L110.834 125.659L111.398 127.97L113.709 127.406L113.145 125.095Z" fill="#71495A"/>
<path d="M115.473 124.517L113.162 125.082L113.727 127.393L116.038 126.829L115.473 124.517Z" fill="#D8BFB4"/>
<path d="M111.408 127.972L111.972 130.257L113.756 129.819C113.913 129.662 114.038 129.474 114.194 129.318L113.725 127.377L111.408 127.972Z" fill="#D8BFB4"/>
<path d="M113.727 127.408L114.196 129.349C114.916 128.504 115.542 127.721 116.074 127.032L116.043 126.876L113.727 127.408Z" fill="white"/>
<path d="M117.482 124.09L115.447 124.559L116.011 126.845L116.199 126.782C116.856 125.874 117.388 125.092 117.764 124.466C117.639 124.403 117.545 124.246 117.482 124.09Z" fill="#71495A"/>
<path d="M116.074 127.001C116.137 126.939 116.168 126.876 116.231 126.782L116.043 126.845L116.074 127.001Z" fill="#D8BFB4"/>
<path d="M124.652 122.306L122.836 122.744V122.775C122.899 122.994 122.836 123.213 122.742 123.37C123.337 123.714 124.12 124.153 125.09 124.622L125.215 124.591L124.652 122.306Z" fill="#D8BFB4"/>
<path d="M125.09 124.622C125.152 124.653 125.184 124.685 125.246 124.716L125.215 124.591L125.09 124.622Z" fill="white"/>
<path d="M126.956 121.745L124.645 122.31L125.209 124.621L127.52 124.056L126.956 121.745Z" fill="#71495A"/>
<path d="M129.272 121.179L126.961 121.743L127.525 124.054L129.836 123.49L129.272 121.179Z" fill="#D8BFB4"/>
<path d="M125.215 124.592L125.246 124.717C126.029 125.093 126.937 125.5 127.97 125.938L127.5 124.06L125.215 124.592Z" fill="#D8BFB4"/>
<path d="M129.816 123.464L127.531 124.027L128.001 125.906C128.22 126 128.47 126.093 128.69 126.187L130.411 125.78L129.816 123.464Z" fill="white"/>
<path d="M131.557 120.618L129.246 121.183L129.81 123.494L132.122 122.929L131.557 120.618Z" fill="#71495A"/>
<path d="M133.874 120.052L131.562 120.616L132.127 122.927L134.438 122.363L133.874 120.052Z" fill="#D8BFB4"/>
<path d="M132.116 122.903L129.805 123.468L130.369 125.779L132.68 125.215L132.116 122.903Z" fill="#D8BFB4"/>
<path d="M134.444 122.326L132.133 122.891L132.697 125.202L135.009 124.637L134.444 122.326Z" fill="white"/>
<path d="M136.159 119.491L133.848 120.056L134.412 122.367L136.723 121.802L136.159 119.491Z" fill="#71495A"/>
<path d="M138.473 118.925L136.162 119.489L136.726 121.8L139.038 121.236L138.473 118.925Z" fill="#D8BFB4"/>
<path d="M136.717 121.777L134.406 122.342L134.971 124.653L137.282 124.089L136.717 121.777Z" fill="#D8BFB4"/>
<path d="M139.034 121.21L136.723 121.774L137.287 124.086L139.598 123.521L139.034 121.21Z" fill="white"/>
<path d="M140.76 118.365L138.449 118.93L139.014 121.241L141.325 120.676L140.76 118.365Z" fill="#71495A"/>
<path d="M143.087 117.785L140.775 118.35L141.34 120.661L143.651 120.096L143.087 117.785Z" fill="#D8BFB4"/>
<path d="M141.331 120.638L139.02 121.202L139.584 123.513L141.895 122.949L141.331 120.638Z" fill="#D8BFB4"/>
<path d="M143.641 120.113L141.33 120.678L141.894 122.989L144.206 122.425L143.641 120.113Z" fill="white"/>
<path d="M145.36 117.238L143.049 117.803L143.613 120.114L145.924 119.55L145.36 117.238Z" fill="#71495A"/>
<path d="M147.674 116.672L145.363 117.236L145.928 119.547L148.239 118.983L147.674 116.672Z" fill="#D8BFB4"/>
<path d="M145.926 119.555L143.615 120.119L144.18 122.43L146.491 121.866L145.926 119.555Z" fill="#D8BFB4"/>
<path d="M148.243 118.987L145.932 119.552L146.496 121.863L148.807 121.299L148.243 118.987Z" fill="white"/>
<path d="M149.971 116.099L147.66 116.663L148.225 118.974L150.536 118.41L149.971 116.099Z" fill="#71495A"/>
<path d="M150.54 118.414L148.229 118.979L148.793 121.29L151.104 120.725L150.54 118.414Z" fill="#D8BFB4"/>
<path d="M91.0293 135.392C91.2797 136.08 91.5302 136.738 91.7806 137.333L91.2797 135.329L91.0293 135.392Z" fill="#71495A"/>
<path d="M93.5645 134.765L91.2793 135.328L91.7802 137.332C91.8115 137.426 91.8741 137.519 91.9054 137.613L94.1593 137.05L93.5645 134.765Z" fill="#D8BFB4"/>
<path d="M94.1289 137.051L91.875 137.614C92.2194 138.428 92.5637 139.18 92.8768 139.806L94.6924 139.367L94.1289 137.051Z" fill="white"/>
<path d="M95.8697 134.202L93.5586 134.767L94.1229 137.078L96.434 136.513L95.8697 134.202Z" fill="#71495A"/>
<path d="M98.1861 133.636L95.875 134.2L96.4393 136.511L98.7504 135.947L98.1861 133.636Z" fill="#D8BFB4"/>
<path d="M96.4283 136.487L94.1172 137.052L94.6815 139.363L96.9926 138.799L96.4283 136.487Z" fill="#D8BFB4"/>
<path d="M98.7447 135.921L96.4336 136.485L96.9979 138.796L99.309 138.232L98.7447 135.921Z" fill="white"/>
<path d="M100.479 133.07L98.168 133.635L98.7325 135.946L101.044 135.381L100.479 133.07Z" fill="#71495A"/>
<path d="M102.797 132.499L100.486 133.063L101.051 135.375L103.362 134.81L102.797 132.499Z" fill="#D8BFB4"/>
<path d="M101.038 135.392L98.7266 135.956L99.2909 138.267L101.602 137.703L101.038 135.392Z" fill="#D8BFB4"/>
<path d="M103.352 134.824L101.041 135.389L101.605 137.7L103.916 137.135L103.352 134.824Z" fill="white"/>
<path d="M105.071 131.949L102.76 132.514L103.324 134.825L105.635 134.26L105.071 131.949Z" fill="#71495A"/>
<path d="M107.397 131.376L105.086 131.94L105.651 134.252L107.962 133.687L107.397 131.376Z" fill="#D8BFB4"/>
<path d="M105.639 134.265L103.328 134.829L103.892 137.14L106.204 136.576L105.639 134.265Z" fill="#D8BFB4"/>
<path d="M105.648 134.265L106.212 136.55L106.619 136.456C107.214 136.018 107.746 135.548 108.278 135.11L107.934 133.701L105.648 134.265Z" fill="white"/>
<path d="M109.684 130.812L107.373 131.377L107.938 133.688L110.249 133.123L109.684 130.812Z" fill="#71495A"/>
<path d="M109.688 130.821L110.251 133.107L110.658 133.013C111.253 132.48 111.785 131.948 112.286 131.416L112.004 130.258L109.688 130.821Z" fill="#D8BFB4"/>
<path d="M107.934 133.701L108.278 135.11C108.998 134.515 109.655 133.92 110.281 133.357L110.219 133.138L107.934 133.701Z" fill="#D8BFB4"/>
<path d="M110.281 133.356C110.407 133.262 110.5 133.137 110.626 133.043L110.219 133.137L110.281 133.356Z" fill="white"/>
<path d="M112.254 131.447C112.787 130.884 113.288 130.351 113.726 129.851L111.941 130.289L112.254 131.447Z" fill="#71495A"/>
<path d="M128.689 126.188C129.316 126.439 129.973 126.658 130.662 126.908L130.38 125.781L128.689 126.188Z" fill="#D8BFB4"/>
<path d="M132.695 125.217L130.41 125.78L130.692 126.907C131.412 127.158 132.163 127.377 132.946 127.596L133.29 127.502L132.695 125.217Z" fill="#71495A"/>
<path d="M134.999 124.652L132.688 125.217L133.252 127.528L135.563 126.964L134.999 124.652Z" fill="#D8BFB4"/>
<path d="M132.916 127.597C133.041 127.628 133.166 127.659 133.292 127.691L133.26 127.503L132.916 127.597Z" fill="#D8BFB4"/>
<path d="M133.26 127.503L133.291 127.691C134.105 127.91 134.982 128.129 135.889 128.348L135.545 126.971L133.26 127.503Z" fill="white"/>
<path d="M137.294 124.084L134.982 124.648L135.547 126.96L137.858 126.395L137.294 124.084Z" fill="#71495A"/>
<path d="M139.6 123.526L137.289 124.09L137.853 126.401L140.165 125.837L139.6 123.526Z" fill="#D8BFB4"/>
<path d="M137.861 126.376L135.576 126.939L135.921 128.317C136.609 128.473 137.329 128.63 138.081 128.755L138.425 128.661L137.861 126.376Z" fill="#D8BFB4"/>
<path d="M140.159 125.811L137.848 126.375L138.412 128.686L140.723 128.122L140.159 125.811Z" fill="white"/>
<path d="M141.885 122.966L139.574 123.53L140.139 125.841L142.45 125.277L141.885 122.966Z" fill="#71495A"/>
<path d="M144.212 122.39L141.9 122.954L142.465 125.265L144.776 124.701L144.212 122.39Z" fill="#D8BFB4"/>
<path d="M142.446 125.251L140.135 125.815L140.699 128.127L143.01 127.562L142.446 125.251Z" fill="#D8BFB4"/>
<path d="M144.768 124.715L142.457 125.279L143.021 127.59L145.332 127.026L144.768 124.715Z" fill="white"/>
<path d="M146.487 121.84L144.176 122.404L144.74 124.715L147.051 124.151L146.487 121.84Z" fill="#71495A"/>
<path d="M148.801 121.273L146.49 121.837L147.055 124.148L149.366 123.584L148.801 121.273Z" fill="#D8BFB4"/>
<path d="M147.053 124.154L144.742 124.719L145.307 127.03L147.618 126.466L147.053 124.154Z" fill="#D8BFB4"/>
<path d="M149.37 123.588L147.059 124.152L147.623 126.463L149.934 125.899L149.37 123.588Z" fill="white"/>
<path d="M151.1 120.699L148.789 121.264L149.354 123.575L151.665 123.01L151.1 120.699Z" fill="#71495A"/>
<path d="M94.6926 139.367L92.877 139.805C92.9709 139.993 93.0648 140.181 93.1587 140.369C93.4717 140.995 93.9726 141.496 94.5361 141.84L95.2561 141.652L94.6926 139.367Z" fill="#D8BFB4"/>
<path d="M94.5371 141.84C94.8189 141.997 95.1006 142.122 95.3823 142.216L95.2571 141.684L94.5371 141.84Z" fill="white"/>
<path d="M96.9967 138.803L94.6855 139.367L95.2499 141.678L97.561 141.114L96.9967 138.803Z" fill="#71495A"/>
<path d="M99.3111 138.236L97 138.801L97.5643 141.112L99.8754 140.548L99.3111 138.236Z" fill="#D8BFB4"/>
<path d="M95.2559 141.652L95.3811 142.185C96.1637 142.404 97.0089 142.372 97.7915 142.059L97.5411 141.058L95.2559 141.652Z" fill="#D8BFB4"/>
<path d="M97.5723 141.12L97.8227 142.122C97.9479 142.059 98.0731 141.997 98.1984 141.934C98.7931 141.621 99.3879 141.277 99.9514 140.932L99.8575 140.557L97.5723 141.12Z" fill="white"/>
<path d="M99.2949 138.24L99.8584 140.525L101.111 140.212C101.424 140.025 101.768 139.805 102.081 139.618L101.611 137.677L99.2949 138.24Z" fill="#71495A"/>
<path d="M101.611 137.677L102.081 139.618C102.801 139.148 103.521 138.679 104.178 138.24L103.897 137.113L101.611 137.677Z" fill="#D8BFB4"/>
<path d="M99.9513 140.933C100.327 140.714 100.734 140.463 101.11 140.244L99.8574 140.557L99.9513 140.933Z" fill="#D8BFB4"/>
<path d="M103.896 137.113L104.178 138.24C104.898 137.739 105.587 137.239 106.244 136.738L106.213 136.55L103.896 137.113Z" fill="#71495A"/>
<path d="M106.244 136.738C106.369 136.644 106.495 136.55 106.62 136.456L106.213 136.55L106.244 136.738Z" fill="#D8BFB4"/>
<path d="M138.049 128.786C138.174 128.818 138.299 128.849 138.456 128.849L138.424 128.692L138.049 128.786Z" fill="#71495A"/>
<path d="M138.426 128.692L138.457 128.849C139.271 129.005 140.116 129.131 140.993 129.225L140.711 128.129L138.426 128.692Z" fill="#D8BFB4"/>
<path d="M140.711 128.129L140.993 129.225C141.807 129.318 142.652 129.412 143.497 129.506L143.027 127.565L140.711 128.129Z" fill="#71495A"/>
<path d="M145.313 127.002L143.027 127.565L143.497 129.506C143.904 129.538 144.28 129.569 144.686 129.6L145.876 129.318L145.313 127.002Z" fill="#D8BFB4"/>
<path d="M144.686 129.6C145.093 129.631 145.531 129.663 145.969 129.663L145.875 129.287L144.686 129.6Z" fill="white"/>
<path d="M147.612 126.441L145.301 127.005L145.865 129.316L148.176 128.752L147.612 126.441Z" fill="#71495A"/>
<path d="M149.928 125.873L147.617 126.438L148.182 128.749L150.493 128.184L149.928 125.873Z" fill="#D8BFB4"/>
<path d="M145.875 129.318L145.969 129.694C146.658 129.725 147.346 129.757 148.066 129.757C148.192 129.757 148.317 129.757 148.442 129.757L148.192 128.786L145.875 129.318Z" fill="#D8BFB4"/>
<path d="M148.191 128.755L148.442 129.725C149.287 129.663 150.038 129.287 150.633 128.755L150.508 128.191L148.191 128.755Z" fill="white"/>
<path d="M119.704 121.461L122.396 120.804L122.303 120.428L121.927 118.863C121.864 118.612 121.708 118.456 121.489 118.362C121.332 118.299 121.176 118.268 120.988 118.299L119.047 118.769L119.704 121.461Z" fill="#71495A"/>
<path d="M122.867 122.776L122.397 120.835L119.705 121.492L120.362 124.185L122.303 123.715C122.491 123.652 122.648 123.558 122.742 123.402C122.867 123.183 122.898 122.995 122.867 122.776Z" fill="#D8BFB4"/>
<path d="M116.543 120.177L116.919 121.742L117.013 122.118L119.705 121.461L119.047 118.769L117.107 119.238C116.887 119.301 116.731 119.426 116.637 119.614C116.512 119.802 116.48 119.989 116.543 120.177Z" fill="#D8BFB4"/>
<path d="M119.704 121.461L117.012 122.118L117.481 124.028V124.059C117.513 124.247 117.638 124.372 117.763 124.466C117.951 124.591 118.17 124.654 118.389 124.591L120.33 124.122L119.704 121.461Z" fill="white"/>
<path d="M111.689 92.0967C109.028 92.7541 106.368 92.7541 103.895 92.222C104.333 92.7228 105.272 93.8498 106.368 95.5089C106.868 96.2916 107.369 97.0429 107.87 97.7316C109.623 100.142 111.502 101.645 114.695 100.674C117.763 99.7664 118.608 97.3559 118.796 94.2568C118.858 93.4741 118.858 92.6602 118.858 91.815C118.858 90.1871 118.983 88.935 119.077 88.1523C117.074 89.9993 114.569 91.408 111.689 92.0967Z" fill="#43281F"/>
<path d="M107.526 93.0983C103.206 93.0983 99.0737 91.5018 96.1624 88.5904C95.9745 88.4026 95.9745 88.1208 96.1624 87.933C96.3502 87.7452 96.6319 87.7452 96.8197 87.933C100.482 91.5957 106.149 93.0357 111.596 91.6896C116.886 90.3748 121.175 86.5869 122.803 81.7973C122.897 81.5469 123.147 81.4216 123.397 81.5156C123.648 81.6095 123.773 81.8599 123.679 82.1103C121.957 87.213 117.418 91.22 111.815 92.6287C110.375 92.9105 108.935 93.0983 107.526 93.0983Z" fill="#43281F"/>
<path d="M118.796 94.2877C118.609 97.3868 117.763 99.7973 114.696 100.705C111.502 101.644 109.624 100.142 107.871 97.7312C108.215 97.2929 108.748 96.7294 109.468 96.1659C110.876 95.0703 113.036 93.9746 115.979 93.9746C116.856 93.9746 117.795 94.0685 118.796 94.2877Z" fill="#C45D69"/>
<path d="M76.6603 77.0704C76.2533 77.0704 75.909 76.7573 75.8777 76.3817C75.4707 72.3434 77.8186 68.4929 81.6064 67.0216C85.4256 65.5503 89.7456 66.8025 92.1561 70.0894C92.4065 70.4338 92.3439 70.9347 91.9996 71.1851C91.6552 71.4355 91.1544 71.3729 90.9039 71.0286C88.9004 68.3051 85.3317 67.272 82.1699 68.4929C79.0394 69.7138 77.0672 72.9069 77.4116 76.2252C77.4429 76.6634 77.1299 77.0391 76.7229 77.0704C76.7229 77.0704 76.6916 77.0704 76.6603 77.0704Z" fill="#43281F"/>
<path d="M118.797 64.3297C118.39 64.3297 118.046 63.9853 118.014 63.5784C117.858 59.5087 120.488 55.8148 124.369 54.6252C128.251 53.4043 132.509 54.9696 134.7 58.4131C134.919 58.7887 134.825 59.2583 134.449 59.5087C134.074 59.7279 133.604 59.634 133.354 59.2583C131.538 56.4096 128.032 55.1261 124.808 56.1278C121.583 57.1296 119.423 60.1661 119.548 63.547C119.611 63.954 119.267 64.2984 118.797 64.3297C118.797 64.3297 118.828 64.3297 118.797 64.3297Z" fill="#43281F"/>
<path d="M81.0432 126.656C81.0432 126.656 80.9806 126.656 80.8867 126.656C80.9493 126.594 81.0119 126.594 81.0432 126.656Z" fill="#945339"/>
<path d="M80.8856 126.657C79.6961 127.659 73.4038 147.631 73.4038 147.631C73.4038 147.631 69.9916 147.6 65.1394 147.349C59.3167 147.036 51.4592 146.41 44.9479 145.158C32.6138 142.779 23.2224 141.558 10.4188 132.26C6.4118 129.349 3.59438 125.342 2.02915 121.022C-2.22829 109.377 2.43611 95.227 16.0536 92.4722C38.4991 87.9017 41.0661 109.251 51.2088 117.485C51.8975 118.048 53.4627 119.144 54.2454 119.613C57.4071 121.46 59.6298 122.368 64.5446 123.276C73.0595 124.841 79.7274 126.532 80.8856 126.657Z" fill="#945339"/>
<path d="M65.1709 147.319C59.3482 147.006 51.4907 146.379 44.9794 145.127C44.6037 145.065 44.2281 144.971 43.8524 144.908C32.0505 142.654 22.847 141.245 10.4503 132.23C-4.41942 121.43 -2.60374 96.2293 16.0538 92.4415C31.6436 89.2797 37.1845 98.6711 42.7567 107.28C45.1985 111.068 47.6403 114.699 50.9586 117.016C51.6786 117.517 52.4299 118.017 53.2438 118.487C57.0943 125.03 61.2891 134.014 64.7952 145.972C64.9518 146.442 65.077 146.88 65.1709 147.319Z" fill="#AD6946"/>
<path d="M179.058 139.241H17.3691V162H179.058V139.241Z" fill="#FF8543"/>
<path d="M151.603 159.151C132.225 159.996 124.086 151.106 123.93 141.652C123.93 140.806 123.93 140.024 123.992 139.272H175.739C176.302 149.885 170.073 158.337 151.603 159.151Z" fill="#F38143"/>
<path d="M175.457 139.241C174.393 147.693 167.975 154.08 152.98 155.081C135.262 156.24 127.216 148.257 126.309 139.241H175.457Z" fill="#D8743E"/>
<path d="M175.771 142.778C175.583 143.561 175.333 144.344 175.02 145.095C172.672 150.636 166.63 154.518 155.172 155.018C139.332 155.707 132.132 148.914 131.193 141.276C131.162 141.057 131.13 140.806 131.13 140.587C131.099 140.305 131.099 140.055 131.099 139.773C131.005 134.044 132.852 130.069 136.421 127.376C136.452 127.345 136.515 127.314 136.546 127.282C140.084 124.653 145.311 123.244 152.011 122.618C162.028 121.648 171.107 124.997 174.644 131.665C174.738 131.853 174.832 132.009 174.894 132.197C175.52 133.512 175.927 134.952 176.084 136.486C176.303 138.677 176.24 140.806 175.771 142.778Z" fill="#B6724D"/>
<path d="M24.7893 118.611L24.6641 118.956L24.7893 118.611Z" fill="#C59F6D"/>
<path d="M175.02 145.063C172.672 150.604 166.63 154.486 155.172 154.987C139.332 155.676 132.132 148.883 131.193 141.244C131.13 140.743 131.099 140.242 131.099 139.742C131.005 134.013 132.852 130.037 136.421 127.345C136.452 127.314 136.515 127.282 136.546 127.251C135.638 131.634 135.388 142.183 153.826 142.183C169.134 142.183 174.206 136.893 174.613 131.634C174.707 131.821 174.8 131.978 174.863 132.166C175.489 133.481 175.896 134.921 176.053 136.455C176.397 139.554 176.115 142.496 175.02 145.063Z" fill="#AD6946"/>
<path d="M175.02 145.064C172.672 150.605 166.63 154.487 155.172 154.988C139.332 155.676 132.132 148.883 131.193 141.245C131.13 140.744 131.099 140.243 131.099 139.742C131.005 134.014 132.852 130.038 136.421 127.346C134.793 133.012 132.101 148.821 152.793 149.196C172.202 149.572 175.27 139.398 174.894 132.135C175.52 133.45 175.927 134.89 176.084 136.424C176.397 139.555 176.115 142.497 175.02 145.064Z" fill="#945339"/>
<path d="M175.02 145.064C175.708 141.464 175.959 134.045 172.359 130.57C164.282 122.713 145.656 123.401 137.391 128.723C131.35 132.636 131.193 141.276 131.193 141.276C131.13 140.775 131.099 140.275 131.099 139.774C130.911 128.347 138.424 123.902 152.011 122.587C164.22 121.429 175.051 126.626 176.115 136.455C176.397 139.555 176.115 142.497 175.02 145.064Z" fill="#D59A77"/>
<path d="M175.771 142.779C175.584 143.562 175.333 144.345 175.02 145.096C172.672 150.637 166.63 154.519 155.173 155.02C139.333 155.708 132.133 148.915 131.193 141.277C131.162 141.058 131.131 140.807 131.131 140.588L131.193 140.494C131.193 140.494 132.227 154.581 154.453 154.237C168.415 154.018 173.737 147.538 175.771 142.779Z" fill="#AD6946"/>
<path d="M5.28546 98.6698C3.93936 105.181 4.06458 115.011 13.6438 122.712C23.9431 130.976 38.0302 131.947 46.545 131.665C47.2337 122.054 45.2615 113.665 42.7885 107.31C37.2162 98.7011 31.6753 89.2784 16.0856 92.4715C11.4212 93.3793 7.85244 95.6333 5.28546 98.6698Z" fill="#B6724D"/>
<path d="M36.5282 109.095C36.4656 108.938 36.4343 108.782 36.3717 108.625C33.3038 100.549 24.2881 96.479 16.2115 99.5469C10.8584 101.582 7.25836 106.215 6.35052 111.474C6.28791 111.85 6.2253 112.257 6.194 112.632C5.97486 114.949 6.25661 117.359 7.13314 119.707C10.201 127.784 19.2167 131.853 27.2934 128.785C29.4847 127.94 31.363 126.688 32.9282 125.123C36.9352 121.022 38.5004 114.855 36.5282 109.095Z" fill="#AD6946"/>
<path d="M15.8671 97.982C10.514 100.017 6.91397 104.65 6.00613 109.909C5.94352 110.285 5.88091 110.692 5.84961 111.067C5.91222 112.789 6.25657 114.542 6.91397 116.233C10.1697 124.81 19.7802 129.161 28.3577 125.906C29.8916 125.311 31.3316 124.528 32.5838 123.558C36.6221 119.457 38.1873 113.259 36.2152 107.499C36.1525 107.342 36.1212 107.186 36.0586 107.029C32.9908 99.0151 23.9437 94.9455 15.8671 97.982Z" fill="#ECD09C"/>
<path d="M36.2146 107.529C38.1868 113.289 36.6216 119.456 32.5833 123.589C31.0494 125.154 29.1398 126.437 26.9485 127.251C18.8719 130.319 9.8248 126.249 6.78824 118.173C5.91171 115.825 5.59867 113.415 5.8491 111.098C5.88041 110.722 5.94302 110.315 6.00563 109.94C7.06999 114.855 10.6387 123.651 22.1588 122.712C32.3642 121.898 36.2773 113.446 36.2146 107.529Z" fill="#DCBD8A"/>
<path d="M7.13178 116.796C6.34917 114.918 5.94221 113.008 5.84829 111.099C5.62916 113.415 5.9109 115.826 6.78743 118.173C9.85529 126.25 18.871 130.32 26.9477 127.252C29.0138 126.469 31.1112 125.061 32.3321 123.808C32.3634 123.777 32.3321 123.746 32.3008 123.777C30.8294 124.841 29.1703 125.687 27.3546 126.281C19.2467 128.786 10.3875 124.654 7.13178 116.796Z" fill="#C59F6D"/>
<path d="M64.5452 123.213C59.0982 122.43 49.4251 120.74 41.9746 106.997C39.5015 102.427 36.4336 98.3885 33.084 95.8215C22.9413 88.0579 8.2281 92.9414 3.59501 102.02C-0.0676389 109.189 1.24716 116.044 2.06108 120.99C-2.19636 109.345 0.308018 100.486 8.04027 94.6945C17.1499 87.9014 28.2944 88.4023 35.4319 95.2267C43.9154 103.303 44.6355 112.757 53.6825 118.705C57.6895 121.303 60.3191 122.211 64.5452 123.213Z" fill="#D59A77"/>
<path d="M22.8784 119.05C23.9677 119.05 24.8506 118.167 24.8506 117.078C24.8506 115.988 23.9677 115.105 22.8784 115.105C21.7892 115.105 20.9062 115.988 20.9062 117.078C20.9062 118.167 21.7892 119.05 22.8784 119.05Z" fill="#C59F6D"/>
<path d="M17.8378 115.763C17.7752 115.763 17.6813 115.732 17.6187 115.701C17.3995 115.576 17.3056 115.294 17.3995 115.075C18.0882 113.697 19.2778 112.57 20.7178 111.976C22.1266 111.381 23.6918 111.287 25.1318 111.725C25.3822 111.788 25.5075 112.069 25.4449 112.32C25.3822 112.57 25.1005 112.696 24.8501 112.633C23.5979 112.257 22.2518 112.351 21.0622 112.852C19.8413 113.384 18.8083 114.323 18.2135 115.513C18.1509 115.669 17.9943 115.763 17.8378 115.763Z" fill="#C59F6D"/>
<path d="M14.4877 114.229C14.4251 114.229 14.3624 114.229 14.2998 114.198C14.0494 114.104 13.9555 113.822 14.0494 113.572C15.0198 111.193 16.8355 109.346 19.1834 108.344C21.3434 107.436 23.7538 107.342 25.9765 108.093C26.2269 108.187 26.3521 108.438 26.2582 108.688C26.1643 108.939 25.9139 109.064 25.6634 108.97C23.6599 108.281 21.4686 108.375 19.5277 109.189C17.399 110.097 15.7712 111.756 14.8946 113.885C14.832 114.104 14.6755 114.229 14.4877 114.229Z" fill="#C59F6D"/>
<path d="M11.1394 112.601C11.0768 112.601 11.0455 112.601 10.9828 112.57C10.7324 112.476 10.6072 112.226 10.7011 111.975C11.8281 108.563 14.3951 105.808 17.682 104.4C20.7499 103.116 24.1621 103.085 27.23 104.337C27.4804 104.431 27.5743 104.713 27.4804 104.963C27.3865 105.213 27.1048 105.307 26.8543 105.213C24.0056 104.055 20.8438 104.086 18.0264 105.276C14.9585 106.56 12.6107 109.127 11.5463 112.288C11.5463 112.476 11.3585 112.601 11.1394 112.601Z" fill="#C59F6D"/>
<path d="M113.85 99.0146C109.75 100.142 109.343 97.6685 109.468 96.1972C110.877 95.1015 113.037 94.0059 115.979 94.0059C117.388 94.9137 117.857 97.8876 113.85 99.0146Z" fill="#D67679"/>
</svg>
