<svg width="125" height="157" viewBox="0 0 125 157" fill="none" xmlns="http://www.w3.org/2000/svg">
<path d="M66.9356 156.123C99.0038 156.123 125 145.567 125 132.546C125 119.525 99.0038 108.969 66.9356 108.969C34.8675 108.969 8.87109 119.525 8.87109 132.546C8.87109 145.567 34.8675 156.123 66.9356 156.123Z" fill="#AC61C8"/>
<path d="M66.9779 152.23C96.8958 152.23 121.149 143.369 121.149 132.438C121.149 121.508 96.8958 112.646 66.9779 112.646C37.0599 112.646 12.8066 121.508 12.8066 132.438C12.8066 143.369 37.0599 152.23 66.9779 152.23Z" fill="#9B5AB3"/>
<path d="M68.9442 146.8C93.7641 146.8 113.885 140.205 113.885 132.07C113.885 123.935 93.7641 117.34 68.9442 117.34C44.1244 117.34 24.0039 123.935 24.0039 132.07C24.0039 140.205 44.1244 146.8 68.9442 146.8Z" fill="#7C4191"/>
<path d="M2.08836 129.345C3.55358 134.471 6.37935 138.148 9.95868 140.484C11.7797 141.674 13.8101 142.517 15.9451 143.015C16.8661 143.231 17.8081 143.383 18.7709 143.491C23.8992 144.01 29.5089 142.777 34.6581 139.987C45.1658 134.298 52.9105 128.501 52.9105 128.501L45.1867 108.774C45.1867 108.774 44.496 107.909 43.2819 108.233C40.5817 108.969 38.8026 109.964 30.0322 109.228C30.0322 109.228 22.5386 101.052 12.6589 102.631C12.4495 102.674 12.2402 102.696 12.0518 102.739C11.5704 102.826 11.1099 102.934 10.6494 103.064C8.70277 103.626 7.00731 104.491 5.60488 105.659C0.330094 110.007 -1.0514 118.4 2.08836 129.345Z" fill="#945339"/>
<path d="M21.2421 141.999C30.2846 143.188 51.635 129.453 51.635 129.453H51.7815C49.1232 131.335 42.7809 135.683 34.8896 139.944C29.7195 142.734 24.1098 143.967 19.0024 143.448C18.3536 143.383 17.7256 143.296 17.0977 143.167L21.2421 141.999Z" fill="#AD6946"/>
<path d="M31.1417 109.877C33.2349 112.321 38.6144 113.814 38.6144 113.814C38.7609 113.273 38.9074 112.775 39.0539 112.3L39.9749 114.809C39.9749 114.809 40.268 117.361 41.0634 120.065C39.2004 120.865 36.5002 121.925 33.6535 122.747C33.6535 122.747 32.3348 111.954 22.6225 105.464C19.9642 103.691 16.8245 102.977 13.7266 103.107C21.0945 102.242 27.2275 105.291 31.1417 109.877Z" fill="#945339"/>
<path d="M9.35156 103.973C9.35156 103.973 13.2867 102.113 17.7033 103.216C22.1408 104.297 24.2759 106.006 26.2644 108.083C34.658 116.778 37.1907 142.561 19.3778 143.556L9.35156 103.973Z" fill="#945339"/>
<path d="M5.47852 105.702C7.21585 104.058 10.1044 102.695 12.9511 102.328C20.9889 101.289 26.159 103.95 29.9895 106.61C32.8781 108.6 37.525 108.211 40.7275 108.125C40.0577 109.422 39.8484 111.11 39.974 114.808C39.974 114.808 34.5945 114.808 30.9524 110.439C26.8079 105.464 21.0726 102.241 13.7256 103.085C10.7952 103.236 7.80193 104.166 5.47852 105.702Z" fill="#945339"/>
<path d="M105.763 128.393C105.658 128.544 105.554 128.696 105.449 128.847C100.949 135.033 95.6948 138.299 91.1735 140.311L92.4922 132.546L70.6396 128.89C70.6396 128.89 60.6342 128.068 54.8989 124.045C52.1569 122.142 48.6194 117.426 47.1751 111.262C46.6519 109.055 46.4216 106.654 46.5891 104.124C47.217 94.5198 48.7032 86.2138 53.5802 78.3404C57.0968 72.6732 75.1189 76.2855 84.8731 78.7297C89.3734 84.2887 98.5415 97.7859 103.963 120.714C104.612 123.439 105.219 125.992 105.763 128.393Z" fill="#AD6946"/>
<path d="M2.08836 129.344C4.62109 138.191 11.1727 142.733 18.7709 143.49C23.3759 143.858 30.6182 140.419 29.0484 128.176C29.0484 128.176 23.355 144.55 9.6447 133.952C-1.8468 125.061 24.6109 116.993 24.6109 116.993C24.6109 116.993 22.434 108.666 15.8823 104.88C13.9566 103.777 12.1984 103.237 10.6494 103.063C8.70277 103.626 7.0073 104.491 5.60488 105.659C0.330095 110.007 -1.0514 118.399 2.08836 129.344Z" fill="#AD6946"/>
<path d="M11.069 108.535C14.9832 107.303 19.2323 109.033 22.3302 112.667C22.5605 112.926 22.7698 113.208 22.9791 113.489C23.7954 114.873 24.4652 116.431 24.9676 118.096C27.4585 126.532 24.4024 134.968 18.1229 136.958C16.9926 137.325 15.8414 137.434 14.6692 137.347C10.441 136.265 6.52677 132.264 4.74758 126.727C4.70571 126.575 4.64292 126.424 4.60106 126.272C2.29857 118.334 5.16621 110.417 11.069 108.535Z" fill="#ECD09C"/>
<path d="M4.76758 126.706C6.54677 132.265 10.461 136.245 14.6892 137.327C16.3009 137.738 17.9545 137.738 19.5454 137.24C25.4481 135.38 28.3367 127.442 25.9923 119.503C25.3225 117.21 24.2759 115.177 22.9991 113.468C22.7898 113.187 22.5595 112.906 22.3502 112.646C24.1922 117.059 26.6412 125.798 19.9431 131.14C13.9775 135.899 7.67708 131.378 4.76758 126.706Z" fill="#DCBD8A"/>
<path d="M24.9879 118.097C24.4855 116.431 23.8157 114.874 22.9993 113.489C24.2762 115.176 25.3228 117.231 25.9926 119.524C28.3369 127.462 25.4483 135.379 19.5456 137.261C17.9548 137.758 16.3012 137.78 14.6895 137.347C15.8407 137.434 16.9919 137.304 18.1432 136.958C24.4227 134.968 27.4787 126.532 24.9879 118.097Z" fill="#C59F6D"/>
<path d="M14.3969 102.74C16.1552 102.804 18.7716 103.929 18.7716 103.929C13.5597 102.502 7.07083 104.21 4.09853 108.861C-2.20191 118.703 4.4125 136.764 9.9594 140.484C6.38008 138.148 3.72176 134.406 2.08908 129.345C-2.03446 116.626 1.16809 102.177 14.3969 102.74Z" fill="#D59A77"/>
<path d="M31.4137 117.621C31.4137 117.621 39.3469 144.313 19.5664 143.426C19.5664 143.404 36.7932 143.988 31.4137 117.621Z" fill="#AD6946"/>
<path d="M91.1735 80.4383C91.1735 80.4383 89.5408 79.9408 86.9662 79.2702C86.3173 79.0972 85.6266 78.9242 84.873 78.7295C89.3733 84.2885 98.5414 97.7858 103.963 120.714C104.612 123.439 105.198 125.992 105.763 128.414C106.391 127.484 106.935 126.468 107.395 125.364C107.416 125.126 107.416 124.888 107.437 124.651C108.965 98.6293 91.1735 80.4383 91.1735 80.4383Z" fill="#945339"/>
<path d="M106.287 101.506C101.682 89.2204 91.1738 80.4385 91.1738 80.4385C91.1738 80.4385 108.966 98.6295 107.438 124.629C107.417 124.867 107.417 125.105 107.396 125.343C109.971 119.286 109.824 110.916 106.287 101.506Z" fill="#AD6946"/>
<path d="M14.209 131.508C14.1253 131.508 14.0625 131.486 13.9788 131.465C13.8113 131.4 13.6648 131.292 13.5392 131.14L7.97135 123.786C6.50613 121.839 6.44334 118.811 7.84576 117.016C8.55744 116.107 9.54123 115.653 10.6087 115.718C11.6763 115.783 12.7229 116.389 13.4973 117.405L14.1253 118.227L14.8788 117.34C15.5696 116.54 16.4696 116.107 17.4743 116.129C18.5628 116.151 19.6094 116.756 20.3629 117.751C21.0955 118.703 21.4932 119.936 21.4932 121.234C21.4932 122.553 21.0746 123.829 20.342 124.695L14.7951 131.249C14.6276 131.422 14.4183 131.508 14.209 131.508ZM10.4204 116.367C9.62496 116.367 8.89235 116.735 8.34812 117.427C7.11315 118.984 7.17595 121.666 8.47371 123.375L14.0415 130.773C14.0834 130.816 14.1253 130.859 14.1671 130.881C14.2299 130.902 14.2718 130.881 14.3137 130.838L19.8606 124.284C20.5094 123.527 20.8653 122.423 20.8444 121.255C20.8444 120.109 20.4885 119.006 19.8396 118.162C19.1907 117.319 18.3116 116.821 17.4325 116.8C16.6371 116.778 15.9045 117.124 15.3393 117.795L14.3346 118.984C14.2718 119.049 14.1881 119.092 14.0834 119.092C13.9997 119.092 13.895 119.049 13.8532 118.963L12.995 117.838C12.3461 116.973 11.4669 116.453 10.5669 116.41C10.525 116.367 10.4832 116.367 10.4204 116.367Z" fill="#C59F6D"/>
<path d="M11.0287 40.7463C7.26095 49.0956 13.8544 53.811 16.8477 55.4549C17.664 55.9091 18.2292 56.1254 18.2292 56.1254L22.583 46.4783L23.6295 43.926L26.6646 36.5284C26.6646 36.55 15.6127 30.7315 11.0287 40.7463ZM2.17455 36.7447C2.17455 36.7663 2.17455 36.7663 2.17455 36.7447C2.11175 36.8961 2.04896 37.0475 1.98616 37.1773C1.63033 38.0425 1.31635 38.8645 1.06517 39.6864C-4.04216 56.0389 10.8193 63.6095 15.0894 65.4048C15.8011 65.7077 16.1988 65.8374 16.1988 65.8374L24.9482 47.9276L24.9901 47.9492L25.1157 47.5815L25.3041 47.1921L25.2622 47.1705L29.7416 35.209L32.1906 28.6766L32.2743 28.482C32.3162 28.5036 11.3845 16.0662 2.17455 36.7447Z" fill="#B6724D"/>
<path d="M22.7679 46.0464L22.6005 46.479L22.4749 46.7602L18.2257 56.1477C18.2257 56.1477 16.0279 55.2825 13.8929 53.444C11.109 51.0646 8.4297 47.0847 10.7741 41.3094C10.8996 41.0066 11.0252 40.7254 11.1508 40.4442C11.2345 40.2711 11.3392 40.0765 11.4229 39.9034C15.3581 32.6789 23.0191 35.015 25.6983 36.1181C26.3054 36.3561 26.6403 36.5507 26.6403 36.5507L22.7679 46.0464Z" fill="#DCBD8A"/>
<path d="M25.301 47.1919L25.3428 47.2135L25.1544 47.6028L25.0288 47.9706L24.987 47.9489L16.2375 65.8588C16.2375 65.8588 -3.04056 59.3697 0.455035 42.152C0.622488 41.3517 0.831805 40.5514 1.08299 39.7078C1.85746 45.2235 3.13429 54.0703 13.8095 58.8073C13.8095 58.8073 14.2909 55.5412 14.6886 53.9838C15.2956 51.5612 16.1747 49.2684 17.1795 47.0621C18.54 44.1204 20.1727 41.3517 21.8263 38.7561C23.752 35.7494 27.6662 37.8692 29.7803 35.252L25.301 47.1919Z" fill="#945339"/>
<path d="M17.1815 47.0623C15.2557 54.4599 14.8162 62.0521 14.8162 62.0521C3.13629 56.9257 0.540758 48.425 0.457031 42.1522C0.624485 41.3519 0.833802 40.5516 1.08498 39.708C1.85946 45.2237 3.13629 54.0705 13.8115 58.8075C13.8115 58.8075 14.2929 55.5414 14.6906 53.984C15.2976 51.5614 16.1767 49.247 17.1815 47.0623Z" fill="#AD6946"/>
<path d="M21.1986 38.1722C15.5889 44.5532 14.2074 50.2203 13.9144 53.4432C11.1304 51.0639 8.45119 47.0839 10.7955 41.3086C10.9211 41.0058 11.0467 40.7246 11.1723 40.4434C11.256 40.2704 11.3607 40.0757 11.4444 39.9027C15.6308 36.6365 21.1986 38.1722 21.1986 38.1722Z" fill="#ECD09C"/>
<path d="M32.3142 28.5035L32.2304 28.6982L31.1211 29.412C31.1211 29.412 26.3068 26.6217 20.7599 26.2107C15.213 25.7997 8.61948 28.4602 5.16575 33.7813C1.71202 39.1023 -0.381146 48.6413 3.61681 54.8492C7.30079 60.5596 14.0199 64.7558 15.0874 65.4048C10.7964 63.6094 -4.06512 56.0605 1.06314 39.6864C1.31432 38.8644 1.6283 38.0425 1.98414 37.1772C2.04693 37.0475 2.10973 36.8961 2.17252 36.7663V36.7446C11.3825 16.0661 32.3142 28.5035 32.3142 28.5035Z" fill="#D59A77"/>
<path d="M25.7214 36.1172L25.1771 37.3717C17.4952 34.7545 13.3507 37.5231 11.1738 40.4432C15.0043 32.5698 22.9793 34.9924 25.7214 36.1172Z" fill="#C59F6D"/>
<path d="M71.2465 18.662L78.2377 22.1661L80.6449 23.3774L90.0851 27.6819C90.0851 27.6819 90.3572 27.1411 90.6921 26.2326C91.9061 22.9448 93.8528 14.8984 85.7103 11.1996C75.8515 6.76538 71.2465 18.662 71.2465 18.662ZM61.8691 16.4557L62.0575 16.5423L68.0649 19.8084L79.0541 25.7568L79.0331 25.8L79.4308 25.9731L79.7657 26.1461L79.7867 26.1028L97.7879 33.6302C97.7879 33.6302 98.0182 33.2408 98.3531 32.5487C100.425 28.2875 106.809 12.4974 92.5341 3.65062C91.8224 3.21801 91.0689 2.78541 90.2525 2.37443C90.1269 2.30954 89.9804 2.24465 89.8548 2.17976H89.8339C69.6976 -7.14289 61.8691 16.4557 61.8691 16.4557Z" fill="#B6724D"/>
<path d="M80.2467 23.1837L80.6444 23.3784L80.9165 23.5082L90.0637 27.6828C90.0637 27.6828 91.1521 25.5414 91.6126 22.7079C92.1987 19.0307 91.6754 14.2072 86.2332 11.4385C85.9401 11.2871 85.668 11.1573 85.3959 11.0491C85.2075 10.9626 85.0192 10.8977 84.8517 10.8328C77.2954 8.06417 73.0044 15.0507 71.6857 17.6896C71.3926 18.2737 71.2461 18.663 71.2461 18.663L80.2467 23.1837Z" fill="#DCBD8A"/>
<path d="M79.0547 25.7565L79.0338 25.7998L79.4315 25.9728L79.7664 26.1459L79.7873 26.1026L97.7886 33.6299C97.7886 33.6299 108.171 15.6336 94.586 5.05636C93.9581 4.55886 93.2883 4.10463 92.5557 3.65039C95.4861 8.32253 100.154 15.8499 95.1303 26.6866C95.1303 26.6866 92.6812 24.5669 91.3835 23.6584C89.374 22.2524 87.2599 21.106 85.104 20.1543C82.1945 18.8565 79.2222 17.8831 76.3127 17.0612C72.9426 16.1094 71.3518 20.3706 68.1074 19.8298L79.0547 25.7565Z" fill="#945339"/>
<path d="M85.082 20.1326C91.2359 24.3938 96.427 29.8014 96.427 29.8014C101.953 17.9913 98.4992 9.83665 94.5641 5.05636C93.9361 4.55886 93.2663 4.10463 92.5337 3.65039C95.4641 8.32253 100.132 15.8499 95.1083 26.6866C95.1083 26.6866 92.6593 24.5669 91.3615 23.6584C89.3521 22.2524 87.238 21.106 85.082 20.1326Z" fill="#AD6946"/>
<path d="M76.3945 16.1755C84.6835 17.1705 89.3512 20.5016 91.6119 22.7295C92.198 19.0524 91.6747 14.2288 86.2324 11.4601C85.9394 11.3087 85.6673 11.1789 85.3952 11.0708C85.2068 10.9843 85.0184 10.9194 84.8509 10.8545C79.5971 11.2222 76.3945 16.1755 76.3945 16.1755Z" fill="#ECD09C"/>
<path d="M61.8691 16.4557L62.0575 16.5423L63.3553 16.326C63.3553 16.326 65.2182 10.94 69.1324 6.87353C73.0257 2.80704 79.682 0.319557 85.6894 1.98509C91.6759 3.65062 99.3369 9.38264 100.279 16.8018C101.137 23.6154 98.7508 31.3374 98.3531 32.5487C100.425 28.2875 106.809 12.4974 92.5341 3.65062C91.8224 3.21801 91.0689 2.78541 90.2525 2.37443C90.1269 2.30954 89.9804 2.24465 89.8548 2.17976H89.8339C69.6976 -7.14289 61.8691 16.4557 61.8691 16.4557Z" fill="#D59A77"/>
<path d="M71.6855 17.6889L72.8996 18.2512C77.0231 11.0484 81.9002 10.3129 85.3958 11.0484C77.4836 7.73893 73.0252 14.9851 71.6855 17.6889Z" fill="#C59F6D"/>
<path d="M106.893 51.3675C106.893 51.3459 106.893 51.3459 106.893 51.3243C106.872 51.1729 106.851 51.0215 106.83 50.87C106.83 50.8052 106.809 50.7403 106.788 50.6537C106.768 50.4807 106.726 50.3077 106.705 50.1346C106.684 49.9616 106.642 49.7669 106.6 49.5939C106.6 49.5506 106.579 49.5073 106.579 49.4857C106.537 49.3127 106.495 49.118 106.454 48.9233C106.412 48.7286 106.37 48.534 106.307 48.3393C106.307 48.3177 106.307 48.3177 106.286 48.296C106.244 48.1446 106.202 47.9716 106.16 47.8202C106.14 47.7337 106.119 47.6688 106.098 47.5822C106.056 47.4092 105.993 47.2362 105.951 47.0847C105.888 46.8901 105.826 46.6738 105.763 46.4791C105.763 46.4575 105.763 46.4575 105.742 46.4358C105.679 46.2412 105.616 46.0249 105.533 45.8302C105.47 45.6355 105.407 45.4408 105.323 45.2462C105.302 45.2029 105.302 45.1597 105.281 45.1164C105.219 44.965 105.156 44.7919 105.093 44.6189C105.072 44.5756 105.051 44.5107 105.03 44.4675C104.967 44.2944 104.905 44.143 104.821 43.97C104.821 43.97 104.821 43.9484 104.8 43.9267C104.8 43.9051 104.779 43.8835 104.779 43.8618C104.716 43.7104 104.653 43.5374 104.57 43.386C104.486 43.2129 104.402 43.0183 104.339 42.8452C104.067 42.2179 103.774 41.6123 103.481 41.0283C102.351 38.7138 101.158 36.5941 99.9019 34.6473C99.8182 34.5176 99.7345 34.3878 99.6507 34.2364C85.2497 12.2384 63.104 12.0221 46.9029 18.4463C46.547 18.5761 44.9981 19.1817 44.5585 19.3547C29.4668 25.1517 14.2285 38.7355 14.7308 61.815C14.7727 63.3507 14.8774 64.9081 15.0448 66.5304V66.552C15.2123 68.0012 15.4216 69.4721 15.6937 70.9862C15.7356 71.2241 15.7774 71.4621 15.8193 71.6784C15.903 72.0461 15.9658 72.4138 16.0495 72.8031C16.1123 73.1276 16.1961 73.4737 16.2798 73.8198C16.4891 74.7715 16.7403 75.7449 17.0124 76.7182C17.7031 79.249 18.6241 81.4769 19.7126 83.4669C19.7754 83.5966 19.8591 83.7264 19.9428 83.8562C20.0266 83.986 20.0894 84.1158 20.1731 84.2456C20.2359 84.3537 20.2987 84.4619 20.3615 84.57C20.4243 84.6782 20.508 84.7863 20.5708 84.8945C20.6545 85.0242 20.7382 85.154 20.822 85.2838C20.8848 85.392 20.9685 85.5001 21.0313 85.6083C21.2825 85.976 21.5546 86.3437 21.8058 86.6898C21.8895 86.7979 21.9732 86.9061 22.0569 86.9926C22.1197 87.0791 22.1825 87.1656 22.2663 87.2305C22.3081 87.2954 22.3709 87.3603 22.4337 87.4252C22.5384 87.555 22.664 87.6848 22.7686 87.8145C22.9361 88.0092 23.1035 88.2039 23.2919 88.3986C23.3756 88.5067 23.4803 88.5932 23.564 88.7014C23.6687 88.8095 23.7524 88.8961 23.8571 89.0042C23.9617 89.1124 24.0454 89.1989 24.1501 89.307C24.2338 89.3936 24.2966 89.4585 24.3804 89.5233C24.6106 89.7396 24.8199 89.9343 25.0502 90.1506C25.1548 90.2371 25.2595 90.3237 25.3641 90.4102C25.4688 90.4967 25.5735 90.5832 25.6781 90.6697C25.7828 90.7563 25.8874 90.8428 25.9921 90.9293C26.5154 91.3619 27.0805 91.7513 27.6248 92.1406C27.7294 92.2055 27.8341 92.292 27.9597 92.3569C29.5923 93.4168 31.3297 94.282 33.1298 94.9958C33.2554 95.0391 33.3601 95.0823 33.4856 95.1256C33.5066 95.1256 33.5066 95.1256 33.5066 95.1256C33.6322 95.1688 33.7368 95.2121 33.8624 95.2554C34.2183 95.3851 34.595 95.5149 34.9718 95.6231C35.0974 95.6663 35.223 95.7096 35.3486 95.7312C35.4742 95.7745 35.5997 95.8177 35.7253 95.8394C36.3533 96.034 36.9812 96.1855 37.6092 96.3369C37.8604 96.4018 38.0906 96.445 38.3418 96.5099C38.8651 96.6181 39.3884 96.7262 39.9326 96.8127C39.9326 96.8127 39.9326 96.8127 39.9326 96.8344C39.8907 96.8776 39.8698 96.9425 39.8279 96.9858C39.7233 97.1372 39.6396 97.2886 39.5349 97.4616C39.514 97.5049 39.4721 97.5698 39.4512 97.6131C39.3884 97.7212 39.3256 97.8294 39.2628 97.9375C39.0535 98.2836 38.8442 98.6729 38.6348 99.1056C75.7467 91.1023 92.7223 80.3521 92.7223 80.3521C93.3503 79.7032 98.0809 75.8314 98.6669 75.1392C98.7925 75.0094 98.8972 74.858 99.0228 74.7282C99.0647 74.685 99.1065 74.6201 99.1484 74.5768C99.253 74.4687 99.3368 74.3605 99.4205 74.2307C99.5042 74.1226 99.6089 73.9928 99.6926 73.8847C99.8182 73.7332 99.9229 73.6035 100.028 73.452C100.132 73.3439 100.216 73.2141 100.3 73.0843C100.321 73.0627 100.341 73.0411 100.362 73.0194C100.697 72.5652 101.032 72.111 101.367 71.6567C101.472 71.527 101.556 71.3755 101.66 71.2458C101.702 71.1809 101.765 71.116 101.807 71.0295C101.911 70.8997 101.995 70.7483 102.079 70.5969C102.163 70.4671 102.246 70.3373 102.33 70.2075C102.749 69.537 103.167 68.8664 103.544 68.1526C103.607 68.0229 103.691 67.8931 103.753 67.7633C103.858 67.5902 103.942 67.3956 104.025 67.2225C104.109 67.0711 104.193 66.9197 104.256 66.7467C104.256 66.725 104.277 66.725 104.277 66.7034C104.36 66.552 104.423 66.4006 104.486 66.2492C104.486 66.2275 104.507 66.2275 104.507 66.2059C104.549 66.0978 104.612 65.9896 104.653 65.8815C104.758 65.6435 104.863 65.384 104.967 65.146C105.009 65.0379 105.051 64.9297 105.093 64.8216C105.156 64.6702 105.219 64.5404 105.26 64.389C105.302 64.2808 105.344 64.1727 105.386 64.0861C105.574 63.5886 105.742 63.0911 105.888 62.5937C105.951 62.4206 105.993 62.2476 106.056 62.0529C106.077 61.9447 106.119 61.8582 106.14 61.7501C106.16 61.6419 106.202 61.5554 106.223 61.4473C106.6 60.0413 106.851 58.5921 106.998 57.0996C107.019 56.9482 107.019 56.7967 107.04 56.6453C107.081 56.2344 107.081 55.8234 107.102 55.3908C107.102 55.1961 107.102 55.0014 107.102 54.8284C107.102 54.677 107.102 54.5256 107.102 54.3741C107.102 54.3309 107.102 54.266 107.102 54.2227C107.102 54.0497 107.102 53.8767 107.081 53.7252C107.081 53.7036 107.081 53.682 107.081 53.682C107.081 53.4873 107.061 53.2926 107.04 53.1196C107.019 52.9249 107.019 52.7302 106.998 52.5356C106.977 52.3409 106.956 52.1462 106.935 51.9516C106.956 51.7353 106.935 51.5622 106.893 51.3675Z" fill="#B6724D"/>
<path d="M106.915 51.3881C106.915 51.3665 106.915 51.3665 106.915 51.3448C106.894 51.1934 106.873 51.042 106.852 50.8906C106.852 50.8257 106.831 50.7608 106.81 50.6743C106.79 50.5013 106.748 50.3282 106.727 50.1552C106.706 49.9821 106.664 49.7875 106.622 49.6144C106.622 49.5712 106.601 49.5279 106.601 49.5063C106.559 49.3332 106.517 49.1386 106.476 48.9439C106.434 48.7492 106.392 48.5545 106.329 48.3599C106.329 48.3382 106.329 48.3382 106.308 48.3166C106.266 48.1652 106.224 47.9921 106.182 47.8407C106.162 47.7542 106.141 47.6893 106.12 47.6028C106.078 47.4298 106.015 47.2567 105.973 47.1053C105.91 46.9106 105.848 46.6943 105.785 46.4997C105.785 46.478 105.785 46.478 105.764 46.4564C105.701 46.2617 105.638 46.0454 105.555 45.8507C105.492 45.6561 105.429 45.4614 105.345 45.2667C105.324 45.2235 105.324 45.1802 105.303 45.1369C105.241 44.9855 105.178 44.8125 105.115 44.6395C105.094 44.5962 105.073 44.5313 105.052 44.488C104.989 44.315 104.927 44.1636 104.843 43.9905C104.843 43.9905 104.843 43.9689 104.822 43.9473C104.822 43.9257 104.801 43.904 104.801 43.8824C104.738 43.731 104.675 43.5579 104.592 43.4065C104.508 43.2335 104.424 43.0388 104.361 42.8658C104.089 42.2385 103.796 41.6328 103.503 41.0488C104.403 48.9222 103.001 69.5143 67.4588 82.3627C33.5076 94.6487 20.3625 79.5291 16.0087 71.5691C15.9041 71.3528 15.7785 71.1582 15.6738 70.9635C15.7157 71.2014 15.7576 71.4394 15.7994 71.6557C15.8831 72.0234 15.9459 72.3911 16.0297 72.7804C16.0925 73.1049 16.1762 73.451 16.2599 73.7971C16.4692 74.7488 16.7204 75.7222 16.9925 76.6955C17.6833 79.2263 18.6043 81.4542 19.6927 83.4442C19.7555 83.5739 19.8392 83.7037 19.923 83.8335C20.0067 83.9633 20.0695 84.0931 20.1532 84.2229C20.216 84.331 20.2788 84.4392 20.3416 84.5473C20.4044 84.6555 20.4881 84.7636 20.5509 84.8718C20.6346 85.0015 20.7184 85.1313 20.8021 85.2611C20.8649 85.3693 20.9486 85.4774 21.0114 85.5856C21.2626 85.9533 21.5347 86.321 21.7859 86.6671C21.8696 86.7752 21.9533 86.8834 22.0371 86.9699C22.0999 87.0564 22.1627 87.1429 22.2464 87.2078C22.2882 87.2727 22.351 87.3376 22.4138 87.4025C22.5185 87.5323 22.6441 87.6621 22.7487 87.7919C22.9162 87.9865 23.0836 88.1812 23.272 88.3759C23.3558 88.484 23.4604 88.5705 23.5441 88.6787C23.6488 88.7868 23.7325 88.8734 23.8372 88.9815C23.9418 89.0897 24.0256 89.1762 24.1302 89.2843C24.214 89.3709 24.2768 89.4358 24.3605 89.5006C24.5907 89.7169 24.8 89.9116 25.0303 90.1279C25.135 90.2145 25.2396 90.301 25.3443 90.3875C25.4489 90.474 25.5536 90.5605 25.6582 90.6471C25.7629 90.7336 25.8676 90.8201 25.9722 90.9066C26.4955 91.3392 27.0607 91.7286 27.6049 92.1179C27.7096 92.1828 27.8142 92.2693 27.9398 92.3342C29.5725 93.3941 31.3098 94.2593 33.1099 94.9731C33.2355 95.0164 33.3402 95.0596 33.4658 95.1029C33.4867 95.1029 33.4867 95.1029 33.4867 95.1029C33.6123 95.1462 33.717 95.1894 33.8425 95.2327C34.1984 95.3624 34.5751 95.4922 34.9519 95.6004C35.0775 95.6436 35.2031 95.6869 35.3287 95.7085C35.4543 95.7518 35.5799 95.7951 35.7055 95.8167C36.3334 96.0114 36.9614 96.1628 37.5893 96.3142C37.8405 96.3791 38.0707 96.4223 38.3219 96.4872C38.8452 96.5954 39.3685 96.7035 39.9127 96.7901C39.9127 96.7901 39.9127 96.7901 39.9127 96.8117C39.8709 96.8549 39.8499 96.9198 39.8081 96.9631C39.7662 97.0496 39.7034 97.1145 39.6406 97.201C47.1132 95.4922 54.4603 93.632 61.9329 91.4257C68.5892 89.7386 74.9524 89.4574 81.5459 87.316C90.8814 83.6172 98.0191 75.8087 98.6052 75.1165C98.7308 74.9867 98.8355 74.8353 98.9611 74.7055C99.0029 74.6623 99.0448 74.5974 99.0866 74.5541C99.1913 74.446 99.275 74.3378 99.3587 74.208C99.4425 74.0999 99.5471 73.9701 99.6309 73.862C99.7564 73.7105 99.8611 73.5808 99.9658 73.4294C100.07 73.3212 100.154 73.1914 100.238 73.0616C100.594 72.5858 100.95 72.1099 101.284 71.634C101.389 71.5043 101.473 71.3528 101.578 71.2231C101.619 71.1582 101.682 71.0933 101.724 71.0068C101.829 70.877 101.912 70.7256 101.996 70.5742C102.08 70.4444 102.164 70.3146 102.247 70.1848C102.666 69.5143 103.085 68.8437 103.461 68.1299C103.524 68.0002 103.608 67.8704 103.671 67.7406C103.775 67.5675 103.859 67.3729 103.943 67.1998C104.027 67.0484 104.11 66.897 104.173 66.724C104.173 66.7023 104.194 66.7023 104.194 66.6807C104.278 66.5293 104.34 66.3779 104.403 66.2265C104.403 66.2048 104.424 66.2048 104.424 66.1832C104.466 66.0751 104.529 65.9669 104.571 65.8588C104.675 65.6208 104.78 65.3613 104.885 65.1233C104.927 65.0152 104.968 64.907 105.01 64.7989C105.073 64.6475 105.136 64.5177 105.178 64.3663C105.22 64.2581 105.261 64.15 105.303 64.0634C105.492 63.5659 105.659 63.0684 105.806 62.5709C105.869 62.3979 105.91 62.2032 105.973 62.0302C105.994 61.922 106.036 61.8355 106.057 61.7274C106.078 61.6192 106.12 61.5327 106.141 61.4245C106.517 60.0186 106.769 58.5694 106.915 57.0769C106.936 56.9254 106.936 56.774 106.957 56.6226C106.999 56.2116 106.999 55.8007 107.02 55.3681C107.02 55.1734 107.02 54.9787 107.02 54.8057C107.02 54.6543 107.02 54.5029 107.02 54.3514C107.02 54.3082 107.02 54.2433 107.02 54.2C107.02 54.027 107.02 53.854 106.999 53.7025C106.999 53.6809 106.999 53.6593 106.999 53.6593C106.999 53.4646 106.978 53.2699 106.957 53.0969C106.936 52.9022 106.936 52.7075 106.915 52.5129C106.894 52.3182 106.873 52.1235 106.852 51.9289C106.957 51.7558 106.936 51.5828 106.915 51.3881Z" fill="#945339"/>
<path d="M103.545 41.0928C103.838 41.6768 104.131 42.3041 104.403 42.9097C104.487 43.0828 104.57 43.2774 104.633 43.4505C104.696 43.6019 104.78 43.7749 104.843 43.9263C104.843 43.948 104.863 43.9696 104.863 43.9912C106.14 59.0026 101.493 79.8326 70.2425 89.4364C37.4216 99.5378 23.1671 86.3649 17.1178 75.3768C16.8248 74.8576 16.5736 74.3385 16.3224 73.841C16.2387 73.4949 16.1759 73.1705 16.0922 72.8244C16.0084 72.4567 15.9247 72.0673 15.8619 71.6996C15.8201 71.4617 15.7782 71.2238 15.7363 71.0074C15.841 71.2021 15.9456 71.4184 16.0712 71.6131C20.425 79.5514 33.5701 94.671 67.5213 82.4066C103.042 69.5582 104.445 48.9662 103.545 41.0928Z" fill="#AD6946"/>
<path d="M99.4011 33.846C99.422 33.8893 99.3802 33.9326 99.3383 33.9109C82.4255 15.7415 64.3196 10.7882 35.8106 26.3836C19.2327 35.4467 15.7162 52.3616 14.7533 61.8356C14.23 38.7561 29.4683 25.1723 44.581 19.3754C45.0206 19.2023 46.5904 18.5967 46.9254 18.4669C62.98 12.0643 84.9582 12.2374 99.4011 33.846Z" fill="#D59A77"/>
<path d="M71.4831 77.414C80.5971 73.7474 85.6326 64.5299 82.7303 56.8262C79.828 49.1225 70.0869 45.8497 60.973 49.5163C51.859 53.1829 46.8235 62.4004 49.7258 70.1041C52.6281 77.8078 62.3692 81.0806 71.4831 77.414Z" fill="#AD6946"/>
<path d="M73.3014 82.5349C82.4692 78.8466 87.5484 69.6116 84.6461 61.9079C81.7438 54.2041 71.9591 50.949 62.7912 54.6372C53.6234 58.3255 48.5442 67.5605 51.4465 75.2643C54.3488 82.968 64.1335 86.2231 73.3014 82.5349Z" fill="#945339"/>
<path d="M84.4333 59.1973C85.9822 63.3286 85.5845 67.8277 83.5542 71.7861C81.5238 75.7444 77.8398 79.1836 72.8371 81.1952C60.9689 85.9755 53.1404 81.325 50.0216 73.0406C49.8332 72.5431 49.6658 72.024 49.5402 71.5265C48.5354 67.8494 48.8913 64.0208 50.2937 60.6897C50.7542 59.6299 51.3194 58.5916 51.9892 57.6399C53.6846 55.2389 56.0499 53.2706 58.9176 52.1242L64.1923 50.0044C67.06 48.858 70.0532 48.6417 72.879 49.2257C76.9397 50.0693 80.6237 52.5568 82.9471 56.2339C83.5332 57.164 84.0356 58.1374 84.4333 59.1973Z" fill="#DCBD8A"/>
<path d="M82.9486 56.2341C84.644 64.4536 79.6623 73.3004 70.9128 76.8045C62.7913 80.0707 54.021 77.6913 49.5206 71.5051C48.5159 67.8279 48.8718 63.9993 50.2742 60.6683C50.7347 59.6084 51.2998 58.5701 51.9696 57.6184C53.6651 55.2174 56.0304 53.2491 58.898 52.1027L64.1728 49.9829C67.0405 48.8365 70.0337 48.6202 72.8595 49.2042C76.9412 50.0694 80.6251 52.5569 82.9486 56.2341Z" fill="#ECD09C"/>
<path d="M67.4366 68.0211C67.311 68.0211 67.1854 67.9346 67.1435 67.8048L64.1712 59.953C64.1084 59.78 64.1922 59.6069 64.3596 59.5421C64.5271 59.4772 64.6945 59.5637 64.7573 59.7367L67.7296 67.5885C67.7924 67.7615 67.7087 67.9346 67.5412 67.9995C67.4994 68.0211 67.4575 68.0211 67.4366 68.0211Z" fill="#43281F"/>
<path d="M72.8801 49.2261C72.8591 50.8051 72.5242 52.3409 71.8963 53.7684C70.7032 56.4073 68.4425 58.6353 64.926 60.0412C61.1792 61.5553 57.893 61.4256 55.2346 60.1277C54.0206 59.5221 52.9322 58.7001 51.9902 57.6619C53.6857 55.2609 56.365 52.8383 61.1583 50.8916C66.9982 48.5339 70.0752 48.6421 72.8801 49.2261Z" fill="#5C392B"/>
<path d="M71.898 53.7677C70.7049 56.4066 68.4442 58.6346 64.9277 60.0405C61.1809 61.5546 57.8947 61.4249 55.2363 60.127C55.341 59.4998 55.5084 58.8941 55.7596 58.3317C56.4922 56.6229 57.8319 55.217 59.632 54.4815L64.6975 52.4483C67.2302 51.41 69.9932 52.0373 71.898 53.7677Z" fill="#43281F"/>
<path d="M56.6588 55.498C56.8472 55.3033 57.0147 55.1519 57.2031 54.9789C57.3914 54.8058 57.5798 54.6544 57.7682 54.503C58.145 54.2002 58.5427 53.919 58.9613 53.6594C59.7777 53.1403 60.6149 52.6644 61.515 52.2751C62.3941 51.8857 63.336 51.5613 64.278 51.3233C65.2408 51.107 66.2246 50.9773 67.2293 51.0422C67.7108 51.0638 68.0666 51.4964 68.0457 51.9939C68.0247 52.3616 67.7945 52.6644 67.4805 52.7942L67.4386 52.8158C66.6014 53.1403 65.806 53.4215 64.9896 53.7459C64.1733 54.092 63.3779 54.4165 62.5616 54.7842L60.1126 55.8873L58.8776 56.4497C58.6683 56.5362 58.459 56.6228 58.2496 56.7309C58.0403 56.8174 57.831 56.9039 57.6217 56.9905L57.5798 57.0121C57.1193 57.1851 56.617 56.9472 56.4704 56.4713C56.3449 56.1036 56.4286 55.7359 56.6588 55.498Z" fill="white"/>
<path d="M72.3774 47.2143C70.8913 47.2143 69.4051 46.6735 68.212 45.592C68.0027 45.3973 67.9818 45.0513 68.1702 44.835C68.3585 44.6187 68.6934 44.597 68.9028 44.7917C70.682 46.414 73.3194 46.587 75.2869 45.2243C77.2545 43.8616 78.1127 41.3092 77.3801 38.9948C77.2964 38.7136 77.4429 38.4108 77.715 38.3026C77.9871 38.2161 78.2802 38.3675 78.3848 38.6487C79.2849 41.439 78.2383 44.5105 75.873 46.1328C74.8055 46.8682 73.5705 47.2143 72.3774 47.2143Z" fill="#43281F"/>
<path d="M43.7204 61.4031C42.0877 61.4031 40.455 60.7542 39.241 59.478C39.0317 59.2617 39.0317 58.9157 39.241 58.721C39.4503 58.5047 39.7852 58.5047 39.9736 58.721C41.6481 60.4514 44.2436 60.8191 46.3159 59.6078C48.3672 58.3965 49.3928 55.8874 48.8068 53.5297C48.744 53.2485 48.9114 52.9457 49.1835 52.8808C49.4556 52.8159 49.7487 52.989 49.8115 53.2702C50.5232 56.1037 49.2882 59.1103 46.8182 60.5596C45.8763 61.1219 44.7879 61.4031 43.7204 61.4031Z" fill="#43281F"/>
<path d="M48.6398 94.7141C48.6398 94.7141 48.5979 94.7141 48.5352 94.7141C48.5561 94.6708 48.5979 94.6708 48.6398 94.7141Z" fill="#945339"/>
<path d="M36.3965 68.3691C36.3965 68.3691 53.5814 68.023 63.1263 86.3439C56.0514 64.108 36.3965 68.3691 36.3965 68.3691Z" fill="#945339"/>
<path d="M36.3965 68.3686C45.6902 76.4367 41.3992 87.9224 41.3992 87.9224L63.1263 86.3434C53.5814 68.0225 36.3965 68.3686 36.3965 68.3686Z" fill="#AD6946"/>
<path d="M34.0527 70.7485L36.3971 68.3691C36.3971 68.3691 50.3376 70.013 55.6752 81.542C55.6752 81.542 48.4119 78.4056 39.3275 79.6169L34.0527 70.7485Z" fill="#B6724D"/>
<path d="M65.3027 68.4554C62.456 68.4554 60.9699 66.0111 60.9489 65.9895C60.8652 65.8381 60.9071 65.6434 61.0536 65.5353C61.2001 65.4488 61.3885 65.492 61.4931 65.6434C61.5769 65.7732 63.5026 68.9312 67.3122 67.3955C70.9333 65.9246 69.9914 62.3556 69.9496 62.2042C69.9077 62.0312 69.9914 61.8581 70.1589 61.7933C70.3263 61.75 70.4938 61.8365 70.5566 62.0096C70.9752 63.502 70.8705 66.6384 67.5424 68.0011C66.7261 68.3256 65.9725 68.4554 65.3027 68.4554Z" fill="#43281F"/>
<path d="M91.9701 118.55C91.9701 138.709 76.1457 155.062 56.6374 155.062C44.9575 155.062 34.6172 149.2 28.1703 140.18C23.8584 134.124 21.3047 126.64 21.3047 118.55C21.3047 98.3906 37.1291 82.0381 56.6374 82.0381C70.6826 82.0381 82.8229 90.5172 88.5164 102.782C90.7351 107.562 91.9701 112.904 91.9701 118.55Z" fill="#155BB8"/>
<path d="M88.5164 102.803C85.0626 125.45 66.0776 142.776 43.1783 142.776C37.9245 142.776 32.8799 141.867 28.1703 140.18C23.8584 134.124 21.3047 126.64 21.3047 118.55C21.3047 113.943 22.121 109.53 23.649 105.464C27.6051 94.7999 36.2709 86.5588 46.9879 83.4224C50.0648 82.514 53.2883 82.0381 56.6374 82.0381C70.6826 82.0597 82.8229 90.5171 88.5164 102.803Z" fill="#84B4F4"/>
<path d="M90.001 118.378C90.001 124.824 88.3055 130.859 85.3332 136.007C79.4933 146.173 68.7762 152.965 56.5103 152.965C38.0066 152.965 23.0195 137.478 23.0195 118.356C23.0195 99.2569 38.0066 83.748 56.5103 83.748C65.8039 83.748 74.2185 87.6631 80.2887 94.0008C86.317 100.295 90.001 108.882 90.001 118.378Z" fill="#2F80ED"/>
<path d="M90.0034 118.378C90.0034 124.824 88.3079 130.859 85.3356 136.007C82.0075 137.283 76.8792 136.634 73.0068 134.19C63.0014 127.917 61.3897 120.758 72.0439 109.034C76.1047 104.578 78.8258 100.036 80.312 94.001C86.3194 100.295 90.0034 108.883 90.0034 118.378Z" fill="#155BB8"/>
<path d="M41.6302 101.787C31.1015 110.655 23.6289 105.486 23.6289 105.486C27.585 94.8219 36.2507 86.5808 46.9677 83.4444C46.9887 83.4228 54.3566 91.0582 41.6302 101.787Z" fill="#155BB8"/>
<path d="M46.5688 84.7418C46.7781 85.261 46.9665 85.8017 47.0921 86.3425C48.034 90.3873 46.3176 95.0379 40.3521 100.013C32.105 106.891 25.5324 106.091 21.995 102.219C21.8903 102.111 21.7857 101.981 21.681 101.851C21.5554 101.7 21.4508 101.57 21.3461 101.419C19.0227 98.2824 18.4366 95.319 19.2739 92.3557C19.2948 92.3124 19.2948 92.2692 19.3157 92.2476C20.1739 89.3275 22.4346 86.4074 25.7627 83.3143C30.7654 78.6637 36.9821 76.8035 41.5243 79.0531C41.6499 79.118 41.7545 79.1829 41.8801 79.2478C42.7383 79.7236 43.5337 80.3509 44.2244 81.1512C45.2292 82.2544 46.0246 83.4657 46.5688 84.7418Z" fill="#B6724D"/>
<path d="M47.0921 86.3421C48.034 90.387 46.3176 95.0375 40.3521 100.012C32.105 106.891 25.5324 106.091 21.995 102.219C21.7647 101.959 21.5554 101.7 21.3461 101.418C19.0227 98.2821 18.4366 95.3187 19.2739 92.3554C19.2948 92.3121 19.2948 92.2688 19.3157 92.2472C20.5716 95.0592 24.6114 101.029 34.5331 93.4585C42.7592 87.1857 43.4081 82.1459 41.5243 79.0527C41.6499 79.1176 41.7545 79.1825 41.8801 79.2474C42.7383 79.7233 43.5337 80.3506 44.2244 81.1509C45.6478 82.7083 46.6525 84.4603 47.0921 86.3421Z" fill="#AD6946"/>
<path d="M47.0921 86.3429C48.034 90.3878 46.3176 95.0383 40.3521 100.013C32.105 106.892 25.5324 106.091 21.995 102.22C21.7647 101.96 21.5554 101.7 21.3461 101.419C19.0227 98.2828 18.4366 95.3195 19.2739 92.3561C20.6344 96.1631 25.4697 106.07 36.7518 97.7853C47.3433 90.0201 44.9361 83.12 41.8592 79.2266C42.7174 79.7024 43.5128 80.3297 44.2035 81.13C45.6478 82.709 46.6525 84.4611 47.0921 86.3429Z" fill="#945339"/>
<path d="M47.0929 86.3433C46.0464 84.0721 43.2206 79.8326 39.9134 79.3784C32.4408 78.3401 22.6866 86.3433 20.3632 92.7026C18.6677 97.3532 22.0168 102.22 22.0168 102.22C21.7865 101.96 21.5772 101.701 21.3679 101.42C16.721 95.1469 19.0026 89.5879 25.7845 83.2935C31.8965 77.6263 39.7878 76.0906 44.2462 81.1088C45.6487 82.7094 46.6534 84.4615 47.0929 86.3433Z" fill="#D59A77"/>
<path d="M46.5694 84.7422C46.7788 85.2613 46.9671 85.8021 47.0927 86.3428C48.0347 90.3877 46.3183 95.0382 40.3527 100.013C32.1056 106.892 25.5331 106.091 21.9956 102.219C21.891 102.111 21.7863 101.982 21.6816 101.852V101.787C21.6816 101.787 27.8356 109.184 39.662 99.8834C47.0718 94.0216 47.3648 88.2463 46.5694 84.7422Z" fill="#AD6946"/>
<path d="M56.1136 140.051C54.5228 140.051 53.0157 139.359 51.9273 138.148L33.2143 116.928C31.1212 114.549 31.2886 110.85 33.5911 108.687C35.8936 106.524 39.4729 106.697 41.5661 109.077L55.1926 124.542C58.8557 118.269 64.277 108.839 67.7307 102.068C69.1959 99.2131 72.6078 98.1316 75.3708 99.6241C78.1338 101.138 79.1803 104.664 77.736 107.519C71.9589 118.81 61.3675 136.547 60.9279 137.304C59.986 138.861 58.4161 139.878 56.6369 140.051C56.4695 140.051 56.302 140.051 56.1136 140.051Z" fill="white"/>
<path d="M98.7513 109.618C97.2651 121.882 89.646 138.126 75.9776 133.649C75.6845 133.562 75.3706 133.454 75.0775 133.324C73.7379 132.805 72.3355 132.092 70.8912 131.161C68.7143 129.756 66.9351 128.285 65.6373 126.771C60.4253 120.714 62.1626 113.533 72.0424 104.47C77.38 99.5597 80.9384 93.7844 83.1153 89.653C83.4293 89.069 83.7014 88.5066 83.9525 88.0091C84.3921 87.1223 84.727 86.257 84.9991 85.6514L89.4367 83.1855L98.3745 91.2753C98.3745 91.2969 100.405 95.9041 98.7513 109.618Z" fill="#945339"/>
<path d="M84.8302 130.772C81.9207 133.195 78.8438 133.865 75.9971 133.649C75.704 133.563 75.3901 133.454 75.097 133.325C73.7574 132.805 72.355 132.092 70.9107 131.162C68.7338 129.756 66.9546 128.285 65.6568 126.771C60.4449 120.714 62.1822 113.533 72.0619 104.47C77.3995 99.5597 80.9579 93.7844 83.1348 89.653C83.4488 89.069 83.7209 88.5066 83.972 88.0091C84.4116 87.1223 84.6419 86.4734 84.914 85.8677C84.914 85.8677 93.6843 83.2072 94.417 96.38C95.2333 111.154 93.9355 123.158 84.8302 130.772Z" fill="#AD6946"/>
<path d="M89.7088 105.833C88.1808 116.951 80.7291 136.786 65.6373 126.792C60.4253 120.736 62.1626 113.555 72.0424 104.492C77.38 99.5815 80.9384 93.8062 83.1153 89.6748C83.7642 89.4802 84.434 89.4153 85.1038 89.5451C89.5204 90.3021 91.3624 93.7197 89.7088 105.833Z" fill="#B6724D"/>
<path d="M76.7102 101.636C71.3935 108.233 56.1762 122.855 75.0775 133.346C73.7379 132.827 72.3354 132.113 70.8912 131.183C68.7143 129.777 66.9351 128.306 65.6373 126.792C60.4253 120.735 62.1626 113.554 72.0424 104.491C77.38 99.5808 80.9384 93.8056 83.1152 89.6742C83.4292 89.0902 83.7013 88.5278 83.9525 88.0303C83.4292 89.7607 81.3989 95.8388 76.7102 101.636Z" fill="#D59A77"/>
<path d="M80.9813 131.681C81.4627 135.877 83.3675 141.739 89.5214 146.584C89.7726 146.779 90.0447 146.973 90.2959 147.168C99.9873 152.684 109.448 150.996 116.105 143.664C116.9 142.777 117.675 141.825 118.386 140.765C122.907 134.168 123.263 125.927 120.144 119.416C119.872 118.832 119.558 118.27 119.223 117.729C118.219 116.064 116.963 114.528 115.456 113.23C114.912 112.754 114.346 112.3 113.76 111.889C106.288 106.525 95.8846 106.092 88.7051 112.192C86.4445 114.095 84.8536 116.085 83.7233 117.967C83.5768 118.183 83.4512 118.4 83.3466 118.638C82.7395 119.719 82.3 120.736 81.9651 121.666C81.9023 121.861 81.8185 122.077 81.7558 122.271C81.693 122.466 81.6302 122.661 81.5883 122.834C81.5046 123.115 81.4418 123.375 81.379 123.634C81.3581 123.742 81.3371 123.829 81.3162 123.915C81.0231 125.321 81.0231 126.208 81.0231 126.251C81.065 126.251 80.6045 128.479 80.9813 131.681Z" fill="#AD6946"/>
<path d="M80.9801 132.135C81.5662 136.612 83.6803 142.02 89.5203 146.606C89.7714 146.8 90.0435 146.995 90.2947 147.19C99.9861 152.705 109.447 151.018 116.104 143.686C116.899 142.799 117.673 141.847 118.385 140.787C122.906 134.19 123.262 125.949 120.143 119.438C120.436 121.45 120.415 123.721 120.101 126.014C119.264 132.027 116.292 138.343 110.996 141.696C107.919 143.642 104.047 144.572 99.3372 143.859C99.0442 143.815 98.7721 143.772 98.479 143.707C93.6857 142.777 90.211 140.008 87.8039 136.569C84.5176 131.875 83.1779 125.949 83.1152 121.752C83.0942 120.541 83.1989 119.481 83.3663 118.638C82.7593 119.719 82.3198 120.736 81.9848 121.666C81.9011 121.861 81.8383 122.077 81.7755 122.272C81.7127 122.466 81.6499 122.661 81.6081 122.834C81.5243 123.115 81.4615 123.375 81.3988 123.634C81.3778 123.742 81.3569 123.829 81.336 123.915C81.022 125.473 80.4987 128.501 80.9801 132.135Z" fill="#945339"/>
<path d="M110.117 117.427C114.554 120.758 116.689 126.122 116.208 131.378C116.166 131.768 116.124 132.135 116.061 132.525C115.559 134.147 114.805 135.726 113.78 137.175C108.609 144.529 98.646 146.152 91.5501 140.809C90.2733 139.836 89.1639 138.711 88.2429 137.478C85.5637 132.503 85.6474 126.209 88.9337 121.234C89.0174 121.104 89.1011 120.974 89.2058 120.844C94.0829 113.923 103.439 112.387 110.117 117.427Z" fill="#ECD09C"/>
<path d="M88.9557 121.234C85.6694 126.209 85.5648 132.525 88.2649 137.479C89.2906 139.382 90.714 141.069 92.535 142.432C99.2122 147.45 108.59 145.936 113.446 139.014C114.848 137.024 115.727 134.797 116.104 132.504C116.167 132.114 116.209 131.747 116.251 131.357C114.011 135.748 108.527 143.232 98.1238 139.361C88.8929 135.921 87.3858 126.858 88.9557 121.234Z" fill="#DCBD8A"/>
<path d="M113.78 137.176C114.806 135.727 115.559 134.148 116.062 132.525C115.685 134.797 114.806 137.024 113.403 139.036C108.547 145.936 99.1909 147.472 92.4927 142.454C90.6717 141.091 89.2483 139.382 88.2227 137.5C89.1437 138.733 90.2321 139.858 91.5299 140.831C98.6676 146.152 108.61 144.509 113.78 137.176Z" fill="#C59F6D"/>
<path d="M104.8 139.684C104.779 139.684 104.758 139.684 104.737 139.684C104.528 139.662 104.319 139.576 104.151 139.446L100.174 136.007L95.2762 137.499C95.1088 137.564 94.8994 137.564 94.732 137.499C94.5436 137.456 94.3762 137.348 94.2506 137.197C93.9994 136.915 93.9366 136.504 94.0622 136.158L95.8832 131.075L92.9737 126.576C92.7644 126.252 92.7435 125.862 92.9319 125.516C93.1203 125.17 93.497 124.976 93.8738 124.997L98.9811 125.322L102.1 121.06C102.33 120.758 102.728 120.606 103.105 120.671C103.481 120.758 103.774 121.039 103.879 121.428L105.198 126.684L110.033 128.544C110.389 128.674 110.64 128.999 110.682 129.388C110.724 129.777 110.556 130.145 110.242 130.34L105.93 133.26L105.784 138.689C105.784 139.078 105.554 139.425 105.219 139.576C105.093 139.641 104.947 139.684 104.8 139.684ZM100.237 135.315C100.3 135.315 100.384 135.336 100.446 135.38L104.549 138.927C104.612 138.992 104.695 139.014 104.779 139.014C104.842 139.014 104.905 139.014 104.968 138.97C105.093 138.905 105.177 138.797 105.177 138.646L105.323 133.044C105.323 132.935 105.386 132.849 105.47 132.784L109.928 129.777C110.033 129.713 110.096 129.561 110.096 129.431C110.075 129.28 109.991 129.172 109.845 129.107L104.863 127.203C104.758 127.16 104.695 127.074 104.675 126.987L103.314 121.58C103.272 121.45 103.167 121.32 103.021 121.298C102.874 121.277 102.728 121.32 102.644 121.428L99.4207 125.819C99.3579 125.906 99.2532 125.949 99.1486 125.949L93.8738 125.603C93.7273 125.603 93.6017 125.668 93.518 125.797C93.4552 125.906 93.4552 126.057 93.5389 126.187L96.5112 130.859C96.574 130.945 96.574 131.054 96.5531 131.162L94.6483 136.375C94.6064 136.504 94.6273 136.656 94.7111 136.742C94.7529 136.807 94.8157 136.851 94.8994 136.851C94.9622 136.872 95.046 136.872 95.1088 136.851L100.174 135.315C100.195 135.315 100.216 135.315 100.237 135.315Z" fill="#C59F6D"/>
<path d="M80.9821 132.135C80.9821 131.983 80.9821 131.832 80.9821 131.681C81.0239 128.414 81.7775 124.954 83.1171 121.752C86.3824 114.009 94.6923 107.995 103.086 109.055C116.378 110.742 120.731 122.553 121.003 128.328C121.38 136.309 116.147 143.707 116.043 143.685C116.043 143.685 116.064 143.685 116.126 143.707C116.922 142.82 117.696 141.868 118.408 140.809C122.929 134.211 123.327 125.949 120.166 119.459C113.196 105.162 97.0576 104.686 88.8105 111.867C86.5708 113.814 84.8754 116.107 83.7451 117.967C83.5985 118.183 83.4729 118.4 83.3683 118.638C82.7613 119.719 82.3217 120.736 81.9868 121.666C81.9031 121.86 81.8403 122.077 81.7775 122.271C81.7147 122.466 81.6519 122.661 81.61 122.834C81.5263 123.115 81.4635 123.375 81.4007 123.634C81.3798 123.742 81.3588 123.829 81.3379 123.915C81.0239 125.473 80.5006 128.501 80.9821 132.135Z" fill="#D59A77"/>
</svg>
