<svg width="196" height="245" viewBox="0 0 196 245" fill="none" xmlns="http://www.w3.org/2000/svg">
<path d="M89.2498 245C138.236 245 177.946 233.781 177.946 219.941C177.946 206.101 138.236 194.882 89.2498 194.882C40.2641 194.882 0.553345 206.101 0.553345 219.941C0.553345 233.781 40.2641 245 89.2498 245Z" fill="#12A7A8"/>
<path d="M89.5034 238.753C135.206 238.753 172.255 228.282 172.255 215.365C172.255 202.448 135.206 191.977 89.5034 191.977C43.8008 191.977 6.75146 202.448 6.75146 215.365C6.75146 228.282 43.8008 238.753 89.5034 238.753Z" fill="#129A9B"/>
<path d="M89.0321 233.487C124.065 233.487 152.464 225.699 152.464 216.091C152.464 206.484 124.065 198.695 89.0321 198.695C53.9995 198.695 25.5999 206.484 25.5999 216.091C25.5999 225.699 53.9995 233.487 89.0321 233.487Z" fill="#0F7B7C"/>
<path d="M43.5427 20.2674C31.9799 29.3831 38.2869 41.0773 41.5491 45.6896C42.4553 46.9607 43.1077 47.6871 43.1077 47.6871L56.5191 37.1187L59.8901 34.2496L69.713 25.9329C69.6768 25.9329 57.5703 9.33589 43.5427 20.2674ZM33.3573 7.91951C33.3573 7.91951 33.3573 7.95583 33.3573 7.91951C33.1398 8.1011 32.9586 8.24637 32.7773 8.39164C31.6174 9.33589 30.5663 10.3165 29.6238 11.297C10.2679 30.9084 26.7603 52.8078 31.7987 58.5823C32.6323 59.5266 33.1398 60.035 33.1398 60.035L58.9839 40.932L59.0202 40.9684L59.4914 40.5689L60.0351 40.1694L59.9988 40.133L75.2226 26.3688L83.5594 18.851L83.8131 18.6331C83.8131 18.6331 61.9199 -14.8152 33.3573 7.91951Z" fill="#B6724D"/>
<path d="M57.0622 36.6102L56.4822 37.0824L56.0835 37.4092L43.0708 47.6507C43.0708 47.6507 40.461 44.7817 38.6124 40.5688C36.2201 35.0849 35.1327 27.3856 42.7808 20.8485C43.1796 20.5216 43.5783 20.1948 43.977 19.9042C44.2307 19.7226 44.5207 19.5047 44.7744 19.3595C55.7935 11.9507 65.4352 21.0301 68.5887 24.5892C69.2774 25.3882 69.6761 25.8966 69.6761 25.8966L57.0622 36.6102Z" fill="#DCBD8A"/>
<path d="M59.962 40.169L59.9982 40.2053L59.4183 40.6048L58.9471 41.0043L58.9108 40.968L33.0667 60.071C33.0667 60.071 9.28867 36.3557 26.8685 14.3474C27.6659 13.3305 28.5721 12.3136 29.587 11.333C26.796 19.795 22.2651 33.414 34.6253 48.1589C34.6253 48.1589 37.7063 43.8371 39.4099 41.9123C42.056 38.8979 44.992 36.2467 48.073 33.8498C52.2051 30.6539 56.591 27.8937 60.9407 25.4242C65.9428 22.5551 70.2199 28.5111 75.1857 26.3321L59.962 40.169Z" fill="#945339"/>
<path d="M48.1091 33.8861C39.9173 43.0381 33.7916 53.5702 33.7916 53.5702C20.2352 37.4815 22.555 23.3904 26.9409 14.3474C27.7383 13.3305 28.6445 12.3136 29.6594 11.333C26.7959 19.795 22.265 33.414 34.6253 48.1589C34.6253 48.1589 37.7062 43.8371 39.4099 41.9123C42.0921 38.9342 45.0281 36.2831 48.1091 33.8861Z" fill="#AD6946"/>
<path d="M60.4333 24.1532C47.5656 29.0923 41.4036 36.1742 38.6488 40.5686C36.2565 35.0847 35.1691 27.3854 42.8172 20.8483C43.2159 20.5214 43.6147 20.1946 44.0134 19.904C44.2671 19.7224 44.5571 19.5045 44.8108 19.3593C53.3289 17.7976 60.4333 24.1532 60.4333 24.1532Z" fill="#ECD09C"/>
<path d="M83.8131 18.6331L83.5594 18.851L81.4208 19.0326C81.4208 19.0326 76.31 11.4423 68.4081 6.72104C60.5063 1.99977 48.871 0.873933 39.918 5.92205C30.965 10.9702 20.997 23.0276 22.4469 34.9397C23.7518 45.8712 30.675 56.8754 31.7987 58.6186C26.7603 52.8441 10.2679 30.9447 29.6238 11.3333C30.6025 10.3528 31.6537 9.37221 32.7773 8.42795C32.9586 8.28269 33.1398 8.13741 33.3573 7.95583C33.3573 7.95583 33.3573 7.95583 33.3935 7.91951C61.9199 -14.8152 83.8131 18.6331 83.8131 18.6331Z" fill="#D59A77"/>
<path d="M68.5887 24.5887L66.8489 25.9688C57.3884 16.4899 49.2691 17.3252 43.977 19.9038C55.3223 11.5145 65.3627 20.957 68.5887 24.5887Z" fill="#C59F6D"/>
<path d="M148.405 33.6319L156.198 43.8734L158.88 47.3962L169.682 60.6158C169.682 60.6158 170.479 60.0347 171.639 59.0178C175.807 55.2045 184.47 45.1809 175.119 33.7409C163.81 20.0492 148.405 33.6319 148.405 33.6319ZM136.153 23.4631L136.334 23.7536L142.859 32.9056L154.784 49.6479L154.748 49.6842L155.219 50.1927L155.582 50.7011L155.618 50.6648L176.75 74.8885C176.75 74.8885 177.366 74.489 178.381 73.7627C184.543 69.1867 205.349 51.3548 190.669 28.0391C189.944 26.8769 189.11 25.7147 188.204 24.5163C188.059 24.3347 187.914 24.1531 187.733 23.9352C187.733 23.9352 187.733 23.9352 187.696 23.8989C164.752 -4.46502 136.153 23.4631 136.153 23.4631Z" fill="#B6724D"/>
<path d="M158.445 46.8147L158.88 47.3958L159.206 47.7953L169.718 60.6153C169.718 60.6153 172.871 58.3637 175.59 54.6593C179.106 49.8291 181.824 42.5293 175.771 34.5031C175.445 34.1036 175.119 33.7041 174.792 33.341C174.575 33.0867 174.357 32.8688 174.14 32.6146C164.969 23.0268 153.624 29.7819 149.782 32.5783C148.912 33.1957 148.441 33.6315 148.441 33.6315L158.445 46.8147Z" fill="#DCBD8A"/>
<path d="M154.82 49.611L154.784 49.6473L155.255 50.1558L155.618 50.6642L155.654 50.6279L176.786 74.8516C176.786 74.8516 205.095 56.8382 192.662 31.5249C192.082 30.3628 191.43 29.1643 190.669 27.9658C191.611 36.8636 193.097 51.1 177.873 62.8669C177.873 62.8669 175.807 58.0003 174.539 55.7486C172.581 52.2258 170.298 49.0299 167.797 46.0156C164.462 41.9843 160.729 38.3889 157.031 35.0114C152.754 31.1254 147.317 36.0283 142.895 32.8324L154.82 49.611Z" fill="#945339"/>
<path d="M167.76 46.0517C173.778 56.729 177.511 68.3869 177.511 68.3869C194.185 55.6032 194.982 41.3304 192.626 31.5611C192.046 30.3989 191.394 29.2004 190.632 28.002C191.575 36.8997 193.061 51.1361 177.837 62.903C177.837 62.903 175.771 58.0365 174.502 55.7848C172.581 52.262 170.262 49.0661 167.76 46.0517Z" fill="#AD6946"/>
<path d="M157.829 33.8867C169.319 41.5134 173.85 49.7574 175.59 54.624C179.106 49.7937 181.824 42.4939 175.771 34.4678C175.445 34.0683 175.119 33.6688 174.792 33.3056C174.575 33.0514 174.357 32.8335 174.14 32.5793C166.093 29.2381 157.829 33.8867 157.829 33.8867Z" fill="#ECD09C"/>
<path d="M136.153 23.4631L136.334 23.7536L138.401 24.4073C138.401 24.4073 145.034 18.0881 153.733 15.1827C162.469 12.2773 174.068 13.6937 181.716 20.5577C189.364 27.4217 196.504 41.3312 192.554 52.6623C188.929 63.049 179.795 72.31 178.345 73.7627C184.507 69.1867 205.312 51.3548 190.632 28.0391C189.908 26.8769 189.074 25.7147 188.168 24.5163C188.023 24.3347 187.878 24.1531 187.696 23.9352C187.696 23.9352 187.696 23.9352 187.66 23.8989C164.752 -4.46502 136.153 23.4631 136.153 23.4631Z" fill="#D59A77"/>
<path d="M149.746 32.5785L151.123 34.2854C162.396 27.0583 170.153 29.6368 174.756 33.3049C165.513 22.6639 153.697 29.7094 149.746 32.5785Z" fill="#C59F6D"/>
<path d="M179.94 89.8148C179.94 90.868 179.94 91.9575 179.904 93.0471C179.904 93.3739 179.867 93.7008 179.867 93.9913C179.867 94.2818 179.831 94.5361 179.831 94.8266C179.831 94.8629 179.831 94.8992 179.831 94.9356C179.831 94.9356 179.831 94.9719 179.831 95.0082C179.795 95.2987 179.795 95.5893 179.759 95.8798C179.759 95.9524 179.759 96.0614 179.722 96.1703C179.686 96.4609 179.686 96.7514 179.65 97.0057C179.65 97.0783 179.65 97.1509 179.614 97.2236C179.577 97.5504 179.541 97.8773 179.505 98.2041C179.469 98.531 179.432 98.8942 179.36 99.221C179.36 99.2573 179.36 99.2573 179.36 99.2936C179.324 99.6205 179.251 99.9837 179.215 100.311C179.179 100.601 179.106 100.855 179.07 101.146C179.034 101.291 179.034 101.4 178.997 101.509C178.961 101.763 178.889 102.017 178.852 102.272C178.852 102.308 178.852 102.308 178.852 102.344C178.78 102.671 178.707 102.998 178.635 103.289C178.562 103.579 178.49 103.87 178.417 104.16C178.417 104.233 178.381 104.269 178.381 104.342C178.309 104.632 178.236 104.923 178.127 105.177C178.055 105.468 177.982 105.722 177.874 106.012C177.837 106.121 177.801 106.23 177.765 106.339C177.692 106.557 177.62 106.811 177.547 107.029C177.547 107.066 177.547 107.066 177.547 107.102C177.439 107.392 177.33 107.683 177.221 107.973C177.113 108.264 177.004 108.555 176.895 108.881C176.786 109.172 176.678 109.463 176.533 109.753C176.424 110.044 176.279 110.334 176.17 110.588C176.17 110.625 176.134 110.625 176.134 110.661C176.025 110.915 175.916 111.169 175.808 111.387C175.771 111.46 175.735 111.533 175.699 111.605C175.59 111.823 175.481 112.041 175.373 112.259C175.228 112.549 175.083 112.804 174.938 113.058C174.611 113.639 174.285 114.22 173.959 114.801C173.85 115.019 173.705 115.201 173.597 115.419C172.328 117.452 170.914 119.341 169.319 121.084C169.211 121.229 169.102 121.338 168.993 121.447C168.884 121.556 168.776 121.701 168.667 121.81C168.449 122.028 168.268 122.246 168.051 122.464C167.471 123.082 166.855 123.663 166.238 124.207C166.093 124.316 165.985 124.462 165.84 124.571C165.658 124.752 165.477 124.897 165.26 125.079C165.115 125.188 164.97 125.333 164.825 125.442C164.499 125.733 164.172 125.987 163.81 126.277C163.665 126.386 163.52 126.532 163.339 126.641C163.339 126.677 163.302 126.677 163.266 126.677C163.049 126.859 162.831 127.004 162.614 127.185C162.577 127.185 162.577 127.222 162.541 127.222C162.324 127.403 162.106 127.549 161.853 127.73C161.599 127.912 161.309 128.13 161.055 128.311C160.838 128.457 160.656 128.602 160.439 128.711C159.388 129.437 158.3 130.091 157.177 130.745C156.959 130.853 156.742 130.999 156.524 131.108C156.27 131.253 156.053 131.362 155.799 131.507C155.691 131.58 155.546 131.652 155.437 131.689C155.183 131.834 154.966 131.943 154.712 132.052C153.914 132.488 153.081 132.851 152.247 133.25C152.211 133.287 152.175 133.287 152.102 133.323C151.885 133.432 151.667 133.541 151.45 133.614C151.196 133.723 150.906 133.868 150.652 133.977C150.435 134.086 150.217 134.158 150 134.267C149.782 134.376 149.565 134.449 149.347 134.558C149.239 134.594 149.13 134.63 149.021 134.667C148.731 134.776 148.477 134.885 148.187 134.994C146.81 135.538 145.396 136.047 144.019 136.519L147.571 149.085L148.985 154.133L120.132 168.515L95.3392 158.709L87.9086 155.767L84.0302 154.242L79.7893 152.571L72.7936 149.811L69.8213 148.649L35.8216 146.252L34.2993 142.039L34.118 141.603L32.9581 138.407L31.472 138.553L30.0946 138.698C31.1458 136.337 32.4507 134.267 33.8281 132.451C35.7129 129.982 37.779 127.948 39.7363 126.35C40.2075 125.951 40.715 125.551 41.1862 125.224C41.4399 125.043 41.6574 124.861 41.9111 124.716C42.5998 124.207 43.2885 123.772 43.9047 123.372C44.086 123.263 44.2672 123.154 44.4122 123.045C44.4847 122.973 44.5934 122.936 44.6659 122.9C44.9559 122.718 45.2096 122.573 45.4633 122.428C45.5721 122.355 45.6446 122.319 45.7533 122.283C45.7533 122.283 45.7533 122.283 45.7896 122.283C45.0646 121.738 44.3759 121.193 43.6872 120.648C43.361 120.394 43.0348 120.14 42.7448 119.849C41.9111 119.159 41.1137 118.469 40.3163 117.743C40.1713 117.598 39.99 117.452 39.8451 117.307C39.7001 117.162 39.5188 117.017 39.3738 116.871C38.9026 116.435 38.4677 115.963 37.9965 115.491C37.8515 115.346 37.7065 115.201 37.5615 115.055C37.5615 115.055 37.5615 115.019 37.5253 115.019C37.3803 114.874 37.2353 114.729 37.0903 114.583C34.9155 112.223 32.9944 109.68 31.327 106.957C31.2183 106.775 31.1095 106.593 31.0008 106.412C30.4571 105.468 29.9134 104.487 29.4422 103.47C29.3334 103.289 29.2609 103.071 29.1522 102.853C29.0435 102.671 28.971 102.453 28.8622 102.235C28.7897 102.054 28.681 101.836 28.6085 101.618C28.4273 101.182 28.246 100.71 28.0648 100.238C27.9923 100.093 27.956 99.911 27.8835 99.7295C27.8111 99.5116 27.7386 99.2936 27.6661 99.0757C27.5936 98.8578 27.5211 98.6399 27.4486 98.422C27.3761 98.2041 27.3036 97.9862 27.2673 97.7683C27.1586 97.3688 27.0136 96.9693 26.9049 96.5335C26.8324 96.2793 26.7599 95.9888 26.6874 95.7345C26.6511 95.5893 26.6149 95.4803 26.5787 95.335C26.5424 95.1535 26.5062 95.0082 26.4699 94.8266C26.4337 94.6087 26.3974 94.4271 26.3249 94.2092C26.1799 93.5192 26.0712 92.7928 25.9625 92.0665C25.9262 91.8486 25.89 91.667 25.89 91.4491C25.8537 91.1949 25.8175 90.9406 25.7812 90.6864C25.745 90.4685 25.745 90.2506 25.7087 90.069C25.7087 89.8874 25.6725 89.6695 25.6362 89.4879C25.6 89.2337 25.6 89.0158 25.5637 88.7616C25.5637 88.5074 25.5275 88.2895 25.5275 88.0352C25.3463 84.3672 25.6 80.4812 26.3974 76.341C26.7236 74.7431 27.0499 73.1814 27.4123 71.6561C27.5573 71.1113 27.6661 70.5666 27.8111 70.0581C27.956 69.4407 28.101 68.8597 28.2823 68.2786C28.391 67.9154 28.4997 67.5522 28.5722 67.1891C29.2609 64.8284 29.9859 62.5404 30.8196 60.3614V60.3251C31.7257 57.8918 32.7044 55.5312 33.7556 53.3158C49.6318 19.9038 81.9641 11.8413 108.424 14.8193C109.186 14.892 111.94 15.2188 112.557 15.2551C141.083 18.1605 173.669 35.0118 179.07 77.3216C179.106 77.5758 179.142 77.8301 179.179 78.0843C179.686 81.7523 179.904 85.6746 179.94 89.8148Z" fill="#B6724D"/>
<path d="M66.4865 125.697L54.9962 130.818L48.1093 133.905L44.1946 135.648L37.4889 138.626H37.4527C37.7064 137.827 38.0326 137.1 38.3951 136.374C38.4313 136.265 38.5038 136.156 38.5763 136.047C38.6488 135.866 38.7576 135.72 38.8301 135.575C41.4398 130.89 45.4633 128.566 45.4633 128.566C41.2224 129.583 37.9964 130.636 35.5678 131.653C34.9879 131.907 34.4442 132.125 33.9367 132.343C35.8216 129.873 37.8876 127.84 39.845 126.242C42.201 124.28 44.3759 122.937 45.8257 122.174C45.4633 121.92 45.1008 121.629 44.7746 121.375L62.1369 124.825L66.4865 125.697Z" fill="#AD6946"/>
<path d="M179.94 89.8156C179.94 90.8688 179.94 91.9583 179.904 93.0478C179.904 93.3747 179.867 93.7015 179.867 93.9921C179.867 94.2826 179.831 94.5368 179.831 94.8274C179.831 94.8637 179.831 94.9 179.831 94.9363C179.831 94.9363 179.831 94.9727 179.831 95.009C179.795 95.2995 179.795 95.59 179.759 95.8806C179.759 95.9532 179.759 96.0622 179.722 96.1711C179.686 96.4617 179.686 96.7522 179.65 97.0064C179.65 97.0791 179.65 97.1517 179.614 97.2243C179.577 97.5512 179.541 97.878 179.505 98.2049C179.469 98.5318 179.432 98.8949 179.36 99.2218C179.36 99.2581 179.36 99.2581 179.36 99.2944C179.324 99.6213 179.251 99.9845 179.215 100.311C179.179 100.602 179.106 100.856 179.07 101.147C179.034 101.292 179.034 101.401 178.997 101.51C178.961 101.764 178.889 102.018 178.852 102.272C178.852 102.309 178.852 102.309 178.852 102.345C178.78 102.672 178.707 102.999 178.635 103.289C178.562 103.58 178.49 103.87 178.417 104.161C178.417 104.234 178.381 104.27 178.381 104.343C178.309 104.633 178.236 104.924 178.127 105.178C178.055 105.468 177.982 105.723 177.874 106.013C177.838 106.122 177.801 106.231 177.765 106.34C177.693 106.558 177.62 106.812 177.548 107.03C177.548 107.066 177.548 107.066 177.548 107.103C177.439 107.393 177.33 107.684 177.221 107.974C177.113 108.265 177.004 108.555 176.895 108.882C176.786 109.173 176.678 109.463 176.533 109.754C176.424 110.044 176.279 110.335 176.17 110.589C176.17 110.625 176.134 110.625 176.134 110.662C176.025 110.916 175.916 111.17 175.808 111.388C175.771 111.461 175.735 111.533 175.699 111.606C175.59 111.824 175.481 112.042 175.373 112.26C175.228 112.55 175.083 112.804 174.938 113.059C174.612 113.64 174.285 114.221 173.959 114.802C173.85 115.02 173.705 115.201 173.597 115.419C172.328 117.453 170.914 119.342 169.319 121.085C169.211 121.23 169.102 121.339 168.993 121.448C168.884 121.557 168.776 121.702 168.667 121.811C168.45 122.029 168.268 122.247 168.051 122.465C167.471 123.082 166.855 123.663 166.238 124.208C166.093 124.317 165.985 124.462 165.84 124.571C165.658 124.753 165.477 124.898 165.26 125.08C165.115 125.189 164.97 125.334 164.825 125.443C164.499 125.734 164.172 125.988 163.81 126.278C163.665 126.387 163.52 126.532 163.339 126.641C163.339 126.678 163.302 126.678 163.266 126.678C163.049 126.859 162.831 127.005 162.614 127.186C162.577 127.186 162.577 127.223 162.541 127.223C162.324 127.404 162.106 127.549 161.853 127.731C161.599 127.913 161.309 128.13 161.055 128.312C160.838 128.457 160.656 128.603 160.439 128.712C159.388 129.438 158.3 130.092 157.177 130.745C156.959 130.854 156.742 131 156.524 131.108C156.271 131.254 156.053 131.363 155.799 131.508C155.691 131.581 155.546 131.653 155.437 131.69C155.183 131.835 154.966 131.944 154.712 132.053C153.878 132.489 153.008 132.924 152.102 133.324C151.885 133.433 151.667 133.542 151.45 133.614C151.196 133.723 150.906 133.869 150.652 133.978C150.435 134.087 150.217 134.159 150 134.268C149.782 134.377 149.565 134.45 149.347 134.559C149.239 134.595 149.13 134.631 149.021 134.668C148.731 134.777 148.477 134.885 148.187 134.994C146.81 135.539 145.396 136.048 144.019 136.52L147.571 149.086C146.52 149.267 107.989 156.494 95.448 158.71C93.0557 159.109 91.6421 159.363 91.5696 159.327C91.4609 159.291 90.1197 157.911 88.0536 155.768C79.7531 147.161 59.6722 125.915 59.6722 125.915C59.6722 125.915 49.5593 123.264 39.9176 126.278C40.3888 125.879 40.8963 125.479 41.3675 125.152C41.6212 124.971 41.8387 124.789 42.0924 124.644C42.7811 124.136 43.4698 123.7 44.086 123.3C44.2672 123.191 44.4485 123.082 44.5935 122.973C44.666 122.901 44.7747 122.864 44.8472 122.828C45.1372 122.647 45.3909 122.501 45.6446 122.356C45.7534 122.283 45.8259 122.247 45.9346 122.211C45.9346 122.211 45.9346 122.211 45.9708 122.211C45.2459 121.666 44.5572 121.121 43.8685 120.576C43.5423 120.322 43.2161 120.068 42.9261 119.777C42.0924 119.087 41.295 118.397 40.4975 117.671C40.3526 117.526 40.1713 117.38 40.0263 117.235C39.8813 117.09 39.7001 116.945 39.5551 116.799C39.0839 116.364 38.649 115.891 38.1777 115.419C38.0328 115.274 37.8878 115.129 37.7428 114.984C37.7428 114.984 37.7428 114.947 37.7065 114.947C37.5615 114.802 37.4166 114.657 37.2716 114.511C35.0967 112.151 33.1757 109.609 31.5083 106.885C31.3995 106.703 31.2908 106.522 31.1821 106.34C30.6384 105.396 30.0947 104.415 29.6234 103.398C29.5147 103.217 29.4422 102.999 29.3335 102.781C29.2247 102.599 29.1522 102.381 29.0435 102.163C28.971 101.982 28.8623 101.764 28.7898 101.546C28.6085 101.11 28.4273 100.638 28.2461 100.166C28.1736 100.021 28.1373 99.8392 28.0648 99.6576C27.9923 99.4397 27.9198 99.2218 27.8473 99.0039C27.7748 98.786 27.7023 98.5681 27.6299 98.3502C27.5574 98.1323 27.4849 97.9144 27.4486 97.6965C27.3399 97.297 27.1949 96.8975 27.0862 96.4617C27.0137 96.2074 26.9412 95.9169 26.8687 95.6627C26.8324 95.5174 26.7962 95.4085 26.7599 95.2632C26.7237 95.0816 26.6874 94.9363 26.6512 94.7547C26.6149 94.5368 26.5787 94.3553 26.5062 94.1374C26.3612 93.4473 26.2525 92.721 26.1437 91.9946C26.1075 91.7767 26.0712 91.5951 26.0712 91.3772C26.035 91.123 25.9987 90.8688 25.9625 90.6146C25.9262 90.3967 25.9262 90.1787 25.89 89.9972C25.89 89.8156 25.8538 89.5977 25.8175 89.4161C25.7813 89.1619 25.7813 88.944 25.745 88.6897C25.745 88.4355 25.7088 88.2176 25.7088 87.9634C25.5275 84.2953 25.7813 80.4094 26.5787 76.2692C26.9049 74.6712 27.2311 73.1096 27.5936 71.5842C27.7386 71.0395 27.8473 70.4947 27.9923 69.9863C28.1373 69.3689 28.2823 68.7878 28.4635 68.2067C28.5723 67.8435 28.681 67.4804 28.7535 67.1172C28.7535 67.4804 28.7898 67.8435 28.7898 68.243C29.3697 82.8063 37.8878 114.257 96.8979 122.065C158.627 130.201 175.59 101.764 179.94 89.8156Z" fill="#945339"/>
<path d="M179.94 89.8158C179.94 90.869 179.94 91.9585 179.903 93.048C179.903 93.3749 179.867 93.7017 179.867 93.9923C179.867 94.2828 179.831 94.537 179.831 94.8276C179.831 94.8639 179.831 94.9002 179.831 94.9365C170.914 117.381 148.985 143.711 95.9191 134.123C40.0987 124.099 28.5722 94.6097 27.5572 74.3445C27.521 73.4003 27.4847 72.456 27.4847 71.5481C27.6297 71.0033 27.7385 70.4586 27.8835 69.9501C28.0284 69.3327 28.1734 68.7517 28.3547 68.1706C28.4634 67.8074 28.5722 67.4442 28.6446 67.0811C28.6446 67.4442 28.6809 67.8074 28.6809 68.2069C29.3696 82.8065 37.8876 114.257 96.8978 122.066C158.626 130.201 175.59 101.764 179.94 89.8158Z" fill="#AD6946"/>
<path d="M137.821 81.7888C137.676 81.7888 137.495 81.7162 137.386 81.5709C137.35 81.4983 132.239 75.2154 120.06 72.2011C119.77 72.1284 119.589 71.8379 119.661 71.5473C119.734 71.2568 120.024 71.0752 120.314 71.1479C132.891 74.2711 138.038 80.6267 138.256 80.9172C138.437 81.1351 138.401 81.4983 138.183 81.6799C138.075 81.7525 137.966 81.7888 137.821 81.7888Z" fill="#43281F"/>
<path d="M179.034 76.3416C179.034 76.4142 178.961 76.4142 178.925 76.3779C171.095 45.835 150.181 19.3233 91.207 19.3233C58.476 19.3233 41.3311 43.1838 33.828 53.2074C49.7042 19.7954 82.0365 11.7329 108.497 14.7109C109.258 14.7836 112.013 15.1104 112.629 15.1467C140.974 18.0158 173.27 34.6492 179.034 76.3416Z" fill="#D59A77"/>
<path d="M131.876 96.1829C133.346 83.0071 121.506 70.8663 105.431 69.0658C89.3566 67.2652 75.1336 76.4867 73.6635 89.6626C72.1934 102.838 84.0329 114.979 100.108 116.78C116.182 118.58 130.405 109.359 131.876 96.1829Z" fill="#AD6946"/>
<path d="M130.892 104.879C132.362 91.7037 120.442 79.5539 104.268 77.7422C88.0934 75.9305 73.7898 85.143 72.3197 98.3188C70.8495 111.495 82.7696 123.644 98.9439 125.456C115.118 127.268 129.422 118.055 130.892 104.879Z" fill="#945339"/>
<path d="M132.601 100.856C131.804 107.938 127.889 114.003 121.944 118.07C116 122.138 108.062 124.172 99.2538 123.191C78.3031 120.831 70.3287 108.228 71.8873 94.0646C71.9961 93.193 72.1048 92.3577 72.2861 91.5224C73.5547 85.53 76.8894 80.3729 81.4566 76.7049C82.9064 75.5427 84.5013 74.5258 86.2049 73.6905C90.4821 71.5841 95.3754 70.6035 100.45 71.1846L109.765 72.2378C114.804 72.8189 119.371 74.8164 123.068 77.8307C128.396 82.1525 131.949 88.508 132.601 95.5536C132.819 97.2605 132.782 99.0401 132.601 100.856Z" fill="#DCBD8A"/>
<path d="M132.637 95.5173C129.013 108.483 115.13 117.235 99.7252 115.492C85.3714 113.894 74.316 103.761 72.3224 91.5224C73.5911 85.53 76.9258 80.3729 81.4929 76.7049C82.9428 75.5427 84.5377 74.5258 86.2413 73.6905C90.5184 71.5841 95.4118 70.6035 100.486 71.1846L109.802 72.2378C114.84 72.8189 119.407 74.8164 123.105 77.8307C128.433 82.1162 131.949 88.4717 132.637 95.5173Z" fill="#ECD09C"/>
<path d="M101.393 100.421C101.356 100.421 101.356 100.421 101.32 100.421C101.03 100.384 100.813 100.13 100.849 99.8032L102.335 86.3657C102.371 86.0752 102.625 85.8573 102.951 85.8936C103.241 85.9299 103.459 86.1841 103.422 86.511L101.936 99.9485C101.9 100.203 101.646 100.421 101.393 100.421Z" fill="#43281F"/>
<path d="M123.105 77.8307C121.872 80.0823 120.277 82.0072 118.284 83.5325C114.587 86.3652 109.621 87.7816 103.423 87.0916C96.7893 86.3652 92.0772 83.6414 89.1775 79.7555C87.8363 77.9759 86.8577 75.9421 86.2415 73.7268C90.5186 71.6204 96.2456 70.2403 104.691 71.1846C114.985 72.3104 119.407 74.8163 123.105 77.8307Z" fill="#5C392B"/>
<path d="M118.284 83.4966C114.586 86.3293 109.621 87.7457 103.422 87.0557C96.7892 86.3293 92.0771 83.6055 89.1773 79.7195C89.7935 78.9206 90.4822 78.1942 91.2796 77.5405C93.5994 75.6883 96.6442 74.7077 99.7977 75.0709L108.751 76.0878C113.173 76.5599 116.761 79.5743 118.284 83.4966Z" fill="#43281F"/>
<path d="M94.6868 74.2352C95.0855 74.1263 95.4842 74.0173 95.8829 73.9084C96.2816 73.8358 96.6804 73.7268 97.0428 73.6905C97.8403 73.5452 98.6015 73.4726 99.3989 73.4C100.994 73.291 102.589 73.2547 104.184 73.3636C105.778 73.4726 107.373 73.7268 108.932 74.1263C110.49 74.5621 112.049 75.1432 113.463 76.0148C114.151 76.4143 114.369 77.3222 113.934 78.0122C113.644 78.5207 113.064 78.7749 112.52 78.7023H112.448C110.998 78.5207 109.584 78.3028 108.171 78.1575C106.721 78.0122 105.307 77.867 103.821 77.758L99.4351 77.4675L97.2241 77.3222C96.8616 77.2859 96.4629 77.2496 96.1004 77.2133C95.7379 77.177 95.3392 77.1406 95.013 77.1043H94.9405C94.1431 76.9954 93.5994 76.269 93.7081 75.47C93.7444 74.8526 94.1431 74.4168 94.6868 74.2352Z" fill="white"/>
<path d="M103.495 100.747C102.734 100.747 101.972 100.711 101.211 100.602C94.3606 99.8393 88.4885 95.7354 85.8063 89.9247C85.6975 89.6341 85.8063 89.3436 86.06 89.1983C86.35 89.0894 86.64 89.1983 86.7849 89.4525C89.286 94.9365 94.868 98.7498 101.32 99.4761C107.591 100.166 113.789 97.7692 117.45 93.2296C117.631 93.0116 117.994 92.9753 118.211 93.1569C118.429 93.3385 118.465 93.7017 118.284 93.9196C114.84 98.2413 109.294 100.747 103.495 100.747Z" fill="#43281F"/>
<path d="M110.49 219.759C115.891 224.117 122.379 228.403 129.448 231.127C133.833 232.834 138.473 233.887 143.149 233.996C145.904 234.032 148.55 233.923 151.051 233.596C135.646 233.814 126.983 225.97 122.887 220.667C126.983 219.832 130.028 216.709 130.028 212.968C130.028 208.61 125.895 205.051 120.785 205.051C115.674 205.051 111.542 208.61 111.542 212.968C111.542 214.566 112.085 216.055 113.064 217.29C112.955 217.399 112.81 217.544 112.701 217.653C111.94 218.379 111.215 219.069 110.49 219.759Z" fill="#945339"/>
<path d="M110.49 219.759C115.891 224.117 122.379 228.402 129.448 231.126C124.518 228.657 117.849 224.371 112.665 217.652C111.94 218.379 111.215 219.069 110.49 219.759Z" fill="#AD6946"/>
<path d="M67.2479 114.766C66.2329 115.201 65.3993 116 65.0005 117.126L66.9579 117.344L67.2479 114.766Z" fill="white"/>
<path d="M70.0386 114.547C69.205 114.329 68.335 114.366 67.5739 114.656L70.0024 114.947L70.0386 114.547Z" fill="#71495A"/>
<path d="M71.4887 115.092C71.1625 114.946 70.8362 114.837 70.51 114.692C70.365 114.62 70.1838 114.583 70.0388 114.547L70.0026 114.91L71.4887 115.092Z" fill="#D8BFB4"/>
<path d="M69.6763 117.633L70.0025 114.91L67.574 114.619C67.4652 114.655 67.3565 114.692 67.2477 114.728L66.9578 117.307L69.6763 117.633Z" fill="#D8BFB4"/>
<path d="M69.6765 117.634L72.395 117.961L72.685 115.6C72.2862 115.419 71.8875 115.273 71.4888 115.092L70.0027 114.91L69.6765 117.634Z" fill="white"/>
<path d="M75.1134 118.288L75.2947 116.763C74.461 116.363 73.591 115.964 72.6849 115.601L72.3949 117.961L75.1134 118.288Z" fill="#D8BFB4"/>
<path d="M77.8319 118.615L77.9044 118.07C77.0707 117.634 76.2008 117.199 75.2946 116.763L75.1134 118.288L77.8319 118.615Z" fill="white"/>
<path d="M79.1732 118.76C78.7744 118.542 78.3395 118.288 77.9045 118.07L77.832 118.615L79.1732 118.76Z" fill="#D8BFB4"/>
<path d="M121.473 123.154C121.038 123.263 120.567 123.372 120.132 123.517L121.401 123.663L121.473 123.154Z" fill="white"/>
<path d="M124.156 123.99L124.337 122.501C123.358 122.719 122.416 122.937 121.51 123.155L121.437 123.663L124.156 123.99Z" fill="#D8BFB4"/>
<path d="M126.874 124.281L127.164 121.92C126.185 122.102 125.243 122.283 124.337 122.465L124.156 123.954L126.874 124.281Z" fill="white"/>
<path d="M129.955 121.521C129.81 121.521 129.665 121.557 129.52 121.557C129.158 121.593 128.831 121.666 128.469 121.702L129.883 121.884L129.955 121.521Z" fill="#71495A"/>
<path d="M132.42 122.174C131.695 121.738 130.861 121.484 129.955 121.52L129.919 121.883L132.42 122.174Z" fill="#D8BFB4"/>
<path d="M129.593 124.608L129.919 121.884L128.505 121.702C128.07 121.775 127.599 121.847 127.164 121.92L126.874 124.281L129.593 124.608Z" fill="#D8BFB4"/>
<path d="M129.593 124.607L132.311 124.933L132.601 122.319C132.529 122.282 132.456 122.21 132.384 122.173L129.883 121.883L129.593 124.607Z" fill="white"/>
<path d="M134.341 125.152C134.16 123.954 133.507 122.973 132.601 122.319L132.311 124.934L134.341 125.152Z" fill="#D8BFB4"/>
<path d="M66.9577 117.344L65.0004 117.126C65.0004 117.162 64.9642 117.162 64.9642 117.199C64.6742 117.961 64.3842 118.797 64.0942 119.777L66.6315 120.068L66.9577 117.344Z" fill="#D8BFB4"/>
<path d="M63.7681 120.902C63.6231 121.411 63.5144 121.919 63.3694 122.464L63.5869 122.5L63.7681 120.902Z" fill="#D8BFB4"/>
<path d="M66.3054 122.791L66.6316 120.067L64.0943 119.776C63.9856 120.14 63.8768 120.503 63.7681 120.902L63.5869 122.464L66.3054 122.791Z" fill="white"/>
<path d="M66.9608 117.324L66.6437 120.066L69.3803 120.384L69.6974 117.642L66.9608 117.324Z" fill="#71495A"/>
<path d="M69.6945 117.646L69.3774 120.388L72.114 120.705L72.4311 117.963L69.6945 117.646Z" fill="#D8BFB4"/>
<path d="M66.6378 120.063L66.3207 122.805L69.0573 123.122L69.3744 120.38L66.6378 120.063Z" fill="#D8BFB4"/>
<path d="M69.3722 120.386L69.0551 123.128L71.7917 123.446L72.1088 120.704L69.3722 120.386Z" fill="white"/>
<path d="M72.3869 117.957L72.0701 120.699L74.8067 121.017L75.1235 118.275L72.3869 117.957Z" fill="#71495A"/>
<path d="M75.1307 118.251L74.8136 120.993L77.5502 121.311L77.8673 118.569L75.1307 118.251Z" fill="#D8BFB4"/>
<path d="M72.0745 120.668L71.7574 123.41L74.494 123.728L74.8111 120.986L72.0745 120.668Z" fill="#D8BFB4"/>
<path d="M74.8087 120.992L74.4916 123.733L77.2282 124.051L77.5453 121.309L74.8087 120.992Z" fill="white"/>
<path d="M77.5419 121.338L80.2604 121.665L80.5141 119.522C80.0792 119.268 79.6442 119.014 79.2092 118.76L77.8681 118.614L77.5419 121.338Z" fill="#71495A"/>
<path d="M82.9788 121.956L83.0876 121.084C82.2539 120.539 81.4202 120.031 80.514 119.522L80.2603 121.665L82.9788 121.956Z" fill="#D8BFB4"/>
<path d="M77.5426 121.314L77.2255 124.056L79.9621 124.373L80.2792 121.631L77.5426 121.314Z" fill="#D8BFB4"/>
<path d="M80.2408 121.632L79.9237 124.374L82.6603 124.692L82.9774 121.95L80.2408 121.632Z" fill="white"/>
<path d="M84.6827 122.174C84.1752 121.811 83.6315 121.448 83.0516 121.085L82.9428 121.957L84.6827 122.174Z" fill="#71495A"/>
<path d="M82.6529 124.68L85.3714 125.007L85.6252 122.828C85.3352 122.61 85.009 122.392 84.6827 122.174L82.9429 121.956L82.6529 124.68Z" fill="#D8BFB4"/>
<path d="M88.0899 125.333L88.1624 124.752C87.3649 124.135 86.5312 123.481 85.6251 122.827L85.3713 125.006L88.0899 125.333Z" fill="white"/>
<path d="M88.996 125.443C88.7422 125.225 88.4523 125.007 88.1623 124.753L88.0898 125.334L88.996 125.443Z" fill="#D8BFB4"/>
<path d="M109.947 127.331C109.657 127.476 109.331 127.622 109.041 127.767L109.874 127.876L109.947 127.331Z" fill="white"/>
<path d="M115.746 124.897C115.13 125.115 114.55 125.333 114.006 125.551L115.674 125.733L115.746 124.897Z" fill="#D8BFB4"/>
<path d="M112.629 128.166L112.883 126.023C111.868 126.459 110.889 126.895 109.983 127.331L109.911 127.876L112.629 128.166Z" fill="#D8BFB4"/>
<path d="M115.348 128.493L115.674 125.769L114.007 125.588C113.608 125.733 113.245 125.878 112.883 126.06L112.629 128.203L115.348 128.493Z" fill="white"/>
<path d="M118.392 126.06L118.646 123.953C117.631 124.244 116.689 124.571 115.782 124.897L115.674 125.733L118.392 126.06Z" fill="#71495A"/>
<path d="M121.111 126.387L121.437 123.663L120.168 123.518C119.661 123.663 119.154 123.808 118.646 123.953L118.392 126.06L121.111 126.387Z" fill="#D8BFB4"/>
<path d="M115.684 125.744L115.367 128.486L118.104 128.804L118.421 126.062L115.684 125.744Z" fill="#D8BFB4"/>
<path d="M118.382 126.063L118.065 128.805L120.802 129.122L121.119 126.38L118.382 126.063Z" fill="white"/>
<path d="M121.44 123.648L121.123 126.39L123.86 126.707L124.177 123.965L121.44 123.648Z" fill="#71495A"/>
<path d="M124.164 123.961L123.847 126.703L126.584 127.021L126.9 124.279L124.164 123.961Z" fill="#D8BFB4"/>
<path d="M121.117 126.385L120.799 129.127L123.536 129.445L123.853 126.703L121.117 126.385Z" fill="#D8BFB4"/>
<path d="M123.855 126.672L123.538 129.414L126.275 129.732L126.592 126.99L123.855 126.672Z" fill="white"/>
<path d="M126.871 124.287L126.554 127.029L129.29 127.347L129.608 124.605L126.871 124.287Z" fill="#71495A"/>
<path d="M129.609 124.574L129.292 127.316L132.029 127.634L132.346 124.892L129.609 124.574Z" fill="#D8BFB4"/>
<path d="M126.553 126.991L126.236 129.732L128.973 130.05L129.29 127.308L126.553 126.991Z" fill="#D8BFB4"/>
<path d="M129.287 127.314L128.97 130.056L131.707 130.373L132.024 127.631L129.287 127.314Z" fill="white"/>
<path d="M132.021 127.657L134.631 127.948C134.559 126.931 134.486 126.023 134.377 125.224C134.377 125.188 134.377 125.151 134.377 125.151L132.348 124.934L132.021 127.657Z" fill="#71495A"/>
<path d="M131.695 130.381L134.413 130.708L134.631 128.674C134.631 128.42 134.595 128.202 134.595 127.948L131.985 127.657L131.695 130.381Z" fill="#D8BFB4"/>
<path d="M134.703 130.745C134.703 130.019 134.667 129.329 134.667 128.675L134.45 130.709L134.703 130.745Z" fill="white"/>
<path d="M63.5869 122.464L63.3694 122.428C63.152 123.263 62.9707 124.171 62.7895 125.115L63.2607 125.188L63.5869 122.464Z" fill="#71495A"/>
<path d="M63.5818 122.479L63.2648 125.221L66.0014 125.538L66.3184 122.796L63.5818 122.479Z" fill="#D8BFB4"/>
<path d="M63.2607 125.188L62.7895 125.115C62.6082 125.987 62.4632 126.858 62.3182 127.839L62.9344 127.912L63.2607 125.188Z" fill="#D8BFB4"/>
<path d="M63.2999 125.187L62.9828 127.929L65.7194 128.246L66.0364 125.505L63.2999 125.187Z" fill="white"/>
<path d="M66.3201 122.766L66.0031 125.508L68.7397 125.826L69.0567 123.084L66.3201 122.766Z" fill="#71495A"/>
<path d="M69.0545 123.089L68.7374 125.831L71.474 126.149L71.7911 123.407L69.0545 123.089Z" fill="#D8BFB4"/>
<path d="M65.9983 125.506L65.6812 128.248L68.4178 128.566L68.7349 125.824L65.9983 125.506Z" fill="#D8BFB4"/>
<path d="M68.732 125.828L68.4149 128.57L71.1515 128.888L71.4686 126.146L68.732 125.828Z" fill="white"/>
<path d="M71.7884 123.412L71.4713 126.154L74.2079 126.472L74.525 123.73L71.7884 123.412Z" fill="#71495A"/>
<path d="M74.4864 123.731L74.1693 126.473L76.9059 126.79L77.223 124.048L74.4864 123.731Z" fill="#D8BFB4"/>
<path d="M71.4661 126.151L71.149 128.893L73.8856 129.21L74.2027 126.468L71.4661 126.151Z" fill="#D8BFB4"/>
<path d="M74.1641 126.47L73.847 129.212L76.5836 129.53L76.9007 126.788L74.1641 126.47Z" fill="white"/>
<path d="M77.2203 124.053L76.9033 126.795L79.6399 127.113L79.9569 124.371L77.2203 124.053Z" fill="#71495A"/>
<path d="M79.9547 124.376L79.6376 127.118L82.3742 127.436L82.6913 124.694L79.9547 124.376Z" fill="#D8BFB4"/>
<path d="M76.9023 126.756L76.5853 129.498L79.3219 129.816L79.6389 127.074L76.9023 126.756Z" fill="#D8BFB4"/>
<path d="M79.6367 127.079L79.3196 129.821L82.0562 130.139L82.3733 127.397L79.6367 127.079Z" fill="white"/>
<path d="M82.6568 124.659L82.3397 127.4L85.0763 127.718L85.3934 124.976L82.6568 124.659Z" fill="#71495A"/>
<path d="M85.3909 124.982L85.0739 127.724L87.8104 128.041L88.1275 125.299L85.3909 124.982Z" fill="#D8BFB4"/>
<path d="M82.3707 127.402L82.0536 130.144L84.7902 130.461L85.1073 127.719L82.3707 127.402Z" fill="#D8BFB4"/>
<path d="M85.0691 127.721L84.752 130.463L87.4886 130.781L87.8057 128.039L85.0691 127.721Z" fill="white"/>
<path d="M87.7998 128.057L90.5183 128.384L90.6996 126.895C90.1921 126.423 89.6122 125.95 89.0322 125.442L88.126 125.333L87.7998 128.057Z" fill="#71495A"/>
<path d="M92.4757 128.602C91.932 128.058 91.352 127.477 90.6634 126.896L90.4821 128.385L92.4757 128.602Z" fill="#D8BFB4"/>
<path d="M87.8028 128.043L87.4857 130.785L90.2223 131.103L90.5394 128.361L87.8028 128.043Z" fill="#D8BFB4"/>
<path d="M90.1921 131.108L92.9107 131.435L93.1644 129.329C92.9469 129.111 92.7294 128.857 92.4757 128.639L90.5184 128.421L90.1921 131.108Z" fill="white"/>
<path d="M95.2666 131.689C94.7229 131.035 94.0342 130.236 93.1643 129.292L92.9106 131.398L95.2666 131.689Z" fill="#D8BFB4"/>
<path d="M104.075 130.636C103.024 131.326 102.19 131.907 101.537 132.415L103.821 132.67L104.075 130.636Z" fill="white"/>
<path d="M107.011 128.82C106.25 129.22 105.561 129.656 104.945 130.019L106.83 130.237L107.011 128.82Z" fill="#71495A"/>
<path d="M109.584 130.563L109.911 127.839L109.077 127.73C108.352 128.094 107.663 128.457 107.047 128.82L106.866 130.236L109.584 130.563Z" fill="#D8BFB4"/>
<path d="M106.54 132.996L106.866 130.273L104.981 130.055C104.655 130.236 104.365 130.454 104.075 130.636L103.821 132.706L106.54 132.996Z" fill="#D8BFB4"/>
<path d="M106.874 130.259L106.557 133.001L109.293 133.319L109.61 130.577L106.874 130.259Z" fill="white"/>
<path d="M109.894 127.838L109.577 130.58L112.313 130.898L112.63 128.156L109.894 127.838Z" fill="#71495A"/>
<path d="M112.628 128.16L112.311 130.902L115.048 131.22L115.365 128.478L112.628 128.16Z" fill="#D8BFB4"/>
<path d="M109.608 130.582L109.291 133.324L112.027 133.642L112.344 130.9L109.608 130.582Z" fill="#D8BFB4"/>
<path d="M112.31 130.865L111.993 133.606L114.73 133.924L115.047 131.182L112.31 130.865Z" fill="white"/>
<path d="M115.362 128.484L115.045 131.226L117.782 131.543L118.099 128.801L115.362 128.484Z" fill="#71495A"/>
<path d="M118.1 128.77L117.783 131.512L120.52 131.829L120.837 129.088L118.1 128.77Z" fill="#D8BFB4"/>
<path d="M115.044 131.187L114.727 133.929L117.464 134.246L117.781 131.505L115.044 131.187Z" fill="#D8BFB4"/>
<path d="M117.778 131.509L117.461 134.251L120.198 134.569L120.515 131.827L117.778 131.509Z" fill="white"/>
<path d="M120.798 129.089L120.481 131.831L123.218 132.149L123.535 129.407L120.798 129.089Z" fill="#71495A"/>
<path d="M123.533 129.412L123.216 132.154L125.952 132.472L126.269 129.73L123.533 129.412Z" fill="#D8BFB4"/>
<path d="M120.477 131.829L120.16 134.571L122.897 134.889L123.214 132.147L120.477 131.829Z" fill="#D8BFB4"/>
<path d="M123.211 132.151L122.894 134.893L125.63 135.21L125.947 132.468L123.211 132.151Z" fill="white"/>
<path d="M126.266 129.734L125.949 132.476L128.686 132.793L129.003 130.051L126.266 129.734Z" fill="#71495A"/>
<path d="M128.965 130.053L128.648 132.795L131.385 133.113L131.702 130.371L128.965 130.053Z" fill="#D8BFB4"/>
<path d="M125.944 132.474L125.627 135.216L128.364 135.534L128.681 132.792L125.944 132.474Z" fill="#D8BFB4"/>
<path d="M128.679 132.796L128.362 135.538L131.098 135.856L131.415 133.114L128.679 132.796Z" fill="white"/>
<path d="M131.699 130.376L131.382 133.118L134.119 133.436L134.436 130.694L131.699 130.376Z" fill="#71495A"/>
<path d="M134.087 133.432L134.631 133.504C134.667 132.524 134.703 131.616 134.667 130.744L134.377 130.708L134.087 133.432Z" fill="#D8BFB4"/>
<path d="M131.381 133.079L131.064 135.821L133.801 136.139L134.118 133.397L131.381 133.079Z" fill="#D8BFB4"/>
<path d="M133.797 136.157L134.486 136.229C134.558 135.285 134.631 134.341 134.667 133.469L134.124 133.396L133.797 136.157Z" fill="white"/>
<path d="M62.9708 127.949L62.3546 127.876C62.2096 128.748 62.1009 129.656 61.9921 130.6L62.6446 130.672L62.9708 127.949Z" fill="#71495A"/>
<path d="M62.978 127.927L62.6609 130.669L65.3975 130.987L65.7146 128.245L62.978 127.927Z" fill="#D8BFB4"/>
<path d="M62.6446 130.672L61.9921 130.6C61.9921 130.745 61.9559 130.854 61.9559 130.999C61.8471 131.798 61.7746 132.561 61.7021 133.323L62.3546 133.396L62.6446 130.672Z" fill="#D8BFB4"/>
<path d="M62.6553 130.665L62.3383 133.407L65.0748 133.725L65.3919 130.983L62.6553 130.665Z" fill="white"/>
<path d="M65.6758 128.244L65.3587 130.986L68.0953 131.304L68.4124 128.562L65.6758 128.244Z" fill="#71495A"/>
<path d="M68.4097 128.568L68.0927 131.31L70.8293 131.627L71.1463 128.885L68.4097 128.568Z" fill="#D8BFB4"/>
<path d="M65.3938 130.952L65.0767 133.694L67.8133 134.012L68.1304 131.27L65.3938 130.952Z" fill="#D8BFB4"/>
<path d="M68.0918 131.271L67.7747 134.013L70.5113 134.33L70.8284 131.588L68.0918 131.271Z" fill="white"/>
<path d="M71.1479 128.855L70.8309 131.597L73.5675 131.914L73.8845 129.172L71.1479 128.855Z" fill="#71495A"/>
<path d="M73.8823 129.177L73.5652 131.919L76.3018 132.237L76.6189 129.495L73.8823 129.177Z" fill="#D8BFB4"/>
<path d="M70.8259 131.594L70.5089 134.336L73.2454 134.654L73.5625 131.912L70.8259 131.594Z" fill="#D8BFB4"/>
<path d="M73.5601 131.917L73.243 134.659L75.9796 134.977L76.2966 132.235L73.5601 131.917Z" fill="white"/>
<path d="M76.5803 129.495L76.2632 132.237L78.9998 132.555L79.3169 129.813L76.5803 129.495Z" fill="#71495A"/>
<path d="M79.3143 129.819L78.9972 132.561L81.7338 132.878L82.0509 130.136L79.3143 129.819Z" fill="#D8BFB4"/>
<path d="M76.2581 132.236L75.941 134.978L78.6776 135.295L78.9947 132.553L76.2581 132.236Z" fill="#D8BFB4"/>
<path d="M78.9922 132.558L78.6751 135.3L81.4117 135.617L81.7288 132.876L78.9922 132.558Z" fill="white"/>
<path d="M82.0484 130.142L81.7313 132.884L84.4679 133.201L84.785 130.46L82.0484 130.142Z" fill="#71495A"/>
<path d="M84.7466 130.46L84.4296 133.202L87.1662 133.52L87.4832 130.778L84.7466 130.46Z" fill="#D8BFB4"/>
<path d="M81.7264 132.881L81.4093 135.623L84.1459 135.941L84.463 133.199L81.7264 132.881Z" fill="#D8BFB4"/>
<path d="M84.4646 133.168L84.1475 135.91L86.8841 136.228L87.2012 133.486L84.4646 133.168Z" fill="white"/>
<path d="M87.4808 130.782L87.1637 133.524L89.9003 133.842L90.2174 131.1L87.4808 130.782Z" fill="#71495A"/>
<path d="M90.219 131.07L89.9019 133.812L92.6385 134.129L92.9556 131.387L90.219 131.07Z" fill="#D8BFB4"/>
<path d="M87.1633 133.488L86.8462 136.229L89.5828 136.547L89.8999 133.805L87.1633 133.488Z" fill="#D8BFB4"/>
<path d="M89.8967 133.809L89.5797 136.551L92.3163 136.868L92.6333 134.127L89.8967 133.809Z" fill="white"/>
<path d="M92.6206 134.158L95.0129 134.449L95.2304 132.597C95.2666 132.379 95.3754 132.161 95.5566 132.016C95.4841 131.907 95.4116 131.834 95.3029 131.725L92.9468 131.435L92.6206 134.158Z" fill="#71495A"/>
<path d="M92.6207 134.158L92.2945 136.882L94.6868 137.136L94.9405 134.885L95.013 134.412L92.6207 134.158Z" fill="#D8BFB4"/>
<path d="M101.574 133.287L101.356 135.139L103.495 135.393L103.821 132.669L101.537 132.415C101.465 132.488 101.393 132.524 101.32 132.597C101.501 132.742 101.61 133.032 101.574 133.287Z" fill="#D8BFB4"/>
<path d="M101.356 135.176L101.32 135.612L101.03 137.9L103.205 138.154L103.495 135.394L101.356 135.176Z" fill="white"/>
<path d="M103.817 132.676L103.5 135.418L106.237 135.736L106.554 132.994L103.817 132.676Z" fill="#71495A"/>
<path d="M106.556 132.962L106.239 135.704L108.975 136.022L109.293 133.28L106.556 132.962Z" fill="#D8BFB4"/>
<path d="M103.5 135.38L103.183 138.122L105.92 138.44L106.237 135.698L103.5 135.38Z" fill="#D8BFB4"/>
<path d="M106.234 135.701L105.917 138.443L108.653 138.761L108.97 136.019L106.234 135.701Z" fill="white"/>
<path d="M109.29 133.284L108.973 136.026L111.709 136.344L112.026 133.602L109.29 133.284Z" fill="#71495A"/>
<path d="M111.988 133.604L111.671 136.346L114.407 136.663L114.724 133.921L111.988 133.604Z" fill="#D8BFB4"/>
<path d="M108.968 136.025L108.651 138.767L111.387 139.084L111.704 136.342L108.968 136.025Z" fill="#D8BFB4"/>
<path d="M111.702 136.347L111.385 139.089L114.121 139.407L114.439 136.665L111.702 136.347Z" fill="white"/>
<path d="M114.722 133.926L114.405 136.668L117.142 136.986L117.459 134.244L114.722 133.926Z" fill="#71495A"/>
<path d="M117.456 134.249L117.139 136.991L119.876 137.309L120.193 134.567L117.456 134.249Z" fill="#D8BFB4"/>
<path d="M114.4 136.665L114.083 139.407L116.819 139.725L117.137 136.983L114.4 136.665Z" fill="#D8BFB4"/>
<path d="M117.134 136.989L116.817 139.73L119.553 140.048L119.87 137.306L117.134 136.989Z" fill="white"/>
<path d="M120.19 134.572L119.873 137.313L122.61 137.631L122.927 134.889L120.19 134.572Z" fill="#71495A"/>
<path d="M122.888 134.891L122.571 137.633L125.308 137.951L125.625 135.209L122.888 134.891Z" fill="#D8BFB4"/>
<path d="M119.872 137.276L119.555 140.018L122.292 140.335L122.609 137.593L119.872 137.276Z" fill="#D8BFB4"/>
<path d="M122.57 137.594L122.253 140.336L124.99 140.654L125.307 137.912L122.57 137.594Z" fill="white"/>
<path d="M125.626 135.177L125.309 137.919L128.046 138.237L128.363 135.495L125.626 135.177Z" fill="#71495A"/>
<path d="M128.361 135.5L128.044 138.242L130.78 138.56L131.097 135.818L128.361 135.5Z" fill="#D8BFB4"/>
<path d="M125.304 137.916L124.987 140.658L127.724 140.976L128.041 138.234L125.304 137.916Z" fill="#D8BFB4"/>
<path d="M128.039 138.24L127.722 140.981L130.458 141.299L130.775 138.557L128.039 138.24Z" fill="white"/>
<path d="M131.059 135.819L130.742 138.561L133.479 138.878L133.796 136.136L131.059 135.819Z" fill="#71495A"/>
<path d="M133.471 138.88L134.196 138.953C134.305 138.008 134.414 137.101 134.486 136.229L133.797 136.156L133.471 138.88Z" fill="#D8BFB4"/>
<path d="M130.774 138.564L130.457 141.306L133.193 141.623L133.51 138.881L130.774 138.564Z" fill="#D8BFB4"/>
<path d="M133.145 141.604L133.87 141.676C133.978 140.914 134.051 140.151 134.16 139.352C134.16 139.207 134.196 139.098 134.196 138.953L133.471 138.88L133.145 141.604Z" fill="white"/>
<path d="M62.3182 133.396L61.6658 133.323C61.557 134.267 61.5208 135.175 61.4483 136.083L61.992 136.156L62.3182 133.396Z" fill="#71495A"/>
<path d="M62.3374 133.369L62.0203 136.111L64.7569 136.429L65.074 133.687L62.3374 133.369Z" fill="#D8BFB4"/>
<path d="M62.0281 136.12L61.4844 136.047C61.4482 137.027 61.4119 137.935 61.4119 138.807L61.7019 138.843L62.0281 136.12Z" fill="#D8BFB4"/>
<path d="M62.0151 136.108L61.6981 138.85L64.4346 139.167L64.7517 136.425L62.0151 136.108Z" fill="white"/>
<path d="M65.0715 133.692L64.7545 136.434L67.491 136.751L67.8081 134.009L65.0715 133.692Z" fill="#71495A"/>
<path d="M67.7693 134.01L67.4522 136.752L70.1888 137.07L70.5059 134.328L67.7693 134.01Z" fill="#D8BFB4"/>
<path d="M64.7493 136.431L64.4322 139.173L67.1688 139.491L67.4859 136.749L64.7493 136.431Z" fill="#D8BFB4"/>
<path d="M67.4832 136.753L67.1661 139.495L69.9027 139.813L70.2197 137.071L67.4832 136.753Z" fill="white"/>
<path d="M70.5037 134.333L70.1866 137.075L72.9232 137.393L73.2403 134.651L70.5037 134.333Z" fill="#71495A"/>
<path d="M73.2378 134.657L72.9207 137.398L75.6573 137.716L75.9744 134.974L73.2378 134.657Z" fill="#D8BFB4"/>
<path d="M70.1818 137.075L69.8647 139.816L72.6013 140.134L72.9184 137.392L70.1818 137.075Z" fill="#D8BFB4"/>
<path d="M72.9196 137.36L72.6025 140.102L75.3391 140.419L75.6562 137.677L72.9196 137.36Z" fill="white"/>
<path d="M75.9717 134.979L75.6547 137.721L78.3913 138.038L78.7083 135.296L75.9717 134.979Z" fill="#71495A"/>
<path d="M78.674 135.261L78.3569 138.003L81.0935 138.321L81.4106 135.579L78.674 135.261Z" fill="#D8BFB4"/>
<path d="M75.654 137.682L75.3369 140.424L78.0735 140.742L78.3906 138L75.654 137.682Z" fill="#D8BFB4"/>
<path d="M78.352 138.001L78.0349 140.743L80.7715 141.061L81.0886 138.319L78.352 138.001Z" fill="white"/>
<path d="M81.4084 135.584L81.0914 138.326L83.828 138.644L84.145 135.902L81.4084 135.584Z" fill="#71495A"/>
<path d="M84.1426 135.907L83.8255 138.648L86.5621 138.966L86.8792 136.224L84.1426 135.907Z" fill="#D8BFB4"/>
<path d="M81.0861 138.324L80.769 141.065L83.5056 141.383L83.8227 138.641L81.0861 138.324Z" fill="#D8BFB4"/>
<path d="M83.8201 138.646L83.503 141.388L86.2396 141.705L86.5567 138.963L83.8201 138.646Z" fill="white"/>
<path d="M86.8403 136.225L86.5233 138.967L89.2599 139.284L89.5769 136.543L86.8403 136.225Z" fill="#71495A"/>
<path d="M89.5747 136.549L89.2576 139.291L91.9942 139.609L92.3113 136.867L89.5747 136.549Z" fill="#D8BFB4"/>
<path d="M86.5313 138.952L86.2051 141.676L88.3074 141.93C88.5249 141.821 88.7786 141.676 88.9961 141.567L89.2498 139.279L86.5313 138.952Z" fill="#D8BFB4"/>
<path d="M89.2498 139.279L88.9961 141.567C90.1198 140.95 91.0984 140.332 91.9684 139.788L92.0046 139.606L89.2498 139.279Z" fill="white"/>
<path d="M94.6869 137.174L92.2945 136.847L91.9683 139.57L92.1858 139.607C93.2732 138.88 94.1431 138.227 94.7956 137.718C94.7231 137.573 94.6506 137.391 94.6869 137.174Z" fill="#71495A"/>
<path d="M91.9683 139.788C92.0408 139.752 92.1496 139.679 92.222 139.643L92.0046 139.606L91.9683 139.788Z" fill="#D8BFB4"/>
<path d="M103.205 138.154L101.066 137.899V137.936C101.03 138.19 100.885 138.408 100.704 138.553C101.211 139.171 101.864 139.97 102.734 140.877L102.879 140.914L103.205 138.154Z" fill="#D8BFB4"/>
<path d="M102.697 140.841C102.734 140.877 102.806 140.95 102.842 140.986V140.841H102.697Z" fill="white"/>
<path d="M103.213 138.122L102.896 140.864L105.633 141.182L105.95 138.44L103.213 138.122Z" fill="#71495A"/>
<path d="M105.911 138.441L105.594 141.183L108.331 141.5L108.648 138.758L105.911 138.441Z" fill="#D8BFB4"/>
<path d="M102.879 140.877V141.022C103.567 141.749 104.401 142.584 105.343 143.455L105.597 141.204L102.879 140.877Z" fill="#D8BFB4"/>
<path d="M108.316 141.495L105.597 141.168L105.343 143.42C105.561 143.601 105.778 143.783 105.996 144.001L108.026 144.219L108.316 141.495Z" fill="white"/>
<path d="M108.646 138.764L108.329 141.506L111.066 141.824L111.383 139.082L108.646 138.764Z" fill="#71495A"/>
<path d="M111.38 139.086L111.063 141.828L113.799 142.146L114.116 139.404L111.38 139.086Z" fill="#D8BFB4"/>
<path d="M108.328 141.467L108.01 144.209L110.747 144.527L111.064 141.785L108.328 141.467Z" fill="#D8BFB4"/>
<path d="M111.062 141.79L110.745 144.532L113.481 144.85L113.798 142.108L111.062 141.79Z" fill="white"/>
<path d="M114.082 139.369L113.765 142.111L116.501 142.429L116.819 139.687L114.082 139.369Z" fill="#71495A"/>
<path d="M116.816 139.692L116.499 142.434L119.236 142.751L119.553 140.009L116.816 139.692Z" fill="#D8BFB4"/>
<path d="M113.796 142.113L113.479 144.854L116.215 145.172L116.532 142.43L113.796 142.113Z" fill="#D8BFB4"/>
<path d="M116.494 142.431L116.177 145.173L118.913 145.491L119.23 142.749L116.494 142.431Z" fill="white"/>
<path d="M119.55 140.015L119.233 142.757L121.97 143.075L122.287 140.333L119.55 140.015Z" fill="#71495A"/>
<path d="M122.284 140.338L121.967 143.08L124.704 143.398L125.021 140.656L122.284 140.338Z" fill="#D8BFB4"/>
<path d="M119.228 142.754L118.911 145.496L121.648 145.814L121.965 143.072L119.228 142.754Z" fill="#D8BFB4"/>
<path d="M121.962 143.076L121.645 145.818L124.381 146.136L124.699 143.394L121.962 143.076Z" fill="white"/>
<path d="M124.982 140.657L124.665 143.398L127.401 143.716L127.719 140.974L124.982 140.657Z" fill="#71495A"/>
<path d="M127.717 140.981L127.4 143.723L130.137 144.04L130.454 141.298L127.717 140.981Z" fill="#D8BFB4"/>
<path d="M124.66 143.396L124.343 146.138L127.08 146.455L127.397 143.713L124.66 143.396Z" fill="#D8BFB4"/>
<path d="M127.399 143.683L127.082 146.425L129.818 146.742L130.135 144.001L127.399 143.683Z" fill="white"/>
<path d="M130.45 141.302L130.133 144.044L132.87 144.362L133.187 141.62L130.45 141.302Z" fill="#71495A"/>
<path d="M132.855 144.327L133.471 144.4C133.616 143.528 133.761 142.62 133.906 141.676L133.181 141.604L132.855 144.327Z" fill="#D8BFB4"/>
<path d="M130.133 144.005L129.815 146.747L132.552 147.065L132.869 144.323L130.133 144.005Z" fill="#D8BFB4"/>
<path d="M132.529 147.087L132.891 147.123C133.072 146.288 133.254 145.38 133.435 144.436L132.819 144.363L132.529 147.087Z" fill="white"/>
<path d="M61.3758 138.808C61.3758 139.679 61.3758 140.478 61.412 141.205L61.702 138.844L61.3758 138.808Z" fill="#71495A"/>
<path d="M64.4204 139.171L61.7019 138.844L61.4119 141.204C61.4119 141.313 61.4119 141.459 61.4119 141.568L64.0942 141.894L64.4204 139.171Z" fill="#D8BFB4"/>
<path d="M64.0942 141.894L61.4119 141.567C61.4482 142.584 61.5207 143.529 61.6294 144.364L63.768 144.618L64.0942 141.894Z" fill="white"/>
<path d="M64.4272 139.17L64.1102 141.912L66.8468 142.23L67.1638 139.488L64.4272 139.17Z" fill="#71495A"/>
<path d="M67.1655 139.457L66.8484 142.199L69.585 142.517L69.9021 139.775L67.1655 139.457Z" fill="#D8BFB4"/>
<path d="M64.1095 141.875L63.7924 144.617L66.529 144.935L66.8461 142.193L64.1095 141.875Z" fill="#D8BFB4"/>
<path d="M66.8432 142.197L66.5261 144.938L69.2627 145.256L69.5798 142.514L66.8432 142.197Z" fill="white"/>
<path d="M69.8635 139.776L69.5464 142.518L72.283 142.835L72.6001 140.093L69.8635 139.776Z" fill="#71495A"/>
<path d="M72.5976 140.099L72.2805 142.841L75.0171 143.159L75.3342 140.417L72.5976 140.099Z" fill="#D8BFB4"/>
<path d="M69.5773 142.52L69.2603 145.262L71.9969 145.579L72.3139 142.838L69.5773 142.52Z" fill="#D8BFB4"/>
<path d="M72.2753 142.838L71.9583 145.58L74.6948 145.898L75.0119 143.156L72.2753 142.838Z" fill="white"/>
<path d="M75.3317 140.421L75.0146 143.163L77.7513 143.481L78.0683 140.739L75.3317 140.421Z" fill="#71495A"/>
<path d="M78.0657 140.744L77.7486 143.486L80.4852 143.804L80.8023 141.062L78.0657 140.744Z" fill="#D8BFB4"/>
<path d="M75.0095 143.16L74.6924 145.902L77.429 146.22L77.7461 143.478L75.0095 143.16Z" fill="#D8BFB4"/>
<path d="M77.7232 143.492L77.397 146.216L77.9044 146.289C78.7019 146.034 79.4993 145.78 80.2605 145.49L80.4417 143.819L77.7232 143.492Z" fill="white"/>
<path d="M80.7639 141.063L80.4468 143.805L83.1834 144.122L83.5004 141.38L80.7639 141.063Z" fill="#71495A"/>
<path d="M83.4865 141.386L83.1603 144.11L83.6315 144.146C84.4652 143.783 85.2989 143.42 86.06 143.056L86.205 141.676L83.4865 141.386Z" fill="#D8BFB4"/>
<path d="M80.4416 143.783L80.2603 145.454C81.2752 145.091 82.2177 144.727 83.1601 144.328L83.1963 144.074L80.4416 143.783Z" fill="#D8BFB4"/>
<path d="M83.1603 144.364C83.3415 144.291 83.4865 144.218 83.6677 144.146L83.1965 144.109L83.1603 144.364Z" fill="white"/>
<path d="M86.06 143.093C86.8574 142.693 87.6186 142.33 88.3073 141.967L86.205 141.713L86.06 143.093Z" fill="#71495A"/>
<path d="M105.996 144.001C106.576 144.509 107.192 145.054 107.881 145.563L108.026 144.219L105.996 144.001Z" fill="#D8BFB4"/>
<path d="M110.744 144.546L108.026 144.219L107.881 145.562C108.569 146.107 109.258 146.652 110.055 147.233L110.454 147.269L110.744 144.546Z" fill="#71495A"/>
<path d="M110.739 144.53L110.422 147.271L113.159 147.589L113.476 144.847L110.739 144.53Z" fill="#D8BFB4"/>
<path d="M110.019 147.232C110.128 147.305 110.273 147.414 110.382 147.487L110.418 147.269L110.019 147.232Z" fill="#D8BFB4"/>
<path d="M110.418 147.27L110.382 147.487C111.179 148.069 112.049 148.65 112.955 149.231L113.136 147.596L110.418 147.27Z" fill="white"/>
<path d="M113.473 144.852L113.156 147.594L115.893 147.911L116.21 145.17L113.473 144.852Z" fill="#71495A"/>
<path d="M116.171 145.17L115.854 147.912L118.591 148.23L118.908 145.488L116.171 145.17Z" fill="#D8BFB4"/>
<path d="M115.855 147.886L113.136 147.56L112.955 149.194C113.644 149.63 114.369 150.102 115.13 150.538L115.565 150.574L115.855 147.886Z" fill="#D8BFB4"/>
<path d="M115.89 147.878L115.573 150.62L118.309 150.938L118.626 148.196L115.89 147.878Z" fill="white"/>
<path d="M118.906 145.493L118.589 148.235L121.325 148.553L121.642 145.811L118.906 145.493Z" fill="#71495A"/>
<path d="M121.644 145.781L121.327 148.522L124.063 148.84L124.381 146.098L121.644 145.781Z" fill="#D8BFB4"/>
<path d="M118.579 148.187L118.262 150.929L120.999 151.246L121.315 148.504L118.579 148.187Z" fill="#D8BFB4"/>
<path d="M121.322 148.52L121.005 151.262L123.741 151.579L124.058 148.838L121.322 148.52Z" fill="white"/>
<path d="M124.378 146.103L124.061 148.845L126.797 149.162L127.115 146.42L124.378 146.103Z" fill="#71495A"/>
<path d="M127.076 146.421L126.759 149.163L129.496 149.481L129.813 146.739L127.076 146.421Z" fill="#D8BFB4"/>
<path d="M124.056 148.842L123.739 151.584L126.475 151.902L126.792 149.16L124.056 148.842Z" fill="#D8BFB4"/>
<path d="M126.755 149.162L126.437 151.904L129.174 152.222L129.491 149.48L126.755 149.162Z" fill="white"/>
<path d="M129.81 146.744L129.493 149.486L132.23 149.804L132.547 147.062L129.81 146.744Z" fill="#71495A"/>
<path d="M132.203 149.812C132.456 148.976 132.674 148.105 132.891 147.124L132.529 147.088L132.203 149.812Z" fill="#D8BFB4"/>
<path d="M129.484 149.484L129.158 152.208L131.369 152.462C131.623 151.7 131.912 150.828 132.166 149.884V149.775L129.484 149.484Z" fill="#D8BFB4"/>
<path d="M132.203 149.885C132.203 149.849 132.203 149.812 132.239 149.775L132.203 149.885Z" fill="white"/>
<path d="M63.8043 144.618L61.6657 144.363C61.702 144.618 61.702 144.872 61.7382 145.09C61.8469 145.925 62.1732 146.651 62.6444 147.232L63.4781 147.341L63.8043 144.618Z" fill="#D8BFB4"/>
<path d="M62.6443 147.27C62.8618 147.56 63.1156 147.814 63.4055 148.032L63.478 147.378L62.6443 147.27Z" fill="white"/>
<path d="M63.787 144.614L63.4699 147.355L66.2065 147.673L66.5236 144.931L63.787 144.614Z" fill="#71495A"/>
<path d="M66.5209 144.936L66.2039 147.678L68.9405 147.995L69.2575 145.254L66.5209 144.936Z" fill="#D8BFB4"/>
<path d="M63.4781 147.342L63.4056 147.996C64.1668 148.54 65.0729 148.867 66.0516 148.831L66.1966 147.669L63.4781 147.342Z" fill="#D8BFB4"/>
<path d="M66.1967 147.669L66.0517 148.831C66.2329 148.831 66.3779 148.831 66.5592 148.795C67.3566 148.686 68.1178 148.541 68.879 148.432L68.9152 147.996L66.1967 147.669Z" fill="white"/>
<path d="M69.2413 145.271L68.915 147.995L70.4012 148.177C70.8361 148.104 71.2711 147.995 71.7061 147.923L71.9598 145.598L69.2413 145.271Z" fill="#71495A"/>
<path d="M71.96 145.562L71.7062 147.887C72.6849 147.669 73.6273 147.451 74.5335 147.233L74.6785 145.889L71.96 145.562Z" fill="#D8BFB4"/>
<path d="M68.8788 148.431C69.3863 148.358 69.8938 148.25 70.4012 148.141L68.9151 147.959L68.8788 148.431Z" fill="#D8BFB4"/>
<path d="M74.6784 145.89L74.5334 147.233C75.5121 146.979 76.4545 146.725 77.397 146.434L77.4332 146.217L74.6784 145.89Z" fill="#71495A"/>
<path d="M77.397 146.434C77.5782 146.397 77.7232 146.325 77.9044 146.288L77.397 146.216V146.434Z" fill="#D8BFB4"/>
<path d="M115.13 150.574C115.275 150.647 115.384 150.719 115.529 150.828L115.565 150.647L115.13 150.574Z" fill="#71495A"/>
<path d="M115.565 150.646L115.529 150.828C116.362 151.3 117.232 151.809 118.139 152.281L118.284 150.973L115.565 150.646Z" fill="#D8BFB4"/>
<path d="M118.284 150.938L118.139 152.245C118.972 152.681 119.842 153.117 120.748 153.552L121.002 151.264L118.284 150.938Z" fill="#71495A"/>
<path d="M123.721 151.592L121.002 151.265L120.748 153.553C121.147 153.734 121.582 153.952 122.017 154.134L123.431 154.279L123.721 151.592Z" fill="#D8BFB4"/>
<path d="M123.394 154.315L121.981 154.17C122.416 154.388 122.887 154.569 123.322 154.751L123.394 154.315Z" fill="white"/>
<path d="M123.734 151.582L123.417 154.324L126.153 154.642L126.47 151.9L123.734 151.582Z" fill="#71495A"/>
<path d="M126.472 151.868L126.155 154.61L128.892 154.928L129.209 152.186L126.472 151.868Z" fill="#D8BFB4"/>
<path d="M123.394 154.315L123.358 154.751C124.083 155.078 124.808 155.369 125.605 155.659C125.75 155.696 125.859 155.768 126.004 155.804L126.149 154.642L123.394 154.315Z" fill="#D8BFB4"/>
<path d="M126.113 154.642L125.968 155.804C126.91 156.058 127.889 155.985 128.759 155.622L128.832 154.932L126.113 154.642Z" fill="white"/>
<path d="M128.868 154.932L129.774 155.041C130.39 154.569 130.861 153.951 131.151 153.152C131.224 152.934 131.333 152.68 131.405 152.462L129.194 152.208L128.868 154.932Z" fill="#71495A"/>
<path d="M128.759 155.623C129.122 155.477 129.448 155.296 129.738 155.042L128.832 154.933L128.759 155.623Z" fill="#D8BFB4"/>
<path d="M98.1303 135.248L101.32 135.612L101.356 135.176L101.574 133.324C101.61 133.033 101.501 132.779 101.32 132.597C101.175 132.452 100.994 132.379 100.813 132.343L98.4928 132.089L98.1303 135.248Z" fill="#71495A"/>
<path d="M101.03 137.936L101.284 135.611L98.0939 135.248L97.7314 138.444L100.051 138.698C100.269 138.735 100.486 138.662 100.667 138.517C100.885 138.371 101.03 138.19 101.03 137.936Z" fill="#D8BFB4"/>
<path d="M95.2305 132.561L95.0131 134.413L94.9768 134.849L98.1665 135.212L98.529 132.016L96.2092 131.762C95.9555 131.726 95.738 131.798 95.5568 131.98C95.3755 132.125 95.2305 132.343 95.2305 132.561Z" fill="#D8BFB4"/>
<path d="M98.1301 135.248L94.9404 134.885L94.6867 137.173V137.209C94.6504 137.427 94.7229 137.609 94.8317 137.79C94.9766 138.008 95.1941 138.153 95.4841 138.19L97.8039 138.444L98.1301 135.248Z" fill="white"/>
<path d="M71.4161 219.759C66.0153 224.117 59.5271 228.403 52.4589 231.127C48.073 232.834 43.4334 233.887 38.7576 233.996C36.0028 234.032 33.3568 233.923 30.8557 233.596C46.2607 233.814 54.9237 225.97 59.0197 220.667C54.9237 219.832 51.879 216.709 51.879 212.968C51.879 208.61 56.0112 205.051 61.122 205.051C66.2328 205.051 70.365 208.61 70.365 212.968C70.365 214.566 69.8213 216.055 68.8426 217.29C68.9513 217.399 69.0963 217.544 69.2051 217.653C69.9663 218.379 70.6912 219.069 71.4161 219.759Z" fill="#945339"/>
<path d="M156.633 168.987C156.524 169.532 156.379 170.077 156.234 170.622C152.102 186.202 136.842 203.344 115.819 216.999C106.721 222.919 96.4991 228.148 85.6613 232.325C85.6613 232.325 76.817 225.316 66.2329 214.711C65.0367 213.549 63.8406 212.314 62.6444 211.043C53.2202 201.237 43.071 189.107 36.764 176.832L39.3738 176.069L44.2309 174.326C44.2309 174.326 44.1947 174.326 44.1584 174.29C44.0497 174.253 43.796 174.181 43.4335 174.035C43.4335 174.035 43.3972 174.035 43.3972 173.999C41.2587 173.236 39.3738 172.401 37.6702 171.493C37.344 171.312 37.054 171.166 36.764 170.985C35.8579 170.44 35.0242 169.895 34.263 169.351C33.8643 169.06 33.4656 168.733 33.1031 168.406C32.7406 167.353 32.3781 166.3 32.0882 165.247C31.472 163.14 31.0733 161.07 30.8195 159.036C30.5658 156.966 30.4933 154.933 30.6383 152.935C30.8558 149.812 31.5807 146.834 32.9219 143.965C33.0306 143.747 33.1031 143.565 33.2118 143.347C33.3206 143.129 33.4293 142.948 33.538 142.73C33.6468 142.548 33.7555 142.33 33.8643 142.112C33.973 141.931 34.0818 141.713 34.2267 141.531C34.3355 141.35 34.4442 141.168 34.5892 140.95C34.7342 140.732 34.8792 140.551 34.9879 140.333C35.0604 140.188 35.1692 140.079 35.2779 139.933C35.4954 139.643 35.6766 139.352 35.9304 139.062C36.0028 138.953 36.0753 138.88 36.1478 138.771L36.1841 138.735C36.2928 138.59 36.4378 138.444 36.5466 138.299C36.7278 138.081 36.909 137.863 37.0903 137.682C37.0903 137.682 37.0903 137.682 37.0903 137.645C37.2715 137.464 37.4527 137.246 37.634 137.028C37.779 136.846 37.9602 136.701 38.1414 136.52C38.1777 136.483 38.2139 136.447 38.2502 136.411C38.3589 136.302 38.4676 136.193 38.6126 136.084C38.6489 136.047 38.6851 136.011 38.6851 136.011C38.8301 135.866 38.9389 135.757 39.0838 135.612C39.1201 135.575 39.1563 135.539 39.1926 135.503C39.5913 135.103 40.0263 134.74 40.4975 134.341C40.7875 134.123 41.0774 133.868 41.3674 133.651C41.6574 133.433 41.9474 133.178 42.2736 132.96C42.4186 132.852 42.5636 132.743 42.7448 132.634C43.071 132.416 43.361 132.198 43.6872 131.98C44.3397 131.544 44.9921 131.108 45.6446 130.709C45.8258 130.6 46.007 130.491 46.1883 130.382C46.442 130.237 46.6957 130.091 46.9494 129.946C47.1307 129.837 47.3119 129.728 47.4932 129.656C47.7106 129.547 47.8919 129.438 48.1094 129.329C49.8855 128.348 51.5891 127.586 53.2564 126.932C53.4739 126.859 53.6914 126.75 53.9089 126.678C54.3438 126.532 54.7788 126.387 55.1775 126.242C55.395 126.169 55.5762 126.096 55.7937 126.06C56.0112 125.988 56.2287 125.951 56.4099 125.879C56.8086 125.77 57.2073 125.661 57.6061 125.588C57.6423 125.588 57.6786 125.552 57.7511 125.552C57.9323 125.515 58.1135 125.479 58.2948 125.443C58.476 125.406 58.6572 125.37 58.8385 125.334C59.6359 125.189 60.3971 125.043 61.1945 124.971C61.3033 124.971 61.412 124.934 61.5207 124.934C61.6295 124.934 61.7382 124.898 61.847 124.898C61.992 124.898 62.1007 124.862 62.2457 124.862C62.2457 124.862 62.2457 124.862 62.2819 124.862C62.4269 124.862 62.5719 124.825 62.7169 124.825C63.0069 124.825 63.2968 124.789 63.5868 124.789C63.7681 124.789 63.9493 124.789 64.1305 124.789C72.5398 124.789 79.2093 128.893 84.2114 133.868C84.3201 133.977 84.3926 134.05 84.5014 134.159C84.6826 134.341 84.9001 134.558 85.0813 134.74C92.0407 142.112 95.4842 150.901 95.6292 151.228C95.8467 151.01 102.661 144.219 112.339 139.607C117.957 136.919 124.518 134.994 131.26 135.539C135.9 135.902 140.612 137.391 145.215 140.623C145.36 140.732 145.505 140.805 145.65 140.914C147.136 142.004 148.622 143.275 150.108 144.727C151.232 145.853 152.211 147.052 153.081 148.25C157.249 154.388 158.264 161.506 156.633 168.987Z" fill="#E76C6E"/>
<path d="M156.633 168.987C156.524 169.532 156.379 170.077 156.234 170.621C152.102 186.202 136.842 203.343 115.819 216.999C106.721 222.919 96.4991 228.148 85.6613 232.325C94.8317 225.207 111.832 204.179 115.529 180.318C119.226 156.458 95.4842 151.228 95.4842 151.228C95.7017 151.01 102.516 144.219 112.194 139.606C117.812 136.919 124.373 134.994 131.115 135.539C135.9 135.902 140.757 137.5 145.469 140.914C146.955 142.003 148.441 143.274 149.927 144.727C151.051 145.853 152.03 147.051 152.899 148.25C157.249 154.388 158.264 161.506 156.633 168.987Z" fill="#ED6F71"/>
<path d="M95.4841 151.227C95.1941 150.683 85.8061 133.831 65.3991 130.962C49.7041 128.783 38.6488 135.393 32.8855 143.964C34.9153 139.57 38.395 135.538 43.6146 131.979C78.6292 108.264 95.1941 150.465 95.4841 151.227Z" fill="#F87B7D"/>
<path d="M156.633 168.988C156.488 168.988 156.379 169.024 156.234 169.024C150.181 169.714 138.219 168.661 130.39 159.291C120.495 147.451 123.539 136.883 123.539 136.883L131.151 135.503C135.936 135.866 140.793 137.464 145.505 140.878L150.181 145.527L152.936 148.25C157.249 154.388 158.264 161.506 156.633 168.988Z" fill="#D16E70"/>
<path d="M65.3629 183.441C67.7189 187.945 69.0238 196.116 69.0238 201.528C69.0238 206.212 68.0089 210.68 66.1965 214.747C65.6891 214.239 65.1816 213.73 64.7104 213.222C52.6039 200.946 38.6851 184.386 33.0668 168.479C33.7192 168.442 34.3717 168.406 35.0241 168.406C38.2138 168.406 41.2948 168.842 44.2309 169.641L66.3053 159.799L82.109 147.306C82.1452 147.306 93.3093 171.602 65.3629 183.441Z" fill="#C45D69"/>
<path d="M156.234 170.658C156.162 170.912 156.089 171.13 156.017 171.384C151.703 186.383 137.241 202.762 117.305 215.982C116.797 216.309 116.29 216.636 115.783 216.999C113.535 212.568 112.267 207.593 112.267 202.327C112.267 184.059 127.49 169.205 146.266 169.205C149.782 169.205 153.117 169.714 156.234 170.658Z" fill="#D16E70"/>
<path d="M156.053 171.385C151.74 186.384 137.277 202.763 117.341 215.983C115.782 212.205 114.514 208.138 114.369 203.816C113.716 180.391 130.136 170.622 148.912 170.622C151.377 170.658 153.769 170.913 156.053 171.385Z" fill="#B1505F"/>
<path d="M71.4161 219.759C66.0153 224.117 59.5271 228.402 52.4589 231.126C57.3885 228.657 64.058 224.371 69.2413 217.652C69.9662 218.379 70.6912 219.069 71.4161 219.759Z" fill="#AD6946"/>
<path d="M61.5571 179.773C61.5571 179.773 72.2862 194.99 64.7468 213.222C52.6403 200.946 38.7214 184.386 33.1031 168.479C33.7556 168.442 34.408 168.406 35.0605 168.406C38.2502 168.406 41.3312 168.842 44.2672 169.641L66.3417 159.799C74.8235 159.799 81.5292 159.908 81.5292 159.908L81.6742 165.501C81.6742 165.537 80.0793 176.396 61.5571 179.773Z" fill="#B1505F"/>
<path d="M83.0513 162.595C79.3904 176.178 63.2242 180.79 44.2308 174.362C44.2308 174.362 44.1945 174.362 44.1583 174.325C43.9045 174.253 43.6871 174.144 43.4333 174.071C43.4333 174.071 43.3971 174.071 43.3971 174.035C41.2585 173.272 39.3737 172.437 37.6701 171.529C37.3438 171.347 37.0539 171.202 36.7639 171.021C35.8577 170.476 35.024 169.931 34.2628 169.386C33.8641 169.096 33.4654 168.769 33.1029 168.442C32.7767 168.152 32.4505 167.897 32.1605 167.607C32.0518 167.498 31.943 167.389 31.8343 167.316C31.5081 167.026 31.2181 166.699 30.9644 166.372C30.6744 166.045 30.4206 165.718 30.1669 165.391C28.2458 162.885 27.1947 160.125 26.7597 157.184C26.7235 156.929 26.6872 156.675 26.651 156.421C26.5422 155.295 26.506 154.169 26.5422 153.007C26.5422 152.862 26.5422 152.68 26.5785 152.535C26.5785 152.39 26.5785 152.208 26.6147 152.063C26.6147 151.99 26.6147 151.918 26.651 151.809C26.651 151.627 26.6872 151.446 26.6872 151.264C26.6872 151.228 26.6872 151.191 26.6872 151.191C26.6872 151.01 26.7235 150.864 26.7597 150.683C26.7959 150.465 26.8322 150.247 26.8322 150.029C26.8322 149.92 26.8684 149.848 26.8684 149.739C26.9047 149.484 26.9409 149.23 26.9772 148.976C27.0134 148.685 27.0859 148.359 27.1584 148.068C27.2309 147.777 27.2672 147.487 27.3397 147.233C27.8109 145.163 28.4633 143.02 29.2245 140.877C29.5145 140.114 29.8045 139.388 30.1307 138.662C30.1307 138.662 30.6744 138.335 31.8705 137.826C32.3055 137.645 32.8854 137.427 33.5379 137.173C34.5528 136.81 35.7852 136.41 37.3076 136.011C37.4888 135.974 37.7063 135.902 37.8875 135.865C38.0688 135.829 38.2863 135.756 38.5037 135.72C38.6125 135.684 38.685 135.684 38.7937 135.647C38.9025 135.611 39.0112 135.611 39.1199 135.575C39.4462 135.502 39.7724 135.43 40.1348 135.321C40.3161 135.284 40.5336 135.248 40.7148 135.212C40.7511 135.212 40.8235 135.175 40.896 135.175C41.2223 135.103 41.5122 135.03 41.8385 134.994C41.8747 134.994 41.911 134.994 41.9472 134.994C42.2009 134.957 42.4547 134.885 42.6721 134.848C42.7446 134.848 42.7809 134.812 42.8534 134.812C42.9259 134.776 43.0346 134.776 43.1071 134.776C43.4333 134.703 43.7233 134.667 44.0495 134.594C44.412 134.522 44.8107 134.485 45.1732 134.413C45.3182 134.376 45.4632 134.376 45.6082 134.34C46.4056 134.231 47.203 134.086 48.073 133.977C49.1604 133.832 50.284 133.686 51.4439 133.577C51.6252 133.577 51.8064 133.541 51.9876 133.505C53.4375 133.359 54.9599 133.214 56.5548 133.142C56.736 133.142 56.9535 133.105 57.1709 133.105C57.3884 133.105 57.5697 133.069 57.7871 133.069C58.1859 133.033 58.6208 133.033 59.0558 132.996C59.7445 132.96 60.4332 132.96 61.0856 132.96C61.4481 132.96 61.7743 132.96 62.1005 132.96C62.4268 132.96 62.7892 132.996 63.1155 132.996C63.4054 132.996 63.7317 133.033 64.0216 133.069C64.0579 133.069 64.0941 133.069 64.0941 133.069C64.4204 133.105 64.7103 133.142 65.0365 133.178C65.3628 133.214 65.6527 133.25 65.9427 133.287C66.2327 133.323 66.5227 133.359 66.8127 133.432C66.8489 133.432 66.8489 133.432 66.8852 133.432C67.1751 133.505 67.4651 133.541 67.7188 133.614C68.0088 133.686 68.2988 133.759 68.5525 133.795C68.8062 133.868 69.0237 133.941 69.2775 133.977C69.3137 133.977 69.3499 134.013 69.3862 134.013C69.6399 134.086 69.9299 134.158 70.1836 134.267C71.2348 134.631 72.2135 135.03 73.1196 135.466C73.3371 135.575 73.5546 135.684 73.8083 135.829C74.0258 135.938 74.2433 136.083 74.4608 136.192C74.497 136.229 74.5333 136.229 74.5695 136.265C74.5695 136.265 74.5695 136.265 74.6058 136.265C74.7145 136.337 74.8232 136.374 74.8957 136.446C75.1857 136.628 75.4394 136.81 75.6932 136.991C75.8382 137.1 75.9832 137.173 76.0919 137.282C76.2006 137.354 76.3094 137.427 76.3819 137.5C76.6718 137.718 76.9618 137.972 77.2156 138.226C77.3243 138.335 77.4693 138.444 77.578 138.589C77.6505 138.662 77.723 138.698 77.7593 138.771C77.7955 138.807 77.868 138.843 77.9042 138.916C77.9767 138.989 78.0492 139.061 78.1217 139.134C78.2305 139.243 78.3392 139.352 78.4479 139.461C78.5567 139.57 78.6654 139.679 78.7379 139.788C78.8467 139.897 78.9554 140.006 79.0279 140.151C79.2091 140.369 79.3904 140.587 79.5354 140.805C79.5716 140.841 79.6079 140.877 79.6079 140.913C79.6804 141.022 79.7528 141.095 79.8253 141.204C80.0791 141.567 80.3328 141.967 80.5865 142.33C80.5865 142.33 80.5865 142.366 80.6228 142.366C80.7315 142.548 80.8765 142.766 80.9852 142.984C81.0215 143.02 81.0215 143.056 81.0215 143.056C81.094 143.165 81.1302 143.274 81.2027 143.383C81.3477 143.637 81.4565 143.891 81.6014 144.109C81.6739 144.218 81.7102 144.327 81.7464 144.436C81.8189 144.582 81.8914 144.727 81.9639 144.872C82.0364 145.054 82.1089 145.235 82.1814 145.417C82.2539 145.562 82.2901 145.671 82.3264 145.816C82.3264 145.853 82.3626 145.889 82.3626 145.925C82.3989 145.998 82.4351 146.107 82.4351 146.179C82.5076 146.325 82.5439 146.47 82.5801 146.615C82.6526 146.797 82.7251 147.015 82.7613 147.233C82.8338 147.451 82.9063 147.669 82.9426 147.886C82.9788 148.068 83.0513 148.25 83.0876 148.431C83.0876 148.431 83.0876 148.467 83.0876 148.504C83.1963 148.903 83.2688 149.303 83.3413 149.702C83.3775 149.884 83.4138 150.102 83.45 150.283C83.4863 150.501 83.5225 150.719 83.5588 150.973C83.595 151.155 83.595 151.337 83.6313 151.518C83.7038 151.954 83.74 152.353 83.74 152.789C83.74 152.898 83.74 153.043 83.7763 153.152C83.7763 153.298 83.8125 153.443 83.8125 153.552C83.8125 153.588 83.8125 153.661 83.8125 153.697C83.8125 153.842 83.8125 153.988 83.8125 154.097V154.133C84.1387 157.038 83.7763 159.871 83.0513 162.595Z" fill="#B6724D"/>
<path d="M83.0513 162.596C79.3904 176.179 63.2242 180.791 44.2308 174.363C44.2308 174.363 44.1945 174.363 44.1583 174.326C43.9045 174.254 43.6871 174.145 43.4333 174.072C43.4333 174.072 43.3971 174.072 43.3971 174.036C41.2585 173.273 39.3737 172.438 37.6701 171.53C37.3438 171.348 37.0539 171.203 36.7639 171.022C35.8577 170.477 35.024 169.932 34.2628 169.387C33.8641 169.097 33.4654 168.77 33.1029 168.443C32.7767 168.153 32.4505 167.898 32.1605 167.608C32.0518 167.499 31.943 167.39 31.8343 167.317C31.5081 167.027 31.2181 166.7 30.9644 166.373C30.6744 166.046 30.4206 165.719 30.1669 165.392C28.2458 162.887 27.1947 160.126 26.7597 157.185C26.7235 156.93 26.6872 156.676 26.651 156.422C26.5422 155.296 26.506 154.17 26.5422 153.008C26.5422 152.863 26.5422 152.681 26.5785 152.536C26.5785 152.391 26.5785 152.209 26.6147 152.064C26.6147 151.991 26.6147 151.919 26.651 151.81C26.651 151.628 26.6872 151.447 26.6872 151.265C26.6872 151.229 26.6872 151.192 26.6872 151.192C26.6872 151.011 26.7235 150.865 26.7597 150.684C26.7959 150.466 26.8322 150.248 26.8322 150.03C26.8322 149.921 26.8684 149.849 26.8684 149.74C26.9047 149.485 26.9409 149.231 26.9772 148.977C27.0134 148.686 27.0859 148.36 27.1584 148.069C27.2309 147.778 27.2672 147.488 27.3397 147.234C27.5934 148.033 27.9196 148.795 28.2821 149.522C28.8983 150.756 29.6957 151.919 30.5656 152.972C37.5251 161.071 51.8789 162.959 63.1517 158.528C67.9363 156.64 70.9448 153.371 72.7934 149.776C75.077 145.345 75.6207 140.406 75.6569 136.992C75.8019 137.101 75.9469 137.174 76.0556 137.283C76.1644 137.355 76.2731 137.428 76.3456 137.501C76.6356 137.719 76.9256 137.973 77.1793 138.227C77.288 138.336 77.433 138.445 77.5418 138.59C77.6143 138.663 77.6868 138.699 77.723 138.772C77.7593 138.808 77.8317 138.844 77.868 138.917C77.9405 138.99 78.013 139.062 78.0855 139.135C78.1942 139.244 78.303 139.353 78.4117 139.462C78.5204 139.571 78.6292 139.68 78.7017 139.789C78.8104 139.898 78.9192 140.007 78.9916 140.152C79.1729 140.37 79.3541 140.588 79.4991 140.806C79.5354 140.842 79.5716 140.878 79.5716 140.914C79.6441 141.023 79.7166 141.096 79.7891 141.205C80.0428 141.568 80.2965 141.968 80.5503 142.331C80.5503 142.331 80.5503 142.367 80.5865 142.367C80.6953 142.549 80.8403 142.767 80.949 142.985C80.9852 143.021 80.9852 143.057 80.9852 143.057C81.0577 143.166 81.094 143.275 81.1665 143.384C81.3115 143.638 81.4202 143.892 81.5652 144.11C81.6377 144.219 81.6739 144.328 81.7102 144.437C81.7827 144.583 81.8552 144.728 81.9277 144.873C82.0002 145.055 82.0727 145.236 82.1451 145.418C82.2176 145.563 82.2539 145.672 82.2901 145.817C82.2901 145.854 82.3264 145.89 82.3264 145.926C82.3626 145.999 82.3989 146.108 82.3989 146.18C82.4714 146.326 82.5076 146.471 82.5439 146.616C82.6164 146.798 82.6888 147.016 82.7251 147.234C82.7976 147.452 82.8701 147.67 82.9063 147.887C82.9426 148.069 83.0151 148.251 83.0513 148.432C83.0513 148.432 83.0513 148.468 83.0513 148.505C83.1601 148.904 83.2326 149.304 83.305 149.703C83.3413 149.885 83.3775 150.103 83.4138 150.284C83.45 150.502 83.4863 150.72 83.5225 150.974C83.5588 151.156 83.5588 151.338 83.595 151.519C83.6675 151.955 83.7038 152.354 83.7038 152.79C83.7038 152.899 83.7038 153.044 83.74 153.153C83.74 153.299 83.7763 153.444 83.7763 153.553C83.7763 153.589 83.7763 153.662 83.7763 153.698C83.7763 153.843 83.7763 153.989 83.7763 154.098V154.134C84.1387 157.039 83.7763 159.872 83.0513 162.596Z" fill="#945339"/>
<path d="M79.8255 152.535C77.4694 159.944 70.5825 167.316 52.9302 166.808C41.2224 166.445 34.553 163.14 30.7833 159.036C29.7684 157.947 28.9709 156.784 28.3185 155.586C27.5211 154.097 27.0136 152.608 26.6874 151.155C26.6874 150.974 26.7236 150.828 26.7599 150.647C26.7961 150.429 26.8324 150.211 26.8324 149.993C26.8324 149.884 26.8686 149.811 26.8686 149.703C26.9049 149.448 26.9411 149.194 26.9774 148.94C27.0136 148.649 27.0861 148.322 27.1586 148.032C27.2311 147.741 27.2673 147.451 27.3398 147.197C27.5936 147.996 27.9198 148.758 28.2822 149.485C28.8984 150.719 29.6959 151.882 30.5658 152.935C37.5252 161.034 51.8791 162.922 63.1519 158.491C67.9365 156.603 70.945 153.334 72.7936 149.739C75.0771 145.308 75.6208 140.369 75.6571 136.955C75.8021 137.064 75.9471 137.137 76.0558 137.246C76.1646 137.318 76.2733 137.391 76.3458 137.464C76.6358 137.681 76.9257 137.936 77.1795 138.19C77.2882 138.299 77.4332 138.408 77.5419 138.553C77.6144 138.626 77.6869 138.662 77.7232 138.735C77.7594 138.771 77.8319 138.807 77.8682 138.88C77.9407 138.953 78.0131 139.025 78.0856 139.098C78.1944 139.207 78.3031 139.316 78.4119 139.425C78.5206 139.534 78.6293 139.643 78.7018 139.752C78.8106 139.86 78.9193 139.969 78.9918 140.115C79.173 140.333 79.3543 140.551 79.4993 140.768C79.5355 140.805 79.5718 140.841 79.5718 140.877C79.6443 140.986 79.7168 141.059 79.7892 141.168C80.043 141.531 80.2967 141.931 80.5504 142.294C81.0579 145.09 81.0217 148.831 79.8255 152.535Z" fill="#AD6946"/>
<path d="M156.633 168.988C156.488 168.988 156.379 169.024 156.234 169.024C151.848 168.77 146.919 167.753 141.88 165.283C126.077 157.62 123.684 142.004 123.684 142.004L150.181 145.527L152.936 148.251C157.249 154.388 158.264 161.506 156.633 168.988Z" fill="#B1505F"/>
<path d="M181.716 198.986C181.933 217.508 170.805 231.127 151.051 233.596C127.925 233.923 119.915 215.983 119.915 215.983C119.842 215.91 118.936 214.639 117.994 212.314C117.16 210.353 116.326 207.593 115.964 204.179C115.782 202.4 115.71 200.439 115.855 198.296C116 196.044 116.362 193.647 117.051 191.032C120.821 176.578 134.703 167.245 149.311 166.954C150.435 166.918 151.595 166.954 152.718 167.063C156.887 167.39 160.874 168.552 164.462 170.441C168.014 172.293 171.204 174.871 173.85 177.922C178.635 183.515 181.607 190.851 181.716 198.986Z" fill="#B6724D"/>
<path d="M181.716 198.986C181.933 217.508 170.805 231.127 151.051 233.597C127.925 233.923 119.915 215.983 119.915 215.983C119.842 215.91 118.936 214.639 117.994 212.315C117.16 210.353 116.326 207.593 115.964 204.179C118.356 209.7 127.055 218.961 138.074 222.556C144.381 224.626 151.413 224.844 158.481 221.467C158.88 221.285 159.279 221.103 159.641 220.885C166.492 217.326 170.66 212.496 172.908 207.085C177.511 196.008 173.778 182.68 167.471 174C166.528 172.692 165.513 171.494 164.462 170.404C168.014 172.256 171.204 174.835 173.85 177.886C178.635 183.515 181.607 190.851 181.716 198.986Z" fill="#AD6946"/>
<path d="M149.601 177.377C158.409 177.377 166.094 182.098 170.262 189.18C170.552 189.689 170.842 190.233 171.132 190.742C171.966 193.284 172.4 195.971 172.4 198.768C172.4 212.895 160.946 224.372 146.846 224.372C144.309 224.372 141.844 224.009 139.524 223.319C131.514 219.614 125.859 211.588 125.569 202.218C125.569 201.964 125.569 201.71 125.569 201.455C125.569 188.163 136.335 177.377 149.601 177.377Z" fill="#ECD09C"/>
<path d="M125.569 202.219C125.859 211.588 131.478 219.615 139.524 223.319C142.605 224.735 146.013 225.534 149.601 225.534C162.868 225.534 173.633 214.748 173.633 201.456C173.633 197.606 172.727 193.975 171.132 190.742C170.878 190.198 170.588 189.689 170.262 189.181C171.386 196.844 171.096 211.443 154.059 216.382C138.944 220.777 128.687 210.753 125.569 202.219Z" fill="#DCBD8A"/>
<path d="M172.4 198.768C172.4 195.972 171.966 193.284 171.132 190.742C172.727 193.974 173.633 197.606 173.633 201.456C173.633 214.748 162.868 225.534 149.601 225.534C146.013 225.534 142.605 224.735 139.524 223.319C141.844 224.009 144.309 224.372 146.846 224.372C160.946 224.372 172.4 212.932 172.4 198.768Z" fill="#C59F6D"/>
<path d="M144.454 213.55C144.382 213.55 144.273 213.513 144.2 213.477C144.019 213.368 143.91 213.187 143.91 212.969L144.128 203.926L136.842 198.66C136.661 198.551 136.588 198.333 136.625 198.115C136.661 197.897 136.806 197.752 137.023 197.679L145.65 195.1L148.441 186.493C148.514 186.312 148.659 186.166 148.876 186.13C149.094 186.094 149.275 186.203 149.42 186.348L154.531 193.793H163.556C163.774 193.793 163.955 193.902 164.027 194.084C164.136 194.265 164.1 194.483 163.955 194.665L158.482 201.856L161.273 210.426C161.345 210.608 161.273 210.826 161.128 210.971C160.983 211.116 160.765 211.153 160.584 211.08L152.066 208.066L144.78 213.368C144.671 213.513 144.563 213.55 144.454 213.55ZM138.365 198.442L144.998 203.272C145.143 203.381 145.215 203.562 145.215 203.744L144.998 211.952L151.631 207.122C151.776 207.013 151.957 206.976 152.138 207.049L159.859 209.773L157.322 201.964C157.249 201.783 157.285 201.601 157.394 201.456L162.36 194.919H154.168C153.987 194.919 153.806 194.846 153.733 194.701L149.094 187.946L146.556 195.754C146.484 195.936 146.375 196.045 146.194 196.117L138.365 198.442Z" fill="#C59F6D"/>
<path d="M74.8959 136.447C67.574 131.399 33.5018 137.174 33.5018 137.174C37.5253 135.721 45.5358 133.615 59.0197 132.961C65.7979 132.598 71.0175 133.978 74.8959 136.447Z" fill="#D59A77"/>
<path d="M173.85 177.957C171.712 176.432 155.4 162.377 133.978 173.744C121.546 180.354 117.269 191.721 115.855 198.331C116 196.079 116.362 193.683 117.051 191.068C120.821 176.613 134.703 167.28 149.311 166.989C150.435 166.953 151.595 166.989 152.718 167.098C156.887 167.425 160.874 168.587 164.462 170.476C168.051 172.328 171.24 174.87 173.85 177.957Z" fill="#D59A77"/>
<path d="M43.3609 174.072C41.2224 173.309 39.3375 172.474 37.6339 171.566C37.3077 171.384 37.0177 171.239 36.7277 171.058C35.8216 170.513 34.9879 169.968 34.2267 169.423C33.828 169.133 33.4293 168.806 33.0668 168.479C32.7406 168.188 32.4143 167.934 32.1244 167.644C32.0156 167.535 31.9069 167.426 31.7981 167.353C31.4719 167.063 31.182 166.736 30.9282 166.409C30.6382 166.082 30.3845 165.755 30.1308 165.428C28.2097 162.922 27.1585 160.162 26.7236 157.221C26.6873 156.966 26.6511 156.712 26.6148 156.458C26.5061 155.332 26.4698 154.206 26.5061 153.044C26.5061 152.899 26.5061 152.717 26.5423 152.572C26.5423 152.427 26.5423 152.245 26.5786 152.1C26.5786 152.027 26.5786 151.955 26.6148 151.846C26.6148 151.664 26.6511 151.482 26.6511 151.301C26.6511 151.265 26.6511 151.228 26.6511 151.228C26.6511 151.047 26.6873 150.901 26.7236 150.72C26.7598 150.502 26.7961 150.284 26.7961 150.066C26.7961 149.957 26.8323 149.884 26.8323 149.775C26.8686 149.521 26.9048 149.267 26.9411 149.013C26.9773 148.722 27.0498 148.395 27.1223 148.105C27.1948 147.814 27.231 147.524 27.3035 147.27C27.7747 145.199 28.4272 143.057 29.1884 140.914C29.4783 140.151 29.7683 139.425 30.0945 138.699C31.1457 136.338 32.4506 134.268 33.828 132.452C35.7128 129.982 37.7789 127.949 39.7362 126.351C42.0923 124.39 44.2671 123.046 45.717 122.283C45.3183 122.574 38.7576 127.331 35.4953 131.762C35.4591 131.835 35.3866 131.907 35.3504 131.98C34.4079 133.287 33.103 135.357 31.8344 137.9C31.7257 138.118 31.6169 138.372 31.5082 138.59C30.0583 141.749 28.7172 145.526 28.2822 149.594C28.0647 151.591 28.0285 153.661 28.3184 155.695C28.3909 156.313 28.4997 156.93 28.6447 157.547C29.3334 160.671 30.5658 163.249 32.0519 165.356C35.8578 170.767 41.2949 173.273 43.3609 174.072Z" fill="#D59A77"/>
<path d="M66.0155 203.016C65.9792 203.416 65.943 203.815 65.9067 204.215C65.5442 207.628 64.6743 210.389 63.8769 212.35C62.9345 214.638 62.0283 215.909 61.9558 216.018C61.9558 216.018 53.9814 233.922 30.8196 233.632C11.1012 231.126 -0.0266088 217.507 0.190873 198.985C0.335861 186.383 7.40403 175.705 17.4082 170.476C18.3144 170.004 19.2206 169.568 20.163 169.205C22.9902 168.042 26.035 167.316 29.1522 167.098C30.2759 167.026 31.4358 166.989 32.5595 166.989C47.167 167.28 61.0496 176.613 64.8193 191.068C66.0155 195.607 66.2692 199.602 66.0155 203.016Z" fill="#B6724D"/>
<path d="M65.9428 204.214C65.5804 207.628 64.7104 210.388 63.913 212.35C62.9706 214.638 62.0644 215.909 61.9919 216.018C61.9919 216.018 54.0176 233.922 30.8557 233.632C11.1011 231.126 -0.0267309 217.507 0.190751 198.985C0.335739 186.383 7.40391 175.705 17.4081 170.476C5.84529 182.315 -0.969151 209.88 23.3888 221.502C42.8897 230.762 62.1731 212.858 65.9428 204.214Z" fill="#AD6946"/>
<path d="M32.3054 177.376C23.4974 177.376 15.813 182.097 11.6446 189.179C11.3546 189.688 11.0647 190.232 10.7747 190.741C9.94101 193.283 9.50604 195.97 9.50604 198.767C9.50604 212.894 20.9601 224.371 35.0602 224.371C37.5975 224.371 40.0623 224.008 42.3821 223.318C50.3927 219.613 56.0472 211.587 56.3372 202.217C56.3372 201.963 56.3372 201.709 56.3372 201.454C56.3372 188.162 45.5718 177.376 32.3054 177.376Z" fill="#ECD09C"/>
<path d="M29.1159 213.838C28.7534 213.838 28.4272 213.657 28.2097 213.366L19.4017 200.473C18.3143 198.875 17.8793 196.842 18.278 194.917C18.6405 193.028 19.7279 191.43 21.2865 190.377C24.4763 188.271 28.8622 189.106 31.037 192.302L32.6319 194.663L34.5892 193.355C36.2203 192.266 38.2139 191.903 40.135 192.302C42.0198 192.701 43.6147 193.791 44.6296 195.389C46.6957 198.621 45.7895 203.016 42.5998 205.122L29.7683 213.693C29.5509 213.802 29.3334 213.838 29.1159 213.838ZM29.1159 212.749L28.6809 213.039L29.1159 212.749ZM25.1287 190.341C24.0051 190.341 22.8452 190.668 21.8303 191.321C20.5254 192.193 19.6192 193.537 19.293 195.135C18.9667 196.769 19.3292 198.512 20.2716 199.856L29.1159 212.749L41.9473 204.178C44.6659 202.362 45.4271 198.658 43.6872 195.934C42.8173 194.59 41.4761 193.682 39.9175 193.355C38.2864 193.028 36.5465 193.355 35.2054 194.263L32.7769 195.861C32.5231 196.043 32.1969 195.97 32.0157 195.716L30.0946 192.919C28.9347 191.249 27.0498 190.341 25.1287 190.341Z" fill="#C59F6D"/>
<path d="M56.3374 202.217C56.0474 211.587 50.4292 219.613 42.3823 223.317C39.3013 224.733 35.8941 225.532 32.3056 225.532C19.0392 225.532 8.27386 214.746 8.27386 201.454C8.27386 197.604 9.18004 193.973 10.7749 190.74C11.0286 190.196 11.3186 189.687 11.6448 189.179C10.5212 196.842 10.8112 211.441 27.8473 216.38C42.9623 220.775 53.2202 210.751 56.3374 202.217Z" fill="#DCBD8A"/>
<path d="M9.50626 198.767C9.50626 195.971 9.94123 193.283 10.7749 190.741C9.18004 193.973 8.27386 197.605 8.27386 201.455C8.27386 214.747 19.0392 225.533 32.3056 225.533C35.8941 225.533 39.3013 224.734 42.3823 223.318C40.0625 224.008 37.5977 224.371 35.0604 224.371C20.9603 224.371 9.50626 212.931 9.50626 198.767Z" fill="#C59F6D"/>
<path d="M66.0517 202.908C65.653 196.77 63.1519 186.674 53.8365 177.74C41.73 166.191 25.9262 168.079 20.1992 169.169C23.0265 168.007 26.0712 167.171 29.1885 166.954C30.3121 166.881 31.472 166.808 32.5957 166.845C48.1094 167.389 61.7746 177.05 64.8556 190.923C65.8705 195.535 66.2692 199.494 66.0517 202.908Z" fill="#D59A77"/>
<path d="M46.1521 122.392L45.7896 122.174C45.0646 121.629 44.3759 121.085 43.6873 120.54C43.361 120.286 43.0348 120.031 42.7448 119.741C41.9111 119.051 41.1137 118.361 40.3163 117.634C40.1713 117.489 39.9901 117.344 39.8451 117.199C39.7001 117.053 39.5188 116.908 39.3739 116.763C38.9026 116.327 38.4677 115.855 37.9965 115.383C37.8515 115.237 37.7065 115.092 37.5615 114.947C37.5615 114.947 37.5615 114.911 37.5253 114.911C37.3803 114.765 37.2353 114.62 37.0903 114.475C34.9155 112.114 32.9944 109.572 31.327 106.848C31.2183 106.667 31.1095 106.485 31.0008 106.303C30.4571 105.359 29.9134 104.379 29.4422 103.362C29.3334 103.18 29.2609 102.962 29.1522 102.744C29.0435 102.563 28.971 102.345 28.8622 102.127C28.7897 101.945 28.681 101.727 28.6085 101.509C28.4273 101.074 28.246 100.602 28.0648 100.129C27.9923 99.9842 27.956 99.8026 27.8835 99.621C27.8111 99.4031 27.7386 99.1852 27.6661 98.9673C27.5936 98.7494 27.5211 98.5315 27.4486 98.3136C27.3761 98.0957 27.3036 97.8777 27.2673 97.6598C27.1586 97.2603 27.0136 96.8609 26.9049 96.4251C26.8324 96.1708 26.7599 95.8803 26.6874 95.6261C26.6511 95.4808 26.6149 95.3719 26.5787 95.2266C26.5424 95.045 26.5062 94.8997 26.4699 94.7181C26.4337 94.5002 26.3974 94.3186 26.3249 94.1007C26.1799 93.4107 26.0712 92.6844 25.9625 91.958C25.9262 91.7401 25.89 91.5585 25.89 91.3406C25.8537 91.0864 25.8175 90.8322 25.7812 90.578C25.745 90.36 25.745 90.1421 25.7087 89.9606C25.7087 89.779 25.6725 89.5611 25.6362 89.3795C25.6 89.1253 25.6 88.9074 25.5637 88.6531C25.5637 88.3989 25.5275 88.181 25.5275 87.9268C25.3463 84.2587 25.6 80.3728 26.3974 76.2326C26.7236 74.6346 27.0499 73.073 27.4123 71.5476C27.5573 71.0029 27.6661 70.4581 27.8111 69.9497C27.956 69.3323 28.101 68.7512 28.2823 68.1701C28.391 67.8069 28.4997 67.4438 28.5722 67.0806C29.2609 64.72 29.9859 62.432 30.8196 60.2529C30.2034 62.1414 29.3697 64.9016 28.6447 68.2064C28.2098 70.0949 27.8111 72.2014 27.5211 74.3804C26.6149 80.8086 26.3974 88.29 28.2098 95.3355C31.7257 108.882 44.9197 122.029 54.9238 124.753C54.9601 124.753 54.9601 124.825 54.9238 124.825C53.5102 124.607 49.1243 123.99 46.1521 122.392Z" fill="#B6724D"/>
<path d="M179.94 89.8151C179.94 90.8683 179.94 91.9578 179.904 93.0473C179.904 93.3742 179.867 93.701 179.867 93.9916C179.867 94.2821 179.831 94.5363 179.831 94.8269C179.831 94.8632 179.831 94.8995 179.831 94.9358C179.831 94.9358 179.831 94.9721 179.831 95.0085C179.795 95.299 179.795 95.5895 179.759 95.8801C179.759 95.9527 179.759 96.0617 179.722 96.1706C179.686 96.4611 179.686 96.7517 179.65 97.0059C179.65 97.0785 179.65 97.1512 179.614 97.2238C179.577 97.5507 179.541 97.8775 179.505 98.2044C179.469 98.5312 179.432 98.8944 179.36 99.2213C179.36 99.2576 179.36 99.2576 179.36 99.2939C179.324 99.6208 179.251 99.9839 179.215 100.311C179.179 100.601 179.106 100.856 179.07 101.146C179.034 101.291 179.034 101.4 178.997 101.509C178.961 101.763 178.889 102.018 178.852 102.272C178.852 102.308 178.852 102.308 178.852 102.345C178.78 102.671 178.707 102.998 178.635 103.289C178.562 103.579 178.49 103.87 178.417 104.16C178.417 104.233 178.381 104.269 178.381 104.342C178.309 104.633 178.236 104.923 178.127 105.177C178.055 105.468 177.983 105.722 177.874 106.013C177.838 106.122 177.801 106.231 177.765 106.339C177.693 106.557 177.62 106.812 177.548 107.03C177.548 107.066 177.548 107.066 177.548 107.102C177.439 107.393 177.33 107.683 177.221 107.974C177.113 108.264 177.004 108.555 176.895 108.882C176.786 109.172 176.678 109.463 176.533 109.753C176.424 110.044 176.279 110.334 176.17 110.589C176.17 110.625 176.134 110.625 176.134 110.661C176.025 110.915 175.916 111.17 175.808 111.388C175.771 111.46 175.735 111.533 175.699 111.606C175.59 111.823 175.481 112.041 175.373 112.259C175.228 112.55 175.083 112.804 174.938 113.058C174.612 113.639 174.285 114.22 173.959 114.801C173.85 115.019 173.705 115.201 173.597 115.419C172.328 117.453 170.914 119.341 169.319 121.084C169.211 121.23 169.102 121.339 168.993 121.448C168.885 121.556 168.776 121.702 168.667 121.811C168.45 122.029 168.268 122.247 168.051 122.464C167.471 123.082 166.855 123.663 166.238 124.208C166.093 124.317 165.985 124.462 165.84 124.571C165.659 124.752 165.477 124.898 165.26 125.079C165.115 125.188 164.97 125.333 164.825 125.442C164.499 125.733 164.172 125.987 163.81 126.278C163.665 126.387 163.52 126.532 163.339 126.641C163.339 126.677 163.302 126.677 163.266 126.677C163.049 126.859 162.831 127.004 162.614 127.186C162.578 127.186 162.578 127.222 162.541 127.222C162.324 127.404 162.106 127.549 161.853 127.73C161.599 127.912 161.309 128.13 161.055 128.312C160.838 128.457 160.656 128.602 160.439 128.711C159.388 129.437 158.3 130.091 157.177 130.745C156.959 130.854 156.742 130.999 156.524 131.108C156.271 131.253 156.053 131.362 155.799 131.507C155.691 131.58 155.546 131.653 155.437 131.689C155.183 131.834 154.966 131.943 154.712 132.052C153.914 132.488 153.081 132.851 152.247 133.251L150.181 132.343C167.978 124.752 175.663 111.569 178.2 98.8218C179.722 91.1588 179.614 83.169 179.287 77.9756C179.686 81.7526 179.904 85.6749 179.94 89.8151Z" fill="#B6724D"/>
<path d="M164.825 150.248C164.825 151.265 164.789 152.245 164.644 153.262C164.245 156.313 163.158 159.182 161.345 161.688C155.111 170.295 138.038 163.431 130.644 155.187C122.597 146.216 119.444 133.651 125.823 128.348C125.859 128.312 125.896 128.312 125.896 128.276C126.186 128.021 126.512 127.804 126.838 127.586C133.761 123.01 148.079 122.937 157.249 132.743C161.309 137.101 163.774 142.258 164.535 147.342C164.752 148.323 164.825 149.303 164.825 150.248Z" fill="#B6724D"/>
<path d="M164.825 150.247C164.897 154.387 163.737 158.382 161.345 161.687C155.111 170.294 138.038 163.43 130.644 155.186C122.597 146.216 119.443 133.65 125.823 128.348C125.859 128.311 125.895 128.311 125.895 128.275C126.185 128.021 126.512 127.803 126.838 127.585C126.294 129.655 126.584 133.396 129.991 140.042C135.9 151.482 159.243 156.167 164.499 147.378C164.752 148.322 164.825 149.303 164.825 150.247Z" fill="#AD6946"/>
<path d="M164.825 150.247C164.897 154.388 163.737 158.383 161.345 161.687C155.111 170.295 138.038 163.431 130.644 155.187C122.597 146.216 119.443 133.65 125.823 128.348C125.859 128.312 125.895 128.312 125.895 128.275C121.727 132.125 121.945 151.083 143.946 157.801C159.569 162.595 164.752 156.785 164.825 150.247Z" fill="#945339"/>
<path d="M164.825 150.247C164.825 151.264 164.788 152.244 164.643 153.261C164.68 146.543 162.541 137.863 151.522 130.672C139.524 122.864 126.91 127.549 126.91 127.549C133.833 122.973 148.151 122.9 157.322 132.706C161.381 137.064 163.846 142.221 164.607 147.305C164.752 148.322 164.825 149.303 164.825 150.247Z" fill="#D59A77"/>
<path d="M89.5758 66.4999C89.5758 67.1899 89.5033 67.88 89.3584 68.5337C84.4288 68.7153 80.4778 69.5869 77.5418 70.6038C76.6356 70.9306 75.802 71.2212 75.077 71.548C74.5696 70.9306 74.1346 70.2043 73.8446 69.4416C73.5546 68.6789 73.3734 67.8436 73.3372 66.972C73.2647 63.885 75.0408 61.1612 77.6506 59.9264C78.5567 59.4906 79.5717 59.2364 80.6591 59.2001L81.7827 59.1638C85.9874 59.0548 89.4671 62.3234 89.5758 66.4999Z" fill="#333132"/>
<path d="M89.576 66.4999C89.576 67.1899 89.5035 67.88 89.3586 68.5337C84.429 68.7153 80.478 69.5869 77.542 70.6038C76.2371 69.2237 75.4397 67.3715 75.4397 65.3377C75.4397 63.2313 76.2734 61.3065 77.687 59.9264C78.5932 59.4906 79.6081 59.2364 80.6955 59.2001L81.8192 59.1638C85.9876 59.0548 89.4673 62.3234 89.576 66.4999Z" fill="#272425"/>
<path d="M84.251 66.682C85.7118 66.6397 86.8627 65.4515 86.8217 64.028C86.7807 62.6044 85.5632 61.4847 84.1024 61.527C82.6417 61.5693 81.4907 62.7575 81.5317 64.181C81.5728 65.6045 82.7902 66.7243 84.251 66.682Z" fill="white"/>
<path d="M70.9449 74.4166C70.7999 74.4166 70.6187 74.344 70.51 74.1987C70.3287 73.9808 70.365 73.6177 70.5825 73.4361C70.8362 73.2182 77.2882 68.1701 90.2284 67.9521C90.5183 67.9521 90.7721 68.2064 90.7721 68.4969C90.7721 68.7874 90.5546 69.0417 90.2284 69.0417C83.6676 69.1506 78.8468 70.567 75.947 71.7292C72.8298 73.0003 71.2349 74.2714 71.1987 74.2714C71.1987 74.3803 71.0537 74.4166 70.9449 74.4166Z" fill="#43281F"/>
<path d="M121.256 69.9493C121.074 70.6393 121.002 71.3293 121.038 71.983C125.823 73.2542 129.448 74.9974 132.13 76.6317C132.964 77.1401 133.688 77.6486 134.305 78.0844C134.957 77.5759 135.501 76.9949 135.972 76.3048C136.443 75.6148 136.769 74.8521 136.987 73.9805C137.748 70.9662 136.624 67.9518 134.341 66.1359C133.543 65.5185 132.601 65.0464 131.55 64.7559L130.462 64.4653C126.439 63.4485 122.307 65.8817 121.256 69.9493Z" fill="#333132"/>
<path d="M121.256 69.9489C121.074 70.6389 121.002 71.3289 121.038 71.9826C125.823 73.2537 129.448 74.997 132.13 76.6313C133.688 75.5781 134.885 73.9438 135.356 71.9463C135.827 69.8762 135.428 67.8425 134.377 66.1719C133.58 65.5545 132.637 65.0823 131.586 64.7918L130.499 64.5013C126.439 63.4481 122.307 65.8813 121.256 69.9489Z" fill="#272425"/>
<path d="M129.635 69.4435C129.989 68.0643 129.128 66.6508 127.713 66.2863C126.297 65.9219 124.863 66.7445 124.509 68.1238C124.156 69.503 125.016 70.9165 126.432 71.281C127.847 71.6454 129.281 70.8228 129.635 69.4435Z" fill="white"/>
<path d="M137.712 81.7885C137.857 81.8248 138.038 81.7885 138.183 81.6795C138.401 81.4979 138.473 81.1348 138.256 80.9169C138.038 80.6626 132.891 74.3071 120.277 71.2201C119.987 71.1475 119.697 71.3291 119.625 71.6196C119.552 71.9101 119.733 72.2007 120.023 72.2733C126.403 73.835 130.789 76.2682 133.326 78.0478C136.081 79.9726 137.386 81.5706 137.386 81.5706C137.458 81.6795 137.567 81.7522 137.712 81.7885Z" fill="#43281F"/>
</svg>
