<svg width="60" height="60" viewBox="0 0 60 60" fill="none" xmlns="http://www.w3.org/2000/svg">
<path d="M59.7846 30.2157C59.9035 13.7661 46.665 0.334654 30.2154 0.215668C13.7659 0.0966823 0.334429 13.3352 0.215443 29.7848C0.0964572 46.2343 13.335 59.6658 29.7846 59.7848C46.2341 59.9038 59.6656 46.6652 59.7846 30.2157Z" fill="#7F1A71"/>
<path fill-rule="evenodd" clip-rule="evenodd" d="M37.4456 42.5437C37.5057 42.5437 37.4456 42.5437 37.4456 42.5437V42.5437ZM37.4456 21.3462C37.5057 21.3462 37.4456 21.3462 37.4456 21.3462V21.3462ZM36.1245 42.6638C36.6049 42.6638 36.8451 42.6037 37.3856 42.6037C37.3255 42.6638 37.3856 42.6037 37.2655 42.6638C34.9836 44.105 31.5608 44.4653 28.7985 43.8648C26.997 43.5045 25.2556 42.6037 23.8144 41.4628C21.8928 39.9616 20.3315 37.6196 19.6709 35.2176C18.5901 31.3144 19.4307 27.4713 21.8928 24.2886L22.9737 23.0876C23.9345 22.1269 25.1355 21.2862 26.4565 20.6857C26.8168 20.5055 27.1171 20.3854 27.4774 20.2653C30.2397 19.2445 33.4823 19.4246 36.1846 20.5656C36.4848 20.6857 37.1454 20.9859 37.3856 21.2261C36.9052 21.2261 36.725 21.1661 36.2446 21.1661C32.1612 21.1661 29.3389 23.0276 27.3573 25.6698C26.997 26.2102 26.6367 26.8107 26.3965 27.4112C25.1355 29.9933 25.1355 33.5963 26.3364 36.2385C27.2372 38.1601 28.3181 39.4812 29.9995 40.6822C31.1404 41.5228 32.4014 42.0032 33.7225 42.3635C34.263 42.5437 35.464 42.6638 36.1245 42.6638ZM17.5692 31.3144C17.5692 33.3561 17.6293 34.8573 18.4099 36.839C18.8903 37.9799 19.4307 39.1209 20.1513 40.0817C20.3915 40.3819 20.6317 40.7422 20.8719 40.9824C21.1722 41.2826 21.4124 41.5829 21.7126 41.8831L23.5141 43.3844C27.7176 46.2668 32.8218 46.6271 37.4456 44.5253C38.1662 44.165 38.7667 43.8047 39.4272 43.3844C40.0277 42.964 40.8684 42.3035 41.3488 41.763C41.4689 41.6429 41.529 41.5829 41.589 41.5228C41.8292 41.3427 41.8893 41.2226 42.0694 40.9824C42.3697 40.6822 42.6699 40.2018 42.2496 39.7214C41.589 38.9407 40.6282 40.0817 39.2471 40.5621C36.3647 41.5829 33.5424 41.2226 31.1404 39.6013C26.5166 36.5387 25.6759 29.8132 29.7593 25.7298C32.5816 22.9075 36.665 22.247 40.388 24.1085C40.8084 24.3487 41.7692 25.1293 42.3096 24.4688C43.0302 23.6281 41.4689 22.4271 40.6883 21.6465C40.5081 21.4663 40.328 21.3462 40.1478 21.2261C37.5057 19.1844 34.9235 18.2236 31.1404 18.2236C29.2188 18.2236 26.997 18.8241 25.7359 19.4847C25.1355 19.7849 24.1747 20.2653 23.6342 20.6857C23.334 20.9259 22.9737 21.1661 22.6734 21.4063C22.4933 21.5264 22.3732 21.7065 22.2531 21.8266L20.2714 23.9884C19.731 24.6489 19.4307 25.3095 19.0104 26.0901L18.53 27.2311C17.9896 28.2519 17.5692 29.9933 17.5692 31.3144Z" fill="#FBEB30"/>
<path fill-rule="evenodd" clip-rule="evenodd" d="M18.0494 13.1787L19.7308 14.1996C19.3105 14.1996 19.0703 14.2596 18.71 14.2596C18.4097 14.2596 17.9293 14.2596 17.8092 14.3797C17.6891 14.4998 17.6291 14.9802 17.569 15.2204C17.509 15.4606 17.3889 15.8209 17.3889 16.1211L16.6082 14.4398C15.9477 14.4398 15.3472 14.5599 14.7467 14.5599C14.9269 14.3197 15.5273 13.8393 15.7675 13.5991C15.9477 13.479 15.9477 13.4189 16.1278 13.2988C16.0077 12.9986 15.8876 12.8184 15.7675 12.4581C15.6474 12.2179 15.4673 11.7976 15.4073 11.5574C15.9477 11.8576 16.4281 12.2179 16.9685 12.4581C17.509 12.0978 17.9293 11.6174 18.4097 11.2571C18.4097 11.7976 18.1095 12.6983 18.0494 13.1787ZM16.9085 10.4765C16.0678 10.0561 14.5666 8.79511 13.6658 9.81595C12.8852 10.7167 14.0862 12.338 14.0862 12.8785C13.4857 13.2988 12.3447 14.1996 12.3447 14.9202C12.3447 16.7817 14.4465 16.1211 15.5274 16.1211L16.1278 17.6224C16.7884 18.8234 18.0494 18.9435 18.6499 17.6224C18.77 17.3221 19.0703 16.1211 19.0703 15.8209C19.6708 15.8209 20.5715 15.7609 21.0519 15.6408C22.3129 15.2805 22.433 14.0194 21.2321 13.1787C20.8117 12.8785 20.3914 12.6383 19.971 12.3981C19.971 11.6174 20.6916 10.2363 20.0311 9.45565C19.0703 8.19461 17.569 9.876 16.9085 10.4765Z" fill="white"/>
<path fill-rule="evenodd" clip-rule="evenodd" d="M45.5519 33.1762C45.672 32.6958 46.1524 32.0353 46.2724 31.4948C45.9722 31.0144 45.1315 30.474 44.9514 30.1737C45.5519 30.1737 46.2724 30.4139 46.8729 30.4139C46.933 29.9335 47.4734 29.273 47.5935 28.7325C47.7737 28.8526 47.7136 28.8526 47.8337 29.5732C47.8938 29.8735 47.9538 30.2338 48.0139 30.534L49.8754 30.7742L48.2541 31.675C48.2541 32.3956 48.4943 32.936 48.4943 33.5365C48.0139 33.4164 47.5935 32.4556 47.1131 32.3355C46.933 32.3355 45.9122 33.0561 45.5519 33.1762ZM45.8521 28.6124C45.1315 28.6124 43.8104 28.132 43.0898 28.7325C42.4293 29.273 42.6695 30.2938 43.33 30.9544L44.3509 31.8551C44.0506 32.3956 43.4501 33.5365 43.4501 34.137C43.4501 34.6774 43.8705 35.2779 44.3509 35.2779C45.1315 35.2779 45.1315 35.2779 45.9122 34.9176C46.0923 34.7975 46.7528 34.4372 46.8729 34.4372C47.2332 34.4372 48.0139 35.9385 49.2149 35.9385C49.9955 35.9385 50.2958 35.398 50.3558 34.7375C50.4159 34.4372 50.1757 32.876 50.0556 32.6358C50.2958 32.5757 50.536 32.4556 50.7161 32.3355C50.9563 32.2154 51.1365 32.0953 51.3767 31.9752C52.5776 31.3147 52.7578 29.8735 51.3166 29.3931C50.7762 29.2129 49.6352 29.2129 49.5151 29.0328C49.2149 28.6725 49.5151 26.2705 47.8938 26.2705C46.5727 26.2705 46.0323 28.6124 45.8521 28.6124Z" fill="white"/>
<path fill-rule="evenodd" clip-rule="evenodd" d="M9.82278 25.3093C8.62179 25.3093 6.64015 25.1291 8.38159 26.4502C8.68184 26.6904 8.92204 26.8706 9.22228 27.0507C9.16223 27.4711 7.90119 30.1733 9.70268 28.8522C10.0029 28.612 10.3032 28.3718 10.6635 28.1316C11.0238 28.2517 12.6451 29.7529 12.6451 28.9123C12.6451 28.0115 12.3449 27.8314 12.1647 27.0507C12.465 26.6304 13.6659 26.21 13.6659 25.6095C13.6659 25.1892 12.1047 25.2492 11.5642 25.2492C11.5042 24.949 11.3841 24.5286 11.264 24.2284C11.1439 23.808 11.0238 23.3877 10.6635 23.3877C10.3032 23.5078 9.94288 25.009 9.82278 25.3093Z" fill="white"/>
<path fill-rule="evenodd" clip-rule="evenodd" d="M19.6707 35.2781C20.3313 37.6801 21.8926 39.962 23.8142 41.5233C25.2553 42.6642 26.9968 43.5049 28.7983 43.9252C31.5605 44.5257 34.9834 44.1654 37.2652 42.7243C37.3853 42.6642 37.3253 42.7243 37.3853 42.6642C36.8449 42.6642 36.6047 42.7243 36.1243 42.7243C35.4638 42.7243 34.2628 42.6042 33.6623 42.424C32.3412 42.0637 31.0201 41.5833 29.9392 40.7426C28.3179 39.5416 27.1769 38.2205 26.2762 36.299C25.0752 33.6568 25.0752 30.0538 26.3362 27.4717C26.6365 26.8712 26.9367 26.2707 27.297 25.7302C29.2787 23.0881 32.101 21.2265 36.1844 21.2265C36.6647 21.2265 36.8449 21.2866 37.3253 21.2866C37.0851 21.0464 36.4245 20.8062 36.1243 20.626C33.4221 19.4851 30.1794 19.3049 27.4171 20.3258C27.0568 20.4459 26.7566 20.566 26.3963 20.7461C20.9318 23.2082 18.0494 29.5734 19.6707 35.2781Z" fill="#FBEB30"/>
<path d="M31.4406 44.4052C30.5398 44.4052 29.6391 44.3451 28.7984 44.165C26.9969 43.8047 25.2555 42.964 23.6942 41.763C21.7125 40.2017 20.1512 37.9199 19.4907 35.3978C17.8694 29.4529 20.8718 23.0276 26.3964 20.6256L26.5765 20.5655C26.8768 20.4454 27.117 20.3253 27.4773 20.2052C30.1795 19.2445 33.4822 19.3045 36.3046 20.5055C36.6048 20.6256 37.3254 20.9258 37.5656 21.166L37.986 21.5263H37.4455C37.2053 21.5263 37.0252 21.5263 36.845 21.4663C36.6649 21.4663 36.5448 21.4062 36.3046 21.4062C32.7016 21.4062 29.7592 22.9075 27.5373 25.8499C27.177 26.3303 26.8768 26.9308 26.5765 27.4712V27.5313C25.3155 29.9933 25.3155 33.5963 26.5165 36.1784C27.3572 37.9799 28.4981 39.361 30.1195 40.502C31.3205 41.4027 32.7616 41.8231 33.7825 42.1233C34.3229 42.2434 35.5239 42.3635 36.1845 42.3635C36.4247 42.3635 36.6048 42.3635 36.785 42.3035C36.9651 42.3035 37.2053 42.2434 37.4455 42.2434H37.986L37.5656 42.6037L37.5056 42.6638L37.3855 42.8439C35.8242 43.8648 33.6023 44.4052 31.4406 44.4052ZM31.3805 19.965C30.0594 19.965 28.7383 20.2052 27.5974 20.6256C27.2971 20.7457 27.0569 20.8658 26.7567 20.9859L26.5765 21.0459C21.2321 23.3278 18.2897 29.573 19.851 35.2176C20.5115 37.5596 22.0128 39.8414 23.9344 41.3427C25.4356 42.5437 27.117 43.3243 28.8584 43.6846C31.5006 44.2251 34.5031 43.8648 36.6048 42.8439C36.4847 42.8439 36.3046 42.8439 36.1244 42.8439C35.4639 42.8439 34.2028 42.7238 33.6624 42.5437C32.5815 42.2434 31.1403 41.763 29.8192 40.8623C28.1378 39.6613 26.9969 38.2801 26.0961 36.3586C24.8351 33.6563 24.8952 29.9933 26.1562 27.3511V27.2911C26.4564 26.7506 26.7567 26.0901 27.117 25.6097C29.3989 22.5472 32.4614 21.0459 36.1845 21.0459C36.3046 21.0459 36.3646 21.0459 36.4247 21.0459C36.3046 20.9859 36.1244 20.9258 36.0043 20.8658C34.6232 20.2653 32.9418 19.965 31.3805 19.965Z" fill="#FBEB30"/>
</svg>
