<svg width="60" height="60" viewBox="0 0 60 60" fill="none" xmlns="http://www.w3.org/2000/svg">
<path d="M30 60C46.5685 60 60 46.5685 60 30C60 13.4315 46.5685 0 30 0C13.4314 0 0 13.4315 0 30C0 46.5685 13.4314 60 30 60Z" fill="#ADBE34"/>
<path fill-rule="evenodd" clip-rule="evenodd" d="M47.7826 21.8955C46.8149 21.4116 46.6939 20.8068 46.0286 20.8068C45.1818 20.8068 45.0609 21.2906 44.698 21.956C44.577 22.1979 44.2141 23.1656 43.1859 24.1939C41.9157 24.1334 41.9157 24.4358 41.1294 24.9802C40.8875 25.2221 36.5326 25.2826 35.2625 25.2826C34.4157 25.2826 31.9963 24.8592 30.3633 24.6777C29.7584 24.6173 28.7302 25.0406 28.5488 24.5568C28.4883 24.3753 28.4278 24.2544 28.4278 24.1334C31.0891 23.71 32.9036 22.3189 33.6294 20.081C35.6254 19.4761 35.5649 16.9358 34.1133 16.3914C34.2342 12.581 30.4238 13.0043 31.2705 9.01241C29.9399 8.89144 28.3673 9.85919 28.5488 10.7664C27.0971 8.34709 24.3149 10.2221 23.952 7.80273C23.0447 9.37532 23.2262 10.706 24.1939 11.2503C23.7705 11.0084 23.4681 11.1293 22.8028 11.2503C22.1375 11.3713 21.7746 11.3108 21.5326 10.8874C20.7463 11.8552 20.9278 12.7624 21.3512 13.3673C20.9278 13.9116 20.5649 14.5769 20.202 15.3632C18.3875 15.5447 18.206 18.2664 19.8391 18.8108C20.2625 21.956 22.9238 23.6495 25.1012 24.1334C25.1012 24.2544 25.1617 24.4358 25.1012 24.6777C25.1012 25.2826 25.1617 25.6455 24.0125 25.706C23.4681 25.706 22.4399 26.2503 21.7746 26.4318C21.1697 26.6737 16.0286 28.0648 13.7907 28.0648C12.702 28.0648 11.9762 28.0044 10.7665 27.7624C10.1012 27.6414 9.79877 27.8229 9.98022 28.1858C9.43586 28.2463 9.31489 28.9116 9.91973 29.1535C9.98021 29.6979 10.4641 29.7584 10.9479 29.8189C12.581 29.9398 12.46 30.1213 12.581 30.1818C12.9439 30.4237 12.3996 31.21 12.46 31.5124C12.5205 31.9963 13.3068 32.2382 13.5488 31.5729C13.7907 30.9681 14.456 30.5447 14.9399 30.3027C16.3915 29.456 17.7826 30.1818 22.9238 29.456C23.4681 29.3955 24.0125 29.7584 24.1939 30.3027C25.0407 32.9035 26.8552 34.4761 29.2141 35.6858C29.6375 35.9277 29.8794 36.3511 29.8189 36.7745C29.698 38.2261 29.7584 42.339 29.8794 43.6092C29.9399 44.0931 31.3915 49.1737 30.9076 49.7785C29.577 51.5931 28.1859 50.8673 28.6697 52.1979C29.0931 53.2261 30.7262 53.2261 31.573 52.5608C32.6012 51.7745 34.3552 51.6535 34.4157 51.0487C34.4157 50.081 33.7504 49.4156 33.7504 48.4479C33.7504 47.6616 33.8713 46.4519 33.8109 45.6052C33.7504 44.335 33.8109 43.4277 33.8109 42.7624C33.8109 41.3713 34.3552 38.5285 35.6859 36.4721C37.0165 34.4156 40.3431 32.1173 41.4318 30.7866C42.5205 29.456 43.9721 27.7624 43.9721 27.7624C45.0609 27.7624 45.8471 25.9479 45.1213 25.5245C45.6052 24.9197 45.8471 24.3753 46.7544 24.3753C47.3592 24.3753 47.5407 24.3148 48.327 24.7382C48.7504 24.9197 49.4157 25.2221 49.4762 24.3148C49.8391 22.6818 48.327 22.1979 47.7826 21.8955ZM37.9842 28.6697C37.4399 28.9721 35.7463 29.5164 35.323 29.6374C34.4762 29.8793 34.5971 29.5164 33.6294 29.335C32.7221 29.1535 32.3592 29.3955 31.8754 28.9721C31.331 28.4277 31.6334 28.0044 32.1778 28.0044C32.1778 28.0044 34.5367 28.2463 35.1415 28.2463C35.7463 28.2463 36.5326 28.0043 37.3794 27.8229C38.5891 27.5205 40.1012 27.2181 40.1012 27.2181C40.1012 27.2181 38.5286 28.3673 37.9842 28.6697Z" fill="#7F1A71"/>
</svg>
