<svg width="62" height="62" viewBox="0 0 62 62" fill="none" xmlns="http://www.w3.org/2000/svg">
<path d="M31.0804 61.2013C47.7161 61.2013 61.2021 47.7154 61.2021 31.0796C61.2021 14.4439 47.7161 0.958008 31.0804 0.958008C14.4447 0.958008 0.958801 14.4439 0.958801 31.0796C0.958801 47.7154 14.4447 61.2013 31.0804 61.2013Z" fill="white"/>
<path fill-rule="evenodd" clip-rule="evenodd" d="M46.0038 21.4962H44.2238V20.6747C44.2238 20.127 43.8131 19.8532 43.4023 19.8532H40.1163C38.8841 19.8532 37.6519 19.7163 36.4196 19.3055C35.8719 19.1686 35.3243 19.0317 34.6397 19.0317C33.4074 19.0317 32.3121 19.4425 31.3537 20.127C29.5738 16.8411 26.1509 14.6504 22.3172 14.6504C21.7695 14.6504 21.4957 15.0611 21.4957 15.4719V19.8532H18.8943C18.3466 19.8532 18.0728 20.264 18.0728 20.6747V21.4962H16.2929C15.7452 21.4962 15.4714 21.907 15.4714 22.3177V44.2244C15.4714 44.772 15.8821 45.0459 16.2929 45.0459H28.6154C28.6154 45.5935 29.0261 45.8673 29.4369 45.8673H32.9967C33.5444 45.8673 33.8182 45.4566 33.8182 45.0459H46.1407C46.6883 45.0459 46.9622 44.6351 46.9622 44.2244V22.3177C46.8253 21.907 46.4145 21.4962 46.0038 21.4962ZM32.0383 21.907L32.1752 21.77C32.8598 21.0855 33.8182 20.6747 34.7766 20.6747C35.1874 20.6747 35.5981 20.6747 36.0089 20.8116C37.378 21.2224 38.7472 21.4962 40.2533 21.4962H42.5808V39.843H40.2533C39.021 39.843 37.7888 39.7061 36.5565 39.2954C36.0089 39.1584 35.4612 39.0215 34.7766 39.0215C33.8182 39.0215 32.8598 39.2954 32.0383 39.843V21.907ZM30.2584 21.6331C29.163 18.621 26.4247 16.5672 23.2756 16.2934V34.6402C26.0139 34.914 28.6154 36.2832 30.2584 38.3369V21.6331ZM19.7158 21.4962H21.4957V35.4617C21.4957 36.0094 21.9065 36.2832 22.3172 36.2832C24.7817 36.2832 26.9724 37.3785 28.4784 39.0215C27.52 38.8846 26.5616 38.8846 25.6032 39.1584C24.3709 39.5692 23.1387 39.7061 21.9065 39.7061H19.5789V21.4962H19.7158ZM32.8598 43.4028H45.1823V23.2761H44.3608V40.8014C44.3608 41.3491 43.95 41.6229 43.5393 41.6229H40.2533C38.7472 41.6229 37.378 41.3491 36.0089 40.9384C35.5981 40.8014 35.1874 40.8014 34.7766 40.8014C33.8182 40.8014 32.8598 41.2122 32.1752 41.8968L31.7644 42.3075C31.4906 42.5814 30.806 42.5814 30.5322 42.3075L30.1214 41.8968C29.4369 41.2122 28.4784 40.8014 27.52 40.8014C27.1093 40.8014 26.6985 40.8014 26.2878 40.9384C24.9186 41.3491 23.5495 41.6229 22.0434 41.6229H18.7574C18.2097 41.6229 17.9359 41.2122 17.9359 40.8014V23.2761H17.1144V43.4028H29.4369C29.9845 43.4028 30.2584 43.8136 30.2584 44.2244H32.0383C32.0383 43.8136 32.3121 43.4028 32.8598 43.4028Z" fill="#5695A4"/>
</svg>
