<svg width="169" height="196" viewBox="0 0 169 196" fill="none" xmlns="http://www.w3.org/2000/svg">
<path d="M88.034 196C131.459 196 166.662 186.237 166.662 174.193C166.662 162.15 131.459 152.387 88.034 152.387C44.6091 152.387 9.40625 162.15 9.40625 174.193C9.40625 186.237 44.6091 196 88.034 196Z" fill="#12A9AA"/>
<path d="M87.9774 192.403C128.489 192.403 161.33 184.213 161.33 174.11C161.33 164.007 128.489 155.816 87.9774 155.816C47.466 155.816 14.625 164.007 14.625 174.11C14.625 184.213 47.466 192.403 87.9774 192.403Z" fill="#17A2AB"/>
<path d="M85.325 187.355C118.946 187.355 146.201 181.263 146.201 173.747C146.201 166.231 118.946 160.139 85.325 160.139C51.7042 160.139 24.4492 166.231 24.4492 173.747C24.4492 181.263 51.7042 187.355 85.325 187.355Z" fill="#0096A6"/>
<path d="M166.967 158.047C165.627 164.795 162.334 169.87 157.84 173.328C155.551 175.085 152.983 176.396 150.192 177.316C148.992 177.706 147.764 178.013 146.508 178.264C139.753 179.547 132.161 178.682 124.988 175.727C110.362 169.731 99.3926 163.234 99.3926 163.234L107.292 136.965C107.292 136.965 108.101 135.766 109.748 136.045C113.432 136.658 115.916 137.718 127.472 135.682C127.472 135.682 136.432 124.249 149.773 125.086C150.053 125.114 150.332 125.114 150.611 125.142C151.253 125.197 151.895 125.281 152.509 125.393C155.16 125.867 157.505 126.787 159.515 128.097C166.995 133.033 169.842 143.63 166.967 158.047Z" fill="#945339"/>
<path d="M143.049 176.675C131.186 179.324 101.209 164.294 101.209 164.294L101.014 164.322C104.754 166.413 113.686 171.21 124.711 175.727C131.912 178.683 139.476 179.548 146.231 178.265C147.068 178.097 147.906 177.902 148.715 177.679L143.049 176.675Z" fill="#B6724D"/>
<path d="M126.077 136.631C123.593 140.034 116.615 142.599 116.615 142.599C116.364 141.93 116.113 141.316 115.861 140.703L114.94 144.021C114.94 144.021 114.857 147.34 114.131 150.909C116.699 151.718 120.411 152.749 124.291 153.419C124.291 153.419 124.765 139.392 136.879 129.883C140.173 127.29 144.276 125.951 148.407 125.756C138.526 125.617 130.711 130.273 126.077 136.631Z" fill="#AD6946"/>
<path d="M146.677 109.331C141.597 113.848 134.591 116.721 127.92 118.505C126.72 118.84 125.548 119.119 124.376 119.37H124.348C120.719 120.179 117.342 120.681 114.578 120.987C111.424 121.35 109.08 121.461 108.187 121.489C107.908 121.489 107.768 121.489 107.768 121.489L101.99 105.288C101.99 105.288 121.054 100.826 129.539 79.27C132.023 72.9678 135.931 69.3426 140.146 67.7252C142.909 66.6656 145.784 66.4704 148.491 66.9165C149.692 67.1117 150.836 67.4464 151.953 67.8647C156.363 69.5936 159.796 73.1072 160.661 77.2901C162.252 85.126 159.963 97.5074 146.677 109.331Z" fill="#945339"/>
<path d="M146.677 109.331C141.597 113.849 134.591 116.721 127.92 118.506C126.72 118.84 125.52 119.119 124.347 119.37C120.719 120.179 117.341 120.681 114.578 120.988C116.42 119.37 122.505 116.693 128.813 101.356C133.809 89.2257 132.386 70.7095 144.639 67.4189C145.784 67.1122 147.068 66.9449 148.491 66.917C149.691 67.1122 150.836 67.4468 151.952 67.8651C156.362 69.594 159.795 73.1077 160.661 77.2905C162.252 85.1265 159.963 97.5078 146.677 109.331Z" fill="#AD6946"/>
<path d="M146.677 109.331C141.597 113.849 134.591 116.721 127.92 118.505C126.72 118.84 125.52 119.119 124.348 119.37C124.348 119.37 128.451 115.326 133.056 105.26C140.313 89.3647 137.299 80.1624 143.663 72.3822C145.477 70.1513 147.542 68.9522 149.58 68.3388C150.389 68.1157 151.171 67.9483 151.925 67.8926C156.335 69.6215 159.768 73.1351 160.633 77.318C162.252 85.1261 159.963 97.5074 146.677 109.331Z" fill="#B6724D"/>
<path d="M146.675 109.33C141.595 113.848 134.589 116.72 127.918 118.505C133.361 116.664 139.753 113.625 145.167 108.717C156.137 98.7338 158.314 91.2325 158.705 80.9984C158.928 74.6404 153.988 69.8998 149.578 68.3661C148.015 67.8083 146.312 67.5295 144.637 67.4458C143.13 67.3901 141.595 67.5016 140.143 67.7526C142.907 66.6929 145.782 66.4977 148.489 66.9439C149.689 67.1391 150.834 67.4737 151.95 67.892C156.36 69.6209 159.793 73.1345 160.659 77.3174C162.25 85.1255 159.961 97.5068 146.675 109.33Z" fill="#D59A77"/>
<path d="M139.839 81.8911C139.895 81.7517 139.979 81.6402 140.035 81.5007C143.803 74.8918 149.971 73.1071 153.823 77.5131C156.391 80.4411 157.284 85.349 156.503 90.2569C156.447 90.6194 156.391 90.9819 156.307 91.3166C155.861 93.4638 155.107 95.5552 154.019 97.4793C150.251 104.088 144.082 105.873 140.23 101.467C139.197 100.268 138.416 98.7342 137.913 97.0332C136.63 92.5157 137.271 86.6317 139.839 81.8911Z" fill="#AD6946"/>
<path d="M154.66 76.0916C157.228 79.0196 158.121 83.9276 157.34 88.8355C157.284 89.198 157.228 89.5605 157.144 89.8951C156.67 91.4288 156.056 92.9068 155.246 94.3011C151.255 101.328 144.695 103.252 140.592 98.5397C139.839 97.7032 139.253 96.6993 138.778 95.5838C137.494 91.0663 138.108 85.2103 140.676 80.4418C140.732 80.3024 140.816 80.1908 140.872 80.0514C144.612 73.4704 150.78 71.6857 154.66 76.0916Z" fill="#ECD09C"/>
<path d="M140.647 80.4688C138.079 85.2372 137.465 91.0933 138.749 95.6108C139.251 97.3397 140.005 98.8734 141.066 100.045C144.917 104.451 151.086 102.666 154.854 96.057C155.943 94.1328 156.696 92.0414 157.143 89.8942C157.227 89.5317 157.282 89.1691 157.338 88.8345C155.496 93.0174 151.281 100.184 144.945 96.9772C139.279 94.1607 139.14 85.7671 140.647 80.4688Z" fill="#DCBD8A"/>
<path d="M154.995 94.774C155.916 93.2682 156.614 91.6229 157.144 89.9219C156.698 92.0691 155.944 94.1605 154.855 96.0846C151.087 102.694 144.919 104.478 141.067 100.072C140.09 98.9569 139.225 97.2558 138.834 95.8894C138.834 95.8616 138.862 95.8337 138.862 95.8616C139.42 97.1164 140.174 98.2319 141.067 99.1242C145.086 103.028 151.171 101.132 154.995 94.774Z" fill="#C59F6D"/>
<path d="M132.163 106.096L123.566 117.278L124.403 119.369H124.375C120.747 120.178 117.369 120.68 114.606 120.987C111.452 121.349 109.107 121.461 108.214 121.489C107.879 118.672 107.572 115.967 107.572 115.967C126.078 118.672 131.995 92.9893 131.995 92.9893L132.163 106.096Z" fill="#AD6946"/>
<path d="M154.297 126.397C154.297 126.397 148.854 124.501 143.104 126.453C137.355 128.405 134.703 130.859 132.302 133.731C122.198 145.917 121.919 179.324 145.672 178.432L154.297 126.397Z" fill="#AD6946"/>
<path d="M159.656 128.126C157.144 126.23 153.153 124.836 149.329 124.696C138.527 124.334 131.995 128.405 127.222 132.309C123.622 135.237 117.397 135.293 113.127 135.572C114.16 137.161 114.662 139.281 114.913 144.077C114.913 144.077 122.059 143.436 126.357 137.357C131.27 130.469 138.499 125.617 148.38 125.812C152.287 125.617 156.39 126.453 159.656 128.126Z" fill="#945339"/>
<path d="M113.238 147.116C111.312 155.091 106.595 161.143 102.939 163.596C95.2631 168.783 81.9491 169.843 81.9491 169.843L52.8091 174.556L54.5676 184.567C48.5386 181.973 42.7887 177.846 36.1736 171.014C29.5585 164.182 31.4565 153.585 35.5875 140.981C39.4114 129.297 54.5676 107.406 54.5676 107.406C54.5676 107.406 56.7447 106.765 60.1778 105.901C72.1799 102.833 99.6452 96.8377 104.697 104.701C111.173 114.824 113.182 125.56 114.02 137.941C114.243 141.176 113.908 144.272 113.238 147.116Z" fill="#AD6946"/>
<path d="M113.238 147.117C109.275 155.371 102.018 161.255 89.2897 160.92C89.0943 160.92 88.871 160.92 88.6756 160.892C86.8055 160.809 85.0471 160.614 83.4003 160.307C55.0418 155.204 58.0005 119.426 60.2055 105.874C62.2152 105.344 64.6714 104.758 67.4068 104.145C68.2162 103.977 69.0536 103.782 69.9189 103.615H69.9747C83.2049 100.854 100.817 98.5397 104.725 104.702C111.201 114.825 113.21 125.561 114.048 137.942C114.243 141.177 113.908 144.272 113.238 147.117Z" fill="#AD6946"/>
<path d="M83.3749 160.307C55.0164 155.204 57.9751 119.426 60.1801 105.873C62.1898 105.344 64.646 104.758 67.3814 104.145C75.5596 111.813 88.9852 129.493 83.3749 160.307Z" fill="#945339"/>
<path d="M111.033 118.338C101.208 118.506 93.4764 110.084 93.4764 110.084H91.5784C90.3781 115.354 85.6889 119.677 82.4512 121.573C86.4426 126.732 90.6852 132.476 92.2762 139.197C94.9278 150.379 92.0808 156.347 89.2617 160.892C101.989 161.255 109.247 155.371 113.21 147.089C113.908 144.244 114.215 141.149 113.992 137.886C113.601 131.64 112.484 123.915 111.033 118.338Z" fill="#B6724D"/>
<path d="M60.206 110.976C59.871 117.166 59.899 123.608 56.1029 134.372C52.6977 144.02 44.3241 158.298 37.2345 165.688C33.4385 169.648 24.4509 173.105 16.189 172.464C11.4998 172.102 7.06178 170.428 3.99147 166.775C2.79126 165.353 1.89808 163.959 1.28402 162.592C-0.0836607 159.664 -0.251132 156.876 0.279194 154.338C1.28402 149.598 4.85674 145.721 7.98287 143.491C13.5652 139.503 20.3478 133.452 29.8658 124.974C33.271 121.935 36.453 119.341 39.2442 117.194C40.4723 116.246 41.6446 115.382 42.7332 114.601C48.176 110.669 51.5254 108.828 51.5254 108.828C51.5254 108.828 60.5409 104.785 60.206 110.976Z" fill="#945339"/>
<path d="M18.2261 42.8233C13.1461 52.444 20.9056 58.4115 24.4783 60.5309C25.4552 61.1165 26.1251 61.3953 26.1251 61.3953L32.0145 50.2689L33.438 47.313L37.569 38.7799C37.569 38.8078 24.4225 31.2786 18.2261 42.8233ZM7.67539 37.5808C7.64748 37.5808 7.64748 37.6087 7.67539 37.5808C7.59165 37.776 7.50792 37.9154 7.42418 38.0827C6.94968 39.0866 6.50309 40.0348 6.16815 40.9829C-1.03312 59.9732 16.663 69.789 21.7988 72.1872C22.6362 72.5776 23.1386 72.7728 23.1386 72.7728L34.8616 52.1651L34.8895 52.193L35.0848 51.7747L35.3361 51.3285L35.2802 51.3006L41.4488 37.4414L44.8261 29.8843L44.9377 29.6612C44.9377 29.6612 20.1241 13.7105 7.67539 37.5808Z" fill="#B6724D"/>
<path d="M32.2655 49.7948L32.0143 50.2967L31.8468 50.6313L26.1249 61.4232C26.1249 61.4232 23.5012 60.252 20.9891 57.9932C17.7513 55.0373 14.709 50.1573 17.8909 43.4926C18.0584 43.1579 18.2258 42.8233 18.4212 42.4887C18.5329 42.2656 18.6724 42.0704 18.7841 41.8752C24.0036 33.5931 33.2145 36.7999 36.4244 38.2779C37.1501 38.6125 37.5688 38.8356 37.5688 38.8356L32.2655 49.7948Z" fill="#DCBD8A"/>
<path d="M35.2787 51.3006L35.3345 51.3285L35.0833 51.7746L34.8879 52.1929L34.86 52.165L23.137 72.7727C23.137 72.7727 -0.029861 63.9329 5.27339 43.8551C5.5246 42.9348 5.83163 41.9867 6.19449 41.0107C6.80855 47.5639 7.84129 58.0768 20.597 64.3233C20.597 64.3233 21.3785 60.5029 21.9647 58.6903C22.8579 55.8739 24.0581 53.1968 25.4258 50.6871C27.2679 47.285 29.4172 44.1339 31.5943 41.1501C34.1343 37.7202 38.7676 40.453 41.503 37.4971L35.2787 51.3006Z" fill="#945339"/>
<path d="M25.3706 50.6319C22.5794 59.2486 21.6025 68.1721 21.6025 68.1721C7.64657 61.3959 4.99494 51.2175 5.24615 43.8278C5.49736 42.9075 5.80439 41.9594 6.16724 40.9834C6.7813 47.5366 7.81404 58.0496 20.5698 64.296C20.5698 64.296 21.3513 60.4756 21.9375 58.663C22.8306 55.8466 24.0029 53.1695 25.3706 50.6319Z" fill="#AD6946"/>
<path d="M30.7842 40.398C23.583 47.5925 21.5454 54.2015 20.9872 57.994C17.7494 55.0381 14.707 50.158 17.889 43.4933C18.0564 43.1587 18.2239 42.824 18.4193 42.4894C18.5309 42.2663 18.6705 42.0711 18.7821 41.8759C24.1133 38.2508 30.7842 40.398 30.7842 40.398Z" fill="#ECD09C"/>
<path d="M44.9384 29.6612L44.8268 29.8843L43.4312 30.6651C43.4312 30.6651 37.7093 27.0678 30.9546 26.2591C24.1999 25.4504 15.9938 28.1833 11.4721 34.2624C6.95037 40.3415 3.82424 51.4401 8.34597 59.0529C12.5048 66.0244 20.4597 71.3785 21.7437 72.1871C16.6358 69.8168 -1.06034 60.001 6.14093 40.9829C6.50378 40.0347 6.92246 39.0587 7.39696 38.0827C7.4807 37.9154 7.56444 37.776 7.64817 37.6087V37.5808C20.1248 13.7105 44.9384 29.6612 44.9384 29.6612Z" fill="#D59A77"/>
<path d="M36.4524 38.2501L35.6988 39.7001C26.4599 36.1586 21.2404 39.1424 18.4492 42.4887C23.5571 33.4258 33.1588 36.7442 36.4524 38.2501Z" fill="#C59F6D"/>
<path d="M94.0925 20.9607L102.215 25.8687L105.006 27.5697L116.003 33.7046C116.003 33.7046 116.394 33.0911 116.896 32.0872C118.739 28.3505 121.976 19.1203 112.486 13.822C101.015 7.49186 94.0925 20.9607 94.0925 20.9607ZM82.9277 17.2798L83.1231 17.4192L90.0732 21.9367L102.801 30.191L102.773 30.2467L103.22 30.4698L103.61 30.7208L103.638 30.6929L124.712 41.5963C124.712 41.5963 125.019 41.1501 125.521 40.3693C128.508 35.5729 138.026 17.726 121.614 5.70717C120.804 5.12156 119.911 4.53596 118.962 3.95036C118.794 3.8667 118.655 3.78304 118.487 3.6715H118.46C95.0415 -9.57429 82.9277 17.2798 82.9277 17.2798Z" fill="#B6724D"/>
<path d="M104.559 27.2906L105.033 27.5695L105.34 27.7647L116.003 33.7044C116.003 33.7044 117.566 31.3062 118.431 28.0436C119.547 23.777 119.436 18.0604 113.128 14.1843C112.793 13.9891 112.458 13.7939 112.151 13.6266C111.927 13.515 111.732 13.4035 111.509 13.3198C102.605 9.2206 96.6318 16.9171 94.7338 19.9009C94.3151 20.5701 94.0918 20.9884 94.0918 20.9884L104.559 27.2906Z" fill="#DCBD8A"/>
<path d="M102.829 30.1899L102.801 30.2456L103.247 30.4687L103.638 30.7197L103.666 30.6918L124.74 41.5952C124.74 41.5952 139.338 21.601 123.958 7.60229C123.26 6.96092 122.479 6.31954 121.641 5.70605C124.684 11.5342 129.568 20.9317 122.255 33.09C122.255 33.09 119.52 30.3293 118.041 29.1023C115.752 27.234 113.296 25.6445 110.784 24.2502C107.406 22.4097 103.862 20.9039 100.428 19.6211C96.437 18.1153 94.0366 22.9395 90.1289 21.9356L102.829 30.1899Z" fill="#945339"/>
<path d="M110.783 24.2517C117.817 29.9404 123.511 36.9119 123.511 36.9119C131.55 23.6382 128.2 13.655 123.958 7.57593C123.26 6.93455 122.478 6.29318 121.641 5.67969C124.683 11.5078 129.568 20.9054 122.255 33.0636C122.255 33.0636 119.52 30.3029 118.04 29.0759C115.752 27.2076 113.295 25.6181 110.783 24.2517Z" fill="#AD6946"/>
<path d="M100.652 18.591C110.617 20.7103 115.948 25.1442 118.46 28.0164C119.577 23.7499 119.465 18.0333 113.157 14.1571C112.822 13.9619 112.487 13.7667 112.18 13.5994C111.957 13.4879 111.761 13.3763 111.538 13.2927C105.09 13.1532 100.652 18.591 100.652 18.591Z" fill="#ECD09C"/>
<path d="M82.9277 17.2798L83.1231 17.4192L84.7141 17.3077C84.7141 17.3077 87.5611 11.2007 92.7806 6.85049C98.028 2.50029 106.402 0.325192 113.491 2.94646C120.609 5.56774 129.289 13.2085 129.596 22.0483C129.903 30.1631 126.135 38.975 125.521 40.3693C128.508 35.5729 138.026 17.726 121.614 5.70717C120.804 5.12156 119.911 4.53596 118.962 3.95036C118.794 3.8667 118.655 3.78304 118.487 3.6715H118.46C95.0415 -9.57429 82.9277 17.2798 82.9277 17.2798Z" fill="#D59A77"/>
<path d="M94.7344 19.8731L96.1579 20.6818C101.964 12.6785 107.993 12.3718 112.151 13.6267C102.913 8.80241 96.6603 16.8335 94.7344 19.8731Z" fill="#C59F6D"/>
<path d="M134.983 65.717C134.983 65.7449 134.983 65.7449 134.983 65.7728C134.983 65.968 134.983 66.1632 134.983 66.3584C134.983 66.4142 134.983 66.47 134.983 66.5257C134.983 66.693 134.983 66.8882 134.955 67.0556C134.955 67.2786 134.927 67.5017 134.9 67.7248C134.844 68.2268 134.816 68.7008 134.732 69.1749C134.704 69.3422 134.676 69.5374 134.648 69.7047C134.397 71.4615 133.978 73.1347 133.42 74.7799C133.392 74.8636 133.364 74.9473 133.337 75.0309C133.337 75.0588 133.309 75.1146 133.309 75.1425C133.281 75.254 133.225 75.3934 133.169 75.505C133.085 75.7002 133.029 75.9233 132.946 76.1185C132.722 76.7041 132.471 77.2618 132.22 77.8474C132.164 77.9589 132.108 78.0984 132.053 78.2099C131.969 78.3772 131.885 78.5445 131.801 78.7118C131.746 78.8234 131.69 78.9628 131.606 79.0744C131.466 79.3532 131.327 79.66 131.159 79.9388C131.104 80.0783 131.02 80.1898 130.964 80.3013C130.964 80.3292 130.936 80.3292 130.936 80.3571C130.852 80.5244 130.741 80.7196 130.629 80.8869C130.629 80.9148 130.601 80.9148 130.601 80.9427C130.489 81.1379 130.378 81.3052 130.294 81.4726C130.182 81.6956 130.043 81.8908 129.903 82.1139C129.82 82.2534 129.708 82.4207 129.624 82.5601C129.122 83.3409 128.564 84.1217 128.005 84.8746C127.894 85.0141 127.782 85.1814 127.67 85.3208C127.559 85.4881 127.419 85.6275 127.308 85.7949C127.252 85.8785 127.168 85.9622 127.112 86.0458C127.001 86.2132 126.861 86.3526 126.749 86.5199C126.526 86.7709 126.331 87.0497 126.107 87.3007C125.856 87.5796 125.633 87.8584 125.382 88.1373C125.27 88.2767 125.13 88.4161 125.019 88.5277C124.879 88.695 124.712 88.8623 124.572 89.0017C124.461 89.1412 124.321 89.2527 124.209 89.3921C124.098 89.5316 123.958 89.6431 123.846 89.7825C123.791 89.8383 123.735 89.8941 123.679 89.9499C123.539 90.1172 123.372 90.2566 123.204 90.4239C122.423 91.2047 121.641 91.9576 120.804 92.6827C120.804 92.6827 107.686 102.945 89.9056 107.908C72.7398 112.733 63.3335 112.956 53.2015 112.398C52.1688 112.342 51.0802 112.147 50.0196 111.896C47.7866 111.366 45.7491 110.613 45.1071 110.39C45.0792 110.39 45.0513 110.362 45.0233 110.362C44.8838 110.307 44.7163 110.251 44.5767 110.195C44.4372 110.139 44.2697 110.083 44.1302 110.028C43.6836 109.86 43.237 109.693 42.8183 109.498C42.6787 109.442 42.5392 109.386 42.3996 109.331H42.3717C42.2322 109.275 42.0926 109.219 41.953 109.135C39.8038 108.187 37.7383 107.044 35.8124 105.65C35.6729 105.566 35.5612 105.454 35.4217 105.371C34.7797 104.897 34.1377 104.367 33.4957 103.837C33.3562 103.725 33.2445 103.642 33.1329 103.502C33.0212 103.391 32.8817 103.279 32.77 103.168C32.6584 103.056 32.5467 102.945 32.4072 102.833C32.1281 102.582 31.8768 102.331 31.6256 102.052C31.5419 101.969 31.4582 101.857 31.3465 101.773C31.2349 101.662 31.1232 101.522 31.0116 101.411C30.8999 101.299 30.7883 101.16 30.6766 101.021C30.565 100.909 30.4533 100.77 30.3417 100.658C30.2021 100.491 30.0905 100.351 29.9509 100.184C29.8951 100.1 29.8114 100.017 29.7555 99.933C29.616 99.7657 29.5043 99.5984 29.3648 99.4589C29.309 99.3753 29.2252 99.2916 29.1694 99.208C29.0857 99.0964 29.0298 99.0128 28.9461 98.9012C28.8624 98.7897 28.7786 98.6502 28.667 98.5108C28.3599 98.0925 28.0808 97.6464 27.7738 97.1723C27.6901 97.0329 27.6063 96.9213 27.5226 96.7819C27.4389 96.6146 27.3272 96.4473 27.2435 96.3078C27.1597 96.1684 27.076 96.029 27.0202 95.8895C26.9364 95.7501 26.8806 95.6386 26.7969 95.4991C26.7131 95.3318 26.6294 95.1924 26.5457 95.0251C26.4619 94.8578 26.3782 94.7183 26.2945 94.551C25.0943 92.1528 24.1453 89.42 23.4475 86.4083C23.1963 85.2371 22.945 84.0938 22.7497 82.9505C22.6659 82.5601 22.6101 82.1418 22.5543 81.7514C22.4705 81.3052 22.4147 80.8591 22.3589 80.4129C22.331 80.134 22.2752 79.8552 22.2472 79.5763C22.1077 78.4888 21.996 77.4012 21.8844 76.3137C21.8286 75.6444 21.7727 74.9473 21.7448 74.278V74.2501C21.6332 72.326 21.6332 70.4576 21.689 68.6729C22.3031 50.9654 30.7883 38.4447 41.7856 30.2741C47.7587 25.9239 54.4296 22.8007 61.0448 20.765C61.603 20.5977 63.5568 20.0121 63.9755 19.8727C82.2578 14.0445 106.15 14.9926 122.451 35.2935C123.763 36.9388 125.019 38.6956 126.247 40.5919C126.61 41.1496 126.945 41.7073 127.308 42.2929C127.391 42.4602 127.503 42.6275 127.587 42.7948C128.982 45.193 130.294 47.7864 131.522 50.575C131.829 51.3 132.136 52.0251 132.443 52.778C132.527 53.0011 132.611 53.2242 132.695 53.4194C132.778 53.6146 132.834 53.8098 132.918 53.9771C132.918 54.005 132.946 54.0329 132.946 54.0607C132.946 54.0607 132.946 54.0886 132.974 54.0886C133.057 54.2838 133.113 54.479 133.169 54.7021C133.197 54.7579 133.225 54.8415 133.225 54.8973C133.281 55.0925 133.364 55.2877 133.42 55.4829C133.42 55.5387 133.448 55.5945 133.476 55.6502C133.56 55.8733 133.616 56.0964 133.699 56.3474C133.755 56.5984 133.839 56.8214 133.895 57.0724V57.1282C133.951 57.3792 134.034 57.6022 134.09 57.8532C134.146 58.0484 134.202 58.2436 134.23 58.4667C134.258 58.5504 134.286 58.6619 134.286 58.7456C134.341 58.9408 134.369 59.136 134.397 59.3033C134.397 59.3033 134.397 59.3312 134.397 59.3591C134.453 59.61 134.481 59.8331 134.537 60.0562C134.565 60.2793 134.62 60.5024 134.648 60.7255C134.648 60.7812 134.648 60.8091 134.676 60.8649C134.704 61.088 134.732 61.2832 134.76 61.5063C134.788 61.7294 134.816 61.9246 134.844 62.1476C134.844 62.2313 134.872 62.315 134.872 62.3986C134.9 62.5659 134.9 62.7611 134.927 62.9284C134.927 62.9563 134.927 62.9563 134.927 62.9842C134.955 63.2073 134.955 63.4304 134.983 63.6535C134.983 63.8766 135.011 64.1275 135.011 64.3506C135.011 64.5737 135.011 64.8247 135.011 65.0478C134.983 65.243 134.983 65.4939 134.983 65.717Z" fill="#B6724D"/>
<path d="M133.337 75.0594C133.337 75.0873 133.309 75.1431 133.309 75.171C133.253 75.2825 133.225 75.422 133.169 75.5335C133.085 75.7287 133.029 75.9518 132.946 76.147C132.722 76.7047 129.987 98.5115 95.4322 107.435C93.7575 107.853 92.0269 108.272 90.2127 108.634C72.7398 112.148 64.8966 113.179 54.7646 112.65C52.5316 112.538 51.0523 112.176 49.9917 111.952C47.7587 111.423 45.7211 110.67 45.0792 110.447C45.0513 110.447 45.0233 110.419 44.9954 110.419C44.8559 110.363 44.6884 110.307 44.5488 110.251C44.4093 110.196 44.2418 110.14 44.1022 110.084C43.6557 109.917 43.2091 109.749 42.7904 109.554C42.6508 109.498 42.5113 109.443 42.3717 109.387H42.3438C42.2042 109.331 42.0647 109.275 41.9251 109.192C39.7759 108.244 37.7104 107.1 35.7845 105.706C35.6449 105.622 35.5333 105.511 35.3937 105.427C34.7239 104.953 34.1098 104.423 33.4678 103.893C33.3283 103.782 33.2166 103.698 33.105 103.559C32.9933 103.447 32.8538 103.336 32.7421 103.224C32.6305 103.113 32.5188 103.001 32.3793 102.89C32.1001 102.639 31.8489 102.388 31.5977 102.109C31.514 102.025 31.4303 101.914 31.3186 101.83C31.207 101.718 31.0953 101.579 30.9837 101.467C30.872 101.356 30.7604 101.216 30.6487 101.077C30.5371 100.965 30.4254 100.826 30.3138 100.714C30.1742 100.547 30.0626 100.408 29.923 100.24C29.8672 100.157 29.7835 100.073 29.7276 99.9894C29.5881 99.8221 29.4764 99.6548 29.3369 99.5154C29.281 99.4317 29.2252 99.348 29.1694 99.2644C29.0857 99.1528 29.0298 99.0692 28.9461 98.9576C28.8624 98.8461 28.7786 98.7067 28.667 98.5672C28.3599 98.1489 28.0808 97.7028 27.7738 97.2287C27.6901 97.0893 27.6063 96.9777 27.5226 96.8383C27.4389 96.671 27.3272 96.5037 27.2435 96.3643C27.1597 96.2248 27.076 96.0854 27.0202 95.946C26.9364 95.8065 26.8806 95.695 26.7969 95.5556C26.7131 95.3882 26.6294 95.2488 26.5457 95.0815C26.4619 94.9142 26.3782 94.7747 26.2945 94.6074C25.0943 92.1814 24.1453 89.4764 23.4475 86.4648C23.1963 85.2936 22.945 84.1502 22.7497 83.0069C22.6659 82.6165 22.6101 82.1982 22.5543 81.8078C22.4705 81.3616 22.4147 80.9155 22.3589 80.4693C22.331 80.1904 22.2752 79.9116 22.2472 79.6327C22.1077 78.5452 21.996 77.4576 21.8844 76.3701C21.8286 75.7008 21.7727 75.0037 21.7448 74.3344V74.3065C21.6332 72.3824 21.6332 70.514 21.689 68.7294C22.1356 55.7067 26.8527 45.5004 33.6632 37.776C36.1195 34.9875 38.8548 32.5056 41.7856 30.3584C36.3707 40.5089 26.4899 65.6619 44.5488 90.2572C57.7232 108.188 108.551 112.371 133.337 75.0594Z" fill="#AD6946"/>
<path d="M95.4322 107.435C93.7575 107.854 92.0269 108.272 90.2127 108.634C72.7398 112.148 64.8966 113.18 54.7646 112.65C52.5316 112.538 51.0523 112.176 49.9917 111.953C47.7587 111.423 45.7211 110.67 45.0792 110.447C45.0513 110.447 45.0233 110.419 44.9954 110.419C44.8559 110.363 44.6884 110.308 44.5488 110.252C44.4093 110.196 44.2418 110.14 44.1022 110.084C43.6557 109.917 43.2091 109.75 42.7904 109.555C42.6508 109.499 42.5113 109.443 42.3717 109.387H42.3438C42.2042 109.332 42.0647 109.276 41.9251 109.192C39.7759 108.244 37.7104 107.101 35.7845 105.706C35.6449 105.623 35.5333 105.511 35.3937 105.428C34.7239 104.953 34.1098 104.424 33.4678 103.894C33.3283 103.782 33.2166 103.699 33.105 103.559C32.9933 103.448 32.8538 103.336 32.7421 103.225C32.6305 103.113 32.5188 103.001 32.3793 102.89C32.1001 102.639 31.8489 102.388 31.5977 102.109C31.514 102.025 31.4303 101.914 31.3186 101.83C31.207 101.719 31.0953 101.579 30.9837 101.468C30.872 101.356 30.7604 101.217 30.6487 101.077C30.5371 100.966 30.4254 100.826 30.3138 100.715C30.1742 100.547 30.0626 100.408 29.923 100.241C29.8672 100.157 29.7835 100.073 29.7276 99.9898C29.5881 99.8224 29.4764 99.6551 29.3369 99.5157C29.281 99.432 29.2252 99.3484 29.1694 99.2647C29.0857 99.1532 29.0298 99.0695 28.9461 98.958C28.8624 98.8464 28.7786 98.707 28.667 98.5676C28.3599 98.1493 28.0808 97.7031 27.7738 97.2291C27.6901 97.0896 27.6063 96.9781 27.5226 96.8386C27.4389 96.6713 27.3272 96.504 27.2435 96.3646C27.1597 96.2252 27.076 96.0857 27.0202 95.9463C26.9364 95.8069 26.8806 95.6953 26.7969 95.5559C26.7131 95.3886 26.6294 95.2492 26.5457 95.0818C26.4619 94.9145 26.3782 94.7751 26.2945 94.6078C25.0943 92.1817 24.1453 89.4768 23.4475 86.4651C23.1963 85.2939 22.945 84.1506 22.7497 83.0073C22.6659 82.6169 22.6101 82.1986 22.5543 81.8082C22.4705 81.362 22.4147 80.9158 22.3589 80.4696C22.331 80.1908 22.2752 79.9119 22.2472 79.6331C22.1077 78.5455 21.996 77.458 21.8844 76.3704C21.8286 75.7012 21.7727 75.004 21.7448 74.3348V74.3069C21.6332 72.3827 21.6332 70.5144 21.689 68.7297C22.1356 55.707 26.8527 45.5008 33.6632 37.7764L28.1087 46.2537C28.1087 46.2537 19.6235 71.351 33.5236 93.1577C43.6557 108.913 73.326 110.921 95.4322 107.435Z" fill="#945339"/>
<path d="M64.2545 19.2871C38.9384 26.0912 22.6658 41.4564 21.7168 68.7287C23.0007 59.2475 25.4849 37.636 50.1032 26.6211C86.8073 10.1684 111.286 19.789 124.125 43.1574C131.857 57.2398 135.011 70.2904 130.657 80.9149C120.413 105.956 92.9758 107.044 83.9324 109.86C85.7187 109.414 90.4917 108.633 92.5292 108.243C109.835 104.702 120.385 96.4752 120.385 96.4752C142.324 78.935 135.904 54.3675 125.744 39.3928C113.826 21.8247 94.3993 11.1723 64.2545 19.2871Z" fill="#D59A77"/>
<path d="M48.846 111.675C47.7295 111.396 45.7478 110.643 45.0221 110.392C44.8825 110.336 44.715 110.28 44.5755 110.225C44.4359 110.169 44.2685 110.113 44.1289 110.057C43.6823 109.89 43.2357 109.723 42.817 109.527C42.6775 109.472 42.5379 109.416 42.3984 109.36H42.3704C42.2309 109.304 42.0913 109.249 41.9518 109.165C39.8026 108.217 37.7371 107.073 35.8112 105.707C35.6716 105.623 35.56 105.512 35.4204 105.428C34.7505 104.954 34.1364 104.424 33.4945 103.894C33.3828 103.783 33.2433 103.671 33.1316 103.56C33.02 103.448 32.8804 103.337 32.7688 103.225C32.6571 103.114 32.5176 103.002 32.4059 102.891C32.1547 102.64 31.8756 102.389 31.6244 102.11C31.5406 102.026 31.4569 101.915 31.3453 101.831C31.2336 101.719 31.122 101.58 31.0103 101.468C30.8987 101.329 30.787 101.217 30.6754 101.078C30.5637 100.966 30.4521 100.827 30.3404 100.715C30.145 100.492 29.9497 100.241 29.7543 99.9904C29.6147 99.8231 29.5031 99.6558 29.3635 99.5163C29.3077 99.4327 29.2519 99.349 29.196 99.2654C29.1123 99.1538 29.0565 99.0702 28.9727 98.9586C28.889 98.8192 28.7774 98.7076 28.6936 98.5682C28.3866 98.122 28.1075 97.7038 27.8004 97.2297C27.7167 97.0903 27.633 96.9787 27.5492 96.8393C27.4655 96.672 27.3539 96.5325 27.2701 96.3652C27.1864 96.2258 27.1027 96.0864 27.0468 95.9469C26.9631 95.8075 26.9073 95.696 26.8235 95.5565C26.7398 95.3892 26.6561 95.2498 26.5723 95.0825C26.4886 94.9152 26.4049 94.7757 26.3211 94.6084C25.1209 92.1823 24.1719 89.4774 23.4741 86.4657C23.2229 85.2945 22.9717 84.1512 22.7763 83.0079C22.6926 82.6175 22.6368 82.1992 22.5809 81.8088C22.4972 81.3626 22.4414 80.9165 22.3855 80.4703C22.3576 80.1914 22.3018 79.9126 22.2739 79.6337C22.0227 77.8211 21.8831 76.0643 21.7715 74.3633C21.911 75.8133 22.1623 77.9327 22.6088 80.3866C22.888 81.7809 23.2229 83.3146 23.6416 84.9041C24.8976 89.5332 26.9631 94.6363 30.2567 98.875C36.7043 107.101 51.079 112.177 60.0666 112.678C59.5083 112.734 55.1262 113.264 48.846 111.675Z" fill="#AD6946"/>
<path d="M67.4081 63.3197C65.6218 65.8573 62.1328 66.4708 59.6207 64.6861C57.3878 63.1245 56.6341 60.1965 57.7227 57.7983C57.8623 57.4916 58.0297 57.1848 58.2251 56.906C60.0115 54.3684 63.5005 53.7549 66.0404 55.5396C67.771 56.7665 68.6083 58.7743 68.385 60.7263C68.2734 61.6466 67.9664 62.5389 67.4081 63.3197Z" fill="#333132"/>
<path d="M67.8555 61.646C66.0692 64.1836 62.5802 64.7971 60.0402 63.0124C58.3097 61.7854 57.4723 59.7777 57.6956 57.8257C57.8352 57.5189 58.0026 57.2122 58.198 56.9333C59.9844 54.3957 63.4734 53.7822 66.0134 55.5669C67.7439 56.7939 68.5812 58.8017 68.3579 60.7537C68.2463 61.0604 68.0509 61.3393 67.8555 61.646Z" fill="#272425"/>
<path d="M63.9201 59.8617C65.0917 59.8617 66.0414 58.9128 66.0414 57.7424C66.0414 56.5719 65.0917 55.623 63.9201 55.623C62.7486 55.623 61.7988 56.5719 61.7988 57.7424C61.7988 58.9128 62.7486 59.8617 63.9201 59.8617Z" fill="white"/>
<path d="M62.8027 67.6412C62.7189 67.6412 62.6073 67.6134 62.5515 67.5576C62.384 67.4182 62.3282 67.1393 62.4956 66.972C64.8961 63.9603 68.9991 62.1477 69.1666 62.064C69.3899 61.9804 69.6132 62.064 69.7248 62.2871C69.8086 62.5102 69.7248 62.7333 69.5015 62.8449C69.4736 62.8727 65.3985 64.6853 63.1376 67.5018C63.026 67.5855 62.9143 67.6412 62.8027 67.6412Z" fill="#43281F"/>
<path d="M101.824 55.8452C98.8093 56.5423 95.7949 54.6461 95.125 51.6344C94.5109 48.9573 95.9344 46.3082 98.3627 45.2485C98.6698 45.1091 99.0047 44.9976 99.3397 44.9139C102.354 44.2168 105.369 46.113 106.038 49.1247C106.513 51.1882 105.759 53.2518 104.28 54.5624C103.61 55.1759 102.773 55.6221 101.824 55.8452Z" fill="#333132"/>
<path d="M103.443 54.8146C100.456 55.5954 97.3859 53.8107 96.6044 50.799C96.074 48.7634 96.7439 46.6719 98.1953 45.3055C98.5024 45.1661 98.8373 45.0267 99.1723 44.943C102.159 44.1622 105.229 45.9469 106.011 48.9586C106.541 50.9942 105.871 53.0857 104.42 54.4521C104.113 54.5915 103.778 54.731 103.443 54.8146Z" fill="#272425"/>
<path d="M102.522 51.0219C103.693 51.0219 104.643 50.073 104.643 48.9025C104.643 47.7321 103.693 46.7832 102.522 46.7832C101.35 46.7832 100.4 47.7321 100.4 48.9025C100.4 50.073 101.35 51.0219 102.522 51.0219Z" fill="white"/>
<path d="M104.029 57.4078C103.973 57.4078 103.89 57.38 103.834 57.3521C100.596 55.7068 96.1302 55.7626 96.1023 55.7626C95.879 55.7626 95.6836 55.5674 95.6836 55.3443C95.6836 55.1212 95.8511 54.926 96.1023 54.926C96.2977 54.926 100.791 54.8702 104.225 56.5991C104.42 56.7107 104.504 56.9617 104.42 57.1569C104.308 57.3242 104.169 57.4078 104.029 57.4078Z" fill="#43281F"/>
<path d="M92.161 91.0271C103.819 88.4168 111.536 78.5768 109.399 69.0489C107.262 59.521 96.0784 53.9132 84.4207 56.5236C72.763 59.1339 65.0452 68.9739 67.1826 78.5018C69.3201 88.0297 80.5032 93.6375 92.161 91.0271Z" fill="#AD6946"/>
<path d="M92.3519 97.7154C104.085 95.0882 111.864 85.2346 109.726 75.7067C107.589 66.1788 96.3446 60.5846 84.6116 63.2118C72.8786 65.839 65.0999 75.6926 67.2373 85.2206C69.3748 94.7485 80.6189 100.343 92.3519 97.7154Z" fill="#945339"/>
<path d="M73.4627 82.337C79.8266 91.7624 102.966 95.2203 111.367 77.4291C111.535 75.6723 111.423 73.8876 111.032 72.1029C110.753 70.7923 110.306 69.5653 109.776 68.3941C107.627 63.6535 103.608 60.0841 98.8625 58.3552C95.5689 57.1561 91.8846 56.8493 88.2281 57.658L81.4734 59.1638C77.7891 60.0004 74.6071 61.8409 72.123 64.3227C71.2298 65.2151 70.4203 66.219 69.7225 67.2786C68.9968 70.4297 68.941 75.7002 73.4627 82.337Z" fill="#ECD09C"/>
<path d="M73.4632 82.3362C68.9694 75.6714 68.9973 70.4289 69.7509 67.3057C69.6951 67.3893 69.6113 67.5009 69.5555 67.5845C67.2388 71.2097 66.1502 75.6157 66.7085 80.1053C66.7922 80.7188 66.9039 81.3323 67.0155 81.9736C69.3043 92.2078 77.9291 99.0677 93.1131 95.6935C99.5049 94.2713 104.557 90.925 107.711 86.6864C109.777 83.9256 111.033 80.7467 111.34 77.4561C102.938 95.2194 79.8271 91.7616 73.4632 82.3362Z" fill="#DCBD8A"/>
<path d="M91.7465 77.9873C91.5232 77.9873 91.3557 77.82 91.3278 77.6247C90.5742 71.0995 88.7041 67.3907 88.6762 67.3628C88.5645 67.1676 88.6483 66.9166 88.8716 66.8051C89.067 66.6935 89.3182 66.7772 89.4298 67.0003C89.5135 67.1676 91.3837 70.8764 92.1652 77.5411C92.1931 77.7642 92.0256 77.9873 91.8023 78.0151C91.7744 77.9873 91.7465 77.9873 91.7465 77.9873Z" fill="#43281F"/>
<path d="M76.1443 61.2549C74.4975 62.203 73.2136 63.2627 72.125 64.3502C73.074 65.7445 74.2463 66.9157 75.614 67.836C78.6006 69.8437 82.5361 70.5967 87.337 69.5091C89.4583 69.0351 91.3005 68.2821 92.8356 67.334C82.0616 68.6447 77.7911 64.2108 76.1443 61.2549Z" fill="#43281F"/>
<path d="M96.8532 63.486C97.8859 61.9523 98.5279 60.2234 98.8629 58.355C95.5693 57.1559 91.8849 56.4588 84.4045 58.1319C80.9434 58.9127 78.2639 60.0003 76.1426 61.2552C77.7894 64.2111 82.0878 68.6449 92.8339 67.3622C94.5365 66.3025 95.8763 64.9919 96.8532 63.486Z" fill="#5C392B"/>
<path d="M80.8885 60.753C81.1676 60.6136 81.4188 60.4742 81.6979 60.3626C81.977 60.2511 82.2561 60.1395 82.5073 60.028C83.0656 59.8328 83.6238 59.6376 84.1821 59.4982C85.2985 59.1914 86.4708 58.9683 87.6431 58.8289C88.8154 58.6895 90.0156 58.6616 91.2158 58.7174C92.416 58.801 93.6163 59.0241 94.7886 59.4424C95.3468 59.6376 95.6259 60.2511 95.4305 60.8088C95.291 61.2271 94.9002 61.4781 94.5094 61.5059H94.4536C93.365 61.5617 92.3323 61.6175 91.2717 61.7011C90.211 61.7848 89.1504 61.8963 88.0618 62.0079L84.824 62.3983L83.1772 62.5935C82.8981 62.6214 82.619 62.6493 82.3399 62.6772C82.0608 62.705 81.7816 62.7329 81.5304 62.7608H81.4746C80.8885 62.7887 80.386 62.3425 80.3581 61.7569C80.3023 61.3386 80.5256 60.9482 80.8885 60.753Z" fill="white"/>
<path d="M95.2902 85.628C94.7878 86.2972 94.1179 86.8271 93.1689 87.1896C91.4942 87.8589 87.7261 87.2454 85.4373 83.0346C85.3536 82.8673 85.2419 82.7 85.1582 82.5326C83.2881 79.1306 82.0879 77.4574 82.0879 77.4574C82.0879 77.4574 91.6058 79.8556 96.9649 74.7246C96.9649 74.7246 96.63 77.5411 96.5462 80.1345C96.4904 82.5884 96.2113 84.3731 95.2902 85.628Z" fill="#43281F"/>
<path d="M95.2902 85.6274C94.7878 86.2966 94.1179 86.8265 93.1689 87.189C91.4942 87.8582 87.7261 87.2447 85.4373 83.034C85.3536 82.8667 85.2419 82.6993 85.1582 82.532C85.7723 82.3926 86.498 82.2811 87.2516 82.2253C89.5125 82.0859 92.2478 82.532 94.5366 84.7908C94.8157 85.0418 95.0669 85.3206 95.2902 85.6274Z" fill="#C45D69"/>
<path d="M94.5649 84.7907C93.7834 87.3562 88.3685 86.5196 87.3637 83.6474C87.1404 83.006 87.1683 82.5319 87.2799 82.1973C89.5408 82.0857 92.2761 82.5319 94.5649 84.7907Z" fill="#D67679"/>
<path d="M87.4201 78.4331C83.2612 78.4331 79.8001 77.0109 79.6048 76.9272C79.3815 76.8436 79.2977 76.5926 79.3815 76.3695C79.4652 76.1464 79.7164 76.0628 79.9397 76.1464C79.9955 76.1743 85.9407 78.6283 91.4394 77.0667C96.1007 75.756 97.8033 73.1905 97.8312 73.1626C97.9428 72.9674 98.222 72.9117 98.4173 73.0511C98.6127 73.1626 98.6686 73.4415 98.5569 73.6367C98.4732 73.7482 96.6868 76.481 91.6906 77.9032C90.2392 78.2657 88.7878 78.4331 87.4201 78.4331Z" fill="#43281F"/>
<path d="M23.1948 163.96C14.5143 168.087 5.72201 166.804 1.28402 162.593C-0.0836608 159.665 -0.251132 156.877 0.279194 154.339C1.28402 149.598 4.85674 145.722 7.98287 143.491C13.5652 139.504 20.3478 133.452 29.8658 124.975C33.271 121.936 36.453 119.342 39.2442 117.195C40.4723 116.247 41.6446 115.382 42.7332 114.602C42.7332 114.602 49.767 110.921 49.9903 118.812C50.2136 127.094 41.1143 155.454 23.1948 163.96Z" fill="#AD6946"/>
<path d="M37.9324 142.627C27.9958 160.418 2.28895 165.326 0.279297 154.339C1.28412 149.598 4.85684 145.722 7.98297 143.491C13.5653 139.503 20.3479 133.452 29.8659 124.975C33.2711 121.935 36.4531 119.342 39.2443 117.195C39.2443 117.195 42.7612 115.438 44.1847 116.107C48.8739 118.394 49.2646 122.354 37.9324 142.627Z" fill="#B6724D"/>
<path d="M92.4759 162.649C91.834 168.059 89.294 175.616 81.0879 181.862C80.753 182.113 80.3901 182.364 80.0552 182.615C67.132 189.726 54.5158 187.551 45.6398 178.098C44.5792 176.954 43.5464 175.727 42.5974 174.361C36.5685 165.856 36.094 155.231 40.2528 146.838C40.6157 146.085 41.0344 145.36 41.481 144.663C42.8207 142.515 44.4954 140.535 46.5051 138.862C47.2308 138.249 47.9844 137.663 48.766 137.133C58.7305 130.218 72.6027 129.66 82.1765 137.524C85.1909 139.978 87.3123 142.543 88.8195 144.969C89.0149 145.248 89.1823 145.527 89.3219 145.834C90.1313 147.228 90.7175 148.539 91.1641 149.738C91.2478 149.989 91.3595 150.268 91.4432 150.519C91.5269 150.77 91.6107 151.021 91.6665 151.244C91.7781 151.606 91.8619 151.941 91.9456 152.275C91.9735 152.415 92.0014 152.526 92.0294 152.638C92.4201 154.451 92.4201 155.594 92.4201 155.65C92.3643 155.65 92.9784 158.494 92.4759 162.649Z" fill="#B6724D"/>
<path d="M92.474 163.206C91.6925 168.979 88.8734 175.95 81.086 181.862C80.751 182.113 80.3882 182.364 80.0532 182.615C67.13 189.726 54.5138 187.551 45.6379 178.098C44.5772 176.954 43.5445 175.727 42.5955 174.361C36.5665 165.856 36.092 155.231 40.2509 146.837C39.8601 149.431 39.888 152.359 40.3067 155.315C41.4232 163.067 45.3867 171.21 52.4484 175.532C56.5514 178.042 61.7151 179.241 67.9953 178.321C68.3861 178.265 68.7489 178.209 69.1397 178.125C75.5315 176.926 80.1649 173.357 83.3747 168.923C87.7569 162.872 89.5433 155.231 89.627 149.821C89.6549 148.26 89.5153 146.893 89.292 145.806C90.1015 147.2 90.6876 148.511 91.1342 149.71C91.2459 149.961 91.3296 150.24 91.4133 150.49C91.4971 150.741 91.5808 150.992 91.6366 151.216C91.7483 151.578 91.832 151.913 91.9158 152.247C91.9437 152.387 91.9716 152.498 91.9995 152.61C92.4182 154.618 93.116 158.55 92.474 163.206Z" fill="#AD6946"/>
<path d="M53.6214 144.244C47.7041 148.538 44.8571 155.454 45.4991 162.23C45.5549 162.732 45.6107 163.206 45.6945 163.708C46.3643 165.8 47.3692 167.835 48.7369 169.704C55.6311 179.185 68.9171 181.276 78.3792 174.388C80.0819 173.134 81.5612 171.683 82.7893 170.094C86.362 163.68 86.2504 155.565 81.8682 149.152C81.7566 148.984 81.6449 148.817 81.5054 148.65C75.0019 139.726 62.5253 137.774 53.6214 144.244Z" fill="#ECD09C"/>
<path d="M68.2463 170.568C67.9672 170.68 67.6601 170.652 67.4089 170.485L56.5791 163.374C55.2394 162.482 54.2904 161.059 53.9554 159.47C53.6484 157.908 53.9554 156.347 54.8486 155.064C56.6629 152.443 60.2914 151.718 62.943 153.474L64.9248 154.757L66.0413 153.14C66.9344 151.801 68.3858 150.881 69.9768 150.574C71.5399 150.295 73.103 150.63 74.3869 151.522C76.9827 153.363 77.6526 156.988 75.8662 159.637L68.665 170.234C68.5254 170.401 68.3858 170.513 68.2463 170.568ZM67.8834 169.732L67.6322 170.122L67.8834 169.732ZM57.8073 153.781C56.942 154.144 56.1605 154.729 55.5743 155.566C54.8207 156.653 54.5695 157.964 54.8207 159.303C55.0998 160.669 55.9092 161.868 57.0536 162.621L67.8834 169.732L75.0847 159.135C76.5919 156.904 76.0337 153.809 73.8287 152.275C72.768 151.522 71.4282 151.244 70.1164 151.467C68.7487 151.718 67.5206 152.498 66.767 153.642L65.4272 155.622C65.2876 155.817 65.0085 155.873 64.8131 155.733L62.4685 154.199C61.045 153.307 59.2866 153.196 57.8073 153.781Z" fill="#C59F6D"/>
<path d="M81.8404 149.152C86.2226 155.566 86.3621 163.709 82.7615 170.095C81.3938 172.549 79.4958 174.724 77.0675 176.48C68.1636 182.95 55.6591 180.998 49.1835 172.075C47.3135 169.509 46.1412 166.637 45.6387 163.681C45.555 163.179 45.4992 162.705 45.4434 162.203C48.4299 167.864 55.7428 177.512 69.615 172.521C81.9242 168.087 83.9338 156.403 81.8404 149.152Z" fill="#DCBD8A"/>
<path d="M48.7338 169.704C47.3661 167.836 46.3613 165.8 45.6914 163.709C46.1938 166.637 47.3661 169.509 49.2362 172.103C55.7118 180.998 68.1884 182.978 77.1202 176.509C79.5485 174.752 81.4465 172.549 82.8142 170.123C81.5861 171.712 80.1347 173.162 78.4041 174.417C68.8862 181.277 55.628 179.186 48.7338 169.704Z" fill="#C59F6D"/>
<path d="M92.4726 163.206C92.4726 163.011 92.4726 162.816 92.4726 162.621C92.4167 158.41 91.4119 153.948 89.6256 149.821C85.2713 139.838 74.1903 132.085 62.9976 133.452C45.2736 135.627 39.4679 150.853 39.1051 158.298C38.6027 168.588 45.5806 178.125 45.7202 178.097C45.7202 178.097 45.6923 178.097 45.6085 178.125C44.5479 176.982 43.5151 175.755 42.5661 174.388C36.5372 165.883 36.0068 155.231 40.2215 146.865C49.5162 128.432 71.0362 127.819 82.0335 137.077C85.0201 139.587 87.281 142.543 88.7882 144.941C88.9836 145.22 89.1511 145.499 89.2906 145.805C90.1001 147.2 90.6862 148.51 91.1328 149.709C91.2444 149.96 91.3282 150.239 91.4119 150.49C91.4957 150.741 91.5794 150.992 91.6352 151.215C91.7469 151.578 91.8306 151.912 91.9143 152.247C91.9422 152.386 91.9702 152.498 91.9981 152.609C92.4167 154.617 93.1145 158.549 92.4726 163.206Z" fill="#D59A77"/>
<path d="M42.7052 114.629C42.7052 114.629 29.1401 127.652 21.0735 135.069C9.9367 145.331 1.61896 149.291 3.37741 159.19C5.02421 168.337 10.9694 171.237 16.189 172.464C11.4998 172.102 7.06178 170.428 3.99147 166.775C2.79126 165.353 1.89808 163.959 1.28402 162.593C-0.0836607 159.665 -0.251132 156.876 0.279194 154.338C1.28402 149.598 4.85674 145.722 7.98287 143.491C13.5652 139.503 20.3478 133.452 29.8658 124.975C33.271 121.935 36.453 119.342 39.2442 117.194C40.4723 116.274 41.6167 115.41 42.7052 114.629Z" fill="#D59A77"/>
<path d="M166.968 158.047C164.651 169.732 156.501 176.368 146.508 178.265C140.423 179.324 130.403 175.783 131.017 159.86C131.017 159.86 140.535 180.189 157.478 164.907C171.685 152.08 135.595 144.969 135.595 144.969C135.595 144.969 137.493 134.01 145.727 128.349C148.155 126.676 150.416 125.784 152.454 125.365C155.105 125.839 157.45 126.76 159.459 128.07C166.996 133.034 169.843 143.63 166.968 158.047Z" fill="#B6724D"/>
<path d="M152.566 132.476C147.235 131.361 141.792 134.121 138.08 139.169C137.801 139.531 137.549 139.922 137.298 140.312C136.377 142.18 135.679 144.272 135.205 146.475C132.888 157.601 137.968 168.059 146.537 169.843C148.072 170.15 149.635 170.178 151.17 169.927C156.641 168.003 161.386 162.398 163.089 155.064C163.145 154.869 163.172 154.673 163.228 154.478C165.378 143.965 160.605 134.149 152.566 132.476Z" fill="#ECD09C"/>
<path d="M163.089 155.008C161.386 162.342 156.669 167.947 151.17 169.871C149.077 170.596 146.872 170.792 144.695 170.345C136.628 168.672 131.855 158.856 134.032 148.371C134.646 145.36 135.791 142.599 137.298 140.257C137.549 139.866 137.8 139.476 138.08 139.113C136.154 144.997 133.949 156.542 143.494 162.565C151.952 167.947 159.795 161.366 163.089 155.008Z" fill="#DCBD8A"/>
<path d="M135.232 146.447C135.679 144.244 136.404 142.18 137.325 140.284C135.818 142.627 134.702 145.359 134.06 148.399C131.883 158.856 136.656 168.7 144.722 170.373C146.899 170.819 149.104 170.624 151.198 169.899C149.662 170.15 148.127 170.15 146.564 169.815C137.995 168.031 132.915 157.573 135.232 146.447Z" fill="#C59F6D"/>
<path d="M154.771 161.004C154.632 161.004 154.492 160.976 154.353 160.892L149.329 157.63L143.83 160.307C143.69 160.39 143.495 160.39 143.327 160.363C143.188 160.335 143.076 160.279 142.993 160.195C142.769 160 142.685 159.693 142.741 159.414L144.249 153.14L140.313 148.427C140.118 148.204 140.09 147.898 140.173 147.619C140.285 147.34 140.536 147.145 140.843 147.117L146.816 146.531L149.915 140.926C150.054 140.647 150.361 140.508 150.64 140.508C150.947 140.536 151.199 140.731 151.31 141.01L153.487 146.894L159.321 148.149C159.6 148.204 159.851 148.455 159.907 148.734C159.963 149.013 159.879 149.32 159.656 149.515L155.023 153.754L155.525 160.139C155.553 160.446 155.413 160.725 155.162 160.892C155.078 160.976 154.939 161.004 154.771 161.004ZM149.356 156.765C149.44 156.765 149.496 156.793 149.58 156.821L154.743 160.167L154.213 153.586C154.213 153.475 154.241 153.335 154.353 153.252L159.154 148.874L153.152 147.591C153.013 147.563 152.901 147.479 152.873 147.34L150.64 141.317L147.458 147.033C147.403 147.145 147.291 147.228 147.151 147.228L140.955 147.842L145.03 152.722C145.114 152.805 145.142 152.945 145.114 153.084L143.551 159.526L149.189 156.793C149.245 156.765 149.301 156.765 149.356 156.765Z" fill="#C59F6D"/>
<path d="M147.429 125.393C145.085 125.699 142.74 127.373 142.74 127.373C149.495 124.891 157.366 126.425 161.888 132.03C171.434 143.909 164.791 167.891 157.868 173.356C162.362 169.926 165.433 164.796 166.996 158.075C170.931 141.232 164.93 123.022 147.429 125.393Z" fill="#D59A77"/>
<path d="M126.636 146.614C126.636 146.614 119.295 181.862 145.42 178.265C145.448 178.265 122.644 181.137 126.636 146.614Z" fill="#B6724D"/>
<path d="M77.9858 123.302C77.9858 123.302 87.2525 119.482 91.1881 111.06L94.2584 110.307C94.2584 110.307 102.157 118.562 112.429 117.307L109.135 112.482C109.135 112.482 96.603 109.164 96.3797 109.164C96.1564 109.164 91.7743 109.582 91.7743 109.582L82.4796 112.204L75.6133 121.378L77.9858 123.302Z" fill="#945339"/>
<path d="M66.4594 100.268C65.8174 100.77 65.3708 101.495 65.2871 102.359L66.7385 102.164L66.4594 100.268Z" fill="white"/>
<path d="M68.4127 99.5986C67.7708 99.5986 67.1567 99.7938 66.6543 100.128L68.4406 99.8775L68.4127 99.5986Z" fill="#71495A"/>
<path d="M69.5584 99.7107C69.3072 99.6828 69.056 99.6549 68.7769 99.5992C68.6653 99.5713 68.5257 99.5713 68.4141 99.5713L68.442 99.8501L69.5584 99.7107Z" fill="#D8BFB4"/>
<path d="M68.7472 101.886L68.4681 99.8779L66.6817 100.129C66.6259 100.185 66.5422 100.213 66.4863 100.268L66.7654 102.165L68.7472 101.886Z" fill="#D8BFB4"/>
<path d="M68.7484 101.885L70.7581 101.606L70.5069 99.8494C70.1999 99.7936 69.8928 99.7657 69.5579 99.71L68.4414 99.8773L68.7484 101.885Z" fill="white"/>
<path d="M72.7394 101.3L72.5719 100.184C71.902 100.045 71.2042 99.9333 70.4785 99.8496L70.7297 101.606L72.7394 101.3Z" fill="#D8BFB4"/>
<path d="M74.7474 101.02L74.6916 100.63C74.0217 100.462 73.296 100.323 72.5703 100.184L72.7378 101.299L74.7474 101.02Z" fill="white"/>
<path d="M75.7534 100.882C75.4185 100.798 75.0556 100.715 74.7207 100.631L74.7765 101.021L75.7534 100.882Z" fill="#D8BFB4"/>
<path d="M106.791 96.085C106.484 96.2523 106.205 96.4196 105.926 96.5869L106.847 96.4475L106.791 96.085Z" fill="white"/>
<path d="M108.856 96.1686L108.689 95.0811C108.019 95.4157 107.405 95.7503 106.791 96.085L106.847 96.4475L108.856 96.1686Z" fill="#D8BFB4"/>
<path d="M110.867 95.8617L110.615 94.1328C109.945 94.4396 109.304 94.7463 108.689 95.053L108.857 96.1406L110.867 95.8617Z" fill="white"/>
<path d="M112.543 93.3242C112.431 93.3521 112.347 93.38 112.235 93.4358C111.984 93.5473 111.761 93.631 111.51 93.7425L112.57 93.6031L112.543 93.3242Z" fill="#71495A"/>
<path d="M114.411 93.3241C113.825 93.1289 113.155 93.1289 112.541 93.3241L112.569 93.603L114.411 93.3241Z" fill="#D8BFB4"/>
<path d="M112.876 95.583L112.597 93.5752L111.536 93.7146C111.229 93.8541 110.922 93.9935 110.615 94.1329L110.866 95.8618L112.876 95.583Z" fill="#D8BFB4"/>
<path d="M112.877 95.583L114.886 95.3041L114.607 93.38C114.552 93.3521 114.496 93.3242 114.44 93.3242L112.598 93.5752L112.877 95.583Z" fill="white"/>
<path d="M116.366 95.0809C116.031 94.2722 115.361 93.6587 114.607 93.3799L114.887 95.304L116.366 95.0809Z" fill="#D8BFB4"/>
<path d="M66.7375 102.164L65.286 102.359C65.286 102.387 65.286 102.415 65.286 102.415C65.2302 103.001 65.1744 103.67 65.1465 104.423L67.0166 104.144L66.7375 102.164Z" fill="#D8BFB4"/>
<path d="M65.1465 105.315C65.1465 105.678 65.1465 106.096 65.1465 106.487L65.314 106.459L65.1465 105.315Z" fill="#D8BFB4"/>
<path d="M67.2963 106.18L67.0171 104.172L65.147 104.451C65.147 104.73 65.1191 105.008 65.1191 105.315L65.2866 106.459L67.2963 106.18Z" fill="white"/>
<path d="M68.7691 101.892L66.752 102.18L67.0401 104.195L69.0573 103.907L68.7691 101.892Z" fill="#71495A"/>
<path d="M70.7477 101.588L68.7305 101.876L69.0186 103.891L71.0358 103.603L70.7477 101.588Z" fill="#D8BFB4"/>
<path d="M69.0504 103.899L67.0332 104.187L67.3213 106.202L69.3385 105.914L69.0504 103.899Z" fill="#D8BFB4"/>
<path d="M71.0562 103.593L69.0391 103.881L69.3272 105.896L71.3444 105.608L71.0562 103.593Z" fill="white"/>
<path d="M72.7594 101.307L70.7422 101.595L71.0303 103.61L73.0475 103.322L72.7594 101.307Z" fill="#71495A"/>
<path d="M74.7691 101.029L72.752 101.316L73.0401 103.332L75.0572 103.044L74.7691 101.029Z" fill="#D8BFB4"/>
<path d="M73.066 103.314L71.0488 103.602L71.3369 105.617L73.3541 105.329L73.066 103.314Z" fill="#D8BFB4"/>
<path d="M75.0484 103.037L73.0312 103.325L73.3194 105.34L75.3365 105.053L75.0484 103.037Z" fill="white"/>
<path d="M75.0565 103.029L77.0661 102.75L76.8428 101.188C76.48 101.104 76.1171 100.993 75.7543 100.909L74.7773 101.049L75.0565 103.029Z" fill="#71495A"/>
<path d="M79.0454 102.47L78.9617 101.829C78.2918 101.606 77.5661 101.383 76.8125 101.188L77.0358 102.749L79.0454 102.47Z" fill="#D8BFB4"/>
<path d="M77.0582 102.758L75.041 103.046L75.3291 105.061L77.3463 104.773L77.0582 102.758Z" fill="#D8BFB4"/>
<path d="M79.066 102.45L77.0488 102.738L77.3369 104.754L79.3541 104.466L79.066 102.45Z" fill="white"/>
<path d="M80.3306 102.276C79.884 102.109 79.4374 101.969 78.9629 101.802L79.0466 102.443L80.3306 102.276Z" fill="#71495A"/>
<path d="M79.3547 104.451L81.3644 104.172L81.1411 102.555C80.8899 102.443 80.6108 102.36 80.3595 102.248L79.1035 102.415L79.3547 104.451Z" fill="#D8BFB4"/>
<path d="M83.3462 103.893L83.2904 103.474C82.6205 103.168 81.8948 102.861 81.1133 102.582L81.3366 104.199L83.3462 103.893Z" fill="white"/>
<path d="M84.0148 103.781C83.7915 103.669 83.5403 103.558 83.2891 103.446L83.3449 103.865L84.0148 103.781Z" fill="#D8BFB4"/>
<path d="M99.3395 101.216C99.1441 101.383 98.9766 101.55 98.7812 101.69L99.3953 101.606L99.3395 101.216Z" fill="white"/>
<path d="M103.023 98.3994C102.632 98.6783 102.269 98.9293 101.906 99.2081L103.134 99.0408L103.023 98.3994Z" fill="#D8BFB4"/>
<path d="M101.405 101.299L101.182 99.71C100.512 100.212 99.926 100.714 99.3398 101.188L99.3957 101.578L101.405 101.299Z" fill="#D8BFB4"/>
<path d="M103.415 101.021L103.135 99.0137L101.907 99.181C101.656 99.3483 101.405 99.5435 101.182 99.7108L101.405 101.3L103.415 101.021Z" fill="white"/>
<path d="M105.144 98.7335L104.921 97.1719C104.279 97.5902 103.637 97.9806 103.051 98.3989L103.135 99.0123L105.144 98.7335Z" fill="#71495A"/>
<path d="M107.127 98.4551L106.848 96.4473L105.927 96.5867C105.592 96.7819 105.257 96.9771 104.922 97.2002L105.145 98.7618L107.127 98.4551Z" fill="#D8BFB4"/>
<path d="M105.138 98.7434L103.121 99.0312L103.409 101.047L105.426 100.759L105.138 98.7434Z" fill="#D8BFB4"/>
<path d="M107.15 98.4622L105.133 98.75L105.421 100.765L107.438 100.477L107.15 98.4622Z" fill="white"/>
<path d="M108.877 96.1467L106.859 96.4346L107.147 98.4499L109.165 98.162L108.877 96.1467Z" fill="#71495A"/>
<path d="M110.886 95.8665L108.869 96.1543L109.157 98.1696L111.174 97.8818L110.886 95.8665Z" fill="#D8BFB4"/>
<path d="M109.156 98.1555L107.139 98.4434L107.427 100.459L109.444 100.171L109.156 98.1555Z" fill="#D8BFB4"/>
<path d="M111.168 97.8762L109.15 98.1641L109.439 100.179L111.456 99.8915L111.168 97.8762Z" fill="white"/>
<path d="M112.898 95.5881L110.881 95.876L111.169 97.8913L113.186 97.6034L112.898 95.5881Z" fill="#71495A"/>
<path d="M114.91 95.3069L112.893 95.5947L113.181 97.61L115.198 97.3222L114.91 95.3069Z" fill="#D8BFB4"/>
<path d="M113.179 97.5969L111.162 97.8848L111.45 99.9001L113.467 99.6122L113.179 97.5969Z" fill="#D8BFB4"/>
<path d="M115.187 97.3176L113.17 97.6055L113.458 99.6207L115.475 99.3329L115.187 97.3176Z" fill="white"/>
<path d="M115.166 97.3119L117.092 97.0331C116.868 96.3359 116.617 95.6945 116.422 95.1368C116.422 95.1089 116.394 95.1089 116.394 95.0811L114.887 95.3041L115.166 97.3119Z" fill="#71495A"/>
<path d="M115.444 99.3203L117.453 99.0414L117.23 97.5635C117.174 97.3962 117.118 97.2288 117.063 97.0615L115.137 97.3404L115.444 99.3203Z" fill="#D8BFB4"/>
<path d="M117.649 98.9843C117.51 98.4823 117.37 97.9804 117.23 97.5342L117.454 99.0121L117.649 98.9843Z" fill="white"/>
<path d="M65.314 106.458L65.1465 106.486C65.1465 107.127 65.2023 107.797 65.2302 108.522L65.5931 108.466L65.314 106.458Z" fill="#71495A"/>
<path d="M67.318 106.188L65.3008 106.476L65.5889 108.491L67.6061 108.203L67.318 106.188Z" fill="#D8BFB4"/>
<path d="M65.5933 108.466L65.2305 108.522C65.2863 109.163 65.3421 109.832 65.3979 110.529L65.8445 110.474L65.5933 108.466Z" fill="#D8BFB4"/>
<path d="M67.6246 108.193L65.6074 108.48L65.8955 110.496L67.9127 110.208L67.6246 108.193Z" fill="white"/>
<path d="M69.3219 105.881L67.3047 106.169L67.5928 108.184L69.61 107.896L69.3219 105.881Z" fill="#71495A"/>
<path d="M71.3336 105.602L69.3164 105.89L69.6045 107.905L71.6217 107.617L71.3336 105.602Z" fill="#D8BFB4"/>
<path d="M69.6031 107.89L67.5859 108.178L67.8741 110.193L69.8912 109.905L69.6031 107.89Z" fill="#D8BFB4"/>
<path d="M71.6149 107.611L69.5977 107.898L69.8858 109.914L71.903 109.626L71.6149 107.611Z" fill="white"/>
<path d="M73.3433 105.323L71.3262 105.61L71.6143 107.626L73.6315 107.338L73.3433 105.323Z" fill="#71495A"/>
<path d="M75.3551 105.042L73.3379 105.33L73.626 107.345L75.6432 107.058L75.3551 105.042Z" fill="#D8BFB4"/>
<path d="M73.6246 107.331L71.6074 107.619L71.8955 109.634L73.9127 109.347L73.6246 107.331Z" fill="#D8BFB4"/>
<path d="M75.6363 107.052L73.6191 107.34L73.9073 109.355L75.9244 109.067L75.6363 107.052Z" fill="white"/>
<path d="M77.361 104.736L75.3438 105.023L75.6319 107.039L77.6491 106.751L77.361 104.736Z" fill="#71495A"/>
<path d="M79.3473 104.459L77.3301 104.747L77.6182 106.762L79.6354 106.475L79.3473 104.459Z" fill="#D8BFB4"/>
<path d="M77.6422 106.743L75.625 107.031L75.9131 109.047L77.9303 108.759L77.6422 106.743Z" fill="#D8BFB4"/>
<path d="M79.6539 106.466L77.6367 106.754L77.9248 108.769L79.942 108.481L79.6539 106.466Z" fill="white"/>
<path d="M81.357 104.18L79.3398 104.468L79.628 106.483L81.6451 106.195L81.357 104.18Z" fill="#71495A"/>
<path d="M83.3687 103.902L81.3516 104.189L81.6397 106.205L83.6569 105.917L83.3687 103.902Z" fill="#D8BFB4"/>
<path d="M81.6656 106.184L79.6484 106.472L79.9365 108.487L81.9537 108.199L81.6656 106.184Z" fill="#D8BFB4"/>
<path d="M83.6422 105.882L81.625 106.17L81.9131 108.185L83.9303 107.897L83.6422 105.882Z" fill="white"/>
<path d="M83.6527 105.901L85.6624 105.622L85.4949 104.535C85.0204 104.284 84.5459 104.061 84.0156 103.81L83.3457 103.893L83.6527 105.901Z" fill="#71495A"/>
<path d="M87.0851 105.399C86.6106 105.12 86.0524 104.814 85.4941 104.507L85.6616 105.594L87.0851 105.399Z" fill="#D8BFB4"/>
<path d="M85.6539 105.603L83.6367 105.891L83.9248 107.906L85.942 107.618L85.6539 105.603Z" fill="#D8BFB4"/>
<path d="M85.9412 107.601L87.9509 107.323L87.7276 105.761C87.5322 105.649 87.3089 105.51 87.1135 105.398L85.6621 105.594L85.9412 107.601Z" fill="white"/>
<path d="M89.6824 107.071C89.1799 106.709 88.538 106.263 87.7285 105.761L87.9518 107.322L89.6824 107.071Z" fill="#D8BFB4"/>
<path d="M95.7371 104.674C95.1231 105.343 94.6486 105.957 94.2578 106.431L95.9325 106.18L95.7371 104.674Z" fill="white"/>
<path d="M97.5256 102.833C97.079 103.279 96.6603 103.697 96.2695 104.088L97.6652 103.893L97.5256 102.833Z" fill="#71495A"/>
<path d="M99.6746 103.614L99.3955 101.606L98.7814 101.69C98.3348 102.081 97.9162 102.471 97.5254 102.833L97.6649 103.893L99.6746 103.614Z" fill="#D8BFB4"/>
<path d="M97.9707 105.9L97.6915 103.893L96.2959 104.088C96.1006 104.283 95.9331 104.478 95.7656 104.673L95.9889 106.179L97.9707 105.9Z" fill="#D8BFB4"/>
<path d="M99.693 103.595L97.6758 103.883L97.9639 105.898L99.9811 105.61L99.693 103.595Z" fill="white"/>
<path d="M101.425 101.306L99.4082 101.594L99.6963 103.609L101.713 103.321L101.425 101.306Z" fill="#71495A"/>
<path d="M103.435 101.027L101.418 101.314L101.706 103.33L103.723 103.042L103.435 101.027Z" fill="#D8BFB4"/>
<path d="M101.705 103.315L99.6875 103.603L99.9756 105.618L101.993 105.33L101.705 103.315Z" fill="#D8BFB4"/>
<path d="M103.714 103.035L101.697 103.323L101.985 105.339L104.003 105.051L103.714 103.035Z" fill="white"/>
<path d="M105.447 100.746L103.43 101.034L103.718 103.049L105.735 102.762L105.447 100.746Z" fill="#71495A"/>
<path d="M107.453 100.44L105.436 100.728L105.724 102.743L107.741 102.455L107.453 100.44Z" fill="#D8BFB4"/>
<path d="M105.724 102.756L103.707 103.044L103.995 105.059L106.012 104.771L105.724 102.756Z" fill="#D8BFB4"/>
<path d="M107.732 102.448L105.715 102.736L106.003 104.752L108.02 104.464L107.732 102.448Z" fill="white"/>
<path d="M109.437 100.164L107.42 100.452L107.708 102.467L109.725 102.18L109.437 100.164Z" fill="#71495A"/>
<path d="M111.447 99.885L109.43 100.173L109.718 102.188L111.735 101.9L111.447 99.885Z" fill="#D8BFB4"/>
<path d="M109.744 102.169L107.727 102.457L108.015 104.472L110.032 104.185L109.744 102.169Z" fill="#D8BFB4"/>
<path d="M111.754 101.89L109.736 102.178L110.024 104.193L112.042 103.905L111.754 101.89Z" fill="white"/>
<path d="M113.457 99.6067L111.439 99.8945L111.728 101.91L113.745 101.622L113.457 99.6067Z" fill="#71495A"/>
<path d="M115.464 99.2991L113.447 99.5869L113.735 101.602L115.753 101.314L115.464 99.2991Z" fill="#D8BFB4"/>
<path d="M113.738 101.615L111.721 101.902L112.009 103.918L114.026 103.63L113.738 101.615Z" fill="#D8BFB4"/>
<path d="M115.744 101.307L113.727 101.595L114.015 103.61L116.032 103.322L115.744 101.307Z" fill="white"/>
<path d="M117.476 99.0188L115.459 99.3066L115.747 101.322L117.764 101.034L117.476 99.0188Z" fill="#71495A"/>
<path d="M117.732 101.021L118.123 100.965C117.956 100.268 117.816 99.5988 117.649 98.9854L117.453 99.0132L117.732 101.021Z" fill="#D8BFB4"/>
<path d="M117.755 101.027L115.738 101.314L116.026 103.33L118.044 103.042L117.755 101.027Z" fill="#D8BFB4"/>
<path d="M118.041 103.028L118.543 102.945C118.432 102.248 118.292 101.578 118.152 100.965L117.762 101.021L118.041 103.028Z" fill="white"/>
<path d="M65.8724 110.474L65.4258 110.529C65.5095 111.171 65.5933 111.84 65.677 112.537L66.1515 112.481L65.8724 110.474Z" fill="#71495A"/>
<path d="M67.9 110.175L65.8828 110.463L66.1709 112.478L68.1881 112.19L67.9 110.175Z" fill="#D8BFB4"/>
<path d="M66.1522 112.481L65.6777 112.537C65.7056 112.649 65.7056 112.732 65.7336 112.844C65.8173 113.43 65.901 114.015 65.9848 114.545L66.4593 114.489L66.1522 112.481Z" fill="#D8BFB4"/>
<path d="M68.1793 112.184L66.1621 112.472L66.4502 114.487L68.4674 114.199L68.1793 112.184Z" fill="white"/>
<path d="M69.9117 109.895L67.8945 110.183L68.1826 112.198L70.1998 111.91L69.9117 109.895Z" fill="#71495A"/>
<path d="M71.9215 109.615L69.9043 109.903L70.1924 111.919L72.2096 111.631L71.9215 109.615Z" fill="#D8BFB4"/>
<path d="M70.191 111.905L68.1738 112.192L68.4619 114.208L70.4791 113.92L70.191 111.905Z" fill="#D8BFB4"/>
<path d="M72.2027 111.624L70.1855 111.912L70.4737 113.927L72.4909 113.64L72.2027 111.624Z" fill="white"/>
<path d="M73.9058 109.34L71.8887 109.628L72.1768 111.643L74.194 111.355L73.9058 109.34Z" fill="#71495A"/>
<path d="M75.9117 109.032L73.8945 109.32L74.1826 111.336L76.1998 111.048L75.9117 109.032Z" fill="#D8BFB4"/>
<path d="M74.2125 111.345L72.1953 111.633L72.4834 113.648L74.5006 113.36L74.2125 111.345Z" fill="#D8BFB4"/>
<path d="M76.2203 111.037L74.2031 111.325L74.4912 113.341L76.5084 113.053L76.2203 111.037Z" fill="white"/>
<path d="M77.9235 108.753L75.9062 109.041L76.1944 111.056L78.2116 110.768L77.9235 108.753Z" fill="#71495A"/>
<path d="M79.9332 108.474L77.916 108.762L78.2041 110.777L80.2213 110.489L79.9332 108.474Z" fill="#D8BFB4"/>
<path d="M78.2027 110.762L76.1855 111.05L76.4737 113.065L78.4908 112.777L78.2027 110.762Z" fill="#D8BFB4"/>
<path d="M80.2125 110.483L78.1953 110.771L78.4834 112.786L80.5006 112.498L80.2125 110.483Z" fill="white"/>
<path d="M81.943 108.195L79.9258 108.482L80.2139 110.498L82.2311 110.21L81.943 108.195Z" fill="#71495A"/>
<path d="M83.9528 107.886L81.9355 108.174L82.2237 110.189L84.2409 109.901L83.9528 107.886Z" fill="#D8BFB4"/>
<path d="M82.2203 110.175L80.2031 110.463L80.4912 112.478L82.5084 112.19L82.2203 110.175Z" fill="#D8BFB4"/>
<path d="M84.2301 109.896L82.2129 110.184L82.501 112.199L84.5182 111.911L84.2301 109.896Z" fill="white"/>
<path d="M85.9625 107.608L83.9453 107.896L84.2334 109.911L86.2506 109.623L85.9625 107.608Z" fill="#71495A"/>
<path d="M87.943 107.331L85.9258 107.619L86.2139 109.634L88.2311 109.347L87.943 107.331Z" fill="#D8BFB4"/>
<path d="M86.2418 109.615L84.2246 109.903L84.5127 111.919L86.5299 111.631L86.2418 109.615Z" fill="#D8BFB4"/>
<path d="M88.2535 109.337L86.2363 109.625L86.5244 111.64L88.5416 111.352L88.2535 109.337Z" fill="white"/>
<path d="M88.2303 109.33L89.9887 109.079L89.7933 107.713C89.7654 107.545 89.8212 107.378 89.905 107.239C89.8212 107.183 89.7654 107.127 89.6817 107.071L87.9512 107.322L88.2303 109.33Z" fill="#71495A"/>
<path d="M88.2305 109.33L88.5096 111.338L90.268 111.087L90.0447 109.414L89.9889 109.079L88.2305 109.33Z" fill="#D8BFB4"/>
<path d="M94.4842 107.044L94.6796 108.411L96.2706 108.187L95.9914 106.18L94.3167 106.431C94.2609 106.486 94.233 106.542 94.2051 106.598C94.3167 106.682 94.4563 106.849 94.4842 107.044Z" fill="#D8BFB4"/>
<path d="M94.6777 108.41L94.7056 108.744L94.9569 110.417L96.5479 110.194L96.2408 108.187L94.6777 108.41Z" fill="white"/>
<path d="M97.9938 105.906L95.9766 106.194L96.2647 108.21L98.2819 107.922L97.9938 105.906Z" fill="#71495A"/>
<path d="M100.002 105.6L97.9844 105.888L98.2725 107.903L100.29 107.615L100.002 105.6Z" fill="#D8BFB4"/>
<path d="M98.2711 107.888L96.2539 108.176L96.542 110.191L98.5592 109.903L98.2711 107.888Z" fill="#D8BFB4"/>
<path d="M100.281 107.609L98.2637 107.896L98.5518 109.912L100.569 109.624L100.281 107.609Z" fill="white"/>
<path d="M102.011 105.321L99.9941 105.608L100.282 107.624L102.299 107.336L102.011 105.321Z" fill="#71495A"/>
<path d="M103.996 105.044L101.979 105.332L102.267 107.347L104.284 107.059L103.996 105.044Z" fill="#D8BFB4"/>
<path d="M102.293 107.329L100.275 107.617L100.564 109.632L102.581 109.345L102.293 107.329Z" fill="#D8BFB4"/>
<path d="M104.302 107.049L102.285 107.337L102.573 109.352L104.59 109.064L104.302 107.049Z" fill="white"/>
<path d="M106.004 104.738L103.986 105.025L104.274 107.041L106.292 106.753L106.004 104.738Z" fill="#71495A"/>
<path d="M108.013 104.458L105.996 104.746L106.284 106.761L108.301 106.474L108.013 104.458Z" fill="#D8BFB4"/>
<path d="M106.31 106.741L104.293 107.029L104.581 109.045L106.598 108.757L106.31 106.741Z" fill="#D8BFB4"/>
<path d="M108.293 106.467L106.275 106.755L106.564 108.77L108.581 108.482L108.293 106.467Z" fill="white"/>
<path d="M110.025 104.176L108.008 104.464L108.296 106.479L110.313 106.191L110.025 104.176Z" fill="#71495A"/>
<path d="M112.033 103.898L110.016 104.186L110.304 106.201L112.321 105.913L112.033 103.898Z" fill="#D8BFB4"/>
<path d="M110.302 106.188L108.285 106.476L108.573 108.491L110.59 108.203L110.302 106.188Z" fill="#D8BFB4"/>
<path d="M112.314 105.907L110.297 106.195L110.585 108.211L112.602 107.923L112.314 105.907Z" fill="white"/>
<path d="M114.041 103.592L112.023 103.88L112.312 105.895L114.329 105.607L114.041 103.592Z" fill="#71495A"/>
<path d="M116.052 103.311L114.035 103.599L114.323 105.614L116.34 105.326L116.052 103.311Z" fill="#D8BFB4"/>
<path d="M114.322 105.6L112.305 105.888L112.593 107.903L114.61 107.615L114.322 105.6Z" fill="#D8BFB4"/>
<path d="M116.332 105.321L114.314 105.608L114.603 107.624L116.62 107.336L116.332 105.321Z" fill="white"/>
<path d="M118.033 103.036L116.016 103.324L116.304 105.34L118.321 105.052L118.033 103.036Z" fill="#71495A"/>
<path d="M118.32 105.037L118.85 104.953C118.767 104.256 118.655 103.587 118.543 102.945L118.041 103.029L118.32 105.037Z" fill="#D8BFB4"/>
<path d="M118.341 105.041L116.324 105.329L116.612 107.344L118.63 107.057L118.341 105.041Z" fill="#D8BFB4"/>
<path d="M118.599 107.044L119.13 106.96C119.074 106.402 118.99 105.844 118.879 105.259C118.879 105.147 118.851 105.064 118.851 104.952L118.32 105.036L118.599 107.044Z" fill="white"/>
<path d="M66.4589 114.49L65.9844 114.546C66.096 115.243 66.2356 115.912 66.3472 116.526L66.738 116.47L66.4589 114.49Z" fill="#71495A"/>
<path d="M68.4586 114.193L66.4414 114.48L66.7295 116.496L68.7467 116.208L68.4586 114.193Z" fill="#D8BFB4"/>
<path d="M66.7365 116.498L66.3457 116.554C66.4853 117.251 66.6527 117.92 66.7923 118.534L67.0156 118.506L66.7365 116.498Z" fill="#D8BFB4"/>
<path d="M68.7672 116.198L66.75 116.485L67.0381 118.501L69.0553 118.213L68.7672 116.198Z" fill="white"/>
<path d="M70.4703 113.913L68.4531 114.201L68.7412 116.216L70.7584 115.929L70.4703 113.913Z" fill="#71495A"/>
<path d="M72.482 113.633L70.4648 113.921L70.753 115.936L72.7701 115.648L72.482 113.633Z" fill="#D8BFB4"/>
<path d="M70.7516 115.922L68.7344 116.21L69.0225 118.225L71.0397 117.937L70.7516 115.922Z" fill="#D8BFB4"/>
<path d="M72.7613 115.641L70.7441 115.929L71.0323 117.944L73.0495 117.656L72.7613 115.641Z" fill="white"/>
<path d="M74.4879 113.326L72.4707 113.614L72.7588 115.63L74.776 115.342L74.4879 113.326Z" fill="#71495A"/>
<path d="M76.4977 113.046L74.4805 113.334L74.7686 115.349L76.7858 115.061L76.4977 113.046Z" fill="#D8BFB4"/>
<path d="M74.7672 115.335L72.75 115.623L73.0381 117.638L75.0553 117.351L74.7672 115.335Z" fill="#D8BFB4"/>
<path d="M76.7789 115.055L74.7617 115.343L75.0498 117.358L77.067 117.07L76.7789 115.055Z" fill="white"/>
<path d="M78.5094 112.767L76.4922 113.055L76.7803 115.07L78.7975 114.782L78.5094 112.767Z" fill="#71495A"/>
<path d="M80.5211 112.488L78.5039 112.775L78.792 114.791L80.8092 114.503L80.5211 112.488Z" fill="#D8BFB4"/>
<path d="M78.7906 114.775L76.7734 115.062L77.0615 117.078L79.0787 116.79L78.7906 114.775Z" fill="#D8BFB4"/>
<path d="M80.7965 114.469L78.7793 114.757L79.0674 116.772L81.0846 116.484L80.7965 114.469Z" fill="white"/>
<path d="M82.4996 112.184L80.4824 112.472L80.7705 114.487L82.7877 114.199L82.4996 112.184Z" fill="#71495A"/>
<path d="M84.5094 111.905L82.4922 112.192L82.7803 114.208L84.7975 113.92L84.5094 111.905Z" fill="#D8BFB4"/>
<path d="M82.8082 114.19L80.791 114.478L81.0791 116.493L83.0963 116.205L82.8082 114.19Z" fill="#D8BFB4"/>
<path d="M84.818 113.908L82.8008 114.196L83.0889 116.212L85.1061 115.924L84.818 113.908Z" fill="white"/>
<path d="M86.5211 111.625L84.5039 111.913L84.792 113.928L86.8092 113.641L86.5211 111.625Z" fill="#71495A"/>
<path d="M88.5309 111.346L86.5137 111.634L86.8018 113.649L88.819 113.361L88.5309 111.346Z" fill="#D8BFB4"/>
<path d="M84.7969 113.904L85.076 115.912L86.6111 115.689C86.7507 115.549 86.8903 115.438 87.0298 115.298L86.7786 113.625L84.7969 113.904Z" fill="#D8BFB4"/>
<path d="M86.7793 113.625L87.0305 115.298C87.7283 114.656 88.3145 114.043 88.8169 113.485L88.789 113.346L86.7793 113.625Z" fill="white"/>
<path d="M90.2682 111.115L88.5098 111.338L88.7889 113.346L88.9564 113.318C89.5983 112.593 90.1007 111.98 90.4636 111.478C90.3799 111.394 90.2961 111.255 90.2682 111.115Z" fill="#71495A"/>
<path d="M88.8168 113.485C88.8724 113.429 88.9279 113.374 88.9557 113.318L88.7891 113.346L88.8168 113.485Z" fill="#D8BFB4"/>
<path d="M96.5469 110.194L94.956 110.417V110.445C94.9839 110.641 94.9281 110.808 94.8164 110.947C95.2909 111.31 95.9329 111.728 96.6865 112.23L96.7981 112.202L96.5469 110.194Z" fill="#D8BFB4"/>
<path d="M96.7148 112.203C96.7704 112.231 96.7981 112.259 96.8537 112.286V112.203H96.7148Z" fill="white"/>
<path d="M98.5504 109.897L96.5332 110.185L96.8213 112.2L98.8385 111.912L98.5504 109.897Z" fill="#71495A"/>
<path d="M100.56 109.617L98.543 109.905L98.8311 111.921L100.848 111.633L100.56 109.617Z" fill="#D8BFB4"/>
<path d="M96.8281 112.203V112.287C97.4701 112.677 98.2237 113.096 99.0611 113.542L98.8378 111.896L96.8281 112.203Z" fill="#D8BFB4"/>
<path d="M100.848 111.617L98.8379 111.896L99.0612 113.541C99.2566 113.625 99.424 113.737 99.6194 113.82L101.099 113.597L100.848 111.617Z" fill="white"/>
<path d="M102.57 109.338L100.553 109.626L100.841 111.641L102.858 111.353L102.57 109.338Z" fill="#71495A"/>
<path d="M104.578 109.031L102.561 109.319L102.849 111.335L104.866 111.047L104.578 109.031Z" fill="#D8BFB4"/>
<path d="M102.851 111.347L100.834 111.635L101.122 113.65L103.139 113.362L102.851 111.347Z" fill="#D8BFB4"/>
<path d="M104.859 111.039L102.842 111.327L103.13 113.342L105.147 113.055L104.859 111.039Z" fill="white"/>
<path d="M106.589 108.751L104.572 109.039L104.86 111.054L106.878 110.767L106.589 108.751Z" fill="#71495A"/>
<path d="M108.599 108.471L106.582 108.759L106.87 110.774L108.887 110.486L108.599 108.471Z" fill="#D8BFB4"/>
<path d="M106.871 110.758L104.854 111.046L105.142 113.061L107.159 112.773L106.871 110.758Z" fill="#D8BFB4"/>
<path d="M108.879 110.481L106.861 110.769L107.149 112.784L109.167 112.496L108.879 110.481Z" fill="white"/>
<path d="M110.582 108.196L108.564 108.483L108.853 110.499L110.87 110.211L110.582 108.196Z" fill="#71495A"/>
<path d="M112.589 107.889L110.572 108.177L110.86 110.192L112.878 109.904L112.589 107.889Z" fill="#D8BFB4"/>
<path d="M110.89 110.201L108.873 110.489L109.161 112.505L111.178 112.217L110.89 110.201Z" fill="#D8BFB4"/>
<path d="M112.898 109.894L110.881 110.182L111.169 112.197L113.186 111.909L112.898 109.894Z" fill="white"/>
<path d="M114.601 107.61L112.584 107.897L112.872 109.913L114.889 109.625L114.601 107.61Z" fill="#71495A"/>
<path d="M116.611 107.33L114.594 107.618L114.882 109.633L116.899 109.346L116.611 107.33Z" fill="#D8BFB4"/>
<path d="M114.879 109.618L112.861 109.906L113.149 111.922L115.167 111.634L114.879 109.618Z" fill="#D8BFB4"/>
<path d="M116.89 109.339L114.873 109.627L115.161 111.642L117.178 111.354L116.89 109.339Z" fill="white"/>
<path d="M118.623 107.05L116.605 107.338L116.894 109.353L118.911 109.065L118.623 107.05Z" fill="#71495A"/>
<path d="M118.877 109.052L119.323 108.996C119.268 108.355 119.212 107.685 119.128 106.988L118.598 107.072L118.877 109.052Z" fill="#D8BFB4"/>
<path d="M118.896 109.032L116.879 109.32L117.167 111.336L119.184 111.048L118.896 109.032Z" fill="#D8BFB4"/>
<path d="M119.185 111.06L119.464 111.032C119.437 110.39 119.409 109.721 119.353 108.996L118.906 109.052L119.185 111.06Z" fill="white"/>
<path d="M66.7949 118.533C66.9624 119.147 67.102 119.705 67.2694 120.234L67.0182 118.478L66.7949 118.533Z" fill="#71495A"/>
<path d="M69.0253 118.197L67.0156 118.476L67.2668 120.233C67.2947 120.317 67.3227 120.4 67.3506 120.484L69.3044 120.205L69.0253 118.197Z" fill="#D8BFB4"/>
<path d="M69.3073 120.206L67.3535 120.485C67.5768 121.21 67.8001 121.851 68.0234 122.437L69.6144 122.214L69.3073 120.206Z" fill="white"/>
<path d="M71.0582 117.926L69.041 118.214L69.3291 120.229L71.3463 119.941L71.0582 117.926Z" fill="#71495A"/>
<path d="M73.0641 117.619L71.0469 117.907L71.335 119.923L73.3522 119.635L73.0641 117.619Z" fill="#D8BFB4"/>
<path d="M71.3394 119.935L69.3223 120.223L69.6104 122.238L71.6276 121.95L71.3394 119.935Z" fill="#D8BFB4"/>
<path d="M73.3433 119.628L71.3262 119.916L71.6143 121.931L73.6315 121.643L73.3433 119.628Z" fill="white"/>
<path d="M75.0484 117.344L73.0312 117.632L73.3194 119.647L75.3365 119.359L75.0484 117.344Z" fill="#71495A"/>
<path d="M77.0582 117.065L75.041 117.353L75.3291 119.368L77.3463 119.08L77.0582 117.065Z" fill="#D8BFB4"/>
<path d="M75.3551 119.349L73.3379 119.637L73.626 121.652L75.6432 121.364L75.3551 119.349Z" fill="#D8BFB4"/>
<path d="M77.3648 119.07L75.3477 119.357L75.6358 121.373L77.653 121.085L77.3648 119.07Z" fill="white"/>
<path d="M79.068 116.785L77.0508 117.073L77.3389 119.089L79.3561 118.801L79.068 116.785Z" fill="#71495A"/>
<path d="M81.0777 116.477L79.0605 116.765L79.3487 118.78L81.3658 118.492L81.0777 116.477Z" fill="#D8BFB4"/>
<path d="M79.3453 118.766L77.3281 119.054L77.6162 121.069L79.6334 120.781L79.3453 118.766Z" fill="#D8BFB4"/>
<path d="M79.3535 118.784L79.6326 120.792L79.9955 120.736C80.5258 120.401 81.0282 120.066 81.5307 119.732L81.3632 118.505L79.3535 118.784Z" fill="white"/>
<path d="M83.0875 116.198L81.0703 116.485L81.3584 118.501L83.3756 118.213L83.0875 116.198Z" fill="#71495A"/>
<path d="M83.0664 116.191L83.3455 118.199L83.6805 118.143C84.2108 117.725 84.7132 117.306 85.1877 116.916L85.0482 115.912L83.0664 116.191Z" fill="#D8BFB4"/>
<path d="M81.3359 118.478L81.5034 119.705C82.1733 119.258 82.7874 118.812 83.3735 118.366L83.3456 118.171L81.3359 118.478Z" fill="#D8BFB4"/>
<path d="M83.3736 118.394C83.4853 118.31 83.5969 118.226 83.6806 118.143L83.3457 118.198L83.3736 118.394Z" fill="white"/>
<path d="M85.2157 116.916C85.7181 116.498 86.1926 116.08 86.6113 115.689L85.0762 115.913L85.2157 116.916Z" fill="#71495A"/>
<path d="M99.6191 113.849C100.122 114.099 100.68 114.35 101.238 114.629L101.098 113.653L99.6191 113.849Z" fill="#D8BFB4"/>
<path d="M103.135 113.346L101.125 113.625L101.265 114.601C101.851 114.852 102.465 115.13 103.135 115.381L103.442 115.326L103.135 113.346Z" fill="#71495A"/>
<path d="M105.136 113.048L103.119 113.336L103.407 115.351L105.424 115.063L105.136 113.048Z" fill="#D8BFB4"/>
<path d="M103.107 115.382C103.219 115.41 103.331 115.466 103.414 115.493L103.387 115.326L103.107 115.382Z" fill="#D8BFB4"/>
<path d="M103.414 115.354L103.442 115.521C104.112 115.772 104.838 116.051 105.591 116.274L105.424 115.075L103.414 115.354Z" fill="white"/>
<path d="M107.148 112.768L105.131 113.056L105.419 115.071L107.436 114.783L107.148 112.768Z" fill="#71495A"/>
<path d="M109.16 112.49L107.143 112.777L107.431 114.793L109.448 114.505L109.16 112.49Z" fill="#D8BFB4"/>
<path d="M107.433 114.769L105.424 115.047L105.591 116.247C106.177 116.442 106.764 116.609 107.406 116.804L107.713 116.748L107.433 114.769Z" fill="#D8BFB4"/>
<path d="M109.439 114.498L107.422 114.786L107.71 116.801L109.727 116.514L109.439 114.498Z" fill="white"/>
<path d="M111.166 112.182L109.148 112.47L109.437 114.485L111.454 114.197L111.166 112.182Z" fill="#71495A"/>
<path d="M113.177 111.904L111.16 112.191L111.448 114.207L113.465 113.919L113.177 111.904Z" fill="#D8BFB4"/>
<path d="M111.447 114.191L109.43 114.479L109.718 116.494L111.735 116.206L111.447 114.191Z" fill="#D8BFB4"/>
<path d="M113.457 113.912L111.439 114.2L111.728 116.216L113.745 115.928L113.457 113.912Z" fill="white"/>
<path d="M115.187 111.623L113.17 111.911L113.458 113.926L115.475 113.639L115.187 111.623Z" fill="#71495A"/>
<path d="M117.199 111.343L115.182 111.631L115.47 113.646L117.487 113.358L117.199 111.343Z" fill="#D8BFB4"/>
<path d="M115.466 113.632L113.449 113.92L113.737 115.935L115.755 115.647L115.466 113.632Z" fill="#D8BFB4"/>
<path d="M117.474 113.325L115.457 113.613L115.745 115.629L117.762 115.341L117.474 113.325Z" fill="white"/>
<path d="M119.177 111.041L117.16 111.329L117.448 113.344L119.465 113.057L119.177 111.041Z" fill="#71495A"/>
<path d="M119.465 113.041C119.493 112.399 119.493 111.73 119.465 111.005L119.186 111.033L119.465 113.041Z" fill="#D8BFB4"/>
<path d="M117.453 113.345L117.732 115.353L119.379 115.13C119.435 114.544 119.463 113.875 119.463 113.15V113.066L117.453 113.345Z" fill="#D8BFB4"/>
<path d="M69.5851 122.214L67.9941 122.437C68.05 122.604 68.1337 122.799 68.1895 122.939C68.4128 123.497 68.7757 123.971 69.2502 124.305L69.8642 124.222L69.5851 122.214Z" fill="#D8BFB4"/>
<path d="M69.25 124.305C69.4733 124.473 69.6966 124.584 69.9478 124.696L69.892 124.222L69.25 124.305Z" fill="white"/>
<path d="M71.6129 121.916L69.5957 122.204L69.8838 124.219L71.901 123.932L71.6129 121.916Z" fill="#71495A"/>
<path d="M73.6246 121.638L71.6074 121.926L71.8955 123.941L73.9127 123.653L73.6246 121.638Z" fill="#D8BFB4"/>
<path d="M69.8926 124.221L69.9484 124.695C70.5904 124.946 71.3161 125.002 72.0139 124.807L71.9022 123.942L69.8926 124.221Z" fill="#D8BFB4"/>
<path d="M71.9004 123.915L72.012 124.779C72.1237 124.751 72.2353 124.695 72.347 124.668C72.8773 124.444 73.4076 124.193 73.938 123.97L73.8821 123.636L71.9004 123.915Z" fill="white"/>
<path d="M73.6035 121.628L73.8826 123.636L74.9712 123.469C75.2782 123.33 75.5574 123.19 75.8365 123.051L75.5853 121.35L73.6035 121.628Z" fill="#71495A"/>
<path d="M75.6133 121.349L75.8645 123.05C76.5344 122.716 77.1484 122.381 77.7625 122.046L77.6229 121.07L75.6133 121.349Z" fill="#D8BFB4"/>
<path d="M73.9386 123.97C74.3015 123.803 74.6364 123.636 74.9714 123.496L73.8828 123.663L73.9386 123.97Z" fill="#D8BFB4"/>
<path d="M77.623 121.07L77.7626 122.046C78.4325 121.684 79.0465 121.321 79.6606 120.931L79.6327 120.764L77.623 121.07Z" fill="#71495A"/>
<path d="M79.6607 120.931C79.7724 120.847 79.884 120.792 79.9957 120.708L79.6328 120.764L79.6607 120.931Z" fill="#D8BFB4"/>
<path d="M107.406 116.804C107.518 116.832 107.63 116.86 107.741 116.887L107.713 116.748L107.406 116.804Z" fill="#71495A"/>
<path d="M107.713 116.777L107.741 116.916C108.411 117.112 109.136 117.279 109.862 117.446L109.723 116.498L107.713 116.777Z" fill="#D8BFB4"/>
<path d="M109.723 116.498L109.862 117.446C110.532 117.613 111.258 117.752 111.984 117.892L111.732 116.219L109.723 116.498Z" fill="#71495A"/>
<path d="M113.742 115.912L111.732 116.191L111.984 117.864C112.319 117.92 112.654 117.976 112.988 118.031L114.021 117.892L113.742 115.912Z" fill="#D8BFB4"/>
<path d="M112.988 118.059C113.351 118.115 113.714 118.171 114.077 118.227L114.021 117.92L112.988 118.059Z" fill="white"/>
<path d="M115.746 115.641L113.729 115.929L114.017 117.944L116.034 117.656L115.746 115.641Z" fill="#71495A"/>
<path d="M117.754 115.333L115.736 115.621L116.024 117.636L118.042 117.349L117.754 115.333Z" fill="#D8BFB4"/>
<path d="M114.021 117.919L114.077 118.226C114.663 118.309 115.25 118.393 115.836 118.449C115.947 118.449 116.059 118.477 116.143 118.477L116.031 117.612L114.021 117.919Z" fill="#D8BFB4"/>
<path d="M118.041 117.334L116.031 117.613L116.143 118.477C116.869 118.477 117.538 118.254 118.097 117.836L118.041 117.334Z" fill="white"/>
<path d="M118.041 117.334L118.711 117.251C119.046 116.805 119.297 116.247 119.353 115.661C119.381 115.494 119.381 115.299 119.409 115.104L117.762 115.327L118.041 117.334Z" fill="#71495A"/>
<path d="M118.097 117.835C118.32 117.667 118.516 117.472 118.711 117.249L118.041 117.333L118.097 117.835Z" fill="#D8BFB4"/>
<path d="M92.3896 109.079L94.7342 108.745L94.6784 108.41L94.483 107.044C94.4551 106.849 94.3435 106.681 94.176 106.57C94.0643 106.486 93.9248 106.458 93.7573 106.486L92.0547 106.737L92.3896 109.079Z" fill="#71495A"/>
<path d="M94.9571 110.446L94.7059 108.745L92.3613 109.08L92.6963 111.422L94.3989 111.171C94.5664 111.143 94.7059 111.06 94.8176 110.948C94.9292 110.809 94.985 110.613 94.9571 110.446Z" fill="#D8BFB4"/>
<path d="M89.7944 107.713L89.9898 109.08L90.0456 109.414L92.3902 109.08L92.0552 106.737L90.3526 106.988C90.1572 107.016 90.0177 107.128 89.906 107.267C89.8223 107.379 89.7665 107.546 89.7944 107.713Z" fill="#D8BFB4"/>
<path d="M92.3895 109.079L90.0449 109.414L90.2961 111.087V111.115C90.324 111.254 90.3799 111.394 90.4915 111.505C90.6311 111.645 90.8265 111.7 91.0218 111.672L92.7245 111.422L92.3895 109.079Z" fill="white"/>
<path d="M147.43 92.2095C147.319 92.2095 147.207 92.1537 147.123 92.0701C145.142 89.9229 141.736 90.7316 141.68 90.7316C141.541 90.7594 141.373 90.7316 141.29 90.62C141.178 90.5085 141.15 90.369 141.178 90.2296L143.271 81.8081C143.299 81.6965 143.383 81.585 143.495 81.5292C146.816 79.8839 149.133 81.8639 149.887 83.1466C149.942 83.2303 149.97 83.3418 149.942 83.4533L147.849 91.8749C147.821 92.0143 147.709 92.1537 147.542 92.1816C147.486 92.2095 147.458 92.2095 147.43 92.2095ZM143.271 89.7277C144.416 89.7277 145.951 89.9786 147.207 90.9825L149.105 83.4255C148.714 82.8677 147.04 80.8321 144.081 82.1985L142.183 89.7834C142.462 89.7556 142.825 89.7277 143.271 89.7277Z" fill="#C59F6D"/>
<path d="M153.319 93.6591C153.235 93.6591 153.124 93.6312 153.04 93.5755C153.012 93.5476 150.528 91.5398 147.569 92.2091C147.43 92.2369 147.29 92.2091 147.178 92.0975C147.067 91.986 147.039 91.8465 147.067 91.7071L149.16 83.2856C149.188 83.174 149.272 83.0625 149.383 83.0067C150.891 82.2538 154.156 81.6403 155.775 84.6241C155.831 84.7078 155.831 84.8193 155.803 84.9308L153.71 93.3524C153.682 93.4918 153.57 93.6034 153.431 93.6591C153.403 93.6591 153.347 93.6591 153.319 93.6591ZM148.797 91.2331C150.695 91.2331 152.258 92.0696 153.04 92.5716L154.966 84.903C153.486 82.3932 150.667 83.3692 149.942 83.676L148.044 91.2609C148.295 91.233 148.546 91.2331 148.797 91.2331Z" fill="#C59F6D"/>
</svg>
