<svg width="201" height="223" viewBox="0 0 201 223" fill="none" xmlns="http://www.w3.org/2000/svg">
<path d="M198.782 187.439C197.236 195.45 193.364 201.489 188.061 205.617C185.359 207.714 182.325 209.284 179.023 210.392C177.604 210.862 176.151 211.233 174.664 211.538C166.669 213.1 157.668 212.121 149.151 208.659C131.786 201.637 118.75 193.998 118.75 193.998L127.95 162.798C127.95 162.798 128.902 161.371 130.855 161.692C135.224 162.397 138.174 163.639 151.853 161.155C151.853 161.155 162.399 147.542 178.212 148.454C178.542 148.485 178.873 148.483 179.204 148.515C179.965 148.577 180.726 148.672 181.454 148.801C184.599 149.347 187.382 150.424 189.771 151.966C198.664 157.775 202.101 170.324 198.782 187.439Z" fill="#945339"/>
<path d="M170.554 209.674C156.516 212.888 120.907 195.244 120.907 195.244L120.676 195.278C125.12 197.736 135.731 203.37 148.822 208.661C157.372 212.123 166.339 213.102 174.334 211.54C175.325 211.337 176.316 211.1 177.274 210.831L170.554 209.674Z" fill="#B6724D"/>
<path d="M150.204 162.288C147.282 166.337 139.029 169.422 139.029 169.422C138.728 168.63 138.426 167.904 138.125 167.178L137.054 171.119C137.054 171.119 136.975 175.055 136.136 179.292C139.184 180.236 143.588 181.437 148.189 182.207C148.189 182.207 148.667 165.57 162.962 154.22C166.848 151.124 171.701 149.512 176.595 149.256C164.887 149.15 155.655 154.72 150.204 162.288Z" fill="#AD6946"/>
<path d="M174.445 129.788C168.454 135.176 160.171 138.625 152.278 140.781C150.858 141.185 149.47 141.523 148.083 141.828L148.05 141.828C143.756 142.809 139.757 143.425 136.485 143.805C132.75 144.254 129.973 144.401 128.915 144.439C128.584 144.441 128.419 144.442 128.419 144.442L121.475 125.263C121.475 125.263 144.036 119.856 153.959 94.2418C156.864 86.7529 161.472 82.4302 166.455 80.4866C169.723 79.2133 173.128 78.9644 176.339 79.4772C177.762 79.7014 179.12 80.0914 180.445 80.5807C185.681 82.6044 189.769 86.7505 190.82 91.7058C192.752 100.989 190.115 115.686 174.445 129.788Z" fill="#945339"/>
<path d="M174.445 129.788C168.454 135.176 160.171 138.624 152.278 140.781C150.858 141.185 149.437 141.523 148.05 141.828C143.756 142.809 139.757 143.424 136.485 143.805C138.658 141.876 145.851 138.664 153.232 120.437C159.078 106.022 157.28 84.0716 171.778 80.0954C173.132 79.7247 174.652 79.5185 176.339 79.4768C177.762 79.7011 179.12 80.091 180.445 80.5803C185.681 82.604 189.769 86.7502 190.82 91.7055C192.752 100.989 190.115 115.686 174.445 129.788Z" fill="#AD6946"/>
<path d="M174.445 129.788C168.454 135.176 160.17 138.624 152.277 140.781C150.857 141.185 149.437 141.523 148.049 141.828C148.049 141.828 152.886 137.008 158.282 125.042C166.784 106.148 163.157 95.253 170.65 85.9879C172.786 83.3314 175.226 81.8969 177.636 81.157C178.594 80.8876 179.519 80.6844 180.412 80.6137C185.647 82.6374 189.736 86.7836 190.787 91.7389C192.752 100.989 190.115 115.686 174.445 129.788Z" fill="#B6724D"/>
<path d="M174.446 129.788C168.454 135.176 160.171 138.624 152.278 140.781C158.715 138.565 166.27 134.922 172.656 129.069C185.592 117.164 188.127 108.255 188.528 96.1155C188.754 88.5741 182.872 82.982 177.637 81.1898C175.782 80.5378 173.763 80.2174 171.778 80.1283C169.992 80.0712 168.174 80.2128 166.456 80.5192C169.723 79.2458 173.128 78.997 176.339 79.5098C177.762 79.734 179.12 80.1239 180.445 80.6132C185.681 82.637 189.77 86.7831 190.82 91.7384C192.753 100.988 190.116 115.685 174.446 129.788Z" fill="#D59A77"/>
<path d="M166.177 97.2874C166.243 97.1217 166.341 96.989 166.406 96.8233C170.831 88.9629 178.129 86.8091 182.719 92.0109C185.779 95.4678 186.867 101.283 185.971 107.108C185.907 107.538 185.843 107.968 185.746 108.366C185.23 110.915 184.349 113.4 183.071 115.688C178.647 123.548 171.349 125.702 166.759 120.5C165.528 119.085 164.593 117.27 163.987 115.256C162.438 109.907 163.163 102.925 166.177 97.2874Z" fill="#AD6946"/>
<path d="M183.702 90.3204C186.763 93.7772 187.851 99.5922 186.954 105.417C186.89 105.848 186.826 106.278 186.729 106.675C186.176 108.497 185.458 110.253 184.507 111.912C179.82 120.27 172.061 122.591 167.171 117.027C166.273 116.039 165.572 114.852 165.003 113.532C163.455 108.183 164.147 101.234 167.161 95.5638C167.226 95.3981 167.324 95.2653 167.39 95.0996C171.781 87.2725 179.079 85.1187 183.702 90.3204Z" fill="#ECD09C"/>
<path d="M167.127 95.5959C164.114 101.266 163.422 108.215 164.97 113.565C165.576 115.612 166.478 117.426 167.742 118.809C172.332 124.011 179.63 121.857 184.054 113.996C185.333 111.708 186.213 109.223 186.729 106.674C186.826 106.244 186.89 105.813 186.954 105.416C184.797 110.388 179.846 118.912 172.32 115.148C165.59 111.842 165.374 101.888 167.127 95.5959Z" fill="#DCBD8A"/>
<path d="M184.212 112.475C185.294 110.684 186.111 108.728 186.729 106.708C186.213 109.257 185.333 111.742 184.055 114.03C179.63 121.891 172.332 124.044 167.742 118.842C166.578 117.526 165.542 115.513 165.071 113.895C165.071 113.862 165.104 113.829 165.104 113.862C165.773 115.347 166.673 116.665 167.736 117.718C172.522 122.324 179.72 120.038 184.212 112.475Z" fill="#C59F6D"/>
<path d="M157.23 126.039L147.112 139.352L148.116 141.827L148.083 141.828C143.789 142.808 139.791 143.424 136.519 143.805C132.784 144.254 130.007 144.4 128.949 144.438C128.535 141.1 128.155 137.894 128.155 137.894C150.096 140.99 156.952 110.497 156.952 110.497L157.23 126.039Z" fill="#AD6946"/>
<path d="M183.578 149.98C183.578 149.98 177.118 147.764 170.317 150.114C163.516 152.463 160.389 155.39 157.563 158.81C145.665 173.323 145.536 212.943 173.674 211.741L183.578 149.98Z" fill="#AD6946"/>
<path d="M189.936 151.999C186.948 149.765 182.211 148.136 177.679 147.994C164.879 147.629 157.165 152.497 151.534 157.155C147.285 160.649 139.911 160.753 134.853 161.11C136.086 162.988 136.694 165.499 137.021 171.185C137.021 171.185 145.483 170.382 150.539 163.146C156.318 154.948 164.854 149.15 176.562 149.322C181.19 149.067 186.057 150.034 189.936 151.999Z" fill="#945339"/>
<path d="M135.056 174.8C132.823 184.27 127.27 191.474 122.953 194.407C113.89 200.604 98.1219 201.941 98.1219 201.941L63.6251 207.706L65.769 219.568C58.6102 216.529 51.7727 211.669 43.8938 203.607C36.0148 195.544 38.1996 182.966 43.0178 167.993C47.4777 154.114 65.3026 128.062 65.3026 128.062C65.3026 128.062 67.8782 127.288 71.9406 126.243C86.1423 122.532 118.647 115.256 124.68 124.552C132.414 136.517 134.86 149.237 135.927 163.915C136.211 167.75 135.833 171.423 135.056 174.8Z" fill="#AD6946"/>
<path d="M135.056 174.801C130.41 184.613 121.848 191.635 106.766 191.315C106.534 191.316 106.269 191.317 106.038 191.286C103.822 191.198 101.737 190.977 99.784 190.623C66.1538 184.742 69.4429 142.295 71.9736 126.21C74.3514 125.569 77.2581 124.86 80.4952 124.116C81.4533 123.913 82.4442 123.676 83.4684 123.473L83.5345 123.472C99.1931 120.118 120.046 117.267 124.714 124.552C132.447 136.517 134.893 149.237 135.96 163.916C136.211 167.75 135.833 171.423 135.056 174.801Z" fill="#AD6946"/>
<path d="M99.7501 190.623C66.1199 184.743 69.409 142.296 71.9397 126.21C74.3175 125.57 77.2242 124.861 80.4613 124.116C90.1973 133.161 106.211 154.047 99.7501 190.623Z" fill="#945339"/>
<path d="M132.269 140.686C120.63 140.943 111.418 131.003 111.418 131.003L109.169 131.014C107.779 137.272 102.25 142.426 98.4249 144.694C103.185 150.788 108.247 157.575 110.172 165.535C113.381 178.781 110.044 185.875 106.732 191.282C121.814 191.635 130.377 184.614 135.023 174.768C135.832 171.39 136.177 167.718 135.893 163.85C135.392 156.445 134.023 147.291 132.269 140.686Z" fill="#B6724D"/>
<path d="M72.0039 132.26C71.6444 139.604 71.7164 147.243 67.284 160.031C63.3077 171.494 53.4729 188.476 45.1178 197.283C40.6441 202.002 30.0164 206.157 20.2238 205.446C14.6658 205.044 9.39747 203.087 5.73766 198.773C4.30704 197.094 3.24036 195.446 2.50456 193.829C0.866416 190.365 0.651137 187.059 1.26413 184.046C2.426 178.418 6.63557 173.8 10.3259 171.136C16.9159 166.373 24.9154 159.156 36.1411 149.045C40.1573 145.42 43.9116 142.325 47.2057 139.761C48.655 138.63 50.0388 137.597 51.3238 136.665C57.7487 131.969 61.706 129.766 61.706 129.766C61.706 129.766 72.3633 124.917 72.0039 132.26Z" fill="#945339"/>
<path d="M21.8562 51.6917C15.8956 63.1316 25.1252 70.1618 29.371 72.6536C30.532 73.3421 31.3274 73.6688 31.3274 73.6688L38.238 60.4382L39.9067 56.9241L44.7495 46.7797C44.7497 46.8128 29.1281 37.9632 21.8562 51.6917ZM9.32399 45.5382C9.29092 45.5384 9.29109 45.5715 9.32399 45.5382C9.22596 45.7702 9.12759 45.9361 9.02939 46.135C8.47327 47.3284 7.94987 48.4555 7.55876 49.5819C-0.858567 72.1462 20.1673 83.6801 26.2667 86.4931C27.2612 86.951 27.8577 87.1795 27.8577 87.1795L41.6226 62.6698L41.6558 62.7027L41.8848 62.2054L42.1797 61.6748L42.1134 61.6421L49.3382 45.1689L53.294 36.1865L53.4249 35.9212C53.4249 35.9212 23.929 17.1549 9.32399 45.5382Z" fill="#B6724D"/>
<path d="M38.531 59.8748L38.2364 60.4716L38.04 60.8694L31.3259 73.7022C31.3259 73.7022 28.2102 72.3291 25.2202 69.6656C21.3662 66.1797 17.732 60.4107 21.4617 52.4877C21.6581 52.0899 21.8545 51.692 22.084 51.294C22.2149 51.0288 22.3791 50.7964 22.5102 50.5643C28.6443 40.7109 39.5769 44.4583 43.3889 46.1917C44.2507 46.5841 44.7481 46.8462 44.7481 46.8462L38.531 59.8748Z" fill="#DCBD8A"/>
<path d="M42.1137 61.6428L42.18 61.6755L41.8851 62.2062L41.6561 62.7034L41.6229 62.6705L27.858 87.1802C27.858 87.1802 0.356216 76.8369 6.51819 52.9942C6.81026 51.9014 7.1683 50.7752 7.59232 49.6155C8.35948 57.3833 9.64663 69.8446 24.7975 77.1753C24.7975 77.1753 25.7004 72.6399 26.3839 70.4868C27.4251 67.1413 28.8309 63.9593 30.4362 60.9747C32.5983 56.929 35.1257 53.1791 37.6871 49.6275C40.6758 45.5445 46.1819 48.7574 49.405 45.2354L42.1137 61.6428Z" fill="#945339"/>
<path d="M30.3698 60.9076C27.1148 71.1432 26.0113 81.7315 26.0113 81.7315C9.43523 73.7798 6.23203 61.7251 6.48499 52.96C6.77706 51.8671 7.1351 50.7409 7.55912 49.5813C8.32628 57.3491 9.61343 69.8103 24.7643 77.141C24.7643 77.141 25.6672 72.6057 26.3507 70.4526C27.3919 67.1071 28.7647 63.9252 30.3698 60.9076Z" fill="#AD6946"/>
<path d="M36.7227 48.7389C28.2341 57.3145 25.8599 65.1645 25.2214 69.6654C21.3674 66.1795 17.7332 60.4106 21.463 52.4876C21.6594 52.0897 21.8558 51.6919 22.0852 51.2939C22.2162 51.0286 22.3803 50.7963 22.5114 50.5641C28.8059 46.2328 36.7227 48.7389 36.7227 48.7389Z" fill="#ECD09C"/>
<path d="M53.4249 35.9201L53.294 36.1853L51.6452 37.1197C51.6452 37.1197 44.8441 32.8882 36.8362 31.97C28.8283 31.0517 19.1221 34.3422 13.8015 41.5788C8.48087 48.8154 4.84409 61.9963 10.2475 70.9971C15.2171 79.2396 24.6745 85.541 26.2006 86.4923C20.1344 83.7122 -0.891453 72.1783 7.52571 49.5809C7.94989 48.4543 8.44004 47.2944 8.99634 46.134C9.09454 45.9351 9.19291 45.7692 9.2911 45.5703L9.29094 45.5372C23.929 17.1538 53.4249 35.9201 53.4249 35.9201Z" fill="#D59A77"/>
<path d="M43.4235 46.1574L42.5394 47.8816C31.5717 43.7375 25.4056 47.3076 22.1188 51.2929C28.1159 40.5142 39.5122 44.3915 43.4235 46.1574Z" fill="#C59F6D"/>
<path d="M111.609 25.3058L121.262 31.0771L124.579 33.0776L137.646 40.2866C137.646 40.2866 138.105 39.5567 138.694 38.3631C140.854 33.9206 144.635 22.9548 133.359 16.7288C119.729 9.2911 111.609 25.3058 111.609 25.3058ZM98.3584 21.008L98.5907 21.1722L106.853 26.4876L121.982 36.1995L121.95 36.2658L122.48 36.5277L122.945 36.8229L122.978 36.7897L148.012 49.5929C148.012 49.5929 148.373 49.0619 148.963 48.1329C152.473 42.4268 163.642 21.2044 144.124 7.05019C143.161 6.36061 142.099 5.67153 140.971 4.98278C140.773 4.88458 140.607 4.78622 140.408 4.65495L140.375 4.65511C112.549 -10.9118 98.3584 21.008 98.3584 21.008Z" fill="#B6724D"/>
<path d="M124.046 32.7505L124.61 33.0784L124.974 33.308L137.643 40.2876C137.643 40.2876 139.481 37.4341 140.486 33.5596C141.783 28.4931 141.616 21.7144 134.119 17.1557C133.721 16.9263 133.323 16.6968 132.958 16.5002C132.693 16.3693 132.461 16.2382 132.196 16.1403C121.621 11.3328 114.591 20.4963 112.36 24.0462C111.868 24.8425 111.606 25.3399 111.606 25.3399L124.046 32.7505Z" fill="#DCBD8A"/>
<path d="M122.015 36.1992L121.983 36.2655L122.513 36.5274L122.978 36.8227L123.01 36.7894L148.044 49.5926C148.044 49.5926 165.219 25.7931 146.913 9.2847C146.082 8.5283 145.152 7.77241 144.157 7.04992C147.797 13.9432 153.641 25.0584 145.05 39.5212C145.05 39.5212 141.792 36.2638 140.032 34.8176C137.309 32.6157 134.389 30.7456 131.404 29.1072C127.392 26.945 123.183 25.1806 119.107 23.6801C114.369 21.9184 111.554 27.6541 106.918 26.4871L122.015 36.1992Z" fill="#945339"/>
<path d="M131.403 29.1078C139.771 35.8117 146.56 44.0448 146.56 44.0448C156.004 28.2548 151.975 16.4359 146.912 9.25222C146.081 8.49582 145.151 7.73992 144.155 7.01743C147.795 13.9107 153.639 25.0259 145.048 39.4887C145.048 39.4887 141.791 36.2313 140.031 34.7851C137.308 32.5832 134.388 30.7131 131.403 29.1078Z" fill="#AD6946"/>
<path d="M119.364 22.4554C131.183 24.9086 137.526 30.1346 140.52 33.5256C141.817 28.4591 141.65 21.6804 134.153 17.1217C133.755 16.8923 133.357 16.6628 132.992 16.4662C132.727 16.3353 132.495 16.2042 132.229 16.1063C124.589 15.9799 119.364 22.4554 119.364 22.4554Z" fill="#ECD09C"/>
<path d="M98.3584 21.008L98.5907 21.1722L100.475 21.0303C100.475 21.0303 103.811 13.7707 109.969 8.58021C116.16 3.38956 126.068 0.759507 134.484 3.82529C142.932 6.89091 153.263 15.8997 153.681 26.3812C154.093 36.0027 149.682 46.4757 148.963 48.1329C152.473 42.4268 163.642 21.2044 144.124 7.05019C143.161 6.36061 142.099 5.67153 140.971 4.98278C140.773 4.88458 140.607 4.78622 140.408 4.65495L140.375 4.65511C112.549 -10.9118 98.3584 21.008 98.3584 21.008Z" fill="#D59A77"/>
<path d="M112.363 24.0119L114.055 24.9624C120.885 15.4362 128.026 15.036 132.961 16.499C121.986 10.8337 114.627 20.3957 112.363 24.0119Z" fill="#C59F6D"/>
<path d="M160.325 78.1367C160.326 78.1698 160.326 78.1698 160.326 78.2029C160.327 78.4344 160.328 78.6658 160.329 78.8973C160.33 78.9635 160.33 79.0296 160.33 79.0958C160.331 79.2942 160.332 79.5257 160.3 79.7243C160.302 79.9888 160.27 80.2536 160.238 80.5183C160.175 81.1139 160.145 81.6763 160.049 82.239C160.017 82.4375 159.985 82.6692 159.953 82.8678C159.666 84.9527 159.18 86.9395 158.528 88.894C158.496 88.9934 158.463 89.0928 158.431 89.1921C158.431 89.2252 158.398 89.2915 158.398 89.3246C158.366 89.457 158.3 89.6227 158.235 89.7553C158.137 89.9873 158.072 90.2522 157.974 90.4842C157.713 91.1801 157.419 91.843 157.125 92.539C157.059 92.6716 156.994 92.8373 156.929 92.9699C156.83 93.1688 156.732 93.3678 156.634 93.5667C156.569 93.6993 156.503 93.865 156.405 93.9978C156.241 94.3293 156.077 94.6939 155.881 95.0257C155.815 95.1913 155.717 95.3241 155.651 95.4567C155.652 95.4898 155.619 95.49 155.619 95.5231C155.521 95.722 155.389 95.9541 155.258 96.1532C155.258 96.1863 155.225 96.1865 155.225 96.2195C155.094 96.4517 154.963 96.6508 154.865 96.8497C154.734 97.115 154.57 97.3473 154.406 97.6127C154.307 97.7786 154.176 97.9777 154.078 98.1435C153.487 99.0725 152.831 100.002 152.174 100.898C152.042 101.064 151.911 101.263 151.78 101.429C151.648 101.628 151.484 101.795 151.352 101.994C151.287 102.093 151.188 102.193 151.122 102.292C150.991 102.492 150.827 102.658 150.695 102.857C150.432 103.156 150.203 103.488 149.94 103.787C149.644 104.119 149.381 104.451 149.085 104.783C148.953 104.949 148.789 105.115 148.657 105.248C148.493 105.448 148.295 105.647 148.131 105.813C148 105.979 147.835 106.112 147.703 106.278C147.572 106.444 147.407 106.578 147.276 106.744C147.21 106.81 147.144 106.877 147.078 106.943C146.914 107.142 146.717 107.309 146.519 107.508C145.598 108.439 144.676 109.336 143.689 110.201C143.689 110.201 128.208 122.45 107.172 128.444C86.863 134.269 75.7196 134.59 63.7118 133.99C62.4878 133.93 61.1969 133.705 59.9387 133.414C57.2899 132.799 54.8712 131.919 54.1092 131.658C54.0762 131.658 54.0429 131.625 54.0099 131.626C53.8442 131.56 53.6454 131.495 53.4797 131.43C53.314 131.364 53.1153 131.299 52.9496 131.234C52.4195 131.038 51.8893 130.843 51.3921 130.614C51.2264 130.548 51.0607 130.483 50.895 130.418L50.862 130.418C50.6963 130.353 50.5306 130.287 50.3647 130.189C47.8126 129.078 45.3585 127.734 43.0682 126.092C42.9023 125.994 42.7694 125.862 42.6035 125.764C41.84 125.206 41.0762 124.581 40.3124 123.957C40.1464 123.825 40.0136 123.727 39.8805 123.562C39.7475 123.43 39.5815 123.299 39.4485 123.167C39.3156 123.036 39.1826 122.904 39.0166 122.773C38.6844 122.477 38.3852 122.181 38.0859 121.851C37.9862 121.753 37.8863 121.621 37.7535 121.522C37.6206 121.391 37.4874 121.226 37.3545 121.095C37.2215 120.963 37.0884 120.798 36.9553 120.634C36.8223 120.502 36.6892 120.337 36.5562 120.206C36.3899 120.008 36.2568 119.843 36.0904 119.646C36.0238 119.547 35.924 119.448 35.8574 119.349C35.691 119.152 35.5577 118.954 35.3915 118.79C35.3249 118.691 35.2252 118.592 35.1585 118.493C35.0586 118.361 34.992 118.263 34.8921 118.131C34.7922 117.999 34.6922 117.834 34.5591 117.669C34.1927 117.175 33.8594 116.648 33.4927 116.087C33.3927 115.923 33.2928 115.791 33.1927 115.626C33.0925 115.428 32.9592 115.23 32.8592 115.065C32.7591 114.901 32.659 114.736 32.5921 114.571C32.492 114.406 32.4252 114.274 32.3251 114.109C32.2249 113.911 32.1249 113.746 32.0246 113.548C31.9244 113.351 31.8244 113.186 31.7241 112.988C30.2876 110.151 29.1467 106.916 28.3018 103.348C27.997 101.961 27.6925 100.607 27.4541 99.252C27.3525 98.7895 27.2839 98.2938 27.2154 97.8311C27.1134 97.3025 27.0446 96.7737 26.9758 96.2449C26.941 95.9144 26.8732 95.584 26.8384 95.2535C26.6665 93.9646 26.5277 92.6755 26.3888 91.3865C26.3186 90.5931 26.2483 89.7667 26.2111 88.9732L26.211 88.9401C26.0671 86.6589 26.0558 84.4432 26.1111 82.3264C26.7316 61.3231 36.7093 46.4233 49.6896 36.6673C56.7403 31.4722 64.6252 27.7281 72.4506 25.274C73.111 25.0722 75.4223 24.3659 75.9176 24.1981C97.5433 17.176 125.857 18.1561 145.293 42.1328C146.857 44.076 148.356 46.1518 149.823 48.3932C150.256 49.0524 150.656 49.7118 151.089 50.4041C151.19 50.602 151.323 50.7997 151.423 50.9976C153.091 53.8333 154.661 56.9009 156.133 60.2005C156.501 61.0584 156.869 61.9164 157.238 62.8075C157.338 63.0715 157.439 63.3356 157.539 63.5666C157.64 63.7976 157.707 64.0287 157.807 64.2266C157.807 64.2597 157.841 64.2926 157.841 64.3257C157.841 64.3257 157.841 64.3587 157.874 64.3586C157.974 64.5896 158.042 64.8207 158.109 65.0849C158.143 65.1509 158.176 65.2499 158.177 65.3161C158.244 65.5472 158.344 65.7782 158.412 66.0094C158.412 66.0755 158.445 66.1415 158.479 66.2075C158.579 66.4715 158.647 66.7357 158.748 67.0329C158.815 67.3302 158.916 67.5942 158.983 67.8915L158.984 67.9577C159.051 68.255 159.152 68.519 159.22 68.8163C159.287 69.0475 159.354 69.2786 159.389 69.543C159.422 69.6421 159.456 69.7742 159.457 69.8734C159.524 70.1045 159.558 70.3359 159.592 70.5341C159.592 70.5341 159.592 70.5672 159.593 70.6002C159.66 70.8975 159.695 71.1619 159.762 71.4262C159.796 71.6906 159.864 71.9548 159.898 72.2192C159.899 72.2853 159.899 72.3184 159.932 72.3844C159.967 72.6487 160.001 72.8801 160.035 73.1445C160.07 73.4089 160.104 73.6402 160.138 73.9046C160.139 74.0038 160.173 74.1028 160.173 74.202C160.207 74.4003 160.208 74.6318 160.242 74.83C160.243 74.8631 160.243 74.8631 160.243 74.8962C160.277 75.1606 160.279 75.4251 160.313 75.6895C160.314 75.9541 160.349 76.2516 160.35 76.5161C160.352 76.7807 160.353 77.0783 160.354 77.3429C160.323 77.5745 160.324 77.8722 160.325 78.1367Z" fill="#B6724D"/>
<path d="M158.433 89.2248C158.433 89.2579 158.4 89.3242 158.4 89.3573C158.335 89.4899 158.303 89.6554 158.237 89.788C158.139 90.02 158.074 90.2849 157.976 90.5169C157.715 91.1797 154.606 117.057 113.719 127.848C111.737 128.354 109.689 128.861 107.542 129.302C86.8613 133.574 77.5748 134.845 65.567 134.278C62.9208 134.159 61.1658 133.738 59.9078 133.48C57.259 132.865 54.8403 131.985 54.0784 131.724C54.0453 131.724 54.012 131.691 53.979 131.691C53.8133 131.626 53.6145 131.561 53.4488 131.496C53.2831 131.43 53.0844 131.365 52.9187 131.3C52.3886 131.104 51.8584 130.909 51.3612 130.68C51.1955 130.614 51.0298 130.549 50.8641 130.484L50.8311 130.484C50.6654 130.419 50.4997 130.353 50.3338 130.255C47.7817 129.143 45.3276 127.8 43.0373 126.158C42.8714 126.06 42.7385 125.928 42.5726 125.83C41.7761 125.272 41.0453 124.647 40.2815 124.023C40.1155 123.891 39.9827 123.793 39.8496 123.628C39.7166 123.496 39.5506 123.365 39.4176 123.233C39.2847 123.102 39.1517 122.97 38.9857 122.839C38.6535 122.543 38.3543 122.247 38.055 121.917C37.9553 121.819 37.8554 121.687 37.7226 121.588C37.5897 121.457 37.4565 121.292 37.3236 121.16C37.1906 121.029 37.0575 120.864 36.9244 120.7C36.7914 120.568 36.6583 120.403 36.5254 120.272C36.359 120.074 36.2259 119.909 36.0595 119.712C35.9929 119.613 35.8931 119.514 35.8265 119.415C35.6601 119.218 35.5268 119.02 35.3606 118.856C35.294 118.757 35.2274 118.658 35.1607 118.559C35.0608 118.427 34.9942 118.328 34.8943 118.196C34.7944 118.065 34.6943 117.9 34.5612 117.735C34.1949 117.241 33.8615 116.714 33.4949 116.153C33.3948 115.988 33.2949 115.857 33.1949 115.692C33.0947 115.494 32.9614 115.296 32.8613 115.131C32.7613 114.966 32.6612 114.802 32.5942 114.637C32.4942 114.472 32.4274 114.34 32.3273 114.175C32.2271 113.977 32.127 113.812 32.0268 113.614C31.9266 113.416 31.8265 113.251 31.7263 113.054C30.2896 110.184 29.1489 106.982 28.3039 103.414C27.9992 102.027 27.6947 100.672 27.4563 99.3177C27.3547 98.8552 27.286 98.3595 27.2175 97.8969C27.1156 97.3683 27.0468 96.8395 26.9779 96.3107C26.9432 95.9801 26.8754 95.6498 26.8406 95.3193C26.6687 94.0304 26.5298 92.7413 26.391 91.4522C26.3208 90.6589 26.2504 89.8325 26.2133 89.0389L26.2131 89.0059C26.0692 86.7247 26.0579 84.509 26.1133 82.3921C26.5637 66.9456 32.0909 54.8134 40.1133 45.6118C43.0066 42.29 46.2325 39.3302 49.6919 36.7661C43.3377 48.8364 31.7828 78.7254 53.328 107.784C69.0455 128.969 129.292 133.623 158.433 89.2248Z" fill="#AD6946"/>
<path d="M113.719 127.848C111.737 128.355 109.689 128.861 107.542 129.302C86.8613 133.574 77.5748 134.845 65.5671 134.278C62.9208 134.159 61.1659 133.738 59.9079 133.48C57.2591 132.865 54.8404 131.985 54.0784 131.724C54.0454 131.724 54.0121 131.691 53.979 131.692C53.8134 131.626 53.6146 131.561 53.4489 131.496C53.2832 131.431 53.0845 131.365 52.9188 131.3C52.3886 131.104 51.8585 130.909 51.3613 130.68C51.1956 130.614 51.0299 130.549 50.8642 130.484L50.8311 130.484C50.6654 130.419 50.4998 130.353 50.3339 130.255C47.7818 129.144 45.3277 127.8 43.0374 126.158C42.8715 126.06 42.7386 125.928 42.5727 125.83C41.7762 125.272 41.0454 124.647 40.2816 124.023C40.1156 123.891 39.9828 123.793 39.8497 123.628C39.7167 123.497 39.5507 123.365 39.4177 123.233C39.2848 123.102 39.1518 122.97 38.9858 122.839C38.6536 122.543 38.3544 122.247 38.0551 121.918C37.9554 121.819 37.8555 121.687 37.7227 121.589C37.5897 121.457 37.4566 121.292 37.3237 121.161C37.1907 121.029 37.0576 120.864 36.9245 120.7C36.7915 120.568 36.6584 120.403 36.5254 120.272C36.3591 120.074 36.2259 119.91 36.0596 119.712C35.9929 119.613 35.8932 119.514 35.8266 119.416C35.6602 119.218 35.5269 119.02 35.3607 118.856C35.2941 118.757 35.2274 118.658 35.1608 118.559C35.0609 118.427 34.9943 118.328 34.8944 118.197C34.7945 118.065 34.6944 117.9 34.5613 117.735C34.195 117.241 33.8616 116.714 33.495 116.153C33.3949 115.989 33.295 115.857 33.195 115.692C33.0948 115.494 32.9615 115.296 32.8614 115.131C32.7614 114.967 32.6613 114.802 32.5943 114.637C32.4943 114.472 32.4274 114.34 32.3274 114.175C32.2272 113.977 32.1271 113.812 32.0269 113.614C31.9267 113.416 31.8266 113.252 31.7264 113.054C30.2897 110.184 29.149 106.982 28.304 103.414C27.9993 102.027 27.6948 100.673 27.4564 99.3179C27.3548 98.8554 27.2861 98.3597 27.2176 97.8971C27.1157 97.3684 27.0469 96.8397 26.978 96.3109C26.9433 95.9803 26.8754 95.65 26.8407 95.3194C26.6688 94.0305 26.5299 92.7415 26.3911 91.4524C26.3209 90.6591 26.2505 89.8326 26.2134 89.0391L26.2132 89.006C26.0693 86.7249 26.058 84.5092 26.1134 82.3923C26.5638 66.9458 32.0909 54.8136 40.1134 45.612L33.5837 55.6989C33.5837 55.6989 23.682 85.5134 40.2828 111.29C52.3826 129.914 87.5484 132.116 113.719 127.848Z" fill="#945339"/>
<path d="M76.2459 23.5014C46.2923 31.7234 27.1052 50.0434 26.1457 82.3919C27.6096 71.1402 30.4222 45.4958 59.5236 32.2843C102.912 12.5512 131.972 23.8126 147.326 51.4479C156.571 68.1017 160.387 83.5596 155.293 96.1856C143.307 125.945 110.806 127.4 100.108 130.795C102.222 130.255 107.872 129.3 110.284 128.825C130.766 124.52 143.217 114.701 143.217 114.701C169.104 93.7672 161.349 64.671 149.221 46.9737C134.994 26.2114 111.913 13.6959 76.2459 23.5014Z" fill="#D59A77"/>
<path d="M58.5498 133.156C57.2253 132.832 54.8728 131.951 54.0114 131.658C53.8457 131.592 53.647 131.527 53.4813 131.462C53.3156 131.397 53.1168 131.331 52.9511 131.266C52.421 131.07 51.8909 130.875 51.3936 130.646C51.2279 130.58 51.0623 130.515 50.8966 130.45L50.8635 130.45C50.6978 130.385 50.5321 130.319 50.3663 130.221C47.8141 129.11 45.36 127.766 43.0699 126.157C42.9041 126.059 42.7711 125.927 42.6052 125.829C41.8087 125.271 41.0779 124.646 40.3141 124.022C40.1812 123.89 40.0151 123.759 39.8822 123.627C39.7492 123.496 39.5832 123.364 39.4502 123.233C39.3173 123.101 39.1513 122.97 39.0183 122.838C38.7192 122.542 38.3869 122.246 38.0876 121.917C37.9879 121.818 37.888 121.686 37.7552 121.588C37.6223 121.456 37.4892 121.291 37.3562 121.16C37.2231 120.995 37.0901 120.863 36.957 120.699C36.824 120.567 36.6909 120.403 36.558 120.271C36.3251 120.008 36.0921 119.711 35.8591 119.415C35.6927 119.217 35.5594 119.019 35.3933 118.855C35.3266 118.756 35.26 118.657 35.1933 118.558C35.0934 118.426 35.0268 118.328 34.9269 118.196C34.8268 118.031 34.6939 117.899 34.5938 117.734C34.2274 117.207 33.8941 116.713 33.5275 116.152C33.4274 115.988 33.3276 115.856 33.2275 115.691C33.1273 115.493 32.9942 115.328 32.8939 115.131C32.7939 114.966 32.6938 114.801 32.6268 114.636C32.5268 114.471 32.46 114.339 32.3599 114.174C32.2597 113.976 32.1596 113.811 32.0594 113.613C31.9592 113.416 31.8592 113.251 31.7589 113.053C30.3222 110.183 29.1815 106.981 28.3365 103.413C28.0318 102.026 27.7273 100.672 27.4889 99.317C27.3873 98.8545 27.3186 98.3588 27.2501 97.8962C27.1482 97.3675 27.0794 96.8388 27.0106 96.31C26.9758 95.9794 26.908 95.6491 26.8732 95.3185C26.5646 93.1705 26.3887 91.0879 26.2461 89.0713C26.4202 90.7901 26.7307 93.3019 27.2746 96.2094C27.6137 97.8612 28.0199 99.6781 28.5255 101.561C30.0417 107.043 32.5197 113.082 36.4476 118.089C44.1366 127.806 61.1984 133.738 71.8501 134.279C71.189 134.348 66.0002 135.003 58.5498 133.156Z" fill="#AD6946"/>
<path d="M80.2485 75.7004C78.1473 78.7205 74.0173 79.4692 71.0302 77.3678C68.3751 75.5294 67.4645 72.0616 68.7397 69.211C68.9032 68.8463 69.0998 68.4816 69.3296 68.1497C71.4308 65.1295 75.5608 64.3809 78.581 66.482C80.6388 67.9267 81.643 70.3027 81.3903 72.6189C81.2636 73.7109 80.9052 74.771 80.2485 75.7004Z" fill="#333132"/>
<path d="M80.767 73.7132C78.6659 76.7334 74.5358 77.482 71.5156 75.3809C69.4579 73.9362 68.4536 71.5602 68.7064 69.244C68.8699 68.8794 69.0664 68.5146 69.2962 68.1827C71.3974 65.1625 75.5275 64.4139 78.5477 66.5151C80.6054 67.9597 81.6097 70.3357 81.3569 72.652C81.2265 73.0164 80.9967 73.3483 80.767 73.7132Z" fill="#272425"/>
<path d="M76.0937 71.6203C77.4817 71.6132 78.6013 70.4822 78.5942 69.0942C78.5871 67.7061 77.4561 66.5866 76.068 66.5936C74.6799 66.6007 73.5604 67.7317 73.5675 69.1198C73.5746 70.5079 74.7056 71.6274 76.0937 71.6203Z" fill="white"/>
<path d="M74.8163 80.8534C74.7171 80.8539 74.5847 80.8215 74.5182 80.7557C74.3189 80.5914 74.2511 80.261 74.4485 80.0616C77.2743 76.4755 82.1247 74.3012 82.3226 74.2009C82.5867 74.1004 82.8517 74.1982 82.9854 74.4621C83.0859 74.7262 82.9881 74.9913 82.7242 75.1249C82.6913 75.1581 77.874 77.3323 75.2123 80.6861C75.0805 80.7859 74.9486 80.8528 74.8163 80.8534Z" fill="#43281F"/>
<path d="M120.979 66.6315C117.412 67.4765 113.829 65.2459 113.017 61.6784C112.273 58.5073 113.944 55.3571 116.815 54.0857C117.178 53.9185 117.574 53.7842 117.97 53.683C121.537 52.838 125.12 55.0686 125.932 58.6361C126.507 61.0805 125.627 63.5322 123.882 65.0954C123.092 65.827 122.102 66.3612 120.979 66.6315Z" fill="#333132"/>
<path d="M122.891 65.3965C119.357 66.3405 115.708 64.2425 114.764 60.6756C114.123 58.2647 114.904 55.7804 116.616 54.1512C116.979 53.984 117.375 53.8166 117.771 53.7154C121.305 52.7714 124.953 54.8693 125.898 58.4362C126.538 60.8471 125.757 63.3314 124.046 64.9606C123.683 65.1278 123.287 65.2952 122.891 65.3965Z" fill="#272425"/>
<path d="M121.777 60.9045C123.165 60.8974 124.285 59.7664 124.278 58.3783C124.271 56.9903 123.14 55.8707 121.752 55.8778C120.364 55.8849 119.244 57.0159 119.251 58.404C119.258 59.792 120.389 60.9116 121.777 60.9045Z" fill="white"/>
<path d="M123.602 68.4693C123.536 68.4696 123.437 68.437 123.37 68.4043C119.524 66.4727 114.233 66.5658 114.2 66.566C113.936 66.5673 113.703 66.337 113.702 66.0725C113.7 65.8079 113.898 65.5754 114.195 65.5739C114.427 65.5727 119.751 65.4794 123.829 67.509C124.061 67.6401 124.162 67.9373 124.064 68.1693C123.932 68.3684 123.768 68.4684 123.602 68.4693Z" fill="#43281F"/>
<path d="M109.745 108.409C123.541 105.243 132.626 93.5274 130.036 82.241C127.446 70.9546 114.162 64.3718 100.365 67.5379C86.569 70.7039 77.4844 82.4199 80.0744 93.7063C82.6645 104.993 95.9483 111.575 109.745 108.409Z" fill="#AD6946"/>
<path d="M110.011 116.341C123.897 113.155 133.054 101.422 130.464 90.1358C127.873 78.8494 114.517 72.2832 100.632 75.4696C86.7466 78.6561 77.5899 90.3887 80.1799 101.675C82.7699 112.961 96.1259 119.528 110.011 116.341Z" fill="#945339"/>
<path d="M87.5417 98.2186C95.1387 109.358 122.575 113.319 132.421 92.1693C132.609 90.0849 132.466 87.9691 131.992 85.8549C131.654 84.3023 131.117 82.8499 130.482 81.4642C127.907 75.8552 123.123 71.6465 117.491 69.6248C113.581 68.2226 109.214 67.8811 104.887 68.8622L96.8928 70.6888C92.5325 71.7032 88.7737 73.905 85.8454 76.8633C84.7926 77.9269 83.8396 79.1224 83.0192 80.3832C82.1785 84.1246 82.1442 90.3752 87.5417 98.2186Z" fill="#ECD09C"/>
<path d="M87.5399 98.2187C82.1753 90.3421 82.1767 84.1247 83.0507 80.4163C82.9851 80.5159 82.8865 80.6486 82.8209 80.7482C80.098 85.0613 78.8349 90.293 79.5234 95.6139C79.6263 96.341 79.7623 97.0678 79.8985 97.8278C82.6721 109.951 92.9323 118.034 110.902 113.941C118.467 112.216 124.432 108.217 128.143 103.171C130.574 99.8844 132.043 96.1068 132.387 92.2027C122.54 113.319 95.1369 109.358 87.5399 98.2187Z" fill="#DCBD8A"/>
<path d="M109.174 92.9481C108.91 92.9495 108.71 92.7521 108.676 92.5207C107.744 84.7869 105.505 80.3998 105.472 80.3669C105.339 80.1361 105.436 79.838 105.7 79.7043C105.931 79.5709 106.229 79.6686 106.363 79.9324C106.463 80.1304 108.701 84.5174 109.667 92.4165C109.702 92.6809 109.505 92.9464 109.24 92.9809C109.207 92.948 109.174 92.9481 109.174 92.9481Z" fill="#43281F"/>
<path d="M90.5863 73.2003C88.6409 74.3347 87.1261 75.5991 85.8429 76.8954C86.9757 78.5432 88.3718 79.9251 89.9978 81.0081C93.5484 83.3711 98.2159 84.2403 103.897 82.9215C106.408 82.3465 108.586 81.4425 110.399 80.3088C97.6419 81.9282 92.5553 76.6958 90.5863 73.2003Z" fill="#43281F"/>
<path d="M115.137 75.7215C116.351 73.8964 117.102 71.8422 117.487 69.6244C113.578 68.2223 109.208 67.4178 100.355 69.4472C96.2594 70.3941 93.0912 71.7 90.5854 73.201C92.5544 76.6965 97.6741 81.9287 110.398 80.3425C112.409 79.0756 113.989 77.5132 115.137 75.7215Z" fill="#5C392B"/>
<path d="M96.2056 72.5766C96.5354 72.4096 96.8322 72.2427 97.1623 72.1087C97.4923 71.9748 97.8223 71.8408 98.1193 71.707C98.7795 71.4721 99.4397 71.2373 100.1 71.0685C101.421 70.698 102.809 70.4264 104.197 70.254C105.585 70.0815 107.007 70.0412 108.429 70.1001C109.852 70.1921 111.275 70.4494 112.667 70.9383C113.329 71.1665 113.664 71.8923 113.436 72.5549C113.273 73.0518 112.811 73.3518 112.348 73.3872L112.282 73.3876C110.993 73.4603 109.77 73.5327 108.513 73.6383C107.257 73.7439 106.001 73.8826 104.712 74.0214L100.878 74.504L98.9285 74.7454C98.5979 74.7802 98.2674 74.8149 97.9369 74.8497C97.6063 74.8844 97.2758 74.9192 96.9783 74.9538L96.9122 74.9541C96.2179 74.9907 95.6199 74.4646 95.5833 73.7703C95.5146 73.2746 95.7768 72.8103 96.2056 72.5766Z" fill="white"/>
<path d="M113.421 101.988C112.83 102.785 112.039 103.418 110.917 103.853C108.937 104.657 104.469 103.952 101.732 98.9724C101.631 98.7745 101.498 98.5767 101.398 98.3788C99.1615 94.3555 97.7294 92.3786 97.7294 92.3786C97.7294 92.3786 109.021 95.1651 115.339 89.0478C115.339 89.0478 114.96 92.39 114.876 95.466C114.825 98.3765 114.505 100.495 113.421 101.988Z" fill="#43281F"/>
<path d="M113.422 101.987C112.83 102.784 112.04 103.416 110.918 103.852C108.938 104.656 104.469 103.951 101.732 98.9711C101.632 98.7732 101.499 98.5755 101.398 98.3775C102.125 98.2085 102.984 98.0718 103.877 98.0011C106.555 97.8221 109.798 98.3347 112.524 101C112.856 101.296 113.155 101.625 113.422 101.987Z" fill="#C45D69"/>
<path d="M112.556 101C111.645 104.047 105.225 103.088 104.017 99.6874C103.748 98.9281 103.779 98.3658 103.909 97.9682C106.587 97.8223 109.831 98.3349 112.556 101Z" fill="#D67679"/>
<path d="M104.052 93.5038C99.1245 93.5289 95.0152 91.8632 94.7832 91.7652C94.5182 91.6673 94.4174 91.3702 94.5153 91.1051C94.6132 90.8401 94.9103 90.7394 95.1754 90.8372C95.2417 90.8699 102.3 93.7442 108.806 91.8591C114.321 90.2766 116.322 87.2239 116.355 87.1906C116.486 86.9585 116.817 86.8906 117.049 87.0548C117.281 87.1859 117.349 87.5163 117.218 87.7485C117.12 87.8812 115.02 91.1329 109.109 92.8497C107.391 93.2883 105.672 93.4955 104.052 93.5038Z" fill="#43281F"/>
<path d="M28.4725 195.318C18.2126 200.265 7.78774 198.797 2.50411 193.83C0.865972 190.366 0.650694 187.06 1.26369 184.047C2.42556 178.419 6.63512 173.801 10.3255 171.137C16.9155 166.374 24.9149 159.157 36.1407 149.046C40.1569 145.421 43.9112 142.326 47.2052 139.763C48.6546 138.631 50.0383 137.599 51.3233 136.666C51.3233 136.666 59.6348 132.258 59.9471 141.616C60.2617 151.436 49.6522 185.124 28.4725 195.318Z" fill="#AD6946"/>
<path d="M45.8043 169.931C34.1388 191.09 3.71076 197.066 1.26328 184.048C2.42515 178.42 6.63471 173.802 10.3251 171.137C16.915 166.374 24.9145 159.157 36.1403 149.046C40.1564 145.421 43.9108 142.326 47.2048 139.763C47.2048 139.763 51.3611 137.658 53.0517 138.443C58.6213 141.127 59.1082 145.821 45.8043 169.931Z" fill="#B6724D"/>
<path d="M110.545 193.346C109.817 199.766 106.854 208.743 97.1688 216.2C96.7735 216.5 96.3451 216.8 95.9498 217.099C80.6812 225.61 65.7203 223.107 55.1468 211.95C53.8833 210.6 52.6522 209.151 51.5196 207.537C44.325 197.487 43.6986 184.89 48.5753 174.911C49.0007 174.015 49.4923 173.153 50.0173 172.324C51.5916 169.769 53.5639 167.411 55.9348 165.415C56.791 164.683 57.6803 163.984 58.6031 163.351C70.3673 155.089 86.7999 154.344 98.1905 163.612C101.777 166.504 104.306 169.534 106.106 172.402C106.339 172.731 106.54 173.061 106.707 173.424C107.674 175.072 108.377 176.623 108.913 178.042C109.014 178.34 109.148 178.67 109.248 178.967C109.349 179.264 109.45 179.561 109.517 179.825C109.652 180.254 109.753 180.651 109.854 181.047C109.888 181.212 109.922 181.344 109.956 181.477C110.43 183.624 110.437 184.98 110.437 185.046C110.371 185.046 111.115 188.416 110.545 193.346Z" fill="#B6724D"/>
<path d="M110.548 194.007C109.657 200.857 106.359 209.142 97.1681 216.2C96.7727 216.5 96.3443 216.799 95.949 217.099C80.6805 225.61 65.7196 223.107 55.1461 211.95C53.8825 210.6 52.6515 209.151 51.5188 207.536C44.3242 197.486 43.6978 184.89 48.5745 174.91C48.1272 177.988 48.178 181.46 48.6919 184.963C50.0616 194.15 54.8068 203.783 63.1997 208.866C68.0762 211.817 74.2014 213.208 81.6367 212.079C82.0993 212.011 82.5289 211.942 82.9914 211.841C90.5572 210.38 96.0253 206.119 99.8016 200.841C104.957 193.639 107.027 184.567 107.094 178.151C107.117 176.298 106.944 174.679 106.673 173.391C107.64 175.039 108.343 176.59 108.879 178.009C109.013 178.306 109.114 178.636 109.214 178.933C109.315 179.231 109.416 179.528 109.483 179.792C109.618 180.221 109.719 180.618 109.82 181.014C109.854 181.179 109.888 181.311 109.922 181.443C110.43 183.822 111.28 188.481 110.548 194.007Z" fill="#AD6946"/>
<path d="M64.4003 171.755C57.4154 176.883 54.084 185.102 54.8856 193.134C54.9548 193.729 55.0238 194.291 55.126 194.886C55.9323 197.362 57.1352 199.77 58.7669 201.977C66.9926 213.18 82.7467 215.58 93.9158 207.354C95.9255 205.856 97.6695 204.127 99.115 202.235C103.309 194.607 103.128 184.984 97.8971 177.405C97.7638 177.207 97.6305 177.009 97.4641 176.811C89.7048 166.268 74.9106 164.029 64.4003 171.755Z" fill="#ECD09C"/>
<path d="M81.8876 202.883C81.5576 203.017 81.1936 202.986 80.895 202.789L68.0208 194.422C66.428 193.372 65.295 191.691 64.8886 189.808C64.5153 187.958 64.8697 186.104 65.9202 184.577C68.0539 181.458 72.3486 180.576 75.5009 182.643L77.8567 184.153L79.1697 182.228C80.2199 180.635 81.934 179.535 83.8171 179.162C85.6674 178.821 87.5213 179.209 89.0479 180.259C92.1346 182.426 92.9502 186.721 90.8497 189.874L82.3816 202.484C82.2173 202.683 82.0526 202.816 81.8876 202.883ZM81.4526 201.893L81.1574 202.358L81.4526 201.893ZM69.4179 183.038C68.3949 183.473 67.4724 184.172 66.783 185.168C65.8967 186.462 65.607 188.018 65.9127 189.604C66.2517 191.223 67.218 192.64 68.5784 193.526L81.4526 201.893L89.9207 189.283C91.693 186.629 91.0129 182.961 88.3911 181.156C87.1299 180.269 85.5408 179.947 83.9879 180.219C82.3689 180.525 80.9186 181.458 80.0326 182.819L78.4572 185.175C78.293 185.407 77.9626 185.475 77.7303 185.311L74.9431 183.506C73.2511 182.456 71.167 182.335 69.4179 183.038Z" fill="#C59F6D"/>
<path d="M97.8639 177.404C103.095 184.984 103.309 194.64 99.0818 202.234C97.4762 205.153 95.2405 207.744 92.374 209.842C81.8637 217.568 67.0365 215.329 59.3102 204.785C57.079 201.754 55.6727 198.355 55.0596 194.852C54.9573 194.258 54.8883 193.696 54.8191 193.101C58.3919 199.796 67.1146 211.194 83.5203 205.191C98.0775 199.858 100.388 185.99 97.8639 177.404Z" fill="#DCBD8A"/>
<path d="M58.7679 201.976C57.1361 199.769 55.9333 197.361 55.127 194.885C55.7399 198.354 57.1462 201.753 59.3776 204.818C67.1037 215.328 81.8981 217.6 92.4414 209.874C95.3079 207.776 97.5434 205.152 99.1492 202.267C97.7037 204.159 95.9928 205.888 93.95 207.386C82.7145 215.579 66.9935 213.179 58.7679 201.976Z" fill="#C59F6D"/>
<path d="M110.548 194.007C110.547 193.776 110.546 193.544 110.545 193.313C110.453 188.32 109.236 183.034 107.094 178.151C101.875 166.338 88.6994 157.211 75.4464 158.899C54.46 161.586 47.6734 179.677 47.2885 188.509C46.7554 200.715 55.0807 211.983 55.2458 211.949C55.2458 211.949 55.2128 211.949 55.1137 211.983C53.8501 210.633 52.6191 209.185 51.4865 207.57C44.2919 197.52 43.5992 184.89 48.5422 174.944C59.4432 153.028 84.9366 152.171 98.0223 163.084C101.576 166.042 104.273 169.534 106.073 172.369C106.306 172.698 106.506 173.028 106.673 173.391C107.641 175.039 108.343 176.59 108.88 178.009C109.013 178.306 109.114 178.637 109.215 178.934C109.316 179.231 109.416 179.528 109.484 179.792C109.618 180.221 109.72 180.618 109.821 181.014C109.855 181.179 109.889 181.311 109.922 181.443C110.43 183.822 111.281 188.481 110.548 194.007Z" fill="#D59A77"/>
<path d="M51.2909 136.699C51.2909 136.699 35.2975 152.225 25.7851 161.07C12.6521 173.307 2.82106 178.054 4.96433 189.783C6.97076 200.62 14.0323 204.023 20.2238 205.447C14.6658 205.045 9.39754 203.088 5.73772 198.774C4.30711 197.095 3.24043 195.447 2.50462 193.83C0.86648 190.366 0.651201 187.06 1.2642 184.047C2.42607 178.419 6.63563 173.801 10.326 171.137C16.916 166.374 24.9155 159.157 36.1412 149.046C40.1574 145.421 43.9117 142.326 47.2057 139.762C48.6553 138.664 50.0059 137.632 51.2909 136.699Z" fill="#D59A77"/>
<path d="M198.783 187.439C196.109 201.309 186.492 209.229 174.665 211.538C167.462 212.831 155.568 208.692 156.199 189.805C156.199 189.805 167.599 213.856 187.581 195.631C204.336 180.333 161.533 172.118 161.533 172.118C161.533 172.118 163.715 159.11 173.437 152.347C176.304 150.348 178.977 149.276 181.389 148.768C184.533 149.314 187.317 150.391 189.706 151.933C198.665 157.774 202.102 170.324 198.783 187.439Z" fill="#B6724D"/>
<path d="M181.563 157.201C175.24 155.91 168.808 159.217 164.44 165.225C164.112 165.657 163.816 166.121 163.521 166.586C162.441 168.807 161.627 171.291 161.078 173.907C158.4 187.116 164.482 199.487 174.646 201.551C176.467 201.906 178.319 201.929 180.136 201.623C186.606 199.308 192.194 192.632 194.167 183.924C194.232 183.692 194.264 183.461 194.329 183.229C196.812 170.748 191.097 159.136 181.563 157.201Z" fill="#ECD09C"/>
<path d="M194.167 183.857C192.195 192.565 186.64 199.24 180.136 201.555C177.66 202.428 175.049 202.673 172.467 202.157C162.899 200.221 157.185 188.609 159.701 176.162C160.411 172.586 161.75 169.306 163.521 166.519C163.817 166.054 164.112 165.59 164.44 165.158C162.194 172.147 159.651 185.852 170.998 192.937C181.051 199.269 190.304 191.417 194.167 183.857Z" fill="#DCBD8A"/>
<path d="M161.111 173.873C161.626 171.258 162.474 168.807 163.554 166.552C161.782 169.339 160.476 172.587 159.733 176.195C157.217 188.61 162.932 200.255 172.499 202.19C175.081 202.706 177.693 202.462 180.169 201.589C178.351 201.896 176.532 201.905 174.678 201.518C164.515 199.453 158.433 187.082 161.111 173.873Z" fill="#C59F6D"/>
<path d="M184.347 191.018C184.182 191.019 184.017 190.987 183.851 190.888L177.878 187.049L171.38 190.257C171.215 190.357 170.983 190.359 170.785 190.327C170.619 190.294 170.487 190.229 170.387 190.13C170.121 189.9 170.02 189.537 170.084 189.206L171.832 181.756L167.141 176.191C166.908 175.927 166.873 175.564 166.971 175.232C167.101 174.901 167.398 174.668 167.761 174.633L174.835 173.903L178.472 167.237C178.635 166.905 178.998 166.738 179.329 166.736C179.693 166.768 179.992 166.998 180.126 167.328L182.741 174.292L189.66 175.745C189.991 175.81 190.29 176.106 190.358 176.436C190.426 176.766 190.329 177.131 190.065 177.364L184.601 182.418L185.235 189.988C185.27 190.352 185.106 190.683 184.81 190.883C184.711 190.983 184.546 191.017 184.347 191.018ZM177.906 186.024C178.005 186.024 178.072 186.056 178.171 186.089L184.309 190.026L183.641 182.225C183.64 182.092 183.673 181.927 183.804 181.827L189.466 176.606L182.348 175.121C182.183 175.089 182.05 174.99 182.016 174.825L179.334 167.695L175.599 174.494C175.533 174.627 175.401 174.726 175.236 174.727L167.898 175.492L172.756 181.255C172.855 181.354 172.889 181.519 172.857 181.684L171.044 189.333L177.708 186.058C177.774 186.025 177.84 186.024 177.906 186.024Z" fill="#C59F6D"/>
<path d="M175.436 148.832C172.66 149.21 169.892 151.208 169.892 151.208C177.88 148.224 187.215 149.996 192.606 156.615C203.988 170.646 196.263 199.126 188.094 205.65C193.398 201.555 197.004 195.452 198.816 187.472C203.377 167.474 196.157 145.915 175.436 148.832Z" fill="#D59A77"/>
<path d="M150.927 174.123C150.927 174.123 142.442 215.968 173.374 211.544C173.407 211.544 146.406 215.088 150.927 174.123Z" fill="#B6724D"/>
<path d="M93.1445 146.771C93.1445 146.771 104.101 142.184 108.713 132.173L112.346 131.262C112.346 131.262 121.755 141.003 133.917 139.453L129.985 133.751C129.985 133.751 115.117 129.892 114.852 129.893C114.588 129.894 109.398 130.417 109.398 130.417L98.4017 133.582L90.3219 144.503L93.1445 146.771Z" fill="#945339"/>
<path d="M79.3479 119.524C78.5904 120.123 78.0656 120.986 77.9716 122.012L79.6901 121.771L79.3479 119.524Z" fill="white"/>
<path d="M81.6576 118.718C80.897 118.722 80.1707 118.957 79.5774 119.357L81.6924 119.048L81.6576 118.718Z" fill="#71495A"/>
<path d="M83.0149 118.844C82.7171 118.812 82.4193 118.781 82.0883 118.716C81.9558 118.684 81.7905 118.685 81.6582 118.686L81.693 119.016L83.0149 118.844Z" fill="#D8BFB4"/>
<path d="M82.0697 121.428L81.7269 119.049L79.6119 119.357C79.5461 119.423 79.4471 119.457 79.3813 119.524L79.7234 121.771L82.0697 121.428Z" fill="#D8BFB4"/>
<path d="M82.0683 121.428L84.4477 121.085L84.1395 119.003C83.7753 118.939 83.4114 118.908 83.0142 118.844L81.6924 119.049L82.0683 121.428Z" fill="white"/>
<path d="M86.7949 120.71L86.5897 119.388C85.7952 119.227 84.9678 119.099 84.1074 119.004L84.4157 121.086L86.7949 120.71Z" fill="#D8BFB4"/>
<path d="M89.1724 120.367L89.1039 119.904C88.3092 119.71 87.4486 119.549 86.5879 119.388L86.7931 120.709L89.1724 120.367Z" fill="white"/>
<path d="M90.3638 120.196C89.9664 120.099 89.536 120.001 89.1387 119.904L89.2072 120.367L90.3638 120.196Z" fill="#D8BFB4"/>
<path d="M127.109 114.32C126.746 114.52 126.417 114.72 126.087 114.92L127.177 114.75L127.109 114.32Z" fill="white"/>
<path d="M129.555 114.407L129.35 113.118C128.559 113.519 127.833 113.92 127.108 114.32L127.176 114.75L129.555 114.407Z" fill="#D8BFB4"/>
<path d="M131.936 114.03L131.628 111.982C130.836 112.349 130.077 112.717 129.351 113.084L129.556 114.373L131.936 114.03Z" fill="white"/>
<path d="M133.905 111.01C133.773 111.044 133.674 111.078 133.542 111.144C133.245 111.278 132.981 111.379 132.684 111.513L133.94 111.341L133.905 111.01Z" fill="#71495A"/>
<path d="M136.121 111C135.425 110.772 134.632 110.776 133.905 111.012L133.94 111.342L136.121 111Z" fill="#D8BFB4"/>
<path d="M134.316 113.688L133.973 111.308L132.717 111.48C132.354 111.647 131.991 111.815 131.628 111.982L131.936 114.031L134.316 113.688Z" fill="#D8BFB4"/>
<path d="M134.315 113.688L136.694 113.345L136.352 111.065C136.286 111.032 136.219 110.999 136.153 111L133.972 111.308L134.315 113.688Z" fill="white"/>
<path d="M138.445 113.071C138.044 112.114 137.246 111.391 136.352 111.064L136.694 113.345L138.445 113.071Z" fill="#D8BFB4"/>
<path d="M79.6897 121.771L77.9712 122.011C77.9714 122.044 77.9716 122.077 77.9716 122.077C77.909 122.772 77.8469 123.566 77.8183 124.459L80.0324 124.117L79.6897 121.771Z" fill="#D8BFB4"/>
<path d="M77.8223 125.518C77.8245 125.947 77.827 126.444 77.8293 126.907L78.0276 126.872L77.8223 125.518Z" fill="#D8BFB4"/>
<path d="M80.3748 126.53L80.032 124.151L77.818 124.493C77.8196 124.823 77.7883 125.154 77.7901 125.518L77.9954 126.873L80.3748 126.53Z" fill="white"/>
<path d="M82.0933 121.436L79.7051 121.789L80.0586 124.177L82.4469 123.824L82.0933 121.436Z" fill="#71495A"/>
<path d="M84.4351 121.063L82.0469 121.417L82.4004 123.805L84.7887 123.452L84.4351 121.063Z" fill="#D8BFB4"/>
<path d="M82.4371 123.815L80.0488 124.169L80.4024 126.557L82.7906 126.204L82.4371 123.815Z" fill="#D8BFB4"/>
<path d="M84.8121 123.44L82.4238 123.794L82.7774 126.182L85.1656 125.829L84.8121 123.44Z" fill="white"/>
<path d="M86.8199 120.719L84.4316 121.072L84.7852 123.461L87.1734 123.107L86.8199 120.719Z" fill="#71495A"/>
<path d="M89.1968 120.377L86.8086 120.73L87.1621 123.119L89.5504 122.765L89.1968 120.377Z" fill="#D8BFB4"/>
<path d="M87.1929 123.096L84.8047 123.449L85.1582 125.837L87.5465 125.484L87.1929 123.096Z" fill="#D8BFB4"/>
<path d="M89.5425 122.757L87.1543 123.11L87.5078 125.499L89.8961 125.145L89.5425 122.757Z" fill="white"/>
<path d="M89.5486 122.747L91.928 122.404L91.654 120.554C91.2235 120.457 90.793 120.326 90.3625 120.229L89.2059 120.401L89.5486 122.747Z" fill="#71495A"/>
<path d="M94.2745 122.061L94.1714 121.301C93.3763 121.041 92.5152 120.781 91.6211 120.554L91.8951 122.404L94.2745 122.061Z" fill="#D8BFB4"/>
<path d="M91.9215 122.414L89.5332 122.768L89.8867 125.156L92.275 124.802L91.9215 122.414Z" fill="#D8BFB4"/>
<path d="M94.2984 122.037L91.9102 122.391L92.2637 124.779L94.6519 124.425L94.2984 122.037Z" fill="white"/>
<path d="M95.7952 121.822C95.265 121.626 94.7351 121.463 94.1719 121.268L94.275 122.028L95.7952 121.822Z" fill="#71495A"/>
<path d="M94.6508 124.407L97.0302 124.064L96.7558 122.147C96.4575 122.017 96.1263 121.919 95.828 121.788L94.3409 121.994L94.6508 124.407Z" fill="#D8BFB4"/>
<path d="M99.3762 123.721L99.3075 123.226C98.512 122.866 97.6503 122.507 96.7227 122.181L96.997 124.097L99.3762 123.721Z" fill="white"/>
<path d="M100.17 123.584C99.9052 123.453 99.6069 123.322 99.3086 123.191L99.3773 123.687L100.17 123.584Z" fill="#D8BFB4"/>
<path d="M118.31 120.451C118.079 120.65 117.882 120.85 117.651 121.016L118.378 120.913L118.31 120.451Z" fill="white"/>
<path d="M122.657 117.088C122.195 117.421 121.767 117.721 121.339 118.054L122.793 117.848L122.657 117.088Z" fill="#D8BFB4"/>
<path d="M120.758 120.537L120.483 118.653C119.693 119.252 119.001 119.851 118.31 120.417L118.378 120.879L120.758 120.537Z" fill="#D8BFB4"/>
<path d="M123.136 120.194L122.793 117.814L121.339 118.02C121.043 118.22 120.746 118.453 120.483 118.653L120.757 120.537L123.136 120.194Z" fill="white"/>
<path d="M125.173 117.471L124.899 115.621C124.141 116.12 123.383 116.587 122.691 117.087L122.794 117.814L125.173 117.471Z" fill="#71495A"/>
<path d="M127.519 117.129L127.176 114.75L126.086 114.921C125.69 115.155 125.295 115.388 124.899 115.655L125.173 117.505L127.519 117.129Z" fill="#D8BFB4"/>
<path d="M125.166 117.481L122.777 117.835L123.131 120.223L125.519 119.87L125.166 117.481Z" fill="#D8BFB4"/>
<path d="M127.546 117.138L125.158 117.491L125.512 119.879L127.9 119.526L127.546 117.138Z" fill="white"/>
<path d="M129.58 114.381L127.191 114.734L127.545 117.123L129.933 116.769L129.58 114.381Z" fill="#71495A"/>
<path d="M131.961 114.037L129.572 114.391L129.926 116.779L132.314 116.425L131.961 114.037Z" fill="#D8BFB4"/>
<path d="M129.923 116.761L127.535 117.114L127.889 119.503L130.277 119.149L129.923 116.761Z" fill="#D8BFB4"/>
<path d="M132.302 116.418L129.914 116.771L130.268 119.16L132.656 118.806L132.302 116.418Z" fill="white"/>
<path d="M134.341 113.692L131.953 114.046L132.307 116.434L134.695 116.081L134.341 113.692Z" fill="#71495A"/>
<path d="M136.722 113.348L134.334 113.701L134.688 116.089L137.076 115.736L136.722 113.348Z" fill="#D8BFB4"/>
<path d="M134.683 116.074L132.295 116.428L132.648 118.816L135.037 118.462L134.683 116.074Z" fill="#D8BFB4"/>
<path d="M137.064 115.731L134.676 116.085L135.029 118.473L137.418 118.12L137.064 115.731Z" fill="white"/>
<path d="M137.038 115.724L139.318 115.382C139.049 114.556 138.747 113.797 138.513 113.137C138.512 113.104 138.479 113.104 138.479 113.071L136.695 113.345L137.038 115.724Z" fill="#71495A"/>
<path d="M137.379 118.105L139.759 117.762L139.485 116.01C139.418 115.812 139.351 115.614 139.284 115.416L137.004 115.758L137.379 118.105Z" fill="#D8BFB4"/>
<path d="M139.991 117.694C139.823 117.099 139.654 116.505 139.486 115.977L139.76 117.728L139.991 117.694Z" fill="white"/>
<path d="M78.0285 126.873L77.8302 126.907C77.8341 127.668 77.9043 128.461 77.9418 129.321L78.3713 129.252L78.0285 126.873Z" fill="#71495A"/>
<path d="M80.4019 126.539L78.0137 126.893L78.3672 129.281L80.7555 128.927L80.4019 126.539Z" fill="#D8BFB4"/>
<path d="M78.3713 129.252L77.9417 129.32C78.0118 130.08 78.0819 130.874 78.1523 131.7L78.6811 131.631L78.3713 129.252Z" fill="#D8BFB4"/>
<path d="M80.7769 128.916L78.3887 129.27L78.7422 131.658L81.1305 131.304L80.7769 128.916Z" fill="white"/>
<path d="M82.775 126.164L80.3867 126.518L80.7403 128.906L83.1285 128.552L82.775 126.164Z" fill="#71495A"/>
<path d="M85.1558 125.82L82.7676 126.174L83.1211 128.562L85.5094 128.209L85.1558 125.82Z" fill="#D8BFB4"/>
<path d="M83.1187 128.545L80.7305 128.898L81.084 131.287L83.4723 130.933L83.1187 128.545Z" fill="#D8BFB4"/>
<path d="M85.4996 128.201L83.1113 128.555L83.4649 130.943L85.8531 130.589L85.4996 128.201Z" fill="white"/>
<path d="M87.5367 125.477L85.1484 125.83L85.502 128.218L87.8902 127.865L87.5367 125.477Z" fill="#71495A"/>
<path d="M89.9175 125.134L87.5293 125.487L87.8828 127.876L90.2711 127.522L89.9175 125.134Z" fill="#D8BFB4"/>
<path d="M87.8804 127.857L85.4922 128.211L85.8457 130.599L88.234 130.246L87.8804 127.857Z" fill="#D8BFB4"/>
<path d="M90.2613 127.514L87.873 127.867L88.2266 130.255L90.6148 129.902L90.2613 127.514Z" fill="white"/>
<path d="M92.2945 124.757L89.9062 125.11L90.2598 127.499L92.648 127.145L92.2945 124.757Z" fill="#71495A"/>
<path d="M94.6421 124.417L92.2539 124.771L92.6074 127.159L94.9957 126.805L94.6421 124.417Z" fill="#D8BFB4"/>
<path d="M92.6383 127.136L90.25 127.489L90.6035 129.878L92.9918 129.524L92.6383 127.136Z" fill="#D8BFB4"/>
<path d="M95.0171 126.794L92.6289 127.147L92.9824 129.536L95.3707 129.182L95.0171 126.794Z" fill="white"/>
<path d="M97.0211 124.075L94.6328 124.429L94.9864 126.817L97.3746 126.463L97.0211 124.075Z" fill="#71495A"/>
<path d="M99.4019 123.73L97.0137 124.084L97.3672 126.472L99.7555 126.119L99.4019 123.73Z" fill="#D8BFB4"/>
<path d="M97.4 126.448L95.0117 126.802L95.3653 129.19L97.7535 128.836L97.4 126.448Z" fill="#D8BFB4"/>
<path d="M99.7418 126.078L97.3535 126.432L97.7071 128.82L100.095 128.466L99.7418 126.078Z" fill="white"/>
<path d="M99.7514 126.1L102.131 125.758L101.926 124.469C101.362 124.174 100.799 123.912 100.169 123.618L99.3755 123.721L99.7514 126.1Z" fill="#71495A"/>
<path d="M103.818 125.484C103.254 125.156 102.591 124.796 101.928 124.436L102.133 125.724L103.818 125.484Z" fill="#D8BFB4"/>
<path d="M102.123 125.734L99.7344 126.088L100.088 128.476L102.476 128.123L102.123 125.734Z" fill="#D8BFB4"/>
<path d="M102.475 128.104L104.854 127.761L104.58 125.911C104.348 125.779 104.083 125.615 103.851 125.484L102.132 125.725L102.475 128.104Z" fill="white"/>
<path d="M106.903 127.453C106.305 127.026 105.542 126.501 104.58 125.91L104.854 127.761L106.903 127.453Z" fill="#D8BFB4"/>
<path d="M114.065 124.572C113.342 125.37 112.783 126.1 112.323 126.664L114.306 126.357L114.065 124.572Z" fill="white"/>
<path d="M116.17 122.379C115.643 122.911 115.15 123.41 114.689 123.875L116.342 123.635L116.17 122.379Z" fill="#71495A"/>
<path d="M118.721 123.292L118.378 120.913L117.651 121.015C117.124 121.481 116.63 121.947 116.17 122.379L116.341 123.635L118.721 123.292Z" fill="#D8BFB4"/>
<path d="M116.716 126.014L116.374 123.635L114.721 123.875C114.491 124.107 114.294 124.34 114.097 124.572L114.37 126.357L116.716 126.014Z" fill="#D8BFB4"/>
<path d="M118.744 123.269L116.355 123.622L116.709 126.01L119.097 125.657L118.744 123.269Z" fill="white"/>
<path d="M120.781 120.545L118.393 120.898L118.746 123.287L121.134 122.933L120.781 120.545Z" fill="#71495A"/>
<path d="M123.162 120.2L120.773 120.554L121.127 122.942L123.515 122.588L123.162 120.2Z" fill="#D8BFB4"/>
<path d="M121.125 122.925L118.736 123.278L119.09 125.667L121.478 125.313L121.125 122.925Z" fill="#D8BFB4"/>
<path d="M123.505 122.582L121.117 122.936L121.471 125.324L123.859 124.97L123.505 122.582Z" fill="white"/>
<path d="M125.543 119.856L123.154 120.21L123.508 122.598L125.896 122.245L125.543 119.856Z" fill="#71495A"/>
<path d="M127.919 119.479L125.531 119.833L125.885 122.221L128.273 121.868L127.919 119.479Z" fill="#D8BFB4"/>
<path d="M125.886 122.238L123.498 122.592L123.852 124.98L126.24 124.627L125.886 122.238Z" fill="#D8BFB4"/>
<path d="M128.261 121.861L125.873 122.215L126.227 124.603L128.615 124.25L128.261 121.861Z" fill="white"/>
<path d="M130.265 119.143L127.877 119.496L128.23 121.884L130.619 121.531L130.265 119.143Z" fill="#71495A"/>
<path d="M132.646 118.799L130.258 119.152L130.611 121.541L133 121.187L132.646 118.799Z" fill="#D8BFB4"/>
<path d="M130.642 121.518L128.254 121.871L128.607 124.259L130.996 123.906L130.642 121.518Z" fill="#D8BFB4"/>
<path d="M133.023 121.174L130.635 121.527L130.988 123.916L133.377 123.562L133.023 121.174Z" fill="white"/>
<path d="M135.027 118.455L132.639 118.809L132.992 121.197L135.38 120.843L135.027 118.455Z" fill="#71495A"/>
<path d="M137.402 118.079L135.014 118.433L135.367 120.821L137.755 120.467L137.402 118.079Z" fill="#D8BFB4"/>
<path d="M135.371 120.836L132.982 121.189L133.336 123.578L135.724 123.224L135.371 120.836Z" fill="#D8BFB4"/>
<path d="M137.748 120.459L135.359 120.812L135.713 123.201L138.101 122.847L137.748 120.459Z" fill="white"/>
<path d="M139.785 117.734L137.396 118.088L137.75 120.476L140.138 120.123L139.785 117.734Z" fill="#71495A"/>
<path d="M140.101 120.108L140.563 120.039C140.361 119.214 140.191 118.421 139.989 117.694L139.758 117.728L140.101 120.108Z" fill="#D8BFB4"/>
<path d="M140.128 120.114L137.74 120.468L138.094 122.856L140.482 122.502L140.128 120.114Z" fill="#D8BFB4"/>
<path d="M140.478 122.486L141.073 122.383C140.936 121.557 140.767 120.764 140.598 120.038L140.135 120.106L140.478 122.486Z" fill="white"/>
<path d="M78.7147 131.631L78.1859 131.7C78.289 132.46 78.3922 133.253 78.4957 134.079L79.0575 134.01L78.7147 131.631Z" fill="#71495A"/>
<path d="M81.1148 131.264L78.7266 131.617L79.0801 134.005L81.4684 133.652L81.1148 131.264Z" fill="#D8BFB4"/>
<path d="M79.0563 134.011L78.4945 134.08C78.5282 134.212 78.5287 134.311 78.5625 134.443C78.6652 135.137 78.768 135.831 78.8704 136.459L79.4322 136.39L79.0563 134.011Z" fill="#D8BFB4"/>
<path d="M81.4586 133.645L79.0703 133.998L79.4239 136.386L81.8121 136.033L81.4586 133.645Z" fill="white"/>
<path d="M83.4957 130.92L81.1074 131.273L81.461 133.662L83.8492 133.308L83.4957 130.92Z" fill="#71495A"/>
<path d="M85.8765 130.577L83.4883 130.931L83.8418 133.319L86.2301 132.965L85.8765 130.577Z" fill="#D8BFB4"/>
<path d="M83.8394 133.301L81.4512 133.654L81.8047 136.043L84.193 135.689L83.8394 133.301Z" fill="#D8BFB4"/>
<path d="M86.2203 132.957L83.832 133.311L84.1856 135.699L86.5738 135.345L86.2203 132.957Z" fill="white"/>
<path d="M88.2242 130.238L85.8359 130.592L86.1895 132.98L88.5777 132.627L88.2242 130.238Z" fill="#71495A"/>
<path d="M90.6011 129.86L88.2129 130.214L88.5664 132.602L90.9547 132.249L90.6011 129.86Z" fill="#D8BFB4"/>
<path d="M88.6011 132.614L86.2129 132.968L86.5664 135.356L88.9547 135.002L88.6011 132.614Z" fill="#D8BFB4"/>
<path d="M90.9761 132.237L88.5879 132.591L88.9414 134.979L91.3297 134.626L90.9761 132.237Z" fill="white"/>
<path d="M92.9801 129.518L90.5918 129.871L90.9453 132.259L93.3336 131.906L92.9801 129.518Z" fill="#71495A"/>
<path d="M95.3609 129.174L92.9727 129.527L93.3262 131.916L95.7144 131.562L95.3609 129.174Z" fill="#D8BFB4"/>
<path d="M93.3238 131.898L90.9355 132.252L91.2891 134.64L93.6773 134.287L93.3238 131.898Z" fill="#D8BFB4"/>
<path d="M95.7046 131.556L93.3164 131.909L93.6699 134.297L96.0582 133.944L95.7046 131.556Z" fill="white"/>
<path d="M97.7418 128.831L95.3535 129.185L95.7071 131.573L98.0953 131.219L97.7418 128.831Z" fill="#71495A"/>
<path d="M100.119 128.453L97.7305 128.807L98.084 131.195L100.472 130.841L100.119 128.453Z" fill="#D8BFB4"/>
<path d="M98.0797 131.179L95.6914 131.532L96.0449 133.92L98.4332 133.567L98.0797 131.179Z" fill="#D8BFB4"/>
<path d="M100.461 130.835L98.0723 131.188L98.4258 133.577L100.814 133.223L100.461 130.835Z" fill="white"/>
<path d="M102.498 128.11L100.109 128.464L100.463 130.852L102.851 130.499L102.498 128.11Z" fill="#71495A"/>
<path d="M104.845 127.772L102.457 128.126L102.811 130.514L105.199 130.161L104.845 127.772Z" fill="#D8BFB4"/>
<path d="M102.843 130.491L100.455 130.845L100.809 133.233L103.197 132.879L102.843 130.491Z" fill="#D8BFB4"/>
<path d="M105.222 130.147L102.834 130.501L103.188 132.889L105.576 132.536L105.222 130.147Z" fill="white"/>
<path d="M105.198 130.14L107.28 129.832L107.04 128.212C107.006 128.014 107.071 127.815 107.169 127.65C107.07 127.584 107.003 127.518 106.904 127.452L104.855 127.761L105.198 130.14Z" fill="#71495A"/>
<path d="M105.197 130.14L105.54 132.52L107.622 132.212L107.347 130.229L107.279 129.832L105.197 130.14Z" fill="#D8BFB4"/>
<path d="M112.59 127.392L112.83 129.011L114.713 128.737L114.37 126.357L112.388 126.665C112.322 126.732 112.289 126.798 112.256 126.864C112.389 126.963 112.556 127.16 112.59 127.392Z" fill="#D8BFB4"/>
<path d="M112.829 129.011L112.865 129.407L113.172 131.39L115.056 131.116L114.68 128.737L112.829 129.011Z" fill="white"/>
<path d="M116.746 126.02L114.357 126.374L114.711 128.762L117.099 128.409L116.746 126.02Z" fill="#71495A"/>
<path d="M119.121 125.645L116.732 125.998L117.086 128.386L119.474 128.033L119.121 125.645Z" fill="#D8BFB4"/>
<path d="M117.084 128.369L114.695 128.723L115.049 131.111L117.437 130.757L117.084 128.369Z" fill="#D8BFB4"/>
<path d="M119.464 128.025L117.076 128.379L117.43 130.767L119.818 130.414L119.464 128.025Z" fill="white"/>
<path d="M121.502 125.301L119.113 125.654L119.467 128.043L121.855 127.689L121.502 125.301Z" fill="#71495A"/>
<path d="M123.849 124.962L121.461 125.315L121.814 127.704L124.203 127.35L123.849 124.962Z" fill="#D8BFB4"/>
<path d="M121.845 127.682L119.457 128.035L119.811 130.423L122.199 130.07L121.845 127.682Z" fill="#D8BFB4"/>
<path d="M124.224 127.339L121.836 127.692L122.189 130.081L124.578 129.727L124.224 127.339Z" fill="white"/>
<path d="M126.226 124.586L123.838 124.939L124.191 127.328L126.58 126.974L126.226 124.586Z" fill="#71495A"/>
<path d="M128.605 124.242L126.217 124.596L126.57 126.984L128.959 126.63L128.605 124.242Z" fill="#D8BFB4"/>
<path d="M126.601 126.962L124.213 127.315L124.566 129.704L126.955 129.35L126.601 126.962Z" fill="#D8BFB4"/>
<path d="M128.949 126.623L126.561 126.977L126.914 129.365L129.302 129.011L128.949 126.623Z" fill="white"/>
<path d="M130.988 123.896L128.6 124.25L128.953 126.638L131.341 126.285L130.988 123.896Z" fill="#71495A"/>
<path d="M133.367 123.555L130.979 123.908L131.332 126.296L133.72 125.943L133.367 123.555Z" fill="#D8BFB4"/>
<path d="M131.33 126.279L128.941 126.633L129.295 129.021L131.683 128.668L131.33 126.279Z" fill="#D8BFB4"/>
<path d="M133.711 125.936L131.322 126.289L131.676 128.677L134.064 128.324L133.711 125.936Z" fill="white"/>
<path d="M135.742 123.179L133.354 123.532L133.707 125.92L136.095 125.567L135.742 123.179Z" fill="#71495A"/>
<path d="M138.125 122.835L135.736 123.188L136.09 125.577L138.478 125.223L138.125 122.835Z" fill="#D8BFB4"/>
<path d="M136.087 125.558L133.699 125.911L134.053 128.299L136.441 127.946L136.087 125.558Z" fill="#D8BFB4"/>
<path d="M138.466 125.217L136.078 125.57L136.432 127.959L138.82 127.605L138.466 125.217Z" fill="white"/>
<path d="M140.472 122.496L138.084 122.85L138.438 125.238L140.826 124.884L140.472 122.496Z" fill="#71495A"/>
<path d="M140.82 124.866L141.448 124.764C141.344 123.938 141.208 123.145 141.072 122.385L140.477 122.487L140.82 124.866Z" fill="#D8BFB4"/>
<path d="M140.847 124.872L138.459 125.226L138.813 127.614L141.201 127.26L140.847 124.872Z" fill="#D8BFB4"/>
<path d="M141.164 127.245L141.791 127.143C141.722 126.482 141.619 125.821 141.484 125.127C141.483 124.995 141.449 124.896 141.449 124.763L140.821 124.866L141.164 127.245Z" fill="white"/>
<path d="M79.4333 136.39L78.8714 136.459C79.0079 137.285 79.1773 138.078 79.3133 138.805L79.776 138.736L79.4333 136.39Z" fill="#71495A"/>
<path d="M81.8023 136.025L79.4141 136.379L79.7676 138.767L82.1559 138.414L81.8023 136.025Z" fill="#D8BFB4"/>
<path d="M79.7774 138.769L79.3148 138.838C79.4844 139.664 79.6868 140.456 79.8559 141.183L80.1203 141.149L79.7774 138.769Z" fill="#D8BFB4"/>
<path d="M82.1793 138.401L79.791 138.755L80.1446 141.143L82.5328 140.79L82.1793 138.401Z" fill="white"/>
<path d="M84.1832 135.682L81.7949 136.035L82.1485 138.423L84.5367 138.07L84.1832 135.682Z" fill="#71495A"/>
<path d="M86.564 135.339L84.1758 135.692L84.5293 138.081L86.9176 137.727L86.564 135.339Z" fill="#D8BFB4"/>
<path d="M84.5269 138.062L82.1387 138.416L82.4922 140.804L84.8805 140.451L84.5269 138.062Z" fill="#D8BFB4"/>
<path d="M86.9078 137.718L84.5195 138.071L84.8731 140.46L87.2613 140.106L86.9078 137.718Z" fill="white"/>
<path d="M88.939 134.961L86.5508 135.314L86.9043 137.703L89.2926 137.349L88.939 134.961Z" fill="#71495A"/>
<path d="M91.3199 134.618L88.9316 134.972L89.2852 137.36L91.6734 137.006L91.3199 134.618Z" fill="#D8BFB4"/>
<path d="M89.2828 137.343L86.8945 137.696L87.2481 140.085L89.6363 139.731L89.2828 137.343Z" fill="#D8BFB4"/>
<path d="M91.6636 136.999L89.2754 137.353L89.6289 139.741L92.0172 139.387L91.6636 136.999Z" fill="white"/>
<path d="M93.7007 134.274L91.3125 134.628L91.666 137.016L94.0543 136.663L93.7007 134.274Z" fill="#71495A"/>
<path d="M96.0816 133.931L93.6934 134.284L94.0469 136.672L96.4351 136.319L96.0816 133.931Z" fill="#D8BFB4"/>
<path d="M94.0464 136.653L91.6582 137.007L92.0117 139.395L94.4 139.042L94.0464 136.653Z" fill="#D8BFB4"/>
<path d="M96.4195 136.279L94.0312 136.633L94.3848 139.021L96.773 138.668L96.4195 136.279Z" fill="white"/>
<path d="M98.4254 133.56L96.0371 133.913L96.3907 136.301L98.7789 135.948L98.4254 133.56Z" fill="#71495A"/>
<path d="M100.804 133.216L98.416 133.569L98.7696 135.958L101.158 135.604L100.804 133.216Z" fill="#D8BFB4"/>
<path d="M98.8004 135.935L96.4121 136.288L96.7656 138.676L99.1539 138.323L98.8004 135.935Z" fill="#D8BFB4"/>
<path d="M101.183 135.591L98.7949 135.944L99.1485 138.333L101.537 137.979L101.183 135.591Z" fill="white"/>
<path d="M103.185 132.872L100.797 133.226L101.15 135.614L103.539 135.26L103.185 132.872Z" fill="#71495A"/>
<path d="M105.566 132.528L103.178 132.882L103.531 135.27L105.92 134.917L105.566 132.528Z" fill="#D8BFB4"/>
<path d="M101.156 135.585L101.499 137.964L103.316 137.69C103.481 137.524 103.646 137.391 103.81 137.225L103.502 135.242L101.156 135.585Z" fill="#D8BFB4"/>
<path d="M103.504 135.242L103.811 137.225C104.634 136.46 105.325 135.729 105.917 135.064L105.883 134.899L103.504 135.242Z" fill="white"/>
<path d="M107.622 132.244L105.54 132.519L105.883 134.899L106.082 134.865C106.838 134.001 107.429 133.27 107.856 132.673C107.756 132.574 107.656 132.409 107.622 132.244Z" fill="#71495A"/>
<path d="M105.917 135.064C105.983 134.998 106.049 134.932 106.081 134.865L105.883 134.899L105.917 135.064Z" fill="#D8BFB4"/>
<path d="M115.058 131.116L113.175 131.39L113.175 131.423C113.209 131.654 113.144 131.853 113.012 132.019C113.577 132.446 114.34 132.938 115.236 133.529L115.368 133.495L115.058 131.116Z" fill="#D8BFB4"/>
<path d="M115.268 133.495C115.334 133.528 115.367 133.561 115.433 133.593L115.433 133.494L115.268 133.495Z" fill="white"/>
<path d="M117.427 130.749L115.039 131.103L115.393 133.491L117.781 133.137L117.427 130.749Z" fill="#71495A"/>
<path d="M119.808 130.406L117.42 130.76L117.773 133.148L120.162 132.794L119.808 130.406Z" fill="#D8BFB4"/>
<path d="M115.4 133.495L115.401 133.594C116.164 134.053 117.059 134.544 118.054 135.069L117.78 133.119L115.4 133.495Z" fill="#D8BFB4"/>
<path d="M120.158 132.776L117.779 133.119L118.054 135.069C118.286 135.167 118.485 135.298 118.717 135.396L120.468 135.122L120.158 132.776Z" fill="white"/>
<path d="M122.187 130.063L119.799 130.417L120.152 132.805L122.541 132.452L122.187 130.063Z" fill="#71495A"/>
<path d="M124.564 129.686L122.176 130.039L122.529 132.427L124.918 132.074L124.564 129.686Z" fill="#D8BFB4"/>
<path d="M122.533 132.442L120.145 132.796L120.498 135.184L122.886 134.831L122.533 132.442Z" fill="#D8BFB4"/>
<path d="M124.908 132.067L122.52 132.421L122.873 134.809L125.261 134.456L124.908 132.067Z" fill="white"/>
<path d="M126.945 129.343L124.557 129.696L124.91 132.085L127.298 131.731L126.945 129.343Z" fill="#71495A"/>
<path d="M129.326 128.999L126.938 129.353L127.291 131.741L129.679 131.387L129.326 128.999Z" fill="#D8BFB4"/>
<path d="M127.291 131.721L124.902 132.074L125.256 134.462L127.644 134.109L127.291 131.721Z" fill="#D8BFB4"/>
<path d="M129.67 131.38L127.281 131.733L127.635 134.122L130.023 133.768L129.67 131.38Z" fill="white"/>
<path d="M131.673 128.66L129.285 129.014L129.639 131.402L132.027 131.048L131.673 128.66Z" fill="#71495A"/>
<path d="M134.05 128.283L131.662 128.637L132.016 131.025L134.404 130.671L134.05 128.283Z" fill="#D8BFB4"/>
<path d="M132.05 131.036L129.662 131.39L130.016 133.778L132.404 133.424L132.05 131.036Z" fill="#D8BFB4"/>
<path d="M134.425 130.659L132.037 131.013L132.391 133.401L134.779 133.047L134.425 130.659Z" fill="white"/>
<path d="M136.429 127.939L134.041 128.293L134.395 130.681L136.783 130.328L136.429 127.939Z" fill="#71495A"/>
<path d="M138.81 127.596L136.422 127.949L136.775 130.337L139.164 129.984L138.81 127.596Z" fill="#D8BFB4"/>
<path d="M136.773 130.32L134.385 130.674L134.738 133.062L137.127 132.709L136.773 130.32Z" fill="#D8BFB4"/>
<path d="M139.154 129.978L136.766 130.331L137.119 132.719L139.507 132.366L139.154 129.978Z" fill="white"/>
<path d="M141.193 127.252L138.805 127.605L139.158 129.994L141.546 129.64L141.193 127.252Z" fill="#71495A"/>
<path d="M141.507 129.624L142.036 129.555C141.966 128.795 141.896 128.002 141.792 127.176L141.165 127.278L141.507 129.624Z" fill="#D8BFB4"/>
<path d="M141.529 129.601L139.141 129.954L139.494 132.342L141.882 131.989L141.529 129.601Z" fill="#D8BFB4"/>
<path d="M141.882 132.004L142.213 131.969C142.176 131.209 142.139 130.415 142.068 129.556L141.539 129.625L141.882 132.004Z" fill="white"/>
<path d="M79.8539 141.183C80.056 141.91 80.2247 142.57 80.4263 143.198L80.1181 141.116L79.8539 141.183Z" fill="#71495A"/>
<path d="M82.4982 140.772L80.1189 141.115L80.4271 143.197C80.4607 143.296 80.4943 143.395 80.5279 143.494L82.8411 143.151L82.4982 140.772Z" fill="#D8BFB4"/>
<path d="M82.8423 143.151L80.529 143.494C80.798 144.352 81.0664 145.112 81.3345 145.805L83.2182 145.53L82.8423 143.151Z" fill="white"/>
<path d="M84.9039 140.437L82.5156 140.791L82.8692 143.179L85.2574 142.826L84.9039 140.437Z" fill="#71495A"/>
<path d="M87.2789 140.061L84.8906 140.415L85.2442 142.803L87.6324 142.45L87.2789 140.061Z" fill="#D8BFB4"/>
<path d="M85.2457 142.819L82.8574 143.173L83.211 145.561L85.5992 145.208L85.2457 142.819Z" fill="#D8BFB4"/>
<path d="M87.6207 142.443L85.2324 142.797L85.586 145.185L87.9742 144.832L87.6207 142.443Z" fill="white"/>
<path d="M89.6265 139.724L87.2383 140.077L87.5918 142.465L89.9801 142.112L89.6265 139.724Z" fill="#71495A"/>
<path d="M92.0074 139.379L89.6191 139.732L89.9727 142.121L92.3609 141.767L92.0074 139.379Z" fill="#D8BFB4"/>
<path d="M90.0035 142.099L87.6152 142.452L87.9688 144.84L90.357 144.487L90.0035 142.099Z" fill="#D8BFB4"/>
<path d="M92.3843 141.756L89.9961 142.109L90.3496 144.498L92.7379 144.144L92.3843 141.756Z" fill="white"/>
<path d="M94.3882 139.036L92 139.39L92.3535 141.778L94.7418 141.424L94.3882 139.036Z" fill="#71495A"/>
<path d="M96.7652 138.658L94.377 139.012L94.7305 141.4L97.1187 141.046L96.7652 138.658Z" fill="#D8BFB4"/>
<path d="M94.7261 141.384L92.3379 141.737L92.6914 144.126L95.0797 143.772L94.7261 141.384Z" fill="#D8BFB4"/>
<path d="M94.738 141.405L95.0809 143.784L95.5104 143.716C96.1367 143.316 96.73 142.916 97.3232 142.516L97.1174 141.062L94.738 141.405Z" fill="white"/>
<path d="M99.1441 138.315L96.7559 138.669L97.1094 141.057L99.4977 140.704L99.1441 138.315Z" fill="#71495A"/>
<path d="M99.1189 138.307L99.4617 140.687L99.8582 140.618C100.484 140.119 101.077 139.62 101.637 139.154L101.465 137.965L99.1189 138.307Z" fill="#D8BFB4"/>
<path d="M97.0839 141.029L97.2897 142.483C98.0807 141.95 98.8056 141.417 99.4973 140.884L99.4631 140.653L97.0839 141.029Z" fill="#D8BFB4"/>
<path d="M99.4975 140.918C99.6293 140.818 99.761 140.718 99.8597 140.618L99.4632 140.686L99.4975 140.918Z" fill="white"/>
<path d="M101.671 139.153C102.264 138.654 102.823 138.155 103.317 137.69L101.499 137.964L101.671 139.153Z" fill="#71495A"/>
<path d="M118.716 135.43C119.313 135.724 119.976 136.019 120.639 136.346L120.468 135.189L118.716 135.43Z" fill="#D8BFB4"/>
<path d="M122.881 134.812L120.502 135.155L120.673 136.312C121.369 136.606 122.098 136.933 122.893 137.226L123.257 137.158L122.881 134.812Z" fill="#71495A"/>
<path d="M125.252 134.448L122.863 134.802L123.217 137.19L125.605 136.836L125.252 134.448Z" fill="#D8BFB4"/>
<path d="M122.86 137.227C122.992 137.26 123.125 137.325 123.224 137.358L123.19 137.159L122.86 137.227Z" fill="#D8BFB4"/>
<path d="M123.224 137.192L123.258 137.39C124.054 137.684 124.915 138.01 125.809 138.27L125.604 136.849L123.224 137.192Z" fill="white"/>
<path d="M127.632 134.103L125.244 134.457L125.598 136.845L127.986 136.492L127.632 134.103Z" fill="#71495A"/>
<path d="M130.013 133.76L127.625 134.113L127.979 136.502L130.367 136.148L130.013 133.76Z" fill="#D8BFB4"/>
<path d="M127.983 136.473L125.603 136.816L125.809 138.237C126.505 138.465 127.2 138.66 127.962 138.888L128.325 138.82L127.983 136.473Z" fill="#D8BFB4"/>
<path d="M130.357 136.141L127.969 136.494L128.322 138.882L130.711 138.529L130.357 136.141Z" fill="white"/>
<path d="M132.388 133.384L130 133.737L130.354 136.126L132.742 135.772L132.388 133.384Z" fill="#71495A"/>
<path d="M134.769 133.04L132.381 133.394L132.734 135.782L135.123 135.428L134.769 133.04Z" fill="#D8BFB4"/>
<path d="M132.732 135.765L130.344 136.118L130.697 138.506L133.086 138.153L132.732 135.765Z" fill="#D8BFB4"/>
<path d="M135.113 135.42L132.725 135.773L133.078 138.162L135.466 137.808L135.113 135.42Z" fill="white"/>
<path d="M137.15 132.696L134.762 133.05L135.115 135.438L137.504 135.085L137.15 132.696Z" fill="#71495A"/>
<path d="M139.531 132.353L137.143 132.706L137.496 135.094L139.884 134.741L139.531 132.353Z" fill="#D8BFB4"/>
<path d="M137.494 135.077L135.105 135.431L135.459 137.819L137.847 137.465L137.494 135.077Z" fill="#D8BFB4"/>
<path d="M139.869 134.701L137.48 135.055L137.834 137.443L140.222 137.089L139.869 134.701Z" fill="white"/>
<path d="M141.875 131.981L139.486 132.335L139.84 134.723L142.228 134.37L141.875 131.981Z" fill="#71495A"/>
<path d="M142.226 134.35C142.255 133.589 142.251 132.795 142.214 131.936L141.883 131.971L142.226 134.35Z" fill="#D8BFB4"/>
<path d="M139.845 134.726L140.188 137.106L142.138 136.831C142.201 136.136 142.23 135.342 142.225 134.483L142.225 134.383L139.845 134.726Z" fill="#D8BFB4"/>
<path d="M83.1838 145.531L81.3002 145.806C81.3673 146.004 81.4677 146.235 81.5347 146.4C81.8026 147.06 82.2354 147.62 82.7996 148.014L83.5267 147.911L83.1838 145.531Z" fill="#D8BFB4"/>
<path d="M82.7993 148.013C83.0649 148.21 83.3301 148.341 83.6285 148.472L83.5594 147.91L82.7993 148.013Z" fill="white"/>
<path d="M85.5855 145.167L83.1973 145.521L83.5508 147.909L85.9391 147.555L85.5855 145.167Z" fill="#71495A"/>
<path d="M87.9664 144.823L85.5781 145.177L85.9317 147.565L88.3199 147.211L87.9664 144.823Z" fill="#D8BFB4"/>
<path d="M83.5603 147.911L83.6293 148.473C84.3914 148.766 85.2516 148.828 86.0772 148.592L85.9397 147.568L83.5603 147.911Z" fill="#D8BFB4"/>
<path d="M85.9392 147.535L86.0767 148.559C86.2088 148.526 86.3408 148.459 86.4729 148.425C87.0998 148.157 87.7267 147.856 88.3536 147.589L88.2855 147.192L85.9392 147.535Z" fill="white"/>
<path d="M87.9411 144.813L88.284 147.192L89.5727 146.987C89.9356 146.82 90.2655 146.653 90.5954 146.486L90.2874 144.47L87.9411 144.813Z" fill="#71495A"/>
<path d="M90.322 144.47L90.6299 146.486C91.4216 146.085 92.1471 145.685 92.8726 145.284L92.7014 144.128L90.322 144.47Z" fill="#D8BFB4"/>
<path d="M88.3542 147.589C88.7831 147.389 89.1789 147.188 89.5749 147.021L88.2862 147.226L88.3542 147.589Z" fill="#D8BFB4"/>
<path d="M92.7011 144.127L92.8723 145.284C93.6638 144.85 94.3892 144.416 95.1144 143.95L95.0803 143.752L92.7011 144.127Z" fill="#71495A"/>
<path d="M95.1145 143.949C95.2463 143.849 95.3782 143.782 95.51 143.682L95.0804 143.751L95.1145 143.949Z" fill="#D8BFB4"/>
<path d="M127.961 138.887C128.094 138.92 128.226 138.952 128.359 138.985L128.325 138.819L127.961 138.887Z" fill="#71495A"/>
<path d="M128.324 138.853L128.358 139.018C129.153 139.246 130.014 139.44 130.874 139.634L130.703 138.51L128.324 138.853Z" fill="#D8BFB4"/>
<path d="M130.705 138.509L130.876 139.633C131.671 139.827 132.531 139.988 133.392 140.149L133.084 138.167L130.705 138.509Z" fill="#71495A"/>
<path d="M135.463 137.792L133.084 138.134L133.391 140.117C133.789 140.181 134.186 140.245 134.583 140.309L135.806 140.138L135.463 137.792Z" fill="#D8BFB4"/>
<path d="M134.583 140.341C135.013 140.405 135.443 140.469 135.874 140.533L135.806 140.17L134.583 140.341Z" fill="white"/>
<path d="M137.837 137.459L135.449 137.812L135.803 140.201L138.191 139.847L137.837 137.459Z" fill="#71495A"/>
<path d="M140.212 137.081L137.824 137.435L138.178 139.823L140.566 139.469L140.212 137.081Z" fill="#D8BFB4"/>
<path d="M135.807 140.17L135.875 140.534C136.57 140.63 137.264 140.725 137.959 140.788C138.092 140.787 138.224 140.82 138.323 140.819L138.186 139.795L135.807 140.17Z" fill="#D8BFB4"/>
<path d="M140.565 139.452L138.185 139.795L138.323 140.819C139.183 140.815 139.975 140.546 140.634 140.047L140.565 139.452Z" fill="white"/>
<path d="M140.563 139.452L141.356 139.348C141.75 138.817 142.045 138.154 142.107 137.459C142.139 137.261 142.138 137.029 142.17 136.798L140.22 137.072L140.563 139.452Z" fill="#71495A"/>
<path d="M140.634 140.047C140.898 139.847 141.128 139.614 141.358 139.348L140.565 139.452L140.634 140.047Z" fill="#D8BFB4"/>
<path d="M110.124 129.818L112.899 129.407L112.831 129.011L112.591 127.392C112.557 127.16 112.424 126.962 112.225 126.831C112.092 126.733 111.927 126.7 111.728 126.735L109.713 127.042L110.124 129.818Z" fill="#71495A"/>
<path d="M113.174 131.423L112.866 129.407L110.09 129.818L110.501 132.594L112.517 132.286C112.715 132.252 112.88 132.152 113.011 132.019C113.143 131.853 113.208 131.621 113.174 131.423Z" fill="#D8BFB4"/>
<path d="M107.04 128.213L107.28 129.832L107.348 130.229L110.124 129.818L109.713 127.042L107.697 127.35C107.466 127.384 107.301 127.517 107.169 127.683C107.071 127.816 107.006 128.015 107.04 128.213Z" fill="#D8BFB4"/>
<path d="M110.124 129.817L107.348 130.228L107.655 132.211L107.656 132.244C107.69 132.409 107.757 132.574 107.889 132.705C108.056 132.87 108.288 132.935 108.519 132.901L110.535 132.593L110.124 129.817Z" fill="white"/>
<path d="M175.234 109.478C175.102 109.478 174.969 109.413 174.869 109.314C172.509 106.78 168.479 107.759 168.413 107.76C168.248 107.794 168.049 107.761 167.949 107.63C167.816 107.498 167.782 107.333 167.814 107.167L170.244 97.1675C170.276 97.035 170.375 96.9023 170.507 96.8354C174.432 94.8642 177.189 97.1982 178.089 98.7149C178.156 98.8138 178.19 98.9459 178.157 99.0784L175.728 109.078C175.696 109.244 175.564 109.41 175.366 109.444C175.3 109.477 175.267 109.477 175.234 109.478ZM170.292 106.559C171.648 106.553 173.468 106.841 174.962 108.024L177.165 99.0503C176.699 98.3913 174.702 95.9873 171.205 97.6256L169.002 106.632C169.333 106.597 169.763 106.562 170.292 106.559Z" fill="#C59F6D"/>
<path d="M182.22 111.162C182.121 111.163 181.989 111.13 181.889 111.065C181.856 111.032 178.9 108.666 175.399 109.477C175.234 109.511 175.068 109.479 174.935 109.347C174.802 109.216 174.768 109.05 174.801 108.885L177.23 98.8851C177.262 98.7527 177.361 98.6199 177.493 98.5531C179.274 97.6511 183.14 96.9038 185.076 100.433C185.142 100.531 185.143 100.664 185.111 100.796L182.681 110.796C182.649 110.962 182.518 111.094 182.353 111.161C182.319 111.162 182.253 111.162 182.22 111.162ZM176.848 108.312C179.097 108.301 180.954 109.284 181.883 109.874L184.118 100.768C182.351 97.8007 179.016 98.9752 178.158 99.3434L175.955 108.35C176.253 108.315 176.551 108.314 176.848 108.312Z" fill="#C59F6D"/>
</svg>
