<svg width="60" height="59" viewBox="0 0 60 59" fill="none" xmlns="http://www.w3.org/2000/svg">
<path d="M29.6715 58.9614C45.903 58.9614 59.0613 45.8031 59.0613 29.5715C59.0613 13.3399 45.903 0.181641 29.6715 0.181641C13.4399 0.181641 0.281616 13.3399 0.281616 29.5715C0.281616 45.8031 13.4399 58.9614 29.6715 58.9614Z" fill="white"/>
<path fill-rule="evenodd" clip-rule="evenodd" d="M16.1804 44.8016H43.1656C43.7 44.8016 44.1007 44.4008 44.1007 43.8665V16.7476C44.1007 16.2133 43.7 15.8125 43.1656 15.8125H16.1804C15.646 15.8125 15.2452 16.2133 15.2452 16.7476V43.7329C15.2452 44.2672 15.646 44.8016 16.1804 44.8016ZM42.3641 42.9313H30.6081V40.2595C30.6081 39.0572 29.5394 37.9885 28.3371 37.9885C27.8027 37.9885 27.402 38.1221 27.0012 38.3893C26.8676 38.5228 26.734 38.5228 26.6004 38.5228C26.0661 38.5228 25.6653 38.1221 25.6653 37.5877C25.6653 37.0534 26.0661 36.6526 26.6004 36.6526C26.734 36.6526 26.8676 36.6526 27.0012 36.7862C27.402 37.0534 27.9363 37.1869 28.3371 37.1869C29.5394 37.1869 30.6081 36.1182 30.6081 34.9159V31.309H34.2151C34.4822 31.309 34.6158 31.5761 34.6158 31.7097C34.6158 31.8433 34.6158 32.1105 34.4822 32.2441C34.2151 32.6449 34.2151 33.0456 34.2151 33.58C34.2151 35.0495 35.4174 36.2518 36.8869 36.2518C38.3564 36.2518 39.5587 35.0495 39.5587 33.58C39.5587 33.1792 39.4251 32.6449 39.2915 32.2441C39.1579 32.1105 39.1579 31.9769 39.1579 31.7097C39.1579 31.4426 39.4251 31.309 39.5587 31.309H42.2305V42.9313H42.3641ZM42.3641 17.6828H30.6081V20.3546C30.6081 20.6217 30.8753 20.7553 31.0089 20.7553C31.1425 20.7553 31.4097 20.7553 31.5432 20.6217C31.944 20.3546 32.3448 20.3546 32.8792 20.3546C34.3486 20.3546 35.551 21.5569 35.551 23.0264C35.551 24.4959 34.3486 25.6982 32.8792 25.6982C32.4784 25.6982 31.944 25.5646 31.5432 25.431C31.4097 25.2974 31.2761 25.2974 31.0089 25.2974C30.7417 25.2974 30.6081 25.5646 30.6081 25.6982V29.3051H34.2151C35.4174 29.3051 36.4861 30.3738 36.4861 31.5762C36.4861 32.1105 36.3525 32.5113 36.0853 32.9121C35.9517 33.0456 35.9517 33.1792 35.9517 33.3128C35.9517 33.8472 36.3525 34.248 36.8869 34.248C37.4212 34.248 37.822 33.8472 37.822 33.3128C37.822 33.1792 37.822 33.0456 37.6884 32.9121C37.4212 32.5113 37.2876 31.9769 37.2876 31.5762C37.2876 30.3738 38.3564 29.3051 39.5587 29.3051H42.2305V17.6828H42.3641ZM17.1155 17.6828H28.7379V20.3546C28.7379 21.5569 29.8066 22.6256 31.0089 22.6256C31.5433 22.6256 31.944 22.492 32.3448 22.2248C32.4784 22.0912 32.612 22.0912 32.7456 22.0912C33.2799 22.0912 33.6807 22.492 33.6807 23.0264C33.6807 23.5607 33.2799 23.9615 32.7456 23.9615C32.612 23.9615 32.4784 23.9615 32.3448 23.8279C31.944 23.5607 31.4097 23.4271 31.0089 23.4271C29.8066 23.4271 28.7379 24.4959 28.7379 25.6982V29.3051H25.1309C24.8637 29.3051 24.7301 29.0379 24.7301 28.9043C24.7301 28.7708 24.7301 28.5036 24.8637 28.37C25.1309 27.9692 25.1309 27.5684 25.1309 27.0341C25.1309 25.5646 23.9286 24.3623 22.4591 24.3623C20.9896 24.3623 19.7873 25.5646 19.7873 27.0341C19.7873 27.4349 19.9209 27.9692 20.0545 28.37C20.1881 28.5036 20.1881 28.6372 20.1881 28.9043C20.1881 29.1715 19.9209 29.3051 19.7873 29.3051H17.1155V17.6828ZM19.7873 31.1754H17.1155V42.9313H28.7379V40.2595C28.7379 39.9923 28.4707 39.8588 28.3371 39.8588C28.2035 39.8588 27.9363 39.8587 27.8027 39.9923C27.402 40.2595 27.0012 40.2595 26.4668 40.2595C24.9973 40.2595 23.795 39.0572 23.795 37.5877C23.795 36.1182 24.9973 34.9159 26.4668 34.9159C26.8676 34.9159 27.402 35.0495 27.8027 35.1831C27.9363 35.3167 28.0699 35.3167 28.3371 35.3167C28.6043 35.3167 28.7379 35.0495 28.7379 34.9159V31.309H25.1309C23.9286 31.309 22.8599 30.2402 22.8599 29.0379C22.8599 28.5036 22.9935 28.1028 23.2607 27.702C23.3942 27.4349 23.3942 27.3013 23.3942 27.1677C23.3942 26.6333 22.9935 26.2325 22.4591 26.2325C21.9248 26.2325 21.524 26.6333 21.524 27.1677C21.524 27.3013 21.524 27.4349 21.6576 27.5684C21.9248 27.9692 22.0583 28.5036 22.0583 28.9043C22.0583 30.2402 20.9896 31.1754 19.7873 31.1754Z" fill="#5695A4"/>
</svg>
