<svg width="165" height="205" viewBox="0 0 165 205" fill="none" xmlns="http://www.w3.org/2000/svg">
<path d="M87.8912 205C129.999 205 164.134 191.14 164.134 174.042C164.134 156.944 129.999 143.084 87.8912 143.084C45.7836 143.084 11.6487 156.944 11.6487 174.042C11.6487 191.14 45.7836 205 87.8912 205Z" fill="#AC61C8"/>
<path d="M87.947 199.888C127.231 199.888 159.077 188.253 159.077 173.9C159.077 159.547 127.231 147.912 87.947 147.912C48.6628 147.912 16.8167 159.547 16.8167 173.9C16.8167 188.253 48.6628 199.888 87.947 199.888Z" fill="#9B5AB3"/>
<path d="M90.5297 192.76C123.12 192.76 149.539 184.1 149.539 173.418C149.539 162.736 123.12 154.076 90.5297 154.076C57.9396 154.076 31.5201 162.736 31.5201 173.418C31.5201 184.1 57.9396 192.76 90.5297 192.76Z" fill="#7C4191"/>
<path d="M2.74249 169.838C4.66642 176.57 8.37685 181.398 13.0767 184.465C15.4679 186.027 18.1339 187.135 20.9373 187.788C22.1467 188.072 23.3835 188.271 24.6478 188.413C31.3815 189.095 38.7474 187.476 45.5087 183.812C59.306 176.342 69.4753 168.731 69.4753 168.731L59.3335 142.828C59.3335 142.828 58.4265 141.692 56.8323 142.118C53.2868 143.084 50.9506 144.39 39.4345 143.425C39.4345 143.425 29.595 132.689 16.6223 134.762C16.3474 134.819 16.0726 134.847 15.8252 134.904C15.193 135.018 14.5884 135.16 13.9837 135.33C11.4276 136.068 9.20139 137.204 7.35991 138.738C0.433775 144.447 -1.38021 155.467 2.74249 169.838Z" fill="#945339"/>
<path d="M27.8916 186.454C39.765 188.016 67.7994 169.98 67.7994 169.98H67.9918C64.5012 172.451 56.1733 178.16 45.8116 183.755C39.0229 187.419 31.657 189.038 24.9507 188.356C24.0987 188.271 23.2742 188.158 22.4496 187.987L27.8916 186.454Z" fill="#AD6946"/>
<path d="M40.8913 144.277C43.6398 147.486 50.7034 149.446 50.7034 149.446C50.8958 148.736 51.0882 148.083 51.2805 147.458L52.4899 150.753C52.4899 150.753 52.8747 154.104 53.9191 157.654C51.4729 158.705 47.9274 160.097 44.1895 161.176C44.1895 161.176 42.458 147.003 29.7051 138.483C26.2145 136.154 22.0918 135.217 18.0241 135.387C27.6987 134.251 35.7517 138.256 40.8913 144.277Z" fill="#945339"/>
<path d="M12.2799 136.523C12.2799 136.523 17.447 134.081 23.2463 135.529C29.073 136.949 31.8764 139.193 34.4875 141.92C45.5088 153.337 48.8345 187.193 25.445 188.499L12.2799 136.523Z" fill="#945339"/>
<path d="M7.19461 138.794C9.47584 136.636 13.2687 134.846 17.0066 134.364C27.5608 133 34.3495 136.494 39.3792 139.987C43.1721 142.6 49.2737 142.089 53.4788 141.975C52.5993 143.679 52.3245 145.895 52.4894 150.751C52.4894 150.751 45.4258 150.752 40.6435 145.014C35.2015 138.482 27.6707 134.25 18.0236 135.358C14.1757 135.556 10.2454 136.778 7.19461 138.794Z" fill="#945339"/>
<path d="M138.875 168.589C138.737 168.788 138.6 168.986 138.463 169.185C132.553 177.308 125.655 181.597 119.718 184.238L121.45 174.042L92.7555 169.242C92.7555 169.242 79.6178 168.163 72.087 162.88C68.4866 160.381 63.8416 154.189 61.9452 146.094C61.2581 143.197 60.9558 140.045 61.1756 136.722C62.0002 124.111 63.9516 113.205 70.3555 102.867C74.9729 95.4253 98.6372 100.168 111.445 103.378C117.354 110.677 129.393 128.4 136.511 158.506C137.363 162.085 138.16 165.436 138.875 168.589Z" fill="#AD6946"/>
<path d="M2.74249 169.838C6.06813 181.455 14.6708 187.419 24.6478 188.413C30.6944 188.896 40.2041 184.38 38.1427 168.305C38.1427 168.305 30.6669 189.805 12.6645 175.888C-2.42463 164.215 32.316 153.621 32.316 153.621C32.316 153.621 29.4576 142.686 20.8549 137.716C18.3263 136.267 16.0176 135.557 13.9837 135.33C11.4276 136.069 9.20139 137.205 7.35991 138.738C0.433775 144.447 -1.38021 155.467 2.74249 169.838Z" fill="#AD6946"/>
<path d="M14.5346 142.516C19.6742 140.897 25.2536 143.169 29.3214 147.94C29.6237 148.281 29.8985 148.65 30.1734 149.02C31.2453 150.837 32.1248 152.882 32.7844 155.069C36.0551 166.146 32.0423 177.223 23.7969 179.836C22.3128 180.319 20.8011 180.461 19.262 180.347C13.7101 178.927 8.57043 173.672 6.23423 166.402C6.17926 166.203 6.09681 166.004 6.04184 165.805C3.01852 155.382 6.78392 144.986 14.5346 142.516Z" fill="#ECD09C"/>
<path d="M6.26004 166.373C8.59624 173.673 13.7359 178.899 19.2878 180.319C21.4041 180.858 23.5754 180.858 25.6642 180.205C33.4149 177.763 37.2078 167.339 34.1295 156.916C33.25 153.905 31.8758 151.235 30.1992 148.991C29.9244 148.622 29.622 148.253 29.3472 147.912C31.7658 153.706 34.9815 165.181 26.1864 172.196C18.3533 178.444 10.0804 172.508 6.26004 166.373Z" fill="#DCBD8A"/>
<path d="M32.8118 155.069C32.1521 152.882 31.2726 150.837 30.2007 149.02C31.8773 151.235 33.2515 153.933 34.131 156.944C37.2093 167.367 33.4164 177.762 25.6658 180.233C23.5769 180.887 21.4056 180.915 19.2893 180.347C20.801 180.461 22.3126 180.29 23.8243 179.836C32.0697 177.223 36.0825 166.146 32.8118 155.069Z" fill="#C59F6D"/>
<path d="M18.9041 134.904C21.2128 134.989 24.6484 136.466 24.6484 136.466C17.8047 134.591 9.28447 136.835 5.38165 142.941C-2.89124 155.864 5.79392 179.58 13.0774 184.465C8.37748 181.398 4.88692 176.484 2.74312 169.838C-2.67136 153.138 1.53379 134.165 18.9041 134.904Z" fill="#D59A77"/>
<path d="M41.249 154.445C41.249 154.445 51.6657 189.493 25.6927 188.329C25.6927 188.3 48.3126 189.067 41.249 154.445Z" fill="#AD6946"/>
<path d="M119.717 105.622C119.717 105.622 117.573 104.968 114.192 104.088C113.34 103.861 112.433 103.634 111.444 103.378C117.353 110.677 129.391 128.4 136.51 158.506C137.362 162.085 138.131 165.436 138.873 168.617C139.698 167.396 140.413 166.061 141.017 164.613C141.045 164.3 141.045 163.988 141.072 163.675C143.079 129.508 119.717 105.622 119.717 105.622Z" fill="#945339"/>
<path d="M139.562 133.283C133.515 117.15 119.718 105.619 119.718 105.619C119.718 105.619 143.08 129.505 141.073 163.644C141.046 163.957 141.046 164.269 141.018 164.582C144.399 156.629 144.207 145.637 139.562 133.283Z" fill="#AD6946"/>
<path d="M18.6577 172.679C18.5477 172.679 18.4653 172.651 18.3553 172.622C18.1355 172.537 17.9431 172.395 17.7782 172.196L10.4672 162.539C8.5433 159.983 8.46084 156.007 10.3023 153.65C11.2368 152.457 12.5286 151.86 13.9303 151.946C15.332 152.031 16.7063 152.826 17.7232 154.161L18.5477 155.24L19.5372 154.076C20.4442 153.025 21.626 152.457 22.9453 152.485C24.3745 152.514 25.7487 153.309 26.7382 154.615C27.7001 155.865 28.2223 157.484 28.2223 159.188C28.2223 160.921 27.6727 162.596 26.7107 163.732L19.4272 172.338C19.2074 172.565 18.9325 172.679 18.6577 172.679ZM13.6829 152.798C12.6385 152.798 11.6766 153.28 10.962 154.189C9.34035 156.234 9.42281 159.756 11.1269 162L18.4378 171.713C18.4928 171.77 18.5477 171.827 18.6027 171.855C18.6852 171.884 18.7401 171.855 18.7951 171.798L26.0785 163.193C26.9306 162.199 27.3978 160.75 27.3703 159.216C27.3703 157.711 26.9031 156.263 26.0511 155.155C25.199 154.047 24.0447 153.394 22.8903 153.366C21.8459 153.337 20.8839 153.792 20.1418 154.672L18.8226 156.234C18.7401 156.319 18.6302 156.376 18.4928 156.376C18.3828 156.376 18.2454 156.319 18.1904 156.206L17.0636 154.729C16.2115 153.593 15.0572 152.911 13.8753 152.854C13.8204 152.798 13.7654 152.798 13.6829 152.798Z" fill="#C59F6D"/>
<path d="M14.4793 53.5035C9.53208 64.4666 18.1898 70.6582 22.1201 72.8168C23.192 73.4132 23.9341 73.6972 23.9341 73.6972L29.6509 61.03L31.0251 57.6785L35.0104 47.9651C35.0104 47.9935 20.4985 40.3533 14.4793 53.5035ZM2.85331 48.2491C2.85331 48.2775 2.85331 48.2775 2.85331 48.2491C2.77085 48.4479 2.6884 48.6467 2.60594 48.8171C2.1387 49.9532 1.72643 51.0325 1.39662 52.1118C-5.30965 73.5836 14.2045 83.5243 19.8114 85.8817C20.7458 86.2793 21.268 86.4497 21.268 86.4497L32.7566 62.9329L32.8116 62.9613L32.9765 62.4785L33.2239 61.9672L33.1689 61.9388L39.0506 46.2326L42.2663 37.6552L42.3763 37.3995C42.4313 37.4279 14.9466 21.0968 2.85331 48.2491Z" fill="#B6724D"/>
<path d="M29.8968 60.4615L29.6769 61.0296L29.512 61.3988L23.9326 73.7252C23.9326 73.7252 21.0468 72.5891 18.2433 70.175C14.5879 67.0508 11.0698 61.8248 14.1481 54.2415C14.313 53.8439 14.4779 53.4746 14.6428 53.1054C14.7528 52.8782 14.8902 52.6226 15.0001 52.3954C20.1672 42.9091 30.2266 45.9765 33.7447 47.425C34.5417 47.7374 34.9815 47.9931 34.9815 47.9931L29.8968 60.4615Z" fill="#DCBD8A"/>
<path d="M33.222 61.9669L33.277 61.9953L33.0296 62.5066L32.8647 62.9894L32.8097 62.961L21.3211 86.4778C21.3211 86.4778 -3.99226 77.9573 0.597686 55.3493C0.817563 54.2984 1.09241 53.2475 1.42223 52.1399C2.43916 59.3824 4.11573 70.9988 18.1329 77.2188C18.1329 77.2188 18.7651 72.9301 19.2873 70.8852C20.0843 67.7041 21.2387 64.6935 22.5579 61.7965C24.3444 57.9339 26.4883 54.2984 28.6595 50.8902C31.1881 46.9423 36.3278 49.7257 39.1037 46.2891L33.222 61.9669Z" fill="#945339"/>
<path d="M22.5601 61.7963C20.0315 71.5098 19.4543 81.4789 19.4543 81.4789C4.11783 74.7476 0.709731 63.5856 0.599792 55.3491C0.81967 54.2982 1.09452 53.2473 1.42433 52.1396C2.44127 59.3822 4.11783 70.9986 18.135 77.2186C18.135 77.2186 18.7672 72.9299 19.2894 70.885C20.0864 67.7039 21.2408 64.6649 22.5601 61.7963Z" fill="#AD6946"/>
<path d="M27.8342 50.1231C20.4683 58.5016 18.6543 65.9429 18.2695 70.1748C14.614 67.0506 11.096 61.8247 14.1743 54.2413C14.3392 53.8437 14.5041 53.4745 14.669 53.1053C14.7789 52.878 14.9164 52.6224 15.0263 52.3952C20.5232 48.1065 27.8342 50.1231 27.8342 50.1231Z" fill="#ECD09C"/>
<path d="M42.4306 37.4282L42.3207 37.6838L40.864 38.6211C40.864 38.6211 34.5425 34.9572 27.2591 34.4176C19.9756 33.878 11.3179 37.3714 6.78297 44.3583C2.248 51.3452 -0.50047 63.8704 4.74911 72.0218C9.58641 79.5199 18.409 85.0299 19.8107 85.882C14.1764 83.5246 -5.33777 73.6123 1.39597 52.112C1.72579 51.0328 2.13806 49.9535 2.6053 48.8174C2.68775 48.647 2.77021 48.4482 2.85266 48.2778V48.2494C14.9459 21.0971 42.4306 37.4282 42.4306 37.4282Z" fill="#D59A77"/>
<path d="M33.7729 47.4238L33.0583 49.0712C22.9714 45.6345 17.5294 49.27 14.671 53.1042C19.7007 42.7659 30.1724 45.9469 33.7729 47.4238Z" fill="#C59F6D"/>
<path d="M93.5526 24.5045L102.732 29.1056L105.893 30.6961L118.289 36.3481C118.289 36.3481 118.646 35.638 119.086 34.4451C120.68 30.1281 123.236 19.5625 112.544 14.7058C99.5992 8.88338 93.5526 24.5045 93.5526 24.5045ZM81.2394 21.6075L81.4868 21.7211L89.3749 26.0098L103.804 33.8203L103.777 33.8771L104.299 34.1043L104.739 34.3315L104.766 34.2747L128.403 44.1586C128.403 44.1586 128.705 43.6474 129.145 42.7385C131.866 37.1433 140.249 16.4099 121.504 4.7935C120.57 4.22546 119.581 3.65742 118.509 3.11778C118.344 3.03258 118.151 2.94737 117.986 2.86217H117.959C91.5187 -9.37908 81.2394 21.6075 81.2394 21.6075Z" fill="#B6724D"/>
<path d="M105.371 30.4404L105.893 30.696L106.251 30.8664L118.261 36.348C118.261 36.348 119.691 33.5362 120.295 29.8155C121.065 24.9872 120.378 18.6536 113.232 15.0181C112.847 14.8193 112.49 14.6489 112.132 14.5069C111.885 14.3933 111.638 14.3081 111.418 14.2229C101.496 10.5874 95.8614 19.7612 94.1299 23.2263C93.7451 23.9931 93.5527 24.5044 93.5527 24.5044L105.371 30.4404Z" fill="#DCBD8A"/>
<path d="M103.804 33.8198L103.777 33.8766L104.299 34.1038L104.738 34.331L104.766 34.2742L128.403 44.1581C128.403 44.1581 142.035 20.5277 124.198 6.6391C123.373 5.98585 122.494 5.38941 121.532 4.79297C125.379 10.9278 131.509 20.8117 124.912 35.0411C124.912 35.0411 121.697 32.2577 119.992 31.0648C117.354 29.2187 114.578 27.7133 111.747 26.4637C107.927 24.7595 104.024 23.4815 100.204 22.4022C95.7785 21.1525 93.6896 26.7477 89.4295 26.0376L103.804 33.8198Z" fill="#945339"/>
<path d="M111.72 26.4352C119.8 32.0304 126.616 39.1309 126.616 39.1309C133.872 23.6235 129.337 12.9159 124.17 6.6391C123.346 5.98585 122.466 5.38941 121.504 4.79297C125.352 10.9278 131.481 20.8117 124.885 35.041C124.885 35.041 121.669 32.2576 119.965 31.0648C117.326 29.2186 114.551 27.7133 111.72 26.4352Z" fill="#AD6946"/>
<path d="M100.312 21.2379C111.196 22.5443 117.325 26.9182 120.293 29.8436C121.063 25.0153 120.376 18.6817 113.23 15.0462C112.845 14.8474 112.488 14.677 112.13 14.535C111.883 14.4214 111.636 14.3362 111.416 14.251C104.517 14.7338 100.312 21.2379 100.312 21.2379Z" fill="#ECD09C"/>
<path d="M81.2394 21.6075L81.4868 21.7211L83.1909 21.4371C83.1909 21.4371 85.637 14.365 90.7766 9.02539C95.8888 3.68582 104.629 0.419599 112.517 2.60655C120.378 4.7935 130.437 12.32 131.674 22.0619C132.801 31.0085 129.667 41.148 129.145 42.7385C131.866 37.1433 140.249 16.4099 121.504 4.7935C120.57 4.22546 119.581 3.65742 118.509 3.11779C118.344 3.03258 118.151 2.94737 117.986 2.86217H117.959C91.5187 -9.37908 81.2394 21.6075 81.2394 21.6075Z" fill="#D59A77"/>
<path d="M94.1276 23.226L95.7217 23.9644C101.136 14.5066 107.54 13.5409 112.13 14.5066C101.741 10.1611 95.8866 19.6757 94.1276 23.226Z" fill="#C59F6D"/>
<path d="M140.357 67.4476C140.357 67.4192 140.357 67.4192 140.357 67.3908C140.33 67.192 140.302 66.9932 140.275 66.7943C140.275 66.7091 140.247 66.6239 140.22 66.5103C140.192 66.2831 140.137 66.0559 140.11 65.8287C140.082 65.6015 140.027 65.3459 139.972 65.1186C139.972 65.0618 139.945 65.005 139.945 64.9766C139.89 64.7494 139.835 64.4938 139.78 64.2382C139.725 63.9826 139.67 63.7269 139.588 63.4713C139.588 63.4429 139.588 63.4429 139.56 63.4145C139.505 63.2157 139.45 62.9885 139.395 62.7897C139.368 62.6761 139.34 62.5909 139.313 62.4773C139.258 62.25 139.175 62.0228 139.12 61.824C139.038 61.5684 138.956 61.2844 138.873 61.0288C138.873 61.0004 138.873 61.0004 138.846 60.9719C138.763 60.7163 138.681 60.4323 138.571 60.1767C138.488 59.9211 138.406 59.6655 138.296 59.4098C138.268 59.353 138.268 59.2962 138.241 59.2394C138.158 59.0406 138.076 58.8134 137.994 58.5862C137.966 58.5294 137.939 58.4442 137.911 58.3874C137.829 58.1602 137.746 57.9613 137.636 57.7341C137.636 57.7341 137.636 57.7057 137.609 57.6773C137.609 57.6489 137.581 57.6205 137.581 57.5921C137.499 57.3933 137.416 57.1661 137.306 56.9673C137.197 56.7401 137.087 56.4844 137.004 56.2572C136.647 55.4336 136.262 54.6383 135.877 53.8715C134.393 50.8325 132.826 48.0491 131.177 45.4929C131.067 45.3225 130.958 45.1521 130.848 44.9532C111.938 16.0685 82.8593 15.7844 61.5862 24.2198C61.1189 24.3902 59.0851 25.1855 58.5079 25.4127C38.6914 33.0244 18.6826 50.8608 19.3422 81.1657C19.3972 83.1823 19.5346 85.2272 19.7545 87.3574V87.3858C19.9743 89.2887 20.2492 91.22 20.6065 93.2082C20.6615 93.5206 20.7164 93.833 20.7714 94.117C20.8813 94.5999 20.9638 95.0827 21.0737 95.5939C21.1562 96.02 21.2661 96.4744 21.3761 96.9288C21.6509 98.1785 21.9807 99.4566 22.338 100.735C23.245 104.058 24.4543 106.983 25.8836 109.596C25.966 109.767 26.0759 109.937 26.1859 110.107C26.2958 110.278 26.3783 110.448 26.4882 110.619C26.5707 110.761 26.6531 110.903 26.7356 111.045C26.818 111.187 26.928 111.329 27.0104 111.471C27.1204 111.641 27.2303 111.811 27.3402 111.982C27.4227 112.124 27.5326 112.266 27.6151 112.408C27.9449 112.891 28.3022 113.374 28.632 113.828C28.742 113.97 28.8519 114.112 28.9618 114.226C29.0443 114.339 29.1267 114.453 29.2367 114.538C29.2917 114.623 29.3741 114.708 29.4566 114.794C29.594 114.964 29.7589 115.134 29.8963 115.305C30.1162 115.561 30.3361 115.816 30.5834 116.072C30.6934 116.214 30.8308 116.327 30.9407 116.469C31.0782 116.611 31.1881 116.725 31.3255 116.867C31.4629 117.009 31.5729 117.123 31.7103 117.265C31.8202 117.378 31.9027 117.463 32.0126 117.549C32.315 117.833 32.5898 118.088 32.8921 118.372C33.0296 118.486 33.167 118.6 33.3044 118.713C33.4418 118.827 33.5793 118.94 33.7167 119.054C33.8541 119.168 33.9915 119.281 34.129 119.395C34.8161 119.963 35.5582 120.474 36.2728 120.985C36.4102 121.07 36.5476 121.184 36.7125 121.269C38.8563 122.661 41.1376 123.797 43.5012 124.734C43.6661 124.791 43.8036 124.848 43.9685 124.905C43.996 124.905 43.996 124.905 43.996 124.905C44.1609 124.962 44.2983 125.018 44.4632 125.075C44.9304 125.246 45.4252 125.416 45.9199 125.558C46.0848 125.615 46.2497 125.672 46.4146 125.7C46.5795 125.757 46.7444 125.814 46.9093 125.842C47.7339 126.098 48.5584 126.296 49.383 126.495C49.7128 126.58 50.0151 126.637 50.3449 126.722C51.032 126.864 51.7192 127.007 52.4338 127.12C52.4338 127.12 52.4338 127.12 52.4338 127.149C52.3788 127.205 52.3513 127.291 52.2963 127.347C52.1589 127.546 52.049 127.745 51.9116 127.972C51.8841 128.029 51.8291 128.114 51.8016 128.171C51.7192 128.313 51.6367 128.455 51.5542 128.597C51.2794 129.051 51.0046 129.563 50.7297 130.131C99.4601 119.622 121.75 105.506 121.75 105.506C122.575 104.654 128.786 99.5702 129.556 98.6613C129.721 98.4909 129.858 98.2921 130.023 98.1217C130.078 98.0649 130.133 97.9797 130.188 97.9229C130.325 97.7809 130.435 97.6389 130.545 97.4685C130.655 97.3265 130.793 97.156 130.903 97.014C131.067 96.8152 131.205 96.6448 131.342 96.446C131.48 96.304 131.59 96.1336 131.7 95.9632C131.727 95.9348 131.755 95.9064 131.782 95.878C132.222 95.2815 132.662 94.6851 133.101 94.0886C133.239 93.9182 133.349 93.7194 133.486 93.549C133.541 93.4638 133.624 93.3786 133.678 93.265C133.816 93.0946 133.926 92.8958 134.036 92.6969C134.146 92.5265 134.256 92.3561 134.366 92.1857C134.915 91.3052 135.465 90.4248 135.96 89.4875C136.042 89.3171 136.152 89.1467 136.235 88.9763C136.372 88.7491 136.482 88.4934 136.592 88.2662C136.702 88.0674 136.812 87.8686 136.894 87.6414C136.894 87.613 136.922 87.613 136.922 87.5846C137.032 87.3858 137.114 87.187 137.197 86.9881C137.197 86.9597 137.224 86.9597 137.224 86.9313C137.279 86.7893 137.361 86.6473 137.416 86.5053C137.554 86.1929 137.691 85.8521 137.829 85.5396C137.884 85.3976 137.939 85.2556 137.994 85.1136C138.076 84.9148 138.158 84.7444 138.213 84.5456C138.268 84.4036 138.323 84.2616 138.378 84.1479C138.626 83.4947 138.846 82.8415 139.038 82.1882C139.12 81.961 139.175 81.7338 139.258 81.4782C139.285 81.3362 139.34 81.2225 139.368 81.0805C139.395 80.9385 139.45 80.8249 139.478 80.6829C139.972 78.8368 140.302 76.9338 140.495 74.9741C140.522 74.7753 140.522 74.5765 140.55 74.3777C140.605 73.838 140.605 73.2984 140.632 72.7304C140.632 72.4747 140.632 72.2191 140.632 71.9919C140.632 71.7931 140.632 71.5943 140.632 71.3955C140.632 71.3387 140.632 71.2535 140.632 71.1967C140.632 70.9694 140.632 70.7422 140.605 70.5434C140.605 70.515 140.605 70.4866 140.605 70.4866C140.605 70.231 140.577 69.9754 140.55 69.7482C140.522 69.4925 140.522 69.2369 140.495 68.9813C140.467 68.7257 140.44 68.4701 140.412 68.2144C140.44 67.9304 140.412 67.7032 140.357 67.4476Z" fill="#B6724D"/>
<path d="M140.386 67.4765C140.386 67.4481 140.386 67.4481 140.386 67.4197C140.359 67.2209 140.331 67.0221 140.304 66.8233C140.304 66.7381 140.276 66.6529 140.249 66.5393C140.221 66.312 140.166 66.0848 140.139 65.8576C140.111 65.6304 140.056 65.3748 140.001 65.1476C140.001 65.0908 139.974 65.034 139.974 65.0056C139.919 64.7783 139.864 64.5227 139.809 64.2671C139.754 64.0115 139.699 63.7559 139.617 63.5003C139.617 63.4719 139.617 63.4719 139.589 63.4434C139.534 63.2446 139.479 63.0174 139.424 62.8186C139.397 62.705 139.369 62.6198 139.342 62.5062C139.287 62.279 139.204 62.0518 139.149 61.8529C139.067 61.5973 138.984 61.3133 138.902 61.0577C138.902 61.0293 138.902 61.0293 138.874 61.0009C138.792 60.7453 138.71 60.4612 138.6 60.2056C138.517 59.95 138.435 59.6944 138.325 59.4388C138.297 59.382 138.297 59.3252 138.27 59.2684C138.187 59.0695 138.105 58.8423 138.022 58.6151C137.995 58.5583 137.967 58.4731 137.94 58.4163C137.858 58.1891 137.775 57.9903 137.665 57.7631C137.665 57.7631 137.665 57.7347 137.638 57.7063C137.638 57.6779 137.61 57.6494 137.61 57.621C137.528 57.4222 137.445 57.195 137.335 56.9962C137.225 56.769 137.115 56.5134 137.033 56.2862C136.676 55.4625 136.291 54.6672 135.906 53.9004C137.088 64.2387 135.246 91.2774 88.5775 108.148C43.9973 124.28 26.737 104.427 21.0201 93.9756C20.8827 93.6915 20.7178 93.4359 20.5804 93.1803C20.6354 93.4927 20.6903 93.8051 20.7453 94.0892C20.8552 94.572 20.9377 95.0548 21.0476 95.5661C21.1301 95.9921 21.24 96.4465 21.35 96.901C21.6248 98.1507 21.9546 99.4287 22.3119 100.707C23.2189 104.03 24.4282 106.955 25.8574 109.568C25.9399 109.739 26.0498 109.909 26.1598 110.079C26.2697 110.25 26.3522 110.42 26.4621 110.591C26.5446 110.733 26.627 110.875 26.7095 111.017C26.7919 111.159 26.9019 111.301 26.9843 111.443C27.0943 111.613 27.2042 111.784 27.3141 111.954C27.3966 112.096 27.5065 112.238 27.589 112.38C27.9188 112.863 28.2761 113.346 28.6059 113.8C28.7158 113.942 28.8258 114.084 28.9357 114.198C29.0182 114.311 29.1006 114.425 29.2106 114.51C29.2655 114.595 29.348 114.681 29.4305 114.766C29.5679 114.936 29.7328 115.107 29.8702 115.277C30.0901 115.533 30.31 115.788 30.5573 116.044C30.6673 116.186 30.8047 116.3 30.9146 116.442C31.052 116.584 31.162 116.697 31.2994 116.839C31.4368 116.981 31.5468 117.095 31.6842 117.237C31.7941 117.35 31.8766 117.436 31.9865 117.521C32.2889 117.805 32.5637 118.06 32.866 118.344C33.0035 118.458 33.1409 118.572 33.2783 118.685C33.4157 118.799 33.5532 118.912 33.6906 119.026C33.828 119.14 33.9654 119.253 34.1028 119.367C34.79 119.935 35.5321 120.446 36.2467 120.957C36.3841 121.043 36.5215 121.156 36.6864 121.241C38.8302 122.633 41.1114 123.769 43.4751 124.706C43.64 124.763 43.7775 124.82 43.9424 124.877C43.9698 124.877 43.9698 124.877 43.9698 124.877C44.1348 124.934 44.2722 124.991 44.4371 125.047C44.9043 125.218 45.399 125.388 45.8938 125.53C46.0587 125.587 46.2236 125.644 46.3885 125.672C46.5534 125.729 46.7183 125.786 46.8832 125.814C47.7078 126.07 48.5323 126.269 49.3568 126.467C49.6867 126.553 49.989 126.609 50.3188 126.695C51.0059 126.837 51.693 126.979 52.4076 127.092C52.4076 127.092 52.4076 127.092 52.4076 127.121C52.3527 127.177 52.3252 127.263 52.2702 127.319C52.2153 127.433 52.1328 127.518 52.0503 127.632C61.8624 125.388 71.5095 122.946 81.3215 120.049C90.0617 117.833 98.417 117.464 107.075 114.652C119.333 109.795 128.705 99.5423 129.475 98.6335C129.64 98.4631 129.777 98.2643 129.942 98.0938C129.997 98.037 130.052 97.9518 130.107 97.895C130.244 97.753 130.354 97.611 130.464 97.4406C130.574 97.2986 130.711 97.1282 130.821 96.9862C130.986 96.7874 131.124 96.6169 131.261 96.4181C131.399 96.2761 131.509 96.1057 131.618 95.9353C132.086 95.3105 132.553 94.6856 132.993 94.0608C133.13 93.8904 133.24 93.6915 133.378 93.5211C133.432 93.4359 133.515 93.3507 133.57 93.2371C133.707 93.0667 133.817 92.8679 133.927 92.6691C134.037 92.4987 134.147 92.3282 134.257 92.1578C134.807 91.2774 135.356 90.3969 135.851 89.4596C135.934 89.2892 136.044 89.1188 136.126 88.9484C136.263 88.7212 136.373 88.4656 136.483 88.2384C136.593 88.0396 136.703 87.8407 136.786 87.6135C136.786 87.5851 136.813 87.5851 136.813 87.5567C136.923 87.3579 137.006 87.1591 137.088 86.9603C137.088 86.9319 137.115 86.9319 137.115 86.9035C137.17 86.7615 137.253 86.6195 137.308 86.4774C137.445 86.165 137.583 85.8242 137.72 85.5118C137.775 85.3698 137.83 85.2278 137.885 85.0857C137.967 84.8869 138.05 84.7165 138.105 84.5177C138.16 84.3757 138.215 84.2337 138.27 84.1201C138.517 83.4668 138.737 82.8136 138.929 82.1603C139.012 81.9331 139.067 81.6775 139.149 81.4503C139.177 81.3083 139.232 81.1947 139.259 81.0527C139.287 80.9107 139.342 80.7971 139.369 80.655C139.864 78.8089 140.194 76.906 140.386 74.9462C140.414 74.7474 140.414 74.5486 140.441 74.3498C140.496 73.8102 140.496 73.2705 140.524 72.7025C140.524 72.4469 140.524 72.1913 140.524 71.964C140.524 71.7652 140.524 71.5664 140.524 71.3676C140.524 71.3108 140.524 71.2256 140.524 71.1688C140.524 70.9416 140.524 70.7144 140.496 70.5155C140.496 70.4871 140.496 70.4587 140.496 70.4587C140.496 70.2031 140.469 69.9475 140.441 69.7203C140.414 69.4647 140.414 69.209 140.386 68.9534C140.359 68.6978 140.331 68.4422 140.304 68.1866C140.441 67.9594 140.414 67.7321 140.386 67.4765Z" fill="#945339"/>
<path d="M135.961 53.958C136.346 54.7249 136.731 55.5485 137.088 56.3438C137.198 56.571 137.308 56.8266 137.391 57.0538C137.473 57.2526 137.583 57.4799 137.665 57.6787C137.665 57.7071 137.693 57.7355 137.693 57.7639C139.369 77.4748 133.268 104.826 92.2332 117.436C49.1372 130.7 30.4202 113.403 22.4771 98.9751C22.0923 98.2935 21.7625 97.6118 21.4327 96.9586C21.3227 96.5042 21.2403 96.0781 21.1304 95.6237C21.0204 95.1409 20.9105 94.6296 20.828 94.1468C20.7731 93.8344 20.7181 93.522 20.6631 93.2379C20.8005 93.4936 20.938 93.7776 21.1029 94.0332C26.8197 104.457 44.0801 124.31 88.6602 108.206C135.302 91.335 137.143 64.2963 135.961 53.958Z" fill="#AD6946"/>
<path d="M130.52 44.4422C130.547 44.499 130.492 44.5558 130.437 44.5274C108.23 20.6697 84.4555 14.1657 47.0214 34.6435C25.2535 46.5439 20.6361 68.7543 19.3718 81.1943C18.6847 50.8894 38.6935 33.053 58.5375 25.4413C59.1146 25.214 61.176 24.4188 61.6157 24.2484C82.6965 15.8414 111.555 16.0686 130.52 44.4422Z" fill="#D59A77"/>
<path d="M93.8611 101.647C105.828 96.833 112.44 84.7298 108.629 74.6144C104.819 64.4989 92.0279 60.2015 80.0607 65.016C68.0934 69.8305 61.4814 81.9336 65.2923 92.0491C69.1032 102.165 81.8939 106.462 93.8611 101.647Z" fill="#AD6946"/>
<path d="M96.2481 108.372C108.286 103.529 114.955 91.4032 111.145 81.2877C107.334 71.1722 94.4856 66.8979 82.4477 71.7409C70.4097 76.5838 63.7403 88.71 67.5512 98.8255C71.3621 108.941 84.2102 113.215 96.2481 108.372Z" fill="#945339"/>
<path d="M110.869 77.7277C112.902 83.1525 112.38 89.0601 109.714 94.2577C107.048 99.4552 102.211 103.971 95.642 106.613C80.0582 112.889 69.7789 106.783 65.6837 95.905C65.4364 95.2517 65.2165 94.5701 65.0516 93.9168C63.7323 89.0885 64.1996 84.0614 66.041 79.6875C66.6457 78.2958 67.3878 76.9325 68.2673 75.6828C70.4935 72.5302 73.5993 69.9456 77.3647 68.4403L84.2908 65.6569C88.0562 64.1516 91.9866 63.8676 95.697 64.6344C101.029 65.7421 105.866 69.0083 108.917 73.8367C109.687 75.0579 110.346 76.336 110.869 77.7277Z" fill="#DCBD8A"/>
<path d="M108.917 73.8367C111.143 84.6295 104.602 96.2459 93.1129 100.847C82.4489 105.136 70.9328 102.012 65.0236 93.8886C63.7043 89.0602 64.1715 84.0331 66.013 79.6592C66.6177 78.2675 67.3598 76.9042 68.2393 75.6545C70.4655 72.5019 73.5713 69.9173 77.3367 68.412L84.2628 65.6286C88.0282 64.1233 91.9586 63.8392 95.669 64.6061C101.029 65.7422 105.866 69.0084 108.917 73.8367Z" fill="#ECD09C"/>
<path d="M88.5486 89.3171C88.3837 89.3171 88.2187 89.2035 88.1638 89.0331L84.261 78.7232C84.1785 78.496 84.2884 78.2688 84.5083 78.1836C84.7282 78.0984 84.9481 78.212 85.0305 78.4392L88.9333 88.7491C89.0158 88.9763 88.9059 89.2035 88.686 89.2887C88.631 89.3171 88.576 89.3171 88.5486 89.3171Z" fill="#43281F"/>
<path d="M95.6962 64.6355C95.6687 66.7088 95.2289 68.7253 94.4044 70.5999C92.8378 74.0649 89.8694 76.9903 85.252 78.8364C80.3322 80.8246 76.0171 80.6541 72.5266 78.95C70.9325 78.1548 69.5033 77.0755 68.2665 75.7122C70.4927 72.5596 74.0108 69.3786 80.3048 66.8224C87.973 63.7266 92.0132 63.8686 95.6962 64.6355Z" fill="#5C392B"/>
<path d="M94.4047 70.6003C92.838 74.0653 89.8697 76.9907 85.2523 78.8369C80.3325 80.825 76.0174 80.6546 72.5269 78.9505C72.6643 78.1268 72.8842 77.3316 73.214 76.5931C74.1759 74.3494 75.935 72.5032 78.2986 71.5376L84.9499 68.8678C88.2756 67.5045 91.9036 68.3281 94.4047 70.6003Z" fill="#43281F"/>
<path d="M74.3951 72.8728C74.6424 72.6172 74.8623 72.4184 75.1097 72.1912C75.357 71.9639 75.6044 71.7651 75.8518 71.5663C76.3465 71.1687 76.8687 70.7995 77.4184 70.4586C78.4903 69.777 79.5897 69.1522 80.7715 68.6409C81.9259 68.1297 83.1627 67.7037 84.3995 67.3912C85.6638 67.1072 86.9556 66.9368 88.2748 67.022C88.907 67.0504 89.3742 67.6184 89.3467 68.2717C89.3192 68.7545 89.0169 69.1522 88.6046 69.3226L88.5497 69.351C87.4503 69.777 86.4059 70.1462 85.334 70.5722C84.2621 71.0267 83.2176 71.4527 82.1457 71.9355L78.93 73.384L77.3084 74.1225C77.0336 74.2361 76.7587 74.3497 76.4839 74.4917C76.2091 74.6053 75.9342 74.7189 75.6594 74.8325L75.6044 74.8609C74.9997 75.0882 74.3401 74.7757 74.1477 74.1509C73.9828 73.6681 74.0927 73.1852 74.3951 72.8728Z" fill="white"/>
<path d="M95.0351 61.9952C93.0837 61.9952 91.1323 61.2852 89.5657 59.8651C89.2908 59.6095 89.2633 59.155 89.5107 58.871C89.7581 58.587 90.1978 58.5586 90.4727 58.8142C92.8089 60.9444 96.2719 61.1716 98.8555 59.3822C101.439 57.5929 102.566 54.2415 101.604 51.2025C101.494 50.8333 101.686 50.4356 102.044 50.2936C102.401 50.18 102.786 50.3788 102.923 50.748C104.105 54.4119 102.731 58.445 99.6251 60.5751C98.2233 61.5408 96.6017 61.9952 95.0351 61.9952Z" fill="#43281F"/>
<path d="M57.408 80.6272C55.2642 80.6272 53.1204 79.7751 51.5263 78.0994C51.2514 77.8154 51.2514 77.361 51.5263 77.1054C51.8011 76.8213 52.2409 76.8213 52.4883 77.1054C54.687 79.3775 58.0951 79.8604 60.8161 78.2698C63.5096 76.6793 64.8564 73.3847 64.0868 70.2889C64.0043 69.9197 64.2242 69.522 64.5815 69.4368C64.9388 69.3516 65.3236 69.5788 65.4061 69.9481C66.3405 73.6687 64.7189 77.6166 61.4757 79.5195C60.2389 80.258 58.8097 80.6272 57.408 80.6272Z" fill="#43281F"/>
<path d="M63.8695 124.366C63.8695 124.366 63.8134 124.366 63.7294 124.366C63.7574 124.308 63.8134 124.308 63.8695 124.366Z" fill="#945339"/>
<path d="M47.7916 89.7723C47.7916 89.7723 70.3565 89.3179 82.8896 113.374C73.5997 84.1771 47.7916 89.7723 47.7916 89.7723Z" fill="#945339"/>
<path d="M47.7916 89.7731C59.9948 100.367 54.3604 115.448 54.3604 115.448L82.8896 113.375C70.3565 89.3186 47.7916 89.7731 47.7916 89.7731Z" fill="#AD6946"/>
<path d="M44.7135 92.8976L47.7918 89.7734C47.7918 89.7734 66.0966 91.932 73.1052 107.07C73.1052 107.07 63.568 102.952 51.6396 104.542L44.7135 92.8976Z" fill="#B6724D"/>
<path d="M85.7473 89.8873C82.0094 89.8873 80.058 86.6779 80.0305 86.6494C79.9206 86.4506 79.9756 86.195 80.1679 86.053C80.3603 85.9394 80.6077 85.9962 80.7451 86.195C80.8551 86.3654 83.3836 90.5121 88.3859 88.4956C93.1407 86.5642 91.9039 81.8779 91.8489 81.6791C91.794 81.4519 91.9039 81.2247 92.1238 81.1395C92.3437 81.0827 92.5635 81.1963 92.646 81.4235C93.1957 83.3832 93.0583 87.5015 88.6882 89.2908C87.6163 89.7169 86.6268 89.8873 85.7473 89.8873Z" fill="#43281F"/>
<path d="M120.762 155.663C120.762 182.134 99.984 203.606 74.3683 203.606C59.0318 203.606 45.4544 195.909 36.9891 184.065C31.3273 176.113 27.9741 166.286 27.9741 155.663C27.9741 129.193 48.7525 107.721 74.3683 107.721C92.8105 107.721 108.752 118.854 116.227 134.958C119.141 141.235 120.762 148.25 120.762 155.663Z" fill="#F15A29"/>
<path d="M116.227 134.987C111.692 164.723 86.7639 187.473 56.6956 187.473C49.797 187.473 43.1732 186.28 36.9891 184.065C31.3273 176.113 27.9741 166.286 27.9741 155.663C27.9741 149.614 29.046 143.82 31.0524 138.48C36.247 124.478 47.6257 113.657 61.6978 109.538C65.7381 108.346 69.9707 107.721 74.3683 107.721C92.8105 107.749 108.752 118.854 116.227 134.987Z" fill="#FEA170"/>
<path d="M118.178 155.437C118.178 163.901 115.952 171.825 112.049 178.585C104.381 191.934 90.3089 200.852 74.2029 200.852C49.9064 200.852 30.2274 180.516 30.2274 155.409C30.2274 130.33 49.9064 109.966 74.2029 109.966C86.4061 109.966 97.4549 115.107 105.425 123.428C113.341 131.693 118.178 142.969 118.178 155.437Z" fill="#FF8543"/>
<path d="M118.18 155.437C118.18 163.901 115.954 171.825 112.051 178.584C107.681 180.26 100.947 179.408 95.8623 176.199C82.7246 167.962 80.6083 158.561 94.598 143.167C99.93 137.316 103.503 131.352 105.454 123.428C113.343 131.693 118.18 142.968 118.18 155.437Z" fill="#F15A29"/>
<path d="M54.6624 133.653C40.8376 145.298 31.0255 138.51 31.0255 138.51C36.2201 124.508 47.5988 113.687 61.671 109.568C61.6984 109.54 71.373 119.566 54.6624 133.653Z" fill="#F15A29"/>
<path d="M61.148 111.272C61.4229 111.954 61.6702 112.664 61.8351 113.374C63.0719 118.685 60.8182 124.791 52.9851 131.324C42.1561 140.356 33.5259 139.305 28.881 134.221C28.7436 134.079 28.6062 133.909 28.4687 133.738C28.3038 133.539 28.1664 133.369 28.029 133.17C24.9782 129.052 24.2086 125.161 25.308 121.27C25.3355 121.213 25.3355 121.156 25.363 121.128C26.4898 117.293 29.4582 113.459 33.8282 109.398C40.3971 103.291 48.56 100.849 54.5242 103.802C54.6891 103.888 54.8265 103.973 54.9914 104.058C56.1183 104.683 57.1627 105.507 58.0697 106.557C59.389 108.006 60.4334 109.596 61.148 111.272Z" fill="#B6724D"/>
<path d="M61.8351 113.373C63.0719 118.684 60.8182 124.791 52.9851 131.323C42.1561 140.355 33.5259 139.304 28.881 134.22C28.5787 133.879 28.3038 133.539 28.029 133.169C24.9782 129.051 24.2086 125.16 25.308 121.269C25.3355 121.212 25.3355 121.155 25.363 121.127C27.012 124.819 32.3166 132.658 45.3443 122.717C56.1458 114.481 56.9978 107.863 54.5242 103.802C54.6891 103.887 54.8265 103.972 54.9914 104.057C56.1183 104.682 57.1627 105.506 58.0697 106.557C59.9387 108.602 61.2579 110.902 61.8351 113.373Z" fill="#AD6946"/>
<path d="M61.8351 113.374C63.0719 118.685 60.8182 124.791 52.9851 131.324C42.1561 140.355 33.5259 139.305 28.881 134.221C28.5787 133.88 28.3038 133.539 28.029 133.17C24.9782 129.051 24.2086 125.16 25.308 121.269C27.0945 126.268 33.4435 139.276 48.2577 128.398C62.1649 118.202 59.0042 109.142 54.964 104.029C56.0908 104.654 57.1353 105.478 58.0422 106.529C59.9387 108.602 61.2579 110.903 61.8351 113.374Z" fill="#945339"/>
<path d="M61.835 113.374C60.4607 110.391 56.7503 104.824 52.4077 104.228C42.5957 102.865 29.7878 113.374 26.737 121.724C24.5108 127.83 28.9083 134.221 28.9083 134.221C28.606 133.88 28.3311 133.539 28.0563 133.17C21.9547 124.933 24.9505 117.634 33.8556 109.369C41.8811 101.927 52.2428 99.9109 58.097 106.5C59.9385 108.602 61.2578 110.903 61.835 113.374Z" fill="#D59A77"/>
<path d="M61.1492 111.272C61.4241 111.954 61.6714 112.664 61.8364 113.374C63.0732 118.685 60.8194 124.792 52.9863 131.324C42.1573 140.356 33.5271 139.305 28.8822 134.221C28.7448 134.079 28.6074 133.909 28.4699 133.738V133.653C28.4699 133.653 36.5504 143.367 52.0793 131.154C61.8089 123.457 62.1937 115.874 61.1492 111.272Z" fill="#AD6946"/>
<path d="M73.6816 183.896C71.5927 183.896 69.6138 182.987 68.1846 181.396L43.6133 153.534C40.8649 150.41 41.0847 145.553 44.1081 142.713C47.1314 139.873 51.8313 140.1 54.5797 143.224L72.4722 163.531C77.2821 155.295 84.4006 142.912 88.9356 134.022C90.8595 130.273 95.3395 128.853 98.9675 130.812C102.595 132.801 103.97 137.43 102.073 141.179C94.4875 156.005 80.5802 179.295 80.003 180.289C78.7662 182.334 76.7049 183.668 74.3687 183.896C74.1488 183.896 73.9289 183.896 73.6816 183.896Z" fill="white"/>
<path d="M129.668 143.936C127.716 160.04 117.712 181.369 99.7642 175.49C99.3794 175.377 98.9671 175.235 98.5823 175.064C96.8233 174.383 94.9818 173.445 93.0854 172.224C90.227 170.378 87.8908 168.447 86.1867 166.458C79.343 158.506 81.6243 149.076 94.597 137.176C101.606 130.729 106.278 123.145 109.136 117.721C109.549 116.954 109.906 116.215 110.236 115.562C110.813 114.398 111.253 113.262 111.61 112.466L117.437 109.229L129.173 119.851C129.173 119.879 131.839 125.929 129.668 143.936Z" fill="#945339"/>
<path d="M111.388 171.713C107.567 174.894 103.527 175.774 99.7893 175.49C99.4045 175.377 98.9922 175.235 98.6074 175.064C96.8484 174.382 95.007 173.445 93.1105 172.224C90.2521 170.378 87.9159 168.446 86.2119 166.458C79.3682 158.506 81.6494 149.076 94.6222 137.176C101.631 130.729 106.303 123.145 109.162 117.72C109.574 116.954 109.931 116.215 110.261 115.562C110.838 114.397 111.14 113.545 111.498 112.75C111.498 112.75 123.014 109.257 123.976 126.554C125.048 145.952 123.344 161.715 111.388 171.713Z" fill="#AD6946"/>
<path d="M117.794 138.965C115.788 153.563 106.003 179.608 86.1867 166.486C79.343 158.534 81.6243 149.104 94.597 137.204C101.606 130.756 106.278 123.173 109.136 117.748C109.988 117.493 110.868 117.408 111.747 117.578C117.547 118.572 119.965 123.06 117.794 138.965Z" fill="#B6724D"/>
<path d="M100.726 133.454C93.745 142.116 73.7637 161.316 98.5823 175.091C96.8233 174.409 94.9818 173.472 93.0854 172.251C90.227 170.405 87.8908 168.473 86.1867 166.485C79.343 158.533 81.6243 149.103 94.597 137.203C101.606 130.756 106.278 123.172 109.136 117.747C109.549 116.981 109.906 116.242 110.236 115.589C109.549 117.861 106.883 125.842 100.726 133.454Z" fill="#D59A77"/>
<path d="M106.337 172.904C106.969 178.414 109.47 186.111 117.551 192.473C117.881 192.728 118.238 192.984 118.568 193.24C131.293 200.482 143.716 198.267 152.456 188.638C153.501 187.474 154.518 186.224 155.452 184.833C161.389 176.17 161.856 165.349 157.761 156.8C157.404 156.033 156.991 155.295 156.552 154.585C155.232 152.398 153.583 150.381 151.604 148.677C150.89 148.052 150.148 147.456 149.378 146.916C139.566 139.872 125.906 139.304 116.479 147.314C113.511 149.813 111.422 152.426 109.938 154.897C109.745 155.181 109.58 155.465 109.443 155.777C108.646 157.197 108.069 158.532 107.629 159.754C107.546 160.009 107.436 160.293 107.354 160.549C107.272 160.805 107.189 161.06 107.134 161.287C107.024 161.657 106.942 161.997 106.859 162.338C106.832 162.48 106.804 162.594 106.777 162.707C106.392 164.554 106.392 165.718 106.392 165.775C106.447 165.775 105.842 168.7 106.337 172.904Z" fill="#AD6946"/>
<path d="M106.334 173.5C107.103 179.379 109.879 186.48 117.547 192.501C117.877 192.757 118.235 193.012 118.564 193.268C131.29 200.51 143.713 198.295 152.453 188.667C153.497 187.502 154.514 186.253 155.449 184.861C161.385 176.198 161.853 165.377 157.757 156.828C158.142 159.47 158.115 162.452 157.703 165.462C156.603 173.358 152.7 181.652 145.747 186.054C141.706 188.61 136.622 189.831 130.438 188.894C130.053 188.837 129.696 188.78 129.311 188.695C123.017 187.474 118.454 183.839 115.294 179.323C110.979 173.159 109.22 165.377 109.137 159.867C109.11 158.277 109.247 156.885 109.467 155.777C108.67 157.197 108.093 158.532 107.653 159.754C107.543 160.009 107.461 160.293 107.378 160.549C107.296 160.804 107.213 161.06 107.158 161.287C107.048 161.657 106.966 161.997 106.883 162.338C106.856 162.48 106.828 162.594 106.801 162.707C106.389 164.752 105.701 168.729 106.334 173.5Z" fill="#945339"/>
<path d="M144.591 154.186C150.418 158.56 153.221 165.604 152.589 172.505C152.534 173.016 152.479 173.499 152.397 174.01C151.737 176.141 150.747 178.214 149.401 180.117C142.612 189.774 129.529 191.904 120.212 184.888C118.535 183.61 117.079 182.133 115.869 180.515C112.351 173.982 112.461 165.717 116.776 159.185C116.886 159.014 116.996 158.844 117.134 158.673C123.538 149.585 135.823 147.568 144.591 154.186Z" fill="#ECD09C"/>
<path d="M116.804 159.187C112.489 165.719 112.352 174.012 115.897 180.516C117.244 183.016 119.113 185.231 121.504 187.02C130.272 193.61 142.585 191.622 148.961 182.533C150.803 179.92 151.957 176.995 152.452 173.984C152.534 173.473 152.589 172.99 152.644 172.479C149.703 178.244 142.502 188.071 128.842 182.987C116.722 178.471 114.743 166.571 116.804 159.187Z" fill="#DCBD8A"/>
<path d="M149.402 180.118C150.749 178.215 151.739 176.142 152.398 174.012C151.904 176.994 150.749 179.919 148.908 182.561C142.531 191.621 130.246 193.637 121.45 187.048C119.059 185.259 117.19 183.015 115.844 180.544C117.053 182.163 118.482 183.64 120.186 184.918C129.558 191.905 142.614 189.746 149.402 180.118Z" fill="#C59F6D"/>
<path d="M137.611 183.414C137.583 183.414 137.556 183.414 137.528 183.414C137.253 183.385 136.978 183.272 136.759 183.101L131.536 178.585L125.105 180.545C124.885 180.63 124.61 180.63 124.39 180.545C124.143 180.488 123.923 180.346 123.758 180.147C123.429 179.778 123.346 179.238 123.511 178.784L125.902 172.11L122.082 166.202C121.807 165.776 121.779 165.265 122.027 164.81C122.274 164.356 122.769 164.1 123.264 164.129L129.97 164.555L134.065 158.959C134.367 158.562 134.89 158.363 135.384 158.448C135.879 158.562 136.264 158.931 136.401 159.442L138.133 166.344L144.482 168.786C144.949 168.957 145.279 169.383 145.334 169.894C145.389 170.405 145.169 170.888 144.757 171.144L139.095 174.978L138.902 182.107C138.902 182.618 138.6 183.073 138.16 183.271C137.995 183.357 137.803 183.414 137.611 183.414ZM131.619 177.676C131.701 177.676 131.811 177.705 131.894 177.762L137.281 182.419C137.363 182.505 137.473 182.533 137.583 182.533C137.666 182.533 137.748 182.533 137.83 182.476C137.995 182.391 138.105 182.249 138.105 182.05L138.298 174.694C138.298 174.552 138.38 174.438 138.49 174.353L144.344 170.405C144.482 170.32 144.564 170.121 144.564 169.951C144.537 169.752 144.427 169.61 144.234 169.525L137.693 167.026C137.556 166.969 137.473 166.855 137.446 166.742L135.659 159.641C135.604 159.471 135.467 159.3 135.274 159.272C135.082 159.243 134.89 159.3 134.78 159.442L130.547 165.208C130.465 165.321 130.327 165.378 130.19 165.378L123.264 164.924C123.071 164.924 122.906 165.009 122.796 165.179C122.714 165.321 122.714 165.52 122.824 165.691L126.727 171.826C126.809 171.939 126.809 172.081 126.782 172.223L124.281 179.068C124.226 179.238 124.253 179.437 124.363 179.551C124.418 179.636 124.5 179.693 124.61 179.693C124.693 179.721 124.803 179.721 124.885 179.693L131.536 177.676C131.564 177.676 131.591 177.676 131.619 177.676Z" fill="#C59F6D"/>
<path d="M106.334 173.5C106.334 173.302 106.334 173.103 106.334 172.904C106.389 168.615 107.379 164.071 109.138 159.867C113.425 149.7 124.337 141.804 135.358 143.195C152.811 145.411 158.528 160.918 158.885 168.502C159.38 178.982 152.508 188.695 152.371 188.667C152.371 188.667 152.398 188.667 152.481 188.695C153.525 187.531 154.542 186.281 155.477 184.89C161.413 176.227 161.936 165.377 157.785 156.857C148.633 138.083 127.442 137.458 116.613 146.888C113.673 149.444 111.446 152.455 109.962 154.897C109.77 155.181 109.605 155.465 109.467 155.778C108.67 157.198 108.093 158.533 107.653 159.754C107.543 160.009 107.461 160.293 107.379 160.549C107.296 160.805 107.214 161.06 107.159 161.288C107.049 161.657 106.966 161.998 106.884 162.338C106.856 162.48 106.829 162.594 106.801 162.708C106.389 164.753 105.702 168.729 106.334 173.5Z" fill="#D59A77"/>
</svg>
