<svg width="227" height="253" viewBox="0 0 227 253" fill="none" xmlns="http://www.w3.org/2000/svg">
<path d="M224.243 212.287C222.505 221.32 218.143 228.131 212.166 232.789C209.122 235.155 205.702 236.927 201.98 238.179C200.38 238.71 198.742 239.129 197.066 239.474C188.052 241.24 177.904 240.142 168.299 236.244C148.716 228.338 134.013 219.734 134.013 219.734L144.366 184.551C144.366 184.551 145.438 182.941 147.64 183.301C152.567 184.094 155.893 185.492 171.314 182.683C171.314 182.683 183.196 167.327 201.025 168.345C201.398 168.38 201.771 168.378 202.144 168.413C203.002 168.483 203.86 168.59 204.682 168.734C208.227 169.348 211.366 170.561 214.061 172.298C224.091 178.841 227.974 192.988 224.243 212.287Z" fill="#945339"/>
<path d="M192.43 237.375C176.604 241.007 136.445 221.137 136.445 221.137L136.184 221.176C141.196 223.944 153.164 230.29 167.926 236.247C177.568 240.144 187.679 241.243 196.693 239.477C197.81 239.247 198.927 238.979 200.007 238.675L192.43 237.375Z" fill="#B6724D"/>
<path d="M169.456 183.961C166.164 188.529 156.861 192.012 156.861 192.012C156.521 191.119 156.181 190.301 155.84 189.482L154.635 193.926C154.635 193.926 154.548 198.364 153.606 203.142C157.042 204.204 162.009 205.555 167.197 206.421C167.197 206.421 167.725 187.662 183.835 174.856C188.215 171.363 193.686 169.543 199.203 169.25C186.002 169.139 175.597 175.425 169.456 183.961Z" fill="#AD6946"/>
<path d="M196.767 147.302C190.015 153.381 180.678 157.275 171.78 159.711C170.179 160.168 168.615 160.55 167.051 160.894L167.014 160.894C162.173 162.003 157.665 162.7 153.976 163.131C149.766 163.639 146.634 163.806 145.441 163.85C145.069 163.853 144.882 163.854 144.882 163.854L137.041 142.234C137.041 142.234 162.474 136.124 173.645 107.238C176.916 98.7923 182.109 93.9155 187.726 91.721C191.41 90.2833 195.249 90.0005 198.869 90.5766C200.474 90.8285 202.005 91.2672 203.499 91.8181C209.404 94.0964 214.017 98.7685 215.204 104.355C217.389 114.82 214.425 131.392 196.767 147.302Z" fill="#945339"/>
<path d="M196.767 147.302C190.015 153.381 180.678 157.274 171.78 159.711C170.179 160.168 168.578 160.55 167.014 160.894C162.173 162.003 157.665 162.699 153.976 163.131C156.425 160.954 164.533 157.328 172.843 136.773C179.425 120.516 177.383 95.7691 193.727 91.2766C195.253 90.8578 196.967 90.6243 198.869 90.5763C200.473 90.8282 202.005 91.2669 203.499 91.8178C209.404 94.0961 214.016 98.7682 215.204 104.355C217.389 114.82 214.425 131.392 196.767 147.302Z" fill="#AD6946"/>
<path d="M196.767 147.301C190.015 153.38 180.678 157.274 171.78 159.711C170.179 160.167 168.578 160.549 167.014 160.893C167.014 160.893 172.465 155.456 178.54 141.961C188.114 120.653 184.018 108.371 192.46 97.9203C194.867 94.9237 197.617 93.3047 200.334 92.469C201.414 92.1646 202.456 91.935 203.463 91.8547C209.367 94.133 213.98 98.8051 215.167 104.391C217.389 114.819 214.425 131.392 196.767 147.301Z" fill="#B6724D"/>
<path d="M196.768 147.301C190.016 153.38 180.679 157.273 171.781 159.71C179.038 157.208 187.553 153.096 194.749 146.492C209.327 133.061 212.179 123.014 212.623 109.328C212.873 100.825 206.238 94.5234 200.335 92.5061C198.243 91.7722 195.966 91.4122 193.728 91.313C191.714 91.2499 189.665 91.4106 187.728 91.7572C191.411 90.3194 195.25 90.0367 198.87 90.6127C200.475 90.8646 202.006 91.3034 203.501 91.8542C209.405 94.1326 214.018 98.8046 215.205 104.391C217.39 114.819 214.426 131.391 196.768 147.301Z" fill="#D59A77"/>
<path d="M187.424 110.664C187.498 110.477 187.609 110.328 187.682 110.141C192.666 101.276 200.892 98.8425 206.071 104.705C209.524 108.6 210.754 115.156 209.747 121.724C209.675 122.209 209.604 122.694 209.494 123.142C208.914 126.017 207.923 128.819 206.483 131.4C201.5 140.265 193.273 142.698 188.094 136.836C186.706 135.241 185.65 133.196 184.966 130.925C183.217 124.895 184.03 117.022 187.424 110.664Z" fill="#AD6946"/>
<path d="M207.178 102.796C210.63 106.692 211.861 113.248 210.854 119.816C210.782 120.301 210.71 120.786 210.601 121.234C209.978 123.289 209.169 125.269 208.099 127.14C202.82 136.566 194.072 139.188 188.556 132.918C187.543 131.805 186.752 130.467 186.11 128.98C184.36 122.949 185.136 115.114 188.53 108.719C188.604 108.532 188.715 108.382 188.788 108.195C193.735 99.3677 201.962 96.9347 207.178 102.796Z" fill="#ECD09C"/>
<path d="M188.495 108.756C185.1 115.151 184.324 122.986 186.074 129.017C186.758 131.325 187.776 133.37 189.202 134.928C194.381 140.79 202.608 138.357 207.591 129.491C209.031 126.91 210.022 124.108 210.602 121.234C210.711 120.749 210.783 120.263 210.855 119.816C208.426 125.422 202.85 135.037 194.362 130.797C186.771 127.074 186.521 115.852 188.495 108.756Z" fill="#DCBD8A"/>
<path d="M207.768 127.776C208.987 125.755 209.907 123.55 210.602 121.272C210.022 124.146 209.031 126.948 207.592 129.529C202.608 138.394 194.382 140.827 189.203 134.965C187.889 133.481 186.72 131.213 186.188 129.389C186.188 129.352 186.225 129.315 186.225 129.352C186.98 131.026 187.996 132.511 189.195 133.698C194.594 138.887 202.708 136.306 207.768 127.776Z" fill="#C59F6D"/>
<path d="M177.353 143.086L165.954 158.103L167.088 160.893L167.051 160.893C162.21 162.002 157.702 162.699 154.013 163.13C149.802 163.639 146.671 163.805 145.478 163.849C145.01 160.086 144.579 156.472 144.579 156.472C169.32 159.948 177.03 125.563 177.03 125.563L177.353 143.086Z" fill="#AD6946"/>
<path d="M207.075 170.063C207.075 170.063 199.79 167.569 192.124 170.223C184.458 172.876 180.935 176.177 177.75 180.036C164.345 196.406 164.225 241.077 195.948 239.704L207.075 170.063Z" fill="#AD6946"/>
<path d="M214.247 172.334C210.877 169.818 205.534 167.984 200.425 167.826C185.993 167.423 177.299 172.917 170.952 178.173C166.165 182.115 157.85 182.237 152.148 182.642C153.539 184.759 154.226 187.589 154.598 194.001C154.598 194.001 164.139 193.089 169.835 184.928C176.345 175.681 185.965 169.139 199.166 169.325C204.384 169.034 209.872 170.122 214.247 172.334Z" fill="#945339"/>
<path d="M152.385 198.078C149.872 208.756 143.617 216.883 138.751 220.192C128.537 227.185 110.759 228.703 110.759 228.703L71.8684 235.224L74.2933 248.597C66.2199 245.175 58.5077 239.7 49.6191 230.615C40.7306 221.53 43.1857 207.347 48.6085 190.463C53.6282 174.811 73.7086 145.426 73.7086 145.426C73.7086 145.426 76.612 144.552 81.1917 143.371C97.2014 139.178 133.845 130.954 140.654 141.43C149.381 154.916 152.147 169.256 153.359 185.805C153.682 190.128 153.258 194.269 152.385 198.078Z" fill="#AD6946"/>
<path d="M152.384 198.078C147.152 209.145 137.502 217.067 120.497 216.716C120.236 216.718 119.938 216.719 119.677 216.683C117.178 216.586 114.828 216.338 112.625 215.94C74.7041 209.332 78.3853 161.471 81.2282 143.334C83.9088 142.61 87.1855 141.809 90.8349 140.968C91.9149 140.738 93.032 140.47 94.1866 140.24L94.2612 140.24C111.914 136.448 135.424 133.22 140.691 141.431C149.418 154.916 152.184 169.256 153.396 185.805C153.681 190.129 153.257 194.27 152.384 198.078Z" fill="#AD6946"/>
<path d="M112.588 215.941C74.6671 209.332 78.3483 161.472 81.1912 143.334C83.8718 142.61 87.1485 141.809 90.7979 140.968C101.781 151.159 119.849 174.697 112.588 215.941Z" fill="#945339"/>
<path d="M149.22 159.616C136.097 159.914 125.705 148.712 125.705 148.712L123.169 148.727C121.606 155.783 115.375 161.598 111.064 164.158C116.435 171.025 122.146 178.674 124.322 187.648C127.949 202.58 124.191 210.58 120.46 216.679C137.465 217.068 147.115 209.145 152.346 198.042C153.257 194.233 153.644 190.092 153.321 185.731C152.751 177.382 151.201 167.062 149.22 159.616Z" fill="#B6724D"/>
<path d="M81.267 150.157C80.8665 158.437 80.9526 167.049 75.9633 181.471C71.4875 194.397 60.4099 213.551 50.9953 223.486C45.9544 228.809 33.9745 233.5 22.933 232.705C16.6662 232.256 10.725 230.053 6.59587 225.191C4.98179 223.299 3.77807 221.441 2.94743 219.619C1.09822 215.714 0.853375 211.987 1.54258 208.59C2.84895 202.244 7.59218 197.034 11.7513 194.027C19.1783 188.653 28.1929 180.511 40.8432 169.104C45.3691 165.014 49.6 161.522 53.3124 158.63C54.9458 157.353 56.5052 156.188 57.9535 155.136C65.1944 149.837 69.6548 147.351 69.6548 147.351C69.6548 147.351 81.6675 141.876 81.267 150.157Z" fill="#945339"/>
<path d="M24.6723 59.3489C17.9591 72.251 28.3698 80.1714 33.1585 82.9781C34.468 83.7537 35.3649 84.1215 35.3649 84.1215L43.148 69.1998L45.0271 65.2367L50.4808 53.7959C50.481 53.8332 32.8623 43.8655 24.6723 59.3489ZM10.5384 52.419C10.5011 52.4192 10.5013 52.4565 10.5384 52.419C10.428 52.6806 10.3172 52.8677 10.2066 53.092C9.58039 54.4379 8.991 55.709 8.55075 56.9793C-0.925124 82.4256 22.7886 95.4162 29.6674 98.584C30.7889 99.0996 31.4615 99.3568 31.4615 99.3568L46.9655 71.7137L47.003 71.7508L47.2608 71.19L47.593 70.5915L47.5182 70.5547L55.6534 51.9768L60.1078 41.8468L60.2552 41.5476C60.2552 41.5476 26.9871 20.4079 10.5384 52.419Z" fill="#B6724D"/>
<path d="M43.4795 68.5649L43.1477 69.2379L42.9266 69.6866L35.3647 84.1596C35.3647 84.1596 31.851 82.6135 28.4781 79.6123C24.1305 75.6845 20.0294 69.1825 24.2295 60.2471C24.4507 59.7984 24.6718 59.3496 24.9303 58.9007C25.0778 58.6016 25.2627 58.3395 25.4104 58.0777C32.3201 46.9642 44.6488 51.1824 48.9479 53.1343C49.9198 53.5762 50.4808 53.8713 50.4808 53.8713L43.4795 68.5649Z" fill="#DCBD8A"/>
<path d="M47.5189 70.5555L47.5937 70.5923L47.2615 71.1908L47.0037 71.7516L46.9662 71.7145L31.4622 99.3576C31.4622 99.3576 0.447834 87.7133 7.38002 60.8273C7.70862 59.5949 8.11158 58.3249 8.58891 57.0171C9.45886 65.7747 10.9181 79.8237 28.0051 88.0792C28.0051 88.0792 29.0202 82.9651 29.7895 80.537C30.9613 76.7644 32.5443 73.1759 34.3523 69.8098C36.7874 65.2469 39.6345 61.0173 42.5202 57.0112C45.8873 52.4058 52.0974 56.0248 55.7291 52.0518L47.5189 70.5555Z" fill="#945339"/>
<path d="M34.2783 69.7348C30.615 81.2773 29.3776 93.2162 29.3776 93.2162C10.6833 84.2614 7.06395 70.6721 7.34353 60.7894C7.67213 59.557 8.07509 58.287 8.55241 56.9792C9.42236 65.7368 10.8816 79.7858 27.9686 88.0413C27.9686 88.0413 28.9837 82.9272 29.753 80.4992C30.9248 76.7265 32.4705 73.1382 34.2783 69.7348Z" fill="#AD6946"/>
<path d="M41.4326 56.0098C31.8674 65.6841 29.1956 74.5363 28.4786 79.6114C24.131 75.6836 20.0299 69.1816 24.23 60.2462C24.4511 59.7975 24.6723 59.3488 24.9308 58.8999C25.0782 58.6007 25.2632 58.3387 25.4109 58.0768C32.505 53.1893 41.4326 56.0098 41.4326 56.0098Z" fill="#ECD09C"/>
<path d="M60.2566 41.5464L60.1091 41.8456L58.2508 42.9001C58.2508 42.9001 50.5799 38.1336 41.5505 37.1034C32.5212 36.0733 21.5798 39.7894 15.5855 47.952C9.59128 56.1146 5.49936 70.9781 11.5974 81.1229C17.2058 90.4129 27.8729 97.5116 29.5942 98.5832C22.7529 95.4526 -0.960816 82.4619 8.51485 56.9783C8.99238 55.7078 9.54428 54.3996 10.1707 53.091C10.2813 52.8667 10.3921 52.6796 10.5027 52.4553L10.5025 52.418C26.9885 20.4067 60.2566 41.5464 60.2566 41.5464Z" fill="#D59A77"/>
<path d="M48.9864 53.0953L47.9907 55.0399C35.6222 50.3745 28.6723 54.4037 24.9691 58.8991C31.7237 46.7425 44.5753 51.1068 48.9864 53.0953Z" fill="#C59F6D"/>
<path d="M125.851 29.5415L136.739 36.0424L140.48 38.2957L155.217 46.4153C155.217 46.4153 155.735 45.5921 156.398 44.246C158.831 39.2357 163.086 26.8695 150.369 19.8571C134.996 11.48 125.851 29.5415 125.851 29.5415ZM110.909 24.7043L111.171 24.8893L120.489 30.877L137.554 41.8173L137.518 41.892L138.116 42.187L138.64 42.5196L138.677 42.4821L166.91 56.9013C166.91 56.9013 167.317 56.3024 167.982 55.2546C171.936 48.8188 184.515 24.8837 162.5 8.93773C161.414 8.16085 160.216 7.38461 158.944 6.60878C158.72 6.49819 158.533 6.38739 158.308 6.23952L158.271 6.23973C126.888 -11.2938 110.909 24.7043 110.909 24.7043Z" fill="#B6724D"/>
<path d="M139.879 37.9267L140.515 38.296L140.927 38.5547L155.215 46.4159C155.215 46.4159 157.285 43.1974 158.416 38.8284C159.875 33.1152 159.683 25.4724 151.227 20.3375C150.778 20.079 150.329 19.8205 149.918 19.5991C149.618 19.4517 149.357 19.304 149.058 19.1938C137.132 13.7802 129.211 24.1164 126.699 28.1203C126.144 29.0184 125.849 29.5794 125.849 29.5794L139.879 37.9267Z" fill="#DCBD8A"/>
<path d="M137.592 41.8167L137.555 41.8915L138.154 42.1864L138.677 42.519L138.715 42.4815L166.948 56.9008C166.948 56.9008 186.297 30.0562 165.646 11.4551C164.709 10.6028 163.661 9.75115 162.537 8.9372C166.646 16.7069 173.242 29.2353 163.565 45.5474C163.565 45.5474 159.89 41.8768 157.905 40.2474C154.833 37.7666 151.54 35.6599 148.174 33.8146C143.648 31.3793 138.901 29.3927 134.305 27.7035C128.962 25.7203 125.792 32.1889 120.564 30.8762L137.592 41.8167Z" fill="#945339"/>
<path d="M148.172 33.8149C157.612 41.368 165.271 50.6464 165.271 50.6464C175.909 32.8374 171.359 19.5144 165.645 11.4181C164.708 10.5658 163.659 9.71417 162.536 8.90022C166.644 16.67 173.241 29.1984 163.564 45.5104C163.564 45.5104 159.889 41.8398 157.903 40.2104C154.832 37.7296 151.539 35.6229 148.172 33.8149Z" fill="#AD6946"/>
<path d="M134.594 26.3232C147.921 29.0815 155.077 34.9696 158.454 38.7911C159.913 33.0778 159.721 25.4351 151.265 20.3001C150.816 20.0416 150.367 19.7831 149.956 19.5617C149.656 19.4143 149.395 19.2666 149.096 19.1565C140.482 19.0188 134.594 26.3232 134.594 26.3232Z" fill="#ECD09C"/>
<path d="M110.909 24.7043L111.171 24.8893L113.295 24.7281C113.295 24.7281 117.052 16.5409 123.992 10.6847C130.969 4.8284 142.138 1.8567 151.629 5.30791C161.156 8.7589 172.81 18.9095 173.287 30.7269C173.759 41.5748 168.792 53.3857 167.982 55.2546C171.936 48.8188 184.515 24.8837 162.5 8.93773C161.414 8.16085 160.216 7.38461 158.944 6.60878C158.72 6.49819 158.533 6.38739 158.308 6.23952L158.271 6.23973C126.888 -11.2938 110.909 24.7043 110.909 24.7043Z" fill="#D59A77"/>
<path d="M126.7 28.0826L128.608 29.1531C136.303 18.4081 144.354 17.9523 149.919 19.5987C137.541 13.2182 129.25 24.0039 126.7 28.0826Z" fill="#C59F6D"/>
<path d="M180.814 89.076C180.814 89.1133 180.814 89.1133 180.814 89.1506C180.816 89.4116 180.817 89.6726 180.819 89.9336C180.819 90.0081 180.82 90.0827 180.82 90.1573C180.821 90.381 180.823 90.642 180.787 90.8659C180.789 91.1642 180.753 91.4627 180.717 91.7612C180.647 92.4328 180.613 93.0669 180.505 93.7014C180.469 93.9253 180.433 94.1865 180.397 94.4104C180.074 96.7613 179.528 99.0017 178.795 101.206C178.758 101.318 178.721 101.43 178.685 101.542C178.685 101.579 178.648 101.654 178.648 101.691C178.612 101.841 178.538 102.028 178.465 102.177C178.354 102.439 178.281 102.737 178.171 102.999C177.877 103.784 177.546 104.531 177.215 105.316C177.141 105.466 177.067 105.653 176.994 105.802C176.883 106.027 176.772 106.251 176.662 106.475C176.588 106.625 176.515 106.812 176.404 106.962C176.219 107.335 176.035 107.747 175.814 108.121C175.74 108.308 175.629 108.457 175.555 108.607C175.556 108.644 175.518 108.645 175.518 108.682C175.408 108.906 175.26 109.168 175.112 109.393C175.113 109.43 175.075 109.43 175.075 109.467C174.928 109.729 174.78 109.954 174.669 110.178C174.522 110.477 174.337 110.739 174.152 111.039C174.041 111.226 173.893 111.45 173.783 111.637C173.117 112.685 172.378 113.733 171.638 114.744C171.49 114.932 171.342 115.156 171.194 115.343C171.046 115.568 170.86 115.755 170.712 115.98C170.639 116.092 170.527 116.205 170.453 116.317C170.305 116.542 170.12 116.729 169.972 116.954C169.676 117.291 169.417 117.665 169.121 118.003C168.787 118.377 168.491 118.752 168.157 119.127C168.009 119.314 167.824 119.501 167.676 119.651C167.491 119.876 167.268 120.101 167.083 120.289C166.935 120.476 166.749 120.626 166.601 120.813C166.453 121.001 166.267 121.151 166.119 121.338C166.045 121.413 165.971 121.488 165.897 121.563C165.712 121.788 165.489 121.976 165.267 122.201C164.228 123.25 163.19 124.263 162.077 125.239C162.077 125.239 144.63 139.059 120.917 145.831C98.0225 152.411 85.4588 152.781 71.9197 152.112C70.5397 152.045 69.0841 151.792 67.6653 151.465C64.6784 150.773 61.9509 149.782 61.0916 149.489C61.0543 149.489 61.0168 149.452 60.9795 149.452C60.7927 149.378 60.5685 149.305 60.3817 149.232C60.1948 149.158 59.9707 149.085 59.7838 149.011C59.186 148.791 58.5881 148.571 58.0274 148.313C57.8405 148.239 57.6537 148.166 57.4668 148.092L57.4295 148.092C57.2427 148.019 57.0558 147.945 56.8688 147.835C53.9905 146.583 51.2227 145.07 48.6394 143.22C48.4524 143.11 48.3024 142.961 48.1153 142.85C47.2541 142.221 46.3925 141.518 45.5309 140.814C45.3437 140.666 45.1939 140.555 45.0437 140.37C44.8937 140.221 44.7064 140.073 44.5564 139.925C44.4065 139.777 44.2565 139.628 44.0692 139.48C43.6944 139.147 43.3569 138.813 43.0193 138.442C42.9068 138.331 42.7941 138.182 42.6443 138.071C42.4943 137.923 42.3441 137.738 42.1941 137.589C42.0441 137.441 41.8939 137.255 41.7437 137.07C41.5937 136.921 41.4435 136.736 41.2935 136.588C41.1058 136.365 40.9556 136.179 40.7679 135.957C40.6927 135.845 40.5802 135.734 40.505 135.623C40.3173 135.4 40.1669 135.177 39.9794 134.992C39.9042 134.88 39.7917 134.769 39.7165 134.658C39.6038 134.509 39.5286 134.398 39.4159 134.249C39.3032 134.101 39.1903 133.915 39.0401 133.729C38.6268 133.172 38.2505 132.578 37.8368 131.946C37.7239 131.76 37.6112 131.612 37.4983 131.426C37.3852 131.203 37.2347 130.98 37.1218 130.794C37.0089 130.609 36.896 130.423 36.8204 130.237C36.7075 130.051 36.632 129.902 36.5191 129.717C36.406 129.493 36.2931 129.308 36.18 129.085C36.0668 128.861 35.9539 128.676 35.8408 128.453C34.2193 125.255 32.9309 121.608 31.9759 117.587C31.6315 116.023 31.2872 114.496 31.0176 112.968C30.9027 112.447 30.825 111.888 30.7475 111.367C30.6322 110.771 30.5543 110.175 30.4763 109.578C30.4369 109.206 30.3602 108.833 30.3208 108.461C30.1262 107.008 29.9688 105.554 29.8114 104.101C29.7318 103.207 29.6519 102.275 29.6095 101.38L29.6093 101.343C29.4456 98.7709 29.4314 96.2728 29.4925 93.8861C30.1786 70.2048 41.4187 53.3991 56.0474 42.3911C63.9937 36.5292 72.8813 32.3027 81.7027 29.5307C82.4471 29.3028 85.0527 28.505 85.611 28.3154C109.989 20.3842 141.913 21.471 163.842 48.4918C165.607 50.6818 167.298 53.0213 168.953 55.5474C169.442 56.2904 169.894 57.0336 170.383 57.8139C170.496 58.0369 170.646 58.2598 170.759 58.4829C172.642 61.6789 174.414 65.1366 176.076 68.8559C176.491 69.823 176.907 70.7901 177.323 71.7945C177.436 72.0922 177.55 72.3898 177.663 72.6502C177.777 72.9106 177.853 73.1711 177.966 73.3942C177.966 73.4315 178.004 73.4686 178.004 73.5059C178.004 73.5059 178.004 73.5432 178.041 73.5429C178.155 73.8033 178.231 74.0639 178.307 74.3618C178.345 74.4361 178.383 74.5478 178.383 74.6223C178.459 74.8829 178.572 75.1433 178.648 75.4039C178.649 75.4784 178.687 75.5528 178.724 75.6272C178.838 75.9248 178.914 76.2227 179.028 76.5576C179.104 76.8928 179.218 77.1904 179.294 77.5256L179.295 77.6001C179.371 77.9353 179.485 78.233 179.561 78.5681C179.637 78.8287 179.713 79.0893 179.752 79.3873C179.79 79.499 179.828 79.6479 179.829 79.7598C179.905 80.0204 179.944 80.2811 179.982 80.5046C179.982 80.5046 179.983 80.5419 179.983 80.5792C180.059 80.9144 180.098 81.2124 180.174 81.5103C180.213 81.8084 180.29 82.1063 180.329 82.4043C180.329 82.4789 180.329 82.5162 180.367 82.5906C180.406 82.8886 180.445 83.1494 180.484 83.4475C180.523 83.7456 180.562 84.0064 180.6 84.3044C180.601 84.4163 180.639 84.5279 180.64 84.6398C180.678 84.8633 180.68 85.1243 180.718 85.3478C180.718 85.3851 180.718 85.3851 180.719 85.4224C180.758 85.7205 180.759 86.0188 180.798 86.3168C180.8 86.6151 180.839 86.9505 180.841 87.2488C180.843 87.5471 180.844 87.8826 180.846 88.1809C180.81 88.4421 180.812 88.7777 180.814 89.076Z" fill="#B6724D"/>
<path d="M178.685 101.578C178.686 101.615 178.649 101.69 178.649 101.728C178.575 101.877 178.539 102.064 178.465 102.213C178.355 102.475 178.282 102.774 178.172 103.035C177.878 103.783 174.389 132.961 128.296 145.154C126.062 145.726 123.754 146.299 121.333 146.797C98.0185 151.627 87.549 153.066 74.0101 152.435C71.0264 152.302 69.0475 151.829 67.6289 151.539C64.642 150.847 61.9145 149.856 61.0552 149.562C61.0179 149.563 60.9804 149.525 60.9431 149.526C60.7563 149.452 60.5321 149.379 60.3453 149.305C60.1584 149.232 59.9343 149.159 59.7474 149.085C59.1496 148.865 58.5518 148.644 57.991 148.386C57.8041 148.313 57.6173 148.239 57.4304 148.166L57.3931 148.166C57.2063 148.093 57.0194 148.019 56.8324 147.908C53.9542 146.657 51.1863 145.144 48.603 143.294C48.416 143.183 48.266 143.035 48.0789 142.924C47.1805 142.295 46.3562 141.592 45.4946 140.888C45.3073 140.74 45.1575 140.629 45.0073 140.443C44.8573 140.295 44.67 140.147 44.5201 139.999C44.3701 139.85 44.2201 139.702 44.0328 139.554C43.658 139.221 43.3206 138.887 42.9829 138.516C42.8704 138.405 42.7577 138.256 42.6079 138.145C42.4579 137.997 42.3077 137.811 42.1577 137.663C42.0077 137.515 41.8575 137.329 41.7073 137.143C41.5573 136.995 41.4071 136.81 41.2571 136.661C41.0694 136.439 40.9192 136.253 40.7316 136.03C40.6563 135.919 40.5439 135.808 40.4686 135.696C40.2809 135.474 40.1305 135.251 39.9431 135.065C39.8678 134.954 39.7926 134.843 39.7174 134.731C39.6047 134.583 39.5295 134.471 39.4168 134.323C39.3041 134.174 39.1912 133.988 39.041 133.803C38.6277 133.246 38.2514 132.651 37.8377 132.02C37.7248 131.834 37.6121 131.685 37.4992 131.5C37.386 131.277 37.2356 131.054 37.1227 130.868C37.0098 130.682 36.8969 130.496 36.8213 130.31C36.7084 130.125 36.6329 129.976 36.52 129.79C36.4069 129.567 36.294 129.381 36.1809 129.158C36.0677 128.935 35.9548 128.749 35.8417 128.526C34.22 125.291 32.9318 121.682 31.9768 117.66C31.6324 116.096 31.2881 114.569 31.0185 113.042C30.9036 112.521 30.8259 111.962 30.7484 111.44C30.6331 110.844 30.5552 110.248 30.4772 109.652C30.4378 109.279 30.3611 108.907 30.3217 108.534C30.1271 107.081 29.9697 105.628 29.8123 104.174C29.7326 103.28 29.6528 102.348 29.6104 101.454L29.6102 101.416C29.4465 98.8444 29.4323 96.3463 29.4934 93.9596C29.9913 76.5436 36.2153 62.8612 45.2545 52.4814C48.5145 48.7342 52.1498 45.3951 56.0485 42.5019C48.892 56.115 35.8833 89.8218 60.1938 122.571C77.9286 146.446 145.858 151.655 178.685 101.578Z" fill="#AD6946"/>
<path d="M128.296 145.155C126.062 145.727 123.753 146.299 121.332 146.798C98.0181 151.628 87.5485 153.067 74.0097 152.435C71.026 152.303 69.0471 151.83 67.6285 151.539C64.6416 150.848 61.914 149.857 61.0548 149.563C61.0175 149.563 60.98 149.526 60.9427 149.527C60.7558 149.453 60.5317 149.38 60.3449 149.306C60.158 149.233 59.9339 149.159 59.747 149.086C59.1492 148.866 58.5513 148.645 57.9906 148.387C57.8037 148.314 57.6168 148.24 57.43 148.167L57.3927 148.167C57.2059 148.094 57.019 148.02 56.8319 147.909C53.9537 146.658 51.1859 145.145 48.6026 143.295C48.4155 143.184 48.2656 143.036 48.0785 142.925C47.18 142.296 46.3557 141.592 45.4941 140.889C45.3069 140.741 45.1571 140.63 45.0069 140.444C44.8569 140.296 44.6696 140.148 44.5196 140C44.3696 139.851 44.2196 139.703 44.0324 139.555C43.6576 139.221 43.3201 138.888 42.9824 138.517C42.87 138.406 42.7572 138.257 42.6075 138.146C42.4575 137.998 42.3073 137.812 42.1573 137.664C42.0073 137.516 41.8571 137.33 41.7069 137.144C41.5569 136.996 41.4067 136.81 41.2567 136.662C41.069 136.44 40.9188 136.254 40.7311 136.031C40.6559 135.92 40.5434 135.809 40.4682 135.697C40.2805 135.475 40.1301 135.252 39.9426 135.066C39.8674 134.955 39.7922 134.843 39.717 134.732C39.6043 134.583 39.5291 134.472 39.4164 134.323C39.3037 134.175 39.1908 133.989 39.0406 133.804C38.6273 133.247 38.251 132.652 37.8373 132.021C37.7244 131.835 37.6117 131.686 37.4987 131.501C37.3856 131.277 37.2352 131.055 37.1223 130.869C37.0094 130.683 36.8965 130.497 36.8208 130.311C36.7079 130.125 36.6325 129.977 36.5196 129.791C36.4065 129.568 36.2936 129.382 36.1804 129.159C36.0673 128.936 35.9544 128.75 35.8413 128.527C34.2196 125.292 32.9314 121.683 31.9764 117.661C31.6319 116.097 31.2877 114.57 31.018 113.043C30.9032 112.521 30.8255 111.963 30.7479 111.441C30.6327 110.845 30.5547 110.249 30.4768 109.653C30.4374 109.28 30.3607 108.908 30.3213 108.535C30.1266 107.082 29.9693 105.629 29.8119 104.175C29.7322 103.281 29.6524 102.349 29.61 101.454L29.6098 101.417C29.4461 98.8453 29.4319 96.3471 29.493 93.9604C29.9908 76.5445 36.2148 62.8621 45.2541 52.4823L37.8984 63.8593C37.8984 63.8593 26.7537 97.4809 45.4873 126.533C59.1416 147.523 98.7918 149.983 128.296 145.155Z" fill="#945339"/>
<path d="M85.9791 27.5291C52.2123 36.8186 30.591 57.4864 29.53 93.9593C31.1733 81.2723 34.328 52.3568 67.1307 37.4425C116.037 15.1659 148.81 27.8442 166.139 58.9927C176.573 77.7636 180.886 95.1895 175.15 109.428C161.655 142.989 125.011 144.651 112.952 148.485C115.335 147.875 121.705 146.795 124.424 146.257C147.514 141.391 161.546 130.312 161.546 130.312C190.72 106.693 181.958 73.8925 168.273 53.9468C152.218 30.5469 126.187 16.4507 85.9791 27.5291Z" fill="#D59A77"/>
<path d="M66.0975 151.174C64.604 150.81 61.9509 149.818 60.9796 149.488C60.7928 149.414 60.5686 149.341 60.3818 149.267C60.1949 149.194 59.9708 149.121 59.7839 149.047C59.1861 148.827 58.5882 148.606 58.0275 148.349C57.8406 148.275 57.6538 148.202 57.4669 148.128L57.4296 148.128C57.2428 148.055 57.0559 147.981 56.8688 147.87C53.9906 146.619 51.2228 145.106 48.6397 143.293C48.4527 143.183 48.3027 143.034 48.1156 142.923C47.2171 142.295 46.3928 141.591 45.5312 140.887C45.3813 140.739 45.194 140.591 45.044 140.443C44.894 140.294 44.7067 140.146 44.5567 139.998C44.4068 139.85 44.2195 139.702 44.0695 139.553C43.732 139.22 43.3573 138.886 43.0196 138.515C42.9071 138.404 42.7944 138.255 42.6446 138.144C42.4946 137.996 42.3444 137.811 42.1944 137.662C42.0442 137.477 41.8942 137.328 41.744 137.143C41.594 136.995 41.4438 136.809 41.2938 136.661C41.0311 136.364 40.7682 136.03 40.5053 135.696C40.3176 135.473 40.1672 135.25 39.9797 135.065C39.9045 134.953 39.8293 134.842 39.7541 134.73C39.6414 134.582 39.5662 134.47 39.4535 134.322C39.3406 134.136 39.1906 133.988 39.0777 133.802C38.6642 133.208 38.2881 132.651 37.8744 132.019C37.7615 131.833 37.6488 131.685 37.5359 131.499C37.4227 131.276 37.2725 131.09 37.1594 130.867C37.0465 130.681 36.9336 130.496 36.858 130.31C36.745 130.124 36.6696 129.975 36.5567 129.789C36.4436 129.566 36.3307 129.38 36.2175 129.157C36.1044 128.934 35.9915 128.748 35.8784 128.525C34.2567 125.291 32.9685 121.681 32.0135 117.659C31.669 116.095 31.3248 114.569 31.0551 113.041C30.9403 112.52 30.8626 111.961 30.7851 111.439C30.6698 110.844 30.5919 110.247 30.5139 109.651C30.4745 109.279 30.3978 108.906 30.3584 108.533C30.0091 106.112 29.8094 103.764 29.6473 101.49C29.8448 103.428 30.1964 106.26 30.8116 109.538C31.195 111.4 31.654 113.448 32.2254 115.57C33.9383 121.75 36.7362 128.558 41.168 134.2C49.8434 145.151 69.0842 151.828 81.0941 152.431C80.3488 152.51 74.4989 153.252 66.0975 151.174Z" fill="#AD6946"/>
<path d="M90.5269 86.3807C88.1598 89.7873 83.5037 90.634 80.1344 88.2667C77.1397 86.1956 76.1108 82.2862 77.5468 79.0714C77.7309 78.6602 77.9523 78.2488 78.2112 77.8745C80.5782 74.4679 85.2343 73.6212 88.6409 75.9883C90.9619 77.6157 92.0957 80.294 91.8122 82.9057C91.67 84.137 91.2667 85.3325 90.5269 86.3807Z" fill="#333132"/>
<path d="M91.1101 84.1403C88.743 87.5469 84.0869 88.3936 80.6804 86.0265C78.3594 84.399 77.2256 81.7208 77.5091 79.109C77.6932 78.6978 77.9146 78.2864 78.1734 77.9121C80.5405 74.5055 85.1966 73.6588 88.6032 76.0259C90.9242 77.6534 92.058 80.3316 91.7745 82.9433C91.6277 83.3543 91.3688 83.7287 91.1101 84.1403Z" fill="#272425"/>
<path d="M85.8392 81.7832C87.4043 81.7744 88.6658 80.4985 88.6569 78.9335C88.6481 77.3684 87.3722 76.1069 85.8071 76.1158C84.2421 76.1246 82.9806 77.4005 82.9894 78.9656C82.9983 80.5306 84.2742 81.7921 85.8392 81.7832Z" fill="white"/>
<path d="M84.4066 92.1939C84.2947 92.1946 84.1454 92.1581 84.0704 92.084C83.8456 91.8988 83.7689 91.5264 83.9914 91.3014C87.1751 87.2563 92.6424 84.8017 92.8655 84.6885C93.1632 84.575 93.4621 84.6852 93.6129 84.9826C93.7265 85.2803 93.6163 85.5792 93.3189 85.73C93.2818 85.7675 87.8518 88.222 84.853 92.005C84.7044 92.1177 84.5557 92.1931 84.4066 92.1939Z" fill="#43281F"/>
<path d="M136.443 76.1284C132.421 77.0834 128.38 74.5708 127.462 70.549C126.622 66.9742 128.503 63.4212 131.739 61.986C132.148 61.7972 132.595 61.6455 133.041 61.5311C137.063 60.5762 141.104 63.0888 142.022 67.1106C142.672 69.8662 141.68 72.631 139.714 74.3947C138.824 75.22 137.709 75.823 136.443 76.1284Z" fill="#333132"/>
<path d="M138.598 74.7349C134.614 75.8015 130.499 73.4384 129.432 69.4175C128.708 66.6996 129.587 63.8981 131.516 62.0601C131.925 61.8713 132.371 61.6824 132.818 61.568C136.802 60.5013 140.917 62.8644 141.984 66.8854C142.708 69.6032 141.829 72.4048 139.9 74.2428C139.491 74.4315 139.045 74.6205 138.598 74.7349Z" fill="#272425"/>
<path d="M137.34 69.6719C138.905 69.663 140.166 68.3871 140.157 66.8221C140.148 65.2571 138.873 63.9956 137.307 64.0044C135.742 64.0133 134.481 65.2892 134.49 66.8542C134.499 68.4193 135.775 69.6808 137.34 69.6719Z" fill="white"/>
<path d="M139.401 78.1989C139.327 78.1993 139.214 78.1627 139.14 78.1258C134.802 75.9504 128.837 76.0588 128.799 76.059C128.501 76.0607 128.239 75.8012 128.237 75.5029C128.235 75.2046 128.457 74.9424 128.793 74.9405C129.054 74.939 135.057 74.8304 139.656 77.1161C139.918 77.2638 140.032 77.5987 139.921 77.8604C139.773 78.0849 139.588 78.1978 139.401 78.1989Z" fill="#43281F"/>
<path d="M123.804 123.241C139.358 119.662 149.593 106.447 146.665 93.7235C143.738 81 128.756 73.5865 113.203 77.165C97.6498 80.7436 87.4147 93.959 90.3422 106.682C93.2696 119.406 108.251 126.819 123.804 123.241Z" fill="#AD6946"/>
<path d="M124.11 132.183C139.763 128.581 150.08 115.347 147.152 102.623C144.225 89.8998 129.162 82.505 113.508 86.1066C97.8547 89.7082 87.5382 102.942 90.4657 115.666C93.3932 128.389 108.456 135.784 124.11 132.183Z" fill="#945339"/>
<path d="M98.7626 111.762C107.335 124.317 138.272 128.765 149.36 104.913C149.57 102.563 149.408 100.177 148.872 97.794C148.489 96.0437 147.883 94.4065 147.166 92.8445C144.259 86.5221 138.863 81.7799 132.511 79.5041C128.102 77.9258 123.178 77.5435 118.3 78.6525L109.288 80.7171C104.373 81.8635 100.136 84.3485 96.8364 87.6858C95.65 88.8857 94.5763 90.2341 93.6522 91.6563C92.7066 95.8751 92.672 102.923 98.7626 111.762Z" fill="#ECD09C"/>
<path d="M98.7618 111.763C92.7082 102.885 92.7058 95.8754 93.6888 91.6936C93.6149 91.8059 93.5039 91.9557 93.4299 92.068C90.3627 96.9327 88.9419 102.832 89.7217 108.831C89.8382 109.651 89.992 110.47 90.146 111.327C93.281 124.993 104.854 134.1 125.112 129.474C133.64 127.524 140.363 123.011 144.545 117.32C147.283 113.613 148.937 109.353 149.322 104.951C138.233 128.766 107.334 124.317 98.7618 111.763Z" fill="#DCBD8A"/>
<path d="M123.151 105.807C122.853 105.809 122.628 105.587 122.589 105.326C121.533 96.6065 119.007 91.6617 118.969 91.6246C118.819 91.3644 118.929 91.0282 119.226 90.8774C119.486 90.7268 119.822 90.8367 119.973 91.1342C120.086 91.3573 122.613 96.3021 123.707 105.208C123.746 105.506 123.524 105.805 123.226 105.844C123.188 105.807 123.151 105.807 123.151 105.807Z" fill="#43281F"/>
<path d="M102.181 83.5545C99.9881 84.8347 98.281 86.2613 96.835 87.7237C98.1133 89.5808 99.6882 91.138 101.522 92.358C105.527 95.02 110.79 95.997 117.195 94.5064C120.025 93.8565 122.48 92.8359 124.524 91.5565C110.141 93.3905 104.403 87.4944 102.181 83.5545Z" fill="#43281F"/>
<path d="M129.864 86.3816C131.232 84.3231 132.077 82.0065 132.51 79.5058C128.101 77.9274 123.174 77.0232 113.194 79.317C108.576 80.3872 105.005 81.8616 102.181 83.5556C104.403 87.4954 110.179 93.3913 124.524 91.5948C126.791 90.1651 128.571 88.4025 129.864 86.3816Z" fill="#5C392B"/>
<path d="M108.516 82.8476C108.888 82.659 109.223 82.4707 109.595 82.3194C109.967 82.1682 110.339 82.0169 110.674 81.8659C111.418 81.6006 112.162 81.3354 112.907 81.1447C114.396 80.7261 115.96 80.419 117.525 80.2237C119.09 80.0284 120.693 79.982 122.297 80.0475C123.901 80.1503 125.506 80.4395 127.075 80.9899C127.822 81.2466 128.2 82.0648 127.943 82.812C127.76 83.3724 127.24 83.7109 126.718 83.7512L126.643 83.7516C125.189 83.8344 123.81 83.9168 122.394 84.0367C120.978 84.1566 119.562 84.3137 118.108 84.4711L113.786 85.0176L111.588 85.2911C111.215 85.3305 110.843 85.3699 110.47 85.4093C110.097 85.4487 109.725 85.4881 109.389 85.5273L109.315 85.5277C108.532 85.5694 107.857 84.9767 107.816 84.1939C107.738 83.635 108.033 83.1113 108.516 82.8476Z" fill="white"/>
<path d="M127.944 115.998C127.278 116.897 126.387 117.611 125.122 118.102C122.89 119.01 117.852 118.218 114.762 112.605C114.649 112.382 114.499 112.159 114.386 111.936C111.862 107.402 110.246 105.174 110.246 105.174C110.246 105.174 122.979 108.308 130.099 101.407C130.099 101.407 129.673 105.175 129.58 108.644C129.524 111.925 129.165 114.314 127.944 115.998Z" fill="#43281F"/>
<path d="M127.945 115.997C127.279 116.896 126.388 117.609 125.123 118.101C122.891 119.009 117.852 118.217 114.763 112.604C114.65 112.381 114.5 112.158 114.386 111.935C115.206 111.744 116.174 111.59 117.181 111.509C120.2 111.306 123.857 111.882 126.932 114.884C127.306 115.218 127.644 115.589 127.945 115.997Z" fill="#C45D69"/>
<path d="M126.969 114.884C125.944 118.32 118.704 117.243 117.34 113.41C117.037 112.554 117.071 111.92 117.217 111.471C120.237 111.305 123.894 111.881 126.969 114.884Z" fill="#D67679"/>
<path d="M117.376 106.438C111.82 106.469 107.186 104.594 106.924 104.484C106.625 104.373 106.512 104.038 106.622 103.74C106.732 103.441 107.067 103.327 107.366 103.437C107.441 103.474 115.401 106.71 122.735 104.58C128.952 102.793 131.207 99.3495 131.244 99.312C131.391 99.0501 131.764 98.9735 132.026 99.1584C132.288 99.3061 132.364 99.6785 132.217 99.9404C132.106 100.09 129.74 103.758 123.077 105.697C121.14 106.193 119.203 106.428 117.376 106.438Z" fill="#43281F"/>
<path d="M32.2276 221.281C20.663 226.865 8.90816 225.216 2.94777 219.619C1.09857 215.715 0.853723 211.987 1.54293 208.59C2.8493 202.244 7.59253 197.034 11.7517 194.028C19.1786 188.654 28.1933 180.511 40.8436 169.104C45.3694 165.014 49.6004 161.523 53.3127 158.63C54.9461 157.353 56.5056 156.189 57.9538 155.136C57.9538 155.136 67.322 150.161 67.6801 160.712C68.0411 171.784 56.1008 209.773 32.2276 221.281Z" fill="#AD6946"/>
<path d="M51.7526 192.645C38.6136 216.508 4.31041 223.265 1.54255 208.59C2.84892 202.244 7.59216 197.034 11.7513 194.027C19.1783 188.653 28.1929 180.511 40.8432 169.104C45.3691 165.014 49.6 161.522 53.3123 158.63C53.3123 158.63 57.9971 156.254 59.9037 157.138C66.1851 160.16 66.7371 165.452 51.7526 192.645Z" fill="#B6724D"/>
<path d="M124.763 219.004C123.946 226.242 120.61 236.366 109.696 244.78C109.25 245.118 108.767 245.457 108.322 245.795C91.1122 255.4 74.2425 252.588 62.3139 240.015C60.8883 238.494 59.4995 236.861 58.2214 235.042C50.1032 223.715 49.3888 209.513 54.8808 198.258C55.3598 197.249 55.9136 196.276 56.5049 195.34C58.2783 192.459 60.5005 189.799 63.1724 187.547C64.1372 186.721 65.1395 185.932 66.1795 185.218C79.4382 175.896 97.9651 175.045 110.814 185.487C114.859 188.745 117.712 192.16 119.744 195.392C120.007 195.764 120.233 196.135 120.422 196.544C121.514 198.402 122.307 200.15 122.912 201.75C123.026 202.085 123.177 202.457 123.291 202.792C123.405 203.127 123.519 203.462 123.595 203.76C123.747 204.244 123.861 204.691 123.976 205.137C124.014 205.324 124.052 205.473 124.09 205.622C124.626 208.042 124.635 209.571 124.635 209.645C124.561 209.646 125.402 213.444 124.763 219.004Z" fill="#B6724D"/>
<path d="M124.767 219.749C123.766 227.473 120.053 236.816 109.695 244.779C109.25 245.118 108.767 245.456 108.321 245.794C91.1119 255.4 74.2421 252.587 62.3135 240.014C60.888 238.494 59.4991 236.861 58.221 235.041C50.1028 223.714 49.3884 209.512 54.8804 198.257C54.3781 201.728 54.4376 205.643 55.0192 209.592C56.5694 219.949 61.9257 230.806 71.3919 236.532C76.8919 239.857 83.7989 241.421 92.1813 240.143C92.7029 240.066 93.1872 239.988 93.7085 239.874C102.238 238.222 108.4 233.414 112.655 227.461C118.463 219.337 120.791 209.107 120.862 201.873C120.887 199.785 120.691 197.959 120.384 196.507C121.476 198.365 122.269 200.113 122.875 201.713C123.026 202.047 123.14 202.42 123.253 202.755C123.367 203.089 123.481 203.424 123.557 203.722C123.709 204.206 123.823 204.653 123.938 205.1C123.976 205.286 124.014 205.435 124.052 205.584C124.627 208.265 125.589 213.517 124.767 219.749Z" fill="#AD6946"/>
<path d="M72.7212 194.689C64.8491 200.476 61.0983 209.744 62.0073 218.8C62.0856 219.471 62.1638 220.104 62.2795 220.775C63.1902 223.566 64.5479 226.28 66.3891 228.768C75.6706 241.393 93.4345 244.089 106.022 234.808C108.287 233.117 110.252 231.167 111.881 229.032C116.605 220.429 116.394 209.58 110.492 201.037C110.341 200.815 110.191 200.592 110.003 200.369C101.248 188.487 84.5664 185.971 72.7212 194.689Z" fill="#ECD09C"/>
<path d="M92.4581 229.775C92.0861 229.927 91.6757 229.892 91.3389 229.67L76.818 220.244C75.0215 219.061 73.743 217.167 73.2836 215.044C72.8616 212.958 73.2599 210.868 74.4433 209.146C76.8471 205.627 81.6887 204.63 85.2442 206.959L87.9012 208.659L89.3804 206.488C90.5634 204.692 92.4953 203.45 94.6183 203.028C96.7042 202.644 98.7948 203.079 100.517 204.263C103.998 206.704 104.921 211.546 102.554 215.102L93.0149 229.325C92.8297 229.55 92.6441 229.7 92.4581 229.775ZM91.967 228.66L91.6344 229.184L91.967 228.66ZM78.3859 207.408C77.2328 207.9 76.1932 208.689 75.4166 209.812C74.4181 211.271 74.0924 213.026 74.4382 214.814C74.8214 216.638 75.9118 218.236 77.4462 219.234L91.967 228.66L101.507 214.436C103.503 211.442 102.734 207.308 99.7767 205.274C98.3541 204.275 96.5623 203.912 94.8115 204.22C92.9864 204.566 91.3517 205.62 90.3537 207.154L88.5789 209.811C88.394 210.074 88.0216 210.15 87.7595 209.965L84.6159 207.932C82.7075 206.75 80.3576 206.614 78.3859 207.408Z" fill="#C59F6D"/>
<path d="M110.454 201.038C116.357 209.581 116.605 220.467 111.843 229.033C110.035 232.324 107.516 235.247 104.285 237.614C92.4402 246.332 75.7213 243.817 67.0033 231.934C64.4857 228.518 62.898 224.687 62.2044 220.738C62.0888 220.067 62.0106 219.434 61.9322 218.763C65.9647 226.31 75.8068 239.155 94.3001 232.376C110.71 226.354 113.306 210.716 110.454 201.038Z" fill="#DCBD8A"/>
<path d="M66.3891 228.768C64.5479 226.28 63.1902 223.566 62.2795 220.774C62.9728 224.686 64.5606 228.517 67.0784 231.971C75.7962 243.816 92.478 246.369 104.361 237.651C107.591 235.283 110.11 232.323 111.918 229.069C110.29 231.204 108.362 233.154 106.06 234.845C93.3973 244.089 75.6706 241.393 66.3891 228.768Z" fill="#C59F6D"/>
<path d="M124.766 219.749C124.764 219.488 124.763 219.227 124.761 218.966C124.655 213.336 123.279 207.378 120.861 201.873C114.969 188.558 100.108 178.276 85.1663 180.188C61.5061 183.23 53.866 203.632 53.4377 213.591C52.8446 227.353 62.2383 240.052 62.4246 240.014C62.4246 240.014 62.3873 240.014 62.2756 240.052C60.8501 238.531 59.4612 236.898 58.1831 235.078C50.0649 223.752 49.2758 209.513 54.8425 198.295C67.1191 173.578 95.8619 172.595 110.623 184.891C114.631 188.224 117.674 192.159 119.706 195.354C119.969 195.726 120.195 196.097 120.383 196.507C121.475 198.365 122.268 200.113 122.874 201.713C123.025 202.047 123.139 202.42 123.253 202.755C123.366 203.089 123.48 203.424 123.556 203.722C123.708 204.206 123.823 204.653 123.937 205.1C123.975 205.286 124.013 205.435 124.052 205.584C124.626 208.265 125.588 213.517 124.766 219.749Z" fill="#D59A77"/>
<path d="M57.9164 155.174C57.9164 155.174 39.8941 172.689 29.1746 182.668C14.3753 196.474 3.29404 201.831 5.71808 215.055C7.98727 227.272 15.9512 231.105 22.9329 232.706C16.6661 232.256 10.725 230.053 6.59585 225.192C4.98178 223.299 3.77806 221.442 2.94741 219.619C1.09821 215.715 0.853362 211.987 1.54257 208.59C2.84894 202.244 7.59217 197.034 11.7513 194.028C19.1783 188.653 28.1929 180.511 40.8432 169.104C45.3691 165.014 49.6 161.522 53.3123 158.63C54.946 157.391 56.4681 156.226 57.9164 155.174Z" fill="#D59A77"/>
<path d="M224.243 212.287C221.237 227.928 210.4 236.863 197.066 239.474C188.945 240.937 175.533 236.278 176.232 214.983C176.232 214.983 189.101 242.092 211.618 221.531C230.499 204.272 182.234 195.038 182.234 195.038C182.234 195.038 184.687 180.37 195.643 172.738C198.874 170.483 201.888 169.273 204.607 168.698C208.152 169.312 211.291 170.524 213.986 172.262C224.091 178.841 227.974 192.989 224.243 212.287Z" fill="#B6724D"/>
<path d="M204.809 178.205C197.679 176.753 190.429 180.486 185.508 187.263C185.138 187.75 184.805 188.274 184.473 188.798C183.257 191.303 182.34 194.104 181.723 197.054C178.713 211.948 185.578 225.892 197.038 228.213C199.091 228.612 201.18 228.637 203.228 228.29C210.522 225.676 216.818 218.146 219.037 208.327C219.11 208.065 219.146 207.804 219.219 207.542C222.01 193.469 215.56 180.381 204.809 178.205Z" fill="#ECD09C"/>
<path d="M219.037 208.251C216.819 218.07 210.56 225.6 203.229 228.214C200.438 229.2 197.494 229.477 194.582 228.897C183.794 226.721 177.344 213.633 180.172 199.597C180.97 195.565 182.478 191.865 184.473 188.722C184.806 188.198 185.139 187.674 185.509 187.187C182.981 195.069 180.122 210.522 192.92 218.504C204.258 225.636 214.686 216.777 219.037 208.251Z" fill="#DCBD8A"/>
<path d="M181.761 197.015C182.341 194.066 183.295 191.302 184.511 188.759C182.515 191.903 181.044 195.565 180.21 199.634C177.381 213.633 183.831 226.759 194.619 228.935C197.531 229.515 200.475 229.237 203.266 228.252C201.217 228.599 199.167 228.611 197.076 228.175C185.616 225.854 178.75 211.91 181.761 197.015Z" fill="#C59F6D"/>
<path d="M207.971 216.331C207.784 216.333 207.598 216.296 207.411 216.185L200.675 211.861L193.35 215.482C193.164 215.595 192.903 215.597 192.679 215.561C192.492 215.524 192.343 215.451 192.23 215.339C191.93 215.08 191.816 214.671 191.889 214.297L193.854 205.896L188.561 199.625C188.299 199.328 188.259 198.918 188.369 198.545C188.516 198.171 188.85 197.908 189.26 197.868L197.235 197.04L201.331 189.522C201.515 189.148 201.924 188.96 202.297 188.958C202.708 188.992 203.045 189.252 203.196 189.624L206.149 197.474L213.951 199.108C214.324 199.181 214.662 199.514 214.739 199.887C214.815 200.259 214.706 200.67 214.409 200.933L208.252 206.635L208.971 215.17C209.011 215.58 208.826 215.954 208.492 216.179C208.381 216.292 208.195 216.33 207.971 216.331ZM200.705 210.705C200.817 210.704 200.892 210.741 201.004 210.778L207.927 215.213L207.169 206.418C207.168 206.268 207.204 206.082 207.353 205.969L213.733 200.079L205.707 198.409C205.52 198.373 205.37 198.262 205.332 198.076L202.303 190.039L198.096 197.707C198.022 197.856 197.874 197.969 197.687 197.97L189.415 198.837L194.895 205.331C195.008 205.443 195.046 205.629 195.01 205.815L192.971 214.44L200.482 210.744C200.556 210.706 200.631 210.705 200.705 210.705Z" fill="#C59F6D"/>
<path d="M197.895 168.773C194.765 169.201 191.646 171.456 191.646 171.456C200.65 168.087 211.177 170.078 217.259 177.538C230.101 193.35 221.409 225.466 212.203 232.826C218.18 228.206 222.243 221.322 224.28 212.325C229.41 189.774 221.255 165.472 197.895 168.773Z" fill="#D59A77"/>
<path d="M170.278 197.304C170.278 197.304 160.739 244.489 195.611 239.482C195.649 239.482 165.208 243.495 170.278 197.304Z" fill="#B6724D"/>
<path d="M105.111 166.502C105.111 166.502 117.461 161.324 122.655 150.034L126.751 149.004C126.751 149.004 137.365 159.981 151.077 158.225L146.641 151.799C146.641 151.799 129.874 147.457 129.576 147.459C129.277 147.461 123.427 148.053 123.427 148.053L111.03 151.628L101.927 163.947L105.111 166.502Z" fill="#945339"/>
<path d="M89.5387 135.792C88.685 136.468 88.0939 137.441 87.9886 138.597L89.926 138.325L89.5387 135.792Z" fill="white"/>
<path d="M92.1436 134.881C91.2861 134.886 90.4672 135.152 89.7986 135.603L92.183 135.254L92.1436 134.881Z" fill="#71495A"/>
<path d="M93.6729 135.022C93.3371 134.986 93.0013 134.951 92.6281 134.878C92.4787 134.842 92.2923 134.843 92.1431 134.844L92.1825 135.216L93.6729 135.022Z" fill="#D8BFB4"/>
<path d="M92.6081 137.935L92.22 135.253L89.8356 135.602C89.7614 135.677 89.6498 135.715 89.5757 135.79L89.9629 138.323L92.6081 137.935Z" fill="#D8BFB4"/>
<path d="M92.6081 137.936L95.2906 137.548L94.9417 135.201C94.5311 135.129 94.1208 135.094 93.6729 135.022L92.1827 135.254L92.6081 137.936Z" fill="white"/>
<path d="M97.9358 137.123L97.7036 135.633C96.8077 135.451 95.8747 135.308 94.9046 135.201L95.2535 137.548L97.9358 137.123Z" fill="#D8BFB4"/>
<path d="M100.617 136.736L100.54 136.214C99.6438 135.996 98.6733 135.815 97.7028 135.634L97.935 137.124L100.617 136.736Z" fill="white"/>
<path d="M101.96 136.542C101.512 136.432 101.026 136.323 100.578 136.214L100.656 136.735L101.96 136.542Z" fill="#D8BFB4"/>
<path d="M143.385 129.893C142.976 130.119 142.604 130.345 142.233 130.571L143.462 130.377L143.385 129.893Z" fill="white"/>
<path d="M146.144 129.99L145.913 128.537C145.02 128.99 144.202 129.442 143.385 129.894L143.462 130.378L146.144 129.99Z" fill="#D8BFB4"/>
<path d="M148.827 129.563L148.478 127.253C147.586 127.668 146.73 128.083 145.912 128.498L146.144 129.951L148.827 129.563Z" fill="white"/>
<path d="M151.046 126.157C150.897 126.195 150.785 126.233 150.636 126.309C150.302 126.46 150.004 126.573 149.669 126.724L151.085 126.53L151.046 126.157Z" fill="#71495A"/>
<path d="M153.543 126.144C152.759 125.887 151.864 125.892 151.045 126.158L151.085 126.53L153.543 126.144Z" fill="#D8BFB4"/>
<path d="M151.51 129.175L151.122 126.493L149.706 126.687C149.297 126.876 148.888 127.065 148.479 127.254L148.828 129.563L151.51 129.175Z" fill="#D8BFB4"/>
<path d="M151.51 129.176L154.192 128.788L153.805 126.218C153.73 126.181 153.655 126.144 153.581 126.144L151.122 126.494L151.51 129.176Z" fill="white"/>
<path d="M156.166 128.478C155.713 127.399 154.813 126.584 153.804 126.217L154.192 128.787L156.166 128.478Z" fill="#D8BFB4"/>
<path d="M89.9255 138.324L87.9881 138.596C87.9884 138.633 87.9886 138.67 87.9886 138.67C87.9184 139.454 87.8489 140.349 87.8173 141.356L90.3134 140.969L89.9255 138.324Z" fill="#D8BFB4"/>
<path d="M87.8235 142.551C87.8263 143.035 87.8295 143.595 87.8324 144.117L88.0559 144.078L87.8235 142.551Z" fill="#D8BFB4"/>
<path d="M90.7017 143.69L90.3136 141.007L87.8175 141.394C87.8196 141.767 87.7845 142.14 87.7868 142.55L88.0192 144.078L90.7017 143.69Z" fill="white"/>
<path d="M92.6355 137.946L89.943 138.346L90.3431 141.038L93.0356 140.638L92.6355 137.946Z" fill="#71495A"/>
<path d="M95.2767 137.524L92.5842 137.924L92.9844 140.616L95.6769 140.216L95.2767 137.524Z" fill="#D8BFB4"/>
<path d="M93.0248 140.627L90.3323 141.027L90.7325 143.72L93.425 143.32L93.0248 140.627Z" fill="#D8BFB4"/>
<path d="M95.7031 140.202L93.0106 140.603L93.4108 143.295L96.1032 142.895L95.7031 140.202Z" fill="white"/>
<path d="M97.9634 137.132L95.2709 137.532L95.671 140.225L98.3635 139.825L97.9634 137.132Z" fill="#71495A"/>
<path d="M100.645 136.747L97.9525 137.147L98.3526 139.84L101.045 139.44L100.645 136.747Z" fill="#D8BFB4"/>
<path d="M98.3864 139.814L95.694 140.214L96.0941 142.906L98.7866 142.506L98.3864 139.814Z" fill="#D8BFB4"/>
<path d="M101.034 139.43L98.3418 139.83L98.7419 142.523L101.434 142.122L101.034 139.43Z" fill="white"/>
<path d="M101.043 139.419L103.725 139.03L103.415 136.944C102.93 136.835 102.444 136.689 101.959 136.58L100.655 136.773L101.043 139.419Z" fill="#71495A"/>
<path d="M106.371 138.643L106.254 137.786C105.357 137.492 104.386 137.2 103.378 136.944L103.688 139.031L106.371 138.643Z" fill="#D8BFB4"/>
<path d="M103.718 139.041L101.025 139.441L101.425 142.134L104.118 141.734L103.718 139.041Z" fill="#D8BFB4"/>
<path d="M106.397 138.615L103.704 139.015L104.104 141.707L106.797 141.307L106.397 138.615Z" fill="white"/>
<path d="M108.084 138.372C107.487 138.151 106.889 137.968 106.254 137.748L106.371 138.605L108.084 138.372Z" fill="#71495A"/>
<path d="M106.796 141.287L109.479 140.899L109.168 138.738C108.832 138.591 108.458 138.481 108.122 138.334L106.445 138.567L106.796 141.287Z" fill="#D8BFB4"/>
<path d="M112.124 140.511L112.046 139.952C111.149 139.547 110.177 139.142 109.131 138.775L109.441 140.936L112.124 140.511Z" fill="white"/>
<path d="M113.018 140.356C112.719 140.209 112.383 140.061 112.046 139.914L112.124 140.473L113.018 140.356Z" fill="#D8BFB4"/>
<path d="M133.468 136.811C133.208 137.036 132.986 137.261 132.726 137.449L133.545 137.333L133.468 136.811Z" fill="white"/>
<path d="M138.368 133.016C137.848 133.392 137.366 133.73 136.883 134.106L138.522 133.873L138.368 133.016Z" fill="#D8BFB4"/>
<path d="M136.228 136.906L135.918 134.782C135.026 135.458 134.247 136.134 133.468 136.772L133.545 137.294L136.228 136.906Z" fill="#D8BFB4"/>
<path d="M138.911 136.518L138.523 133.836L136.884 134.069C136.549 134.294 136.215 134.557 135.918 134.783L136.229 136.906L138.911 136.518Z" fill="white"/>
<path d="M141.206 133.447L140.896 131.361C140.041 131.925 139.187 132.452 138.407 133.016L138.524 133.835L141.206 133.447Z" fill="#71495A"/>
<path d="M143.85 133.06L143.462 130.377L142.232 130.57C141.786 130.834 141.34 131.098 140.894 131.398L141.205 133.485L143.85 133.06Z" fill="#D8BFB4"/>
<path d="M141.197 133.458L138.505 133.858L138.905 136.551L141.597 136.151L141.197 133.458Z" fill="#D8BFB4"/>
<path d="M143.88 133.07L141.188 133.47L141.588 136.162L144.28 135.762L143.88 133.07Z" fill="white"/>
<path d="M146.171 129.96L143.478 130.36L143.878 133.053L146.571 132.653L146.171 129.96Z" fill="#71495A"/>
<path d="M148.855 129.571L146.162 129.971L146.562 132.663L149.255 132.263L148.855 129.571Z" fill="#D8BFB4"/>
<path d="M146.559 132.643L143.867 133.043L144.267 135.735L146.96 135.335L146.559 132.643Z" fill="#D8BFB4"/>
<path d="M149.243 132.255L146.55 132.655L146.95 135.348L149.643 134.948L149.243 132.255Z" fill="white"/>
<path d="M151.538 129.181L148.846 129.581L149.246 132.274L151.939 131.873L151.538 129.181Z" fill="#71495A"/>
<path d="M154.224 128.79L151.531 129.19L151.931 131.883L154.624 131.483L154.224 128.79Z" fill="#D8BFB4"/>
<path d="M151.926 131.866L149.234 132.267L149.634 134.959L152.327 134.559L151.926 131.866Z" fill="#D8BFB4"/>
<path d="M154.611 131.478L151.918 131.878L152.318 134.57L155.011 134.17L154.611 131.478Z" fill="white"/>
<path d="M154.58 131.47L157.15 131.083C156.847 130.152 156.506 129.296 156.241 128.552C156.241 128.515 156.204 128.515 156.204 128.478L154.192 128.788L154.58 131.47Z" fill="#71495A"/>
<path d="M154.967 134.154L157.65 133.766L157.34 131.791C157.265 131.568 157.189 131.344 157.113 131.121L154.542 131.509L154.967 134.154Z" fill="#D8BFB4"/>
<path d="M157.911 133.689C157.721 133.019 157.531 132.348 157.341 131.753L157.65 133.727L157.911 133.689Z" fill="white"/>
<path d="M88.0561 144.078L87.8326 144.116C87.8375 144.974 87.9171 145.868 87.9599 146.838L88.4442 146.76L88.0561 144.078Z" fill="#71495A"/>
<path d="M90.7309 143.7L88.0384 144.101L88.4385 146.793L91.131 146.393L90.7309 143.7Z" fill="#D8BFB4"/>
<path d="M88.445 146.76L87.9607 146.837C88.0401 147.694 88.1198 148.589 88.1996 149.521L88.7958 149.443L88.445 146.76Z" fill="#D8BFB4"/>
<path d="M91.1555 146.38L88.463 146.78L88.8632 149.473L91.5556 149.073L91.1555 146.38Z" fill="white"/>
<path d="M93.4081 143.275L90.7156 143.675L91.1158 146.367L93.8083 145.967L93.4081 143.275Z" fill="#71495A"/>
<path d="M96.0912 142.887L93.3987 143.287L93.7988 145.98L96.4913 145.579L96.0912 142.887Z" fill="#D8BFB4"/>
<path d="M93.7964 145.959L91.1039 146.359L91.5041 149.052L94.1966 148.652L93.7964 145.959Z" fill="#D8BFB4"/>
<path d="M96.4813 145.57L93.7888 145.97L94.189 148.662L96.8814 148.262L96.4813 145.57Z" fill="white"/>
<path d="M98.7755 142.496L96.0831 142.896L96.4832 145.589L99.1757 145.189L98.7755 142.496Z" fill="#71495A"/>
<path d="M101.46 142.109L98.7674 142.509L99.1675 145.201L101.86 144.801L101.46 142.109Z" fill="#D8BFB4"/>
<path d="M99.1654 145.181L96.4729 145.581L96.873 148.274L99.5655 147.873L99.1654 145.181Z" fill="#D8BFB4"/>
<path d="M101.849 144.792L99.1567 145.192L99.5569 147.885L102.249 147.485L101.849 144.792Z" fill="white"/>
<path d="M104.139 141.682L101.446 142.082L101.846 144.775L104.539 144.374L104.139 141.682Z" fill="#71495A"/>
<path d="M106.785 141.298L104.093 141.698L104.493 144.391L107.186 143.991L106.785 141.298Z" fill="#D8BFB4"/>
<path d="M104.528 144.365L101.836 144.766L102.236 147.458L104.928 147.058L104.528 144.365Z" fill="#D8BFB4"/>
<path d="M107.211 143.978L104.519 144.378L104.919 147.07L107.611 146.67L107.211 143.978Z" fill="white"/>
<path d="M109.469 140.91L106.777 141.311L107.177 144.003L109.869 143.603L109.469 140.91Z" fill="#71495A"/>
<path d="M112.152 140.521L109.46 140.921L109.86 143.613L112.552 143.213L112.152 140.521Z" fill="#D8BFB4"/>
<path d="M109.896 143.586L107.204 143.986L107.604 146.679L110.297 146.279L109.896 143.586Z" fill="#D8BFB4"/>
<path d="M112.537 143.168L109.844 143.568L110.245 146.261L112.937 145.861L112.537 143.168Z" fill="white"/>
<path d="M112.549 143.193L115.231 142.804L114.999 141.352C114.364 141.02 113.728 140.725 113.018 140.393L112.124 140.51L112.549 143.193Z" fill="#71495A"/>
<path d="M117.132 142.496C116.496 142.126 115.748 141.72 115 141.314L115.232 142.767L117.132 142.496Z" fill="#D8BFB4"/>
<path d="M115.22 142.779L112.528 143.179L112.928 145.871L115.621 145.471L115.22 142.779Z" fill="#D8BFB4"/>
<path d="M115.619 145.449L118.302 145.061L117.992 142.975C117.73 142.827 117.431 142.643 117.169 142.495L115.231 142.767L115.619 145.449Z" fill="white"/>
<path d="M120.612 144.713C119.938 144.232 119.077 143.641 117.992 142.976L118.302 145.062L120.612 144.713Z" fill="#D8BFB4"/>
<path d="M128.685 141.461C127.87 142.361 127.24 143.185 126.722 143.822L128.957 143.473L128.685 141.461Z" fill="white"/>
<path d="M131.057 138.988C130.464 139.588 129.908 140.15 129.389 140.675L131.252 140.403L131.057 138.988Z" fill="#71495A"/>
<path d="M133.934 140.014L133.546 137.332L132.726 137.448C132.132 137.973 131.576 138.499 131.057 138.986L131.251 140.402L133.934 140.014Z" fill="#D8BFB4"/>
<path d="M131.676 143.085L131.288 140.402L129.425 140.674C129.166 140.936 128.944 141.199 128.721 141.461L129.031 143.473L131.676 143.085Z" fill="#D8BFB4"/>
<path d="M133.96 139.989L131.267 140.389L131.668 143.081L134.36 142.681L133.96 139.989Z" fill="white"/>
<path d="M136.255 136.915L133.563 137.315L133.963 140.008L136.656 139.608L136.255 136.915Z" fill="#71495A"/>
<path d="M138.939 136.526L136.246 136.926L136.646 139.618L139.339 139.218L138.939 136.526Z" fill="#D8BFB4"/>
<path d="M136.644 139.599L133.951 139.999L134.351 142.691L137.044 142.291L136.644 139.599Z" fill="#D8BFB4"/>
<path d="M139.328 139.21L136.635 139.61L137.036 142.303L139.728 141.903L139.328 139.21Z" fill="white"/>
<path d="M141.623 136.137L138.93 136.537L139.331 139.23L142.023 138.829L141.623 136.137Z" fill="#71495A"/>
<path d="M144.302 135.71L141.61 136.11L142.01 138.803L144.702 138.403L144.302 135.71Z" fill="#D8BFB4"/>
<path d="M142.011 138.821L139.319 139.221L139.719 141.913L142.412 141.513L142.011 138.821Z" fill="#D8BFB4"/>
<path d="M144.691 138.396L141.998 138.796L142.398 141.488L145.091 141.088L144.691 138.396Z" fill="white"/>
<path d="M146.948 135.328L144.256 135.729L144.656 138.421L147.348 138.021L146.948 135.328Z" fill="#71495A"/>
<path d="M149.632 134.939L146.94 135.339L147.34 138.031L150.032 137.631L149.632 134.939Z" fill="#D8BFB4"/>
<path d="M147.374 138.006L144.682 138.406L145.082 141.099L147.774 140.699L147.374 138.006Z" fill="#D8BFB4"/>
<path d="M150.058 137.617L147.365 138.018L147.765 140.71L150.458 140.31L150.058 137.617Z" fill="white"/>
<path d="M152.316 134.55L149.624 134.95L150.024 137.643L152.716 137.243L152.316 134.55Z" fill="#71495A"/>
<path d="M154.994 134.124L152.302 134.524L152.702 137.217L155.394 136.817L154.994 134.124Z" fill="#D8BFB4"/>
<path d="M152.705 137.234L150.013 137.634L150.413 140.326L153.105 139.926L152.705 137.234Z" fill="#D8BFB4"/>
<path d="M155.383 136.808L152.691 137.208L153.091 139.9L155.783 139.5L155.383 136.808Z" fill="white"/>
<path d="M157.678 133.735L154.986 134.135L155.386 136.827L158.079 136.427L157.678 133.735Z" fill="#71495A"/>
<path d="M158.038 136.41L158.56 136.333C158.331 135.402 158.139 134.508 157.911 133.689L157.65 133.728L158.038 136.41Z" fill="#D8BFB4"/>
<path d="M158.069 136.417L155.377 136.817L155.777 139.51L158.469 139.11L158.069 136.417Z" fill="#D8BFB4"/>
<path d="M158.464 139.091L159.134 138.975C158.98 138.044 158.789 137.15 158.597 136.331L158.076 136.409L158.464 139.091Z" fill="white"/>
<path d="M88.8321 149.443L88.2359 149.521C88.3526 150.378 88.4695 151.272 88.5867 152.204L89.2201 152.125L88.8321 149.443Z" fill="#71495A"/>
<path d="M91.5387 149.027L88.8463 149.427L89.2464 152.119L91.9389 151.719L91.5387 149.027Z" fill="#D8BFB4"/>
<path d="M89.2203 152.125L88.5869 152.203C88.625 152.352 88.6257 152.464 88.6638 152.613C88.7801 153.396 88.8964 154.178 89.0123 154.886L89.6457 154.808L89.2203 152.125Z" fill="#D8BFB4"/>
<path d="M91.9283 151.711L89.2358 152.111L89.636 154.804L92.3285 154.404L91.9283 151.711Z" fill="white"/>
<path d="M94.2239 148.638L91.5314 149.038L91.9315 151.731L94.624 151.33L94.2239 148.638Z" fill="#71495A"/>
<path d="M96.9064 148.249L94.2139 148.649L94.6141 151.342L97.3066 150.942L96.9064 148.249Z" fill="#D8BFB4"/>
<path d="M94.6119 151.322L91.9194 151.722L92.3196 154.414L95.0121 154.014L94.6119 151.322Z" fill="#D8BFB4"/>
<path d="M97.2965 150.932L94.6041 151.332L95.0042 154.025L97.6967 153.624L97.2965 150.932Z" fill="white"/>
<path d="M99.5529 147.865L96.8605 148.266L97.2606 150.958L99.9531 150.558L99.5529 147.865Z" fill="#71495A"/>
<path d="M102.234 147.438L99.5415 147.838L99.9416 150.53L102.634 150.13L102.234 147.438Z" fill="#D8BFB4"/>
<path d="M99.9796 150.543L97.2871 150.943L97.6873 153.636L100.38 153.236L99.9796 150.543Z" fill="#D8BFB4"/>
<path d="M102.658 150.117L99.9659 150.518L100.366 153.21L103.059 152.81L102.658 150.117Z" fill="white"/>
<path d="M104.916 147.05L102.224 147.45L102.624 150.143L105.316 149.743L104.916 147.05Z" fill="#71495A"/>
<path d="M107.6 146.661L104.907 147.062L105.308 149.754L108 149.354L107.6 146.661Z" fill="#D8BFB4"/>
<path d="M105.305 149.735L102.612 150.135L103.012 152.827L105.705 152.427L105.305 149.735Z" fill="#D8BFB4"/>
<path d="M107.988 149.346L105.296 149.746L105.696 152.439L108.389 152.038L107.988 149.346Z" fill="white"/>
<path d="M110.284 146.273L107.591 146.673L107.991 149.365L110.684 148.965L110.284 146.273Z" fill="#71495A"/>
<path d="M112.964 145.845L110.272 146.245L110.672 148.938L113.364 148.537L112.964 145.845Z" fill="#D8BFB4"/>
<path d="M110.667 148.92L107.974 149.32L108.374 152.013L111.067 151.613L110.667 148.92Z" fill="#D8BFB4"/>
<path d="M113.351 148.531L110.659 148.931L111.059 151.623L113.751 151.223L113.351 148.531Z" fill="white"/>
<path d="M115.645 145.457L112.953 145.857L113.353 148.55L116.046 148.15L115.645 145.457Z" fill="#71495A"/>
<path d="M118.293 145.074L115.601 145.475L116.001 148.167L118.693 147.767L118.293 145.074Z" fill="#D8BFB4"/>
<path d="M116.036 148.141L113.344 148.541L113.744 151.233L116.436 150.833L116.036 148.141Z" fill="#D8BFB4"/>
<path d="M118.719 147.752L116.027 148.152L116.427 150.845L119.119 150.445L118.719 147.752Z" fill="white"/>
<path d="M118.691 147.744L121.038 147.395L120.767 145.569C120.728 145.346 120.801 145.122 120.912 144.935C120.8 144.861 120.725 144.786 120.613 144.712L118.303 145.061L118.691 147.744Z" fill="#71495A"/>
<path d="M118.689 147.745L119.077 150.427L121.424 150.078L121.113 147.843L121.036 147.396L118.689 147.745Z" fill="#D8BFB4"/>
<path d="M127.025 144.64L127.296 146.466L129.42 146.155L129.032 143.473L126.796 143.821C126.722 143.896 126.685 143.971 126.648 144.046C126.798 144.157 126.986 144.379 127.025 144.64Z" fill="#D8BFB4"/>
<path d="M127.296 146.466L127.336 146.913L127.684 149.149L129.808 148.838L129.382 146.156L127.296 146.466Z" fill="white"/>
<path d="M131.708 143.092L129.016 143.492L129.416 146.185L132.108 145.785L131.708 143.092Z" fill="#71495A"/>
<path d="M134.386 142.667L131.694 143.067L132.094 145.76L134.786 145.36L134.386 142.667Z" fill="#D8BFB4"/>
<path d="M132.092 145.74L129.399 146.14L129.799 148.832L132.492 148.432L132.092 145.74Z" fill="#D8BFB4"/>
<path d="M134.775 145.35L132.083 145.75L132.483 148.442L135.175 148.042L134.775 145.35Z" fill="white"/>
<path d="M137.07 142.278L134.377 142.678L134.778 145.37L137.47 144.97L137.07 142.278Z" fill="#71495A"/>
<path d="M139.717 141.894L137.024 142.294L137.424 144.986L140.117 144.586L139.717 141.894Z" fill="#D8BFB4"/>
<path d="M137.459 144.961L134.767 145.361L135.167 148.054L137.859 147.654L137.459 144.961Z" fill="#D8BFB4"/>
<path d="M140.142 144.573L137.45 144.974L137.85 147.666L140.542 147.266L140.142 144.573Z" fill="white"/>
<path d="M142.396 141.468L139.703 141.868L140.103 144.561L142.796 144.16L142.396 141.468Z" fill="#71495A"/>
<path d="M145.079 141.079L142.387 141.479L142.787 144.172L145.479 143.772L145.079 141.079Z" fill="#D8BFB4"/>
<path d="M142.821 144.147L140.128 144.547L140.529 147.239L143.221 146.839L142.821 144.147Z" fill="#D8BFB4"/>
<path d="M145.467 143.764L142.775 144.164L143.175 146.857L145.868 146.456L145.467 143.764Z" fill="white"/>
<path d="M147.765 140.688L145.072 141.088L145.472 143.78L148.165 143.38L147.765 140.688Z" fill="#71495A"/>
<path d="M150.447 140.302L147.755 140.702L148.155 143.395L150.848 142.994L150.447 140.302Z" fill="#D8BFB4"/>
<path d="M148.152 143.374L145.46 143.774L145.86 146.467L148.552 146.067L148.152 143.374Z" fill="#D8BFB4"/>
<path d="M150.837 142.985L148.144 143.385L148.544 146.077L151.237 145.677L150.837 142.985Z" fill="white"/>
<path d="M153.125 139.876L150.433 140.276L150.833 142.969L153.525 142.569L153.125 139.876Z" fill="#71495A"/>
<path d="M155.81 139.487L153.117 139.887L153.518 142.579L156.21 142.179L155.81 139.487Z" fill="#D8BFB4"/>
<path d="M153.516 142.558L150.823 142.958L151.223 145.65L153.916 145.25L153.516 142.558Z" fill="#D8BFB4"/>
<path d="M156.198 142.171L153.505 142.571L153.905 145.264L156.598 144.864L156.198 142.171Z" fill="white"/>
<path d="M158.457 139.103L155.765 139.503L156.165 142.195L158.857 141.795L158.457 139.103Z" fill="#71495A"/>
<path d="M158.851 141.775L159.559 141.659C159.442 140.727 159.288 139.833 159.134 138.977L158.463 139.092L158.851 141.775Z" fill="#D8BFB4"/>
<path d="M158.882 141.781L156.19 142.182L156.59 144.874L159.282 144.474L158.882 141.781Z" fill="#D8BFB4"/>
<path d="M159.24 144.456L159.948 144.341C159.869 143.595 159.753 142.85 159.599 142.068C159.599 141.919 159.561 141.807 159.56 141.658L158.852 141.774L159.24 144.456Z" fill="white"/>
<path d="M89.6465 154.806L89.0131 154.884C89.1675 155.815 89.359 156.709 89.5128 157.529L90.0344 157.451L89.6465 154.806Z" fill="#71495A"/>
<path d="M92.3172 154.394L89.6247 154.794L90.0248 157.486L92.7173 157.086L92.3172 154.394Z" fill="#D8BFB4"/>
<path d="M90.0348 157.489L89.5132 157.567C89.705 158.498 89.9337 159.391 90.1248 160.211L90.4229 160.172L90.0348 157.489Z" fill="#D8BFB4"/>
<path d="M92.7425 157.073L90.05 157.474L90.4502 160.166L93.1427 159.766L92.7425 157.073Z" fill="white"/>
<path d="M95.0013 154.005L92.3088 154.405L92.7089 157.098L95.4014 156.698L95.0013 154.005Z" fill="#71495A"/>
<path d="M97.6844 153.617L94.9919 154.018L95.392 156.71L98.0845 156.31L97.6844 153.617Z" fill="#D8BFB4"/>
<path d="M95.3899 156.69L92.6974 157.09L93.0975 159.782L95.79 159.382L95.3899 156.69Z" fill="#D8BFB4"/>
<path d="M98.0747 156.299L95.3822 156.699L95.7823 159.392L98.4748 158.992L98.0747 156.299Z" fill="white"/>
<path d="M100.364 153.191L97.6711 153.591L98.0713 156.283L100.764 155.883L100.364 153.191Z" fill="#71495A"/>
<path d="M103.047 152.802L100.354 153.202L100.755 155.895L103.447 155.494L103.047 152.802Z" fill="#D8BFB4"/>
<path d="M100.752 155.875L98.0592 156.275L98.4593 158.968L101.152 158.568L100.752 155.875Z" fill="#D8BFB4"/>
<path d="M103.436 155.486L100.744 155.886L101.144 158.578L103.836 158.178L103.436 155.486Z" fill="white"/>
<path d="M105.731 152.413L103.038 152.813L103.438 155.506L106.131 155.106L105.731 152.413Z" fill="#71495A"/>
<path d="M108.414 152.024L105.722 152.424L106.122 155.116L108.815 154.716L108.414 152.024Z" fill="#D8BFB4"/>
<path d="M106.122 155.095L103.429 155.495L103.83 158.188L106.522 157.787L106.122 155.095Z" fill="#D8BFB4"/>
<path d="M108.798 154.672L106.105 155.072L106.505 157.765L109.198 157.365L108.798 154.672Z" fill="white"/>
<path d="M111.057 151.604L108.364 152.004L108.765 154.696L111.457 154.296L111.057 151.604Z" fill="#71495A"/>
<path d="M113.74 151.214L111.048 151.614L111.448 154.307L114.141 153.907L113.74 151.214Z" fill="#D8BFB4"/>
<path d="M111.481 154.282L108.789 154.683L109.189 157.375L111.882 156.975L111.481 154.282Z" fill="#D8BFB4"/>
<path d="M114.167 153.892L111.475 154.292L111.875 156.984L114.567 156.584L114.167 153.892Z" fill="white"/>
<path d="M116.424 150.825L113.732 151.226L114.132 153.918L116.824 153.518L116.424 150.825Z" fill="#71495A"/>
<path d="M119.107 150.437L116.415 150.837L116.815 153.529L119.508 153.129L119.107 150.437Z" fill="#D8BFB4"/>
<path d="M114.139 153.886L114.527 156.568L116.576 156.258C116.761 156.071 116.947 155.92 117.132 155.733L116.784 153.498L114.139 153.886Z" fill="#D8BFB4"/>
<path d="M116.783 153.498L117.132 155.733C118.059 154.87 118.837 154.046 119.504 153.296L119.466 153.11L116.783 153.498Z" fill="white"/>
<path d="M121.425 150.116L119.078 150.427L119.466 153.11L119.69 153.071C120.542 152.097 121.208 151.273 121.689 150.599C121.577 150.488 121.464 150.302 121.425 150.116Z" fill="#71495A"/>
<path d="M119.505 153.294C119.579 153.219 119.653 153.144 119.69 153.07L119.467 153.108L119.505 153.294Z" fill="#D8BFB4"/>
<path d="M129.809 148.837L127.685 149.148L127.685 149.185C127.724 149.446 127.651 149.67 127.503 149.857C128.139 150.338 129 150.893 130.011 151.558L130.16 151.52L129.809 148.837Z" fill="#D8BFB4"/>
<path d="M130.047 151.52C130.122 151.556 130.159 151.593 130.234 151.63L130.233 151.518L130.047 151.52Z" fill="white"/>
<path d="M132.48 148.423L129.787 148.823L130.187 151.516L132.88 151.116L132.48 148.423Z" fill="#71495A"/>
<path d="M135.163 148.034L132.471 148.435L132.871 151.127L135.564 150.727L135.163 148.034Z" fill="#D8BFB4"/>
<path d="M130.196 151.52L130.197 151.631C131.057 152.149 132.067 152.702 133.189 153.292L132.878 151.094L130.196 151.52Z" fill="#D8BFB4"/>
<path d="M135.56 150.707L132.878 151.096L133.189 153.294C133.45 153.404 133.675 153.552 133.937 153.662L135.911 153.353L135.56 150.707Z" fill="white"/>
<path d="M137.847 147.647L135.154 148.047L135.555 150.739L138.247 150.339L137.847 147.647Z" fill="#71495A"/>
<path d="M140.526 147.22L137.834 147.62L138.234 150.313L140.926 149.912L140.526 147.22Z" fill="#D8BFB4"/>
<path d="M138.237 150.329L135.544 150.729L135.945 153.422L138.637 153.022L138.237 150.329Z" fill="#D8BFB4"/>
<path d="M140.915 149.905L138.223 150.305L138.623 152.997L141.315 152.597L140.915 149.905Z" fill="white"/>
<path d="M143.21 146.831L140.518 147.231L140.918 149.924L143.611 149.524L143.21 146.831Z" fill="#71495A"/>
<path d="M145.894 146.442L143.202 146.842L143.602 149.534L146.294 149.134L145.894 146.442Z" fill="#D8BFB4"/>
<path d="M143.601 149.511L140.909 149.911L141.309 152.604L144.001 152.203L143.601 149.511Z" fill="#D8BFB4"/>
<path d="M146.283 149.126L143.59 149.526L143.99 152.219L146.683 151.819L146.283 149.126Z" fill="white"/>
<path d="M148.541 146.058L145.849 146.458L146.249 149.15L148.942 148.75L148.541 146.058Z" fill="#71495A"/>
<path d="M151.22 145.632L148.527 146.032L148.928 148.725L151.62 148.325L151.22 145.632Z" fill="#D8BFB4"/>
<path d="M148.967 148.737L146.275 149.137L146.675 151.829L149.367 151.429L148.967 148.737Z" fill="#D8BFB4"/>
<path d="M151.645 148.31L148.953 148.71L149.353 151.402L152.045 151.002L151.645 148.31Z" fill="white"/>
<path d="M153.903 145.243L151.21 145.644L151.611 148.336L154.303 147.936L153.903 145.243Z" fill="#71495A"/>
<path d="M156.588 144.854L153.895 145.254L154.295 147.946L156.988 147.546L156.588 144.854Z" fill="#D8BFB4"/>
<path d="M154.293 147.927L151.6 148.327L152 151.02L154.693 150.619L154.293 147.927Z" fill="#D8BFB4"/>
<path d="M156.976 147.538L154.284 147.938L154.684 150.631L157.376 150.231L156.976 147.538Z" fill="white"/>
<path d="M159.272 144.465L156.58 144.865L156.98 147.558L159.672 147.158L159.272 144.465Z" fill="#71495A"/>
<path d="M159.628 147.139L160.224 147.061C160.145 146.204 160.065 145.309 159.948 144.378L159.24 144.494L159.628 147.139Z" fill="#D8BFB4"/>
<path d="M159.654 147.113L156.962 147.513L157.362 150.205L160.055 149.805L159.654 147.113Z" fill="#D8BFB4"/>
<path d="M160.053 149.822L160.425 149.783C160.383 148.926 160.341 148.031 160.261 147.062L159.665 147.14L160.053 149.822Z" fill="white"/>
<path d="M90.124 160.211C90.3524 161.03 90.543 161.775 90.7708 162.482L90.4219 160.135L90.124 160.211Z" fill="#71495A"/>
<path d="M93.1052 159.747L90.4228 160.135L90.7717 162.482C90.8096 162.593 90.8475 162.705 90.8854 162.817L93.4933 162.429L93.1052 159.747Z" fill="#D8BFB4"/>
<path d="M93.4936 162.429L90.8857 162.816C91.1894 163.784 91.4926 164.64 91.7953 165.421L93.9189 165.111L93.4936 162.429Z" fill="white"/>
<path d="M95.8163 159.367L93.1238 159.768L93.5239 162.46L96.2164 162.06L95.8163 159.367Z" fill="#71495A"/>
<path d="M98.4945 158.942L95.802 159.342L96.2021 162.034L98.8946 161.634L98.4945 158.942Z" fill="#D8BFB4"/>
<path d="M96.2041 162.053L93.5116 162.453L93.9117 165.146L96.6042 164.745L96.2041 162.053Z" fill="#D8BFB4"/>
<path d="M98.882 161.626L96.1896 162.026L96.5897 164.719L99.2822 164.319L98.882 161.626Z" fill="white"/>
<path d="M101.141 158.559L98.4483 158.959L98.8484 161.651L101.541 161.251L101.141 158.559Z" fill="#71495A"/>
<path d="M103.824 158.17L101.132 158.57L101.532 161.263L104.225 160.863L103.824 158.17Z" fill="#D8BFB4"/>
<path d="M101.567 161.237L98.8742 161.637L99.2744 164.329L101.967 163.929L101.567 161.237Z" fill="#D8BFB4"/>
<path d="M104.251 160.849L101.558 161.249L101.958 163.941L104.651 163.541L104.251 160.849Z" fill="white"/>
<path d="M106.508 157.781L103.816 158.181L104.216 160.873L106.909 160.473L106.508 157.781Z" fill="#71495A"/>
<path d="M109.19 157.353L106.497 157.753L106.897 160.445L109.59 160.045L109.19 157.353Z" fill="#D8BFB4"/>
<path d="M106.893 160.427L104.2 160.827L104.6 163.52L107.293 163.119L106.893 160.427Z" fill="#D8BFB4"/>
<path d="M106.905 160.452L107.293 163.134L107.777 163.057C108.483 162.606 109.152 162.154 109.821 161.703L109.587 160.064L106.905 160.452Z" fill="white"/>
<path d="M111.872 156.965L109.179 157.365L109.58 160.058L112.272 159.658L111.872 156.965Z" fill="#71495A"/>
<path d="M111.844 156.957L112.232 159.639L112.679 159.562C113.384 158.999 114.052 158.436 114.683 157.91L114.489 156.569L111.844 156.957Z" fill="#D8BFB4"/>
<path d="M109.55 160.026L109.783 161.666C110.674 161.064 111.491 160.463 112.271 159.862L112.232 159.601L109.55 160.026Z" fill="#D8BFB4"/>
<path d="M112.271 159.9C112.42 159.787 112.568 159.674 112.679 159.562L112.232 159.639L112.271 159.9Z" fill="white"/>
<path d="M114.721 157.91C115.389 157.347 116.019 156.784 116.576 156.259L114.527 156.569L114.721 157.91Z" fill="#71495A"/>
<path d="M133.936 153.698C134.609 154.03 135.357 154.362 136.105 154.73L135.911 153.426L133.936 153.698Z" fill="#D8BFB4"/>
<path d="M138.632 153L135.949 153.388L136.143 154.692C136.928 155.024 137.75 155.392 138.647 155.722L139.057 155.645L138.632 153Z" fill="#71495A"/>
<path d="M141.304 152.589L138.611 152.989L139.011 155.682L141.704 155.282L141.304 152.589Z" fill="#D8BFB4"/>
<path d="M138.609 155.723C138.758 155.759 138.908 155.833 139.02 155.87L138.981 155.646L138.609 155.723Z" fill="#D8BFB4"/>
<path d="M139.02 155.683L139.058 155.907C139.955 156.237 140.927 156.605 141.935 156.897L141.702 155.295L139.02 155.683Z" fill="white"/>
<path d="M143.988 152.198L141.295 152.599L141.696 155.291L144.388 154.891L143.988 152.198Z" fill="#71495A"/>
<path d="M146.672 151.81L143.979 152.21L144.379 154.902L147.072 154.502L146.672 151.81Z" fill="#D8BFB4"/>
<path d="M144.384 154.87L141.702 155.258L141.934 156.86C142.719 157.116 143.503 157.335 144.362 157.592L144.772 157.515L144.384 154.87Z" fill="#D8BFB4"/>
<path d="M147.061 154.493L144.369 154.894L144.769 157.586L147.461 157.186L147.061 154.493Z" fill="white"/>
<path d="M149.35 151.383L146.658 151.783L147.058 154.476L149.751 154.076L149.35 151.383Z" fill="#71495A"/>
<path d="M152.034 150.994L149.341 151.395L149.741 154.087L152.434 153.687L152.034 150.994Z" fill="#D8BFB4"/>
<path d="M149.739 154.068L147.047 154.468L147.447 157.16L150.139 156.76L149.739 154.068Z" fill="#D8BFB4"/>
<path d="M152.424 153.677L149.731 154.077L150.131 156.77L152.824 156.369L152.424 153.677Z" fill="white"/>
<path d="M154.718 150.607L152.026 151.007L152.426 153.699L155.118 153.299L154.718 150.607Z" fill="#71495A"/>
<path d="M157.403 150.216L154.711 150.616L155.111 153.309L157.803 152.909L157.403 150.216Z" fill="#D8BFB4"/>
<path d="M155.108 153.288L152.415 153.688L152.815 156.381L155.508 155.981L155.108 153.288Z" fill="#D8BFB4"/>
<path d="M157.786 152.864L155.093 153.264L155.493 155.956L158.186 155.556L157.786 152.864Z" fill="white"/>
<path d="M160.044 149.796L157.351 150.196L157.751 152.889L160.444 152.489L160.044 149.796Z" fill="#71495A"/>
<path d="M160.441 152.467C160.474 151.609 160.469 150.714 160.426 149.745L160.053 149.784L160.441 152.467Z" fill="#D8BFB4"/>
<path d="M157.759 152.892L158.147 155.575L160.345 155.264C160.416 154.481 160.448 153.586 160.442 152.616L160.442 152.504L157.759 152.892Z" fill="#D8BFB4"/>
<path d="M93.8801 165.111L91.7565 165.421C91.8324 165.645 91.9457 165.905 92.0213 166.091C92.3238 166.835 92.8121 167.466 93.4485 167.91L94.2682 167.793L93.8801 165.111Z" fill="#D8BFB4"/>
<path d="M93.4491 167.91C93.7486 168.132 94.0477 168.279 94.3842 168.426L94.306 167.793L93.4491 167.91Z" fill="white"/>
<path d="M96.5886 164.698L93.8961 165.099L94.2963 167.791L96.9887 167.391L96.5886 164.698Z" fill="#71495A"/>
<path d="M99.2724 164.31L96.58 164.71L96.9801 167.402L99.6726 167.002L99.2724 164.31Z" fill="#D8BFB4"/>
<path d="M94.3058 167.794L94.384 168.427C95.2435 168.758 96.2133 168.827 97.144 168.561L96.9883 167.406L94.3058 167.794Z" fill="#D8BFB4"/>
<path d="M96.9889 167.368L97.1446 168.523C97.2936 168.485 97.4423 168.409 97.5912 168.371C98.298 168.069 99.0045 167.729 99.7112 167.427L99.6341 166.98L96.9889 167.368Z" fill="white"/>
<path d="M99.2449 164.299L99.6329 166.981L101.086 166.749C101.495 166.56 101.867 166.372 102.239 166.183L101.89 163.911L99.2449 164.299Z" fill="#71495A"/>
<path d="M101.928 163.91L102.276 166.183C103.169 165.73 103.987 165.278 104.804 164.826L104.61 163.522L101.928 163.91Z" fill="#D8BFB4"/>
<path d="M99.711 167.427C100.194 167.201 100.641 166.975 101.087 166.786L99.6341 167.018L99.711 167.427Z" fill="#D8BFB4"/>
<path d="M104.61 163.522L104.804 164.826C105.696 164.337 106.514 163.847 107.331 163.321L107.292 163.097L104.61 163.522Z" fill="#71495A"/>
<path d="M107.331 163.321C107.479 163.208 107.628 163.132 107.776 163.02L107.292 163.097L107.331 163.321Z" fill="#D8BFB4"/>
<path d="M144.362 157.591C144.511 157.628 144.661 157.664 144.81 157.7L144.772 157.514L144.362 157.591Z" fill="#71495A"/>
<path d="M144.771 157.553L144.81 157.739C145.706 157.995 146.677 158.213 147.648 158.431L147.454 157.164L144.771 157.553Z" fill="#D8BFB4"/>
<path d="M147.454 157.165L147.648 158.432C148.544 158.65 149.515 158.831 150.485 159.012L150.137 156.777L147.454 157.165Z" fill="#71495A"/>
<path d="M152.819 156.351L150.137 156.739L150.485 158.974C150.933 159.046 151.381 159.118 151.828 159.19L153.207 158.996L152.819 156.351Z" fill="#D8BFB4"/>
<path d="M151.829 159.226C152.314 159.298 152.799 159.37 153.284 159.442L153.207 159.032L151.829 159.226Z" fill="white"/>
<path d="M155.496 155.975L152.803 156.375L153.203 159.067L155.896 158.667L155.496 155.975Z" fill="#71495A"/>
<path d="M158.174 155.548L155.481 155.948L155.882 158.641L158.574 158.241L158.174 155.548Z" fill="#D8BFB4"/>
<path d="M153.208 159.033L153.285 159.443C154.068 159.55 154.852 159.658 155.636 159.728C155.785 159.727 155.934 159.763 156.046 159.763L155.89 158.608L153.208 159.033Z" fill="#D8BFB4"/>
<path d="M158.572 158.22L155.89 158.608L156.046 159.763C157.015 159.758 157.908 159.454 158.651 158.891L158.572 158.22Z" fill="white"/>
<path d="M158.571 158.22L159.466 158.103C159.91 157.504 160.241 156.756 160.311 155.973C160.347 155.749 160.346 155.488 160.382 155.227L158.183 155.538L158.571 158.22Z" fill="#71495A"/>
<path d="M158.651 158.89C158.948 158.665 159.207 158.402 159.467 158.102L158.572 158.219L158.651 158.89Z" fill="#D8BFB4"/>
<path d="M124.244 147.377L127.373 146.912L127.296 146.465L127.025 144.64C126.986 144.379 126.836 144.156 126.611 144.008C126.461 143.897 126.275 143.861 126.051 143.9L123.778 144.248L124.244 147.377Z" fill="#71495A"/>
<path d="M127.684 149.185L127.336 146.913L124.206 147.378L124.671 150.508L126.944 150.159C127.167 150.121 127.353 150.008 127.501 149.858C127.65 149.67 127.723 149.409 127.684 149.185Z" fill="#D8BFB4"/>
<path d="M120.766 145.571L121.037 147.396L121.115 147.843L124.244 147.378L123.779 144.248L121.506 144.597C121.245 144.636 121.06 144.786 120.912 144.973C120.801 145.123 120.728 145.347 120.766 145.571Z" fill="#D8BFB4"/>
<path d="M124.244 147.377L121.114 147.842L121.463 150.077L121.463 150.115C121.501 150.301 121.577 150.487 121.727 150.635C121.914 150.82 122.176 150.893 122.437 150.855L124.709 150.506L124.244 147.377Z" fill="white"/>
<path d="M197.643 124.403C197.494 124.404 197.345 124.33 197.232 124.219C194.569 121.363 190.026 122.47 189.951 122.47C189.765 122.508 189.541 122.472 189.428 122.324C189.278 122.176 189.24 121.989 189.276 121.803L192.009 110.526C192.045 110.377 192.156 110.227 192.305 110.152C196.73 107.927 199.839 110.557 200.856 112.266C200.931 112.378 200.969 112.527 200.933 112.676L198.2 123.952C198.164 124.139 198.016 124.326 197.792 124.365C197.718 124.402 197.681 124.402 197.643 124.403ZM192.069 121.116C193.598 121.107 195.65 121.431 197.336 122.764L199.814 112.645C199.288 111.902 197.035 109.193 193.093 111.042L190.615 121.199C190.988 121.159 191.472 121.119 192.069 121.116Z" fill="#C59F6D"/>
<path d="M205.521 126.298C205.41 126.299 205.26 126.262 205.148 126.188C205.11 126.151 201.777 123.485 197.83 124.403C197.643 124.441 197.457 124.405 197.307 124.256C197.157 124.108 197.118 123.922 197.155 123.735L199.887 112.459C199.924 112.31 200.035 112.16 200.183 112.084C202.191 111.066 206.549 110.221 208.734 114.199C208.809 114.31 208.81 114.459 208.774 114.609L206.041 125.885C206.005 126.071 205.857 126.221 205.671 126.297C205.633 126.297 205.559 126.298 205.521 126.298ZM199.463 123.088C201.998 123.074 204.092 124.181 205.14 124.846L207.655 114.578C205.66 111.233 201.901 112.559 200.934 112.975L198.456 123.131C198.792 123.092 199.127 123.09 199.463 123.088Z" fill="#C59F6D"/>
</svg>
