<svg width="60" height="60" viewBox="0 0 60 60" fill="none" xmlns="http://www.w3.org/2000/svg">
<path d="M30.5865 59.4134C46.8311 59.0895 59.7374 45.6581 59.4135 29.4134C59.0896 13.1688 45.6582 0.262467 29.4135 0.586371C13.1689 0.910275 0.262576 14.3417 0.586481 30.5864C0.910385 46.831 14.3418 59.7373 30.5865 59.4134Z" fill="#4CAFE1"/>
<path d="M27.8054 32.8482C28.6951 32.8482 29.4069 31.8398 29.4069 30.6536C29.4069 29.4673 28.6951 28.459 27.8054 28.459C26.9157 28.459 26.204 29.4673 26.204 30.6536C26.204 31.8992 26.9157 32.8482 27.8054 32.8482Z" fill="#4CAFE1"/>
<path d="M32.3722 32.8482C33.2619 32.8482 33.9737 31.8398 33.9737 30.6536C33.9737 29.4673 33.2619 28.459 32.3722 28.459C31.4825 28.459 30.7708 29.4673 30.7708 30.6536C30.7708 31.8992 31.4825 32.8482 32.3722 32.8482Z" fill="#4CAFE1"/>
<path d="M24.9581 34.3311C25.0768 37.5933 27.9831 39.0761 30.6522 38.8389C32.9654 38.6016 35.1007 37.1188 35.2193 34.3311H30.6522H24.9581Z" fill="#4CAFE1"/>
<path d="M39.9651 24.3665C40.0244 24.3665 40.0244 24.3665 39.9651 24.3665C40.143 24.4851 40.2616 24.5445 40.3803 24.6631C40.4396 24.3072 40.4989 23.9513 40.4989 23.5954C40.4989 23.5954 40.4396 23.5954 40.4396 23.5361C40.3803 23.6548 40.321 23.8327 40.2023 23.9513C40.143 24.07 40.0837 24.2479 39.9651 24.3665Z" fill="#4CAFE1"/>
<path d="M19.8577 11.6729C19.3239 12.266 18.8494 12.9777 18.6122 13.9268C18.4935 14.2826 18.4342 14.6978 18.4342 15.113C18.2563 19.1463 21.6965 20.985 25.3146 21.1037C28.6361 21.163 31.0086 20.214 33.9743 19.7988C37.0586 19.3836 39.2532 20.3919 39.787 22.112C39.9056 22.4679 39.9056 22.8238 39.9056 23.2389C39.9056 23.5355 39.787 23.8914 39.6684 24.188C39.5498 24.4845 39.4311 24.7811 39.2532 25.0777C39.1939 25.1963 39.1346 25.2556 39.0753 25.3742C39.1346 25.3742 39.1346 25.3149 39.1939 25.3149C39.1346 25.3742 39.1346 25.3742 39.1346 25.3742C39.1346 25.1963 39.0753 25.0777 39.0159 24.959C38.4821 23.5355 36.3469 23.7135 34.0336 24.3659C33.4998 24.5438 32.3135 24.959 30.7714 25.3742C30.1783 25.4929 29.5258 25.6708 28.8734 25.7301C26.7381 26.086 24.1876 26.1453 21.8151 25.3149C21.4592 25.1963 21.1626 25.0777 20.8661 24.959C20.8068 24.959 20.8068 24.8997 20.7474 24.8997C19.5019 25.9674 18.5529 27.8061 18.5529 31.0683C18.5529 38.779 23.1793 47.4981 25.7298 47.4981C28.8734 47.4981 27.5685 40.1432 30.7714 40.1432C33.9743 40.1432 32.6694 47.4981 35.813 47.4981C38.3635 47.4981 42.9899 38.779 42.9899 31.0683C42.9899 28.5771 42.4561 26.8571 41.6257 25.7301C41.2698 25.2556 40.914 24.8997 40.5581 24.6625C40.4395 24.6032 40.3208 24.4845 40.2022 24.4252C40.2022 24.4252 40.1429 24.4252 40.1429 24.3659C40.2615 24.2473 40.3208 24.0693 40.3801 23.9507C40.4395 23.8321 40.5581 23.6541 40.6174 23.5355C40.6767 23.4762 40.6767 23.4169 40.6767 23.3576C40.6767 23.2983 40.6767 23.2389 40.6767 23.1796V23.1203C40.736 19.5022 38.7194 14.9944 30.5342 16.7738C22.4675 18.5532 20.5695 16.8331 20.1543 14.342C19.9764 13.5116 20.2136 12.6812 20.6288 11.9694C20.7474 11.7915 20.8661 11.6729 20.9847 11.4949C21.2813 11.139 21.6371 10.9018 21.993 10.6645C21.993 10.6052 21.993 10.6052 21.993 10.5459L21.8744 10.6052C20.9847 10.7832 20.3916 11.139 19.8577 11.6729ZM32.3728 28.4585C33.2625 28.4585 33.9743 29.4668 33.9743 30.6531C33.9743 31.8394 33.2625 32.8477 32.3728 32.8477C31.4831 32.8477 30.7714 31.8394 30.7714 30.6531C30.7714 29.4668 31.4831 28.4585 32.3728 28.4585ZM27.8057 28.4585C28.6954 28.4585 29.4072 29.4668 29.4072 30.6531C29.4072 31.8394 28.6954 32.8477 27.8057 32.8477C26.916 32.8477 26.2043 31.8394 26.2043 30.6531C26.2043 29.4668 26.916 28.4585 27.8057 28.4585ZM30.6528 38.8384C27.9837 39.0756 25.0773 37.5928 24.9587 34.3305H30.6528H35.2199C35.1013 37.1183 32.966 38.6011 30.6528 38.8384Z" fill="white"/>
<path d="M20.8069 11.4952C20.6883 11.6138 20.5696 11.7917 20.451 11.9697C20.0358 12.6221 19.8579 13.4525 19.9765 14.3422C20.451 16.8334 22.2897 18.5535 30.3563 16.7741C38.5416 14.9353 40.6175 19.5025 40.4989 23.1206V23.1799C40.4989 23.2392 40.4989 23.2985 40.4989 23.3578C41.8038 20.5701 42.0411 15.7657 36.8808 13.927C32.9661 12.5628 29.5853 13.927 25.552 14.6981C21.9338 15.4098 20.5103 13.2153 21.0441 11.6138C21.0441 11.5545 21.1035 11.4359 21.1628 11.3765C21.2814 11.1393 21.4593 10.902 21.6966 10.7241C21.7559 10.7241 21.7559 10.6648 21.7559 10.6055C21.4 10.8427 21.0442 11.1393 20.8069 11.4952Z" fill="#A7D4F5"/>
<path d="M20.9252 23.4767C21.2811 23.6546 21.6962 23.8325 22.1114 24.0105C23.4756 24.5443 25.0178 24.8409 26.7972 24.9002C27.5683 24.9002 28.3393 24.9002 29.0511 24.7816C29.5849 24.7222 30.1187 24.6629 30.6526 24.5443C32.0761 24.2477 33.203 23.8919 33.7369 23.7732C35.9908 23.1208 37.2363 23.2987 38.0074 23.7732C38.6005 24.1291 38.8378 24.6629 38.9564 25.0188C39.0157 25.2561 39.0157 25.434 39.0157 25.434C39.075 25.3154 39.1344 25.2561 39.1937 25.1374C39.3716 24.8409 39.4902 24.5443 39.6089 24.2477C39.7275 23.8919 39.7868 23.5953 39.8461 23.2987C39.9054 22.8835 39.8461 22.5277 39.7275 22.1718C39.1937 20.4517 36.9991 19.4434 33.9148 19.8586C31.0084 20.2737 28.5766 21.2228 25.255 21.1634C21.6369 21.1041 18.1968 19.2654 18.3747 15.1728C18.3747 14.7576 18.4933 14.4017 18.5526 13.9865C18.7899 13.0968 19.2051 12.3258 19.7982 11.7326C20.332 11.1988 20.9252 10.8429 21.5776 10.6057L21.6962 10.5464C21.6962 10.487 21.5776 10.4277 21.5183 10.4277C19.8575 10.487 18.4933 11.5547 17.6629 12.9782C17.3071 13.5713 17.0698 14.2831 16.8919 14.9949C16.1208 18.4943 17.6036 21.6973 20.9252 23.4767Z" fill="#A7D4F5"/>
</svg>
