<svg width="165" height="109" viewBox="0 0 165 109" fill="none" xmlns="http://www.w3.org/2000/svg">
<path d="M34.5399 17.5056C26.9526 25.1387 32.5768 33.0633 35.3358 36.1113C36.1052 36.9594 36.6357 37.41 36.6357 37.41L45.4168 28.5577L47.6188 26.1724L54.0123 19.2814C54.0388 19.2549 43.7455 8.33529 34.5399 17.5056ZM26.0507 9.47496C26.0507 9.47496 26.0507 9.50146 26.0507 9.47496C25.918 9.60748 25.7854 9.73999 25.6527 9.87251C24.9099 10.6676 24.2202 11.4627 23.61 12.2579C11.3005 28.1866 25.2283 42.5782 29.3933 46.3152C30.0831 46.9248 30.5075 47.2429 30.5075 47.2429L47.5657 31.1021L47.5922 31.1286L47.884 30.784L48.2555 30.4395L48.2289 30.413L58.1242 19.0958L63.5096 12.8939L63.6688 12.7084C63.6688 12.7084 44.7536 -9.55478 26.0507 9.47496Z" fill="#B6724D"/>
<path d="M45.8161 28.1588L45.4447 28.5564L45.1794 28.8214L36.637 37.4087C36.637 37.4087 34.4882 35.5534 32.7638 32.6645C30.5353 28.9274 29.0762 23.4412 34.0106 18.0079C34.2759 17.7163 34.5412 17.4513 34.78 17.2128C34.9657 17.0537 35.1249 16.8947 35.3106 16.7357C42.6591 10.4013 50.4586 16.0996 53.0585 18.4054C53.6421 18.909 53.9605 19.2536 53.9605 19.2536L45.8161 28.1588Z" fill="#DCBD8A"/>
<path d="M48.2555 30.4384L48.2821 30.4649L47.9107 30.8095L47.6188 31.154L47.5923 31.1275L30.5341 47.2684C30.5341 47.2684 11.1414 32.2142 21.9387 14.6952C22.4428 13.8736 22.9999 13.0785 23.6366 12.2568C22.3367 18.6443 20.2674 28.9012 30.5607 38.4956C30.5607 38.4956 32.4177 35.1031 33.4789 33.5394C35.1502 31.1275 37.0338 28.9542 39.05 26.9399C41.7559 24.2366 44.7272 21.8777 47.6454 19.6779C51.0411 17.1335 54.649 21.0826 58.0978 19.0683L48.2555 30.4384Z" fill="#945339"/>
<path d="M39.0763 26.9653C33.9562 34.3069 30.4279 42.4966 30.4279 42.4966C19.153 32.0806 19.5775 21.6381 21.9386 14.7206C22.4426 13.899 22.9998 13.1038 23.6364 12.2822C22.3365 18.6696 20.2673 28.9266 30.5605 38.521C30.5605 38.521 32.4176 35.1285 33.4787 33.5648C35.15 31.1529 37.0336 28.9531 39.0763 26.9653Z" fill="#AD6946"/>
<path d="M47.1676 18.8041C38.2539 23.5483 34.4072 29.2201 32.8154 32.6656C30.587 28.9285 29.1279 23.4423 34.0623 18.009C34.3276 17.7174 34.5929 17.4524 34.8316 17.2139C35.0173 17.0548 35.1765 16.8958 35.3622 16.7368C41.4374 14.855 47.1676 18.8041 47.1676 18.8041Z" fill="#ECD09C"/>
<path d="M63.6708 12.7101L63.5116 12.8956L61.9729 13.2401C61.9729 13.2401 57.5956 8.20441 51.4143 5.47452C45.2596 2.77113 36.6907 2.98316 30.6421 7.4358C24.5935 11.8884 18.4387 21.5093 20.5345 30.017C22.4712 37.8092 28.4667 45.1772 29.4218 46.3434C25.2567 42.6063 11.329 28.2148 23.6384 12.286C24.2486 11.4909 24.9384 10.6958 25.6812 9.90065C25.8138 9.76813 25.9199 9.63561 26.0526 9.5296C26.0526 9.5296 26.0526 9.5296 26.0791 9.50309C44.7556 -9.55314 63.6708 12.7101 63.6708 12.7101Z" fill="#D59A77"/>
<path d="M53.1378 18.4048L51.997 19.5709C44.2771 13.5546 38.4672 14.8798 34.8328 17.2386C42.3405 10.1091 50.4584 16.0459 53.1378 18.4048Z" fill="#C59F6D"/>
<path d="M111.899 17.8242L118.479 24.5561L120.733 26.862L129.78 35.4757C129.78 35.4757 130.31 34.9986 131.053 34.124C133.733 30.9966 139.145 22.9394 131.345 15.5183C121.901 6.61307 111.899 17.8242 111.899 17.8242ZM102.11 11.5428L102.269 11.7283L107.84 17.7712L118.001 28.8233L117.974 28.8498L118.346 29.1943L118.638 29.5124L118.664 29.4858L136.173 45.1496C136.173 45.1496 136.571 44.805 137.261 44.169C141.32 40.3259 154.85 25.5368 142.089 9.95255C141.453 9.18394 140.763 8.38882 139.994 7.62021C139.861 7.48769 139.728 7.38168 139.622 7.24916C139.622 7.24916 139.622 7.24916 139.596 7.22265C120.389 -11.2505 102.11 11.5428 102.11 11.5428Z" fill="#B6724D"/>
<path d="M120.388 26.4639L120.759 26.8615L121.024 27.1265L129.779 35.4752C129.779 35.4752 131.875 33.5669 133.52 30.625C135.642 26.8085 136.968 21.2957 131.848 16.0214C131.583 15.7564 131.318 15.4913 131.052 15.2528C130.867 15.0938 130.681 14.9347 130.522 14.8022C123.014 8.65334 115.374 14.5902 112.827 16.9755C112.27 17.5056 111.952 17.8502 111.952 17.8502L120.388 26.4639Z" fill="#DCBD8A"/>
<path d="M118.001 28.8227L117.974 28.8492L118.346 29.1938L118.638 29.5118L118.664 29.4853L136.173 45.1491C136.173 45.1491 155.142 29.5648 143.84 12.3639C143.31 11.5687 142.726 10.7736 142.089 9.97852C143.575 16.3394 145.909 26.5169 135.908 36.4028C135.908 36.4028 133.971 33.0633 132.857 31.5526C131.133 29.1938 129.17 27.047 127.1 25.1122C124.315 22.4883 121.291 20.209 118.293 18.1152C114.844 15.6768 111.342 19.7319 107.84 17.7971L118.001 28.8227Z" fill="#945339"/>
<path d="M127.101 25.0857C132.433 32.2947 136.173 40.3784 136.173 40.3784C147.156 29.6443 146.44 19.2283 143.867 12.3639C143.336 11.5687 142.753 10.7736 142.116 9.97852C143.602 16.3394 145.936 26.5169 135.935 36.4028C135.935 36.4028 133.998 33.0633 132.884 31.5526C131.133 29.1673 129.17 27.047 127.101 25.0857Z" fill="#AD6946"/>
<path d="M118.771 17.1599C127.817 21.6391 131.823 27.2048 133.521 30.5973C135.643 26.7808 136.969 21.268 131.849 15.9937C131.584 15.7287 131.319 15.4637 131.053 15.2251C130.868 15.0661 130.682 14.9071 130.523 14.7746C124.395 13.0518 118.771 17.1599 118.771 17.1599Z" fill="#ECD09C"/>
<path d="M102.11 11.543L102.269 11.7285L103.834 12.0201C103.834 12.0201 108.079 6.85182 114.154 3.96291C120.256 1.07399 128.825 1.07399 134.979 5.34111C141.134 9.60822 147.581 19.0701 145.724 27.6308C143.999 35.4759 138.216 43.003 137.287 44.1957C141.346 40.3526 154.876 25.5635 142.116 9.97927C141.479 9.21066 140.789 8.41555 140.02 7.64694C139.887 7.51442 139.755 7.4084 139.648 7.27588C139.648 7.27588 139.648 7.27588 139.622 7.24938C120.388 -11.2503 102.11 11.543 102.11 11.543Z" fill="#D59A77"/>
<path d="M112.801 16.9237L113.968 18.0369C121.502 11.8085 127.365 13.0012 131.053 15.2275C123.359 8.33648 115.401 14.5119 112.801 16.9237Z" fill="#C59F6D"/>
<path d="M140.258 61.8193C140.258 62.0578 140.258 62.3228 140.258 62.5614V62.6144C140.258 62.8529 140.231 63.118 140.231 63.3565C140.231 63.5685 140.205 63.754 140.205 63.9661C140.205 64.0721 140.205 64.1516 140.178 64.2311C140.152 64.4166 140.152 64.6022 140.125 64.8142C140.125 64.8407 140.125 64.8407 140.125 64.8672C140.099 65.1057 140.072 65.3443 140.046 65.5828C140.019 65.7948 139.993 66.0334 139.966 66.2454C139.966 66.2984 139.939 66.3249 139.939 66.3779C139.913 66.5899 139.886 66.802 139.833 67.014C139.807 67.226 139.754 67.4381 139.727 67.6236C139.701 67.7031 139.701 67.7826 139.674 67.8621C139.648 68.0477 139.621 68.2067 139.568 68.3922C139.568 68.4187 139.568 68.4187 139.568 68.4452C139.515 68.6573 139.462 68.8958 139.435 69.1078C139.382 69.3198 139.329 69.5584 139.276 69.7704C139.223 69.9824 139.17 70.221 139.091 70.433C139.037 70.645 138.958 70.8571 138.905 71.0691C138.905 71.0956 138.905 71.1221 138.878 71.1221C138.825 71.3076 138.772 71.4932 138.693 71.6787C138.666 71.7317 138.666 71.7847 138.64 71.8377C138.586 71.9967 138.533 72.1823 138.454 72.3413C138.374 72.5533 138.295 72.7653 138.215 72.9774C138.029 73.4279 137.844 73.8785 137.658 74.3291C137.578 74.4881 137.525 74.6471 137.446 74.8061C136.703 76.3964 135.827 77.8806 134.846 79.2853C134.766 79.3913 134.713 79.4973 134.634 79.5768C134.554 79.6828 134.501 79.7888 134.421 79.8684C134.289 80.0539 134.156 80.2129 134.024 80.3984C133.652 80.8755 133.254 81.3526 132.856 81.8296C132.777 81.9357 132.697 82.0152 132.591 82.1212C132.458 82.2537 132.352 82.3862 132.22 82.5187C132.14 82.6247 132.034 82.7308 131.954 82.8103C131.742 83.0488 131.53 83.2873 131.291 83.4994C131.185 83.6054 131.079 83.7114 130.999 83.7909C130.999 83.8174 130.973 83.8174 130.946 83.8439C130.813 83.9764 130.654 84.1355 130.522 84.268C130.495 84.2945 130.495 84.2945 130.469 84.321C130.309 84.4535 130.177 84.6125 130.018 84.7451C129.832 84.9041 129.673 85.0631 129.487 85.2486C129.354 85.3546 129.222 85.4872 129.089 85.5932C128.373 86.2028 127.657 86.7858 126.914 87.3424C126.755 87.4484 126.622 87.5545 126.463 87.687C126.304 87.793 126.144 87.9255 125.985 88.0315C125.906 88.0845 125.826 88.1375 125.746 88.2171C125.587 88.3231 125.428 88.4291 125.269 88.5616C124.712 88.9327 124.155 89.3037 123.598 89.6483C123.571 89.6748 123.545 89.6748 123.518 89.7013C123.359 89.8073 123.2 89.8868 123.067 89.9928C122.881 90.0988 122.696 90.2313 122.51 90.3374C122.351 90.4169 122.192 90.5229 122.059 90.6024C121.9 90.6819 121.767 90.7879 121.608 90.8674C121.528 90.9204 121.475 90.9469 121.396 90.9999C121.21 91.106 121.024 91.212 120.812 91.318C119.857 91.8481 118.902 92.3251 117.92 92.8022L119.141 95.6911H40.3761C40.6944 95.3466 40.9862 95.002 41.3046 94.684C41.6229 94.3394 41.9413 94.0214 42.2331 93.7298C42.3923 93.5708 42.5514 93.4383 42.7106 93.2793C43.1881 92.8552 43.6126 92.4577 44.0371 92.1396C44.1432 92.0336 44.2758 91.9541 44.3819 91.8746C44.435 91.8216 44.488 91.7951 44.5411 91.7421C44.7268 91.583 44.9125 91.4505 45.0717 91.3445C45.1247 91.2915 45.2043 91.265 45.2574 91.212C44.7003 90.8939 44.1432 90.5494 43.5861 90.2048C43.3208 90.0458 43.082 89.8868 42.8167 89.7278C42.1535 89.3037 41.5168 88.8531 40.8801 88.4026C40.7475 88.3231 40.6148 88.2171 40.5087 88.1375C40.3761 88.0315 40.2699 87.952 40.1373 87.846C39.7659 87.5545 39.3945 87.2629 39.0231 86.9714C38.917 86.8654 38.7843 86.7858 38.6782 86.6798C38.6782 86.6798 38.6517 86.6798 38.6517 86.6533C38.5455 86.5473 38.4129 86.4678 38.3068 86.3618C36.5293 84.8511 34.8845 83.1813 33.452 81.3526C33.3459 81.22 33.2663 81.0875 33.1602 80.9815C32.6826 80.3454 32.2051 79.6828 31.7806 78.9937C31.7011 78.8612 31.5949 78.7287 31.5154 78.5962C31.4358 78.4637 31.3562 78.3046 31.2501 78.1721C31.1705 78.0396 31.0909 77.9071 31.0113 77.748C30.8256 77.43 30.6664 77.112 30.4807 76.7939C30.4277 76.6879 30.3746 76.5554 30.295 76.4494C30.2154 76.2903 30.1358 76.1578 30.0828 75.9988C30.0032 75.8398 29.9236 75.7073 29.8706 75.5482C29.791 75.3892 29.7379 75.2567 29.6583 75.0977C29.5257 74.8061 29.4196 74.5411 29.2869 74.2496C29.2073 74.064 29.1277 73.8785 29.0747 73.693C29.0482 73.587 28.9951 73.5074 28.9686 73.4014C28.9155 73.2954 28.889 73.1629 28.8359 73.0569C28.7829 72.9244 28.7298 72.7653 28.6768 72.6063C28.5176 72.1027 28.3584 71.5992 28.1992 71.0956C28.1462 70.9366 28.1196 70.8041 28.0931 70.645C28.0401 70.4595 28.0135 70.3005 27.9605 70.115C27.9339 69.9559 27.8809 69.8234 27.8544 69.6644C27.8278 69.5319 27.8013 69.3994 27.7482 69.2403C27.7217 69.0548 27.6686 68.8958 27.6421 68.7103C27.6156 68.5247 27.5891 68.3657 27.536 68.1802C27.085 65.5563 26.9258 62.7204 27.1381 59.646C27.2177 58.4533 27.3238 57.2871 27.4564 56.174C27.5095 55.7764 27.536 55.3788 27.5891 54.9813C27.6421 54.5307 27.6952 54.0802 27.7748 53.6561C27.8013 53.3911 27.8544 53.0995 27.9074 52.8345C28.1992 51.0587 28.5176 49.336 28.9155 47.6662C28.9155 47.6662 28.9155 47.6662 28.9155 47.6397C29.34 45.7845 29.8706 44.0087 30.4277 42.3125C38.9965 16.5773 61.7319 7.85753 81.2307 7.672C81.7879 7.672 83.8306 7.6455 84.2816 7.61899C105.266 7.16843 130.442 16.4713 138.136 46.6326C138.189 46.8181 138.242 47.0036 138.268 47.1892C138.931 49.8661 139.462 52.702 139.833 55.6969C139.939 56.4655 140.019 57.2606 140.099 58.0557C140.125 58.2943 140.152 58.5328 140.152 58.7448C140.178 58.9569 140.178 59.1424 140.205 59.3544C140.205 59.3809 140.205 59.4074 140.205 59.4339C140.205 59.4339 140.205 59.4604 140.205 59.4869C140.231 59.699 140.231 59.911 140.231 60.123C140.231 60.176 140.231 60.2555 140.231 60.3351C140.231 60.5471 140.258 60.7326 140.258 60.9446C140.258 60.9976 140.258 61.0507 140.258 61.1037C140.258 61.3157 140.258 61.5807 140.258 61.8193Z" fill="#B6724D"/>
<path d="M140.258 61.8217C140.258 62.0602 140.258 62.3253 140.258 62.5638V62.6168C140.258 62.8554 140.231 63.1204 140.231 63.3589C140.231 63.571 140.205 63.7565 140.205 63.9685C140.205 64.0745 140.205 64.154 140.178 64.2336C140.152 64.4191 140.152 64.6046 140.125 64.8166C140.125 64.8431 140.125 64.8431 140.125 64.8696C140.099 65.1082 140.072 65.3467 140.046 65.5852C140.019 65.7973 139.993 66.0358 139.966 66.2478C139.966 66.3009 139.939 66.3274 139.939 66.3804C139.913 66.5924 139.886 66.8044 139.833 67.0165C139.807 67.2285 139.754 67.4405 139.727 67.626C139.701 67.7056 139.701 67.7851 139.674 67.8646C139.648 68.0501 139.621 68.2091 139.568 68.3947C139.568 68.4212 139.568 68.4212 139.568 68.4477C139.515 68.6597 139.462 68.8982 139.435 69.1103C139.382 69.3223 139.329 69.5608 139.276 69.7729C139.223 69.9849 139.17 70.2234 139.091 70.4355C139.037 70.6475 138.958 70.8595 138.905 71.0715C138.905 71.098 138.905 71.1245 138.878 71.1245C138.825 71.3101 138.772 71.4956 138.693 71.6811C138.666 71.7341 138.666 71.7871 138.64 71.8402C138.586 71.9992 138.533 72.1847 138.454 72.3437C138.374 72.5558 138.295 72.7678 138.215 72.9798C138.029 73.4304 137.844 73.8809 137.658 74.3315C137.578 74.4905 137.525 74.6496 137.446 74.8086C136.703 76.3988 135.827 77.883 134.846 79.2877C134.766 79.3937 134.713 79.4998 134.634 79.5793C134.554 79.6853 134.501 79.7913 134.421 79.8708C134.289 80.0563 134.156 80.2154 134.024 80.4009C133.652 80.878 133.254 81.355 132.856 81.8321C132.777 81.9381 132.697 82.0176 132.591 82.1236C132.458 82.2561 132.352 82.3887 132.22 82.5212C132.14 82.6272 132.034 82.7332 131.954 82.8127C131.742 83.0513 131.53 83.2898 131.291 83.5018C131.185 83.6078 131.079 83.7139 130.999 83.7934C130.999 83.8199 130.973 83.8199 130.946 83.8464C130.813 83.9789 130.654 84.1379 130.522 84.2704C130.495 84.2969 130.495 84.2969 130.469 84.3235C130.309 84.456 130.177 84.615 130.018 84.7475C129.832 84.9065 129.673 85.0656 129.487 85.2511C129.354 85.3571 129.222 85.4896 129.089 85.5956C128.373 86.2052 127.657 86.7883 126.914 87.3449C126.755 87.4509 126.622 87.5569 126.463 87.6894C126.304 87.7954 126.144 87.928 125.985 88.034C125.906 88.087 125.826 88.14 125.746 88.2195C125.587 88.3255 125.428 88.4315 125.269 88.5641C124.685 88.9616 124.102 89.3327 123.491 89.7037C123.332 89.8097 123.173 89.8893 123.04 89.9953C122.855 90.1013 122.669 90.2338 122.483 90.3398C122.324 90.4193 122.165 90.5253 122.032 90.6049C121.873 90.6844 121.741 90.7904 121.581 90.8699C121.502 90.9229 121.449 90.9494 121.369 91.0024C121.183 91.1084 120.998 91.2144 120.786 91.3205C119.83 91.8505 118.875 92.3276 117.894 92.8047L119.114 95.6936H59.2912C57.0628 93.8648 55.6037 92.6456 55.6037 92.6456C55.6037 92.6456 48.0164 91.612 41.3046 94.6864C41.6229 94.3419 41.9413 94.0238 42.2331 93.7323C42.3923 93.5733 42.5514 93.4408 42.7106 93.2817C43.1881 92.8577 43.6126 92.4601 44.0371 92.1421C44.1432 92.0361 44.2758 91.9566 44.3819 91.877C44.435 91.824 44.488 91.7975 44.5411 91.7445C44.7268 91.5855 44.9125 91.453 45.0717 91.347C45.1247 91.294 45.2043 91.2675 45.2574 91.2144C44.7003 90.8964 44.1432 90.5518 43.5861 90.2073C43.3208 90.0483 43.082 89.8893 42.8167 89.7302C42.1535 89.3062 41.5168 88.8556 40.8801 88.405C40.7475 88.3255 40.6148 88.2195 40.5087 88.14C40.3761 88.034 40.2699 87.9545 40.1373 87.8485C39.7659 87.5569 39.3945 87.2654 39.0231 86.9738C38.917 86.8678 38.7843 86.7883 38.6782 86.6823C38.6782 86.6823 38.6517 86.6823 38.6517 86.6558C38.5455 86.5498 38.4129 86.4703 38.3068 86.3642C36.5293 84.8535 34.8845 83.1838 33.452 81.355C33.3459 81.2225 33.2663 81.09 33.1602 80.984C32.6826 80.3479 32.2051 79.6853 31.7806 78.9962C31.7011 78.8637 31.5949 78.7311 31.5154 78.5986C31.4358 78.4661 31.3562 78.3071 31.2501 78.1746C31.1705 78.042 31.0909 77.9095 31.0113 77.7505C30.8256 77.4325 30.6664 77.1144 30.4807 76.7964C30.4277 76.6904 30.3746 76.5578 30.295 76.4518C30.2154 76.2928 30.1358 76.1603 30.0828 76.0013C30.0032 75.8422 29.9236 75.7097 29.8706 75.5507C29.791 75.3917 29.7379 75.2591 29.6583 75.1001C29.5257 74.8086 29.4196 74.5435 29.2869 74.252C29.2073 74.0665 29.1277 73.8809 29.0747 73.6954C29.0482 73.5894 28.9951 73.5099 28.9686 73.4039C28.9155 73.2979 28.889 73.1653 28.8359 73.0593C28.7829 72.9268 28.7298 72.7678 28.6768 72.6088C28.5176 72.1052 28.3584 71.6016 28.1992 71.098C28.1462 70.939 28.1196 70.8065 28.0931 70.6475C28.0401 70.462 28.0135 70.3029 27.9605 70.1174C27.9339 69.9584 27.8809 69.8259 27.8544 69.6668C27.8278 69.5343 27.8013 69.4018 27.7482 69.2428C27.7217 69.0573 27.6686 68.8982 27.6421 68.7127C27.6156 68.5272 27.5891 68.3682 27.536 68.1826C27.085 65.5587 26.9258 62.7228 27.1381 59.6484C27.2177 58.4557 27.3238 57.2896 27.4564 56.1764C27.5095 55.7788 27.536 55.3813 27.5891 54.9837C27.6421 54.5332 27.6952 54.0826 27.7748 53.6585C27.8013 53.3935 27.8544 53.102 27.9074 52.8369C27.9339 53.102 27.987 53.367 28.0401 53.6585C29.844 64.1805 38.8108 86.2317 82.3715 86.6028C127.948 87.0003 137.738 64.8696 139.807 55.8318C139.913 56.6005 139.993 57.3956 140.072 58.1907C140.099 58.4292 140.125 58.6678 140.125 58.8798C140.152 59.0918 140.152 59.2773 140.178 59.4894C140.178 59.5159 140.178 59.5424 140.178 59.5689C140.178 59.5689 140.178 59.5954 140.178 59.6219C140.205 59.8339 140.205 60.046 140.205 60.258C140.205 60.311 140.205 60.3905 140.205 60.47C140.205 60.682 140.231 60.8676 140.231 61.0796C140.231 61.1326 140.231 61.1856 140.231 61.2386C140.258 61.3181 140.258 61.5832 140.258 61.8217Z" fill="#945339"/>
<path d="M139.836 55.6997C139.942 56.4683 140.021 57.2635 140.101 58.0586C140.127 58.2971 140.154 58.5091 140.154 58.7477C140.181 58.9597 140.181 59.1452 140.207 59.3573C140.207 59.3838 140.207 59.4103 140.207 59.4368C135.724 76.5052 122.167 97.5227 82.7451 95.3229C41.3598 93.0171 30.3237 72.6887 27.7769 58.1116C27.6443 57.4225 27.5647 56.7599 27.4851 56.0973C27.5382 55.6997 27.5912 55.3022 27.6178 54.9046C27.6708 54.4541 27.7239 54.0035 27.8035 53.5794C27.8565 53.3144 27.883 53.0229 27.9361 52.7578C27.9626 53.0229 28.0157 53.2879 28.0687 53.5794C29.8727 64.1014 38.8395 86.1526 82.4002 86.5237C127.977 86.8682 137.74 64.7375 139.836 55.6997Z" fill="#AD6946"/>
<path d="M138.138 46.6326C129.834 24.9525 112.352 7.22143 69.0829 12.5487C45.3128 15.4641 34.993 34.2818 30.4301 42.233C38.9989 16.5773 61.7343 7.85753 81.2332 7.672C81.7903 7.672 83.833 7.6455 84.284 7.61899C105.268 7.16843 130.418 16.4713 138.138 46.6326Z" fill="#D59A77"/>
<path d="M84.2616 75.5196C96.0989 75.3879 105.607 67.4383 105.5 57.7638C105.392 48.0893 95.7082 40.3533 83.8709 40.4851C72.0336 40.6168 62.5251 48.5664 62.633 58.2409C62.7408 67.9154 72.4243 75.6514 84.2616 75.5196Z" fill="#AD6946"/>
<path d="M84.1831 81.9058C96.0936 81.7733 105.662 73.8231 105.554 64.1486C105.446 54.474 95.703 46.7388 83.7924 46.8713C71.8819 47.0039 62.3139 54.9541 62.4218 64.6286C62.5296 74.3031 72.2725 82.0384 84.1831 81.9058Z" fill="#945339"/>
<path d="M106.434 61.0787C106.487 66.2734 104.179 71.0176 100.226 74.4896C96.2735 77.9616 90.7024 80.1614 84.2028 80.2144C68.7894 80.3734 61.8388 71.9452 61.7327 61.5557C61.7327 60.9196 61.7592 60.3101 61.8123 59.7005C62.2102 55.2478 64.1733 51.1928 67.1446 48.1713C68.0996 47.1907 69.1608 46.3161 70.3281 45.574C73.2463 43.6657 76.7216 42.526 80.4622 42.473L87.3332 42.3935C91.0473 42.3405 94.5491 43.4006 97.4938 45.2559C101.738 47.9063 104.895 52.1999 106.01 57.2356C106.248 58.4813 106.408 59.7535 106.434 61.0787Z" fill="#DCBD8A"/>
<path d="M105.979 57.2355C104.52 66.9624 95.2087 74.516 83.8542 74.6485C73.2957 74.7545 64.3554 68.4201 61.8086 59.7268C62.2065 55.2742 64.1697 51.2191 67.1409 48.1977C68.096 47.2171 69.1571 46.3424 70.3244 45.6003C73.2426 43.692 76.7179 42.5524 80.4585 42.4994L87.3295 42.4199C91.0436 42.3669 94.5454 43.427 97.4901 45.2823C101.708 47.9062 104.865 52.1998 105.979 57.2355Z" fill="#ECD09C"/>
<path d="M83.672 60.4426C83.4598 60.4426 83.2741 60.2571 83.2741 60.0451L83.1415 50.1856C83.1415 49.9736 83.3272 49.7881 83.5394 49.7881C83.7516 49.7881 83.9373 49.9736 83.9373 50.1856L84.0699 60.0451C84.0699 60.2571 83.8843 60.4426 83.672 60.4426Z" fill="#43281F"/>
<path d="M97.4671 45.2563C96.7773 46.979 95.7692 48.5427 94.4693 49.8149C92.0286 52.2003 88.5533 53.658 83.9903 53.711C79.109 53.764 75.448 52.2268 72.9808 49.6559C71.84 48.4897 70.9646 47.085 70.3279 45.5478C73.2461 43.6395 77.2785 42.1288 83.5128 42.0493C91.1001 41.9963 94.5224 43.401 97.4671 45.2563Z" fill="#5C392B"/>
<path d="M94.4687 49.8168C92.028 52.2021 88.5527 53.6598 83.9897 53.7128C79.1083 53.7658 75.4473 52.2286 72.9801 49.6577C73.3515 49.0216 73.8025 48.4386 74.3066 47.9085C75.8187 46.3448 77.941 45.3641 80.2756 45.3376L86.8548 45.2581C90.1444 45.2316 93.0361 47.0869 94.4687 49.8168Z" fill="#43281F"/>
<path d="M76.509 45.2042C76.8008 45.0717 77.0661 44.9657 77.3314 44.8862C77.5967 44.7801 77.8885 44.7006 78.1538 44.6211C78.7109 44.4621 79.268 44.3296 79.8516 44.1971C80.9924 43.9585 82.1331 43.826 83.3269 43.7465C84.4942 43.6935 85.688 43.72 86.8553 43.879C88.0226 44.038 89.2164 44.3296 90.3306 44.8331C90.8612 45.0717 91.0999 45.7078 90.8612 46.2378C90.6755 46.6354 90.3041 46.8739 89.8796 46.8739H89.8266C88.7654 46.8739 87.7042 46.8474 86.6696 46.8474C85.6084 46.8739 84.5473 46.9004 83.4861 46.9534L80.2496 47.139L78.6313 47.2185C78.366 47.2185 78.0742 47.245 77.8089 47.245C77.5436 47.245 77.2518 47.2715 76.9865 47.2715H76.9334C76.3498 47.2715 75.8723 46.7944 75.8988 46.2113C75.8723 45.7343 76.1376 45.3632 76.509 45.2042Z" fill="white"/>
<path d="M83.4327 60.5773C80.037 60.5773 76.7739 59.4376 74.2271 57.3704C74.0679 57.2378 74.0414 56.9728 74.174 56.8138C74.3067 56.6548 74.572 56.6282 74.7312 56.7608C77.1188 58.722 80.1961 59.7822 83.4327 59.7822C83.4857 59.7822 83.5388 59.7822 83.5918 59.7822C86.7753 59.7557 89.8262 58.669 92.1872 56.7343C92.3464 56.6017 92.6117 56.6282 92.7444 56.7873C92.877 56.9463 92.8505 57.2113 92.6913 57.3439C90.1976 59.3846 86.961 60.5243 83.6184 60.5773C83.5388 60.5773 83.4857 60.5773 83.4327 60.5773Z" fill="#43281F"/>
<path d="M60.1938 77.0068C59.504 77.4044 58.9735 78.067 58.7612 78.9151H60.2203L60.1938 77.0068Z" fill="white"/>
<path d="M62.2104 76.5844C61.5737 76.5049 60.9636 76.6109 60.433 76.876H62.2104V76.5844Z" fill="#71495A"/>
<path d="M63.2996 76.8472C63.0608 76.7677 62.7956 76.7147 62.5568 76.6352C62.4507 76.6087 62.318 76.5822 62.2119 76.5557V76.8207L63.2996 76.8472Z" fill="#D8BFB4"/>
<path d="M62.2112 78.8619L62.1846 76.8477H60.4072C60.3276 76.8742 60.248 76.9272 60.1949 76.9537L60.2215 78.8354L62.2112 78.8619Z" fill="#D8BFB4"/>
<path d="M62.2119 78.8631L64.2281 78.8366V77.0873C63.9363 77.0078 63.618 76.9283 63.3261 76.8223H62.2119V78.8631Z" fill="white"/>
<path d="M66.2435 78.836V77.7229C65.6068 77.5108 64.917 77.2988 64.2273 77.1133V78.8625L66.2435 78.836Z" fill="#D8BFB4"/>
<path d="M68.2328 78.8358V78.4383C67.5961 78.1997 66.9063 77.9612 66.2166 77.7227V78.8358H68.2328Z" fill="white"/>
<path d="M69.2148 78.8369C68.8965 78.7044 68.5516 78.5718 68.2333 78.4658V78.8634L69.2148 78.8369Z" fill="#D8BFB4"/>
<path d="M100.36 78.2275C100.042 78.3601 99.7232 78.4661 99.4314 78.5986H100.36V78.2275Z" fill="white"/>
<path d="M102.35 78.5964V77.5098C101.66 77.7483 100.997 77.9868 100.36 78.2519V78.6229L102.35 78.5964Z" fill="#D8BFB4"/>
<path d="M104.366 78.5704V76.8477C103.676 77.0597 103.013 77.2717 102.376 77.5103V78.5969L104.366 78.5704Z" fill="white"/>
<path d="M106.356 76.291C106.249 76.3175 106.143 76.3175 106.037 76.344C105.772 76.4235 105.533 76.4765 105.294 76.556H106.356V76.291Z" fill="#71495A"/>
<path d="M108.187 76.5303C107.63 76.2652 106.993 76.1592 106.356 76.2652V76.5303H108.187Z" fill="#D8BFB4"/>
<path d="M106.381 78.57L106.355 76.5557H105.294C104.975 76.6352 104.657 76.7412 104.339 76.8472V78.57H106.381Z" fill="#D8BFB4"/>
<path d="M106.382 78.57L108.398 78.5435L108.372 76.6352C108.319 76.6087 108.266 76.5822 108.213 76.5557H106.382V78.57Z" fill="white"/>
<path d="M109.885 78.545C109.646 77.6969 109.089 77.0343 108.372 76.6367L108.399 78.545H109.885Z" fill="#D8BFB4"/>
<path d="M60.2206 78.8887H58.7615C58.7615 78.9152 58.7615 78.9417 58.735 78.9417C58.6023 79.4983 58.4697 80.1609 58.337 80.8765L60.1941 80.8499L60.2206 78.8887Z" fill="#D8BFB4"/>
<path d="M58.2323 81.75C58.1792 82.1211 58.1262 82.4921 58.0731 82.9162H58.2323V81.75Z" fill="#D8BFB4"/>
<path d="M60.2477 82.8903L60.2211 80.876L58.3641 80.9025C58.311 81.1675 58.2845 81.4591 58.2314 81.7506V82.9168L60.2477 82.8903Z" fill="white"/>
<path d="M62.2319 78.8831L60.2157 78.8975L60.23 80.9118L62.2463 80.8974L62.2319 78.8831Z" fill="#71495A"/>
<path d="M64.2479 78.8587L62.2317 78.873L62.246 80.8873L64.2622 80.873L64.2479 78.8587Z" fill="#D8BFB4"/>
<path d="M62.2319 80.8714L60.2157 80.8857L60.23 82.9L62.2463 82.8857L62.2319 80.8714Z" fill="#D8BFB4"/>
<path d="M64.2499 80.8734L62.2336 80.8877L62.248 82.902L64.2642 82.8877L64.2499 80.8734Z" fill="white"/>
<path d="M66.2372 78.8587L64.2209 78.873L64.2353 80.8873L66.2515 80.873L66.2372 78.8587Z" fill="#71495A"/>
<path d="M68.2545 78.8304L66.2383 78.8447L66.2526 80.859L68.2688 80.8447L68.2545 78.8304Z" fill="#D8BFB4"/>
<path d="M66.2645 80.845L64.2483 80.8594L64.2627 82.8737L66.2789 82.8593L66.2645 80.845Z" fill="#D8BFB4"/>
<path d="M68.2545 80.845L66.2383 80.8594L66.2526 82.8737L68.2689 82.8593L68.2545 80.845Z" fill="white"/>
<path d="M68.2589 80.8239L70.2751 80.7973V79.2336C69.9302 79.1011 69.5854 78.9421 69.2405 78.8096H68.2589V80.8239Z" fill="#71495A"/>
<path d="M72.2656 80.797V80.1609C71.6289 79.8428 70.9657 79.5513 70.2494 79.2598V80.8235L72.2656 80.797Z" fill="#D8BFB4"/>
<path d="M70.2702 80.8207L68.254 80.835L68.2683 82.8493L70.2845 82.835L70.2702 80.8207Z" fill="#D8BFB4"/>
<path d="M72.2866 80.8177L70.2704 80.832L70.2847 82.8463L72.3009 82.832L72.2866 80.8177Z" fill="white"/>
<path d="M73.5393 80.7992C73.1413 80.5871 72.6903 80.3751 72.2659 80.1631V80.7992H73.5393Z" fill="#71495A"/>
<path d="M72.2915 82.8113L74.3077 82.7848V81.1681C74.069 81.0355 73.8302 80.903 73.5649 80.7705H72.2915V82.8113Z" fill="#D8BFB4"/>
<path d="M76.2984 82.7846V82.3605C75.6617 81.963 74.9985 81.5919 74.2822 81.1943V82.8111L76.2984 82.7846Z" fill="white"/>
<path d="M76.9608 82.7844C76.7486 82.6519 76.5098 82.4929 76.2976 82.3604V82.7844H76.9608Z" fill="#D8BFB4"/>
<path d="M92.3487 82.2822C92.1365 82.4147 91.9242 82.5473 91.7385 82.6798H92.3487V82.2822Z" fill="white"/>
<path d="M96.3526 80.0029C95.9282 80.215 95.5302 80.427 95.1323 80.639H96.3526V80.0029Z" fill="#D8BFB4"/>
<path d="M94.3648 82.6527V81.0625C93.6485 81.4601 92.9853 81.8576 92.3751 82.2552V82.6527H94.3648Z" fill="#D8BFB4"/>
<path d="M96.3533 82.652L96.3268 80.6377H95.1064C94.8411 80.7702 94.5758 80.9292 94.3105 81.0617V82.652H96.3533Z" fill="white"/>
<path d="M98.3709 80.6126V79.0488C97.6811 79.3669 97.0179 79.6849 96.3812 80.003V80.6126H98.3709Z" fill="#71495A"/>
<path d="M100.361 80.611L100.334 78.5967H99.4058C99.0344 78.7557 98.6895 78.9147 98.3446 79.0472V80.611H100.361Z" fill="#D8BFB4"/>
<path d="M98.3663 80.6341L96.3501 80.6484L96.3644 82.6627L98.3807 82.6484L98.3663 80.6341Z" fill="#D8BFB4"/>
<path d="M100.382 80.6068L98.3654 80.6211L98.3797 82.6354L100.396 82.6211L100.382 80.6068Z" fill="white"/>
<path d="M102.372 78.5921L100.356 78.6064L100.37 80.6207L102.387 80.6064L102.372 78.5921Z" fill="#71495A"/>
<path d="M104.388 78.5668L102.372 78.5811L102.386 80.5953L104.402 80.581L104.388 78.5668Z" fill="#D8BFB4"/>
<path d="M102.372 80.6068L100.356 80.6211L100.37 82.6354L102.387 82.6211L102.372 80.6068Z" fill="#D8BFB4"/>
<path d="M104.388 80.5794L102.372 80.5938L102.386 82.608L104.402 82.5937L104.388 80.5794Z" fill="white"/>
<path d="M106.376 78.5638L104.36 78.5781L104.375 80.5924L106.391 80.578L106.376 78.5638Z" fill="#71495A"/>
<path d="M108.394 78.5403L106.378 78.5547L106.392 80.569L108.409 80.5546L108.394 78.5403Z" fill="#D8BFB4"/>
<path d="M106.403 80.5813L104.387 80.5957L104.402 82.61L106.418 82.5956L106.403 80.5813Z" fill="#D8BFB4"/>
<path d="M108.394 80.555L106.378 80.5693L106.392 82.5836L108.409 82.5693L108.394 80.555Z" fill="white"/>
<path d="M108.399 80.5602L110.309 80.5337C110.176 79.8181 110.044 79.1555 109.885 78.5989C109.885 78.5724 109.885 78.5459 109.858 78.5459H108.372L108.399 80.5602Z" fill="#71495A"/>
<path d="M108.398 82.5457L110.415 82.5192V81.035C110.388 80.8494 110.362 80.6904 110.335 80.5049L108.425 80.5314L108.398 82.5457Z" fill="#D8BFB4"/>
<path d="M110.626 82.5467C110.546 82.0166 110.493 81.5396 110.413 81.0625V82.5467H110.626Z" fill="white"/>
<path d="M58.2331 82.917H58.0739C57.9943 83.5531 57.9412 84.2157 57.8882 84.9313H58.2331V82.917Z" fill="#71495A"/>
<path d="M60.2425 82.9134L58.2263 82.9277L58.2407 84.942L60.2569 84.9277L60.2425 82.9134Z" fill="#D8BFB4"/>
<path d="M58.2583 84.9053H57.9134C57.8604 85.5414 57.8339 86.204 57.8339 86.9196H58.2849L58.2583 84.9053Z" fill="#D8BFB4"/>
<path d="M60.2679 84.9007L58.2517 84.915L58.2661 86.9293L60.2823 86.915L60.2679 84.9007Z" fill="white"/>
<path d="M62.2599 82.886L60.2437 82.9004L60.258 84.9147L62.2742 84.9003L62.2599 82.886Z" fill="#71495A"/>
<path d="M64.2751 82.8597L62.2589 82.874L62.2733 84.8883L64.2895 84.874L64.2751 82.8597Z" fill="#D8BFB4"/>
<path d="M62.2599 84.9007L60.2437 84.915L60.258 86.9293L62.2742 86.915L62.2599 84.9007Z" fill="#D8BFB4"/>
<path d="M64.2751 84.8724L62.2589 84.8867L62.2733 86.901L64.2895 86.8866L64.2751 84.8724Z" fill="white"/>
<path d="M66.2645 82.8597L64.2483 82.874L64.2626 84.8883L66.2788 84.874L66.2645 82.8597Z" fill="#71495A"/>
<path d="M68.281 82.8343L66.2648 82.8486L66.2791 84.8629L68.2954 84.8486L68.281 82.8343Z" fill="#D8BFB4"/>
<path d="M66.2912 84.8724L64.275 84.8867L64.2894 86.901L66.3056 86.8867L66.2912 84.8724Z" fill="#D8BFB4"/>
<path d="M68.281 84.849L66.2648 84.8633L66.2791 86.8776L68.2953 86.8633L68.281 84.849Z" fill="white"/>
<path d="M70.2971 82.8343L68.2809 82.8486L68.2952 84.8629L70.3114 84.8486L70.2971 82.8343Z" fill="#71495A"/>
<path d="M72.2866 82.807L70.2704 82.8213L70.2847 84.8356L72.3009 84.8212L72.2866 82.807Z" fill="#D8BFB4"/>
<path d="M70.2971 84.8489L68.2809 84.8633L68.2952 86.8776L70.3114 86.8632L70.2971 84.8489Z" fill="#D8BFB4"/>
<path d="M72.3133 84.8196L70.2971 84.834L70.3115 86.8483L72.3277 86.8339L72.3133 84.8196Z" fill="white"/>
<path d="M74.3038 82.807L72.2876 82.8213L72.3019 84.8356L74.3181 84.8213L74.3038 82.807Z" fill="#71495A"/>
<path d="M76.3189 82.7806L74.3027 82.7949L74.3171 84.8092L76.3333 84.7948L76.3189 82.7806Z" fill="#D8BFB4"/>
<path d="M74.3014 84.7953L72.2852 84.8096L72.2995 86.8239L74.3157 86.8096L74.3014 84.7953Z" fill="#D8BFB4"/>
<path d="M76.3189 84.7933L74.3027 84.8076L74.3171 86.8219L76.3333 86.8076L76.3189 84.7933Z" fill="white"/>
<path d="M76.2976 84.7975L78.3138 84.771V83.6843C77.8894 83.3928 77.4384 83.0747 76.9608 82.7832H76.2976V84.7975Z" fill="#71495A"/>
<path d="M79.772 84.7712C79.321 84.4267 78.8434 84.0556 78.3129 83.6846V84.7712H79.772Z" fill="#D8BFB4"/>
<path d="M78.3344 84.7679L76.3182 84.7822L76.3326 86.7965L78.3488 86.7822L78.3344 84.7679Z" fill="#D8BFB4"/>
<path d="M78.3408 86.7869L80.357 86.7604V85.1967C80.1713 85.0641 79.9856 84.9051 79.7999 84.7461H78.3408V86.7869Z" fill="white"/>
<path d="M82.082 86.7628C81.631 86.3387 81.0473 85.8087 80.3311 85.2256V86.7893L82.082 86.7628Z" fill="#D8BFB4"/>
<path d="M88.3417 85.1963C87.652 85.7794 87.0949 86.3095 86.6704 86.707H88.3683L88.3417 85.1963Z" fill="white"/>
<path d="M90.3564 83.6328C89.8524 84.0039 89.4014 84.3484 88.9769 84.693H90.383L90.3564 83.6328Z" fill="#71495A"/>
<path d="M92.3742 84.6676L92.3477 82.6533H91.7375C91.2335 82.9714 90.7825 83.3159 90.358 83.6075V84.6676H92.3742Z" fill="#D8BFB4"/>
<path d="M90.3841 86.7086L90.3575 84.6943H88.9515C88.7392 84.8534 88.527 85.0389 88.3413 85.1979V86.7086H90.3841Z" fill="#D8BFB4"/>
<path d="M92.3712 84.6888L90.355 84.7031L90.3693 86.7174L92.3855 86.7031L92.3712 84.6888Z" fill="white"/>
<path d="M94.3607 82.6497L92.3445 82.6641L92.3588 84.6783L94.3751 84.664L94.3607 82.6497Z" fill="#71495A"/>
<path d="M96.3758 82.6498L94.3596 82.6641L94.3739 84.6783L96.3901 84.664L96.3758 82.6498Z" fill="#D8BFB4"/>
<path d="M94.3851 84.6625L92.3689 84.6768L92.3832 86.6911L94.3994 86.6768L94.3851 84.6625Z" fill="#D8BFB4"/>
<path d="M96.4015 84.6624L94.3854 84.6768L94.3997 86.691L96.4158 86.6767L96.4015 84.6624Z" fill="white"/>
<path d="M98.3911 82.6214L96.3749 82.6357L96.3893 84.65L98.4055 84.6357L98.3911 82.6214Z" fill="#71495A"/>
<path d="M100.382 82.6204L98.3654 82.6348L98.3797 84.649L100.396 84.6347L100.382 82.6204Z" fill="#D8BFB4"/>
<path d="M98.3918 84.636L96.3756 84.6504L96.39 86.6647L98.4062 86.6503L98.3918 84.636Z" fill="#D8BFB4"/>
<path d="M100.408 84.6087L98.3915 84.623L98.4058 86.6373L100.422 86.623L100.408 84.6087Z" fill="white"/>
<path d="M102.396 82.5961L100.38 82.6104L100.395 84.6246L102.411 84.6103L102.396 82.5961Z" fill="#71495A"/>
<path d="M104.415 82.5941L102.399 82.6084L102.413 84.6227L104.429 84.6084L104.415 82.5941Z" fill="#D8BFB4"/>
<path d="M102.425 84.6087L100.408 84.623L100.423 86.6373L102.439 86.623L102.425 84.6087Z" fill="#D8BFB4"/>
<path d="M104.414 84.5823L102.398 84.5967L102.412 86.611L104.428 86.5966L104.414 84.5823Z" fill="white"/>
<path d="M106.403 82.5687L104.387 82.583L104.402 84.5973L106.418 84.583L106.403 82.5687Z" fill="#71495A"/>
<path d="M108.42 82.5677L106.404 82.582L106.418 84.5963L108.434 84.582L108.42 82.5677Z" fill="#D8BFB4"/>
<path d="M106.43 84.5823L104.414 84.5967L104.429 86.611L106.445 86.5966L106.43 84.5823Z" fill="#D8BFB4"/>
<path d="M108.446 84.556L106.43 84.5703L106.444 86.5846L108.461 86.5703L108.446 84.556Z" fill="white"/>
<path d="M110.437 82.5413L108.421 82.5557L108.435 84.5699L110.451 84.5556L110.437 82.5413Z" fill="#71495A"/>
<path d="M110.44 84.5338H110.838C110.785 83.8182 110.705 83.1556 110.626 82.5195H110.413L110.44 84.5338Z" fill="#D8BFB4"/>
<path d="M110.437 84.557L108.421 84.5713L108.435 86.5856L110.451 86.5712L110.437 84.557Z" fill="#D8BFB4"/>
<path d="M110.44 86.5485H110.944C110.917 85.8594 110.864 85.1703 110.811 84.5342H110.413L110.44 86.5485Z" fill="white"/>
<path d="M58.2583 86.9199H57.8073C57.7807 87.556 57.7807 88.2186 57.8073 88.9342H58.2848L58.2583 86.9199Z" fill="#71495A"/>
<path d="M60.2679 86.9154L58.2517 86.9297L58.2661 88.944L60.2823 88.9297L60.2679 86.9154Z" fill="#D8BFB4"/>
<path d="M58.2849 88.9355H57.8074C57.8074 89.0416 57.8074 89.1211 57.8074 89.2271C57.8074 89.8102 57.8074 90.3933 57.8339 90.9498H58.3115L58.2849 88.9355Z" fill="#D8BFB4"/>
<path d="M60.2951 88.93L58.2789 88.9443L58.2933 90.9586L60.3095 90.9443L60.2951 88.93Z" fill="white"/>
<path d="M62.2856 86.889L60.2694 86.9033L60.2838 88.9176L62.3 88.9033L62.2856 86.889Z" fill="#71495A"/>
<path d="M64.3017 86.889L62.2855 86.9033L62.2999 88.9176L64.3161 88.9033L64.3017 86.889Z" fill="#D8BFB4"/>
<path d="M62.3112 88.9017L60.295 88.916L60.3094 90.9303L62.3256 90.916L62.3112 88.9017Z" fill="#D8BFB4"/>
<path d="M64.301 88.8753L62.2848 88.8896L62.2992 90.9039L64.3153 90.8896L64.301 88.8753Z" fill="white"/>
<path d="M66.2912 86.8617L64.275 86.876L64.2893 88.8903L66.3055 88.876L66.2912 86.8617Z" fill="#71495A"/>
<path d="M68.3069 86.8617L66.2906 86.876L66.305 88.8903L68.3212 88.8759L68.3069 86.8617Z" fill="#D8BFB4"/>
<path d="M66.3162 88.8753L64.2999 88.8896L64.3143 90.9039L66.3305 90.8896L66.3162 88.8753Z" fill="#D8BFB4"/>
<path d="M68.3343 88.8489L66.3181 88.8633L66.3325 90.8776L68.3487 90.8632L68.3343 88.8489Z" fill="white"/>
<path d="M70.325 86.8352L68.3088 86.8496L68.3232 88.8639L70.3394 88.8495L70.325 86.8352Z" fill="#71495A"/>
<path d="M72.3133 86.8352L70.2971 86.8496L70.3115 88.8639L72.3277 88.8495L72.3133 86.8352Z" fill="#D8BFB4"/>
<path d="M70.3221 88.849L68.3059 88.8633L68.3202 90.8776L70.3364 90.8633L70.3221 88.849Z" fill="#D8BFB4"/>
<path d="M72.3402 88.8226L70.324 88.8369L70.3383 90.8512L72.3545 90.8369L72.3402 88.8226Z" fill="white"/>
<path d="M74.329 86.8089L72.3127 86.8232L72.3271 88.8375L74.3433 88.8232L74.329 86.8089Z" fill="#71495A"/>
<path d="M76.3462 86.8089L74.33 86.8232L74.3443 88.8375L76.3605 88.8232L76.3462 86.8089Z" fill="#D8BFB4"/>
<path d="M74.3309 88.8225L72.3147 88.8369L72.3291 90.8512L74.3453 90.8368L74.3309 88.8225Z" fill="#D8BFB4"/>
<path d="M76.3447 88.7962L74.3285 88.8105L74.3429 90.8248L76.3591 90.8105L76.3447 88.7962Z" fill="white"/>
<path d="M78.3344 86.7826L76.3182 86.7969L76.3326 88.8112L78.3488 88.7969L78.3344 86.7826Z" fill="#71495A"/>
<path d="M80.353 86.7562L78.3368 86.7705L78.3511 88.7848L80.3673 88.7705L80.353 86.7562Z" fill="#D8BFB4"/>
<path d="M78.3628 88.7962L76.3466 88.8105L76.3609 90.8248L78.3771 90.8105L78.3628 88.7962Z" fill="#D8BFB4"/>
<path d="M80.353 88.7698L78.3368 88.7842L78.3512 90.7985L80.3674 90.7841L80.353 88.7698Z" fill="white"/>
<path d="M80.3572 88.7761H82.1346V87.3979C82.1346 87.2389 82.1877 87.0799 82.3203 86.9474C82.2673 86.8944 82.1877 86.8149 82.1081 86.7354H80.3572V88.7761Z" fill="#71495A"/>
<path d="M82.1081 88.749L80.3572 88.7755V90.7898L82.1346 90.7633L82.1081 89.0936V88.749Z" fill="#D8BFB4"/>
<path d="M86.8042 87.3714V88.7496H88.396L88.3694 86.7354H86.6716C86.6185 86.7884 86.5655 86.8149 86.5389 86.8679C86.6981 86.9739 86.7777 87.1594 86.8042 87.3714Z" fill="#D8BFB4"/>
<path d="M86.8036 88.7217V89.0662V90.736L88.3954 90.7095L88.3688 88.7217H86.8036Z" fill="white"/>
<path d="M90.381 86.7025L88.3647 86.7168L88.3791 88.7311L90.3953 88.7168L90.381 86.7025Z" fill="#71495A"/>
<path d="M92.3969 86.677L90.3807 86.6914L90.3951 88.7057L92.4113 88.6913L92.3969 86.677Z" fill="#D8BFB4"/>
<path d="M90.4065 88.6908L88.3903 88.7051L88.4046 90.7194L90.4208 90.7051L90.4065 88.6908Z" fill="#D8BFB4"/>
<path d="M92.3969 88.6908L90.3807 88.7051L90.3951 90.7194L92.4112 90.7051L92.3969 88.6908Z" fill="white"/>
<path d="M94.3851 86.6771L92.3689 86.6914L92.3832 88.7057L94.3994 88.6914L94.3851 86.6771Z" fill="#71495A"/>
<path d="M96.4028 86.6488L94.3866 86.6631L94.4009 88.6774L96.4171 88.6631L96.4028 86.6488Z" fill="#D8BFB4"/>
<path d="M94.4125 88.6654L92.3964 88.6797L92.4107 90.694L94.4268 90.6797L94.4125 88.6654Z" fill="#D8BFB4"/>
<path d="M96.4274 88.6654L94.4111 88.6797L94.4255 90.694L96.4417 90.6796L96.4274 88.6654Z" fill="white"/>
<path d="M98.4188 86.6497L96.4026 86.6641L96.4169 88.6783L98.4331 88.664L98.4188 86.6497Z" fill="#71495A"/>
<path d="M100.409 86.6224L98.3932 86.6367L98.4076 88.651L100.424 88.6366L100.409 86.6224Z" fill="#D8BFB4"/>
<path d="M98.4188 88.638L96.4026 88.6523L96.4169 90.6666L98.4331 90.6523L98.4188 88.638Z" fill="#D8BFB4"/>
<path d="M100.434 88.638L98.418 88.6523L98.4323 90.6666L100.448 90.6523L100.434 88.638Z" fill="white"/>
<path d="M102.425 86.6224L100.408 86.6367L100.423 88.651L102.439 88.6367L102.425 86.6224Z" fill="#71495A"/>
<path d="M104.44 86.595L102.424 86.6094L102.438 88.6237L104.454 88.6093L104.44 86.595Z" fill="#D8BFB4"/>
<path d="M102.451 88.6117L100.435 88.626L100.449 90.6403L102.465 90.626L102.451 88.6117Z" fill="#D8BFB4"/>
<path d="M104.44 88.6116L102.424 88.626L102.438 90.6403L104.454 90.6259L104.44 88.6116Z" fill="white"/>
<path d="M106.43 86.5706L104.414 86.585L104.429 88.5992L106.445 88.5849L106.43 86.5706Z" fill="#71495A"/>
<path d="M108.446 86.5706L106.43 86.585L106.444 88.5993L108.461 88.5849L108.446 86.5706Z" fill="#D8BFB4"/>
<path d="M106.457 88.5853L104.44 88.5996L104.455 90.6139L106.471 90.5996L106.457 88.5853Z" fill="#D8BFB4"/>
<path d="M108.472 88.5853L106.456 88.5996L106.471 90.6139L108.487 90.5996L108.472 88.5853Z" fill="white"/>
<path d="M110.463 86.5443L108.447 86.5586L108.461 88.5729L110.478 88.5585L110.463 86.5443Z" fill="#71495A"/>
<path d="M110.467 88.5621H110.997C110.997 87.873 110.971 87.2104 110.971 86.5479H110.467V88.5621Z" fill="#D8BFB4"/>
<path d="M110.464 88.5579L108.448 88.5723L108.462 90.5866L110.478 90.5722L110.464 88.5579Z" fill="#D8BFB4"/>
<path d="M110.467 90.5514H110.997C110.997 89.9948 110.997 89.4382 110.997 88.8287C110.997 88.7226 110.997 88.6431 110.997 88.5371H110.467V90.5514Z" fill="white"/>
<path d="M58.2849 90.9219H57.8074C57.8339 91.611 57.8604 92.3001 57.9135 92.9362H58.3115L58.2849 90.9219Z" fill="#71495A"/>
<path d="M60.2964 90.9173L58.2802 90.9316L58.2945 92.9459L60.3107 92.9316L60.2964 90.9173Z" fill="#D8BFB4"/>
<path d="M58.3119 92.9355H57.9139C57.967 93.6511 58.0201 94.3137 58.0996 94.9498H58.3119V92.9355Z" fill="#D8BFB4"/>
<path d="M60.3222 92.93L58.306 92.9443L58.3203 94.9586L60.3365 94.9443L60.3222 92.93Z" fill="white"/>
<path d="M62.3112 90.9173L60.295 90.9316L60.3094 92.9459L62.3256 92.9316L62.3112 90.9173Z" fill="#71495A"/>
<path d="M64.3277 90.889L62.3115 90.9033L62.3259 92.9176L64.3421 92.9033L64.3277 90.889Z" fill="#D8BFB4"/>
<path d="M62.3375 92.9066L60.3213 92.9209L60.3356 94.9352L62.3518 94.9209L62.3375 92.9066Z" fill="#D8BFB4"/>
<path d="M64.3277 92.9066L62.3115 92.9209L62.3259 94.9352L64.3421 94.9209L64.3277 92.9066Z" fill="white"/>
<path d="M66.3175 90.889L64.3013 90.9033L64.3156 92.9176L66.3318 92.9033L66.3175 90.889Z" fill="#71495A"/>
<path d="M68.3343 90.8655L66.3181 90.8799L66.3325 92.8942L68.3487 92.8798L68.3343 90.8655Z" fill="#D8BFB4"/>
<path d="M66.3443 92.8782L64.3281 92.8926L64.3425 94.9069L66.3587 94.8925L66.3443 92.8782Z" fill="#D8BFB4"/>
<path d="M68.3606 92.8783L66.3444 92.8926L66.3587 94.9069L68.3749 94.8926L68.3606 92.8783Z" fill="white"/>
<path d="M70.3503 90.8353L68.3341 90.8496L68.3484 92.8639L70.3646 92.8496L70.3503 90.8353Z" fill="#71495A"/>
<path d="M72.3402 90.8382L70.324 90.8525L70.3383 92.8668L72.3545 92.8525L72.3402 90.8382Z" fill="#D8BFB4"/>
<path d="M70.3503 92.8519L68.3341 92.8662L68.3484 94.8805L70.3646 94.8662L70.3503 92.8519Z" fill="#D8BFB4"/>
<path d="M72.3662 92.8519L70.35 92.8662L70.3643 94.8805L72.3805 94.8662L72.3662 92.8519Z" fill="white"/>
<path d="M74.3554 90.8109L72.3392 90.8252L72.3536 92.8395L74.3698 92.8252L74.3554 90.8109Z" fill="#71495A"/>
<path d="M76.372 90.8099L74.3558 90.8242L74.3701 92.8385L76.3864 92.8242L76.372 90.8099Z" fill="#D8BFB4"/>
<path d="M74.3836 92.8255L72.3674 92.8398L72.3817 94.8541L74.398 94.8398L74.3836 92.8255Z" fill="#D8BFB4"/>
<path d="M76.372 92.8255L74.3558 92.8398L74.3702 94.8541L76.3864 94.8398L76.372 92.8255Z" fill="white"/>
<path d="M78.3628 90.7854L76.3466 90.7998L76.3609 92.8141L78.3771 92.7997L78.3628 90.7854Z" fill="#71495A"/>
<path d="M80.379 90.7855L78.3628 90.7998L78.3771 92.8141L80.3933 92.7998L80.379 90.7855Z" fill="#D8BFB4"/>
<path d="M76.3777 92.8027L76.4042 94.817H77.9429C78.1021 94.711 78.2612 94.605 78.3939 94.499V92.8292L76.3777 92.8027Z" fill="#D8BFB4"/>
<path d="M78.3667 92.8029V94.4726C79.136 93.916 79.7993 93.4125 80.3564 92.9089V92.7764L78.3667 92.8029Z" fill="white"/>
<path d="M82.1346 90.7617H80.3572L80.3837 92.776H80.5429C81.2857 92.1664 81.8428 91.6098 82.2673 91.1858C82.1877 91.0798 82.1346 90.9472 82.1346 90.7617Z" fill="#71495A"/>
<path d="M80.3839 92.9104C80.4376 92.8568 80.4912 92.8032 80.5449 92.7764H80.3839V92.9104Z" fill="#D8BFB4"/>
<path d="M88.3953 90.7109H86.8035V90.7374C86.8035 90.923 86.724 91.082 86.5913 91.2145C87.0158 91.6121 87.5729 92.1421 88.2626 92.7252H88.3687L88.3953 90.7109Z" fill="#D8BFB4"/>
<path d="M88.2889 92.7236C88.3152 92.7499 88.3678 92.7762 88.3941 92.8287V92.7236H88.2889Z" fill="white"/>
<path d="M90.4065 90.7044L88.3903 90.7188L88.4046 92.733L90.4208 92.7187L90.4065 90.7044Z" fill="#71495A"/>
<path d="M92.4216 90.7044L90.4054 90.7188L90.4198 92.733L92.436 92.7187L92.4216 90.7044Z" fill="#D8BFB4"/>
<path d="M88.4214 92.7236V92.8297C89.005 93.3067 89.6683 93.8103 90.4376 94.3669V92.7236H88.4214Z" fill="#D8BFB4"/>
<path d="M92.428 92.6973L90.4119 92.7238V94.367C90.571 94.473 90.7567 94.6055 90.9424 94.7381H92.428V92.6973Z" fill="white"/>
<path d="M94.4408 90.6781L92.4246 90.6924L92.4389 92.7067L94.4552 92.6923L94.4408 90.6781Z" fill="#71495A"/>
<path d="M96.4273 90.6517L94.4111 90.666L94.4254 92.6803L96.4417 92.666L96.4273 90.6517Z" fill="#D8BFB4"/>
<path d="M94.4381 92.6937L92.4219 92.708L92.4362 94.7223L94.4524 94.708L94.4381 92.6937Z" fill="#D8BFB4"/>
<path d="M96.4557 92.6673L94.4395 92.6816L94.4538 94.6959L96.47 94.6816L96.4557 92.6673Z" fill="white"/>
<path d="M98.4459 90.6517L96.4297 90.666L96.444 92.6803L98.4603 92.666L98.4459 90.6517Z" fill="#71495A"/>
<path d="M100.461 90.6253L98.4449 90.6396L98.4593 92.6539L100.476 92.6396L100.461 90.6253Z" fill="#D8BFB4"/>
<path d="M98.4459 92.6673L96.4297 92.6816L96.4441 94.6959L98.4603 94.6816L98.4459 92.6673Z" fill="#D8BFB4"/>
<path d="M100.46 92.64L98.4438 92.6543L98.4582 94.6686L100.474 94.6543L100.46 92.64Z" fill="white"/>
<path d="M102.451 90.6253L100.435 90.6396L100.449 92.6539L102.465 92.6396L102.451 90.6253Z" fill="#71495A"/>
<path d="M104.467 90.599L102.451 90.6133L102.466 92.6276L104.482 92.6133L104.467 90.599Z" fill="#D8BFB4"/>
<path d="M102.477 92.64L100.46 92.6543L100.475 94.6686L102.491 94.6543L102.477 92.64Z" fill="#D8BFB4"/>
<path d="M104.466 92.6116L102.45 92.626L102.464 94.6403L104.48 94.6259L104.466 92.6116Z" fill="white"/>
<path d="M106.457 90.5999L104.44 90.6143L104.455 92.6285L106.471 92.6142L106.457 90.5999Z" fill="#71495A"/>
<path d="M108.474 90.5706L106.458 90.585L106.472 92.5992L108.488 92.5849L108.474 90.5706Z" fill="#D8BFB4"/>
<path d="M106.485 92.5882L104.469 92.6025L104.483 94.6168L106.499 94.6025L106.485 92.5882Z" fill="#D8BFB4"/>
<path d="M108.5 92.5863L106.484 92.6006L106.498 94.6149L108.514 94.6005L108.5 92.5863Z" fill="white"/>
<path d="M110.49 90.5706L108.474 90.585L108.488 92.5992L110.505 92.5849L110.49 90.5706Z" fill="#71495A"/>
<path d="M110.493 92.5641H110.944C110.971 91.928 110.997 91.2654 111.024 90.5498H110.493V92.5641Z" fill="#D8BFB4"/>
<path d="M110.488 92.5609L108.472 92.5752L108.486 94.5895L110.502 94.5752L110.488 92.5609Z" fill="#D8BFB4"/>
<path d="M110.493 94.5797H110.758C110.811 93.9436 110.864 93.281 110.918 92.5654H110.467L110.493 94.5797Z" fill="white"/>
<path d="M58.0983 94.9502C58.1779 95.5598 58.2574 96.1429 58.337 96.6994V94.9502H58.0983Z" fill="#71495A"/>
<path d="M60.3277 94.9238L58.3115 94.9503V96.6996C58.3381 96.7791 58.3381 96.8851 58.3646 96.9646L60.3277 96.9381V94.9238Z" fill="#D8BFB4"/>
<path d="M60.328 96.9375L58.3649 96.964C58.4975 97.7061 58.6302 98.3687 58.7628 98.9783H60.3545L60.328 96.9375Z" fill="white"/>
<path d="M62.3375 94.9202L60.3213 94.9346L60.3356 96.9489L62.3518 96.9345L62.3375 94.9202Z" fill="#71495A"/>
<path d="M64.3529 94.8929L62.3367 94.9072L62.351 96.9215L64.3672 96.9072L64.3529 94.8929Z" fill="#D8BFB4"/>
<path d="M62.3654 96.9329L60.3492 96.9473L60.3636 98.9615L62.3798 98.9472L62.3654 96.9329Z" fill="#D8BFB4"/>
<path d="M64.3529 96.9065L62.3367 96.9209L62.351 98.9352L64.3673 98.9208L64.3529 96.9065Z" fill="white"/>
<path d="M66.3443 94.8929L64.3281 94.9072L64.3424 96.9215L66.3586 96.9072L66.3443 94.8929Z" fill="#71495A"/>
<path d="M68.3615 94.8656L66.3453 94.8799L66.3597 96.8942L68.3759 96.8798L68.3615 94.8656Z" fill="#D8BFB4"/>
<path d="M66.3713 96.9066L64.3551 96.9209L64.3694 98.9352L66.3856 98.9209L66.3713 96.9066Z" fill="#D8BFB4"/>
<path d="M68.3862 96.8812L66.37 96.8955L66.3843 98.9098L68.4005 98.8955L68.3862 96.8812Z" fill="white"/>
<path d="M70.3767 94.8675L68.3605 94.8818L68.3749 96.8961L70.3911 96.8818L70.3767 94.8675Z" fill="#71495A"/>
<path d="M72.3662 94.8402L70.35 94.8545L70.3643 96.8688L72.3805 96.8545L72.3662 94.8402Z" fill="#D8BFB4"/>
<path d="M70.3757 96.8538L68.3595 96.8682L68.3738 98.8825L70.39 98.8681L70.3757 96.8538Z" fill="#D8BFB4"/>
<path d="M70.3835 96.8584L70.4101 98.8727H70.7815C71.3386 98.6077 71.8957 98.3691 72.4263 98.1041V96.8584H70.3835Z" fill="white"/>
<path d="M74.3836 94.8402L72.3674 94.8545L72.3818 96.8688L74.398 96.8545L74.3836 94.8402Z" fill="#71495A"/>
<path d="M74.3621 94.8174L74.3886 96.8317H74.7335C75.3171 96.4871 75.8742 96.1691 76.3783 95.8245V94.8174H74.3621Z" fill="#D8BFB4"/>
<path d="M72.3716 96.8584V98.1041C73.0879 97.7595 73.7511 97.3885 74.3613 97.0439V96.8584H72.3716Z" fill="#D8BFB4"/>
<path d="M74.3879 97.0195C74.4941 96.9665 74.6267 96.887 74.7328 96.834H74.3879V97.0195Z" fill="white"/>
<path d="M76.3777 95.8266C76.9348 95.4821 77.4389 95.1375 77.9164 94.793H76.3777V95.8266Z" fill="#71495A"/>
<path d="M90.9419 94.7109C91.4194 95.029 91.8969 95.347 92.4541 95.6916V94.7109H90.9419Z" fill="#D8BFB4"/>
<path d="M94.4444 94.6855L92.4282 94.712V95.6927C92.9588 96.0372 93.5424 96.3553 94.1526 96.6998H94.4444V94.6855Z" fill="#71495A"/>
<path d="M96.4557 94.68L94.4395 94.6943L94.4538 96.7086L96.47 96.6943L96.4557 94.68Z" fill="#D8BFB4"/>
<path d="M94.1519 96.6992C94.258 96.7522 94.3376 96.8052 94.4437 96.8582V96.6992H94.1519Z" fill="#D8BFB4"/>
<path d="M94.4694 96.6984V96.8574C95.106 97.2019 95.7693 97.5465 96.4855 97.891V96.6719L94.4694 96.6984Z" fill="white"/>
<path d="M98.4707 94.6527L96.4545 94.667L96.4688 96.6813L98.485 96.667L98.4707 94.6527Z" fill="#71495A"/>
<path d="M100.489 94.6527L98.4733 94.667L98.4876 96.6813L100.504 96.6669L100.489 94.6527Z" fill="#D8BFB4"/>
<path d="M98.4761 96.6719L96.4598 96.6984V97.9175C97.017 98.1826 97.5741 98.4476 98.1577 98.6862H98.4761V96.6719Z" fill="#D8BFB4"/>
<path d="M100.487 96.6429L98.4706 96.6572L98.4849 98.6715L100.501 98.6572L100.487 96.6429Z" fill="white"/>
<path d="M102.476 94.6263L100.46 94.6406L100.475 96.6549L102.491 96.6405L102.476 94.6263Z" fill="#71495A"/>
<path d="M104.494 94.6263L102.478 94.6406L102.492 96.6549L104.508 96.6406L104.494 94.6263Z" fill="#D8BFB4"/>
<path d="M102.504 96.6419L100.488 96.6562L100.502 98.6705L102.518 98.6562L102.504 96.6419Z" fill="#D8BFB4"/>
<path d="M104.494 96.6155L102.478 96.6299L102.492 98.6442L104.508 98.6298L104.494 96.6155Z" fill="white"/>
<path d="M106.51 94.6018L104.494 94.6162L104.509 96.6305L106.525 96.6161L106.51 94.6018Z" fill="#71495A"/>
<path d="M108.5 94.6018L106.484 94.6162L106.498 96.6305L108.514 96.6161L108.5 94.6018Z" fill="#D8BFB4"/>
<path d="M106.509 96.6146L104.493 96.6289L104.507 98.6432L106.524 98.6289L106.509 96.6146Z" fill="#D8BFB4"/>
<path d="M108.527 96.5882L106.51 96.6025L106.525 98.6168L108.541 98.6025L108.527 96.5882Z" fill="white"/>
<path d="M110.517 94.5736L108.501 94.5879L108.515 96.6022L110.532 96.5878L110.517 94.5736Z" fill="#71495A"/>
<path d="M110.52 96.567C110.627 95.9574 110.706 95.2683 110.786 94.5527H110.52V96.567Z" fill="#D8BFB4"/>
<path d="M108.503 96.5928L108.529 98.6071H110.174C110.307 98.024 110.413 97.3879 110.519 96.6723V96.5928H108.503Z" fill="#D8BFB4"/>
<path d="M60.353 98.9512H58.7612C58.8143 99.1367 58.8408 99.3222 58.8939 99.4812C59.0265 100.064 59.3449 100.568 59.7428 100.939H60.353V98.9512Z" fill="#D8BFB4"/>
<path d="M59.7433 100.94C59.929 101.126 60.1412 101.285 60.38 101.418V100.94H59.7433Z" fill="white"/>
<path d="M62.3654 98.9231L60.3492 98.9375L60.3636 100.952L62.3798 100.937L62.3654 98.9231Z" fill="#71495A"/>
<path d="M64.3808 98.9232L62.3646 98.9375L62.379 100.952L64.3952 100.937L64.3808 98.9232Z" fill="#D8BFB4"/>
<path d="M60.3804 100.941V101.418C60.964 101.762 61.6803 101.895 62.3966 101.789V100.914L60.3804 100.941Z" fill="#D8BFB4"/>
<path d="M62.3695 100.941V101.815C62.4756 101.789 62.6083 101.762 62.7144 101.736C63.2715 101.577 63.8286 101.418 64.3592 101.259V100.914L62.3695 100.941Z" fill="white"/>
<path d="M64.359 98.8994L64.3855 100.914H65.4732C65.7916 100.808 66.0834 100.702 66.4017 100.596V98.8994H64.359Z" fill="#71495A"/>
<path d="M66.3777 98.8996V100.596C67.0674 100.357 67.7307 100.119 68.3674 99.8537V98.873L66.3777 98.8996Z" fill="#D8BFB4"/>
<path d="M64.387 101.259C64.7584 101.153 65.1033 101.047 65.4747 100.914H64.387V101.259Z" fill="#D8BFB4"/>
<path d="M68.3928 98.873V99.8537C69.0826 99.5887 69.7458 99.2971 70.3825 99.0321V98.873H68.3928Z" fill="#71495A"/>
<path d="M70.3835 99.0321C70.5162 98.9791 70.6223 98.9261 70.755 98.873H70.3835V99.0321Z" fill="#D8BFB4"/>
<path d="M98.1835 98.6611C98.2896 98.7141 98.3957 98.7406 98.5018 98.7936V98.6611H98.1835Z" fill="#71495A"/>
<path d="M98.4751 98.6611V98.7937C99.1118 99.0587 99.8015 99.3502 100.491 99.6153V98.6611H98.4751Z" fill="#D8BFB4"/>
<path d="M100.494 98.6613V99.6154C101.13 99.8539 101.82 100.092 102.51 100.331V98.6348L100.494 98.6613Z" fill="#71495A"/>
<path d="M104.499 98.6348L102.482 98.6613V100.358C102.801 100.464 103.119 100.57 103.464 100.676H104.499V98.6348Z" fill="#D8BFB4"/>
<path d="M104.525 100.622H103.49C103.835 100.728 104.18 100.834 104.525 100.94V100.622Z" fill="white"/>
<path d="M106.536 98.6048L104.52 98.6191L104.534 100.633L106.55 100.619L106.536 98.6048Z" fill="#71495A"/>
<path d="M108.527 98.6048L106.51 98.6191L106.525 100.633L108.541 100.619L108.527 98.6048Z" fill="#D8BFB4"/>
<path d="M104.524 100.622V100.94C105.081 101.099 105.639 101.258 106.222 101.417C106.328 101.444 106.434 101.47 106.54 101.47V100.622H104.524Z" fill="#D8BFB4"/>
<path d="M106.541 100.622V101.47C107.258 101.576 107.947 101.444 108.557 101.099V100.596L106.541 100.622Z" fill="white"/>
<path d="M108.53 100.595H109.194C109.592 100.198 109.883 99.6942 110.016 99.1111C110.043 98.9521 110.096 98.7666 110.122 98.5811H108.477L108.53 100.595Z" fill="#71495A"/>
<path d="M108.528 101.099C108.767 100.967 109.006 100.781 109.192 100.596H108.528V101.099Z" fill="#D8BFB4"/>
<path d="M84.4431 87.557H85.8757C86.0083 87.4244 86.1409 87.2654 86.3532 87.0534C86.4062 87.0004 86.4593 86.9474 86.5389 86.8679C86.4328 86.7884 86.3001 86.7354 86.1409 86.7354H84.4431V87.557Z" fill="#71495A"/>
<path d="M86.3785 88.7236V87.0273C86.1928 87.2129 86.0336 87.3984 85.901 87.5309H84.4684V88.7236H86.3785Z" fill="#71495A"/>
<path d="M86.3793 88.7206H86.8037V87.3424C86.8037 87.1304 86.6976 86.9714 86.565 86.8389C86.5119 86.8919 86.4323 86.9714 86.3793 87.0244V88.7206Z" fill="#71495A"/>
<path d="M86.3807 88.7452L84.4706 88.7588L84.473 89.1034L86.3831 89.0898L86.3807 88.7452Z" fill="#71495A"/>
<path d="M86.8047 88.7216L86.3802 88.7246L86.3827 89.0691L86.8072 89.0661L86.8047 88.7216Z" fill="#71495A"/>
<path d="M86.1144 90.7366C85.9553 90.551 85.8226 90.4185 85.7165 90.3125H84.4431V91.3991H86.141C86.3002 91.3991 86.4593 91.3196 86.5654 91.2136C86.4858 91.1341 86.4063 91.0546 86.3532 91.0016C86.3001 90.9221 86.194 90.8161 86.1144 90.7366Z" fill="#D8BFB4"/>
<path d="M84.4684 89.0664V90.3121H85.7418C85.8214 90.4181 85.954 90.5506 86.1397 90.7361H86.405V89.0664H84.4684Z" fill="#D8BFB4"/>
<path d="M86.8001 89.0673L86.3756 89.0703L86.3875 90.7401L86.812 90.737L86.8001 89.0673Z" fill="#D8BFB4"/>
<path d="M86.3787 91.0014V90.7363H86.1134C86.193 90.8158 86.2991 90.9219 86.3787 91.0014Z" fill="#D8BFB4"/>
<path d="M86.8037 90.7628L86.3793 90.7363V91.0014C86.4589 91.0809 86.5119 91.1339 86.5915 91.2134C86.7507 91.1074 86.8303 90.9484 86.8037 90.7628Z" fill="#D8BFB4"/>
<path d="M82.3479 87.0269C82.5601 87.2389 82.7458 87.4244 82.8784 87.557H84.3641H84.4702V86.7354H82.7723C82.5866 86.7354 82.4274 86.8149 82.2948 86.9474C82.2948 86.9739 82.3213 87.0004 82.3479 87.0269Z" fill="#D8BFB4"/>
<path d="M82.1088 88.7476H82.3475V86.9983C82.321 86.9718 82.2945 86.9453 82.2945 86.9453C82.1884 87.0513 82.1088 87.2104 82.1088 87.3959V88.7476Z" fill="#D8BFB4"/>
<path d="M84.3626 87.5574H82.877C82.7444 87.4249 82.5587 87.2394 82.3464 87.0273V88.7766L84.3626 88.7501V87.5574Z" fill="#D8BFB4"/>
<path d="M82.3475 88.7483L82.1088 88.75L82.1112 89.0945L82.3499 89.0929L82.3475 88.7483Z" fill="#D8BFB4"/>
<path d="M84.3906 88.7447L82.3744 88.7588L82.3768 89.1033L84.393 89.0892L84.3906 88.7447Z" fill="#D8BFB4"/>
<path d="M84.4667 87.5569L84.3606 87.5576L84.3691 88.7503L84.4752 88.7495L84.4667 87.5569Z" fill="#D8BFB4"/>
<path d="M84.4689 88.7493L84.3628 88.75L84.3652 89.0945L84.4713 89.0938L84.4689 88.7493Z" fill="#D8BFB4"/>
<path d="M84.4688 90.3379H84.3626H83.0627C82.9831 90.4439 82.8505 90.5764 82.6913 90.762C82.6117 90.868 82.5056 90.974 82.373 91.08C82.3464 91.1065 82.3199 91.133 82.2668 91.186C82.373 91.345 82.5587 91.4245 82.7709 91.4245H84.4688V90.3379Z" fill="white"/>
<path d="M82.369 89.094L82.1302 89.0957L82.1421 90.7654L82.3809 90.7637L82.369 89.094Z" fill="white"/>
<path d="M82.3726 89.0938V90.7635H82.6909C82.8501 90.578 82.9827 90.4454 83.0623 90.3394H84.3622V89.0938H82.3726Z" fill="white"/>
<path d="M84.4663 89.0686L84.3601 89.0693L84.369 90.315L84.4751 90.3143L84.4663 89.0686Z" fill="white"/>
<path d="M82.3727 90.7617H82.1339V90.7882C82.1339 90.9472 82.187 91.0798 82.2666 91.1858C82.2931 91.1593 82.3462 91.1063 82.3727 91.0798V90.7617Z" fill="white"/>
<path d="M82.3726 91.0798C82.4787 90.9472 82.5848 90.8412 82.6909 90.7617H82.3726V91.0798Z" fill="white"/>
<path d="M45.5495 91.2417L45.2842 91.1092C44.7271 90.7912 44.1434 90.4466 43.6128 90.1286C43.3476 89.9696 43.1088 89.8105 42.8435 89.6515C42.1803 89.2275 41.5436 88.7769 40.9069 88.3263C40.7742 88.2468 40.6416 88.1408 40.5355 88.0613C40.4028 87.9553 40.2702 87.8758 40.1641 87.7697C39.7927 87.4782 39.4213 87.1867 39.0499 86.8951C38.9437 86.7891 38.8111 86.7096 38.705 86.6036L38.6784 86.5771C38.5723 86.4711 38.4397 86.3915 38.3336 86.2855C36.5561 84.7748 34.9113 83.1051 33.4788 81.2763C33.3726 81.1438 33.2931 81.0378 33.1869 80.9053C32.7094 80.2692 32.2319 79.6066 31.8074 78.9175C31.7278 78.785 31.6217 78.6524 31.5421 78.4934C31.4625 78.3609 31.383 78.2284 31.2768 78.0694C31.1973 77.9368 31.1177 77.7778 31.0381 77.6453C30.8524 77.3272 30.6932 77.0092 30.5075 76.6912C30.4544 76.5851 30.4014 76.4526 30.3218 76.3466C30.2422 76.1876 30.1626 76.0551 30.1096 75.896C30.03 75.737 29.9504 75.6045 29.8973 75.4455C29.8177 75.2865 29.7647 75.1539 29.6851 74.9949C29.5525 74.7034 29.4463 74.4383 29.3137 74.1468C29.2341 73.9613 29.1545 73.7757 29.1015 73.5902C29.0749 73.4842 29.0219 73.4047 28.9954 73.2987C28.9423 73.1927 28.9158 73.0601 28.8627 72.9541C28.8096 72.8216 28.7566 72.6626 28.7035 72.5036C28.5444 72 28.3852 71.4964 28.2525 70.9928C28.1995 70.8603 28.1729 70.7013 28.1464 70.5688C28.0934 70.3833 28.0668 70.2242 28.0138 70.0387C27.9872 69.8797 27.9342 69.7472 27.9077 69.5881C27.8811 69.4556 27.8546 69.2966 27.8281 69.1641C27.8015 68.9785 27.7485 68.8195 27.722 68.634C27.6954 68.4485 27.6424 68.2894 27.6158 68.1039C27.1648 65.48 27.0057 62.6441 27.2179 59.5697C27.2975 58.377 27.4036 57.2109 27.5363 56.0712C27.5893 55.6736 27.6424 55.2761 27.6689 54.8785C27.722 54.428 27.775 53.9774 27.8546 53.5533C27.9077 53.2883 27.9342 52.9968 27.9872 52.7317C28.2791 50.956 28.5974 49.2332 28.9954 47.5635C28.7035 48.9947 28.3587 51.062 28.1199 53.5268C27.9872 54.9315 27.8811 56.4688 27.8546 58.112C27.775 62.8562 28.2791 68.2894 30.2422 73.2457C34.0624 82.893 45.0985 91.3478 52.6062 92.1959C52.5266 92.1959 48.3615 92.3284 45.5495 91.2417Z" fill="#B6724D"/>
<path d="M139.835 55.6973C139.941 56.4659 140.021 57.261 140.1 58.0561C140.127 58.2947 140.153 58.5067 140.153 58.7453C140.18 58.9573 140.18 59.1428 140.206 59.3548C140.206 59.3813 140.206 59.4078 140.206 59.4343C140.206 59.4343 140.206 59.4608 140.206 59.4874C140.206 59.6994 140.233 59.9114 140.233 60.1234C140.233 60.1765 140.233 60.256 140.233 60.3355C140.233 60.5475 140.259 60.7595 140.259 60.9451C140.259 60.9981 140.259 61.0511 140.259 61.1041C140.259 61.3426 140.259 61.5812 140.259 61.8197C140.259 62.0582 140.259 62.3233 140.259 62.5618C140.259 62.5883 140.259 62.5883 140.259 62.6148C140.259 62.8533 140.233 63.1184 140.233 63.3569C140.233 63.5689 140.206 63.781 140.206 63.9665C140.206 64.0725 140.206 64.152 140.18 64.2315C140.153 64.4171 140.153 64.6026 140.127 64.8146C140.127 64.8411 140.127 64.8411 140.127 64.8676C140.1 65.1062 140.074 65.3447 140.047 65.5832C140.021 65.7953 139.994 66.0338 139.968 66.2458C139.968 66.2988 139.968 66.3253 139.941 66.3783C139.914 66.5904 139.888 66.8024 139.835 67.0144C139.808 67.2265 139.755 67.4385 139.729 67.624C139.702 67.7035 139.702 67.783 139.676 67.8626C139.649 68.0481 139.596 68.2071 139.57 68.3926C139.57 68.4191 139.57 68.4191 139.57 68.4456C139.517 68.6577 139.463 68.8962 139.41 69.1082C139.357 69.3468 139.304 69.5588 139.251 69.7708C139.198 69.9829 139.145 70.2214 139.066 70.4334C139.012 70.6455 138.933 70.8575 138.88 71.0695C138.88 71.096 138.88 71.096 138.853 71.1225C138.8 71.308 138.747 71.4936 138.668 71.6791C138.641 71.7321 138.641 71.7851 138.615 71.8381C138.561 71.9971 138.508 72.1827 138.429 72.3417C138.349 72.5537 138.27 72.7658 138.19 72.9778C138.004 73.4284 137.819 73.8789 137.633 74.3295C137.553 74.4885 137.5 74.6475 137.421 74.8066C136.678 76.3968 135.802 77.881 134.821 79.2857C134.741 79.3917 134.688 79.4977 134.609 79.5772C134.529 79.6833 134.476 79.7893 134.396 79.8688C134.264 80.0543 134.131 80.2133 133.998 80.3989C133.627 80.8759 133.229 81.353 132.831 81.8301C132.752 81.9361 132.672 82.0156 132.566 82.1216C132.433 82.2541 132.327 82.3866 132.195 82.5192C132.115 82.6252 132.009 82.7047 131.929 82.8107C131.717 83.0492 131.505 83.2613 131.266 83.4998C131.16 83.6058 131.054 83.7118 130.974 83.7913C130.974 83.8178 130.948 83.8178 130.921 83.8443C130.788 83.9769 130.629 84.1359 130.497 84.2684C130.47 84.2949 130.47 84.2949 130.444 84.3214C130.284 84.4539 130.152 84.613 129.993 84.7455C129.807 84.9045 129.648 85.0635 129.462 85.2225C129.329 85.3286 129.197 85.4611 129.064 85.5671C128.348 86.1767 127.632 86.7598 126.862 87.3163C126.703 87.4224 126.57 87.5284 126.411 87.6609C126.252 87.7669 126.093 87.8994 125.934 88.0054C125.854 88.0585 125.774 88.1115 125.695 88.1645C125.536 88.2705 125.377 88.403 125.217 88.509C124.66 88.8801 124.103 89.2511 123.546 89.5957L121.981 89.1186C134.237 82.0156 138.641 71.7851 139.331 62.3498C139.755 56.678 138.959 50.8736 138.27 47.1631C138.933 49.8665 139.463 52.7024 139.835 55.6973Z" fill="#B6724D"/>
<path d="M72.1348 39.8497C68.5534 40.4063 65.7944 41.4134 63.7251 42.3941C63.0884 42.7121 62.5313 43.0036 62.0273 43.2952C61.6028 42.8976 61.2314 42.4206 60.9396 41.8905C60.6478 41.3604 60.4621 40.7773 60.3559 40.1412C60.3029 39.7437 60.2764 39.3196 60.3029 38.9221C60.4355 37.1463 61.3906 35.5826 62.8497 34.655C63.4864 34.2574 64.2027 33.9924 64.972 33.8598L65.7944 33.7273C68.3942 33.3298 70.8614 34.814 71.7634 37.1728C71.9226 37.5439 72.0287 37.9414 72.0818 38.3655C72.1879 38.8691 72.1879 39.3726 72.1348 39.8497Z" fill="#333132"/>
<path d="M71.8145 37.1728C70.435 39.2401 68.0208 40.5918 65.2618 40.5918C63.4048 40.5918 61.6804 39.9557 60.3274 38.9221C60.46 37.1463 61.4151 35.5826 62.8742 34.655C63.5109 34.2574 64.2272 33.9924 64.9965 33.8598L65.8189 33.7273C68.4187 33.3298 70.886 34.814 71.8145 37.1728Z" fill="#272425"/>
<path d="M66.4473 37.7894C67.5047 37.6284 68.2348 36.6649 68.078 35.6375C67.9213 34.6101 66.937 33.9078 65.8796 34.0688C64.8223 34.2298 64.0922 35.1932 64.2489 36.2207C64.4057 37.2481 65.39 37.9504 66.4473 37.7894Z" fill="white"/>
<path d="M59.2933 45.7595C59.1872 45.786 59.0546 45.7329 58.975 45.6534C58.8158 45.4944 58.8158 45.2559 58.975 45.0969C59.1607 44.9113 63.3788 40.6972 72.7701 39.372C72.9823 39.3455 73.1945 39.5046 73.2211 39.7166C73.2476 39.9286 73.0884 40.1406 72.8762 40.1671C68.1275 40.8297 64.7583 42.2875 62.7421 43.4006C60.5932 44.5933 59.5321 45.6534 59.5321 45.6534C59.4525 45.7064 59.3729 45.7329 59.2933 45.7595Z" fill="#43281F"/>
<path d="M95.1866 39.8497C98.768 40.4063 101.527 41.4134 103.596 42.3941C104.233 42.7121 104.79 43.0036 105.294 43.2952C105.719 42.8976 106.09 42.4206 106.382 41.8905C106.674 41.3604 106.859 40.7773 106.965 40.1412C107.019 39.7437 107.045 39.3196 107.019 38.9221C106.886 37.1463 105.931 35.5826 104.472 34.655C103.835 34.2574 103.119 33.9924 102.349 33.8598L101.527 33.7273C98.9272 33.3298 96.46 34.814 95.558 37.1728C95.3988 37.5439 95.2927 37.9414 95.2396 38.3655C95.1335 38.8691 95.1335 39.3726 95.1866 39.8497Z" fill="#333132"/>
<path d="M95.5315 37.1728C96.911 39.2401 99.3252 40.5918 102.084 40.5918C103.941 40.5918 105.666 39.9557 107.019 38.9221C106.886 37.1463 105.931 35.5826 104.472 34.655C103.835 34.2574 103.119 33.9924 102.349 33.8598L101.527 33.7273C98.9007 33.3298 96.4335 34.814 95.5315 37.1728Z" fill="#272425"/>
<path d="M103.064 36.2316C103.221 35.2042 102.49 34.2408 101.433 34.0797C100.376 33.9187 99.3914 34.6211 99.2347 35.6485C99.0779 36.6759 99.808 37.6393 100.865 37.8004C101.923 37.9614 102.907 37.259 103.064 36.2316Z" fill="white"/>
<path d="M108.025 45.7595C108.132 45.786 108.264 45.7329 108.344 45.6534C108.503 45.4944 108.503 45.2559 108.344 45.0969C108.158 44.9113 103.94 40.6972 94.5487 39.372C94.3365 39.3455 94.1243 39.5046 94.0977 39.7166C94.0712 39.9286 94.2304 40.1406 94.4426 40.1671C99.1913 40.8297 102.56 42.2875 104.577 43.4006C106.726 44.5933 107.787 45.6534 107.787 45.6534C107.866 45.7064 107.946 45.7329 108.025 45.7595Z" fill="#43281F"/>
<path d="M91.1017 58.2158C91.1017 58.2158 90.3323 59.7795 89.7487 62.5359C89.563 63.3575 89.2712 64.3117 88.8202 65.2128C87.8121 67.2801 86.0612 69.1884 83.5674 69.1354C81.0472 69.1884 79.3228 67.2801 78.3147 65.2128C77.8637 64.3117 77.5719 63.3575 77.3862 62.5359C76.8025 59.806 76.0332 58.2158 76.0332 58.2158H76.1658C78.3147 59.488 80.8615 60.2036 83.6205 60.1771C86.2469 60.1506 88.7141 59.435 90.7568 58.2158H91.1017Z" fill="#43281F"/>
<path d="M88.8196 65.2143C87.8115 67.2816 86.0606 69.1899 83.5668 69.1369C81.0466 69.1899 79.3222 67.2816 78.3141 65.2143C78.712 65.0023 79.1365 64.8167 79.614 64.6577C80.7813 64.2337 82.1343 63.9951 83.5934 63.9951C84.9994 63.9951 86.3259 64.2072 87.4666 64.6047C87.9441 64.7902 88.3951 65.0023 88.8196 65.2143Z" fill="#C45D69"/>
<path d="M87.4404 64.6312C86.4589 65.7709 85.1324 66.566 83.5141 66.513C81.8959 66.5395 80.596 65.7709 79.6144 64.6577C80.7817 64.2337 82.1346 63.9951 83.5937 63.9951C84.9732 63.9951 86.2997 64.2337 87.4404 64.6312Z" fill="#D67679"/>
<path d="M164.029 90.2314H0V108.334H164.029V90.2314Z" fill="#13B0B1"/>
<path d="M138.427 107.091C122.005 107.806 115.107 100.279 114.975 92.275C114.975 91.5594 114.975 90.8968 115.028 90.2607H158.88C159.358 99.2455 154.079 106.402 138.427 107.091Z" fill="#12A0A1"/>
<path d="M158.668 90.2344C157.766 97.3904 152.328 102.797 139.621 103.645C124.605 104.626 117.787 97.8675 117.018 90.2344H158.668Z" fill="#118C8D"/>
<path d="M158.934 93.2277C158.775 93.8902 158.562 94.5528 158.297 95.1889C156.307 99.8801 151.187 103.167 141.478 103.591C128.054 104.174 121.952 98.4224 121.156 91.9555C121.13 91.7699 121.103 91.5579 121.103 91.3724C121.077 91.1339 121.077 90.9218 121.077 90.6833C120.997 85.8331 122.562 82.4671 125.587 80.1878C125.613 80.1613 125.666 80.1348 125.693 80.1083C128.691 77.8819 133.121 76.6893 138.798 76.1592C147.288 75.3376 154.981 78.1735 157.979 83.8188C158.058 83.9778 158.138 84.1103 158.191 84.2694C158.722 85.3825 159.066 86.6017 159.199 87.9004C159.385 89.7556 159.305 91.5579 158.934 93.2277Z" fill="#B6724D"/>
<path d="M158.297 95.1627C156.307 99.8539 151.187 103.14 141.478 103.564C128.054 104.147 121.952 98.3961 121.156 91.9292C121.103 91.5052 121.077 91.0811 121.077 90.657C120.997 85.8068 122.562 82.4409 125.587 80.1615C125.613 80.135 125.666 80.1085 125.693 80.082C124.924 83.7926 124.711 92.7243 140.337 92.7243C153.31 92.7243 157.607 88.2452 157.952 83.7926C158.032 83.9516 158.111 84.0841 158.164 84.2431C158.695 85.3563 159.04 86.5755 159.173 87.8741C159.464 90.498 159.226 92.9894 158.297 95.1627Z" fill="#AD6946"/>
<path d="M158.297 95.1642C156.307 99.8554 151.187 103.142 141.478 103.566C128.054 104.149 121.952 98.3977 121.156 91.9308C121.103 91.5067 121.077 91.0826 121.077 90.6586C120.997 85.8084 122.562 82.4424 125.587 80.1631C124.207 84.9603 121.926 98.3447 139.462 98.6627C155.91 98.9808 158.509 90.367 158.191 84.2182C158.722 85.3313 159.066 86.5505 159.199 87.8492C159.464 90.4996 159.226 92.9909 158.297 95.1642Z" fill="#945339"/>
<path d="M158.297 95.1629C158.881 92.115 159.093 85.8336 156.042 82.8917C149.198 76.2392 133.413 76.8223 126.409 81.328C121.289 84.6409 121.156 91.956 121.156 91.956C121.103 91.5319 121.077 91.1079 121.077 90.6838C120.918 81.0099 127.285 77.2464 138.798 76.1332C149.145 75.1526 158.324 79.5522 159.226 87.8744C159.464 90.4983 159.226 92.9896 158.297 95.1629Z" fill="#D59A77"/>
<path d="M158.934 93.2277C158.775 93.8903 158.563 94.5529 158.298 95.189C156.308 99.8802 151.188 103.167 141.478 103.591C128.054 104.174 121.953 98.4225 121.157 91.9556C121.13 91.77 121.104 91.558 121.104 91.3725L121.157 91.293C121.157 91.293 122.032 103.22 140.868 102.928C152.673 102.743 157.21 97.2563 158.934 93.2277Z" fill="#AD6946"/>
<path d="M32.0738 107.089C48.4953 107.804 55.3928 100.277 55.5255 92.2731C55.5255 91.5575 55.5255 90.8949 55.4724 90.2588H11.6465C11.1424 99.2436 16.4217 106.4 32.0738 107.089Z" fill="#12A0A1"/>
<path d="M11.8585 90.2314C12.7605 97.3875 18.199 102.794 30.9064 103.642C45.9218 104.623 52.7397 97.8645 53.5091 90.2314H11.8585Z" fill="#118C8D"/>
<path d="M11.5932 93.2277C11.7523 93.8902 11.9646 94.5528 12.2299 95.1889C14.2195 99.8801 19.3396 103.167 29.0493 103.591C42.473 104.174 48.5746 98.4224 49.3705 91.9555C49.397 91.7699 49.4236 91.5579 49.4236 91.3724C49.4501 91.1339 49.4501 90.9218 49.4501 90.6833C49.5297 85.8331 47.9645 82.4671 44.9401 80.1878C44.9136 80.1613 44.8606 80.1348 44.834 80.1083C41.8363 77.8819 37.4059 76.6893 31.7287 76.1592C23.2394 75.3376 15.546 78.1735 12.5482 83.8188C12.4686 83.9778 12.389 84.1103 12.336 84.2694C11.8054 85.3825 11.4605 86.6017 11.3279 87.9004C11.1422 89.7556 11.1952 91.5579 11.5932 93.2277Z" fill="#B6724D"/>
<path d="M12.2307 95.1627C14.2204 99.8539 19.3405 103.14 29.0502 103.564C42.4738 104.147 48.5755 98.3961 49.3714 91.9292C49.4244 91.5052 49.451 91.0811 49.451 90.657C49.5306 85.8068 47.9653 82.4409 44.941 80.1615C44.9145 80.135 44.8615 80.1085 44.8349 80.082C45.6043 83.7926 45.8165 92.7243 30.1909 92.7243C17.2182 92.7243 12.9205 88.2452 12.5756 83.7926C12.496 83.9516 12.4165 84.0841 12.3634 84.2431C11.8328 85.3563 11.4879 86.5755 11.3553 87.8741C11.0635 90.498 11.3022 92.9894 12.2307 95.1627Z" fill="#AD6946"/>
<path d="M12.23 95.1633C14.2197 99.8544 19.3398 103.141 29.0494 103.565C42.4731 104.148 48.5748 98.3967 49.3706 91.9298C49.4237 91.5057 49.4502 91.0817 49.4502 90.6576C49.5298 85.8074 47.9646 82.4414 44.9403 80.1621C46.3198 84.9593 48.6013 98.3437 31.0656 98.6618C14.6176 98.9798 12.0178 90.3661 12.3361 84.2172C11.8055 85.3304 11.4606 86.5495 11.328 87.8482C11.0627 90.4986 11.3015 92.9899 12.23 95.1633Z" fill="#945339"/>
<path d="M12.2293 95.1629C11.6457 92.115 11.4335 85.8336 14.4843 82.8917C21.3288 76.2392 37.1136 76.8223 44.1172 81.328C49.2373 84.6409 49.37 91.956 49.37 91.956C49.423 91.5319 49.4496 91.1079 49.4496 90.6838C49.6087 81.0099 43.2418 77.2464 31.7282 76.1332C21.3819 75.1526 12.2028 79.5522 11.3008 87.8744C11.0621 90.4983 11.3008 92.9896 12.2293 95.1629Z" fill="#D59A77"/>
<path d="M11.5931 93.2287C11.7523 93.8913 11.9645 94.5539 12.2298 95.19C14.2195 99.8812 19.3396 103.168 29.0492 103.592C42.4729 104.175 48.5746 98.4235 49.3705 91.9565C49.397 91.771 49.4235 91.559 49.4235 91.3735L49.3705 91.2939C49.3705 91.2939 48.495 103.221 29.6594 102.929C17.854 102.744 13.3175 97.2573 11.5931 93.2287Z" fill="#AD6946"/>
</svg>
