<svg width="134" height="88" viewBox="0 0 134 88" fill="none" xmlns="http://www.w3.org/2000/svg">
<path d="M28.6543 14.2201C22.4911 20.4204 27.0596 26.8575 29.3007 29.3333C29.9257 30.0223 30.3567 30.3883 30.3567 30.3883L37.4895 23.1976L39.2781 21.26L44.4715 15.6625C44.493 15.641 36.1319 6.77107 28.6543 14.2201ZM21.7585 7.69682C21.7585 7.69682 21.7585 7.71835 21.7585 7.69682C21.6507 7.80446 21.543 7.91211 21.4352 8.01975C20.8318 8.66562 20.2716 9.31148 19.7759 9.95735C9.77703 22.8962 21.0904 34.5864 24.4737 37.622C25.034 38.1171 25.3788 38.3755 25.3788 38.3755L39.235 25.2644L39.2565 25.2859L39.4936 25.006L39.7953 24.7262L39.7737 24.7046L47.8116 15.5118L52.1862 10.474L52.3155 10.3233C52.3155 10.3233 36.9508 -7.76092 21.7585 7.69682Z" fill="#B6724D"/>
<path d="M37.8134 22.8746L37.5117 23.1975L37.2962 23.4128L30.3573 30.3882C30.3573 30.3882 28.6118 28.8811 27.2111 26.5345C25.401 23.4989 24.2157 19.0424 28.2239 14.629C28.4394 14.3922 28.6549 14.1769 28.8488 13.9832C28.9997 13.854 29.129 13.7248 29.2798 13.5956C35.249 8.45023 41.5845 13.0789 43.6964 14.952C44.1704 15.361 44.429 15.6409 44.429 15.6409L37.8134 22.8746Z" fill="#DCBD8A"/>
<path d="M39.7956 24.7258L39.8172 24.7474L39.5155 25.0272L39.2784 25.3071L39.2569 25.2856L25.4006 38.3967C25.4006 38.3967 9.64804 26.1683 18.4186 11.9377C18.8281 11.2703 19.2806 10.6244 19.7978 9.95703C18.7419 15.1455 17.061 23.4772 25.4222 31.2706C25.4222 31.2706 26.9306 28.5149 27.7926 27.2447C29.1502 25.2856 30.6802 23.5202 32.318 21.884C34.516 19.6881 36.9296 17.772 39.3 15.9851C42.0583 13.9183 44.989 17.1261 47.7904 15.49L39.7956 24.7258Z" fill="#945339"/>
<path d="M32.3391 21.9055C28.1801 27.869 25.314 34.5214 25.314 34.5214C16.1555 26.0606 16.5003 17.5782 18.4182 11.9592C18.8276 11.2918 19.2802 10.6459 19.7974 9.97852C18.7414 15.167 17.0606 23.4987 25.4217 31.2921C25.4217 31.2921 26.9302 28.5364 27.7922 27.2662C29.1498 25.3071 30.6798 23.5202 32.3391 21.9055Z" fill="#AD6946"/>
<path d="M38.9123 15.2747C31.6717 19.1284 28.547 23.7356 27.2541 26.5343C25.4439 23.4988 24.2587 19.0423 28.2669 14.6289C28.4824 14.3921 28.6979 14.1768 28.8918 13.983C29.0427 13.8538 29.172 13.7247 29.3228 13.5955C34.2576 12.0669 38.9123 15.2747 38.9123 15.2747Z" fill="#ECD09C"/>
<path d="M52.3174 10.3238L52.1881 10.4745L50.9382 10.7543C50.9382 10.7543 47.3826 6.66384 42.3616 4.44637C37.3621 2.25042 30.4017 2.42266 25.4884 6.03951C20.5751 9.65636 15.5757 17.4713 17.2781 24.3821C18.8512 30.7116 23.7214 36.6966 24.4971 37.6439C21.1139 34.6083 9.80046 22.9181 19.7994 9.97929C20.295 9.33343 20.8553 8.68756 21.4587 8.04169C21.5664 7.93405 21.6526 7.8264 21.7604 7.74029C21.7604 7.74029 21.7604 7.74029 21.7819 7.71876C36.9527 -7.7605 52.3174 10.3238 52.3174 10.3238Z" fill="#D59A77"/>
<path d="M43.7616 14.9524L42.835 15.8997C36.5642 11.0126 31.8448 12.089 28.8926 14.0051C34.9911 8.21385 41.5852 13.0363 43.7616 14.9524Z" fill="#C59F6D"/>
<path d="M91.4927 14.4785L96.837 19.9468L98.6687 21.8198L106.017 28.8167C106.017 28.8167 106.448 28.4292 107.051 27.7187C109.228 25.1783 113.624 18.6335 107.288 12.6055C99.6168 5.37175 91.4927 14.4785 91.4927 14.4785ZM83.541 9.37613L83.6703 9.52683L88.1957 14.4354L96.4491 23.413L96.4275 23.4345L96.7292 23.7144L96.9663 23.9727L96.9878 23.9512L111.21 36.6747C111.21 36.6747 111.534 36.3949 112.094 35.8782C115.391 32.7565 126.381 20.7434 116.016 8.08439C115.499 7.46006 114.938 6.81419 114.314 6.18985C114.206 6.08221 114.098 5.99609 114.012 5.88845C114.012 5.88845 114.012 5.88845 113.99 5.86692C98.3885 -9.13871 83.541 9.37613 83.541 9.37613Z" fill="#B6724D"/>
<path d="M98.3879 21.4971L98.6895 21.8201L98.905 22.0354L106.016 28.817C106.016 28.817 107.719 27.2669 109.055 24.8772C110.779 21.777 111.856 17.299 107.697 13.0148C107.482 12.7995 107.266 12.5842 107.051 12.3904C106.9 12.2612 106.749 12.1321 106.62 12.0244C100.521 7.02972 94.315 11.8522 92.2463 13.7898C91.7937 14.2204 91.5352 14.5002 91.5352 14.5002L98.3879 21.4971Z" fill="#DCBD8A"/>
<path d="M96.4487 23.4125L96.4272 23.434L96.7289 23.7139L96.9659 23.9723L96.9875 23.9507L111.21 36.6743C111.21 36.6743 126.618 24.0153 117.438 10.0431C117.007 9.3972 116.533 8.75134 116.016 8.10547C117.222 13.2724 119.119 21.5395 110.995 29.5698C110.995 29.5698 109.421 26.8571 108.516 25.63C107.116 23.7139 105.521 21.9701 103.84 20.3985C101.577 18.2671 99.1208 16.4156 96.6858 14.7148C93.8843 12.7342 91.0398 16.0281 88.1953 14.4565L96.4487 23.4125Z" fill="#945339"/>
<path d="M103.84 20.3769C108.171 26.2328 111.21 32.7991 111.21 32.7991C120.131 24.0799 119.549 15.6191 117.459 10.0431C117.028 9.3972 116.554 8.75134 116.037 8.10547C117.244 13.2724 119.14 21.5395 111.016 29.5698C111.016 29.5698 109.443 26.8571 108.538 25.63C107.115 23.6924 105.521 21.9701 103.84 20.3769Z" fill="#AD6946"/>
<path d="M97.0742 13.9396C104.423 17.578 107.677 22.099 109.056 24.8547C110.78 21.7546 111.857 17.2766 107.698 12.9923C107.483 12.777 107.267 12.5617 107.052 12.368C106.901 12.2388 106.75 12.1096 106.621 12.002C101.643 10.6026 97.0742 13.9396 97.0742 13.9396Z" fill="#ECD09C"/>
<path d="M83.541 9.37619L83.6703 9.52689L84.9417 9.76371C84.9417 9.76371 88.3896 5.56557 93.3244 3.21893C98.2808 0.872279 105.241 0.872279 110.241 4.33843C115.24 7.80458 120.477 15.4904 118.968 22.4442C117.567 28.8168 112.87 34.931 112.115 35.8998C115.413 32.7781 126.403 20.765 116.037 8.10598C115.52 7.48164 114.96 6.83578 114.335 6.21144C114.227 6.1038 114.12 6.01768 114.033 5.91004C114.033 5.91004 114.033 5.91004 114.012 5.88851C98.3885 -9.13865 83.541 9.37619 83.541 9.37619Z" fill="#D59A77"/>
<path d="M92.2246 13.7467L93.1728 14.6509C99.2928 9.59164 104.055 10.5604 107.051 12.3689C100.801 6.77135 94.3364 11.7876 92.2246 13.7467Z" fill="#C59F6D"/>
<path d="M114.528 50.2169C114.528 50.4106 114.528 50.6259 114.528 50.8197V50.8627C114.528 51.0565 114.507 51.2718 114.507 51.4655C114.507 51.6378 114.485 51.7885 114.485 51.9607C114.485 52.0468 114.485 52.1114 114.464 52.176C114.442 52.3267 114.442 52.4774 114.421 52.6496C114.421 52.6712 114.421 52.6712 114.421 52.6927C114.399 52.8864 114.378 53.0802 114.356 53.274C114.334 53.4462 114.313 53.6399 114.291 53.8122C114.291 53.8552 114.27 53.8768 114.27 53.9198C114.248 54.0921 114.227 54.2643 114.184 54.4365C114.162 54.6088 114.119 54.781 114.097 54.9317C114.076 54.9963 114.076 55.0609 114.054 55.1254C114.033 55.2761 114.011 55.4053 113.968 55.556C113.968 55.5776 113.968 55.5776 113.968 55.5991C113.925 55.7713 113.882 55.9651 113.86 56.1373C113.817 56.3095 113.774 56.5033 113.731 56.6755C113.688 56.8478 113.645 57.0415 113.58 57.2137C113.537 57.386 113.472 57.5582 113.429 57.7304C113.429 57.752 113.429 57.7735 113.408 57.7735C113.365 57.9242 113.322 58.0749 113.257 58.2256C113.235 58.2687 113.235 58.3117 113.214 58.3548C113.171 58.484 113.128 58.6347 113.063 58.7638C112.998 58.9361 112.934 59.1083 112.869 59.2805C112.718 59.6465 112.567 60.0125 112.417 60.3785C112.352 60.5077 112.309 60.6368 112.244 60.766C111.641 62.0577 110.93 63.2634 110.132 64.4044C110.068 64.4905 110.025 64.5766 109.96 64.6412C109.895 64.7273 109.852 64.8134 109.788 64.878C109.68 65.0287 109.572 65.1579 109.464 65.3086C109.163 65.6961 108.839 66.0836 108.516 66.4712C108.451 66.5573 108.387 66.6219 108.301 66.708C108.193 66.8156 108.107 66.9233 107.999 67.0309C107.934 67.117 107.848 67.2031 107.783 67.2677C107.611 67.4615 107.439 67.6553 107.245 67.8275C107.158 67.9136 107.072 67.9997 107.008 68.0643C107.008 68.0858 106.986 68.0858 106.965 68.1074C106.857 68.215 106.727 68.3442 106.62 68.4518C106.598 68.4733 106.598 68.4734 106.577 68.4949C106.447 68.6025 106.34 68.7317 106.21 68.8393C106.059 68.9685 105.93 69.0977 105.779 69.2484C105.672 69.3345 105.564 69.4421 105.456 69.5283C104.874 70.0234 104.292 70.4971 103.689 70.9492C103.56 71.0353 103.452 71.1214 103.323 71.229C103.193 71.3152 103.064 71.4228 102.935 71.5089C102.87 71.552 102.806 71.595 102.741 71.6596C102.612 71.7457 102.482 71.8319 102.353 71.9395C101.9 72.2409 101.448 72.5423 100.995 72.8222C100.974 72.8437 100.952 72.8437 100.931 72.8652C100.801 72.9514 100.672 73.0159 100.564 73.1021C100.414 73.1882 100.263 73.2958 100.112 73.3819C99.9825 73.4465 99.8532 73.5326 99.7455 73.5972C99.6162 73.6618 99.5085 73.7479 99.3792 73.8125C99.3145 73.8556 99.2714 73.8771 99.2068 73.9202C99.0559 74.0063 98.9051 74.0924 98.7327 74.1785C97.9569 74.6091 97.1811 74.9966 96.3838 75.3841L97.3751 77.7308H33.395C33.6536 77.4509 33.8906 77.171 34.1492 76.9127C34.4078 76.6328 34.6664 76.3745 34.9035 76.1376C35.0328 76.0085 35.1621 75.9008 35.2913 75.7716C35.6792 75.4272 36.024 75.1042 36.3688 74.8459C36.455 74.7598 36.5628 74.6952 36.649 74.6306C36.6921 74.5876 36.7352 74.566 36.7783 74.523C36.9291 74.3938 37.0799 74.2861 37.2092 74.2C37.2523 74.157 37.317 74.1354 37.3601 74.0924C36.9076 73.834 36.455 73.5542 36.0025 73.2743C35.787 73.1451 35.593 73.0159 35.3775 72.8868C34.8388 72.5423 34.3216 72.1763 33.8044 71.8103C33.6967 71.7457 33.5889 71.6596 33.5028 71.595C33.395 71.5089 33.3088 71.4443 33.2011 71.3582C32.8994 71.1214 32.5977 70.8846 32.296 70.6478C32.2098 70.5617 32.102 70.4971 32.0158 70.4109C32.0158 70.4109 31.9943 70.4109 31.9943 70.3894C31.9081 70.3033 31.8003 70.2387 31.7142 70.1526C30.2703 68.9255 28.9343 67.5691 27.7706 66.0836C27.6844 65.976 27.6198 65.8684 27.5336 65.7822C27.1457 65.2655 26.7578 64.7273 26.413 64.1676C26.3484 64.0599 26.2622 63.9523 26.1975 63.8446C26.1329 63.737 26.0682 63.6078 25.982 63.5002C25.9174 63.3925 25.8527 63.2849 25.7881 63.1557C25.6372 62.8974 25.5079 62.639 25.3571 62.3807C25.314 62.2946 25.2709 62.1869 25.2062 62.1008C25.1416 61.9716 25.0769 61.864 25.0339 61.7348C24.9692 61.6056 24.9046 61.498 24.8615 61.3688C24.7968 61.2396 24.7537 61.132 24.6891 61.0028C24.5813 60.766 24.4951 60.5507 24.3874 60.3139C24.3227 60.1632 24.2581 60.0125 24.215 59.8618C24.1934 59.7757 24.1503 59.7111 24.1288 59.625C24.0857 59.5389 24.0641 59.4312 24.021 59.3451C23.9779 59.2375 23.9348 59.1083 23.8917 58.9791C23.7624 58.5701 23.6331 58.161 23.5038 57.752C23.4607 57.6228 23.4392 57.5152 23.4176 57.386C23.3745 57.2353 23.353 57.1061 23.3099 56.9554C23.2884 56.8262 23.2453 56.7186 23.2237 56.5894C23.2022 56.4818 23.1806 56.3741 23.1375 56.2449C23.116 56.0942 23.0729 55.9651 23.0513 55.8144C23.0298 55.6637 23.0082 55.5345 22.9651 55.3838C22.5988 53.2524 22.4695 50.9488 22.6419 48.4515C22.7065 47.4827 22.7927 46.5354 22.9005 45.6312C22.9436 45.3083 22.9651 44.9853 23.0082 44.6624C23.0513 44.2964 23.0944 43.9304 23.1591 43.586C23.1806 43.3707 23.2237 43.1339 23.2668 42.9186C23.5038 41.4761 23.7624 40.0768 24.0857 38.7204C24.0857 38.7204 24.0857 38.7204 24.0857 38.6989C24.4305 37.1919 24.8615 35.7495 25.314 34.3716C32.2744 13.4671 50.7422 6.38407 66.581 6.23336C67.0336 6.23336 68.6929 6.21183 69.0592 6.19031C86.1048 5.82431 106.555 13.3809 112.804 37.8808C112.848 38.0315 112.891 38.1822 112.912 38.3329C113.451 40.5073 113.882 42.8109 114.184 45.2437C114.27 45.868 114.334 46.5139 114.399 47.1598C114.421 47.3535 114.442 47.5473 114.442 47.7195C114.464 47.8917 114.464 48.0424 114.485 48.2147C114.485 48.2362 114.485 48.2577 114.485 48.2793C114.485 48.2793 114.485 48.3008 114.485 48.3223C114.507 48.4945 114.507 48.6668 114.507 48.839C114.507 48.8821 114.507 48.9467 114.507 49.0112C114.507 49.1835 114.528 49.3342 114.528 49.5064C114.528 49.5495 114.528 49.5925 114.528 49.6356C114.528 49.8078 114.528 50.0231 114.528 50.2169Z" fill="#B6724D"/>
<path d="M114.528 50.2163C114.528 50.41 114.528 50.6253 114.528 50.8191V50.8621C114.528 51.0559 114.507 51.2712 114.507 51.4649C114.507 51.6372 114.485 51.7879 114.485 51.9601C114.485 52.0462 114.485 52.1108 114.464 52.1754C114.442 52.3261 114.442 52.4768 114.421 52.649C114.421 52.6706 114.421 52.6706 114.421 52.6921C114.399 52.8858 114.378 53.0796 114.356 53.2734C114.334 53.4456 114.313 53.6394 114.291 53.8116C114.291 53.8546 114.27 53.8762 114.27 53.9192C114.248 54.0915 114.227 54.2637 114.184 54.4359C114.162 54.6082 114.119 54.7804 114.097 54.9311C114.076 54.9957 114.076 55.0603 114.054 55.1248C114.033 55.2756 114.011 55.4047 113.968 55.5554C113.968 55.577 113.968 55.577 113.968 55.5985C113.925 55.7707 113.882 55.9645 113.86 56.1367C113.817 56.3089 113.774 56.5027 113.731 56.6749C113.688 56.8472 113.645 57.0409 113.58 57.2132C113.537 57.3854 113.472 57.5576 113.429 57.7298C113.429 57.7514 113.429 57.7729 113.408 57.7729C113.365 57.9236 113.322 58.0743 113.257 58.225C113.235 58.2681 113.235 58.3111 113.214 58.3542C113.171 58.4834 113.128 58.6341 113.063 58.7632C112.998 58.9355 112.934 59.1077 112.869 59.2799C112.718 59.6459 112.567 60.0119 112.417 60.3779C112.352 60.5071 112.309 60.6362 112.244 60.7654C111.641 62.0572 110.93 63.2628 110.132 64.4038C110.068 64.4899 110.025 64.576 109.96 64.6406C109.895 64.7267 109.852 64.8128 109.788 64.8774C109.68 65.0281 109.572 65.1573 109.464 65.308C109.163 65.6955 108.839 66.0831 108.516 66.4706C108.451 66.5567 108.387 66.6213 108.301 66.7074C108.193 66.815 108.107 66.9227 107.999 67.0303C107.934 67.1164 107.848 67.2026 107.783 67.2671C107.611 67.4609 107.439 67.6547 107.245 67.8269C107.158 67.913 107.072 67.9991 107.008 68.0637C107.008 68.0852 106.986 68.0852 106.965 68.1068C106.857 68.2144 106.727 68.3436 106.62 68.4512C106.598 68.4728 106.598 68.4728 106.577 68.4943C106.447 68.6019 106.34 68.7311 106.21 68.8388C106.059 68.9679 105.93 69.0971 105.779 69.2478C105.672 69.3339 105.564 69.4416 105.456 69.5277C104.874 70.0228 104.292 70.4965 103.689 70.9486C103.56 71.0347 103.452 71.1208 103.323 71.2285C103.193 71.3146 103.064 71.4222 102.935 71.5083C102.87 71.5514 102.806 71.5944 102.741 71.659C102.612 71.7451 102.482 71.8313 102.353 71.9389C101.879 72.2618 101.405 72.5632 100.909 72.8647C100.78 72.9508 100.651 73.0154 100.543 73.1015C100.392 73.1876 100.241 73.2952 100.09 73.3813C99.961 73.4459 99.8317 73.532 99.724 73.5966C99.5947 73.6612 99.4869 73.7473 99.3576 73.8119C99.293 73.855 99.2499 73.8765 99.1852 73.9196C99.0344 74.0057 98.8835 74.0918 98.7111 74.1779C97.9353 74.6085 97.1596 74.996 96.3623 75.3835L97.3535 77.7302H48.7597C46.9496 76.2447 45.7643 75.2544 45.7643 75.2544C45.7643 75.2544 39.6012 74.4147 34.1492 76.9121C34.4078 76.6322 34.6664 76.3739 34.9035 76.137C35.0328 76.0079 35.1621 75.9002 35.2913 75.7711C35.6792 75.4266 36.024 75.1037 36.3688 74.8453C36.455 74.7592 36.5628 74.6946 36.649 74.63C36.6921 74.587 36.7352 74.5654 36.7783 74.5224C36.9291 74.3932 37.0799 74.2856 37.2092 74.1994C37.2523 74.1564 37.317 74.1349 37.3601 74.0918C36.9076 73.8335 36.455 73.5536 36.0025 73.2737C35.787 73.1445 35.593 73.0154 35.3775 72.8862C34.8388 72.5417 34.3216 72.1757 33.8044 71.8097C33.6967 71.7452 33.5889 71.659 33.5028 71.5944C33.395 71.5083 33.3088 71.4437 33.2011 71.3576C32.8994 71.1208 32.5977 70.884 32.296 70.6472C32.2098 70.5611 32.102 70.4965 32.0158 70.4104C32.0158 70.4104 31.9943 70.4104 31.9943 70.3888C31.9081 70.3027 31.8003 70.2381 31.7142 70.152C30.2703 68.9249 28.9343 67.5685 27.7706 66.0831C27.6844 65.9754 27.6198 65.8678 27.5336 65.7816C27.1457 65.265 26.7578 64.7267 26.413 64.167C26.3484 64.0593 26.2622 63.9517 26.1975 63.844C26.1329 63.7364 26.0682 63.6072 25.982 63.4996C25.9174 63.3919 25.8527 63.2843 25.7881 63.1551C25.6372 62.8968 25.5079 62.6384 25.3571 62.3801C25.314 62.294 25.2709 62.1863 25.2062 62.1002C25.1416 61.971 25.0769 61.8634 25.0339 61.7342C24.9692 61.605 24.9046 61.4974 24.8615 61.3682C24.7968 61.2391 24.7537 61.1314 24.6891 61.0022C24.5813 60.7654 24.4951 60.5501 24.3874 60.3133C24.3227 60.1626 24.2581 60.0119 24.215 59.8612C24.1934 59.7751 24.1503 59.7105 24.1288 59.6244C24.0857 59.5383 24.0641 59.4306 24.021 59.3445C23.9779 59.2369 23.9348 59.1077 23.8917 58.9785C23.7624 58.5695 23.6331 58.1604 23.5038 57.7514C23.4607 57.6222 23.4392 57.5146 23.4176 57.3854C23.3745 57.2347 23.353 57.1055 23.3099 56.9548C23.2884 56.8256 23.2453 56.718 23.2237 56.5888C23.2022 56.4812 23.1806 56.3735 23.1375 56.2444C23.116 56.0937 23.0729 55.9645 23.0513 55.8138C23.0298 55.6631 23.0082 55.5339 22.9651 55.3832C22.5988 53.2518 22.4695 50.9482 22.6419 48.4509C22.7065 47.4821 22.7927 46.5348 22.9005 45.6306C22.9436 45.3077 22.9651 44.9847 23.0082 44.6618C23.0513 44.2958 23.0944 43.9298 23.1591 43.5854C23.1806 43.3701 23.2237 43.1333 23.2668 42.918C23.2884 43.1333 23.3314 43.3485 23.3745 43.5854C24.8399 52.1323 32.1236 70.0444 67.5076 70.3458C104.529 70.6687 112.481 52.6921 114.162 45.3507C114.248 45.9751 114.313 46.6209 114.378 47.2668C114.399 47.4606 114.421 47.6543 114.421 47.8266C114.442 47.9988 114.442 48.1495 114.464 48.3217C114.464 48.3432 114.464 48.3648 114.464 48.3863C114.464 48.3863 114.464 48.4078 114.464 48.4294C114.485 48.6016 114.485 48.7738 114.485 48.9461C114.485 48.9891 114.485 49.0537 114.485 49.1183C114.485 49.2905 114.507 49.4412 114.507 49.6135C114.507 49.6565 114.507 49.6996 114.507 49.7426C114.528 49.8072 114.528 50.0225 114.528 50.2163Z" fill="#945339"/>
<path d="M114.185 45.2442C114.272 45.8685 114.336 46.5144 114.401 47.1603C114.423 47.354 114.444 47.5263 114.444 47.72C114.466 47.8923 114.466 48.043 114.487 48.2152C114.487 48.2367 114.487 48.2582 114.487 48.2798C110.845 62.1444 99.8336 79.2168 67.8112 77.4299C34.1942 75.5569 25.2296 59.0442 23.1609 47.2033C23.0531 46.6436 22.9885 46.1054 22.9238 45.5671C22.9669 45.2442 23.01 44.9213 23.0316 44.5983C23.0747 44.2323 23.1178 43.8664 23.1824 43.5219C23.2255 43.3066 23.2471 43.0698 23.2902 42.8545C23.3117 43.0698 23.3548 43.2851 23.3979 43.5219C24.8633 52.0689 32.147 69.9809 67.5311 70.2823C104.553 70.5622 112.483 52.5855 114.185 45.2442Z" fill="#AD6946"/>
<path d="M112.807 37.8808C106.062 20.2702 91.8609 5.86737 56.7138 10.1947C37.4056 12.5629 29.0229 27.8484 25.3164 34.307C32.2769 13.4671 50.7447 6.38407 66.5835 6.23336C67.036 6.23336 68.6953 6.21183 69.0616 6.19031C86.1072 5.82431 106.536 13.381 112.807 37.8808Z" fill="#D59A77"/>
<path d="M69.0419 61.3437C78.6573 61.2367 86.381 54.7793 86.2934 46.9207C86.2058 39.0622 78.34 32.7783 68.7246 32.8853C59.1092 32.9923 51.3855 39.4497 51.4731 47.3083C51.5607 55.1668 59.4266 61.4507 69.0419 61.3437Z" fill="#AD6946"/>
<path d="M68.9778 66.5319C78.6527 66.4242 86.4247 59.9663 86.3371 52.1078C86.2494 44.2492 78.3354 37.9659 68.6605 38.0736C58.9856 38.1813 51.2136 44.6392 51.3012 52.4977C51.3889 60.3563 59.3029 66.6396 68.9778 66.5319Z" fill="#945339"/>
<path d="M87.0529 49.613C87.096 53.8326 85.2212 57.6863 82.0103 60.5066C78.7995 63.3269 74.2741 65.1138 68.9945 65.1568C56.4743 65.286 50.8284 58.4398 50.7422 50.0005C50.7422 49.4838 50.7637 48.9887 50.8068 48.4935C51.1301 44.8766 52.7247 41.5827 55.1383 39.1284C55.914 38.3319 56.776 37.6214 57.7242 37.0186C60.0946 35.4685 62.9176 34.5428 65.956 34.4997L71.5373 34.4351C74.5542 34.3921 77.3988 35.2532 79.7907 36.7603C83.2386 38.9131 85.803 42.4008 86.7081 46.4913C86.902 47.5032 87.0313 48.5365 87.0529 49.613Z" fill="#DCBD8A"/>
<path d="M86.6844 46.4903C85.4992 54.3914 77.9354 60.5271 68.7122 60.6348C60.1356 60.7209 52.8734 55.5755 50.8047 48.514C51.1279 44.8971 52.7226 41.6032 55.1361 39.1489C55.9119 38.3524 56.7739 37.6419 57.722 37.0391C60.0925 35.489 62.9154 34.5633 65.9539 34.5202L71.5352 34.4556C74.5521 34.4126 77.3966 35.2737 79.7886 36.7808C83.2149 38.9121 85.7793 42.3998 86.6844 46.4903Z" fill="#ECD09C"/>
<path d="M68.5638 49.097C68.3914 49.097 68.2406 48.9463 68.2406 48.7741L68.1328 40.7653C68.1328 40.5931 68.2837 40.4424 68.456 40.4424C68.6284 40.4424 68.7793 40.5931 68.7793 40.7653L68.887 48.7741C68.887 48.9463 68.7362 49.097 68.5638 49.097Z" fill="#43281F"/>
<path d="M79.7696 36.7614C79.2093 38.1608 78.3905 39.431 77.3345 40.4644C75.352 42.402 72.529 43.5861 68.8225 43.6292C64.8575 43.6722 61.8836 42.4235 59.8795 40.3352C58.9529 39.388 58.2418 38.2469 57.7246 36.9983C60.095 35.4482 63.3705 34.221 68.4346 34.1565C74.5978 34.1134 77.3776 35.2544 79.7696 36.7614Z" fill="#5C392B"/>
<path d="M77.3339 40.4649C75.3514 42.4025 72.5284 43.5866 68.8219 43.6297C64.8568 43.6727 61.883 42.4241 59.8789 40.3357C60.1806 39.8191 60.5469 39.3454 60.9564 38.9148C62.1847 37.6446 63.9086 36.8481 65.805 36.8265L71.1492 36.7619C73.8214 36.7404 76.1703 38.2474 77.3339 40.4649Z" fill="#43281F"/>
<path d="M62.7452 36.7189C62.9822 36.6112 63.1977 36.5251 63.4132 36.4605C63.6287 36.3744 63.8657 36.3098 64.0812 36.2453C64.5338 36.1161 64.9863 36.0084 65.4604 35.9008C66.387 35.707 67.3136 35.5994 68.2834 35.5348C69.2315 35.4917 70.2013 35.5133 71.1494 35.6424C72.0976 35.7716 73.0673 36.0084 73.9724 36.4175C74.4034 36.6112 74.5973 37.1279 74.4034 37.5585C74.2525 37.8814 73.9508 38.0752 73.6061 38.0752H73.563C72.701 38.0752 71.839 38.0537 70.9986 38.0537C70.1366 38.0752 69.2746 38.0967 68.4127 38.1398L65.7836 38.2905L64.4691 38.3551C64.2536 38.3551 64.0166 38.3766 63.8011 38.3766C63.5856 38.3766 63.3486 38.3981 63.1331 38.3981H63.09C62.6159 38.3981 62.228 38.0106 62.2495 37.537C62.228 37.1495 62.4435 36.8481 62.7452 36.7189Z" fill="white"/>
<path d="M68.369 49.2053C65.6107 49.2053 62.9601 48.2795 60.8914 46.6003C60.7621 46.4926 60.7405 46.2773 60.8483 46.1482C60.956 46.019 61.1715 45.9975 61.3008 46.1051C63.2403 47.6982 65.74 48.5594 68.369 48.5594C68.4121 48.5594 68.4552 48.5594 68.4983 48.5594C71.0842 48.5379 73.5624 47.6552 75.4803 46.0836C75.6096 45.9759 75.8251 45.9975 75.9328 46.1266C76.0406 46.2558 76.019 46.4711 75.8897 46.5787C73.8641 48.2365 71.2351 49.1622 68.5199 49.2053C68.4552 49.2053 68.4121 49.2053 68.369 49.2053Z" fill="#43281F"/>
<path d="M49.4918 62.5527C48.9315 62.8757 48.5005 63.4139 48.3281 64.1028H49.5133L49.4918 62.5527Z" fill="white"/>
<path d="M51.1293 62.2085C50.6122 62.1439 50.1165 62.23 49.6855 62.4453H51.1293V62.2085Z" fill="#71495A"/>
<path d="M52.0144 62.4233C51.8204 62.3588 51.6049 62.3157 51.411 62.2511C51.3248 62.2296 51.2171 62.2081 51.1309 62.1865V62.4018L52.0144 62.4233Z" fill="#D8BFB4"/>
<path d="M51.1299 64.06L51.1084 62.4238H49.6646C49.5999 62.4454 49.5353 62.4884 49.4922 62.5099L49.5137 64.0385L51.1299 64.06Z" fill="#D8BFB4"/>
<path d="M51.1309 64.0601L52.7686 64.0385V62.6176C52.5316 62.553 52.273 62.4885 52.0359 62.4023H51.1309V64.0601Z" fill="white"/>
<path d="M54.4053 64.0381V63.1338C53.8881 62.9616 53.3279 62.7894 52.7676 62.6387V64.0596L54.4053 64.0381Z" fill="#D8BFB4"/>
<path d="M56.0225 64.038V63.7151C55.5053 63.5213 54.945 63.3275 54.3848 63.1338V64.038H56.0225Z" fill="white"/>
<path d="M56.8188 64.0387C56.5602 63.9311 56.2801 63.8234 56.0215 63.7373V64.0602L56.8188 64.0387Z" fill="#D8BFB4"/>
<path d="M82.1194 63.5439C81.8608 63.6516 81.6023 63.7377 81.3652 63.8453H82.1194V63.5439Z" fill="white"/>
<path d="M83.7354 63.8446V62.9619C83.1751 63.1557 82.6363 63.3494 82.1191 63.5647V63.8661L83.7354 63.8446Z" fill="#D8BFB4"/>
<path d="M85.3721 63.8232V62.4238C84.8118 62.5961 84.273 62.7683 83.7559 62.9621V63.8447L85.3721 63.8232Z" fill="white"/>
<path d="M86.989 61.9717C86.9028 61.9932 86.8166 61.9932 86.7304 62.0147C86.5149 62.0793 86.3209 62.1224 86.127 62.187H86.989V61.9717Z" fill="#71495A"/>
<path d="M88.4752 62.1653C88.0226 61.95 87.5055 61.8639 86.9883 61.95V62.1653H88.4752Z" fill="#D8BFB4"/>
<path d="M87.0089 63.8227L86.9874 62.1865H86.1254C85.8668 62.2511 85.6082 62.3372 85.3496 62.4233V63.8227H87.0089Z" fill="#D8BFB4"/>
<path d="M87.0098 63.8227L88.6475 63.8012L88.626 62.2511C88.5829 62.2296 88.5398 62.2081 88.4967 62.1865H87.0098V63.8227Z" fill="white"/>
<path d="M89.8553 63.802C89.6614 63.1131 89.2088 62.5749 88.627 62.252L88.6485 63.802H89.8553Z" fill="#D8BFB4"/>
<path d="M49.5144 64.0811H48.3292C48.3292 64.1026 48.3292 64.1241 48.3076 64.1241C48.1999 64.5762 48.0921 65.1144 47.9844 65.6957L49.4928 65.6742L49.5144 64.0811Z" fill="#D8BFB4"/>
<path d="M47.8988 66.4062C47.8557 66.7077 47.8126 67.0091 47.7695 67.3535H47.8988V66.4062Z" fill="#D8BFB4"/>
<path d="M49.5362 67.3315L49.5147 65.6953L48.0062 65.7168C47.9631 65.9321 47.9415 66.1689 47.8984 66.4058V67.353L49.5362 67.3315Z" fill="white"/>
<path d="M51.1475 64.0762L49.5098 64.0879L49.5214 65.7241L51.1592 65.7124L51.1475 64.0762Z" fill="#71495A"/>
<path d="M52.7842 64.0558L51.1465 64.0674L51.1581 65.7036L52.7959 65.692L52.7842 64.0558Z" fill="#D8BFB4"/>
<path d="M51.1475 65.6915L49.5098 65.7031L49.5214 67.3393L51.1592 67.3277L51.1475 65.6915Z" fill="#D8BFB4"/>
<path d="M52.7862 65.6925L51.1484 65.7041L51.1601 67.3403L52.7978 67.3287L52.7862 65.6925Z" fill="white"/>
<path d="M54.4014 64.0558L52.7637 64.0674L52.7753 65.7036L54.4131 65.692L54.4014 64.0558Z" fill="#71495A"/>
<path d="M56.0401 64.0333L54.4023 64.0449L54.414 65.6811L56.0517 65.6695L56.0401 64.0333Z" fill="#D8BFB4"/>
<path d="M54.4229 65.67L52.7852 65.6816L52.7968 67.3178L54.4346 67.3062L54.4229 65.67Z" fill="#D8BFB4"/>
<path d="M56.0401 65.67L54.4023 65.6816L54.414 67.3178L56.0518 67.3062L56.0401 65.67Z" fill="white"/>
<path d="M56.043 65.6528L57.6807 65.6313V64.3611C57.4006 64.2534 57.1204 64.1242 56.8403 64.0166H56.043V65.6528Z" fill="#71495A"/>
<path d="M59.2979 65.6315V65.1148C58.7807 64.8564 58.242 64.6196 57.6602 64.3828V65.653L59.2979 65.6315Z" fill="#D8BFB4"/>
<path d="M57.6768 65.6495L56.0391 65.6611L56.0507 67.2973L57.6884 67.2857L57.6768 65.6495Z" fill="#D8BFB4"/>
<path d="M59.3155 65.6485L57.6777 65.6602L57.6894 67.2964L59.3271 67.2847L59.3155 65.6485Z" fill="white"/>
<path d="M60.3332 65.6319C60.01 65.4597 59.6436 65.2875 59.2988 65.1152V65.6319H60.3332Z" fill="#71495A"/>
<path d="M59.3184 67.2671L60.9561 67.2456V65.9323C60.7622 65.8247 60.5682 65.717 60.3527 65.6094H59.3184V67.2671Z" fill="#D8BFB4"/>
<path d="M62.5733 67.2458V66.9014C62.0561 66.5784 61.5174 66.277 60.9355 65.9541V67.2674L62.5733 67.2458Z" fill="white"/>
<path d="M63.111 67.2458C62.9386 67.1382 62.7447 67.009 62.5723 66.9014V67.2458H63.111Z" fill="#D8BFB4"/>
<path d="M75.6109 66.8369C75.4385 66.9446 75.2661 67.0522 75.1152 67.1598H75.6109V66.8369Z" fill="white"/>
<path d="M78.8643 64.9854C78.5195 65.1576 78.1963 65.3298 77.873 65.5021H78.8643V64.9854Z" fill="#D8BFB4"/>
<path d="M77.249 67.1374V65.8457C76.6672 66.1686 76.1284 66.4916 75.6328 66.8145V67.1374H77.249Z" fill="#D8BFB4"/>
<path d="M78.8644 67.1381L78.8428 65.502H77.8516C77.6361 65.6096 77.4206 65.7388 77.2051 65.8464V67.1381H78.8644Z" fill="white"/>
<path d="M80.5029 65.4811V64.2109C79.9426 64.4693 79.4039 64.7276 78.8867 64.986V65.4811H80.5029Z" fill="#71495A"/>
<path d="M82.1202 65.4809L82.0986 63.8447H81.3444C81.0427 63.9739 80.7626 64.1031 80.4824 64.2107V65.4809H82.1202Z" fill="#D8BFB4"/>
<path d="M80.4991 65.4981L78.8613 65.5098L78.873 67.146L80.5107 67.1343L80.4991 65.4981Z" fill="#D8BFB4"/>
<path d="M82.1358 65.4767L80.498 65.4883L80.5097 67.1245L82.1474 67.1129L82.1358 65.4767Z" fill="white"/>
<path d="M83.753 63.8399L82.1152 63.8516L82.1269 65.4878L83.7646 65.4761L83.753 63.8399Z" fill="#71495A"/>
<path d="M85.3917 63.8194L83.7539 63.8311L83.7655 65.4672L85.4033 65.4556L85.3917 63.8194Z" fill="#D8BFB4"/>
<path d="M83.753 65.4767L82.1152 65.4883L82.1269 67.1245L83.7646 67.1129L83.753 65.4767Z" fill="#D8BFB4"/>
<path d="M85.3917 65.4542L83.7539 65.4658L83.7656 67.102L85.4033 67.0904L85.3917 65.4542Z" fill="white"/>
<path d="M87.0049 63.8184L85.3672 63.8301L85.3789 65.4663L87.0166 65.4546L87.0049 63.8184Z" fill="#71495A"/>
<path d="M88.6456 63.7979L87.0078 63.8096L87.0195 65.4458L88.6572 65.4341L88.6456 63.7979Z" fill="#D8BFB4"/>
<path d="M87.0284 65.4561L85.3906 65.4678L85.4023 67.104L87.0401 67.0923L87.0284 65.4561Z" fill="#D8BFB4"/>
<path d="M88.6456 65.4337L87.0078 65.4453L87.0195 67.0815L88.6572 67.0699L88.6456 65.4337Z" fill="white"/>
<path d="M88.6485 65.438L90.2001 65.4164C90.0924 64.8351 89.9846 64.2969 89.8553 63.8448C89.8553 63.8233 89.8553 63.8018 89.8338 63.8018H88.627L88.6485 65.438Z" fill="#71495A"/>
<path d="M88.6484 67.0523L90.2862 67.0307V65.8251C90.2646 65.6744 90.2431 65.5452 90.2215 65.3945L88.67 65.4161L88.6484 67.0523Z" fill="#D8BFB4"/>
<path d="M90.4575 67.0513C90.3929 66.6207 90.3498 66.2332 90.2852 65.8457V67.0513H90.4575Z" fill="white"/>
<path d="M47.8993 67.3535H47.77C47.7053 67.8702 47.6622 68.4084 47.6191 68.9897H47.8993V67.3535Z" fill="#71495A"/>
<path d="M49.5303 67.3497L47.8926 67.3613L47.9042 68.9975L49.542 68.9859L49.5303 67.3497Z" fill="#D8BFB4"/>
<path d="M47.919 68.9688H47.6389C47.5958 69.4854 47.5742 70.0237 47.5742 70.6049H47.9406L47.919 68.9688Z" fill="#D8BFB4"/>
<path d="M49.5518 68.9649L47.9141 68.9766L47.9257 70.6128L49.5635 70.6011L49.5518 68.9649Z" fill="white"/>
<path d="M51.169 67.3282L49.5312 67.3398L49.5429 68.976L51.1807 68.9644L51.169 67.3282Z" fill="#71495A"/>
<path d="M52.8077 67.3067L51.1699 67.3184L51.1816 68.9546L52.8193 68.9429L52.8077 67.3067Z" fill="#D8BFB4"/>
<path d="M51.169 68.9649L49.5312 68.9766L49.5429 70.6128L51.1807 70.6011L51.169 68.9649Z" fill="#D8BFB4"/>
<path d="M52.8077 68.9424L51.1699 68.9541L51.1816 70.5903L52.8194 70.5786L52.8077 68.9424Z" fill="white"/>
<path d="M54.4229 67.3067L52.7852 67.3184L52.7968 68.9546L54.4345 68.9429L54.4229 67.3067Z" fill="#71495A"/>
<path d="M56.0616 67.2852L54.4238 67.2969L54.4355 68.9331L56.0733 68.9214L56.0616 67.2852Z" fill="#D8BFB4"/>
<path d="M54.4444 68.9425L52.8066 68.9541L52.8183 70.5903L54.456 70.5787L54.4444 68.9425Z" fill="#D8BFB4"/>
<path d="M56.0616 68.922L54.4238 68.9336L54.4355 70.5698L56.0732 70.5582L56.0616 68.922Z" fill="white"/>
<path d="M57.6983 67.2853L56.0605 67.2969L56.0722 68.9331L57.7099 68.9215L57.6983 67.2853Z" fill="#71495A"/>
<path d="M59.3155 67.2637L57.6777 67.2754L57.6894 68.9116L59.3271 68.8999L59.3155 67.2637Z" fill="#D8BFB4"/>
<path d="M57.6983 68.922L56.0605 68.9336L56.0722 70.5698L57.71 70.5582L57.6983 68.922Z" fill="#D8BFB4"/>
<path d="M59.337 68.8995L57.6992 68.9111L57.7109 70.5473L59.3487 70.5357L59.337 68.8995Z" fill="white"/>
<path d="M60.9542 67.2638L59.3164 67.2754L59.328 68.9116L60.9658 68.9L60.9542 67.2638Z" fill="#71495A"/>
<path d="M62.5909 67.2422L60.9531 67.2539L60.9648 68.8901L62.6026 68.8784L62.5909 67.2422Z" fill="#D8BFB4"/>
<path d="M60.9522 68.879L59.3145 68.8906L59.3261 70.5268L60.9638 70.5152L60.9522 68.879Z" fill="#D8BFB4"/>
<path d="M62.5909 68.878L60.9531 68.8896L60.9648 70.5258L62.6025 70.5142L62.5909 68.878Z" fill="white"/>
<path d="M62.5723 68.8813L64.21 68.8598V67.9771C63.8652 67.7403 63.4989 67.4819 63.111 67.2451H62.5723V68.8813Z" fill="#71495A"/>
<path d="M65.3942 68.8602C65.0279 68.5803 64.64 68.2789 64.209 67.9775V68.8602H65.3942Z" fill="#D8BFB4"/>
<path d="M64.2276 68.8565L62.5898 68.8682L62.6015 70.5044L64.2392 70.4927L64.2276 68.8565Z" fill="#D8BFB4"/>
<path d="M64.2324 70.4966L65.8702 70.4751V69.2049C65.7193 69.0972 65.5685 68.968 65.4176 68.8389H64.2324V70.4966Z" fill="white"/>
<path d="M67.2719 70.4762C66.9055 70.1317 66.4314 69.7012 65.8496 69.2275V70.4977L67.2719 70.4762Z" fill="#D8BFB4"/>
<path d="M72.3557 69.2051C71.7954 69.6787 71.3428 70.1093 70.998 70.4322H72.3772L72.3557 69.2051Z" fill="white"/>
<path d="M73.9936 67.9346C73.5842 68.236 73.2178 68.5159 72.873 68.7957H74.0152L73.9936 67.9346Z" fill="#71495A"/>
<path d="M75.6319 68.7749L75.6103 67.1387H75.1147C74.7053 67.397 74.3389 67.6769 73.9941 67.9137V68.7749H75.6319Z" fill="#D8BFB4"/>
<path d="M74.0148 70.4331L73.9932 68.7969H72.8511C72.6787 68.926 72.5063 69.0767 72.3555 69.2059V70.4331H74.0148Z" fill="#D8BFB4"/>
<path d="M75.6299 68.7921L73.9922 68.8037L74.0038 70.4399L75.6416 70.4283L75.6299 68.7921Z" fill="white"/>
<path d="M77.2452 67.1348L75.6074 67.1465L75.6191 68.7827L77.2569 68.771L77.2452 67.1348Z" fill="#71495A"/>
<path d="M78.8819 67.1349L77.2441 67.1465L77.2558 68.7827L78.8935 68.7711L78.8819 67.1349Z" fill="#D8BFB4"/>
<path d="M77.2647 68.7706L75.627 68.7822L75.6386 70.4184L77.2763 70.4068L77.2647 68.7706Z" fill="#D8BFB4"/>
<path d="M78.9033 68.7706L77.2656 68.7822L77.2773 70.4184L78.915 70.4068L78.9033 68.7706Z" fill="white"/>
<path d="M80.5186 67.1133L78.8809 67.125L78.8925 68.7612L80.5303 68.7495L80.5186 67.1133Z" fill="#71495A"/>
<path d="M82.1358 67.1124L80.498 67.124L80.5097 68.7602L82.1474 68.7486L82.1358 67.1124Z" fill="#D8BFB4"/>
<path d="M80.5206 68.75L78.8828 68.7617L78.8945 70.3979L80.5322 70.3862L80.5206 68.75Z" fill="#D8BFB4"/>
<path d="M82.1572 68.7276L80.5195 68.7393L80.5312 70.3754L82.1689 70.3638L82.1572 68.7276Z" fill="white"/>
<path d="M83.7725 67.0919L82.1348 67.1035L82.1464 68.7397L83.7841 68.7281L83.7725 67.0919Z" fill="#71495A"/>
<path d="M85.4131 67.0909L83.7754 67.1025L83.787 68.7387L85.4247 68.7271L85.4131 67.0909Z" fill="#D8BFB4"/>
<path d="M83.796 68.7276L82.1582 68.7393L82.1699 70.3755L83.8076 70.3638L83.796 68.7276Z" fill="#D8BFB4"/>
<path d="M85.4112 68.7061L83.7734 68.7178L83.7851 70.354L85.4228 70.3423L85.4112 68.7061Z" fill="white"/>
<path d="M87.0284 67.0704L85.3906 67.082L85.4023 68.7182L87.04 68.7066L87.0284 67.0704Z" fill="#71495A"/>
<path d="M88.6651 67.0694L87.0273 67.0811L87.039 68.7173L88.6767 68.7056L88.6651 67.0694Z" fill="#D8BFB4"/>
<path d="M87.0498 68.7061L85.4121 68.7178L85.4238 70.354L87.0615 70.3423L87.0498 68.7061Z" fill="#D8BFB4"/>
<path d="M88.6866 68.6847L87.0488 68.6963L87.0605 70.3325L88.6982 70.3209L88.6866 68.6847Z" fill="white"/>
<path d="M90.3038 67.0479L88.666 67.0596L88.6777 68.6958L90.3154 68.6841L90.3038 67.0479Z" fill="#71495A"/>
<path d="M90.3067 68.6665H90.6299C90.5868 68.0852 90.5222 67.547 90.4575 67.0303H90.2852L90.3067 68.6665Z" fill="#D8BFB4"/>
<path d="M90.3037 68.6856L88.666 68.6973L88.6777 70.3335L90.3154 70.3218L90.3037 68.6856Z" fill="#D8BFB4"/>
<path d="M90.3067 70.3022H90.7161C90.6946 69.7425 90.6515 69.1827 90.6084 68.666H90.2852L90.3067 70.3022Z" fill="white"/>
<path d="M47.9196 70.6045H47.5533C47.5317 71.1212 47.5317 71.6594 47.5533 72.2407H47.9412L47.9196 70.6045Z" fill="#71495A"/>
<path d="M49.5518 70.6007L47.9141 70.6123L47.9257 72.2485L49.5635 72.2369L49.5518 70.6007Z" fill="#D8BFB4"/>
<path d="M47.9406 72.2412H47.5527C47.5527 72.3273 47.5527 72.3919 47.5527 72.478C47.5527 72.9517 47.5527 73.4253 47.5743 73.8774H47.9622L47.9406 72.2412Z" fill="#D8BFB4"/>
<path d="M49.5733 72.2364L47.9355 72.248L47.9472 73.8842L49.585 73.8726L49.5733 72.2364Z" fill="white"/>
<path d="M51.1905 70.5792L49.5527 70.5908L49.5644 72.227L51.2021 72.2154L51.1905 70.5792Z" fill="#71495A"/>
<path d="M52.8291 70.5792L51.1914 70.5908L51.2031 72.227L52.8408 72.2154L52.8291 70.5792Z" fill="#D8BFB4"/>
<path d="M51.212 72.2149L49.5742 72.2266L49.5859 73.8628L51.2236 73.8511L51.212 72.2149Z" fill="#D8BFB4"/>
<path d="M52.8272 72.1934L51.1895 72.2051L51.2011 73.8413L52.8389 73.8296L52.8272 72.1934Z" fill="white"/>
<path d="M54.4444 70.5577L52.8066 70.5693L52.8183 72.2055L54.456 72.1939L54.4444 70.5577Z" fill="#71495A"/>
<path d="M56.0811 70.5577L54.4434 70.5693L54.455 72.2055L56.0928 72.1939L56.0811 70.5577Z" fill="#D8BFB4"/>
<path d="M54.4659 72.1934L52.8281 72.2051L52.8398 73.8413L54.4776 73.8296L54.4659 72.1934Z" fill="#D8BFB4"/>
<path d="M56.1045 72.172L54.4668 72.1836L54.4785 73.8198L56.1162 73.8081L56.1045 72.172Z" fill="white"/>
<path d="M57.7217 70.5362L56.084 70.5479L56.0957 72.184L57.7334 72.1724L57.7217 70.5362Z" fill="#71495A"/>
<path d="M59.337 70.5362L57.6992 70.5479L57.7109 72.184L59.3487 72.1724L59.337 70.5362Z" fill="#D8BFB4"/>
<path d="M57.7198 72.172L56.082 72.1836L56.0937 73.8198L57.7314 73.8082L57.7198 72.172Z" fill="#D8BFB4"/>
<path d="M59.3585 72.1505L57.7207 72.1621L57.7324 73.7983L59.3701 73.7867L59.3585 72.1505Z" fill="white"/>
<path d="M60.9737 70.5147L59.3359 70.5264L59.3476 72.1626L60.9853 72.1509L60.9737 70.5147Z" fill="#71495A"/>
<path d="M62.6124 70.5147L60.9746 70.5264L60.9863 72.1626L62.624 72.1509L62.6124 70.5147Z" fill="#D8BFB4"/>
<path d="M60.9756 72.1504L59.3379 72.1621L59.3496 73.7983L60.9873 73.7866L60.9756 72.1504Z" fill="#D8BFB4"/>
<path d="M62.6124 72.129L60.9746 72.1406L60.9863 73.7768L62.624 73.7652L62.6124 72.129Z" fill="white"/>
<path d="M64.2276 70.4933L62.5898 70.5049L62.6015 72.1411L64.2392 72.1295L64.2276 70.4933Z" fill="#71495A"/>
<path d="M65.8663 70.4708L64.2285 70.4824L64.2401 72.1186L65.8779 72.107L65.8663 70.4708Z" fill="#D8BFB4"/>
<path d="M64.251 72.129L62.6133 72.1406L62.6249 73.7768L64.2627 73.7652L64.251 72.129Z" fill="#D8BFB4"/>
<path d="M65.8663 72.1075L64.2285 72.1191L64.2402 73.7553L65.878 73.7437L65.8663 72.1075Z" fill="white"/>
<path d="M65.8711 72.1118H67.3149V70.9923C67.3149 70.8632 67.358 70.734 67.4657 70.6263C67.4226 70.5833 67.358 70.5187 67.2934 70.4541H65.8711V72.1118Z" fill="#71495A"/>
<path d="M67.2934 72.0898L65.8711 72.1114V73.7476L67.3149 73.726L67.2934 72.3697V72.0898Z" fill="#D8BFB4"/>
<path d="M71.1081 70.9708V72.0903H72.401L72.3795 70.4541H71.0003C70.9572 70.4972 70.9141 70.5187 70.8926 70.5617C71.0219 70.6479 71.0865 70.7986 71.1081 70.9708Z" fill="#D8BFB4"/>
<path d="M71.1074 72.0684V72.3482V73.7045L72.4004 73.683L72.3789 72.0684H71.1074Z" fill="white"/>
<path d="M74.0128 70.4278L72.375 70.4395L72.3866 72.0756L74.0244 72.064L74.0128 70.4278Z" fill="#71495A"/>
<path d="M75.6495 70.4073L74.0117 70.4189L74.0234 72.0551L75.6611 72.0435L75.6495 70.4073Z" fill="#D8BFB4"/>
<path d="M74.0342 72.0431L72.3965 72.0547L72.4081 73.6909L74.0459 73.6793L74.0342 72.0431Z" fill="#D8BFB4"/>
<path d="M75.6495 72.0431L74.0117 72.0547L74.0233 73.6909L75.6611 73.6793L75.6495 72.0431Z" fill="white"/>
<path d="M77.2647 70.4073L75.627 70.4189L75.6386 72.0551L77.2763 72.0435L77.2647 70.4073Z" fill="#71495A"/>
<path d="M78.9034 70.3849L77.2656 70.3965L77.2773 72.0327L78.915 72.0211L78.9034 70.3849Z" fill="#D8BFB4"/>
<path d="M77.2881 72.0216L75.6504 72.0332L75.662 73.6694L77.2997 73.6578L77.2881 72.0216Z" fill="#D8BFB4"/>
<path d="M78.9249 72.0216L77.2871 72.0332L77.2988 73.6694L78.9366 73.6578L78.9249 72.0216Z" fill="white"/>
<path d="M80.542 70.3858L78.9043 70.3975L78.916 72.0337L80.5537 72.022L80.542 70.3858Z" fill="#71495A"/>
<path d="M82.1592 70.3633L80.5215 70.375L80.5332 72.0112L82.1709 71.9995L82.1592 70.3633Z" fill="#D8BFB4"/>
<path d="M80.542 72.0001L78.9043 72.0117L78.9159 73.6479L80.5536 73.6363L80.542 72.0001Z" fill="#D8BFB4"/>
<path d="M82.1787 72.0001L80.541 72.0117L80.5527 73.6479L82.1904 73.6363L82.1787 72.0001Z" fill="white"/>
<path d="M83.796 70.3634L82.1582 70.375L82.1698 72.0112L83.8076 71.9996L83.796 70.3634Z" fill="#71495A"/>
<path d="M85.4327 70.3419L83.7949 70.3535L83.8066 71.9897L85.4444 71.9781L85.4327 70.3419Z" fill="#D8BFB4"/>
<path d="M83.8174 71.9786L82.1797 71.9902L82.1913 73.6264L83.8291 73.6148L83.8174 71.9786Z" fill="#D8BFB4"/>
<path d="M85.4327 71.9786L83.7949 71.9902L83.8066 73.6264L85.4444 73.6148L85.4327 71.9786Z" fill="white"/>
<path d="M87.0498 70.3204L85.4121 70.332L85.4238 71.9682L87.0615 71.9566L87.0498 70.3204Z" fill="#71495A"/>
<path d="M88.6866 70.3204L87.0488 70.332L87.0605 71.9682L88.6982 71.9566L88.6866 70.3204Z" fill="#D8BFB4"/>
<path d="M87.0713 71.9571L85.4336 71.9688L85.4452 73.6049L87.083 73.5933L87.0713 71.9571Z" fill="#D8BFB4"/>
<path d="M88.708 71.9571L87.0703 71.9688L87.082 73.6049L88.7197 73.5933L88.708 71.9571Z" fill="white"/>
<path d="M90.3252 70.2999L88.6875 70.3115L88.6992 71.9477L90.3369 71.9361L90.3252 70.2999Z" fill="#71495A"/>
<path d="M90.3281 71.9389H90.7591C90.7591 71.3792 90.7376 70.841 90.7376 70.3027H90.3281V71.9389Z" fill="#D8BFB4"/>
<path d="M90.3272 71.9356L88.6895 71.9473L88.7011 73.5835L90.3389 73.5718L90.3272 71.9356Z" fill="#D8BFB4"/>
<path d="M90.3281 73.5542H90.7591C90.7591 73.1021 90.7591 72.65 90.7591 72.1548C90.7591 72.0687 90.7591 72.0041 90.7591 71.918H90.3281V73.5542Z" fill="white"/>
<path d="M47.9406 73.8555H47.5527C47.5743 74.4152 47.5958 74.975 47.6389 75.4917H47.9622L47.9406 73.8555Z" fill="#71495A"/>
<path d="M49.5753 73.8517L47.9375 73.8633L47.9491 75.4995L49.5869 75.4879L49.5753 73.8517Z" fill="#D8BFB4"/>
<path d="M47.9639 75.4922H47.6406C47.6837 76.0735 47.7268 76.6117 47.7915 77.1284H47.9639V75.4922Z" fill="#D8BFB4"/>
<path d="M49.5967 75.4874L47.959 75.499L47.9706 77.1352L49.6083 77.1236L49.5967 75.4874Z" fill="white"/>
<path d="M51.212 73.8516L49.5742 73.8633L49.5859 75.4995L51.2236 75.4878L51.212 73.8516Z" fill="#71495A"/>
<path d="M52.8506 73.8302L51.2129 73.8418L51.2245 75.478L52.8623 75.4664L52.8506 73.8302Z" fill="#D8BFB4"/>
<path d="M51.2335 75.4669L49.5957 75.4785L49.6074 77.1147L51.2451 77.1031L51.2335 75.4669Z" fill="#D8BFB4"/>
<path d="M52.8506 75.4669L51.2129 75.4785L51.2245 77.1147L52.8623 77.1031L52.8506 75.4669Z" fill="white"/>
<path d="M54.4659 73.8302L52.8281 73.8418L52.8398 75.478L54.4775 75.4664L54.4659 73.8302Z" fill="#71495A"/>
<path d="M56.1046 73.8086L54.4668 73.8203L54.4785 75.4565L56.1162 75.4448L56.1046 73.8086Z" fill="#D8BFB4"/>
<path d="M54.4874 75.4444L52.8496 75.4561L52.8613 77.0923L54.499 77.0806L54.4874 75.4444Z" fill="#D8BFB4"/>
<path d="M56.126 75.4444L54.4883 75.4561L54.4999 77.0923L56.1377 77.0806L56.126 75.4444Z" fill="white"/>
<path d="M57.7413 73.7862L56.1035 73.7979L56.1152 75.434L57.7529 75.4224L57.7413 73.7862Z" fill="#71495A"/>
<path d="M59.3585 73.7872L57.7207 73.7988L57.7323 75.435L59.3701 75.4234L59.3585 73.7872Z" fill="#D8BFB4"/>
<path d="M57.7413 75.4239L56.1035 75.4355L56.1151 77.0717L57.7529 77.0601L57.7413 75.4239Z" fill="#D8BFB4"/>
<path d="M59.3799 75.4239L57.7422 75.4355L57.7538 77.0717L59.3916 77.0601L59.3799 75.4239Z" fill="white"/>
<path d="M60.9952 73.7657L59.3574 73.7773L59.3691 75.4135L61.0068 75.4019L60.9952 73.7657Z" fill="#71495A"/>
<path d="M62.6338 73.7648L60.9961 73.7764L61.0077 75.4126L62.6455 75.4009L62.6338 73.7648Z" fill="#D8BFB4"/>
<path d="M61.0186 75.4015L59.3809 75.4131L59.3925 77.0493L61.0302 77.0377L61.0186 75.4015Z" fill="#D8BFB4"/>
<path d="M62.6339 75.4014L60.9961 75.4131L61.0077 77.0493L62.6455 77.0376L62.6339 75.4014Z" fill="white"/>
<path d="M64.251 73.7442L62.6133 73.7559L62.625 75.392L64.2627 75.3804L64.251 73.7442Z" fill="#71495A"/>
<path d="M65.8878 73.7442L64.25 73.7559L64.2617 75.3921L65.8994 75.3804L65.8878 73.7442Z" fill="#D8BFB4"/>
<path d="M62.6367 75.3838L62.6583 77.02H63.9081C64.0374 76.9339 64.1667 76.8478 64.2745 76.7616V75.4053L62.6367 75.3838Z" fill="#D8BFB4"/>
<path d="M64.2539 75.3838V76.7402C64.8788 76.288 65.4176 75.879 65.8701 75.4699V75.3623L64.2539 75.3838Z" fill="white"/>
<path d="M67.3149 73.7256H65.8711L65.8926 75.3618H66.0219C66.6253 74.8666 67.0779 74.4145 67.4227 74.07C67.358 73.9839 67.3149 73.8763 67.3149 73.7256Z" fill="#71495A"/>
<path d="M65.8926 75.4699C65.9357 75.4269 65.9788 75.3838 66.0219 75.3623H65.8926V75.4699Z" fill="#D8BFB4"/>
<path d="M72.3989 73.6836H71.106V73.7051C71.106 73.8558 71.0413 73.985 70.9336 74.0926C71.2784 74.4156 71.7309 74.8462 72.2912 75.3198H72.3774L72.3989 73.6836Z" fill="#D8BFB4"/>
<path d="M72.3125 75.3193C72.3338 75.3407 72.3765 75.362 72.3978 75.4046V75.3193H72.3125Z" fill="white"/>
<path d="M74.0342 73.6788L72.3965 73.6904L72.4081 75.3266L74.0459 75.315L74.0342 73.6788Z" fill="#71495A"/>
<path d="M75.671 73.6788L74.0332 73.6904L74.0449 75.3266L75.6827 75.3149L75.671 73.6788Z" fill="#D8BFB4"/>
<path d="M72.4219 75.3193V75.4055C72.896 75.793 73.4347 76.202 74.0596 76.6541V75.3193H72.4219Z" fill="#D8BFB4"/>
<path d="M75.6748 75.2979L74.0371 75.3194V76.6542C74.1664 76.7403 74.3172 76.8479 74.4681 76.9556H75.6748V75.2979Z" fill="white"/>
<path d="M77.3097 73.6573L75.6719 73.6689L75.6835 75.3051L77.3213 75.2935L77.3097 73.6573Z" fill="#71495A"/>
<path d="M78.9249 73.6358L77.2871 73.6475L77.2987 75.2837L78.9365 75.272L78.9249 73.6358Z" fill="#D8BFB4"/>
<path d="M77.3077 75.294L75.6699 75.3057L75.6815 76.9419L77.3193 76.9302L77.3077 75.294Z" fill="#D8BFB4"/>
<path d="M78.9463 75.2725L77.3086 75.2842L77.3202 76.9204L78.958 76.9087L78.9463 75.2725Z" fill="white"/>
<path d="M80.5636 73.6358L78.9258 73.6475L78.9374 75.2837L80.5752 75.272L80.5636 73.6358Z" fill="#71495A"/>
<path d="M82.2003 73.6143L80.5625 73.626L80.5742 75.2622L82.2119 75.2505L82.2003 73.6143Z" fill="#D8BFB4"/>
<path d="M80.5635 75.2725L78.9258 75.2842L78.9375 76.9204L80.5752 76.9087L80.5635 75.2725Z" fill="#D8BFB4"/>
<path d="M82.2003 75.2511L80.5625 75.2627L80.5741 76.8989L82.2119 76.8873L82.2003 75.2511Z" fill="white"/>
<path d="M83.8174 73.6144L82.1797 73.626L82.1913 75.2622L83.8291 75.2506L83.8174 73.6144Z" fill="#71495A"/>
<path d="M85.4561 73.5929L83.8184 73.6045L83.83 75.2407L85.4677 75.2291L85.4561 73.5929Z" fill="#D8BFB4"/>
<path d="M83.8389 75.2511L82.2012 75.2627L82.2128 76.8989L83.8506 76.8873L83.8389 75.2511Z" fill="#D8BFB4"/>
<path d="M85.4541 75.2286L83.8164 75.2402L83.8281 76.8764L85.4658 76.8648L85.4541 75.2286Z" fill="white"/>
<path d="M87.0713 73.5938L85.4336 73.6055L85.4452 75.2417L87.083 75.23L87.0713 73.5938Z" fill="#71495A"/>
<path d="M88.71 73.5714L87.0723 73.583L87.0839 75.2192L88.7217 75.2076L88.71 73.5714Z" fill="#D8BFB4"/>
<path d="M87.0928 75.2081L85.4551 75.2197L85.4667 76.8559L87.1044 76.8443L87.0928 75.2081Z" fill="#D8BFB4"/>
<path d="M88.7315 75.2071L87.0938 75.2188L87.1054 76.8549L88.7432 76.8433L88.7315 75.2071Z" fill="white"/>
<path d="M90.3467 73.5714L88.709 73.583L88.7206 75.2192L90.3584 75.2076L90.3467 73.5714Z" fill="#71495A"/>
<path d="M90.3496 75.1899H90.7159C90.7375 74.6732 90.759 74.135 90.7806 73.5537H90.3496V75.1899Z" fill="#D8BFB4"/>
<path d="M90.3448 75.1866L88.707 75.1982L88.7187 76.8344L90.3564 76.8228L90.3448 75.1866Z" fill="#D8BFB4"/>
<path d="M90.3497 76.8266H90.5652C90.6083 76.3099 90.6514 75.7717 90.6945 75.1904H90.3281L90.3497 76.8266Z" fill="white"/>
<path d="M47.7891 77.1279C47.8537 77.6231 47.9184 78.0967 47.983 78.5488V77.1279H47.7891Z" fill="#71495A"/>
<path d="M49.6006 77.1064L47.9629 77.128V78.5489C47.9844 78.6135 47.9844 78.6996 48.006 78.7642L49.6006 78.7426V77.1064Z" fill="#D8BFB4"/>
<path d="M49.6005 78.7422L48.0059 78.7637C48.1136 79.3665 48.2214 79.9047 48.3291 80.3999H49.6221L49.6005 78.7422Z" fill="white"/>
<path d="M51.2335 77.1026L49.5957 77.1143L49.6074 78.7505L51.2451 78.7388L51.2335 77.1026Z" fill="#71495A"/>
<path d="M52.8702 77.0812L51.2324 77.0928L51.244 78.729L52.8818 78.7174L52.8702 77.0812Z" fill="#D8BFB4"/>
<path d="M51.2549 78.7384L49.6172 78.75L49.6288 80.3862L51.2666 80.3745L51.2549 78.7384Z" fill="#D8BFB4"/>
<path d="M52.8702 78.7178L51.2324 78.7295L51.2441 80.3657L52.8819 80.354L52.8702 78.7178Z" fill="white"/>
<path d="M54.4874 77.0812L52.8496 77.0928L52.8612 78.729L54.499 78.7174L54.4874 77.0812Z" fill="#71495A"/>
<path d="M56.126 77.0587L54.4883 77.0703L54.4999 78.7065L56.1377 78.6949L56.126 77.0587Z" fill="#D8BFB4"/>
<path d="M54.5088 78.7179L52.8711 78.7295L52.8827 80.3657L54.5205 80.3541L54.5088 78.7179Z" fill="#D8BFB4"/>
<path d="M56.1475 78.6954L54.5098 78.707L54.5214 80.3432L56.1591 80.3316L56.1475 78.6954Z" fill="white"/>
<path d="M57.7628 77.0596L56.125 77.0713L56.1367 78.7075L57.7744 78.6958L57.7628 77.0596Z" fill="#71495A"/>
<path d="M59.3799 77.0382L57.7422 77.0498L57.7538 78.686L59.3916 78.6744L59.3799 77.0382Z" fill="#D8BFB4"/>
<path d="M57.7627 78.6749L56.125 78.6865L56.1367 80.3227L57.7744 80.3111L57.7627 78.6749Z" fill="#D8BFB4"/>
<path d="M57.7695 78.6777L57.7911 80.3139H58.0928C58.5453 80.0986 58.9978 79.9049 59.4288 79.6896V78.6777H57.7695Z" fill="white"/>
<path d="M61.0186 77.0382L59.3809 77.0498L59.3925 78.686L61.0303 78.6744L61.0186 77.0382Z" fill="#71495A"/>
<path d="M61 77.0205L61.0216 78.6567H61.3017C61.7758 78.3768 62.2283 78.1185 62.6378 77.8386V77.0205H61Z" fill="#D8BFB4"/>
<path d="M59.3848 78.6777V79.6896C59.9666 79.4097 60.5053 79.1083 61.001 78.8284V78.6777H59.3848Z" fill="#D8BFB4"/>
<path d="M61.0215 78.807C61.1077 78.7639 61.2154 78.6993 61.3016 78.6562H61.0215V78.807Z" fill="white"/>
<path d="M62.6367 77.8387C63.0893 77.5588 63.4987 77.2789 63.8866 76.999H62.6367V77.8387Z" fill="#71495A"/>
<path d="M74.4688 76.9336C74.8566 77.1919 75.2445 77.4503 75.6971 77.7302V76.9336H74.4688Z" fill="#D8BFB4"/>
<path d="M77.3135 76.9131L75.6758 76.9346V77.7312C76.1068 78.0111 76.5809 78.2694 77.0765 78.5493H77.3135V76.9131Z" fill="#71495A"/>
<path d="M78.9463 76.9083L77.3086 76.9199L77.3202 78.5561L78.958 78.5445L78.9463 76.9083Z" fill="#D8BFB4"/>
<path d="M77.0762 78.5488C77.1624 78.5919 77.227 78.6349 77.3132 78.678V78.5488H77.0762Z" fill="#D8BFB4"/>
<path d="M77.334 78.5489V78.678C77.8512 78.9579 78.3899 79.2378 78.9717 79.5177V78.5273L77.334 78.5489Z" fill="white"/>
<path d="M80.585 76.8868L78.9473 76.8984L78.9589 78.5346L80.5966 78.523L80.585 76.8868Z" fill="#71495A"/>
<path d="M82.2237 76.8868L80.5859 76.8984L80.5976 78.5346L82.2353 78.523L82.2237 76.8868Z" fill="#D8BFB4"/>
<path d="M80.589 78.5273L78.9512 78.5489V79.5392C79.4037 79.7545 79.8563 79.9698 80.3304 80.1635H80.589V78.5273Z" fill="#D8BFB4"/>
<path d="M82.2217 78.5021L80.584 78.5137L80.5956 80.1499L82.2334 80.1383L82.2217 78.5021Z" fill="white"/>
<path d="M83.8389 76.8653L82.2012 76.877L82.2129 78.5131L83.8506 78.5015L83.8389 76.8653Z" fill="#71495A"/>
<path d="M85.4776 76.8653L83.8398 76.877L83.8515 78.5131L85.4892 78.5015L85.4776 76.8653Z" fill="#D8BFB4"/>
<path d="M83.8604 78.5011L82.2227 78.5127L82.2343 80.1489L83.872 80.1373L83.8604 78.5011Z" fill="#D8BFB4"/>
<path d="M85.4776 78.4805L83.8398 78.4922L83.8515 80.1284L85.4892 80.1167L85.4776 78.4805Z" fill="white"/>
<path d="M87.1143 76.8448L85.4766 76.8564L85.4882 78.4926L87.126 78.481L87.1143 76.8448Z" fill="#71495A"/>
<path d="M88.7315 76.8448L87.0938 76.8564L87.1054 78.4926L88.7432 78.481L88.7315 76.8448Z" fill="#D8BFB4"/>
<path d="M87.1143 78.4796L85.4766 78.4912L85.4882 80.1274L87.1259 80.1158L87.1143 78.4796Z" fill="#D8BFB4"/>
<path d="M88.753 78.4591L87.1152 78.4707L87.1269 80.1069L88.7646 80.0953L88.753 78.4591Z" fill="white"/>
<path d="M90.3702 76.8223L88.7324 76.834L88.7441 78.4702L90.3818 78.4585L90.3702 76.8223Z" fill="#71495A"/>
<path d="M90.3711 78.4409C90.4573 77.9457 90.5219 77.386 90.5866 76.8047H90.3711V78.4409Z" fill="#D8BFB4"/>
<path d="M88.7324 78.4619L88.754 80.0981H90.09C90.1977 79.6245 90.2839 79.1078 90.3701 78.5265V78.4619H88.7324Z" fill="#D8BFB4"/>
<path d="M49.6211 80.3779H48.3281C48.3712 80.5286 48.3928 80.6793 48.4359 80.8085C48.5436 81.2821 48.8022 81.6912 49.1255 81.9926H49.6211V80.3779Z" fill="#D8BFB4"/>
<path d="M49.127 81.9932C49.2778 82.1439 49.4502 82.273 49.6441 82.3807V81.9932H49.127Z" fill="white"/>
<path d="M51.2549 80.3545L49.6172 80.3662L49.6289 82.0024L51.2666 81.9907L51.2549 80.3545Z" fill="#71495A"/>
<path d="M52.8936 80.3546L51.2559 80.3662L51.2675 82.0024L52.9053 81.9908L52.8936 80.3546Z" fill="#D8BFB4"/>
<path d="M49.6426 81.9932V82.3807C50.1167 82.6606 50.6985 82.7683 51.2803 82.6822V81.9717L49.6426 81.9932Z" fill="#D8BFB4"/>
<path d="M51.2598 81.9932V82.7037C51.346 82.6821 51.4537 82.6606 51.5399 82.6391C51.9924 82.5099 52.445 82.3807 52.876 82.2516V81.9717L51.2598 81.9932Z" fill="white"/>
<path d="M52.875 80.3359L52.8965 81.9721H53.7801C54.0387 81.886 54.2757 81.7999 54.5343 81.7138V80.3359H52.875Z" fill="#71495A"/>
<path d="M54.5156 80.336V81.7138C55.0759 81.5201 55.6147 81.3263 56.1318 81.111V80.3145L54.5156 80.336Z" fill="#D8BFB4"/>
<path d="M52.8984 82.2516C53.2001 82.1654 53.4803 82.0793 53.782 81.9717H52.8984V82.2516Z" fill="#D8BFB4"/>
<path d="M56.1523 80.3145V81.111C56.7126 80.8957 57.2514 80.6589 57.7685 80.4436V80.3145H56.1523Z" fill="#71495A"/>
<path d="M57.7695 80.4436C57.8773 80.4006 57.9635 80.3575 58.0712 80.3145H57.7695V80.4436Z" fill="#D8BFB4"/>
<path d="M80.3516 80.1416C80.4378 80.1847 80.524 80.2062 80.6102 80.2492V80.1416H80.3516Z" fill="#71495A"/>
<path d="M80.5879 80.1416V80.2492C81.1051 80.4645 81.6654 80.7014 82.2256 80.9166V80.1416H80.5879Z" fill="#D8BFB4"/>
<path d="M82.2266 80.1416V80.9167C82.7437 81.1104 83.304 81.3042 83.8643 81.498V80.1201L82.2266 80.1416Z" fill="#71495A"/>
<path d="M85.4796 80.1201L83.8418 80.1416V81.5195C84.1004 81.6056 84.359 81.6917 84.6391 81.7778H85.4796V80.1201Z" fill="#D8BFB4"/>
<path d="M85.5025 81.7354H84.6621C84.9423 81.8215 85.2224 81.9076 85.5025 81.9937V81.7354Z" fill="white"/>
<path d="M87.1358 80.0958L85.498 80.1074L85.5097 81.7436L87.1474 81.732L87.1358 80.0958Z" fill="#71495A"/>
<path d="M88.753 80.0958L87.1152 80.1074L87.1269 81.7436L88.7646 81.732L88.753 80.0958Z" fill="#D8BFB4"/>
<path d="M85.502 81.7354V81.9937C85.9545 82.1229 86.407 82.252 86.8811 82.3812C86.9673 82.4027 87.0535 82.4243 87.1397 82.4243V81.7354H85.502Z" fill="#D8BFB4"/>
<path d="M87.1406 81.7354V82.4243C87.7225 82.5104 88.2827 82.4028 88.7784 82.1229V81.7139L87.1406 81.7354Z" fill="white"/>
<path d="M88.756 81.7133H89.2947C89.618 81.3904 89.855 80.9814 89.9628 80.5077C89.9843 80.3786 90.0274 80.2279 90.049 80.0771H88.7129L88.756 81.7133Z" fill="#71495A"/>
<path d="M88.7539 82.1229C88.9479 82.0153 89.1418 81.8646 89.2926 81.7139H88.7539V82.1229Z" fill="#D8BFB4"/>
<path d="M69.1895 71.1215H70.3531C70.4608 71.0138 70.5686 70.8847 70.741 70.7124C70.7841 70.6694 70.8272 70.6263 70.8918 70.5617C70.8056 70.4972 70.6979 70.4541 70.5686 70.4541H69.1895V71.1215Z" fill="#71495A"/>
<path d="M70.7625 72.0693V70.6914C70.6117 70.8421 70.4824 70.9928 70.3746 71.1005H69.2109V72.0693H70.7625Z" fill="#71495A"/>
<path d="M70.7617 72.0686H71.1065V70.9491C71.1065 70.7769 71.0203 70.6477 70.9126 70.54C70.8695 70.5831 70.8048 70.6477 70.7617 70.6907V72.0686Z" fill="#71495A"/>
<path d="M70.7625 72.0866L69.2109 72.0977L69.2129 72.3776L70.7645 72.3665L70.7625 72.0866Z" fill="#71495A"/>
<path d="M71.1085 72.0688L70.7637 72.0713L70.7657 72.3511L71.1105 72.3487L71.1085 72.0688Z" fill="#71495A"/>
<path d="M70.5471 73.7048C70.4178 73.5541 70.31 73.4465 70.2238 73.3604H69.1895V74.243H70.5686C70.6979 74.243 70.8272 74.1784 70.9134 74.0923C70.8488 74.0277 70.7841 73.9632 70.741 73.9201C70.6979 73.8555 70.6117 73.7694 70.5471 73.7048Z" fill="#D8BFB4"/>
<path d="M69.2109 72.3486V73.3605H70.2453C70.31 73.4466 70.4177 73.5542 70.5686 73.7049H70.7841V72.3486H69.2109Z" fill="#D8BFB4"/>
<path d="M71.1046 72.3491L70.7598 72.3516L70.7694 73.7079L71.1142 73.7054L71.1046 72.3491Z" fill="#D8BFB4"/>
<path d="M70.7624 73.9204V73.7051H70.5469C70.6115 73.7697 70.6977 73.8558 70.7624 73.9204Z" fill="#D8BFB4"/>
<path d="M71.1065 73.7266L70.7617 73.7051V73.9204C70.8264 73.985 70.8695 74.028 70.9341 74.0926C71.0634 74.0065 71.1281 73.8773 71.1065 73.7266Z" fill="#D8BFB4"/>
<path d="M67.4865 70.6909C67.6589 70.8631 67.8097 71.0138 67.9174 71.1215H69.1242H69.2104V70.4541H67.8313C67.6804 70.4541 67.5511 70.5187 67.4434 70.6263C67.4434 70.6479 67.4649 70.6694 67.4865 70.6909Z" fill="#D8BFB4"/>
<path d="M67.293 72.0899H67.4869V70.669C67.4654 70.6475 67.4438 70.626 67.4438 70.626C67.3576 70.7121 67.293 70.8413 67.293 70.992V72.0899Z" fill="#D8BFB4"/>
<path d="M69.1241 71.122H67.9173C67.8096 71.0143 67.6587 70.8636 67.4863 70.6914V72.1123L69.1241 72.0908V71.122Z" fill="#D8BFB4"/>
<path d="M67.4869 72.0904L67.293 72.0918L67.2949 72.3717L67.4889 72.3703L67.4869 72.0904Z" fill="#D8BFB4"/>
<path d="M69.1475 72.0862L67.5098 72.0977L67.5117 72.3775L69.1495 72.3661L69.1475 72.0862Z" fill="#D8BFB4"/>
<path d="M69.2093 71.1224L69.123 71.123L69.1299 72.0918L69.2161 72.0912L69.2093 71.1224Z" fill="#D8BFB4"/>
<path d="M69.2112 72.0912L69.125 72.0918L69.127 72.3717L69.2131 72.3711L69.2112 72.0912Z" fill="#D8BFB4"/>
<path d="M69.2105 73.3809H69.1243H68.0684C68.0037 73.467 67.896 73.5746 67.7667 73.7253C67.702 73.8114 67.6158 73.8976 67.5081 73.9837C67.4865 74.0052 67.465 74.0267 67.4219 74.0698C67.5081 74.199 67.6589 74.2635 67.8313 74.2635H69.2105V73.3809Z" fill="white"/>
<path d="M67.5045 72.3707L67.3105 72.3721L67.3202 73.7284L67.5141 73.727L67.5045 72.3707Z" fill="white"/>
<path d="M67.5078 72.3701V73.7264H67.7664C67.8957 73.5757 68.0034 73.4681 68.0681 73.382H69.124V72.3701H67.5078Z" fill="white"/>
<path d="M69.2073 72.35L69.1211 72.3506L69.1283 73.3625L69.2145 73.3618L69.2073 72.35Z" fill="white"/>
<path d="M67.5084 73.7256H67.3145V73.7471C67.3145 73.8763 67.3576 73.9839 67.4222 74.07C67.4438 74.0485 67.4869 74.0055 67.5084 73.9839V73.7256Z" fill="white"/>
<path d="M67.5078 73.9839C67.594 73.8763 67.6802 73.7902 67.7664 73.7256H67.5078V73.9839Z" fill="white"/>
<path d="M37.5969 74.1144L37.3814 74.0067C36.9289 73.7484 36.4548 73.4685 36.0238 73.2101C35.8083 73.081 35.6144 72.9518 35.3989 72.8226C34.8602 72.4782 34.343 72.1122 33.8258 71.7462C33.7181 71.6816 33.6103 71.5955 33.5241 71.5309C33.4164 71.4448 33.3086 71.3802 33.2224 71.2941C32.9207 71.0573 32.619 70.8204 32.3173 70.5836C32.2311 70.4975 32.1234 70.4329 32.0372 70.3468L32.0157 70.3253C31.9295 70.2392 31.8217 70.1746 31.7355 70.0885C30.2917 68.8613 28.9556 67.505 27.792 66.0195C27.7058 65.9119 27.6411 65.8257 27.5549 65.7181C27.167 65.2014 26.7792 64.6632 26.4344 64.1034C26.3697 63.9958 26.2835 63.8881 26.2189 63.759C26.1542 63.6513 26.0896 63.5437 26.0034 63.4145C25.9387 63.3069 25.8741 63.1777 25.8094 63.07C25.6586 62.8117 25.5293 62.5533 25.3784 62.295C25.3353 62.2089 25.2923 62.1012 25.2276 62.0151C25.163 61.886 25.0983 61.7783 25.0552 61.6491C24.9906 61.52 24.9259 61.4123 24.8828 61.2831C24.8182 61.154 24.7751 61.0463 24.7104 60.9172C24.6027 60.6803 24.5165 60.4651 24.4087 60.2282C24.3441 60.0775 24.2794 59.9268 24.2363 59.7761C24.2148 59.69 24.1717 59.6254 24.1501 59.5393C24.107 59.4532 24.0855 59.3455 24.0424 59.2594C23.9993 59.1518 23.9562 59.0226 23.9131 58.8934C23.7838 58.4844 23.6545 58.0753 23.5468 57.6663C23.5037 57.5586 23.4821 57.4295 23.4606 57.3218C23.4175 57.1711 23.3959 57.042 23.3528 56.8913C23.3313 56.7621 23.2882 56.6544 23.2666 56.5253C23.2451 56.4176 23.2235 56.2884 23.202 56.1808C23.1804 56.0301 23.1373 55.9009 23.1158 55.7502C23.0942 55.5995 23.0511 55.4703 23.0296 55.3196C22.6632 53.1883 22.5339 50.8847 22.7063 48.3873C22.771 47.4185 22.8572 46.4713 22.9649 45.5455C23.008 45.2226 23.0511 44.8997 23.0727 44.5767C23.1158 44.2107 23.1589 43.8448 23.2235 43.5003C23.2666 43.285 23.2882 43.0482 23.3313 42.8329C23.5683 41.3905 23.8269 39.9911 24.1501 38.6348C23.9131 39.7973 23.6329 41.4766 23.439 43.4788C23.3313 44.6198 23.2451 45.8685 23.2235 47.2033C23.1589 51.0569 23.5683 55.4703 25.163 59.4962C28.2661 67.3328 37.2306 74.2005 43.3291 74.8894C43.2644 74.8894 39.8812 74.997 37.5969 74.1144Z" fill="#B6724D"/>
<path d="M114.184 45.2428C114.271 45.8672 114.335 46.5131 114.4 47.1589C114.421 47.3527 114.443 47.5249 114.443 47.7187C114.465 47.8909 114.465 48.0416 114.486 48.2138C114.486 48.2354 114.486 48.2569 114.486 48.2784C114.486 48.2784 114.486 48.2999 114.486 48.3215C114.486 48.4937 114.508 48.6659 114.508 48.8382C114.508 48.8812 114.508 48.9458 114.508 49.0104C114.508 49.1826 114.529 49.3549 114.529 49.5056C114.529 49.5486 114.529 49.5917 114.529 49.6347C114.529 49.8285 114.529 50.0223 114.529 50.216C114.529 50.4098 114.529 50.6251 114.529 50.8188C114.529 50.8404 114.529 50.8404 114.529 50.8619C114.529 51.0556 114.508 51.2709 114.508 51.4647C114.508 51.6369 114.486 51.8092 114.486 51.9599C114.486 52.046 114.486 52.1106 114.465 52.1751C114.443 52.3258 114.443 52.4766 114.421 52.6488C114.421 52.6703 114.421 52.6703 114.421 52.6918C114.4 52.8856 114.378 53.0794 114.357 53.2731C114.335 53.4453 114.314 53.6391 114.292 53.8113C114.292 53.8544 114.292 53.8759 114.271 53.919C114.249 54.0912 114.227 54.2634 114.184 54.4357C114.163 54.6079 114.12 54.7801 114.098 54.9308C114.077 54.9954 114.077 55.06 114.055 55.1246C114.034 55.2753 113.99 55.4045 113.969 55.5552C113.969 55.5767 113.969 55.5767 113.969 55.5982C113.926 55.7705 113.883 55.9642 113.84 56.1365C113.796 56.3302 113.753 56.5025 113.71 56.6747C113.667 56.8469 113.624 57.0407 113.559 57.2129C113.516 57.3851 113.452 57.5574 113.409 57.7296C113.409 57.7511 113.409 57.7511 113.387 57.7727C113.344 57.9234 113.301 58.0741 113.236 58.2248C113.215 58.2678 113.215 58.3109 113.193 58.3539C113.15 58.4831 113.107 58.6338 113.042 58.763C112.978 58.9352 112.913 59.1074 112.848 59.2797C112.697 59.6457 112.547 60.0117 112.396 60.3776C112.331 60.5068 112.288 60.636 112.223 60.7652C111.62 62.0569 110.909 63.2625 110.112 64.4036C110.047 64.4897 110.004 64.5758 109.939 64.6404C109.874 64.7265 109.831 64.8126 109.767 64.8772C109.659 65.0279 109.551 65.1571 109.444 65.3078C109.142 65.6953 108.819 66.0828 108.495 66.4703C108.431 66.5564 108.366 66.621 108.28 66.7071C108.172 66.8148 108.086 66.9224 107.978 67.0301C107.914 67.1162 107.827 67.1808 107.763 67.2669C107.59 67.4606 107.418 67.6329 107.224 67.8266C107.138 67.9128 107.052 67.9989 106.987 68.0635C106.987 68.085 106.965 68.085 106.944 68.1065C106.836 68.2142 106.707 68.3433 106.599 68.451C106.577 68.4725 106.577 68.4725 106.556 68.494C106.427 68.6017 106.319 68.7309 106.19 68.8385C106.039 68.9677 105.909 69.0968 105.759 69.226C105.651 69.3121 105.543 69.4198 105.435 69.5059C104.853 70.0011 104.272 70.4747 103.647 70.9268C103.517 71.0129 103.41 71.099 103.28 71.2067C103.151 71.2928 103.022 71.4004 102.893 71.4865C102.828 71.5296 102.763 71.5727 102.699 71.6157C102.569 71.7018 102.44 71.8095 102.311 71.8956C101.858 72.197 101.406 72.4984 100.953 72.7783L99.6816 72.3908C109.637 66.621 113.215 58.3109 113.775 50.6466C114.12 46.0394 113.473 41.3246 112.913 38.3105C113.452 40.5065 113.883 42.8101 114.184 45.2428Z" fill="#B6724D"/>
<path d="M59.1917 32.3691C56.2826 32.8212 54.0414 33.6393 52.3606 34.4359C51.8434 34.6942 51.3909 34.931 50.9814 35.1678C50.6366 34.8449 50.3349 34.4574 50.0979 34.0268C49.8609 33.5962 49.71 33.1226 49.6238 32.6059C49.5807 32.283 49.5592 31.9385 49.5807 31.6156C49.6885 30.1732 50.4642 28.9029 51.6495 28.1494C52.1666 27.8265 52.7485 27.6112 53.3734 27.5036L54.0414 27.3959C56.1533 27.073 58.1574 28.2786 58.89 30.1947C59.0193 30.4961 59.1055 30.819 59.1486 31.1635C59.2348 31.5725 59.2348 31.9816 59.1917 32.3691Z" fill="#333132"/>
<path d="M58.9324 30.1947C57.8119 31.8739 55.8509 32.9719 53.6097 32.9719C52.1013 32.9719 50.7006 32.4552 49.6016 31.6156C49.7093 30.1731 50.4851 28.9029 51.6703 28.1494C52.1875 27.8265 52.7693 27.6112 53.3943 27.5036L54.0623 27.3959C56.1741 27.073 58.1782 28.2786 58.9324 30.1947Z" fill="#272425"/>
<path d="M54.573 30.6965C55.4319 30.5657 56.0249 29.7831 55.8976 28.9486C55.7702 28.114 54.9707 27.5435 54.1118 27.6743C53.2529 27.8051 52.6599 28.5877 52.7872 29.4223C52.9146 30.2568 53.7141 30.8273 54.573 30.6965Z" fill="white"/>
<path d="M48.7618 37.1703C48.6756 37.1918 48.5679 37.1488 48.5032 37.0842C48.3739 36.955 48.3739 36.7613 48.5032 36.6321C48.6541 36.4814 52.0804 33.0583 59.7089 31.9818C59.8813 31.9603 60.0537 32.0895 60.0752 32.2617C60.0968 32.4339 59.9675 32.6062 59.7951 32.6277C55.9378 33.1659 53.201 34.35 51.5632 35.2542C49.8177 36.223 48.9558 37.0842 48.9558 37.0842C48.8911 37.1272 48.8265 37.1488 48.7618 37.1703Z" fill="#43281F"/>
<path d="M77.9189 32.3691C80.8281 32.8212 83.0692 33.6393 84.7501 34.4359C85.2673 34.6942 85.7198 34.931 86.1293 35.1678C86.474 34.8449 86.7757 34.4574 87.0128 34.0268C87.2498 33.5962 87.4007 33.1226 87.4869 32.6059C87.53 32.283 87.5515 31.9385 87.53 31.6156C87.4222 30.1732 86.6464 28.9029 85.4612 28.1494C84.944 27.8265 84.3622 27.6112 83.7373 27.5036L83.0692 27.3959C80.9574 27.073 78.9533 28.2786 78.2206 30.1947C78.0913 30.4961 78.0051 30.819 77.962 31.1635C77.8758 31.5725 77.8758 31.9816 77.9189 32.3691Z" fill="#333132"/>
<path d="M78.1973 30.1947C79.3178 31.8739 81.2788 32.9719 83.52 32.9719C85.0284 32.9719 86.4292 32.4552 87.5282 31.6156C87.4204 30.1731 86.6447 28.9029 85.4594 28.1494C84.9422 27.8265 84.3604 27.6112 83.7355 27.5036L83.0674 27.3959C80.934 27.073 78.9299 28.2786 78.1973 30.1947Z" fill="#272425"/>
<path d="M84.3175 29.4303C84.4448 28.5958 83.8518 27.8132 82.9929 27.6824C82.134 27.5516 81.3345 28.1221 81.2071 28.9567C81.0798 29.7912 81.6728 30.5738 82.5317 30.7046C83.3906 30.8354 84.1901 30.2649 84.3175 29.4303Z" fill="white"/>
<path d="M88.347 37.1703C88.4332 37.1918 88.541 37.1488 88.6056 37.0842C88.7349 36.955 88.7349 36.7613 88.6056 36.6321C88.4548 36.4814 85.0284 33.0583 77.3999 31.9818C77.2275 31.9603 77.0551 32.0895 77.0336 32.2617C77.0121 32.4339 77.1413 32.6062 77.3137 32.6277C81.1711 33.1659 83.9078 34.35 85.5456 35.2542C87.2911 36.223 88.1531 37.0842 88.1531 37.0842C88.2177 37.1272 88.2824 37.1488 88.347 37.1703Z" fill="#43281F"/>
<path d="M74.5994 47.2881C74.5994 47.2881 73.9745 48.5583 73.5004 50.7973C73.3495 51.4647 73.1125 52.2397 72.7462 52.9717C71.9273 54.6509 70.505 56.201 68.4794 56.158C66.4322 56.201 65.0315 54.6509 64.2126 52.9717C63.8463 52.2397 63.6092 51.4647 63.4584 50.7973C62.9843 48.5798 62.3594 47.2881 62.3594 47.2881H62.4671C64.2126 48.3215 66.2814 48.9027 68.5225 48.8812C70.6559 48.8597 72.66 48.2784 74.3193 47.2881H74.5994Z" fill="#43281F"/>
<path d="M72.7445 52.9718C71.9256 54.651 70.5034 56.2011 68.4777 56.1581C66.4305 56.2011 65.0298 54.651 64.2109 52.9718C64.5342 52.7996 64.879 52.6488 65.2669 52.5197C66.215 52.1752 67.314 51.9814 68.4993 51.9814C69.6414 51.9814 70.7189 52.1537 71.6455 52.4766C72.0334 52.6273 72.3997 52.7996 72.7445 52.9718Z" fill="#C45D69"/>
<path d="M71.6246 52.4981C70.8273 53.4239 69.7498 54.0698 68.4353 54.0267C67.1208 54.0482 66.0649 53.4239 65.2676 52.5197C66.2158 52.1752 67.3148 51.9814 68.5 51.9814C69.6206 51.9814 70.698 52.1752 71.6246 52.4981Z" fill="#D67679"/>
<path d="M133.837 73.2949H0.597656V87.9992H133.837V73.2949Z" fill="#2F80ED"/>
<path d="M113.042 86.9882C99.7028 87.5695 94.0999 81.4553 93.9922 74.9536C93.9922 74.3723 93.9922 73.8341 94.0353 73.3174H129.656C130.044 80.6157 125.756 86.4285 113.042 86.9882Z" fill="#2B72D1"/>
<path d="M129.485 73.2959C128.752 79.1087 124.335 83.5006 114.012 84.1895C101.815 84.9861 96.2773 79.4962 95.6523 73.2959H129.485Z" fill="#2565BC"/>
<path d="M129.699 75.7281C129.569 76.2663 129.397 76.8045 129.181 77.3212C127.565 81.1318 123.406 83.8014 115.519 84.1458C104.615 84.6195 99.6588 79.9477 99.0123 74.6947C98.9908 74.544 98.9692 74.3717 98.9692 74.221C98.9477 74.0273 98.9477 73.855 98.9477 73.6613C98.883 69.7215 100.154 66.9873 102.611 65.1358C102.633 65.1143 102.676 65.0928 102.697 65.0712C105.132 63.2628 108.731 62.294 113.343 61.8634C120.238 61.196 126.488 63.4996 128.923 68.0853C128.987 68.2145 129.052 68.3221 129.095 68.4513C129.526 69.3555 129.806 70.3458 129.914 71.4007C130.065 72.9078 130 74.3717 129.699 75.7281Z" fill="#B6724D"/>
<path d="M129.181 77.2997C127.565 81.1103 123.406 83.7799 115.519 84.1244C104.615 84.598 99.6588 79.9262 99.0123 74.6732C98.9692 74.3287 98.9477 73.9843 98.9477 73.6398C98.883 69.7 100.154 66.9659 102.611 65.1144C102.633 65.0929 102.676 65.0713 102.697 65.0498C102.072 68.0638 101.9 75.3191 114.593 75.3191C125.13 75.3191 128.621 71.6807 128.901 68.0638C128.966 68.193 129.031 68.3007 129.074 68.4298C129.505 69.334 129.785 70.3244 129.893 71.3793C130.13 73.5106 129.936 75.5344 129.181 77.2997Z" fill="#AD6946"/>
<path d="M129.181 77.3006C127.565 81.1112 123.406 83.7808 115.519 84.1252C104.615 84.5989 99.6588 79.9271 99.0123 74.6741C98.9692 74.3296 98.9477 73.9851 98.9477 73.6407C98.883 69.7009 100.154 66.9667 102.611 65.1152C101.49 69.012 99.6372 79.884 113.881 80.1424C127.242 80.4007 129.354 73.4039 129.095 68.4092C129.526 69.3134 129.806 70.3037 129.914 71.3586C130.13 73.5115 129.936 75.5352 129.181 77.3006Z" fill="#945339"/>
<path d="M129.181 77.2999C129.656 74.8241 129.828 69.7218 127.35 67.3321C121.79 61.9283 108.968 62.402 103.279 66.0619C99.1201 68.753 99.0123 74.695 99.0123 74.695C98.9692 74.3505 98.9477 74.006 98.9477 73.6616C98.8184 65.8035 103.99 62.7464 113.343 61.8422C121.747 61.0457 129.203 64.6194 129.936 71.3795C130.13 73.5109 129.936 75.5346 129.181 77.2999Z" fill="#D59A77"/>
<path d="M129.7 75.7279C129.571 76.2661 129.398 76.8043 129.183 77.321C127.567 81.1316 123.408 83.8012 115.521 84.1456C104.617 84.6193 99.6603 79.9475 99.0138 74.6945C98.9923 74.5438 98.9707 74.3715 98.9707 74.2208L99.0138 74.1562C99.0138 74.1562 99.7249 83.8442 115.025 83.6074C124.614 83.4567 128.299 79.0002 129.7 75.7279Z" fill="#AD6946"/>
<path d="M26.6507 86.9882C39.9898 87.5695 45.5926 81.4553 45.7004 74.9536C45.7004 74.3723 45.7004 73.8341 45.6573 73.3174H10.0577C9.64827 80.6157 13.9366 86.4285 26.6507 86.9882Z" fill="#2B72D1"/>
<path d="M10.2305 73.2949C10.9631 79.1077 15.3808 83.4996 25.7029 84.1885C37.8999 84.9851 43.438 79.4952 44.063 73.2949H10.2305Z" fill="#2565BC"/>
<path d="M10.0138 75.7281C10.1431 76.2663 10.3155 76.8045 10.531 77.3212C12.1472 81.1318 16.3062 83.8014 24.1933 84.1458C35.0973 84.6195 40.0537 79.9477 40.7001 74.6947C40.7217 74.544 40.7432 74.3717 40.7432 74.221C40.7648 74.0273 40.7648 73.855 40.7648 73.6613C40.8294 69.7215 39.558 66.9873 37.1014 65.1358C37.0798 65.1143 37.0367 65.0928 37.0152 65.0712C34.5801 63.2628 30.9814 62.294 26.3698 61.8634C19.474 61.196 13.2247 63.4996 10.7896 68.0853C10.725 68.2145 10.6603 68.3221 10.6172 68.4513C10.1862 69.3555 9.90608 70.3458 9.79833 71.4007C9.64748 72.9078 9.69058 74.3717 10.0138 75.7281Z" fill="#B6724D"/>
<path d="M10.5329 77.2997C12.1491 81.1103 16.3082 83.7799 24.1952 84.1244C35.0992 84.598 40.0556 79.9262 40.7021 74.6732C40.7452 74.3287 40.7667 73.9843 40.7667 73.6398C40.8314 69.7 39.5599 66.9659 37.1033 65.1144C37.0818 65.0929 37.0387 65.0713 37.0171 65.0498C37.642 68.0638 37.8144 75.3191 25.1219 75.3191C14.5842 75.3191 11.0932 71.6807 10.8131 68.0638C10.7484 68.193 10.6838 68.3007 10.6407 68.4298C10.2097 69.334 9.92955 70.3244 9.82181 71.3793C9.58476 73.5106 9.77871 75.5344 10.5329 77.2997Z" fill="#AD6946"/>
<path d="M10.532 77.3006C12.1482 81.1112 16.3072 83.7808 24.1943 84.1252C35.0983 84.5989 40.0546 79.9271 40.7011 74.6741C40.7442 74.3296 40.7657 73.9851 40.7657 73.6407C40.8304 69.7009 39.559 66.9667 37.1024 65.1152C38.2229 69.012 40.0762 79.884 25.832 80.1424C12.4714 80.4007 10.3596 73.4039 10.6182 68.4092C10.1872 69.3134 9.90704 70.3037 9.79929 71.3586C9.5838 73.5115 9.77774 75.5352 10.532 77.3006Z" fill="#945339"/>
<path d="M10.5315 77.2999C10.0574 74.8241 9.88502 69.7218 12.3632 67.3321C17.9229 61.9283 30.7448 62.402 36.4338 66.0619C40.5929 68.753 40.7006 74.695 40.7006 74.695C40.7437 74.3505 40.7653 74.006 40.7653 73.6616C40.8946 65.8035 35.7227 62.7464 26.3703 61.8422C17.966 61.0457 10.5099 64.6194 9.77727 71.3795C9.58332 73.5109 9.77727 75.5346 10.5315 77.2999Z" fill="#D59A77"/>
<path d="M10.0137 75.7288C10.143 76.2671 10.3154 76.8053 10.5309 77.322C12.1471 81.1326 16.3061 83.8022 24.1932 84.1466C35.0971 84.6202 40.0535 79.9485 40.7 74.6954C40.7215 74.5447 40.7431 74.3725 40.7431 74.2218L40.7 74.1572C40.7 74.1572 39.9888 83.8452 24.6888 83.6084C15.0993 83.4577 11.4144 79.0012 10.0137 75.7288Z" fill="#AD6946"/>
</svg>
