<svg width="21" height="21" viewBox="0 0 21 21" fill="none" xmlns="http://www.w3.org/2000/svg">
<circle cx="10.5" cy="10.5" r="9.99995" stroke="#DEDBDB"/>
<circle cx="10.5" cy="10.5" r="8" stroke="#DEDBDB" stroke-dasharray="2 2"/>
<path d="M10.5764 13.62C10.7868 13.62 10.9575 13.4589 10.9575 13.2604V9.11543C10.9575 8.91695 10.7868 8.75586 10.5764 8.75586C10.366 8.75586 10.1953 8.91695 10.1953 9.11543V13.2604C10.1953 13.4589 10.366 13.62 10.5764 13.62Z" fill="#DEDBDB"/>
<path d="M12.0923 13.6089C12.1055 13.6102 12.1186 13.6107 12.1314 13.6107C12.3246 13.6107 12.4902 13.4728 12.51 13.2877L12.9558 9.16246C12.9771 8.96487 12.8247 8.7885 12.6154 8.76837C12.4033 8.74895 12.2189 8.89206 12.1977 9.08964L11.752 13.2148C11.7307 13.4123 11.8829 13.5886 12.0923 13.6089Z" fill="#DEDBDB"/>
<path d="M8.95625 13.6147C8.96692 13.6147 8.9774 13.6143 8.98826 13.6134C9.19807 13.5969 9.35396 13.4232 9.33642 13.2252L8.97187 9.09231C8.95434 8.89437 8.77083 8.7482 8.56044 8.76384C8.35063 8.78038 8.19475 8.95406 8.21228 9.152L8.57683 13.2849C8.59341 13.4726 8.75997 13.6147 8.95625 13.6147Z" fill="#DEDBDB"/>
<path d="M5.90847 7.32746H6.60002L7.14808 15.0822C7.16123 15.2711 7.32759 15.4179 7.52826 15.4179H13.6263C13.8269 15.4179 13.9933 15.2711 14.0065 15.0822L14.5545 7.32746H15.2461C15.4565 7.32746 15.6272 7.16637 15.6272 6.96789C15.6272 6.7694 15.4565 6.60831 15.2461 6.60831H14.198H13.0435L12.5587 5.23618C12.5067 5.0893 12.3611 4.99023 12.1971 4.99023H8.95748C8.79341 4.99023 8.64782 5.0893 8.59598 5.23618L8.111 6.60831H6.95657H5.90847C5.69809 6.60831 5.52734 6.7694 5.52734 6.96789C5.52734 7.16637 5.69809 7.32746 5.90847 7.32746ZM9.23208 5.70938H11.9223L12.2399 6.60831H8.91442L9.23208 5.70938ZM8.38579 7.32746H12.7687H12.7726H13.7907L13.2699 14.6987H7.8848L7.36399 7.32746H8.38579Z" fill="#DEDBDB"/>
</svg>
