<svg width="60" height="60" viewBox="0 0 60 60" fill="none" xmlns="http://www.w3.org/2000/svg">
<circle cx="30" cy="30" r="30" fill="#FF8543"/>
<circle cx="30.0014" cy="30.0004" r="26.0385" stroke="white" stroke-dasharray="2 2"/>
<g clip-path="url(#clip0_2180_10822)">
<path d="M49.0398 39.8076C48.7206 39.8076 48.4629 39.5499 48.4629 39.2307V32.8845C48.4629 32.5654 48.7206 32.3076 49.0398 32.3076C49.359 32.3076 49.6167 32.5654 49.6167 32.8845V39.2307C49.6167 39.5499 49.359 39.8076 49.0398 39.8076Z" fill="white"/>
<path d="M49.0408 33.4614C48.847 33.4614 48.6577 33.3639 48.5486 33.1867L43.9333 25.6867C43.7665 25.4152 43.8507 25.0597 44.122 24.8929C44.3941 24.725 44.7491 24.8098 44.9158 25.0816L49.5312 32.5816C49.698 32.8532 49.6138 33.2087 49.3425 33.3755C49.2478 33.4338 49.1442 33.4614 49.0408 33.4614Z" fill="white"/>
<path d="M46.155 32.3081C45.9612 32.3081 45.7719 32.2106 45.6629 32.0334L42.8222 27.4169C42.6549 27.1451 42.7397 26.7899 43.0107 26.6231C43.2831 26.4558 43.6374 26.54 43.8045 26.8118L46.6454 31.4284C46.8128 31.6999 46.728 32.0554 46.4567 32.2222C46.3621 32.2805 46.2584 32.3081 46.155 32.3081Z" fill="white"/>
<path d="M44.4246 25.9615H36.9246C36.6054 25.9615 36.3477 25.7037 36.3477 25.3845C36.3477 25.0654 36.6054 24.8076 36.9246 24.8076H44.4246C44.7437 24.8076 45.0015 25.0654 45.0015 25.3845C45.0015 25.7037 44.7437 25.9615 44.4246 25.9615Z" fill="white"/>
<path d="M36.9246 38.0772C36.6054 38.0772 36.3477 37.8195 36.3477 37.5003V21.3465C36.3477 21.0273 36.6054 20.7695 36.9246 20.7695C37.2437 20.7695 37.5015 21.0273 37.5015 21.3465V37.5003C37.5015 37.8195 37.2437 38.0772 36.9246 38.0772Z" fill="white"/>
<path d="M36.9234 36.3462H13.8465C13.5273 36.3462 13.2695 36.0885 13.2695 35.7693C13.2695 35.4501 13.5273 35.1924 13.8465 35.1924H36.9234C37.2425 35.1924 37.5003 35.4501 37.5003 35.7693C37.5003 36.0885 37.2425 36.3462 36.9234 36.3462Z" fill="white"/>
<path d="M13.8465 39.8078C13.5273 39.8078 13.2695 39.5501 13.2695 39.2309V33.4617C13.2695 33.1425 13.5273 32.8848 13.8465 32.8848C14.1656 32.8848 14.4234 33.1425 14.4234 33.4617V39.2309C14.4234 39.5501 14.1656 39.8078 13.8465 39.8078Z" fill="white"/>
<path d="M36.9234 34.0386H13.8465C13.5273 34.0386 13.2695 33.7809 13.2695 33.4617C13.2695 33.1425 13.5273 32.8848 13.8465 32.8848H36.9234C37.2425 32.8848 37.5003 33.1425 37.5003 33.4617C37.5003 33.7809 37.2425 34.0386 36.9234 34.0386Z" fill="white"/>
<path d="M13.8465 43.2697C13.5273 43.2697 13.2695 43.0119 13.2695 42.6928V39.2312C13.2695 38.9121 13.5273 38.6543 13.8465 38.6543C14.1656 38.6543 14.4234 38.9121 14.4234 39.2312V42.6928C14.4234 43.0119 14.1656 43.2697 13.8465 43.2697Z" fill="white"/>
<path d="M38.0786 43.2691H24.8093C24.4902 43.2691 24.2324 43.0113 24.2324 42.6922C24.2324 42.373 24.4902 42.1152 24.8093 42.1152H38.0786C38.3977 42.1152 38.6555 42.373 38.6555 42.6922C38.6555 43.0113 38.3977 43.2691 38.0786 43.2691Z" fill="white"/>
<path d="M49.0398 43.2697C48.7206 43.2697 48.4629 43.0119 48.4629 42.6928V39.2312C48.4629 38.9121 48.7206 38.6543 49.0398 38.6543C49.359 38.6543 49.6167 38.9121 49.6167 39.2312V42.6928C49.6167 43.0119 49.359 43.2697 49.0398 43.2697Z" fill="white"/>
<path d="M42.1163 45.0002C40.8436 45.0002 39.8086 43.9652 39.8086 42.6925C39.8086 41.4197 40.8436 40.3848 42.1163 40.3848C43.389 40.3848 44.424 41.4197 44.424 42.6925C44.424 43.9652 43.389 45.0002 42.1163 45.0002ZM42.1163 41.5386C41.4799 41.5386 40.9624 42.0561 40.9624 42.6925C40.9624 43.3288 41.4799 43.8463 42.1163 43.8463C42.7526 43.8463 43.2701 43.3288 43.2701 42.6925C43.2701 42.0561 42.7526 41.5386 42.1163 41.5386Z" fill="white"/>
<path d="M42.1154 47.3079C39.5705 47.3079 37.5 45.2374 37.5 42.6925C37.5 40.1476 39.5705 38.0771 42.1154 38.0771C44.6603 38.0771 46.7308 40.1476 46.7308 42.6925C46.7308 45.2374 44.6603 47.3079 42.1154 47.3079ZM42.1154 39.231C40.2063 39.231 38.6538 40.7834 38.6538 42.6925C38.6538 44.6016 40.2063 46.1541 42.1154 46.1541C44.0245 46.1541 45.5769 44.6016 45.5769 42.6925C45.5769 40.7834 44.0245 39.231 42.1154 39.231Z" fill="white"/>
<path d="M20.7706 45.0002C19.4979 45.0002 18.4629 43.9652 18.4629 42.6925C18.4629 41.4197 19.4979 40.3848 20.7706 40.3848C22.0433 40.3848 23.0783 41.4197 23.0783 42.6925C23.0783 43.9652 22.0433 45.0002 20.7706 45.0002ZM20.7706 41.5386C20.1342 41.5386 19.6167 42.0561 19.6167 42.6925C19.6167 43.3288 20.1342 43.8463 20.7706 43.8463C21.4069 43.8463 21.9244 43.3288 21.9244 42.6925C21.9244 42.0561 21.4069 41.5386 20.7706 41.5386Z" fill="white"/>
<path d="M20.7697 47.3079C18.2248 47.3079 16.1543 45.2374 16.1543 42.6925C16.1543 40.1476 18.2248 38.0771 20.7697 38.0771C23.3146 38.0771 25.3851 40.1476 25.3851 42.6925C25.3851 45.2374 23.3146 47.3079 20.7697 47.3079ZM20.7697 39.231C18.8606 39.231 17.3081 40.7834 17.3081 42.6925C17.3081 44.6016 18.8606 46.1541 20.7697 46.1541C22.6788 46.1541 24.2312 44.6016 24.2312 42.6925C24.2312 40.7834 22.6788 39.231 20.7697 39.231Z" fill="white"/>
<path d="M16.7311 43.2691H13.8465C13.5273 43.2691 13.2695 43.0113 13.2695 42.6922C13.2695 42.373 13.5273 42.1152 13.8465 42.1152H16.7311C17.0502 42.1152 17.308 42.373 17.308 42.6922C17.308 43.0113 17.0502 43.2691 16.7311 43.2691Z" fill="white"/>
<path d="M49.0397 43.2691H46.155C45.8359 43.2691 45.5781 43.0113 45.5781 42.6922C45.5781 42.373 45.8359 42.1152 46.155 42.1152H49.0397C49.3588 42.1152 49.6166 42.373 49.6166 42.6922C49.6166 43.0113 49.3588 43.2691 49.0397 43.2691Z" fill="white"/>
<path d="M38.655 32.3083C38.3359 32.3083 38.0781 32.0505 38.0781 31.7314V27.116C38.0781 26.7968 38.3359 26.5391 38.655 26.5391C38.9742 26.5391 39.232 26.7968 39.232 27.116V31.7314C39.232 32.0505 38.9742 32.3083 38.655 32.3083Z" fill="white"/>
<path d="M46.155 32.3081H38.655C38.3359 32.3081 38.0781 32.0504 38.0781 31.7312C38.0781 31.4121 38.3359 31.1543 38.655 31.1543H46.155C46.4742 31.1543 46.732 31.4121 46.732 31.7312C46.732 32.0504 46.4742 32.3081 46.155 32.3081Z" fill="white"/>
<path d="M43.3144 27.6929H38.655C38.3359 27.6929 38.0781 27.4352 38.0781 27.116C38.0781 26.7968 38.3359 26.5391 38.655 26.5391H43.3144C43.6333 26.5391 43.8913 26.7968 43.8913 27.116C43.8913 27.4352 43.6333 27.6929 43.3144 27.6929Z" fill="white"/>
<path d="M40.9617 32.3075C40.6425 32.3075 40.3848 32.0497 40.3848 31.7305V27.114C40.3848 26.7949 40.6425 26.5371 40.9617 26.5371C41.2809 26.5371 41.5386 26.7949 41.5386 27.114V31.7305C41.5386 32.0497 41.2809 32.3075 40.9617 32.3075Z" fill="white"/>
<path d="M39.232 35.7691H38.655C38.3359 35.7691 38.0781 35.5113 38.0781 35.1922C38.0781 34.873 38.3359 34.6152 38.655 34.6152H39.232C39.5511 34.6152 39.8089 34.873 39.8089 35.1922C39.8089 35.5113 39.5511 35.7691 39.232 35.7691Z" fill="white"/>
<path d="M13.8465 34.039C13.5273 34.039 13.2695 33.7812 13.2695 33.4621V21.9236C13.2695 21.6044 13.5273 21.3467 13.8465 21.3467C14.1656 21.3467 14.4234 21.6044 14.4234 21.9236V33.4621C14.4234 33.7812 14.1656 34.039 13.8465 34.039Z" fill="white"/>
<path d="M37.5011 21.9235H13.2703C12.9511 21.9235 12.6934 21.6658 12.6934 21.3466V16.7312C12.6934 16.4121 12.9511 16.1543 13.2703 16.1543H37.5011C37.8202 16.1543 38.078 16.4121 38.078 16.7312V21.3466C38.078 21.6658 37.8202 21.9235 37.5011 21.9235ZM13.8472 20.7697H36.9241V17.3081H13.8472V20.7697Z" fill="white"/>
<path d="M27.1166 16.1541C26.7974 16.1541 26.5397 15.8964 26.5397 15.5772C26.5397 14.9409 26.0222 14.4234 25.3858 14.4234C24.7495 14.4234 24.232 14.9409 24.232 15.5772C24.232 15.8964 23.9742 16.1541 23.655 16.1541C23.3359 16.1541 23.0781 15.8964 23.0781 15.5772C23.0781 14.3045 24.1131 13.2695 25.3858 13.2695C26.6585 13.2695 27.6935 14.3045 27.6935 15.5772C27.6935 15.8964 27.4358 16.1541 27.1166 16.1541Z" fill="white"/>
<path d="M23.655 17.3077C23.3359 17.3077 23.0781 17.0499 23.0781 16.7308V15.5769C23.0781 15.2578 23.3359 15 23.655 15C23.9742 15 24.232 15.2578 24.232 15.5769V16.7308C24.232 17.0499 23.9742 17.3077 23.655 17.3077Z" fill="white"/>
<path d="M27.116 17.3077C26.7968 17.3077 26.5391 17.0499 26.5391 16.7308V15.5769C26.5391 15.2578 26.7968 15 27.116 15C27.4352 15 27.6929 15.2578 27.6929 15.5769V16.7308C27.6929 17.0499 27.4352 17.3077 27.116 17.3077Z" fill="white"/>
<path d="M31.155 17.3078C30.8359 17.3078 30.5781 17.0501 30.5781 16.7309C30.5781 16.4118 30.8359 16.154 31.155 16.154C32.4278 16.154 33.4627 15.119 33.4627 13.8463C33.4627 12.5736 32.4278 11.5386 31.155 11.5386C30.8359 11.5386 30.5781 11.2809 30.5781 10.9617C30.5781 10.6425 30.8359 10.3848 31.155 10.3848C33.0641 10.3848 34.6166 11.9372 34.6166 13.8463C34.6166 15.7554 33.0641 17.3078 31.155 17.3078Z" fill="white"/>
<path d="M27.1166 16.1534C27.0924 16.1534 27.0682 16.1523 27.0439 16.1489C26.7279 16.1089 26.5039 15.8216 26.5436 15.5055C26.7653 13.7345 28.0138 10.3848 31.1545 10.3848C31.4737 10.3848 31.7314 10.6425 31.7314 10.9617C31.7314 11.2809 31.4737 11.5386 31.1545 11.5386C28.2479 11.5386 27.7096 15.4819 27.6885 15.6492C27.6516 15.9405 27.4028 16.1534 27.1166 16.1534Z" fill="white"/>
<path d="M19.6158 17.3078C17.7067 17.3078 16.1543 15.7554 16.1543 13.8463C16.1543 11.9372 17.7067 10.3848 19.6158 10.3848C19.935 10.3848 20.1928 10.6425 20.1928 10.9617C20.1928 11.2809 19.935 11.5386 19.6158 11.5386C18.3431 11.5386 17.3081 12.5736 17.3081 13.8463C17.3081 15.119 18.3431 16.154 19.6158 16.154C19.935 16.154 20.1928 16.4118 20.1928 16.7309C20.1928 17.0501 19.935 17.3078 19.6158 17.3078Z" fill="white"/>
<path d="M23.6539 16.1534C23.3677 16.1534 23.1189 15.9405 23.082 15.6492C23.0609 15.4819 22.5226 11.5386 19.616 11.5386C19.2968 11.5386 19.0391 11.2809 19.0391 10.9617C19.0391 10.6425 19.2968 10.3848 19.616 10.3848C22.7567 10.3848 24.0052 13.7345 24.2269 15.5055C24.266 15.8216 24.0426 16.1089 23.7266 16.1489C23.7023 16.1523 23.6781 16.1534 23.6539 16.1534Z" fill="white"/>
<path d="M23.655 34.0389C23.3359 34.0389 23.0781 33.7812 23.0781 33.462V16.7312C23.0781 16.4121 23.3359 16.1543 23.655 16.1543C23.9742 16.1543 24.232 16.4121 24.232 16.7312V33.462C24.232 33.7812 23.9742 34.0389 23.655 34.0389Z" fill="white"/>
<path d="M27.116 34.0389C26.7968 34.0389 26.5391 33.7812 26.5391 33.462V16.7312C26.5391 16.4121 26.7968 16.1543 27.116 16.1543C27.4352 16.1543 27.6929 16.4121 27.6929 16.7312V33.462C27.6929 33.7812 27.4352 34.0389 27.116 34.0389Z" fill="white"/>
</g>
<defs>
<clipPath id="clip0_2180_10822">
<rect width="36.9231" height="36.9231" fill="white" transform="translate(12.6934 10.3848)"/>
</clipPath>
</defs>
</svg>
