<svg width="60" height="60" viewBox="0 0 60 60" fill="none" xmlns="http://www.w3.org/2000/svg">
<circle cx="30" cy="30" r="30" fill="#508D9F"/>
<g clip-path="url(#clip0_2132_2490)">
<path d="M30.0183 16.125C22.3499 16.125 16.1621 22.3128 16.1621 29.9811C16.1621 37.6495 22.3499 43.8373 30.0183 43.8373C37.6866 43.8373 43.8744 37.6495 43.8744 29.9811C43.8364 22.3508 37.6486 16.163 30.0183 16.125ZM30.0183 42.3188C23.223 42.3188 17.7186 36.8143 17.7186 30.0191C17.7186 23.2239 23.223 17.7194 30.0183 17.7194C36.8135 17.7194 42.3179 23.2239 42.3179 30.0191C42.3179 36.8143 36.8135 42.3188 30.0183 42.3188Z" fill="white"/>
<path d="M50.0242 33.208C50.9353 32.2969 51.9603 31.272 51.9603 29.9812C51.9603 28.6905 50.9353 27.6656 50.0242 26.7545C49.4168 26.1471 48.8094 25.5017 48.6576 24.9703C48.5057 24.4008 48.7335 23.4897 48.9613 22.6546C49.3029 21.4018 49.6446 20.0732 49.0372 19.0102C48.3919 17.9093 47.1012 17.5677 45.8104 17.226C44.9753 16.9982 44.1021 16.7705 43.6846 16.3529C43.267 15.9353 43.0392 15.0622 42.8114 14.227C42.4698 12.9363 42.1281 11.6456 41.0272 11.0002C39.8884 10.3928 38.5977 10.7345 37.3069 11.0761C36.4338 11.3039 35.5607 11.5317 34.9913 11.3798C34.4598 11.228 33.8144 10.6206 33.207 10.0132C32.3339 9.10212 31.3089 8.07715 30.0182 8.07715C28.7275 8.07715 27.7025 9.10212 26.7915 10.0132C26.1841 10.6206 25.5387 11.228 25.0072 11.3798C24.4378 11.5317 23.5267 11.3039 22.6916 11.0761C21.4388 10.7345 20.1101 10.3928 19.0472 11.0002C17.9463 11.6456 17.6046 12.9363 17.263 14.227C17.0352 15.0622 16.8074 15.9353 16.3899 16.3529C15.9723 16.7705 15.0991 16.9982 14.264 17.226C12.9733 17.5677 11.6826 17.9093 11.0372 19.0102C10.4298 20.0732 10.7715 21.4018 11.0752 22.6546C11.3029 23.5277 11.5307 24.4008 11.3789 24.9703C11.227 25.5017 10.6196 26.1471 10.0122 26.7545C9.10115 27.7035 8.07617 28.7285 8.07617 30.0192C8.07617 31.3099 9.10115 32.3349 10.0122 33.246C10.6196 33.8534 11.227 34.4987 11.3789 35.0302C11.5307 35.5996 11.3029 36.5107 11.0752 37.3459C10.7335 38.5986 10.3919 39.9273 11.0372 40.9902C11.6826 42.0911 12.9733 42.4328 14.264 42.7745C15.0991 43.0022 15.9723 43.23 16.3899 43.6476C16.8074 44.0652 17.0352 44.9383 17.263 45.7735C17.6046 47.0642 17.9463 48.3549 19.0472 49.0002C20.1101 49.6076 21.4388 49.266 22.6916 48.9623C23.5267 48.7345 24.4378 48.5067 25.0072 48.6586C25.5387 48.8104 26.1841 49.4178 26.7915 50.0252C27.7025 50.9363 28.7275 51.9613 30.0182 51.9613C31.3089 51.9613 32.3339 50.9363 33.245 50.0252C33.8524 49.4178 34.4978 48.8104 35.0292 48.6586C35.5987 48.5067 36.5097 48.7345 37.3449 48.9623C38.5977 49.3039 39.9263 49.6456 40.9893 49.0382C42.0902 48.3928 42.4318 47.1021 42.7735 45.8114C43.0013 44.9763 43.229 44.1031 43.6466 43.6855C44.0642 43.268 44.9373 43.0402 45.7725 42.8124C47.0632 42.4708 48.3539 42.1291 48.9993 41.0282C49.6066 39.9653 49.265 38.6366 48.9613 37.3838C48.7335 36.5107 48.5057 35.6376 48.6576 35.0682C48.7715 34.4608 49.4168 33.8154 50.0242 33.208ZM47.4428 37.7255C47.7085 38.6746 47.9743 39.6995 47.6706 40.231C47.3669 40.7625 46.3419 41.0282 45.3929 41.2939C44.3679 41.5597 43.267 41.8634 42.5837 42.5846C41.9003 43.3059 41.5967 44.3689 41.293 45.3938C41.0272 46.3808 40.7615 47.3679 40.23 47.6716C39.6986 47.9753 38.7115 47.7095 37.7245 47.4438C36.6616 47.178 35.5987 46.8744 34.6116 47.1401C33.6626 47.4058 32.9033 48.1651 32.1441 48.9243C31.4228 49.6456 30.6636 50.4048 30.0182 50.4048C29.3729 50.4048 28.6136 49.6456 27.8924 48.9243C27.1331 48.1651 26.3739 47.4058 25.4248 47.1401C25.1591 47.0642 24.8554 47.0262 24.5897 47.0262C23.8304 47.0642 23.0332 47.216 22.3119 47.4438C21.3629 47.7095 20.3379 47.9753 19.8064 47.6716C19.275 47.3679 19.0092 46.3429 18.7435 45.3938C18.4778 44.3689 18.1741 43.268 17.4528 42.5846C16.7315 41.8634 15.6686 41.5976 14.6436 41.2939C13.6566 41.0282 12.6696 40.7625 12.3659 40.231C12.0622 39.6995 12.3279 38.7125 12.5937 37.7255C12.8594 36.6626 13.1631 35.5996 12.8974 34.6126C12.6316 33.6636 11.8724 32.9043 11.1131 32.1451C10.3919 31.4238 9.63262 30.6646 9.63262 30.0192C9.63262 29.3739 10.3919 28.6146 11.1131 27.8933C11.8724 27.1341 12.6316 26.3749 12.8974 25.4258C13.1631 24.4388 12.8594 23.3759 12.5937 22.3129C12.3279 21.3639 12.0622 20.3389 12.3659 19.8074C12.6696 19.276 13.6946 19.0102 14.6436 18.7445C15.6686 18.4787 16.7695 18.1751 17.4528 17.4538C18.1361 16.7325 18.4398 15.6696 18.7435 14.6446C19.0092 13.6576 19.275 12.6706 19.8064 12.3669C20.3379 12.0632 21.3249 12.3289 22.3119 12.5946C23.3749 12.8604 24.4378 13.1641 25.4248 12.8983C26.3739 12.6326 27.1331 11.8734 27.8924 11.1141C28.6136 10.3549 29.3349 9.63359 30.0182 9.63359C30.7015 9.63359 31.4228 10.3928 32.1441 11.1141C32.9033 11.8734 33.6626 12.6326 34.6116 12.8983C35.5987 13.1641 36.6616 12.8604 37.7245 12.5946C38.6736 12.3289 39.6986 12.0632 40.23 12.3669C40.7615 12.6706 41.0272 13.6955 41.293 14.6446C41.5587 15.6696 41.8624 16.7705 42.5837 17.4538C43.3049 18.1371 44.3679 18.4408 45.3929 18.7445C46.3799 19.0102 47.3669 19.276 47.6706 19.8074C47.9743 20.3389 47.7085 21.3259 47.4428 22.3129C47.1771 23.3759 46.8734 24.4388 47.1391 25.4258C47.4048 26.3749 48.1641 27.1341 48.9233 27.8933C49.6446 28.6146 50.4038 29.3739 50.4038 30.0192C50.4038 30.6646 49.6446 31.4238 48.9233 32.1451C48.1641 32.9043 47.4048 33.6636 47.1391 34.6126C46.8734 35.5617 47.1771 36.6626 47.4428 37.7255Z" fill="white"/>
<path d="M36.0172 23.7939C35.3338 23.7939 34.6885 24.0597 34.2329 24.5532L28.6525 30.0956L25.7674 27.2105C24.7804 26.2235 23.186 26.1856 22.199 27.1726C21.212 28.1596 21.174 29.754 22.161 30.741C22.161 30.741 22.161 30.741 22.199 30.779L26.8683 35.4483C27.8553 36.4353 29.4497 36.4353 30.4367 35.4483L37.8393 28.0457C38.8263 27.0587 38.8263 25.4643 37.8393 24.4773C37.3458 24.0597 36.7005 23.7939 36.0172 23.7939ZM36.7384 27.0207L29.3358 34.3854C28.9562 34.765 28.3109 34.765 27.9312 34.3854L23.2619 29.716C22.8823 29.3364 22.8823 28.691 23.2619 28.3114C23.6415 27.9318 24.2869 27.9318 24.6665 28.3114L28.0831 31.728C28.3868 32.0317 28.8803 32.0317 29.184 31.728L35.3338 25.5782C35.7135 25.1985 36.3588 25.1985 36.7384 25.5782C37.1181 25.9957 37.1181 26.6411 36.7384 27.0207Z" fill="white"/>
</g>
<circle cx="29.9994" cy="30.0004" r="26.0385" stroke="white" stroke-dasharray="2 2"/>
<defs>
<clipPath id="clip0_2132_2490">
<rect width="43.8462" height="43.8462" fill="white" transform="translate(8.07617 8.07715)"/>
</clipPath>
</defs>
</svg>
