<svg width="60" height="60" viewBox="0 0 60 60" fill="none" xmlns="http://www.w3.org/2000/svg">
<circle cx="30" cy="30" r="30" fill="#FF8543"/>
<circle cx="30.0014" cy="30.0004" r="26.0385" stroke="white" stroke-dasharray="2 2"/>
<g clip-path="url(#clip0_2180_10865)">
<path d="M29.423 51.229C19.6368 51.229 11.1002 44.619 8.66215 35.1541C8.56037 34.7592 8.79894 34.3557 9.19452 34.2536C9.58612 34.1547 9.99289 34.3904 10.0947 34.7859C12.3635 43.5969 20.3118 49.7507 29.423 49.7507C40.4276 49.7507 49.3808 40.7975 49.3808 29.7929C49.3808 29.384 49.711 29.0537 50.1199 29.0537C50.5285 29.0537 50.8591 29.384 50.8591 29.7929C50.8591 41.6121 41.2422 51.229 29.423 51.229Z" fill="white"/>
<path d="M8.72746 29.7935C8.31853 29.7935 7.98828 29.4629 7.98828 29.0543C7.98828 17.2347 17.6048 7.61816 29.4244 7.61816C39.2102 7.61816 47.7468 14.2278 50.1849 23.6927C50.2867 24.0876 50.0481 24.4911 49.6525 24.5933C49.2631 24.6961 48.8549 24.4565 48.7524 24.0609C46.4836 15.25 38.5353 9.09652 29.4244 9.09652C18.4194 9.09652 9.46663 18.0493 9.46663 29.0543C9.46663 29.4629 9.13603 29.7935 8.72746 29.7935Z" fill="white"/>
<path d="M8.72653 29.7929C8.53705 29.7929 8.34792 29.7203 8.20391 29.5759L5.98636 27.3584C5.69726 27.0697 5.69726 26.6023 5.98636 26.3135C6.2751 26.0244 6.74251 26.0244 7.03125 26.3135L9.2488 28.5311C9.5379 28.8198 9.5379 29.2872 9.2488 29.5759C9.10479 29.7203 8.91566 29.7929 8.72653 29.7929Z" fill="white"/>
<path d="M8.72578 29.7929C8.53629 29.7929 8.34717 29.7203 8.20316 29.5759C7.91405 29.2872 7.91405 28.8198 8.20316 28.5311L10.4207 26.3135C10.7094 26.0244 11.1769 26.0244 11.4656 26.3135C11.7547 26.6023 11.7547 27.0697 11.4656 27.3584L9.24805 29.5759C9.10404 29.7203 8.91491 29.7929 8.72578 29.7929Z" fill="white"/>
<path d="M52.3379 32.0106C52.1484 32.0106 51.9592 31.9381 51.8152 31.7937L49.5977 29.5762C49.3086 29.2874 49.3086 28.82 49.5977 28.5313C49.8864 28.2422 50.3538 28.2422 50.6426 28.5313L52.8601 30.7488C53.1492 31.0376 53.1492 31.505 52.8601 31.7937C52.7161 31.9381 52.527 32.0106 52.3379 32.0106Z" fill="white"/>
<path d="M47.9035 32.0106C47.714 32.0106 47.5249 31.9381 47.3809 31.7937C47.0918 31.505 47.0918 31.0376 47.3809 30.7488L49.5984 28.5313C49.8872 28.2422 50.3546 28.2422 50.6433 28.5313C50.9324 28.82 50.9324 29.2874 50.6433 29.5762L48.4258 31.7937C48.2818 31.9381 48.0926 32.0106 47.9035 32.0106Z" fill="white"/>
<path d="M33.3862 40.9445L30.6097 42.6683C30.4651 42.5514 30.2915 42.493 30.118 42.493H29.5974C29.4239 42.493 29.2503 42.5514 29.1057 42.6683L26.3291 40.9737C25.8085 40.6231 25.2012 41.0321 25.2012 41.5873V45.4148C25.2012 45.9991 25.8085 46.379 26.3291 46.0868L29.1057 44.5382C29.2503 44.6551 29.4239 44.7135 29.5974 44.7135H30.118C30.3205 44.7135 30.494 44.6551 30.6097 44.5382L33.3862 46.0868C33.9068 46.379 34.5142 45.9699 34.5142 45.4148V41.5873C34.5142 41.0029 33.9068 40.6231 33.3862 40.9445Z" fill="white"/>
<path d="M42.4385 26.6865C43.3929 25.7223 44.0003 24.4076 44.0003 22.9467C44.0003 20.0541 41.6865 17.6875 38.7942 17.6875C37.4638 17.6875 36.2201 18.2134 35.3235 19.0607C33.675 18.2134 31.8818 17.6875 30.0596 17.6875C28.1218 17.6875 26.213 18.2426 24.4776 19.1776C23.5521 18.2719 22.2795 17.6875 20.8623 17.6875C17.999 17.6875 15.6562 20.0249 15.6562 22.9467C15.6562 24.5244 16.3504 25.9269 17.4205 26.8618C17.1313 27.5631 16.8999 28.2643 16.7264 28.9655C15.1935 35.8024 21.0069 40.6525 30.0596 40.4772C38.9099 40.3019 44.5787 35.3934 43.1037 28.7318C42.9591 28.0598 42.7277 27.3585 42.4385 26.6865Z" stroke="white" stroke-width="0.7" stroke-miterlimit="10"/>
<path d="M25.9815 28.9362C26.6178 28.9362 27.1095 28.4395 27.1095 27.7967C27.1095 27.1539 26.6178 26.6572 25.9815 26.6572C25.3452 26.6572 24.8535 27.1539 24.8535 27.7967C24.8535 28.4395 25.3741 28.9362 25.9815 28.9362Z" stroke="white" stroke-width="0.7" stroke-miterlimit="10"/>
<path d="M33.6749 28.9362C34.3111 28.9362 34.8028 28.4395 34.8028 27.7967C34.8028 27.1539 34.3111 26.6572 33.6749 26.6572C33.0386 26.6572 32.5469 27.1539 32.5469 27.7967C32.5469 28.4395 33.0386 28.9362 33.6749 28.9362Z" stroke="white" stroke-width="0.7" stroke-miterlimit="10"/>
<path d="M32.8657 34.1078C32.6922 34.0494 32.5765 34.1078 32.5186 34.2831C32.3451 34.8674 31.622 35.8316 30.147 36.0069V32.7346C30.147 32.5593 30.0313 32.4424 29.8578 32.4424C29.6842 32.4424 29.5685 32.5593 29.5685 32.7346V35.9777C28.0935 35.8608 27.544 34.7798 27.3704 34.2539C27.3126 34.0786 27.139 34.0201 27.0234 34.0786C26.8498 34.137 26.792 34.3123 26.8498 34.4292C27.0234 34.9551 27.7464 36.5328 29.8288 36.5328C31.7377 36.5328 32.7789 35.1596 32.9814 34.4292C33.0971 34.3415 32.9814 34.1662 32.8657 34.1078Z" fill="white"/>
<path d="M29.8289 38.5189C32.5476 38.5189 34.7458 36.2984 34.7458 33.552C34.7458 30.8055 32.5476 28.585 29.8289 28.585C27.1102 28.585 24.9121 30.8055 24.9121 33.552C24.9121 36.2984 27.1102 38.5189 29.8289 38.5189Z" stroke="white" stroke-width="0.7" stroke-miterlimit="10"/>
<path d="M28.6422 30.0166H31.0139C31.9683 30.0166 32.4889 31.1561 31.8526 31.8865L30.6668 33.2598C30.204 33.7857 29.4231 33.7857 28.9604 33.2598L27.7745 31.8865C27.1672 31.0977 27.6878 30.0166 28.6422 30.0166Z" fill="white"/>
</g>
<defs>
<clipPath id="clip0_2180_10865">
<rect width="47.3077" height="47.3077" fill="white" transform="translate(5.76953 5.76953)"/>
</clipPath>
</defs>
</svg>
