<svg width="139" height="102" viewBox="0 0 139 102" fill="none" xmlns="http://www.w3.org/2000/svg">
<path d="M21.8923 16.9878C14.7711 24.132 20.0497 31.549 22.6393 34.4018C23.3613 35.1956 23.8593 35.6173 23.8593 35.6173L32.101 27.332L34.1676 25.0994L40.1684 18.6498C40.1933 18.625 30.5323 8.40478 21.8923 16.9878ZM13.9245 9.47145C13.9245 9.47145 13.9245 9.49625 13.9245 9.47145C13.8 9.59548 13.6755 9.71951 13.551 9.84354C12.8538 10.5877 12.2064 11.3319 11.6338 12.0761C0.0804896 26.9847 13.1526 40.4545 17.0618 43.9522C17.7092 44.5227 18.1076 44.8204 18.1076 44.8204L34.1178 29.7134L34.1427 29.7382L34.4166 29.4157L34.7652 29.0932L34.7403 29.0684L44.0277 18.4761L49.0823 12.6715L49.2317 12.4978C49.2317 12.4978 31.4785 -8.33947 13.9245 9.47145Z" fill="#B6724D"/>
<path d="M32.474 26.9596L32.1255 27.3317L31.8765 27.5797L23.8589 35.617C23.8589 35.617 21.842 33.8805 20.2236 31.1766C18.132 27.679 16.7626 22.5441 21.3939 17.4588C21.6428 17.1859 21.8918 16.9378 22.1159 16.7146C22.2902 16.5657 22.4396 16.4169 22.6139 16.2681C29.511 10.3394 36.8314 15.6727 39.2716 17.8309C39.8193 18.3022 40.1181 18.6247 40.1181 18.6247L32.474 26.9596Z" fill="#DCBD8A"/>
<path d="M34.7681 29.0933L34.793 29.1181L34.4444 29.4406L34.1705 29.7631L34.1456 29.7382L18.1354 44.8453C18.1354 44.8453 -0.0660286 30.7553 10.068 14.3584C10.5411 13.5894 11.064 12.8452 11.6616 12.0762C10.4415 18.0545 8.49934 27.6545 18.1603 36.6344C18.1603 36.6344 19.9032 33.4592 20.8992 31.9956C22.4679 29.7382 24.2357 27.7041 26.1281 25.8189C28.6678 23.2886 31.4565 21.0809 34.1954 19.0219C37.3826 16.6405 40.7689 20.3367 44.0058 18.4514L34.7681 29.0933Z" fill="#945339"/>
<path d="M26.1526 25.8433C21.3471 32.7146 18.0355 40.3797 18.0355 40.3797C7.45326 30.6309 7.85165 20.8572 10.0677 14.3828C10.5408 13.6138 11.0637 12.8696 11.6612 12.1006C10.4412 18.0789 8.49903 27.6789 18.16 36.6588C18.16 36.6588 19.9029 33.4836 20.8989 32.02C22.4675 29.7627 24.2354 27.7037 26.1526 25.8433Z" fill="#AD6946"/>
<path d="M33.7468 18.2036C25.3807 22.6439 21.7703 27.9525 20.2763 31.1773C18.1848 27.6796 16.8153 22.5447 21.4466 17.4594C21.6956 17.1865 21.9446 16.9385 22.1687 16.7152C22.343 16.5664 22.4924 16.4175 22.6667 16.2687C28.3686 14.5074 33.7468 18.2036 33.7468 18.2036Z" fill="#ECD09C"/>
<path d="M49.2342 12.4981L49.0848 12.6717L47.6406 12.9942C47.6406 12.9942 43.5322 8.28101 37.7307 5.72596C31.954 3.19572 23.9116 3.39417 18.2345 7.56163C12.5575 11.7291 6.78085 20.7338 8.74789 28.6966C10.5655 35.9896 16.1928 42.8858 17.0892 43.9773C13.18 40.4796 0.107832 27.0098 11.6611 12.1012C12.2338 11.357 12.8812 10.6128 13.5784 9.86861C13.7029 9.74458 13.8024 9.62055 13.9269 9.52133C13.9269 9.52133 13.9269 9.52132 13.9518 9.49652C31.481 -8.3392 49.2342 12.4981 49.2342 12.4981Z" fill="#D59A77"/>
<path d="M39.3485 17.8312L38.2778 18.9227C31.0321 13.2917 25.5792 14.532 22.168 16.7397C29.2145 10.0668 36.8337 15.6235 39.3485 17.8312Z" fill="#C59F6D"/>
<path d="M94.4984 17.2861L100.673 23.5869L102.79 25.745L111.281 33.8071C111.281 33.8071 111.779 33.3606 112.476 32.542C114.991 29.6148 120.07 22.0737 112.75 15.1279C103.885 6.79303 94.4984 17.2861 94.4984 17.2861ZM85.3105 11.407L85.4599 11.5806L90.6888 17.2365L100.225 27.5807L100.2 27.6055L100.549 27.928L100.823 28.2257L100.848 28.2009L117.281 42.8614C117.281 42.8614 117.655 42.5389 118.302 41.9435C122.112 38.3466 134.81 24.5047 122.834 9.91862C122.236 9.19924 121.589 8.45505 120.867 7.73567C120.742 7.61164 120.618 7.51241 120.518 7.38838C120.518 7.38838 120.518 7.38838 120.493 7.36357C102.466 -9.92641 85.3105 11.407 85.3105 11.407Z" fill="#B6724D"/>
<path d="M102.467 25.374L102.815 25.7461L103.064 25.9941L111.281 33.8081C111.281 33.8081 113.248 32.0221 114.792 29.2686C116.784 25.6965 118.029 20.5368 113.223 15.6003C112.974 15.3522 112.725 15.1042 112.476 14.8809C112.302 14.7321 112.128 14.5832 111.978 14.4592C104.932 8.70415 97.7608 14.2608 95.3705 16.4933C94.8476 16.9894 94.5488 17.3119 94.5488 17.3119L102.467 25.374Z" fill="#DCBD8A"/>
<path d="M100.226 27.5797L100.201 27.6045L100.55 27.9269L100.823 28.2246L100.848 28.1998L117.282 42.8603C117.282 42.8603 135.085 28.2742 124.478 12.1749C123.98 11.4308 123.432 10.6866 122.834 9.94238C124.229 15.8959 126.42 25.4215 117.033 34.6742C117.033 34.6742 115.215 31.5487 114.17 30.1347C112.551 27.9269 110.709 25.9176 108.766 24.1068C106.152 21.6509 103.313 19.5176 100.5 17.5579C97.2629 15.2757 93.9762 19.0711 90.6895 17.2602L100.226 27.5797Z" fill="#945339"/>
<path d="M108.77 24.082C113.774 30.8293 117.285 38.3952 117.285 38.3952C127.593 28.3487 126.921 18.5998 124.506 12.1749C124.008 11.4308 123.46 10.6866 122.863 9.94238C124.257 15.8959 126.448 25.4215 117.061 34.6743C117.061 34.6743 115.243 31.5487 114.198 30.1347C112.554 27.9021 110.712 25.9176 108.77 24.082Z" fill="#AD6946"/>
<path d="M100.951 16.6676C109.442 20.8599 113.202 26.0692 114.795 29.2444C116.787 25.6723 118.032 20.5126 113.227 15.5761C112.978 15.3281 112.729 15.08 112.48 14.8568C112.305 14.7079 112.131 14.5591 111.982 14.435C106.23 12.8226 100.951 16.6676 100.951 16.6676Z" fill="#ECD09C"/>
<path d="M85.3105 11.4098L85.4599 11.5834L86.929 11.8563C86.929 11.8563 90.9129 7.01907 96.6148 4.31519C102.342 1.6113 110.384 1.6113 116.161 5.60511C121.937 9.59892 127.988 18.4548 126.245 26.4672C124.627 33.8099 119.198 40.8548 118.327 41.9711C122.137 38.3742 134.835 24.5323 122.859 9.94621C122.261 9.22683 121.614 8.48264 120.892 7.76326C120.767 7.63923 120.643 7.54 120.543 7.41597C120.543 7.41597 120.543 7.41597 120.518 7.39116C102.466 -9.92362 85.3105 11.4098 85.3105 11.4098Z" fill="#D59A77"/>
<path d="M95.3477 16.4438L96.4432 17.4857C103.515 11.6562 109.017 12.7725 112.478 14.8562C105.258 8.40656 97.7878 14.1864 95.3477 16.4438Z" fill="#C59F6D"/>
<path d="M121.117 58.465C121.117 58.6883 121.117 58.9363 121.117 59.1596V59.2092C121.117 59.4325 121.092 59.6805 121.092 59.9038C121.092 60.1022 121.067 60.2759 121.067 60.4743C121.067 60.5736 121.067 60.648 121.042 60.7224C121.018 60.896 121.018 61.0697 120.993 61.2681C120.993 61.2929 120.993 61.2929 120.993 61.3177C120.968 61.541 120.943 61.7643 120.918 61.9875C120.893 62.186 120.868 62.4092 120.843 62.6077C120.843 62.6573 120.818 62.6821 120.818 62.7317C120.793 62.9302 120.769 63.1286 120.719 63.3271C120.694 63.5255 120.644 63.724 120.619 63.8976C120.594 63.972 120.594 64.0464 120.569 64.1209C120.545 64.2945 120.52 64.4433 120.47 64.617C120.47 64.6418 120.47 64.6418 120.47 64.6666C120.42 64.8651 120.37 65.0883 120.345 65.2868C120.296 65.4852 120.246 65.7085 120.196 65.9069C120.146 66.1054 120.096 66.3286 120.022 66.5271C119.972 66.7255 119.897 66.924 119.847 67.1224C119.847 67.1472 119.847 67.172 119.822 67.172C119.773 67.3457 119.723 67.5193 119.648 67.693C119.623 67.7426 119.623 67.7922 119.598 67.8418C119.549 67.9906 119.499 68.1643 119.424 68.3131C119.349 68.5116 119.275 68.71 119.2 68.9085C119.026 69.3302 118.851 69.7519 118.677 70.1736C118.602 70.3224 118.553 70.4713 118.478 70.6201C117.781 72.1085 116.959 73.4976 116.038 74.8124C115.963 74.9116 115.913 75.0108 115.839 75.0852C115.764 75.1845 115.714 75.2837 115.639 75.3581C115.515 75.5318 115.39 75.6806 115.266 75.8542C114.917 76.3008 114.544 76.7473 114.17 77.1938C114.096 77.293 114.021 77.3674 113.921 77.4666C113.797 77.5907 113.697 77.7147 113.573 77.8387C113.498 77.938 113.398 78.0372 113.324 78.1116C113.125 78.3349 112.925 78.5581 112.701 78.7566C112.602 78.8558 112.502 78.955 112.427 79.0294C112.427 79.0543 112.402 79.0542 112.378 79.079C112.253 79.2031 112.104 79.3519 111.979 79.476C111.954 79.5008 111.954 79.5008 111.929 79.5256C111.78 79.6496 111.655 79.7984 111.506 79.9225C111.332 80.0713 111.182 80.2201 111.008 80.3938C110.884 80.493 110.759 80.617 110.635 80.7163C109.962 81.2868 109.29 81.8326 108.593 82.3535C108.443 82.4527 108.319 82.5519 108.17 82.676C108.02 82.7752 107.871 82.8992 107.721 82.9985C107.647 83.0481 107.572 83.0977 107.497 83.1721C107.348 83.2713 107.198 83.3705 107.049 83.4946C106.526 83.8419 106.003 84.1892 105.48 84.5116C105.456 84.5364 105.431 84.5364 105.406 84.5612C105.256 84.6605 105.107 84.7349 104.982 84.8341C104.808 84.9333 104.634 85.0574 104.46 85.1566C104.31 85.231 104.161 85.3302 104.036 85.4047C103.887 85.4791 103.762 85.5783 103.613 85.6527C103.538 85.7023 103.488 85.7271 103.414 85.7767C103.239 85.876 103.065 85.9752 102.866 86.0744C101.97 86.5706 101.073 87.0171 100.152 87.4636L101.297 90.1675H27.3713C27.6701 89.845 27.944 89.5225 28.2428 89.2248C28.5416 88.9024 28.8404 88.6047 29.1143 88.3318C29.2637 88.183 29.4131 88.0589 29.5625 87.9101C30.0106 87.5132 30.409 87.1411 30.8074 86.8434C30.907 86.7442 31.0315 86.6698 31.1311 86.5954C31.1809 86.5457 31.2307 86.5209 31.2805 86.4713C31.4548 86.3225 31.6291 86.1985 31.7785 86.0992C31.8283 86.0496 31.903 86.0248 31.9528 85.9752C31.4299 85.6775 30.907 85.355 30.3841 85.0326C30.1351 84.8837 29.911 84.7349 29.6621 84.5861C29.0396 84.1891 28.442 83.7674 27.8444 83.3457C27.7199 83.2713 27.5954 83.1721 27.4958 83.0977C27.3713 82.9985 27.2717 82.924 27.1472 82.8248C26.7986 82.5519 26.45 82.2791 26.1015 82.0062C26.0019 81.907 25.8774 81.8326 25.7778 81.7333C25.7778 81.7333 25.7529 81.7333 25.7529 81.7085C25.6533 81.6093 25.5288 81.5349 25.4292 81.4356C23.7609 80.0217 22.2172 78.4589 20.8726 76.7473C20.773 76.6232 20.6983 76.4992 20.5987 76.4C20.1505 75.8046 19.7023 75.1845 19.3039 74.5395C19.2293 74.4155 19.1297 74.2914 19.055 74.1674C18.9803 74.0434 18.9056 73.8945 18.806 73.7705C18.7313 73.6465 18.6566 73.5224 18.5819 73.3736C18.4076 73.0759 18.2582 72.7783 18.0839 72.4806C18.0341 72.3814 17.9843 72.2573 17.9096 72.1581C17.8349 72.0093 17.7602 71.8852 17.7104 71.7364C17.6357 71.5876 17.561 71.4635 17.5112 71.3147C17.4365 71.1658 17.3867 71.0418 17.312 70.893C17.1875 70.6201 17.0879 70.372 16.9634 70.0992C16.8887 69.9255 16.814 69.7519 16.7642 69.5782C16.7393 69.479 16.6895 69.4046 16.6646 69.3054C16.6148 69.2062 16.5899 69.0821 16.5401 68.9829C16.4903 68.8589 16.4405 68.71 16.3907 68.5612C16.2413 68.0899 16.0919 67.6186 15.9425 67.1472C15.8927 66.9984 15.8678 66.8744 15.8429 66.7255C15.7931 66.5519 15.7682 66.403 15.7184 66.2294C15.6936 66.0806 15.6438 65.9565 15.6189 65.8077C15.594 65.6837 15.5691 65.5596 15.5193 65.4108C15.4944 65.2371 15.4446 65.0883 15.4197 64.9147C15.3948 64.741 15.3699 64.5922 15.3201 64.4185C14.8968 61.9627 14.7474 59.3084 14.9466 56.4309C15.0213 55.3146 15.1209 54.2232 15.2454 53.1813C15.2952 52.8092 15.3201 52.4371 15.3699 52.065C15.4197 51.6433 15.4695 51.2216 15.5442 50.8247C15.5691 50.5766 15.6189 50.3038 15.6686 50.0557C15.9425 48.3937 16.2413 46.7813 16.6148 45.2185C16.6148 45.2185 16.6148 45.2185 16.6148 45.1937C17.0132 43.4572 17.5112 41.7952 18.0341 40.2076C26.0766 16.1207 47.4153 7.95942 65.7162 7.78578C66.2391 7.78578 68.1564 7.76097 68.5797 7.73616C88.275 7.31446 111.904 16.0215 119.125 44.251C119.175 44.4247 119.225 44.5983 119.25 44.772C119.872 47.2774 120.37 49.9317 120.719 52.7348C120.818 53.4542 120.893 54.1983 120.968 54.9425C120.993 55.1658 121.018 55.389 121.018 55.5875C121.042 55.7859 121.042 55.9596 121.067 56.158C121.067 56.1828 121.067 56.2077 121.067 56.2325C121.067 56.2325 121.067 56.2573 121.067 56.2821C121.092 56.4805 121.092 56.679 121.092 56.8774C121.092 56.927 121.092 57.0015 121.092 57.0759C121.092 57.2743 121.117 57.448 121.117 57.6464C121.117 57.696 121.117 57.7456 121.117 57.7953C121.117 57.9937 121.117 58.2418 121.117 58.465Z" fill="#B6724D"/>
<path d="M121.117 58.464C121.117 58.6873 121.117 58.9353 121.117 59.1586V59.2082C121.117 59.4315 121.092 59.6795 121.092 59.9028C121.092 60.1012 121.067 60.2749 121.067 60.4733C121.067 60.5725 121.067 60.647 121.042 60.7214C121.018 60.895 121.018 61.0687 120.993 61.2671C120.993 61.2919 120.993 61.2919 120.993 61.3167C120.968 61.54 120.943 61.7632 120.918 61.9865C120.893 62.185 120.868 62.4082 120.843 62.6067C120.843 62.6563 120.818 62.6811 120.818 62.7307C120.793 62.9291 120.769 63.1276 120.719 63.326C120.694 63.5245 120.644 63.7229 120.619 63.8966C120.594 63.971 120.594 64.0454 120.569 64.1198C120.545 64.2935 120.52 64.4423 120.47 64.616C120.47 64.6408 120.47 64.6408 120.47 64.6656C120.42 64.864 120.37 65.0873 120.345 65.2857C120.296 65.4842 120.246 65.7074 120.196 65.9059C120.146 66.1043 120.096 66.3276 120.022 66.5261C119.972 66.7245 119.897 66.923 119.847 67.1214C119.847 67.1462 119.847 67.171 119.822 67.171C119.773 67.3447 119.723 67.5183 119.648 67.6919C119.623 67.7416 119.623 67.7912 119.598 67.8408C119.549 67.9896 119.499 68.1633 119.424 68.3121C119.349 68.5105 119.275 68.709 119.2 68.9074C119.026 69.3292 118.851 69.7509 118.677 70.1726C118.602 70.3214 118.553 70.4702 118.478 70.6191C117.781 72.1075 116.959 73.4966 116.038 74.8113C115.963 74.9106 115.913 75.0098 115.839 75.0842C115.764 75.1834 115.714 75.2827 115.639 75.3571C115.515 75.5307 115.39 75.6796 115.266 75.8532C114.917 76.2997 114.544 76.7462 114.17 77.1927C114.096 77.292 114.021 77.3664 113.921 77.4656C113.797 77.5896 113.697 77.7137 113.573 77.8377C113.498 77.9369 113.398 78.0362 113.324 78.1106C113.125 78.3338 112.925 78.5571 112.701 78.7555C112.602 78.8548 112.502 78.954 112.427 79.0284C112.427 79.0532 112.402 79.0532 112.378 79.078C112.253 79.202 112.104 79.3509 111.979 79.4749C111.954 79.4997 111.954 79.4997 111.929 79.5245C111.78 79.6486 111.655 79.7974 111.506 79.9214C111.332 80.0703 111.182 80.2191 111.008 80.3928C110.884 80.492 110.759 80.616 110.635 80.7152C109.962 81.2858 109.29 81.8315 108.593 82.3524C108.443 82.4517 108.319 82.5509 108.17 82.6749C108.02 82.7742 107.871 82.8982 107.721 82.9974C107.647 83.047 107.572 83.0966 107.497 83.1711C107.348 83.2703 107.198 83.3695 107.049 83.4935C106.501 83.8656 105.954 84.2129 105.381 84.5602C105.231 84.6594 105.082 84.7338 104.958 84.8331C104.783 84.9323 104.609 85.0563 104.435 85.1556C104.285 85.23 104.136 85.3292 104.011 85.4036C103.862 85.478 103.737 85.5773 103.588 85.6517C103.513 85.7013 103.464 85.7261 103.389 85.7757C103.215 85.8749 103.04 85.9742 102.841 86.0734C101.945 86.5695 101.048 87.016 100.127 87.4625L101.272 90.1664H45.1245C43.033 88.4548 41.6635 87.3137 41.6635 87.3137C41.6635 87.3137 34.5423 86.3463 28.2428 89.2238C28.5416 88.9013 28.8404 88.6036 29.1143 88.3308C29.2637 88.1819 29.4131 88.0579 29.5625 87.909C30.0106 87.5121 30.409 87.1401 30.8074 86.8424C30.907 86.7432 31.0315 86.6687 31.1311 86.5943C31.1809 86.5447 31.2307 86.5199 31.2805 86.4703C31.4548 86.3215 31.6291 86.1974 31.7785 86.0982C31.8283 86.0486 31.903 86.0238 31.9528 85.9742C31.4299 85.6765 30.907 85.354 30.3841 85.0315C30.1351 84.8827 29.911 84.7338 29.6621 84.585C29.0396 84.1881 28.442 83.7664 27.8444 83.3447C27.7199 83.2703 27.5954 83.1711 27.4958 83.0966C27.3713 82.9974 27.2717 82.923 27.1472 82.8238C26.7986 82.5509 26.45 82.278 26.1015 82.0052C26.0019 81.9059 25.8774 81.8315 25.7778 81.7323C25.7778 81.7323 25.7529 81.7323 25.7529 81.7075C25.6533 81.6083 25.5288 81.5338 25.4292 81.4346C23.7609 80.0207 22.2172 78.4579 20.8726 76.7462C20.773 76.6222 20.6983 76.4982 20.5987 76.3989C20.1505 75.8036 19.7023 75.1834 19.3039 74.5385C19.2293 74.4144 19.1297 74.2904 19.055 74.1664C18.9803 74.0423 18.9056 73.8935 18.806 73.7695C18.7313 73.6454 18.6566 73.5214 18.5819 73.3726C18.4076 73.0749 18.2582 72.7772 18.0839 72.4796C18.0341 72.3803 17.9843 72.2563 17.9096 72.1571C17.8349 72.0082 17.7602 71.8842 17.7104 71.7354C17.6357 71.5865 17.561 71.4625 17.5112 71.3137C17.4365 71.1648 17.3867 71.0408 17.312 70.8919C17.1875 70.6191 17.0879 70.371 16.9634 70.0982C16.8887 69.9245 16.814 69.7509 16.7642 69.5772C16.7393 69.478 16.6895 69.4036 16.6646 69.3043C16.6148 69.2051 16.5899 69.0811 16.5401 68.9819C16.4903 68.8578 16.4405 68.709 16.3907 68.5602C16.2413 68.0888 16.0919 67.6175 15.9425 67.1462C15.8927 66.9974 15.8678 66.8733 15.8429 66.7245C15.7931 66.5509 15.7682 66.402 15.7184 66.2284C15.6936 66.0795 15.6438 65.9555 15.6189 65.8067C15.594 65.6826 15.5691 65.5586 15.5193 65.4098C15.4944 65.2361 15.4446 65.0873 15.4197 64.9136C15.3948 64.74 15.3699 64.5912 15.3201 64.4175C14.8968 61.9617 14.7474 59.3074 14.9466 56.4299C15.0213 55.3136 15.1209 54.2221 15.2454 53.1803C15.2952 52.8082 15.3201 52.4361 15.3699 52.064C15.4197 51.6423 15.4695 51.2206 15.5442 50.8237C15.5691 50.5756 15.6189 50.3028 15.6686 50.0547C15.6935 50.3028 15.7433 50.5508 15.7931 50.8237C17.4863 60.6718 25.9023 81.3106 66.7869 81.6579C109.564 82.03 118.752 61.3167 120.694 52.8578C120.793 53.5772 120.868 54.3214 120.943 55.0656C120.968 55.2888 120.993 55.5121 120.993 55.7105C121.018 55.909 121.018 56.0826 121.042 56.2811C121.042 56.3059 121.042 56.3307 121.042 56.3555C121.042 56.3555 121.042 56.3803 121.042 56.4051C121.067 56.6035 121.067 56.802 121.067 57.0004C121.067 57.0501 121.067 57.1245 121.067 57.1989C121.067 57.3973 121.092 57.571 121.092 57.7694C121.092 57.819 121.092 57.8687 121.092 57.9183C121.117 57.9927 121.117 58.2408 121.117 58.464Z" fill="#945339"/>
<path d="M120.718 52.734C120.818 53.4533 120.892 54.1975 120.967 54.9417C120.992 55.165 121.017 55.3634 121.017 55.5867C121.042 55.7851 121.042 55.9588 121.067 56.1572C121.067 56.182 121.067 56.2068 121.067 56.2317C116.859 72.2069 104.135 91.8783 67.1348 89.8194C28.2919 87.6612 17.9338 68.6348 15.5434 54.9913C15.4189 54.3464 15.3442 53.7262 15.2695 53.1061C15.3193 52.734 15.3691 52.3619 15.394 51.9898C15.4438 51.5681 15.4936 51.1464 15.5683 50.7495C15.6181 50.5014 15.643 50.2285 15.6928 49.9805C15.7177 50.2285 15.7675 50.4766 15.8173 50.7495C17.5105 60.5976 25.9264 81.2364 66.8111 81.5837C109.588 81.9062 118.751 61.1929 120.718 52.734Z" fill="#AD6946"/>
<path d="M119.126 44.251C111.333 23.9595 94.9242 7.36407 54.3134 12.3501C32.0037 15.0788 22.3178 32.6913 18.0352 40.1332C26.0776 16.1207 47.4163 7.95942 65.7173 7.78578C66.2402 7.78578 68.1575 7.76097 68.5808 7.73616C88.2761 7.31446 111.881 16.0215 119.126 44.251Z" fill="#D59A77"/>
<path d="M68.5614 71.2871C79.6715 71.1638 88.596 63.7234 88.4947 54.6685C88.3935 45.6136 79.3048 38.3732 68.1947 38.4965C57.0846 38.6198 48.1602 46.0602 48.2615 55.115C48.3627 64.1699 57.4513 71.4104 68.5614 71.2871Z" fill="#AD6946"/>
<path d="M68.4906 77.2662C79.6694 77.1421 88.6496 69.7011 88.5484 60.6462C88.4471 51.5913 79.3028 44.3515 68.1239 44.4755C56.9451 44.5996 47.9649 52.0406 48.0661 61.0955C48.1674 70.1504 57.3117 77.3903 68.4906 77.2662Z" fill="#945339"/>
<path d="M89.3713 57.7715C89.4211 62.6335 87.2549 67.0738 83.5449 70.3235C79.8349 73.5731 74.6061 75.632 68.5057 75.6816C54.0392 75.8305 47.5156 67.9421 47.416 58.218C47.416 57.6226 47.4409 57.0521 47.4907 56.4815C47.8642 52.3141 49.7068 48.5187 52.4955 45.6908C53.3919 44.773 54.3878 43.9544 55.4834 43.2598C58.2223 41.4737 61.4841 40.4071 64.9949 40.3574L71.4438 40.283C74.9297 40.2334 78.2165 41.2257 80.9803 42.9621C84.9642 45.4427 87.9272 49.4614 88.973 54.1746C89.197 55.3405 89.3464 56.5312 89.3713 57.7715Z" fill="#DCBD8A"/>
<path d="M88.9476 54.1761C87.5781 63.28 78.8385 70.3498 68.1816 70.4738C58.2716 70.5731 49.8806 64.6444 47.4902 56.5079C47.8637 52.3404 49.7063 48.5451 52.495 45.7172C53.3914 44.7993 54.3873 43.9807 55.4829 43.2861C58.2218 41.5001 61.4836 40.4334 64.9944 40.3838L71.4434 40.3094C74.9293 40.2598 78.216 41.252 80.9798 42.9885C84.9388 45.4443 87.9018 49.4629 88.9476 54.1761Z" fill="#ECD09C"/>
<path d="M68.0058 57.1782C67.8066 57.1782 67.6323 57.0045 67.6323 56.8061L67.5078 47.5781C67.5078 47.3797 67.6821 47.2061 67.8813 47.2061C68.0805 47.2061 68.2548 47.3797 68.2548 47.5781L68.3793 56.8061C68.3793 57.0045 68.205 57.1782 68.0058 57.1782Z" fill="#43281F"/>
<path d="M80.9583 42.9629C80.3109 44.5753 79.3648 46.0389 78.1447 47.2296C75.854 49.4621 72.5922 50.8265 68.3095 50.8761C63.728 50.9257 60.2919 49.4869 57.9763 47.0807C56.9056 45.9893 56.0839 44.6745 55.4863 43.2358C58.2253 41.4497 62.0099 40.0357 67.8613 39.9613C74.9825 39.9117 78.1945 41.2264 80.9583 42.9629Z" fill="#5C392B"/>
<path d="M78.143 47.2308C75.8523 49.4634 72.5905 50.8277 68.3078 50.8773C63.7263 50.9269 60.2902 49.4882 57.9746 47.082C58.3232 46.4866 58.7465 45.9409 59.2196 45.4448C60.6388 43.9812 62.6308 43.0634 64.8219 43.0385L70.9969 42.9641C74.0845 42.9393 76.7985 44.6758 78.143 47.2308Z" fill="#43281F"/>
<path d="M61.2853 42.913C61.5592 42.7889 61.8082 42.6897 62.0572 42.6153C62.3062 42.5161 62.5801 42.4416 62.8291 42.3672C63.352 42.2184 63.8749 42.0943 64.4227 41.9703C65.4933 41.7471 66.564 41.623 67.6845 41.5486C68.78 41.499 69.9005 41.5238 70.9961 41.6726C72.0916 41.8215 73.2121 42.0943 74.2579 42.5657C74.7559 42.7889 74.98 43.3843 74.7559 43.8804C74.5816 44.2525 74.233 44.4757 73.8346 44.4757H73.7848C72.7888 44.4757 71.7929 44.4509 70.8218 44.4509C69.8258 44.4757 68.8298 44.5006 67.8339 44.5502L64.7961 44.7238L63.2773 44.7982C63.0283 44.7982 62.7544 44.823 62.5054 44.823C62.2564 44.823 61.9825 44.8478 61.7335 44.8478H61.6837C61.1359 44.8478 60.6878 44.4013 60.7127 43.8556C60.6878 43.4091 60.9367 43.0618 61.2853 42.913Z" fill="white"/>
<path d="M67.7852 57.3013C64.5981 57.3013 61.5355 56.2346 59.1451 54.2998C58.9957 54.1757 58.9708 53.9277 59.0953 53.7788C59.2198 53.63 59.4688 53.6052 59.6182 53.7292C61.8592 55.5649 64.7475 56.5571 67.7852 56.5571C67.835 56.5571 67.8848 56.5571 67.9346 56.5571C70.9225 56.5323 73.7859 55.5153 76.002 53.7044C76.1514 53.5804 76.4004 53.6052 76.5249 53.754C76.6494 53.9029 76.6244 54.1509 76.4751 54.275C74.1345 56.185 71.0968 57.2517 67.9595 57.3013C67.8848 57.3013 67.835 57.3013 67.7852 57.3013Z" fill="#43281F"/>
<path d="M45.9696 72.6787C45.3222 73.0508 44.8242 73.671 44.625 74.4648H45.9945L45.9696 72.6787Z" fill="white"/>
<path d="M47.8636 72.282C47.266 72.2076 46.6933 72.3068 46.1953 72.5548H47.8636V72.282Z" fill="#71495A"/>
<path d="M48.8861 72.5297C48.662 72.4553 48.413 72.4057 48.1889 72.3313C48.0893 72.3065 47.9648 72.2816 47.8652 72.2568V72.5049L48.8861 72.5297Z" fill="#D8BFB4"/>
<path d="M47.8611 74.4146L47.8362 72.5293H46.1679C46.0932 72.5541 46.0185 72.6037 45.9688 72.6285L45.9937 74.3898L47.8611 74.4146Z" fill="#D8BFB4"/>
<path d="M47.8652 74.415L49.7576 74.3902V72.7529C49.4837 72.6785 49.1849 72.6041 48.911 72.5049H47.8652V74.415Z" fill="white"/>
<path d="M51.6462 74.3898V73.3479C51.0487 73.1494 50.4013 72.951 49.7539 72.7773V74.4146L51.6462 74.3898Z" fill="#D8BFB4"/>
<path d="M53.5154 74.3905V74.0184C52.9178 73.7951 52.2704 73.5719 51.623 73.3486V74.3905H53.5154Z" fill="white"/>
<path d="M54.4349 74.3893C54.1362 74.2653 53.8125 74.1412 53.5137 74.042V74.4141L54.4349 74.3893Z" fill="#D8BFB4"/>
<path d="M83.6684 73.8193C83.3696 73.9434 83.0708 74.0426 82.7969 74.1666H83.6684V73.8193Z" fill="white"/>
<path d="M85.5354 74.1665V73.1494C84.888 73.3727 84.2656 73.5959 83.668 73.844V74.1913L85.5354 74.1665Z" fill="#D8BFB4"/>
<path d="M87.426 74.1417V72.5293C86.7787 72.7277 86.1562 72.9262 85.5586 73.1495V74.1665L87.426 74.1417Z" fill="white"/>
<path d="M89.2948 72.0088C89.1952 72.0336 89.0956 72.0336 88.996 72.0584C88.747 72.1328 88.5229 72.1824 88.2988 72.2569H89.2948V72.0088Z" fill="#71495A"/>
<path d="M91.011 72.2314C90.4881 71.9833 89.8905 71.8841 89.293 71.9833V72.2314H91.011Z" fill="#D8BFB4"/>
<path d="M89.3196 74.1421L89.2947 72.2568H88.2987C87.9999 72.3313 87.7011 72.4305 87.4023 72.5297V74.1421H89.3196Z" fill="#D8BFB4"/>
<path d="M89.3223 74.1421L91.2146 74.1173L91.1897 72.3313C91.1399 72.3065 91.0901 72.2816 91.0403 72.2568H89.3223V74.1421Z" fill="white"/>
<path d="M92.6068 74.1161C92.3827 73.3223 91.8598 72.7022 91.1875 72.3301L91.2124 74.1161H92.6068Z" fill="#D8BFB4"/>
<path d="M45.9944 74.4375H44.625C44.625 74.4623 44.625 74.4871 44.6001 74.4871C44.4756 75.008 44.3511 75.6282 44.2266 76.298L45.9695 76.2732L45.9944 74.4375Z" fill="#D8BFB4"/>
<path d="M44.1279 77.1182C44.0781 77.4655 44.0283 77.8127 43.9785 78.2096H44.1279V77.1182Z" fill="#D8BFB4"/>
<path d="M46.0213 78.1851L45.9964 76.2998L44.2534 76.3246C44.2036 76.5727 44.1787 76.8455 44.1289 77.1184V78.2099L46.0213 78.1851Z" fill="white"/>
<path d="M47.8826 74.4348L45.9902 74.4482L46.0037 76.3335L47.896 76.3201L47.8826 74.4348Z" fill="#71495A"/>
<path d="M49.7732 74.4095L47.8809 74.4229L47.8943 76.3081L49.7866 76.2947L49.7732 74.4095Z" fill="#D8BFB4"/>
<path d="M47.8826 76.2952L45.9902 76.3086L46.0037 78.1939L47.8961 78.1805L47.8826 76.2952Z" fill="#D8BFB4"/>
<path d="M49.7732 76.2952L47.8809 76.3086L47.8943 78.1939L49.7867 78.1805L49.7732 76.2952Z" fill="white"/>
<path d="M51.6423 74.4095L49.75 74.4229L49.7634 76.3081L51.6558 76.2947L51.6423 74.4095Z" fill="#71495A"/>
<path d="M53.5349 74.3851L51.6426 74.3984L51.656 76.2837L53.5483 76.2703L53.5349 74.3851Z" fill="#D8BFB4"/>
<path d="M51.6658 76.2707L49.7734 76.2842L49.7869 78.1695L51.6793 78.156L51.6658 76.2707Z" fill="#D8BFB4"/>
<path d="M53.5349 76.2708L51.6426 76.2842L51.656 78.1695L53.5484 78.156L53.5349 76.2708Z" fill="white"/>
<path d="M53.541 76.2495L55.4334 76.2247V74.7612C55.1097 74.6371 54.786 74.4883 54.4623 74.3643H53.541V76.2495Z" fill="#71495A"/>
<path d="M57.3006 76.2239V75.6286C56.703 75.3309 56.0805 75.058 55.4082 74.7852V76.2487L57.3006 76.2239Z" fill="#D8BFB4"/>
<path d="M55.4275 76.2444L53.5352 76.2578L53.5486 78.1431L55.4409 78.1297L55.4275 76.2444Z" fill="#D8BFB4"/>
<path d="M57.3201 76.2444L55.4277 76.2578L55.4412 78.1431L57.3335 78.1297L57.3201 76.2444Z" fill="white"/>
<path d="M58.4921 76.2252C58.1186 76.0268 57.6953 75.8283 57.2969 75.6299V76.2252H58.4921Z" fill="#71495A"/>
<path d="M57.3242 78.1103L59.2166 78.0855V76.5723C58.9925 76.4483 58.7684 76.3242 58.5194 76.2002H57.3242V78.1103Z" fill="#D8BFB4"/>
<path d="M61.0838 78.086V77.6891C60.4862 77.317 59.8637 76.9698 59.1914 76.5977V78.1108L61.0838 78.086Z" fill="white"/>
<path d="M61.7084 78.0854C61.5092 77.9613 61.2851 77.8125 61.0859 77.6885V78.0854H61.7084Z" fill="#D8BFB4"/>
<path d="M76.1449 77.6143C75.9457 77.7383 75.7466 77.8623 75.5723 77.9863H76.1449V77.6143Z" fill="white"/>
<path d="M79.909 75.4814C79.5107 75.6799 79.1372 75.8784 78.7637 76.0768H79.909V75.4814Z" fill="#D8BFB4"/>
<path d="M78.0413 77.962V76.4736C77.369 76.8457 76.7465 77.2178 76.1738 77.5899V77.962H78.0413Z" fill="#D8BFB4"/>
<path d="M79.9075 77.9614L79.8826 76.0762H78.7372C78.4882 76.2002 78.2392 76.349 77.9902 76.4731V77.9614H79.9075Z" fill="white"/>
<path d="M81.801 76.0515V74.5879C81.1536 74.8856 80.5312 75.1832 79.9336 75.4809V76.0515H81.801Z" fill="#71495A"/>
<path d="M83.6697 76.0523L83.6448 74.167H82.7733C82.4247 74.3158 82.101 74.4647 81.7773 74.5887V76.0523H83.6697Z" fill="#D8BFB4"/>
<path d="M81.7966 76.0715L79.9043 76.085L79.9178 77.9702L81.8101 77.9568L81.7966 76.0715Z" fill="#D8BFB4"/>
<path d="M83.6913 76.0472L81.7988 76.0605L81.8123 77.9458L83.7047 77.9324L83.6913 76.0472Z" fill="white"/>
<path d="M85.5545 74.1614L83.6621 74.1748L83.6756 76.0601L85.5679 76.0467L85.5545 74.1614Z" fill="#71495A"/>
<path d="M87.449 74.136L85.5566 74.1494L85.5701 76.0347L87.4624 76.0213L87.449 74.136Z" fill="#D8BFB4"/>
<path d="M85.5545 76.0472L83.6621 76.0605L83.6755 77.9458L85.5679 77.9324L85.5545 76.0472Z" fill="#D8BFB4"/>
<path d="M87.449 76.0217L85.5566 76.0352L85.5701 77.9204L87.4624 77.907L87.449 76.0217Z" fill="white"/>
<path d="M89.3182 74.136L87.4258 74.1494L87.4393 76.0347L89.3317 76.0212L89.3182 74.136Z" fill="#71495A"/>
<path d="M91.2088 74.1125L89.3164 74.126L89.3299 76.0112L91.2223 75.9978L91.2088 74.1125Z" fill="#D8BFB4"/>
<path d="M89.3396 76.0217L87.4473 76.0352L87.4608 77.9204L89.3531 77.907L89.3396 76.0217Z" fill="#D8BFB4"/>
<path d="M91.2087 75.9983L89.3164 76.0117L89.3299 77.897L91.2222 77.8836L91.2087 75.9983Z" fill="white"/>
<path d="M91.2124 76.0025L93.0052 75.9777C92.8807 75.3079 92.7562 74.6877 92.6068 74.1668C92.6068 74.142 92.6068 74.1172 92.5819 74.1172H91.1875L91.2124 76.0025Z" fill="#71495A"/>
<path d="M91.2129 77.8622L93.1052 77.8374V76.4483C93.0803 76.2746 93.0554 76.1258 93.0305 75.9521L91.2378 75.9769L91.2129 77.8622Z" fill="#D8BFB4"/>
<path d="M93.3027 77.8628C93.228 77.3667 93.1782 76.9201 93.1035 76.4736V77.8628H93.3027Z" fill="white"/>
<path d="M44.1284 78.21H43.979C43.9043 78.8053 43.8545 79.4255 43.8047 80.0952H44.1284V78.21Z" fill="#71495A"/>
<path d="M46.0154 78.2053L44.123 78.2188L44.1365 80.104L46.0289 80.0906L46.0154 78.2053Z" fill="#D8BFB4"/>
<path d="M44.1523 80.0713H43.8286C43.7788 80.6666 43.7539 81.2868 43.7539 81.9566H44.1772L44.1523 80.0713Z" fill="#D8BFB4"/>
<path d="M46.0388 80.0647L44.1465 80.0781L44.1599 81.9634L46.0523 81.95L46.0388 80.0647Z" fill="white"/>
<path d="M47.908 78.1799L46.0156 78.1934L46.0291 80.0786L47.9215 80.0652L47.908 78.1799Z" fill="#71495A"/>
<path d="M49.8006 78.1565L47.9082 78.1699L47.9217 80.0552L49.814 80.0418L49.8006 78.1565Z" fill="#D8BFB4"/>
<path d="M47.908 80.0647L46.0156 80.0781L46.0291 81.9634L47.9214 81.95L47.908 80.0647Z" fill="#D8BFB4"/>
<path d="M49.8006 80.0403L47.9082 80.0537L47.9217 81.939L49.814 81.9255L49.8006 80.0403Z" fill="white"/>
<path d="M51.6658 78.1565L49.7734 78.1699L49.7869 80.0552L51.6792 80.0418L51.6658 78.1565Z" fill="#71495A"/>
<path d="M53.5584 78.1301L51.666 78.1436L51.6795 80.0288L53.5719 80.0154L53.5584 78.1301Z" fill="#D8BFB4"/>
<path d="M51.6931 80.0403L49.8008 80.0537L49.8142 81.939L51.7066 81.9256L51.6931 80.0403Z" fill="#D8BFB4"/>
<path d="M53.5583 80.0169L51.666 80.0303L51.6795 81.9156L53.5718 81.9022L53.5583 80.0169Z" fill="white"/>
<path d="M55.4548 78.1302L53.5625 78.1436L53.5759 80.0288L55.4683 80.0154L55.4548 78.1302Z" fill="#71495A"/>
<path d="M57.3201 78.1057L55.4277 78.1191L55.4412 80.0044L57.3335 79.991L57.3201 78.1057Z" fill="#D8BFB4"/>
<path d="M55.4548 80.0169L53.5625 80.0303L53.576 81.9156L55.4683 81.9021L55.4548 80.0169Z" fill="#D8BFB4"/>
<path d="M57.3435 79.9905L55.4512 80.0039L55.4647 81.8892L57.357 81.8757L57.3435 79.9905Z" fill="white"/>
<path d="M59.2127 78.1058L57.3203 78.1191L57.3337 80.0044L59.2261 79.991L59.2127 78.1058Z" fill="#71495A"/>
<path d="M61.1052 78.0823L59.2129 78.0957L59.2264 79.981L61.1187 79.9675L61.1052 78.0823Z" fill="#D8BFB4"/>
<path d="M59.2127 79.9661L57.3203 79.9795L57.3337 81.8648L59.2261 81.8514L59.2127 79.9661Z" fill="#D8BFB4"/>
<path d="M61.1052 79.9661L59.2129 79.9795L59.2264 81.8648L61.1187 81.8514L61.1052 79.9661Z" fill="white"/>
<path d="M61.0859 79.9712L62.9783 79.9464V78.9294C62.5799 78.6565 62.1566 78.3588 61.7084 78.0859H61.0859V79.9712Z" fill="#71495A"/>
<path d="M64.346 79.9458C63.9227 79.6233 63.4745 79.276 62.9766 78.9287V79.9458H64.346Z" fill="#D8BFB4"/>
<path d="M62.9978 79.9407L61.1055 79.9541L61.1189 81.8394L63.0112 81.826L62.9978 79.9407Z" fill="#D8BFB4"/>
<path d="M63.002 81.832L64.8943 81.8072V80.3436C64.72 80.2195 64.5457 80.0707 64.3714 79.9219H63.002V81.832Z" fill="white"/>
<path d="M66.5105 81.8069C66.0873 81.41 65.5395 80.9139 64.8672 80.3682V81.8317L66.5105 81.8069Z" fill="#D8BFB4"/>
<path d="M72.389 80.3438C71.7416 80.8895 71.2187 81.3856 70.8203 81.7577H72.4139L72.389 80.3438Z" fill="white"/>
<path d="M74.2811 78.8799C73.808 79.2272 73.3847 79.5497 72.9863 79.8721H74.306L74.2811 78.8799Z" fill="#71495A"/>
<path d="M76.1736 79.8472L76.1487 77.9619H75.576C75.1029 78.2596 74.6796 78.5821 74.2812 78.8549V79.8472H76.1736Z" fill="#D8BFB4"/>
<path d="M74.3059 81.7583L74.281 79.873H72.9614C72.7622 80.0219 72.563 80.1955 72.3887 80.3444V81.7583H74.3059Z" fill="#D8BFB4"/>
<path d="M76.1697 79.8665L74.2773 79.8799L74.2908 81.7652L76.1832 81.7517L76.1697 79.8665Z" fill="white"/>
<path d="M78.035 77.9563L76.1426 77.9697L76.156 79.855L78.0484 79.8416L78.035 77.9563Z" fill="#71495A"/>
<path d="M79.9294 77.9563L78.0371 77.9697L78.0505 79.855L79.9429 79.8416L79.9294 77.9563Z" fill="#D8BFB4"/>
<path d="M78.0623 79.8411L76.1699 79.8545L76.1834 81.7398L78.0757 81.7264L78.0623 79.8411Z" fill="#D8BFB4"/>
<path d="M79.9549 79.8411L78.0625 79.8545L78.076 81.7398L79.9683 81.7264L79.9549 79.8411Z" fill="white"/>
<path d="M81.8201 77.9328L79.9277 77.9463L79.9412 79.8316L81.8336 79.8181L81.8201 77.9328Z" fill="#71495A"/>
<path d="M83.6912 77.9329L81.7988 77.9463L81.8123 79.8316L83.7047 79.8182L83.6912 77.9329Z" fill="#D8BFB4"/>
<path d="M81.8201 79.8186L79.9277 79.832L79.9412 81.7173L81.8336 81.7039L81.8201 79.8186Z" fill="#D8BFB4"/>
<path d="M83.7126 79.7923L81.8203 79.8057L81.8337 81.6909L83.7261 81.6776L83.7126 79.7923Z" fill="white"/>
<path d="M85.5799 77.9075L83.6875 77.9209L83.7009 79.8062L85.5933 79.7928L85.5799 77.9075Z" fill="#71495A"/>
<path d="M87.4743 77.9075L85.582 77.9209L85.5955 79.8062L87.4878 79.7928L87.4743 77.9075Z" fill="#D8BFB4"/>
<path d="M85.6052 79.7922L83.7129 79.8057L83.7264 81.6909L85.6187 81.6775L85.6052 79.7922Z" fill="#D8BFB4"/>
<path d="M87.4744 79.7688L85.582 79.7822L85.5955 81.6675L87.4879 81.6541L87.4744 79.7688Z" fill="white"/>
<path d="M89.3396 77.8831L87.4473 77.8965L87.4607 79.7818L89.3531 79.7683L89.3396 77.8831Z" fill="#71495A"/>
<path d="M91.2322 77.8831L89.3398 77.8965L89.3533 79.7818L91.2457 79.7683L91.2322 77.8831Z" fill="#D8BFB4"/>
<path d="M89.365 79.7688L87.4727 79.7822L87.4861 81.6675L89.3785 81.6541L89.365 79.7688Z" fill="#D8BFB4"/>
<path d="M91.2595 79.7435L89.3672 79.7568L89.3806 81.6421L91.273 81.6287L91.2595 79.7435Z" fill="white"/>
<path d="M93.1248 77.8567L91.2324 77.8701L91.2459 79.7554L93.1383 79.7419L93.1248 77.8567Z" fill="#71495A"/>
<path d="M93.1284 79.7232H93.5019C93.4521 79.0534 93.3774 78.4332 93.3027 77.8379H93.1035L93.1284 79.7232Z" fill="#D8BFB4"/>
<path d="M93.1247 79.7434L91.2324 79.7568L91.2459 81.6421L93.1382 81.6287L93.1247 79.7434Z" fill="#D8BFB4"/>
<path d="M93.1284 81.6089H93.6015C93.5766 80.964 93.5268 80.319 93.477 79.7236H93.1035L93.1284 81.6089Z" fill="white"/>
<path d="M44.1529 81.9551H43.7296C43.7047 82.5504 43.7047 83.1706 43.7296 83.8404H44.1778L44.1529 81.9551Z" fill="#71495A"/>
<path d="M46.0388 81.9505L44.1465 81.9639L44.1599 83.8492L46.0523 83.8357L46.0388 81.9505Z" fill="#D8BFB4"/>
<path d="M44.1787 83.8408H43.7305C43.7305 83.94 43.7305 84.0145 43.7305 84.1137C43.7305 84.6594 43.7305 85.2052 43.7554 85.7261H44.2036L44.1787 83.8408Z" fill="#D8BFB4"/>
<path d="M46.0662 83.8362L44.1738 83.8496L44.1873 85.7349L46.0796 85.7215L46.0662 83.8362Z" fill="white"/>
<path d="M47.9314 81.926L46.0391 81.9395L46.0525 83.8247L47.9449 83.8113L47.9314 81.926Z" fill="#71495A"/>
<path d="M49.8259 81.926L47.9336 81.9395L47.9471 83.8247L49.8394 83.8113L49.8259 81.926Z" fill="#D8BFB4"/>
<path d="M47.9548 83.8108L46.0625 83.8242L46.076 85.7095L47.9683 85.6961L47.9548 83.8108Z" fill="#D8BFB4"/>
<path d="M49.8259 83.7873L47.9336 83.8008L47.9471 85.6861L49.8394 85.6726L49.8259 83.7873Z" fill="white"/>
<path d="M51.6931 81.9017L49.8008 81.915L49.8142 83.8003L51.7066 83.7869L51.6931 81.9017Z" fill="#71495A"/>
<path d="M53.5877 81.9016L51.6953 81.915L51.7088 83.8003L53.6011 83.7869L53.5877 81.9016Z" fill="#D8BFB4"/>
<path d="M51.7185 83.7864L49.8262 83.7998L49.8396 85.6851L51.732 85.6717L51.7185 83.7864Z" fill="#D8BFB4"/>
<path d="M53.6091 83.761L51.7168 83.7744L51.7303 85.6597L53.6226 85.6463L53.6091 83.761Z" fill="white"/>
<path d="M55.4744 81.8762L53.582 81.8896L53.5955 83.7749L55.4879 83.7615L55.4744 81.8762Z" fill="#71495A"/>
<path d="M57.3435 81.8762L55.4512 81.8896L55.4647 83.7749L57.357 83.7615L57.3435 81.8762Z" fill="#D8BFB4"/>
<path d="M55.4744 83.761L53.582 83.7744L53.5955 85.6597L55.4878 85.6463L55.4744 83.761Z" fill="#D8BFB4"/>
<path d="M57.367 83.7366L55.4746 83.75L55.4881 85.6353L57.3804 85.6219L57.367 83.7366Z" fill="white"/>
<path d="M59.2361 81.8518L57.3438 81.8652L57.3572 83.7505L59.2496 83.7371L59.2361 81.8518Z" fill="#71495A"/>
<path d="M61.1306 81.8518L59.2383 81.8652L59.2518 83.7505L61.1441 83.7371L61.1306 81.8518Z" fill="#D8BFB4"/>
<path d="M59.2361 83.7366L57.3438 83.75L57.3572 85.6353L59.2496 85.6218L59.2361 83.7366Z" fill="#D8BFB4"/>
<path d="M61.1306 83.7121L59.2383 83.7256L59.2518 85.6109L61.1441 85.5974L61.1306 83.7121Z" fill="white"/>
<path d="M62.9978 81.8264L61.1055 81.8398L61.1189 83.7251L63.0113 83.7117L62.9978 81.8264Z" fill="#71495A"/>
<path d="M64.8884 81.8011L62.9961 81.8145L63.0095 83.6997L64.9019 83.6863L64.8884 81.8011Z" fill="#D8BFB4"/>
<path d="M63.0213 83.7122L61.1289 83.7256L61.1424 85.6109L63.0347 85.5974L63.0213 83.7122Z" fill="#D8BFB4"/>
<path d="M64.8884 83.6868L62.9961 83.7002L63.0096 85.5855L64.9019 85.572L64.8884 83.6868Z" fill="white"/>
<path d="M64.8926 83.6923H66.5608V82.4024C66.5608 82.2535 66.6106 82.1047 66.7351 81.9807C66.6853 81.9311 66.6106 81.8566 66.5359 81.7822H64.8926V83.6923Z" fill="#71495A"/>
<path d="M66.5359 83.667L64.8926 83.6918V85.5771L66.5608 85.5523L66.5359 83.9895V83.667Z" fill="#D8BFB4"/>
<path d="M70.9482 82.3776V83.6675H72.4422L72.4173 81.7822H70.8237C70.7739 81.8318 70.7241 81.8566 70.6992 81.9063C70.8486 82.0055 70.9233 82.1791 70.9482 82.3776Z" fill="#D8BFB4"/>
<path d="M70.9473 83.6406V83.9631V85.5259L72.4413 85.5011L72.4164 83.6406H70.9473Z" fill="white"/>
<path d="M74.3006 81.7522L72.4082 81.7656L72.4217 83.6509L74.314 83.6375L74.3006 81.7522Z" fill="#71495A"/>
<path d="M76.1931 81.7268L74.3008 81.7402L74.3143 83.6255L76.2066 83.6121L76.1931 81.7268Z" fill="#D8BFB4"/>
<path d="M74.324 83.6136L72.4316 83.627L72.4451 85.5122L74.3374 85.4988L74.324 83.6136Z" fill="#D8BFB4"/>
<path d="M76.1931 83.6136L74.3008 83.627L74.3142 85.5122L76.2066 85.4989L76.1931 83.6136Z" fill="white"/>
<path d="M78.0623 81.7268L76.1699 81.7402L76.1834 83.6255L78.0757 83.6121L78.0623 81.7268Z" fill="#71495A"/>
<path d="M79.9549 81.7024L78.0625 81.7158L78.0759 83.6011L79.9683 83.5877L79.9549 81.7024Z" fill="#D8BFB4"/>
<path d="M78.0857 83.5882L76.1934 83.6016L76.2068 85.4868L78.0991 85.4735L78.0857 83.5882Z" fill="#D8BFB4"/>
<path d="M79.9802 83.5881L78.0879 83.6016L78.1014 85.4868L79.9937 85.4734L79.9802 83.5881Z" fill="white"/>
<path d="M81.8435 81.7024L79.9512 81.7158L79.9646 83.6011L81.857 83.5877L81.8435 81.7024Z" fill="#71495A"/>
<path d="M83.7127 81.678L81.8203 81.6914L81.8338 83.5767L83.7262 83.5632L83.7127 81.678Z" fill="#D8BFB4"/>
<path d="M81.8435 83.5628L79.9512 83.5762L79.9646 85.4614L81.857 85.4481L81.8435 83.5628Z" fill="#D8BFB4"/>
<path d="M83.738 83.5628L81.8457 83.5762L81.8592 85.4614L83.7515 85.448L83.738 83.5628Z" fill="white"/>
<path d="M85.6052 81.678L83.7129 81.6914L83.7263 83.5767L85.6187 83.5633L85.6052 81.678Z" fill="#71495A"/>
<path d="M87.4979 81.6516L85.6055 81.665L85.6189 83.5503L87.5113 83.5369L87.4979 81.6516Z" fill="#D8BFB4"/>
<path d="M85.6306 83.5384L83.7383 83.5518L83.7517 85.4371L85.6441 85.4237L85.6306 83.5384Z" fill="#D8BFB4"/>
<path d="M87.4979 83.5383L85.6055 83.5518L85.619 85.437L87.5114 85.4236L87.4979 83.5383Z" fill="white"/>
<path d="M89.365 81.6291L87.4727 81.6426L87.4862 83.5279L89.3785 83.5144L89.365 81.6291Z" fill="#71495A"/>
<path d="M91.2595 81.6292L89.3672 81.6426L89.3807 83.5279L91.273 83.5144L91.2595 81.6292Z" fill="#D8BFB4"/>
<path d="M89.3924 83.5139L87.5 83.5273L87.5135 85.4126L89.4058 85.3992L89.3924 83.5139Z" fill="#D8BFB4"/>
<path d="M91.283 83.5139L89.3906 83.5273L89.4041 85.4126L91.2964 85.3992L91.283 83.5139Z" fill="white"/>
<path d="M93.1502 81.6038L91.2578 81.6172L91.2713 83.5025L93.1636 83.489L93.1502 81.6038Z" fill="#71495A"/>
<path d="M93.1523 83.4947H93.6503C93.6503 82.8497 93.6254 82.2295 93.6254 81.6094H93.1523V83.4947Z" fill="#D8BFB4"/>
<path d="M93.1502 83.4895L91.2578 83.5029L91.2713 85.3882L93.1637 85.3748L93.1502 83.4895Z" fill="#D8BFB4"/>
<path d="M93.1523 85.354H93.6503C93.6503 84.8331 93.6503 84.3122 93.6503 83.7416C93.6503 83.6424 93.6503 83.568 93.6503 83.4688H93.1523V85.354Z" fill="white"/>
<path d="M44.1787 85.7012H43.7305C43.7554 86.3461 43.7803 86.9911 43.8301 87.5864H44.2036L44.1787 85.7012Z" fill="#71495A"/>
<path d="M46.0662 85.6975L44.1738 85.7109L44.1873 87.5962L46.0796 87.5828L46.0662 85.6975Z" fill="#D8BFB4"/>
<path d="M44.2016 87.5859H43.8281C43.8779 88.2557 43.9277 88.8759 44.0024 89.4712H44.2016V87.5859Z" fill="#D8BFB4"/>
<path d="M46.0876 87.5833L44.1953 87.5967L44.2087 89.482L46.1011 89.4686L46.0876 87.5833Z" fill="white"/>
<path d="M47.9548 85.6975L46.0625 85.7109L46.076 87.5962L47.9683 87.5828L47.9548 85.6975Z" fill="#71495A"/>
<path d="M49.8494 85.6712L47.957 85.6846L47.9705 87.5699L49.8628 87.5564L49.8494 85.6712Z" fill="#D8BFB4"/>
<path d="M47.9841 87.5569L46.0918 87.5703L46.1053 89.4556L47.9976 89.4422L47.9841 87.5569Z" fill="#D8BFB4"/>
<path d="M49.8494 87.5569L47.957 87.5703L47.9705 89.4556L49.8628 89.4422L49.8494 87.5569Z" fill="white"/>
<path d="M51.7185 85.6712L49.8262 85.6846L49.8396 87.5699L51.732 87.5565L51.7185 85.6712Z" fill="#71495A"/>
<path d="M53.6091 85.6467L51.7168 85.6602L51.7303 87.5454L53.6226 87.532L53.6091 85.6467Z" fill="#D8BFB4"/>
<path d="M51.74 87.5315L49.8477 87.5449L49.8611 89.4302L51.7535 89.4168L51.74 87.5315Z" fill="#D8BFB4"/>
<path d="M53.6326 87.5315L51.7402 87.5449L51.7537 89.4302L53.646 89.4168L53.6326 87.5315Z" fill="white"/>
<path d="M55.5017 85.6233L53.6094 85.6367L53.6228 87.522L55.5152 87.5086L55.5017 85.6233Z" fill="#71495A"/>
<path d="M57.3689 85.6233L55.4766 85.6367L55.49 87.522L57.3823 87.5086L57.3689 85.6233Z" fill="#D8BFB4"/>
<path d="M55.5017 87.5091L53.6094 87.5225L53.6228 89.4077L55.5152 89.3943L55.5017 87.5091Z" fill="#D8BFB4"/>
<path d="M57.3963 87.5081L55.5039 87.5215L55.5174 89.4068L57.4097 89.3934L57.3963 87.5081Z" fill="white"/>
<path d="M59.2615 85.5979L57.3691 85.6113L57.3826 87.4966L59.2749 87.4832L59.2615 85.5979Z" fill="#71495A"/>
<path d="M61.156 85.5979L59.2637 85.6113L59.2771 87.4966L61.1695 87.4832L61.156 85.5979Z" fill="#D8BFB4"/>
<path d="M59.2888 87.4817L57.3965 87.4951L57.4099 89.3804L59.3023 89.367L59.2888 87.4817Z" fill="#D8BFB4"/>
<path d="M61.156 87.4817L59.2637 87.4951L59.2771 89.3804L61.1695 89.367L61.156 87.4817Z" fill="white"/>
<path d="M63.0213 85.5725L61.1289 85.5859L61.1424 87.4712L63.0348 87.4578L63.0213 85.5725Z" fill="#71495A"/>
<path d="M64.9158 85.5725L63.0234 85.5859L63.0369 87.4712L64.9293 87.4578L64.9158 85.5725Z" fill="#D8BFB4"/>
<path d="M61.1582 87.4629L61.1831 89.3482H62.6273C62.7767 89.249 62.9261 89.1497 63.0506 89.0505V87.4877L61.1582 87.4629Z" fill="#D8BFB4"/>
<path d="M63.0273 87.4613V89.0241C63.7494 88.5032 64.3719 88.0319 64.8948 87.5606V87.4365L63.0273 87.4613Z" fill="white"/>
<path d="M66.5608 85.5518H64.8926L64.9175 87.437H65.0669C65.7641 86.8665 66.2869 86.3456 66.6853 85.9487C66.6106 85.8494 66.5608 85.7254 66.5608 85.5518Z" fill="#71495A"/>
<path d="M64.9199 87.5608C64.9698 87.5111 65.0197 87.4614 65.0696 87.4365H64.9199V87.5608Z" fill="#D8BFB4"/>
<path d="M72.4373 85.5029H70.9433V85.5277C70.9433 85.7014 70.8686 85.8502 70.7441 85.9743C71.1425 86.3463 71.6654 86.8425 72.3128 87.3882H72.4124L72.4373 85.5029Z" fill="#D8BFB4"/>
<path d="M72.3379 87.3877C72.3628 87.4126 72.4125 87.4374 72.4374 87.4871V87.3877H72.3379Z" fill="white"/>
<path d="M74.324 85.4993L72.4316 85.5127L72.4451 87.398L74.3374 87.3846L74.324 85.4993Z" fill="#71495A"/>
<path d="M76.2185 85.4993L74.3262 85.5127L74.3397 87.398L76.232 87.3845L76.2185 85.4993Z" fill="#D8BFB4"/>
<path d="M72.4629 87.3877V87.4869C73.0107 87.9334 73.6332 88.4048 74.3553 88.9257V87.3877H72.4629Z" fill="#D8BFB4"/>
<path d="M76.2204 87.3623L74.3281 87.3871V88.9251C74.4775 89.0243 74.6518 89.1484 74.8261 89.2724H76.2204V87.3623Z" fill="white"/>
<path d="M78.1111 85.4739L76.2188 85.4873L76.2322 87.3726L78.1246 87.3592L78.1111 85.4739Z" fill="#71495A"/>
<path d="M79.9802 85.4485L78.0879 85.4619L78.1013 87.3472L79.9937 87.3338L79.9802 85.4485Z" fill="#D8BFB4"/>
<path d="M78.1111 87.3587L76.2188 87.3721L76.2322 89.2573L78.1245 89.2439L78.1111 87.3587Z" fill="#D8BFB4"/>
<path d="M80.0017 87.3342L78.1094 87.3477L78.1228 89.2329L80.0152 89.2195L80.0017 87.3342Z" fill="white"/>
<path d="M81.8709 85.4475L79.9785 85.4609L79.992 87.3462L81.8844 87.3328L81.8709 85.4475Z" fill="#71495A"/>
<path d="M83.7654 85.4241L81.873 85.4375L81.8865 87.3228L83.7789 87.3093L83.7654 85.4241Z" fill="#D8BFB4"/>
<path d="M81.8709 87.3342L79.9785 87.3477L79.992 89.2329L81.8844 89.2195L81.8709 87.3342Z" fill="#D8BFB4"/>
<path d="M83.7654 87.3099L81.873 87.3232L81.8865 89.2085L83.7789 89.1951L83.7654 87.3099Z" fill="white"/>
<path d="M85.6306 85.4241L83.7383 85.4375L83.7517 87.3228L85.6441 87.3094L85.6306 85.4241Z" fill="#71495A"/>
<path d="M87.5252 85.3987L85.6328 85.4121L85.6463 87.2974L87.5386 87.284L87.5252 85.3987Z" fill="#D8BFB4"/>
<path d="M85.656 87.3098L83.7637 87.3232L83.7771 89.2085L85.6694 89.1951L85.656 87.3098Z" fill="#D8BFB4"/>
<path d="M87.5251 87.2854L85.6328 87.2988L85.6463 89.1841L87.5386 89.1707L87.5251 87.2854Z" fill="white"/>
<path d="M89.3923 85.3987L87.5 85.4121L87.5135 87.2974L89.4058 87.284L89.3923 85.3987Z" fill="#71495A"/>
<path d="M91.283 85.3733L89.3906 85.3867L89.4041 87.272L91.2964 87.2586L91.283 85.3733Z" fill="#D8BFB4"/>
<path d="M89.4138 87.2591L87.5215 87.2725L87.5349 89.1577L89.4272 89.1444L89.4138 87.2591Z" fill="#D8BFB4"/>
<path d="M91.3064 87.259L89.4141 87.2725L89.4275 89.1577L91.3199 89.1443L91.3064 87.259Z" fill="white"/>
<path d="M93.1755 85.3733L91.2832 85.3867L91.2967 87.272L93.189 87.2586L93.1755 85.3733Z" fill="#71495A"/>
<path d="M93.1777 87.2378H93.601C93.6259 86.6425 93.6508 86.0223 93.6757 85.3525H93.1777V87.2378Z" fill="#D8BFB4"/>
<path d="M93.1755 87.2356L91.2832 87.249L91.2967 89.1343L93.189 89.1209L93.1755 87.2356Z" fill="#D8BFB4"/>
<path d="M93.1772 89.1235H93.4262C93.476 88.5282 93.5258 87.908 93.5756 87.2383H93.1523L93.1772 89.1235Z" fill="white"/>
<path d="M44.0059 89.4717C44.0806 90.0422 44.1553 90.588 44.23 91.1089V89.4717H44.0059Z" fill="#71495A"/>
<path d="M46.0935 89.4453L44.2012 89.4701V91.1073C44.2261 91.1818 44.2261 91.281 44.251 91.3554L46.0935 91.3306V89.4453Z" fill="#D8BFB4"/>
<path d="M46.0964 91.3311L44.2539 91.3559C44.3784 92.0504 44.5029 92.6706 44.6274 93.2411H46.1213L46.0964 91.3311Z" fill="white"/>
<path d="M47.9841 89.4426L46.0918 89.4561L46.1053 91.3413L47.9976 91.3279L47.9841 89.4426Z" fill="#71495A"/>
<path d="M49.8767 89.4173L47.9844 89.4307L47.9978 91.3159L49.8902 91.3026L49.8767 89.4173Z" fill="#D8BFB4"/>
<path d="M48.0076 91.3274L46.1152 91.3408L46.1287 93.2261L48.021 93.2127L48.0076 91.3274Z" fill="#D8BFB4"/>
<path d="M49.8767 91.3039L47.9844 91.3174L47.9979 93.2027L49.8902 93.1892L49.8767 91.3039Z" fill="white"/>
<path d="M51.74 89.4173L49.8477 89.4307L49.8611 91.3159L51.7534 91.3026L51.74 89.4173Z" fill="#71495A"/>
<path d="M53.6326 89.3938L51.7402 89.4072L51.7537 91.2925L53.646 91.2791L53.6326 89.3938Z" fill="#D8BFB4"/>
<path d="M51.7673 91.303L49.875 91.3164L49.8884 93.2017L51.7808 93.1883L51.7673 91.303Z" fill="#D8BFB4"/>
<path d="M53.6599 91.2776L51.7676 91.291L51.781 93.1763L53.6733 93.1629L53.6599 91.2776Z" fill="white"/>
<path d="M55.5271 89.3938L53.6348 89.4072L53.6483 91.2925L55.5406 91.2791L55.5271 89.3938Z" fill="#71495A"/>
<path d="M57.3963 89.3685L55.5039 89.3818L55.5173 91.2671L57.4097 91.2537L57.3963 89.3685Z" fill="#D8BFB4"/>
<path d="M55.5271 91.2532L53.6348 91.2666L53.6482 93.1519L55.5406 93.1385L55.5271 91.2532Z" fill="#D8BFB4"/>
<path d="M55.5332 91.2568L55.5581 93.1421H55.9067C56.4296 92.8941 56.9525 92.6708 57.4505 92.4227V91.2568H55.5332Z" fill="white"/>
<path d="M59.2888 89.3684L57.3965 89.3818L57.4099 91.2671L59.3023 91.2537L59.2888 89.3684Z" fill="#71495A"/>
<path d="M59.2676 89.3477L59.2925 91.2329H59.6162C60.164 90.9104 60.6868 90.6128 61.1599 90.2903V89.3477H59.2676Z" fill="#D8BFB4"/>
<path d="M57.4004 91.2568V92.4227C58.0727 92.1003 58.6952 91.753 59.2678 91.4305V91.2568H57.4004Z" fill="#D8BFB4"/>
<path d="M59.2949 91.4074C59.3947 91.3577 59.5195 91.2831 59.6193 91.2334H59.2949V91.4074Z" fill="white"/>
<path d="M61.1582 90.2897C61.6811 89.9672 62.1542 89.6447 62.6024 89.3223H61.1582V90.2897Z" fill="#71495A"/>
<path d="M74.8281 89.248C75.2763 89.5457 75.7245 89.8434 76.2474 90.1659V89.248H74.8281Z" fill="#D8BFB4"/>
<path d="M78.115 89.2246L76.2227 89.2494V90.1672C76.7206 90.4897 77.2684 90.7874 77.8411 91.1099H78.115V89.2246Z" fill="#71495A"/>
<path d="M80.0017 89.22L78.1094 89.2334L78.1228 91.1187L80.0151 91.1053L80.0017 89.22Z" fill="#D8BFB4"/>
<path d="M77.8398 91.1094C77.9396 91.1591 78.0145 91.2088 78.1143 91.2585V91.1094H77.8398Z" fill="#D8BFB4"/>
<path d="M78.1426 91.1088V91.2576C78.7402 91.5801 79.3626 91.9026 80.0349 92.2251V91.084L78.1426 91.1088Z" fill="white"/>
<path d="M81.8943 89.1946L80.002 89.208L80.0154 91.0933L81.9077 91.0799L81.8943 89.1946Z" fill="#71495A"/>
<path d="M83.7888 89.1946L81.8965 89.208L81.9099 91.0933L83.8023 91.0799L83.7888 89.1946Z" fill="#D8BFB4"/>
<path d="M81.9002 91.084L80.0078 91.1088V92.2499C80.5307 92.4979 81.0536 92.746 81.6014 92.9693H81.9002V91.084Z" fill="#D8BFB4"/>
<path d="M83.7888 91.055L81.8965 91.0684L81.9099 92.9536L83.8023 92.9403L83.7888 91.055Z" fill="white"/>
<path d="M85.656 89.1701L83.7637 89.1836L83.7772 91.0689L85.6695 91.0554L85.656 89.1701Z" fill="#71495A"/>
<path d="M87.5447 89.1692L85.6523 89.1826L85.6658 91.0679L87.5581 91.0545L87.5447 89.1692Z" fill="#D8BFB4"/>
<path d="M85.6814 91.055L83.7891 91.0684L83.8025 92.9536L85.6948 92.9403L85.6814 91.055Z" fill="#D8BFB4"/>
<path d="M87.5447 91.0305L85.6523 91.0439L85.6658 92.9292L87.5582 92.9158L87.5447 91.0305Z" fill="white"/>
<path d="M89.4392 89.1438L87.5469 89.1572L87.5604 91.0425L89.4527 91.0291L89.4392 89.1438Z" fill="#71495A"/>
<path d="M91.3064 89.1438L89.4141 89.1572L89.4276 91.0425L91.3199 91.0291L91.3064 89.1438Z" fill="#D8BFB4"/>
<path d="M89.4392 91.0305L87.5469 91.0439L87.5603 92.9292L89.4527 92.9158L89.4392 91.0305Z" fill="#D8BFB4"/>
<path d="M91.3338 91.0061L89.4414 91.0195L89.4549 92.9048L91.3472 92.8914L91.3338 91.0061Z" fill="white"/>
<path d="M93.2009 89.1204L91.3086 89.1338L91.3221 91.0191L93.2144 91.0056L93.2009 89.1204Z" fill="#71495A"/>
<path d="M93.207 90.9839C93.3066 90.4134 93.3813 89.7684 93.4561 89.0986H93.207V90.9839Z" fill="#D8BFB4"/>
<path d="M91.3125 91.0098L91.3374 92.895H92.8811C93.0056 92.3493 93.1052 91.754 93.2048 91.0842V91.0098H91.3125Z" fill="#D8BFB4"/>
<path d="M46.119 93.2178H44.625C44.6748 93.3914 44.6997 93.5651 44.7495 93.7139C44.874 94.2596 45.1728 94.731 45.5463 95.0782H46.119V93.2178Z" fill="#D8BFB4"/>
<path d="M45.5469 95.0791C45.7212 95.2527 45.9204 95.4016 46.1445 95.5256V95.0791H45.5469Z" fill="white"/>
<path d="M48.0076 93.1877L46.1152 93.2012L46.1287 95.0865L48.0211 95.073L48.0076 93.1877Z" fill="#71495A"/>
<path d="M49.8982 93.1878L48.0059 93.2012L48.0193 95.0865L49.9117 95.073L49.8982 93.1878Z" fill="#D8BFB4"/>
<path d="M46.1465 95.0775V95.5241C46.6943 95.8466 47.3666 95.9706 48.0388 95.8714V95.0527L46.1465 95.0775Z" fill="#D8BFB4"/>
<path d="M48.0137 95.0775V95.8961C48.1133 95.8713 48.2378 95.8465 48.3374 95.8217C48.8602 95.6729 49.3831 95.524 49.8811 95.3752V95.0527L48.0137 95.0775Z" fill="white"/>
<path d="M49.8828 93.168L49.9077 95.0532H50.9286C51.2274 94.954 51.5013 94.8548 51.8001 94.7556V93.168H49.8828Z" fill="#71495A"/>
<path d="M51.7734 93.1674V94.755C52.4208 94.5317 53.0433 94.3085 53.6409 94.0604V93.1426L51.7734 93.1674Z" fill="#D8BFB4"/>
<path d="M49.9043 95.3752C50.2529 95.276 50.5766 95.1768 50.9252 95.0527H49.9043V95.3752Z" fill="#D8BFB4"/>
<path d="M53.6621 93.1426V94.0604C54.3095 93.8124 54.932 93.5395 55.5296 93.2914V93.1426H53.6621Z" fill="#71495A"/>
<path d="M55.5332 93.2917C55.658 93.242 55.7578 93.1923 55.8825 93.1426H55.5332V93.2917Z" fill="#D8BFB4"/>
<path d="M81.627 92.9443C81.7268 92.9941 81.8266 93.0189 81.9264 93.0686V92.9443H81.627Z" fill="#71495A"/>
<path d="M81.8984 92.9443V93.0684C82.496 93.3164 83.1434 93.5893 83.7908 93.8374V92.9443H81.8984Z" fill="#D8BFB4"/>
<path d="M83.793 92.9457V93.8387C84.3906 94.062 85.0379 94.2852 85.6853 94.5085V92.9209L83.793 92.9457Z" fill="#71495A"/>
<path d="M87.5544 92.9209L85.6621 92.9457V94.5333C85.9609 94.6325 86.2597 94.7318 86.5834 94.831H87.5544V92.9209Z" fill="#D8BFB4"/>
<path d="M87.5765 94.7803H86.6055C86.9292 94.8795 87.2529 94.9787 87.5765 95.0779V94.7803Z" fill="white"/>
<path d="M89.4666 92.8899L87.5742 92.9033L87.5877 94.7886L89.48 94.7752L89.4666 92.8899Z" fill="#71495A"/>
<path d="M91.3338 92.8899L89.4414 92.9033L89.4549 94.7886L91.3472 94.7752L91.3338 92.8899Z" fill="#D8BFB4"/>
<path d="M87.5781 94.7803V95.0779C88.101 95.2268 88.6239 95.3756 89.1717 95.5245C89.2713 95.5493 89.3709 95.5741 89.4705 95.5741V94.7803H87.5781Z" fill="#D8BFB4"/>
<path d="M89.4727 94.7797V95.5735C90.1449 95.6727 90.7923 95.5487 91.365 95.2262V94.7549L89.4727 94.7797Z" fill="white"/>
<path d="M91.3369 94.7554H91.9594C92.3329 94.3833 92.6068 93.912 92.7313 93.3662C92.7562 93.2174 92.806 93.0438 92.8309 92.8701H91.2871L91.3369 94.7554Z" fill="#71495A"/>
<path d="M91.3379 95.2262C91.562 95.1022 91.7861 94.9285 91.9604 94.7549H91.3379V95.2262Z" fill="#D8BFB4"/>
<path d="M68.7285 82.5512H70.0731C70.1976 82.4272 70.3221 82.2783 70.5213 82.0799C70.5711 82.0303 70.6209 81.9807 70.6956 81.9063C70.596 81.8318 70.4715 81.7822 70.3221 81.7822H68.7285V82.5512Z" fill="#71495A"/>
<path d="M70.5467 83.6423V82.0547C70.3724 82.2283 70.223 82.402 70.0985 82.526H68.7539V83.6423H70.5467Z" fill="#71495A"/>
<path d="M70.5469 83.6421H70.9453V82.3522C70.9453 82.1537 70.8457 82.0049 70.7212 81.8809C70.6714 81.9305 70.5967 82.0049 70.5469 82.0545V83.6421Z" fill="#71495A"/>
<path d="M70.5467 83.6631L68.7539 83.6758L68.7562 83.9983L70.549 83.9856L70.5467 83.6631Z" fill="#71495A"/>
<path d="M70.9481 83.6436L70.5488 83.6465L70.5512 83.9696L70.9504 83.9667L70.9481 83.6436Z" fill="#71495A"/>
<path d="M70.2971 85.5278C70.1478 85.3541 70.0233 85.2301 69.9237 85.1309H68.7285V86.1479H70.322C70.4714 86.1479 70.6208 86.0735 70.7204 85.9743C70.6457 85.8999 70.571 85.8254 70.5212 85.7758C70.4714 85.7014 70.3718 85.6022 70.2971 85.5278Z" fill="#D8BFB4"/>
<path d="M68.7539 83.9648V85.1307H69.9491C70.0238 85.23 70.1483 85.354 70.3226 85.5276H70.5716V83.9648H68.7539Z" fill="#D8BFB4"/>
<path d="M70.9394 83.9649L70.541 83.9678L70.5522 85.5306L70.9506 85.5278L70.9394 83.9649Z" fill="#D8BFB4"/>
<path d="M70.5483 85.7759V85.5273H70.2988C70.3737 85.6019 70.4735 85.7013 70.5483 85.7759Z" fill="#D8BFB4"/>
<path d="M70.9461 85.5522L70.5469 85.5273V85.7759C70.6217 85.8505 70.6716 85.9002 70.7465 85.9748C70.8962 85.8754 70.9711 85.7262 70.9461 85.5522Z" fill="#D8BFB4"/>
<path d="M66.7607 82.0551C66.9599 82.2535 67.1342 82.4272 67.2587 82.5512H68.6531H68.7527V81.7822H67.1591C66.9848 81.7822 66.8354 81.8566 66.7109 81.9807C66.7109 82.0055 66.7358 82.0303 66.7607 82.0551Z" fill="#D8BFB4"/>
<path d="M66.5371 83.6663H66.7612V82.0291C66.7363 82.0043 66.7114 81.9795 66.7114 81.9795C66.6118 82.0787 66.5371 82.2276 66.5371 82.4012V83.6663Z" fill="#D8BFB4"/>
<path d="M68.6541 82.5508H67.2597C67.1352 82.4268 66.9609 82.2531 66.7617 82.0547V83.6919L68.6541 83.6671V82.5508Z" fill="#D8BFB4"/>
<path d="M66.7616 83.6684L66.5371 83.6699L66.5394 83.9931L66.7639 83.9915L66.7616 83.6684Z" fill="#D8BFB4"/>
<path d="M68.6795 83.6626L66.7871 83.6758L66.7894 83.9983L68.6817 83.9851L68.6795 83.6626Z" fill="#D8BFB4"/>
<path d="M68.752 82.552L68.6523 82.5527L68.6603 83.669L68.7599 83.6683L68.752 82.552Z" fill="#D8BFB4"/>
<path d="M68.756 83.6692L68.6562 83.6699L68.6585 83.9931L68.7583 83.9924L68.756 83.6692Z" fill="#D8BFB4"/>
<path d="M68.7542 85.1553H68.6546H67.4345C67.3598 85.2545 67.2353 85.3785 67.0859 85.5522C67.0112 85.6514 66.9116 85.7506 66.7871 85.8499C66.7622 85.8747 66.7373 85.8995 66.6875 85.9491C66.7871 86.0979 66.9614 86.1723 67.1606 86.1723H68.7542V85.1553Z" fill="white"/>
<path d="M66.7788 83.9916L66.5547 83.9932L66.5659 85.556L66.7899 85.5544L66.7788 83.9916Z" fill="white"/>
<path d="M66.7871 83.9893V85.552H67.0859C67.2353 85.3784 67.3598 85.2544 67.4345 85.1551H68.6546V83.9893H66.7871Z" fill="white"/>
<path d="M68.752 83.9661L68.6523 83.9668L68.6607 85.1327L68.7603 85.132L68.752 83.9661Z" fill="white"/>
<path d="M66.7871 85.5518H66.5625V85.5766C66.5625 85.7258 66.6124 85.8501 66.6873 85.9495C66.7122 85.9246 66.7621 85.8749 66.7871 85.8501V85.5518Z" fill="white"/>
<path d="M66.7871 85.8501C66.8869 85.7258 66.9867 85.6263 67.0865 85.5518H66.7871V85.8501Z" fill="white"/>
<path d="M32.2262 85.9979L31.9772 85.8739C31.4543 85.5762 30.9065 85.2538 30.4086 84.9561C30.1596 84.8072 29.9355 84.6584 29.6865 84.5096C29.064 84.1127 28.4664 83.691 27.8688 83.2693C27.7443 83.1948 27.6198 83.0956 27.5202 83.0212C27.3957 82.922 27.2712 82.8475 27.1716 82.7483C26.8231 82.4755 26.4745 82.2026 26.1259 81.9297C26.0263 81.8305 25.9018 81.7561 25.8022 81.6568L25.7773 81.632C25.6777 81.5328 25.5532 81.4584 25.4536 81.3592C23.7853 79.9452 22.2416 78.3824 20.897 76.6708C20.7974 76.5468 20.7227 76.4475 20.6231 76.3235C20.1749 75.7281 19.7268 75.108 19.3284 74.463C19.2537 74.339 19.1541 74.215 19.0794 74.0661C19.0047 73.9421 18.93 73.8181 18.8304 73.6692C18.7557 73.5452 18.681 73.3964 18.6063 73.2723C18.432 72.9746 18.2826 72.677 18.1083 72.3793C18.0585 72.2801 18.0087 72.156 17.934 72.0568C17.8593 71.908 17.7846 71.7839 17.7348 71.6351C17.6601 71.4863 17.5854 71.3622 17.5356 71.2134C17.4609 71.0646 17.4111 70.9405 17.3364 70.7917C17.2119 70.5188 17.1123 70.2708 16.9878 69.9979C16.9131 69.8243 16.8384 69.6506 16.7886 69.477C16.7637 69.3777 16.7139 69.3033 16.689 69.2041C16.6392 69.1049 16.6143 68.9808 16.5645 68.8816C16.5147 68.7576 16.4649 68.6087 16.4152 68.4599C16.2658 67.9886 16.1164 67.5173 15.9919 67.0459C15.9421 66.9219 15.9172 66.7731 15.8923 66.649C15.8425 66.4754 15.8176 66.3266 15.7678 66.1529C15.7429 66.0041 15.6931 65.88 15.6682 65.7312C15.6433 65.6072 15.6184 65.4583 15.5935 65.3343C15.5686 65.1607 15.5188 65.0118 15.4939 64.8382C15.469 64.6645 15.4192 64.5157 15.3943 64.3421C14.971 61.8862 14.8216 59.232 15.0208 56.3544C15.0955 55.2382 15.1951 54.1467 15.3196 53.08C15.3694 52.7079 15.4192 52.3358 15.4441 51.9637C15.4939 51.542 15.5437 51.1203 15.6184 50.7234C15.6682 50.4753 15.6931 50.2025 15.7429 49.9544C16.0168 48.2924 16.3156 46.68 16.689 45.1172C16.4152 46.4567 16.0915 48.3916 15.8674 50.6986C15.7429 52.0133 15.6433 53.4521 15.6184 54.9901C15.5437 59.4304 16.0168 64.5157 17.8593 69.1545C21.4448 78.184 31.8029 86.0972 38.8494 86.891C38.7747 86.891 34.8655 87.015 32.2262 85.9979Z" fill="#B6724D"/>
<path d="M120.718 52.7347C120.818 53.4541 120.892 54.1983 120.967 54.9425C120.992 55.1657 121.017 55.3642 121.017 55.5874C121.042 55.7859 121.042 55.9595 121.067 56.158C121.067 56.1828 121.067 56.2076 121.067 56.2324C121.067 56.2324 121.067 56.2572 121.067 56.282C121.067 56.4804 121.092 56.6789 121.092 56.8773C121.092 56.927 121.092 57.0014 121.092 57.0758C121.092 57.2742 121.117 57.4727 121.117 57.6463C121.117 57.696 121.117 57.7456 121.117 57.7952C121.117 58.0184 121.117 58.2417 121.117 58.4649C121.117 58.6882 121.117 58.9363 121.117 59.1595C121.117 59.1843 121.117 59.1843 121.117 59.2091C121.117 59.4324 121.092 59.6805 121.092 59.9037C121.092 60.1022 121.067 60.3006 121.067 60.4743C121.067 60.5735 121.067 60.6479 121.042 60.7223C121.017 60.896 121.017 61.0696 120.992 61.2681C120.992 61.2929 120.992 61.2929 120.992 61.3177C120.967 61.5409 120.942 61.7642 120.917 61.9874C120.892 62.1859 120.868 62.4091 120.843 62.6076C120.843 62.6572 120.843 62.682 120.818 62.7316C120.793 62.9301 120.768 63.1285 120.718 63.327C120.693 63.5254 120.643 63.7239 120.619 63.8975C120.594 63.9719 120.594 64.0464 120.569 64.1208C120.544 64.2944 120.494 64.4433 120.469 64.6169C120.469 64.6417 120.469 64.6417 120.469 64.6665C120.419 64.865 120.37 65.0882 120.32 65.2867C120.27 65.5099 120.22 65.7084 120.17 65.9068C120.121 66.1053 120.071 66.3285 119.996 66.527C119.946 66.7254 119.872 66.9239 119.822 67.1223C119.822 67.1472 119.822 67.1471 119.797 67.172C119.747 67.3456 119.697 67.5192 119.623 67.6929C119.598 67.7425 119.598 67.7921 119.573 67.8417C119.523 67.9906 119.473 68.1642 119.399 68.313C119.324 68.5115 119.249 68.7099 119.174 68.9084C119 69.3301 118.826 69.7518 118.652 70.1735C118.577 70.3224 118.527 70.4712 118.452 70.62C117.755 72.1084 116.933 73.4976 116.012 74.8123C115.938 74.9115 115.888 75.0107 115.813 75.0852C115.738 75.1844 115.689 75.2836 115.614 75.358C115.489 75.5317 115.365 75.6805 115.24 75.8542C114.892 76.3007 114.518 76.7472 114.145 77.1937C114.07 77.2929 113.995 77.3673 113.896 77.4666C113.771 77.5906 113.672 77.7146 113.547 77.8387C113.472 77.9379 113.373 78.0123 113.298 78.1115C113.099 78.3348 112.9 78.5332 112.676 78.7565C112.576 78.8557 112.477 78.9549 112.402 79.0294C112.402 79.0542 112.377 79.0542 112.352 79.079C112.228 79.203 112.078 79.3518 111.954 79.4759C111.929 79.5007 111.929 79.5007 111.904 79.5255C111.754 79.6495 111.63 79.7984 111.481 79.9224C111.306 80.0712 111.157 80.2201 110.983 80.3689C110.858 80.4681 110.734 80.5922 110.609 80.6914C109.937 81.2619 109.264 81.8077 108.542 82.3286C108.393 82.4278 108.269 82.5271 108.119 82.6511C107.97 82.7503 107.82 82.8743 107.671 82.9736C107.596 83.0232 107.522 83.0728 107.447 83.1224C107.297 83.2216 107.148 83.3457 106.999 83.4449C106.476 83.7922 105.953 84.1395 105.43 84.4619L103.961 84.0154C115.464 77.3673 119.598 67.7921 120.245 58.9611C120.643 53.6525 119.897 48.22 119.249 44.7471C119.872 47.2773 120.37 49.9316 120.718 52.7347Z" fill="#B6724D"/>
<path d="M57.1754 37.8997C53.814 38.4207 51.2245 39.3633 49.2823 40.2811C48.6847 40.5788 48.1619 40.8517 47.6888 41.1246C47.2904 40.7525 46.9418 40.306 46.6679 39.8098C46.394 39.3137 46.2197 38.768 46.1201 38.1726C46.0703 37.8005 46.0454 37.4036 46.0703 37.0315C46.1948 35.3695 47.0912 33.9059 48.4606 33.0377C49.0582 32.6656 49.7305 32.4176 50.4526 32.2935L51.2245 32.1695C53.6646 31.7974 55.9802 33.1866 56.8268 35.3943C56.9762 35.7416 57.0758 36.1137 57.1256 36.5106C57.2252 36.9819 57.2252 37.4532 57.1754 37.8997Z" fill="#333132"/>
<path d="M56.8771 35.3943C55.5823 37.3292 53.3165 38.5943 50.727 38.5943C48.984 38.5943 47.3656 37.999 46.0957 37.0315C46.2202 35.3695 47.1166 33.9059 48.486 33.0377C49.0836 32.6656 49.7559 32.4176 50.478 32.2935L51.2499 32.1695C53.69 31.7974 56.0056 33.1866 56.8771 35.3943Z" fill="#272425"/>
<path d="M51.8395 35.9731C52.832 35.8224 53.5172 34.9207 53.3701 33.959C53.2229 32.9974 52.2991 32.3401 51.3067 32.4908C50.3143 32.6415 49.629 33.5432 49.7762 34.5048C49.9233 35.4665 50.8471 36.1238 51.8395 35.9731Z" fill="white"/>
<path d="M45.1237 43.4302C45.0241 43.4551 44.8996 43.4054 44.8249 43.331C44.6755 43.1822 44.6755 42.9589 44.8249 42.8101C44.9992 42.6364 48.9582 38.6922 57.7726 37.4519C57.9717 37.4271 58.1709 37.576 58.1958 37.7744C58.2207 37.9729 58.0714 38.1713 57.8722 38.1961C53.4152 38.8163 50.253 40.1806 48.3606 41.2225C46.3438 42.3388 45.3478 43.331 45.3478 43.331C45.2731 43.3806 45.1984 43.4054 45.1237 43.4302Z" fill="#43281F"/>
<path d="M78.812 37.8997C82.1734 38.4207 84.7629 39.3633 86.7051 40.2811C87.3027 40.5788 87.8256 40.8517 88.2987 41.1246C88.697 40.7525 89.0456 40.306 89.3195 39.8098C89.5934 39.3137 89.7677 38.768 89.8673 38.1726C89.9171 37.8005 89.942 37.4036 89.9171 37.0315C89.7926 35.3695 88.8962 33.9059 87.5268 33.0377C86.9292 32.6656 86.2569 32.4176 85.5348 32.2935L84.763 32.1695C82.3228 31.7974 80.0072 33.1866 79.1606 35.3943C79.0112 35.7416 78.9116 36.1137 78.8618 36.5106C78.7622 36.9819 78.7622 37.4532 78.812 37.8997Z" fill="#333132"/>
<path d="M79.1348 35.3943C80.4295 37.3292 82.6954 38.5943 85.2849 38.5943C87.0278 38.5943 88.6463 37.999 89.9162 37.0315C89.7917 35.3695 88.8953 33.9059 87.5258 33.0377C86.9282 32.6656 86.256 32.4176 85.5339 32.2935L84.762 32.1695C82.297 31.7974 79.9813 33.1866 79.1348 35.3943Z" fill="#272425"/>
<path d="M86.206 34.5136C86.3531 33.552 85.6679 32.6503 84.6755 32.4996C83.6831 32.3488 82.7593 33.0062 82.6121 33.9678C82.465 34.9294 83.1502 35.8312 84.1426 35.9819C85.1351 36.1326 86.0589 35.4752 86.206 34.5136Z" fill="white"/>
<path d="M90.862 43.4302C90.9616 43.4551 91.0861 43.4054 91.1608 43.331C91.3102 43.1822 91.3102 42.9589 91.1608 42.8101C90.9865 42.6364 87.0275 38.6922 78.2131 37.4519C78.0139 37.4271 77.8147 37.576 77.7898 37.7744C77.7649 37.9729 77.9143 38.1713 78.1135 38.1961C82.5705 38.8163 85.7327 40.1806 87.6251 41.2225C89.6419 42.3388 90.6379 43.331 90.6379 43.331C90.7126 43.3806 90.7873 43.4054 90.862 43.4302Z" fill="#43281F"/>
<path d="M74.9768 55.0898C74.9768 55.0898 74.2547 56.5534 73.7069 59.1333C73.5326 59.9022 73.2587 60.7953 72.8354 61.6387C71.8893 63.5736 70.2459 65.3596 67.9054 65.31C65.54 65.3596 63.9215 63.5736 62.9753 61.6387C62.552 60.7953 62.2781 59.9022 62.1039 59.1333C61.5561 56.5782 60.834 55.0898 60.834 55.0898H60.9585C62.9753 56.2805 65.3657 56.9503 67.9552 56.9255C70.4202 56.9007 72.7359 56.2309 74.6531 55.0898H74.9768Z" fill="#43281F"/>
<path d="M72.8367 61.6391C71.8905 63.574 70.2472 65.3601 67.9066 65.3105C65.5412 65.3601 63.9227 63.574 62.9766 61.6391C63.3501 61.4407 63.7484 61.267 64.1966 61.1182C65.2922 60.7213 66.5621 60.498 67.9315 60.498C69.2512 60.498 70.4962 60.6965 71.5668 61.0686C72.015 61.2422 72.4383 61.4407 72.8367 61.6391Z" fill="#C45D69"/>
<path d="M71.5426 61.0934C70.6213 62.1601 69.3763 62.9043 67.8575 62.8546C66.3386 62.8795 65.1185 62.1601 64.1973 61.1182C65.2928 60.7213 66.5627 60.498 67.9322 60.498C69.2269 60.498 70.4719 60.7213 71.5426 61.0934Z" fill="#D67679"/>
<path d="M134.523 84.2568H21.2852V101.999H134.523V84.2568Z" fill="white"/>
<path d="M138.643 87.8599C138.494 88.48 138.295 89.1002 138.046 89.6955C136.178 94.0863 131.373 97.1622 122.26 97.5591C109.661 98.1049 103.934 92.7219 103.187 86.6692C103.162 86.4955 103.137 86.2971 103.137 86.1234C103.112 85.9002 103.112 85.7017 103.112 85.4785C103.037 80.9389 104.506 77.7885 107.345 75.6552C107.37 75.6304 107.42 75.6056 107.445 75.5808C110.258 73.497 114.416 72.3807 119.745 71.8846C127.713 71.1156 134.933 73.7699 137.747 79.0536C137.822 79.2025 137.896 79.3265 137.946 79.4753C138.444 80.5172 138.768 81.6583 138.892 82.8738C139.067 84.6102 138.992 86.2971 138.643 87.8599Z" fill="#B6724D"/>
<path d="M138.048 89.6685C136.18 94.0592 131.375 97.1352 122.262 97.5321C109.663 98.0778 103.936 92.6948 103.189 86.6421C103.139 86.2452 103.114 85.8483 103.114 85.4514C103.039 80.9119 104.508 77.7615 107.347 75.6281C107.372 75.6033 107.422 75.5785 107.447 75.5537C106.724 79.0266 106.525 87.3863 121.191 87.3863C133.367 87.3863 137.4 83.194 137.724 79.0266C137.799 79.1754 137.873 79.2995 137.923 79.4483C138.421 80.4902 138.745 81.6312 138.869 82.8468C139.143 85.3026 138.919 87.6344 138.048 89.6685Z" fill="#AD6946"/>
<path d="M138.048 89.6693C136.18 94.06 131.375 97.136 122.262 97.5329C109.663 98.0786 103.936 92.6956 103.189 86.6429C103.139 86.246 103.114 85.8491 103.114 85.4522C103.039 80.9126 104.508 77.7622 107.347 75.6289C106.052 80.1188 103.911 92.646 120.369 92.9437C135.807 93.2414 138.247 85.1793 137.948 79.4243C138.446 80.4661 138.77 81.6072 138.894 82.8227C139.143 85.3034 138.919 87.6351 138.048 89.6693Z" fill="#945339"/>
<path d="M138.046 89.6698C138.594 86.8171 138.793 80.938 135.929 78.1845C129.505 71.9582 114.69 72.5039 108.117 76.721C103.311 79.8217 103.187 86.6683 103.187 86.6683C103.137 86.2714 103.112 85.8745 103.112 85.4776C102.963 76.4233 108.939 72.9008 119.745 71.8589C129.456 70.9411 138.071 75.0589 138.917 82.8481C139.141 85.3039 138.917 87.6357 138.046 89.6698Z" fill="#D59A77"/>
<path d="M138.647 87.8587C138.498 88.4789 138.298 89.099 138.049 89.6944C136.182 94.0851 131.376 97.1611 122.263 97.558C109.664 98.1037 103.937 92.7207 103.19 86.668C103.166 86.4944 103.141 86.2959 103.141 86.1223L103.19 86.0479C103.19 86.0479 104.012 97.2107 121.691 96.9378C132.771 96.7642 137.029 91.6293 138.647 87.8587Z" fill="#AD6946"/>
<path d="M0.35327 87.8579C0.502666 88.4781 0.70186 89.0982 0.950853 89.6936C2.8183 94.0843 7.62387 97.1603 16.737 97.5572C29.3361 98.1029 35.0629 92.7199 35.8099 86.6672C35.8348 86.4936 35.8597 86.2951 35.8597 86.1215C35.8846 85.8982 35.8846 85.6998 35.8846 85.4765C35.9593 80.937 34.4902 77.7866 31.6517 75.6532C31.6268 75.6284 31.577 75.6036 31.5521 75.5788C28.7385 73.4951 24.5803 72.3788 19.2518 71.8827C11.2841 71.1137 4.06327 73.7679 1.24964 79.0517C1.17495 79.2005 1.10025 79.3245 1.05045 79.4734C0.552464 80.5153 0.228773 81.6563 0.104277 82.8719C-0.0700184 84.6083 -0.0202198 86.2951 0.35327 87.8579Z" fill="#B6724D"/>
<path d="M0.951259 89.6714C2.81871 94.0621 7.62427 97.1381 16.7374 97.535C29.3365 98.0807 35.0633 92.6978 35.8103 86.645C35.8601 86.2481 35.885 85.8512 35.885 85.4543C35.9597 80.9148 34.4906 77.7644 31.6521 75.6311C31.6272 75.6063 31.5774 75.5814 31.5525 75.5566C32.2746 79.0295 32.4738 87.3892 17.8081 87.3892C5.63233 87.3892 1.59864 83.197 1.27495 79.0295C1.20025 79.1784 1.12555 79.3024 1.07576 79.4512C0.57777 80.4931 0.254079 81.6342 0.129583 82.8497C-0.14431 85.3055 0.0797838 87.6373 0.951259 89.6714Z" fill="#AD6946"/>
<path d="M0.94971 89.6702C2.81716 94.061 7.62273 97.1369 16.7359 97.5338C29.3349 98.0796 35.0618 92.6966 35.8088 86.6439C35.8586 86.247 35.8835 85.8501 35.8835 85.4532C35.9582 80.9136 34.4891 77.7632 31.6506 75.6299C32.9453 80.1198 35.0867 92.647 18.6282 92.9447C3.19065 93.2423 0.750516 85.1803 1.04931 79.4252C0.551321 80.4671 0.22763 81.6082 0.103134 82.8237C-0.145859 85.3043 0.0782339 87.6361 0.94971 89.6702Z" fill="#945339"/>
<path d="M0.952632 89.6708C0.404848 86.8181 0.205653 80.939 3.06907 78.1855C9.49309 71.9591 24.3082 72.5049 30.8816 76.7219C35.6872 79.8227 35.8117 86.6693 35.8117 86.6693C35.8615 86.2724 35.8864 85.8755 35.8864 85.4786C36.0358 76.4243 30.0599 72.9018 19.2536 71.8599C9.54289 70.9421 0.927733 75.0599 0.0811566 82.8491C-0.142937 85.3049 0.0811565 87.6367 0.952632 89.6708Z" fill="#D59A77"/>
<path d="M0.355469 87.8597C0.504865 88.4798 0.704058 89.1 0.953052 89.6954C2.8205 94.0861 7.62607 97.162 16.7392 97.5589C29.3383 98.1047 35.0651 92.7217 35.8121 86.669C35.837 86.4953 35.8619 86.2969 35.8619 86.1233L35.8121 86.0488C35.8121 86.0488 34.9904 97.2116 17.3119 96.9388C6.23171 96.7651 1.97392 91.6302 0.355469 87.8597Z" fill="#AD6946"/>
</svg>
