<svg width="164" height="108" viewBox="0 0 164 108" fill="none" xmlns="http://www.w3.org/2000/svg">
<g clip-path="url(#clip0_2132_3254)">
<path d="M34.5341 17.4404C26.9481 25.0509 32.5713 32.9521 35.3298 35.991C36.099 36.8366 36.6295 37.2858 36.6295 37.2858L45.4091 28.4598L47.6106 26.0815L54.0029 19.2109C54.0295 19.1845 43.738 8.29731 34.5341 17.4404ZM26.0463 9.4336C26.0463 9.4336 26.0463 9.46002 26.0463 9.4336C25.9137 9.56572 25.7811 9.69785 25.6484 9.82998C24.9058 10.6227 24.2161 11.4155 23.6061 12.2083C11.2988 28.0898 25.224 42.4387 29.3884 46.1647C30.078 46.7725 30.5024 47.0896 30.5024 47.0896L47.5575 30.9966L47.5841 31.023L47.8758 30.6795L48.2472 30.336L48.2206 30.3095L58.1142 19.026L63.4987 12.8425L63.6578 12.6575C63.6578 12.6575 44.746 -9.53973 26.0463 9.4336Z" fill="#B6724D"/>
<path d="M45.8062 28.0637L45.4349 28.46L45.1696 28.7243L36.6288 37.2861C36.6288 37.2861 34.4803 35.4363 32.7562 32.556C30.5282 28.83 29.0693 23.36 34.0029 17.9428C34.2681 17.6521 34.5333 17.3879 34.7721 17.15C34.9577 16.9915 35.1169 16.8329 35.3026 16.6744C42.6498 10.3588 50.448 16.0402 53.0473 18.3392C53.6309 18.8413 53.9492 19.1848 53.9492 19.1848L45.8062 28.0637Z" fill="#DCBD8A"/>
<path d="M48.2465 30.3357L48.2731 30.3622L47.9017 30.7057L47.6099 31.0492L47.5834 31.0228L30.5283 47.1158C30.5283 47.1158 11.139 32.1062 21.9344 14.6391C22.4383 13.8199 22.9953 13.0272 23.6319 12.208C22.3322 18.5765 20.2633 28.8031 30.5548 38.369C30.5548 38.369 32.4115 34.9866 33.4725 33.4275C35.1435 31.0228 37.0267 28.8559 39.0426 26.8476C41.7481 24.1522 44.7188 21.8004 47.6365 19.6071C51.0316 17.0703 54.6389 21.0076 58.0871 18.9993L48.2465 30.3357Z" fill="#945339"/>
<path d="M39.0705 26.874C33.9513 34.1938 30.4236 42.3592 30.4236 42.3592C19.1507 31.974 19.5751 21.5625 21.9358 14.6655C22.4397 13.8463 22.9968 13.0536 23.6333 12.2344C22.3337 18.6029 20.2648 28.8294 30.5562 38.3954C30.5562 38.3954 32.4129 35.0129 33.4739 33.4538C35.1449 31.0492 37.0281 28.8559 39.0705 26.874Z" fill="#AD6946"/>
<path d="M47.1606 18.7349C38.2484 23.4651 34.4024 29.1201 32.8109 32.5553C30.5829 28.8294 29.124 23.3594 34.0575 17.9422C34.3228 17.6515 34.588 17.3872 34.8268 17.1494C35.0124 16.9909 35.1716 16.8323 35.3572 16.6738C41.4313 14.7976 47.1606 18.7349 47.1606 18.7349Z" fill="#ECD09C"/>
<path d="M63.6586 12.6582L63.4995 12.8431L61.9611 13.1867C61.9611 13.1867 57.5846 8.16587 51.4044 5.44407C45.2507 2.74869 36.6834 2.9601 30.6358 7.39954C24.5883 11.839 18.4346 21.4313 20.5301 29.9139C22.4663 37.6829 28.4608 45.0291 29.4157 46.1918C25.2514 42.4659 11.3261 28.1169 23.6334 12.2354C24.2435 11.4426 24.9331 10.6498 25.6758 9.85709C25.8084 9.72496 25.9145 9.59284 26.0471 9.48713C26.0471 9.48713 26.0471 9.48713 26.0736 9.46071C44.7468 -9.53905 63.6586 12.6582 63.6586 12.6582Z" fill="#D59A77"/>
<path d="M53.128 18.3395L51.9874 19.5022C44.2688 13.5037 38.46 14.8249 34.8262 17.1768C42.3326 10.0684 50.449 15.9876 53.128 18.3395Z" fill="#C59F6D"/>
<path d="M111.879 17.7577L118.457 24.4697L120.712 26.7687L129.757 35.3569C129.757 35.3569 130.287 34.8812 131.03 34.0092C133.709 30.891 139.12 22.8577 131.322 15.4587C121.879 6.5798 111.879 17.7577 111.879 17.7577ZM102.092 11.4949L102.251 11.6799L107.821 17.7048L117.98 28.7242L117.953 28.7506L118.325 29.0941L118.616 29.4112L118.643 29.3848L136.149 45.0021C136.149 45.0021 136.547 44.6586 137.237 44.0244C141.295 40.1927 154.822 25.4474 142.064 9.90938C141.427 9.14304 140.738 8.35029 139.969 7.58395C139.836 7.45183 139.703 7.34613 139.597 7.214C139.597 7.214 139.597 7.214 139.571 7.18758C120.367 -11.2308 102.092 11.4949 102.092 11.4949Z" fill="#B6724D"/>
<path d="M120.366 26.3725L120.738 26.7689L121.003 27.0331L129.756 35.3571C129.756 35.3571 131.851 33.4545 133.496 30.5213C135.618 26.716 136.944 21.2196 131.825 15.961C131.56 15.6967 131.294 15.4324 131.029 15.1946C130.843 15.0361 130.658 14.8775 130.499 14.7454C122.992 8.61473 115.353 14.534 112.807 16.9123C112.25 17.4408 111.932 17.7843 111.932 17.7843L120.366 26.3725Z" fill="#DCBD8A"/>
<path d="M117.979 28.7239L117.953 28.7503L118.324 29.0939L118.616 29.411L118.642 29.3845L136.148 45.0019C136.148 45.0019 155.113 29.4638 143.814 12.3138C143.283 11.5211 142.7 10.7283 142.063 9.93555C143.549 16.2776 145.883 26.4249 135.883 36.2815C135.883 36.2815 133.947 32.9519 132.833 31.4457C131.109 29.0939 129.146 26.9534 127.077 25.0244C124.292 22.4083 121.268 20.1357 118.271 18.0481C114.823 15.617 111.322 19.66 107.82 17.731L117.979 28.7239Z" fill="#945339"/>
<path d="M127.078 24.9979C132.41 32.1856 136.149 40.2453 136.149 40.2453C147.131 29.5431 146.414 19.158 143.842 12.3138C143.311 11.5211 142.728 10.7283 142.091 9.93555C143.576 16.2776 145.91 26.4249 135.911 36.2815C135.911 36.2815 133.974 32.9519 132.86 31.4457C131.11 29.0674 129.147 26.9534 127.078 24.9979Z" fill="#AD6946"/>
<path d="M118.75 17.0969C127.795 21.5628 131.8 27.1121 133.498 30.4945C135.62 26.6893 136.946 21.1928 131.827 15.9342C131.561 15.6699 131.296 15.4057 131.031 15.1679C130.845 15.0093 130.659 14.8508 130.5 14.7186C124.373 13.001 118.75 17.0969 118.75 17.0969Z" fill="#ECD09C"/>
<path d="M102.092 11.4961L102.251 11.6811L103.816 11.9718C103.816 11.9718 108.06 6.81885 114.134 3.9385C120.234 1.05814 128.802 1.05814 134.955 5.31261C141.109 9.56707 147.554 19.0009 145.698 27.5362C143.974 35.3581 138.191 42.8629 137.263 44.052C141.321 40.2204 154.849 25.4751 142.09 9.93703C141.454 9.1707 140.764 8.37794 139.995 7.61161C139.862 7.47948 139.73 7.37378 139.624 7.24165C139.624 7.24165 139.624 7.24165 139.597 7.21523C120.367 -11.2296 102.092 11.4961 102.092 11.4961Z" fill="#D59A77"/>
<path d="M112.781 16.8595L113.948 17.9694C121.481 11.7594 127.343 12.9486 131.03 15.1683C123.338 8.29774 115.381 14.4548 112.781 16.8595Z" fill="#C59F6D"/>
<path d="M140.234 61.6234C140.234 61.8613 140.234 62.1255 140.234 62.3633V62.4162C140.234 62.654 140.207 62.9183 140.207 63.1561C140.207 63.3675 140.181 63.5525 140.181 63.7639C140.181 63.8696 140.181 63.9489 140.154 64.0281C140.128 64.2131 140.128 64.3981 140.101 64.6095C140.101 64.6359 140.101 64.6359 140.101 64.6623C140.075 64.9002 140.048 65.138 140.021 65.3758C139.995 65.5872 139.968 65.825 139.942 66.0364C139.942 66.0893 139.915 66.1157 139.915 66.1686C139.889 66.38 139.862 66.5914 139.809 66.8028C139.783 67.0142 139.73 67.2256 139.703 67.4106C139.677 67.4898 139.677 67.5691 139.65 67.6484C139.624 67.8334 139.597 67.9919 139.544 68.1769C139.544 68.2033 139.544 68.2033 139.544 68.2297C139.491 68.4411 139.438 68.679 139.411 68.8904C139.358 69.1018 139.305 69.3396 139.252 69.551C139.199 69.7624 139.146 70.0002 139.067 70.2116C139.014 70.423 138.934 70.6344 138.881 70.8458C138.881 70.8723 138.881 70.8987 138.854 70.8987C138.801 71.0837 138.748 71.2686 138.669 71.4536C138.642 71.5065 138.642 71.5593 138.616 71.6122C138.563 71.7707 138.51 71.9557 138.43 72.1143C138.35 72.3257 138.271 72.5371 138.191 72.7485C138.006 73.1977 137.82 73.6469 137.634 74.0961C137.555 74.2547 137.502 74.4133 137.422 74.5718C136.679 76.1573 135.804 77.6371 134.823 79.0377C134.743 79.1434 134.69 79.2491 134.61 79.3284C134.531 79.4341 134.478 79.5397 134.398 79.619C134.266 79.804 134.133 79.9626 134 80.1475C133.629 80.6232 133.231 81.0988 132.833 81.5745C132.754 81.6802 132.674 81.7595 132.568 81.8652C132.436 81.9973 132.329 82.1294 132.197 82.2616C132.117 82.3672 132.011 82.473 131.932 82.5522C131.719 82.7901 131.507 83.0279 131.268 83.2393C131.162 83.345 131.056 83.4507 130.977 83.53C130.977 83.5564 130.95 83.5564 130.924 83.5828C130.791 83.7149 130.632 83.8735 130.499 84.0056C130.473 84.032 130.473 84.032 130.446 84.0585C130.287 84.1906 130.154 84.3492 129.995 84.4813C129.81 84.6398 129.65 84.7984 129.465 84.9834C129.332 85.0891 129.2 85.2212 129.067 85.3269C128.351 85.9347 127.635 86.516 126.892 87.0709C126.733 87.1767 126.6 87.2823 126.441 87.4145C126.282 87.5202 126.123 87.6523 125.964 87.758C125.884 87.8109 125.804 87.8637 125.725 87.943C125.566 88.0487 125.407 88.1544 125.247 88.2865C124.69 88.6565 124.133 89.0264 123.576 89.3699C123.55 89.3964 123.523 89.3964 123.497 89.4228C123.338 89.5285 123.179 89.6078 123.046 89.7135C122.86 89.8192 122.675 89.9513 122.489 90.057C122.33 90.1363 122.171 90.242 122.038 90.3213C121.879 90.4005 121.746 90.5062 121.587 90.5855C121.507 90.6384 121.454 90.6648 121.375 90.7176C121.189 90.8233 121.004 90.929 120.791 91.0347C119.836 91.5632 118.882 92.0389 117.9 92.5145L119.12 95.3949H40.3695C40.6878 95.0514 40.9796 94.7078 41.2979 94.3907C41.6162 94.0472 41.9345 93.7301 42.2262 93.4394C42.3854 93.2809 42.5445 93.1488 42.7037 92.9902C43.1811 92.5674 43.6055 92.171 44.0299 91.8539C44.136 91.7482 44.2686 91.6689 44.3747 91.5897C44.4278 91.5368 44.4808 91.5104 44.5339 91.4575C44.7195 91.299 44.9052 91.1669 45.0643 91.0612C45.1174 91.0083 45.197 90.9819 45.25 90.929C44.693 90.6119 44.136 90.2684 43.579 89.9249C43.3137 89.7663 43.075 89.6078 42.8098 89.4492C42.1467 89.0264 41.5101 88.5772 40.8735 88.128C40.7409 88.0487 40.6083 87.943 40.5022 87.8637C40.3695 87.758 40.2634 87.6787 40.1308 87.573C39.7595 87.2823 39.3881 86.9917 39.0168 86.701C38.9107 86.5953 38.7781 86.516 38.672 86.4103C38.672 86.4103 38.6455 86.4103 38.6455 86.3839C38.5394 86.2782 38.4067 86.1989 38.3006 86.0932C36.5235 84.587 34.879 82.9222 33.4467 81.0988C33.3406 80.9667 33.261 80.8346 33.1549 80.7289C32.6775 80.0947 32.2001 79.4341 31.7757 78.747C31.6961 78.6149 31.59 78.4827 31.5104 78.3506C31.4308 78.2185 31.3513 78.0599 31.2452 77.9278C31.1656 77.7957 31.086 77.6636 31.0065 77.505C30.8208 77.1879 30.6616 76.8708 30.476 76.5537C30.4229 76.448 30.3699 76.3159 30.2903 76.2102C30.2107 76.0516 30.1312 75.9195 30.0781 75.7609C29.9985 75.6024 29.919 75.4703 29.8659 75.3117C29.7863 75.1532 29.7333 75.021 29.6537 74.8625C29.5211 74.5718 29.415 74.3076 29.2824 74.0169C29.2028 73.8319 29.1232 73.6469 29.0702 73.4619C29.0437 73.3562 28.9906 73.277 28.9641 73.1713C28.911 73.0656 28.8845 72.9334 28.8315 72.8277C28.7784 72.6956 28.7254 72.5371 28.6723 72.3785C28.5132 71.8764 28.354 71.3744 28.1949 70.8723C28.1418 70.7137 28.1153 70.5816 28.0888 70.423C28.0357 70.2381 28.0092 70.0795 27.9562 69.8945C27.9296 69.736 27.8766 69.6039 27.8501 69.4453C27.8235 69.3132 27.797 69.1811 27.744 69.0225C27.7174 68.8375 27.6644 68.679 27.6379 68.494C27.6113 68.309 27.5848 68.1505 27.5318 67.9655C27.0809 65.3494 26.9217 62.5219 27.1339 59.4566C27.2135 58.2674 27.3196 57.1047 27.4522 55.9949C27.5052 55.5985 27.5318 55.2021 27.5848 54.8057C27.6379 54.3565 27.6909 53.9073 27.7705 53.4845C27.797 53.2202 27.8501 52.9295 27.9031 52.6653C28.1949 50.8948 28.5132 49.1771 28.911 47.5123C28.911 47.5123 28.911 47.5123 28.911 47.4859C29.3354 45.6362 29.8659 43.8657 30.4229 42.1744C38.9903 16.5155 61.7216 7.82162 81.217 7.63664C81.774 7.63664 83.8164 7.61022 84.2673 7.58379C105.248 7.13456 130.42 16.4098 138.112 46.4818C138.165 46.6667 138.218 46.8517 138.244 47.0367C138.907 49.7056 139.438 52.5331 139.809 55.5192C139.915 56.2855 139.995 57.0783 140.075 57.871C140.101 58.1089 140.128 58.3467 140.128 58.5581C140.154 58.7695 140.154 58.9545 140.181 59.1659C140.181 59.1923 140.181 59.2187 140.181 59.2452C140.181 59.2452 140.181 59.2716 140.181 59.298C140.207 59.5094 140.207 59.7208 140.207 59.9322C140.207 59.9851 140.207 60.0643 140.207 60.1436C140.207 60.355 140.234 60.54 140.234 60.7514C140.234 60.8042 140.234 60.8571 140.234 60.91C140.234 61.1213 140.234 61.3856 140.234 61.6234Z" fill="#B6724D"/>
<path d="M140.234 61.6232C140.234 61.861 140.234 62.1253 140.234 62.3631V62.4159C140.234 62.6538 140.207 62.918 140.207 63.1559C140.207 63.3673 140.181 63.5522 140.181 63.7636C140.181 63.8693 140.181 63.9486 140.154 64.0279C140.128 64.2129 140.128 64.3978 140.101 64.6092C140.101 64.6357 140.101 64.6357 140.101 64.6621C140.075 64.8999 140.048 65.1377 140.021 65.3756C139.995 65.587 139.968 65.8248 139.942 66.0362C139.942 66.0891 139.915 66.1155 139.915 66.1683C139.889 66.3797 139.862 66.5911 139.809 66.8025C139.783 67.0139 139.73 67.2253 139.703 67.4103C139.677 67.4896 139.677 67.5689 139.65 67.6481C139.624 67.8331 139.597 67.9917 139.544 68.1767C139.544 68.2031 139.544 68.2031 139.544 68.2295C139.491 68.4409 139.438 68.6787 139.411 68.8901C139.358 69.1015 139.305 69.3394 139.252 69.5508C139.199 69.7622 139.146 70 139.067 70.2114C139.014 70.4228 138.934 70.6342 138.881 70.8456C138.881 70.872 138.881 70.8984 138.854 70.8984C138.801 71.0834 138.748 71.2684 138.669 71.4534C138.642 71.5062 138.642 71.5591 138.616 71.6119C138.563 71.7705 138.51 71.9555 138.43 72.114C138.35 72.3254 138.271 72.5368 138.191 72.7482C138.006 73.1974 137.82 73.6467 137.634 74.0959C137.555 74.2545 137.502 74.413 137.422 74.5716C136.679 76.1571 135.804 77.6369 134.823 79.0374C134.743 79.1431 134.69 79.2488 134.61 79.3281C134.531 79.4338 134.478 79.5395 134.398 79.6188C134.266 79.8038 134.133 79.9623 134 80.1473C133.629 80.6229 133.231 81.0986 132.833 81.5742C132.754 81.68 132.674 81.7592 132.568 81.8649C132.436 81.997 132.329 82.1292 132.197 82.2613C132.117 82.367 132.011 82.4727 131.932 82.552C131.719 82.7898 131.507 83.0276 131.268 83.239C131.162 83.3447 131.056 83.4504 130.977 83.5297C130.977 83.5561 130.95 83.5561 130.924 83.5826C130.791 83.7147 130.632 83.8732 130.499 84.0054C130.473 84.0318 130.473 84.0318 130.446 84.0582C130.287 84.1903 130.154 84.3489 129.995 84.481C129.81 84.6396 129.65 84.7981 129.465 84.9831C129.332 85.0888 129.2 85.2209 129.067 85.3266C128.351 85.9344 127.635 86.5158 126.892 87.0707C126.733 87.1764 126.6 87.2821 126.441 87.4142C126.282 87.5199 126.123 87.6521 125.964 87.7578C125.884 87.8106 125.804 87.8634 125.725 87.9427C125.566 88.0484 125.407 88.1541 125.247 88.2863C124.664 88.6826 124.08 89.0526 123.47 89.4225C123.311 89.5282 123.152 89.6075 123.019 89.7132C122.834 89.8189 122.648 89.951 122.462 90.0567C122.303 90.136 122.144 90.2417 122.011 90.321C121.852 90.4003 121.72 90.506 121.561 90.5853C121.481 90.6381 121.428 90.6645 121.348 90.7174C121.163 90.8231 120.977 90.9288 120.765 91.0345C119.81 91.563 118.855 92.0386 117.874 92.5143L119.094 95.3946H59.2814C57.0533 93.5713 55.5945 92.3557 55.5945 92.3557C55.5945 92.3557 48.0086 91.3252 41.2979 94.3905C41.6162 94.047 41.9345 93.7299 42.2262 93.4392C42.3854 93.2806 42.5445 93.1485 42.7037 92.9899C43.1811 92.5671 43.6055 92.1708 44.0299 91.8537C44.136 91.748 44.2686 91.6687 44.3747 91.5894C44.4278 91.5366 44.4808 91.5101 44.5339 91.4573C44.7195 91.2987 44.9052 91.1666 45.0643 91.0609C45.1174 91.0081 45.197 90.9816 45.25 90.9288C44.693 90.6117 44.136 90.2681 43.579 89.9246C43.3137 89.7661 43.075 89.6075 42.8098 89.449C42.1467 89.0262 41.5101 88.5769 40.8735 88.1277C40.7409 88.0484 40.6083 87.9427 40.5022 87.8635C40.3695 87.7578 40.2634 87.6785 40.1308 87.5728C39.7595 87.2821 39.3881 86.9914 39.0168 86.7007C38.9107 86.595 38.7781 86.5158 38.672 86.4101C38.672 86.4101 38.6455 86.4101 38.6455 86.3836C38.5394 86.2779 38.4067 86.1987 38.3006 86.093C36.5235 84.5867 34.879 82.9219 33.4467 81.0986C33.3406 80.9665 33.261 80.8343 33.1549 80.7286C32.6775 80.0944 32.2001 79.4338 31.7757 78.7467C31.6961 78.6146 31.59 78.4825 31.5104 78.3504C31.4308 78.2182 31.3513 78.0597 31.2452 77.9276C31.1656 77.7954 31.086 77.6633 31.0065 77.5048C30.8208 77.1877 30.6616 76.8706 30.476 76.5535C30.4229 76.4478 30.3699 76.3156 30.2903 76.2099C30.2107 76.0514 30.1312 75.9193 30.0781 75.7607C29.9985 75.6021 29.919 75.47 29.8659 75.3115C29.7863 75.1529 29.7333 75.0208 29.6537 74.8622C29.5211 74.5716 29.415 74.3073 29.2824 74.0166C29.2028 73.8317 29.1232 73.6467 29.0702 73.4617C29.0437 73.356 28.9906 73.2767 28.9641 73.171C28.911 73.0653 28.8845 72.9332 28.8315 72.8275C28.7784 72.6954 28.7254 72.5368 28.6723 72.3783C28.5132 71.8762 28.354 71.3741 28.1949 70.872C28.1418 70.7135 28.1153 70.5813 28.0888 70.4228C28.0357 70.2378 28.0092 70.0793 27.9562 69.8943C27.9296 69.7357 27.8766 69.6036 27.8501 69.4451C27.8235 69.3129 27.797 69.1808 27.744 69.0223C27.7174 68.8373 27.6644 68.6787 27.6379 68.4938C27.6113 68.3088 27.5848 68.1502 27.5318 67.9653C27.0809 65.3492 26.9217 62.5217 27.1339 59.4563C27.2135 58.2672 27.3196 57.1045 27.4522 55.9946C27.5052 55.5982 27.5318 55.2019 27.5848 54.8055C27.6379 54.3563 27.6909 53.907 27.7705 53.4842C27.797 53.22 27.8501 52.9293 27.9031 52.665C27.9296 52.9293 27.9827 53.1935 28.0357 53.4842C29.8394 63.975 38.8046 85.9608 82.3576 86.3308C127.926 86.7272 137.714 64.6621 139.783 55.6511C139.889 56.4174 139.968 57.2102 140.048 58.0029C140.075 58.2408 140.101 58.4786 140.101 58.69C140.128 58.9014 140.128 59.0864 140.154 59.2978C140.154 59.3242 140.154 59.3506 140.154 59.377C140.154 59.377 140.154 59.4035 140.154 59.4299C140.181 59.6413 140.181 59.8527 140.181 60.0641C140.181 60.117 140.181 60.1962 140.181 60.2755C140.181 60.4869 140.207 60.6719 140.207 60.8833C140.207 60.9361 140.207 60.989 140.207 61.0418C140.234 61.1211 140.234 61.3854 140.234 61.6232Z" fill="#945339"/>
<path d="M139.809 55.5191C139.915 56.2855 139.995 57.0782 140.074 57.871C140.101 58.1088 140.127 58.3202 140.127 58.558C140.154 58.7694 140.154 58.9544 140.18 59.1658C140.18 59.1922 140.18 59.2187 140.18 59.2451C135.698 76.263 122.144 97.2182 82.7287 95.0249C41.3507 92.7259 30.3166 72.4577 27.7703 57.9238C27.6377 57.2368 27.5581 56.5762 27.4785 55.9155C27.5316 55.5191 27.5846 55.1228 27.6111 54.7264C27.6642 54.2772 27.7172 53.8279 27.7968 53.4051C27.8499 53.1409 27.8764 52.8502 27.9294 52.5859C27.956 52.8502 28.009 53.1144 28.0621 53.4051C29.8657 63.8959 38.8309 85.8817 82.3839 86.2517C127.953 86.5952 137.714 64.5302 139.809 55.5191Z" fill="#AD6946"/>
<path d="M138.113 46.4818C129.811 24.8659 112.331 7.18741 69.0698 12.4989C45.304 15.4057 34.986 34.1676 30.4238 42.0952C38.9912 16.5155 61.7226 7.82162 81.218 7.63664C81.775 7.63664 83.8173 7.61022 84.2682 7.58379C105.249 7.13456 130.394 16.4098 138.113 46.4818Z" fill="#D59A77"/>
<path d="M84.2478 75.2817C96.083 75.1504 105.59 67.2244 105.482 57.5785C105.374 47.9327 95.6924 40.2197 83.8573 40.351C72.0221 40.4824 62.5152 48.4084 62.623 58.0542C62.7309 67.7001 72.4126 75.4131 84.2478 75.2817Z" fill="#AD6946"/>
<path d="M84.1695 81.6504C96.078 81.5182 105.644 73.5916 105.536 63.9457C105.429 54.2999 95.6874 46.5875 83.7789 46.7197C71.8705 46.8518 62.3042 54.7785 62.4121 64.4243C62.52 74.0702 72.2611 81.7825 84.1695 81.6504Z" fill="#945339"/>
<path d="M106.416 60.8846C106.469 66.064 104.162 70.7941 100.209 74.2558C96.2573 77.7175 90.6872 79.9108 84.1888 79.9637C68.7781 80.1222 61.8288 71.719 61.7227 61.3603C61.7227 60.7261 61.7492 60.1183 61.8022 59.5105C62.2001 55.0711 64.1629 51.028 67.1336 48.0155C68.0885 47.0378 69.1495 46.1658 70.3165 45.4259C73.2342 43.5232 76.7089 42.3869 80.4488 42.3341L87.3186 42.2548C91.0321 42.202 94.5333 43.259 97.4775 45.1088C101.721 47.7513 104.878 52.0322 105.992 57.053C106.23 58.295 106.39 59.5634 106.416 60.8846Z" fill="#DCBD8A"/>
<path d="M105.966 57.0529C104.507 66.751 95.1969 74.2822 83.8445 74.4143C73.2878 74.52 64.3491 68.2044 61.8027 59.5369C62.2006 55.0974 64.1634 51.0544 67.1341 48.0419C68.089 47.0642 69.15 46.1921 70.317 45.4522C73.2347 43.5496 76.7094 42.4133 80.4493 42.3605L87.3192 42.2812C91.0326 42.2283 94.5338 43.2853 97.478 45.1351C101.695 47.7512 104.852 52.0321 105.966 57.0529Z" fill="#ECD09C"/>
<path d="M83.6574 60.2499C83.4452 60.2499 83.2596 60.0649 83.2596 59.8535L83.127 50.0233C83.127 49.8119 83.3126 49.627 83.5248 49.627C83.737 49.627 83.9227 49.8119 83.9227 50.0233L84.0553 59.8535C84.0553 60.0649 83.8696 60.2499 83.6574 60.2499Z" fill="#43281F"/>
<path d="M97.4508 45.1081C96.7612 46.8257 95.7533 48.3848 94.4536 49.6532C92.0133 52.0315 88.5386 53.4849 83.9764 53.5378C79.096 53.5906 75.4356 52.0579 72.9688 49.4947C71.8283 48.332 70.953 46.9314 70.3164 45.3988C73.2341 43.4961 77.2658 41.9899 83.499 41.9106C91.085 41.8578 94.5066 43.2583 97.4508 45.1081Z" fill="#5C392B"/>
<path d="M94.4535 49.6538C92.0132 52.0321 88.5385 53.4855 83.9764 53.5383C79.0959 53.5912 75.4355 52.0585 72.9688 49.4953C73.3401 48.8611 73.791 48.2797 74.295 47.7512C75.8069 46.1921 77.9288 45.2144 80.2629 45.188L86.841 45.1087C90.13 45.0823 93.0212 46.932 94.4535 49.6538Z" fill="#43281F"/>
<path d="M76.4966 45.0553C76.7884 44.9231 77.0537 44.8174 77.3189 44.7382C77.5841 44.6325 77.8759 44.5532 78.1412 44.4739C78.6982 44.3154 79.2552 44.1832 79.8387 44.0511C80.9793 43.8133 82.1198 43.6812 83.3134 43.6019C84.4805 43.549 85.6741 43.5755 86.8412 43.734C88.0082 43.8926 89.2018 44.1832 90.3158 44.6853C90.8463 44.9231 91.0851 45.5573 90.8463 46.0859C90.6607 46.4822 90.2893 46.7201 89.8649 46.7201H89.8119C88.7509 46.7201 87.6899 46.6936 86.6555 46.6936C85.5945 46.7201 84.5335 46.7465 83.4726 46.7993L80.2366 46.9843L78.6186 47.0636C78.3534 47.0636 78.0616 47.09 77.7963 47.09C77.5311 47.09 77.2393 47.1164 76.9741 47.1164H76.921C76.3375 47.1164 75.8601 46.6408 75.8866 46.0594C75.8601 45.5838 76.1253 45.2138 76.4966 45.0553Z" fill="white"/>
<path d="M83.42 60.3821C80.0249 60.3821 76.7624 59.2458 74.2161 57.1846C74.0569 57.0525 74.0304 56.7882 74.163 56.6297C74.2957 56.4711 74.5609 56.4447 74.7201 56.5768C77.1072 58.5323 80.1841 59.5893 83.42 59.5893C83.4731 59.5893 83.5261 59.5893 83.5792 59.5893C86.7621 59.5629 89.8124 58.4795 92.1731 56.5504C92.3322 56.4183 92.5975 56.4447 92.7301 56.6033C92.8627 56.7618 92.8362 57.0261 92.677 57.1582C90.1837 59.1929 86.9478 60.3292 83.6057 60.3821C83.5261 60.3821 83.4731 60.3821 83.42 60.3821Z" fill="#43281F"/>
<path d="M60.1823 76.7646C59.4927 77.161 58.9622 77.8217 58.75 78.6673H60.2088L60.1823 76.7646Z" fill="white"/>
<path d="M62.199 76.3422C61.5624 76.2629 60.9524 76.3686 60.4219 76.6328H62.199V76.3422Z" fill="#71495A"/>
<path d="M63.2867 76.6061C63.048 76.5268 62.7828 76.474 62.544 76.3947C62.4379 76.3683 62.3053 76.3419 62.1992 76.3154V76.5797L63.2867 76.6061Z" fill="#D8BFB4"/>
<path d="M62.1975 78.6148L62.171 76.6064H60.3938C60.3143 76.6329 60.2347 76.6857 60.1816 76.7121L60.2082 78.5883L62.1975 78.6148Z" fill="#D8BFB4"/>
<path d="M62.1992 78.6148L64.2151 78.5884V76.8443C63.9233 76.7651 63.605 76.6858 63.3132 76.5801H62.1992V78.6148Z" fill="white"/>
<path d="M66.2307 78.5878V77.4779C65.5941 77.2665 64.9045 77.0551 64.2148 76.8701V78.6142L66.2307 78.5878Z" fill="#D8BFB4"/>
<path d="M68.219 78.5884V78.192C67.5824 77.9542 66.8928 77.7163 66.2031 77.4785V78.5884H68.219Z" fill="white"/>
<path d="M69.2001 78.5877C68.8819 78.4556 68.537 78.3235 68.2188 78.2178V78.6142L69.2001 78.5877Z" fill="#D8BFB4"/>
<path d="M100.34 77.9805C100.022 78.1126 99.7039 78.2183 99.4121 78.3504H100.34V77.9805Z" fill="white"/>
<path d="M102.329 78.35V77.2666C101.64 77.5044 100.976 77.7423 100.34 78.0065V78.3765L102.329 78.35Z" fill="#D8BFB4"/>
<path d="M104.345 78.3241V76.6064C103.655 76.8178 102.992 77.0293 102.355 77.2671V78.3505L104.345 78.3241Z" fill="white"/>
<path d="M106.334 76.0518C106.228 76.0782 106.122 76.0782 106.016 76.1046C105.751 76.1839 105.512 76.2367 105.273 76.316H106.334V76.0518Z" fill="#71495A"/>
<path d="M108.164 76.2891C107.607 76.0249 106.971 75.9192 106.334 76.0249V76.2891H108.164Z" fill="#D8BFB4"/>
<path d="M106.361 78.3237L106.334 76.3154H105.273C104.955 76.3947 104.637 76.5004 104.318 76.6061V78.3237H106.361Z" fill="#D8BFB4"/>
<path d="M106.361 78.3237L108.377 78.2973L108.351 76.3947C108.298 76.3683 108.245 76.3419 108.192 76.3154H106.361V78.3237Z" fill="white"/>
<path d="M109.863 78.2971C109.625 77.4515 109.068 76.7909 108.352 76.3945L108.378 78.2971H109.863Z" fill="#D8BFB4"/>
<path d="M60.2094 78.6406H58.7506C58.7506 78.6671 58.7506 78.6935 58.724 78.6935C58.5914 79.2484 58.4588 79.909 58.3262 80.6225L60.1829 80.5961L60.2094 78.6406Z" fill="#D8BFB4"/>
<path d="M58.2197 81.4951C58.1666 81.8651 58.1136 82.235 58.0605 82.6578H58.2197V81.4951Z" fill="#D8BFB4"/>
<path d="M60.2366 82.6314L60.21 80.623L58.3533 80.6495C58.3003 80.9137 58.2738 81.2044 58.2207 81.4951V82.6578L60.2366 82.6314Z" fill="white"/>
<path d="M62.219 78.6361L60.2031 78.6504L60.2175 80.6587L62.2333 80.6444L62.219 78.6361Z" fill="#71495A"/>
<path d="M64.2346 78.6098L62.2188 78.624L62.2331 80.6323L64.2489 80.6181L64.2346 78.6098Z" fill="#D8BFB4"/>
<path d="M62.219 80.6175L60.2031 80.6318L60.2175 82.6402L62.2333 82.6259L62.219 80.6175Z" fill="#D8BFB4"/>
<path d="M64.2346 80.6175L62.2188 80.6318L62.2331 82.6402L64.2489 82.6259L64.2346 80.6175Z" fill="white"/>
<path d="M66.2248 78.6098L64.209 78.624L64.2233 80.6323L66.2391 80.6181L66.2248 78.6098Z" fill="#71495A"/>
<path d="M68.2404 78.5834L66.2246 78.5977L66.2389 80.606L68.2548 80.5917L68.2404 78.5834Z" fill="#D8BFB4"/>
<path d="M66.2502 80.5911L64.2344 80.6055L64.2488 82.6138L66.2646 82.5995L66.2502 80.5911Z" fill="#D8BFB4"/>
<path d="M68.2405 80.5912L66.2246 80.6055L66.239 82.6138L68.2548 82.5995L68.2405 80.5912Z" fill="white"/>
<path d="M68.2461 80.5698L70.2619 80.5434V78.9843C69.9171 78.8522 69.5723 78.6936 69.2275 78.5615H68.2461V80.5698Z" fill="#71495A"/>
<path d="M72.2502 80.5434V79.9092C71.6136 79.5921 70.9505 79.3014 70.2344 79.0107V80.5698L72.2502 80.5434Z" fill="#D8BFB4"/>
<path d="M70.2561 80.5648L68.2402 80.5791L68.2545 82.5874L70.2704 82.5732L70.2561 80.5648Z" fill="#D8BFB4"/>
<path d="M72.2717 80.5648L70.2559 80.5791L70.2702 82.5874L72.286 82.5732L72.2717 80.5648Z" fill="white"/>
<path d="M73.5232 80.5434C73.1253 80.332 72.6744 80.1206 72.25 79.9092V80.5434H73.5232Z" fill="#71495A"/>
<path d="M72.2773 82.5513L74.2932 82.5249V80.913C74.0545 80.7809 73.8157 80.6487 73.5505 80.5166H72.2773V82.5513Z" fill="#D8BFB4"/>
<path d="M76.2834 82.5259V82.1032C75.6468 81.7068 74.9837 81.3368 74.2676 80.9404V82.5524L76.2834 82.5259Z" fill="white"/>
<path d="M76.9463 82.5253C76.7341 82.3932 76.4954 82.2347 76.2832 82.1025V82.5253H76.9463Z" fill="#D8BFB4"/>
<path d="M92.3288 82.0234C92.1166 82.1556 91.9044 82.2877 91.7188 82.4198H92.3288V82.0234Z" fill="white"/>
<path d="M96.3354 79.751C95.911 79.9624 95.5131 80.1738 95.1152 80.3852H96.3354V79.751Z" fill="#D8BFB4"/>
<path d="M94.3448 82.3931V80.8076C93.6286 81.204 92.9655 81.6004 92.3555 81.9967V82.3931H94.3448Z" fill="#D8BFB4"/>
<path d="M96.3353 82.3931L96.3088 80.3848H95.0887C94.8235 80.5169 94.5582 80.6754 94.293 80.8076V82.3931H96.3353Z" fill="white"/>
<path d="M98.3506 80.3589V78.7998C97.661 79.1169 96.9979 79.434 96.3613 79.7511V80.3589H98.3506Z" fill="#71495A"/>
<path d="M100.34 80.3589L100.314 78.3506H99.3852C99.0138 78.5091 98.669 78.6677 98.3242 78.7998V80.3589H100.34Z" fill="#D8BFB4"/>
<path d="M98.3459 80.3802L96.3301 80.3945L96.3444 82.4028L98.3603 82.3886L98.3459 80.3802Z" fill="#D8BFB4"/>
<path d="M100.362 80.3539L98.3457 80.3682L98.36 82.3765L100.376 82.3622L100.362 80.3539Z" fill="white"/>
<path d="M102.352 78.3451L100.336 78.3594L100.35 80.3677L102.366 80.3534L102.352 78.3451Z" fill="#71495A"/>
<path d="M104.367 78.3187L102.352 78.333L102.366 80.3413L104.382 80.3271L104.367 78.3187Z" fill="#D8BFB4"/>
<path d="M102.352 80.3539L100.336 80.3682L100.35 82.3765L102.366 82.3622L102.352 80.3539Z" fill="#D8BFB4"/>
<path d="M104.367 80.3275L102.352 80.3418L102.366 82.3501L104.382 82.3358L104.367 80.3275Z" fill="white"/>
<path d="M106.358 78.3187L104.342 78.333L104.356 80.3413L106.372 80.327L106.358 78.3187Z" fill="#71495A"/>
<path d="M108.373 78.2923L106.357 78.3066L106.372 80.315L108.388 80.3006L108.373 78.2923Z" fill="#D8BFB4"/>
<path d="M106.383 80.3275L104.367 80.3418L104.382 82.3501L106.397 82.3358L106.383 80.3275Z" fill="#D8BFB4"/>
<path d="M108.373 80.3011L106.357 80.3154L106.372 82.3238L108.388 82.3095L108.373 80.3011Z" fill="white"/>
<path d="M108.378 80.3052L110.288 80.2788C110.155 79.5653 110.023 78.9047 109.864 78.3497C109.864 78.3233 109.864 78.2969 109.837 78.2969H108.352L108.378 80.3052Z" fill="#71495A"/>
<path d="M108.377 82.2877L110.393 82.2612V80.7814C110.366 80.5965 110.34 80.4379 110.313 80.2529L108.403 80.2793L108.377 82.2877Z" fill="#D8BFB4"/>
<path d="M110.605 82.2874C110.525 81.7589 110.472 81.2833 110.393 80.8076V82.2874H110.605Z" fill="white"/>
<path d="M58.2198 82.6572H58.0607C57.9811 83.2914 57.928 83.9521 57.875 84.6655H58.2198V82.6572Z" fill="#71495A"/>
<path d="M60.2307 82.6527L58.2148 82.667L58.2292 84.6753L60.2451 84.661L60.2307 82.6527Z" fill="#D8BFB4"/>
<path d="M58.2467 84.6396H57.9018C57.8488 85.2739 57.8223 85.9345 57.8223 86.648H58.2732L58.2467 84.6396Z" fill="#D8BFB4"/>
<path d="M60.2561 84.6341L58.2402 84.6484L58.2546 86.6568L60.2704 86.6425L60.2561 84.6341Z" fill="white"/>
<path d="M62.2463 82.6263L60.2305 82.6406L60.2448 84.6489L62.2607 84.6346L62.2463 82.6263Z" fill="#71495A"/>
<path d="M64.2619 82.6L62.2461 82.6143L62.2604 84.6226L64.2763 84.6083L64.2619 82.6Z" fill="#D8BFB4"/>
<path d="M62.2463 84.6341L60.2305 84.6484L60.2448 86.6568L62.2607 86.6425L62.2463 84.6341Z" fill="#D8BFB4"/>
<path d="M64.2619 84.6077L62.2461 84.6221L62.2605 86.6304L64.2763 86.6161L64.2619 84.6077Z" fill="white"/>
<path d="M66.2502 82.6L64.2344 82.6143L64.2487 84.6226L66.2646 84.6083L66.2502 82.6Z" fill="#71495A"/>
<path d="M68.2659 82.5736L66.25 82.5879L66.2644 84.5962L68.2802 84.5819L68.2659 82.5736Z" fill="#D8BFB4"/>
<path d="M66.2776 84.6078L64.2617 84.6221L64.276 86.6304L66.2919 86.6161L66.2776 84.6078Z" fill="#D8BFB4"/>
<path d="M68.2658 84.5814L66.25 84.5957L66.2643 86.604L68.2801 86.5898L68.2658 84.5814Z" fill="white"/>
<path d="M70.2834 82.5736L68.2676 82.5879L68.2819 84.5962L70.2977 84.5819L70.2834 82.5736Z" fill="#71495A"/>
<path d="M72.2717 82.5472L70.2559 82.5615L70.2702 84.5698L72.286 84.5555L72.2717 82.5472Z" fill="#D8BFB4"/>
<path d="M70.2834 84.5814L68.2676 84.5957L68.2819 86.604L70.2978 86.5897L70.2834 84.5814Z" fill="#D8BFB4"/>
<path d="M72.2991 84.555L70.2832 84.5693L70.2976 86.5777L72.3134 86.5633L72.2991 84.555Z" fill="white"/>
<path d="M74.2873 82.5473L72.2715 82.5615L72.2858 84.5698L74.3016 84.5556L74.2873 82.5473Z" fill="#71495A"/>
<path d="M76.3049 82.5208L74.2891 82.5352L74.3034 84.5435L76.3193 84.5291L76.3049 82.5208Z" fill="#D8BFB4"/>
<path d="M74.2873 84.5287L72.2715 84.543L72.2858 86.5513L74.3017 86.537L74.2873 84.5287Z" fill="#D8BFB4"/>
<path d="M76.3049 84.5287L74.2891 84.543L74.3034 86.5513L76.3193 86.537L76.3049 84.5287Z" fill="white"/>
<path d="M76.2832 84.5337L78.299 84.5073V83.4239C77.8747 83.1332 77.4237 82.8161 76.9463 82.5254H76.2832V84.5337Z" fill="#71495A"/>
<path d="M79.7577 84.5073C79.3068 84.1637 78.8293 83.7938 78.2988 83.4238V84.5073H79.7577Z" fill="#D8BFB4"/>
<path d="M78.3205 84.5023L76.3047 84.5166L76.319 86.5249L78.3348 86.5107L78.3205 84.5023Z" fill="#D8BFB4"/>
<path d="M78.3242 86.5162L80.3401 86.4898V84.9307C80.1544 84.7985 79.9687 84.64 79.783 84.4814H78.3242V86.5162Z" fill="white"/>
<path d="M82.0651 86.4897C81.6141 86.0669 81.0306 85.5384 80.3145 84.957V86.5161L82.0651 86.4897Z" fill="#D8BFB4"/>
<path d="M88.3253 84.9307C87.6357 85.512 87.0787 86.0405 86.6543 86.4369H88.3518L88.3253 84.9307Z" fill="white"/>
<path d="M90.3402 83.3711C89.8362 83.741 89.3853 84.0846 88.9609 84.4281H90.3667L90.3402 83.3711Z" fill="#71495A"/>
<path d="M92.3577 84.4019L92.3312 82.3936H91.7211C91.2171 82.7107 90.7662 83.0542 90.3418 83.3449V84.4019H92.3577Z" fill="#D8BFB4"/>
<path d="M90.3666 86.437L90.3401 84.4287H88.9343C88.7221 84.5873 88.5099 84.7722 88.3242 84.9308V86.437H90.3666Z" fill="#D8BFB4"/>
<path d="M92.3518 84.4232L90.3359 84.4375L90.3503 86.4458L92.3662 86.4315L92.3518 84.4232Z" fill="white"/>
<path d="M94.3401 82.3881L92.3242 82.4023L92.3386 84.4107L94.3545 84.3964L94.3401 82.3881Z" fill="#71495A"/>
<path d="M96.3576 82.3881L94.3418 82.4023L94.3561 84.4107L96.3719 84.3964L96.3576 82.3881Z" fill="#D8BFB4"/>
<path d="M94.3674 84.3969L92.3516 84.4111L92.3659 86.4195L94.3817 86.4052L94.3674 84.3969Z" fill="#D8BFB4"/>
<path d="M96.383 84.3968L94.3672 84.4111L94.3815 86.4195L96.3974 86.4052L96.383 84.3968Z" fill="white"/>
<path d="M98.3733 82.3617L96.3574 82.376L96.3718 84.3843L98.3876 84.37L98.3733 82.3617Z" fill="#71495A"/>
<path d="M100.362 82.3617L98.3457 82.376L98.36 84.3843L100.376 84.37L100.362 82.3617Z" fill="#D8BFB4"/>
<path d="M98.3733 84.3704L96.3574 84.3848L96.3718 86.3931L98.3876 86.3788L98.3733 84.3704Z" fill="#D8BFB4"/>
<path d="M100.389 84.3441L98.373 84.3584L98.3874 86.3667L100.403 86.3525L100.389 84.3441Z" fill="white"/>
<path d="M102.377 82.3354L100.361 82.3496L100.376 84.3579L102.392 84.3437L102.377 82.3354Z" fill="#71495A"/>
<path d="M104.395 82.3354L102.379 82.3496L102.393 84.3579L104.409 84.3437L104.395 82.3354Z" fill="#D8BFB4"/>
<path d="M102.405 84.3441L100.389 84.3584L100.403 86.3667L102.419 86.3524L102.405 84.3441Z" fill="#D8BFB4"/>
<path d="M104.395 84.3177L102.379 84.332L102.393 86.3404L104.409 86.326L104.395 84.3177Z" fill="white"/>
<path d="M106.383 82.309L104.367 82.3232L104.382 84.3316L106.397 84.3173L106.383 82.309Z" fill="#71495A"/>
<path d="M108.399 82.309L106.383 82.3232L106.397 84.3316L108.413 84.3173L108.399 82.309Z" fill="#D8BFB4"/>
<path d="M106.41 84.3177L104.395 84.332L104.409 86.3404L106.425 86.3261L106.41 84.3177Z" fill="#D8BFB4"/>
<path d="M108.426 84.2904L106.41 84.3047L106.424 86.313L108.44 86.2988L108.426 84.2904Z" fill="white"/>
<path d="M110.414 82.2826L108.398 82.2969L108.413 84.3052L110.429 84.2909L110.414 82.2826Z" fill="#71495A"/>
<path d="M110.419 84.2691H110.817C110.764 83.5556 110.684 82.8949 110.605 82.2607H110.393L110.419 84.2691Z" fill="#D8BFB4"/>
<path d="M110.414 84.2914L108.398 84.3057L108.413 86.314L110.429 86.2997L110.414 84.2914Z" fill="#D8BFB4"/>
<path d="M110.419 86.2779H110.923C110.897 85.5908 110.843 84.9037 110.79 84.2695H110.393L110.419 86.2779Z" fill="white"/>
<path d="M58.2462 86.6475H57.7953C57.7688 87.2817 57.7688 87.9423 57.7953 88.6558H58.2727L58.2462 86.6475Z" fill="#71495A"/>
<path d="M60.2561 86.6429L58.2402 86.6572L58.2546 88.6656L60.2704 88.6513L60.2561 86.6429Z" fill="#D8BFB4"/>
<path d="M58.2724 88.6562H57.7949C57.7949 88.762 57.7949 88.8412 57.7949 88.9469C57.7949 89.5283 57.7949 90.1096 57.8214 90.6646H58.2989L58.2724 88.6562Z" fill="#D8BFB4"/>
<path d="M60.2834 88.6517L58.2676 88.666L58.2819 90.6743L60.2978 90.66L60.2834 88.6517Z" fill="white"/>
<path d="M62.2717 86.6166L60.2559 86.6309L60.2702 88.6392L62.2861 88.6249L62.2717 86.6166Z" fill="#71495A"/>
<path d="M64.2893 86.6166L62.2734 86.6309L62.2878 88.6392L64.3036 88.6249L64.2893 86.6166Z" fill="#D8BFB4"/>
<path d="M62.299 88.6244L60.2832 88.6387L60.2975 90.647L62.3134 90.6327L62.299 88.6244Z" fill="#D8BFB4"/>
<path d="M64.2893 88.599L62.2734 88.6133L62.2878 90.6216L64.3037 90.6073L64.2893 88.599Z" fill="white"/>
<path d="M66.2776 86.5902L64.2617 86.6045L64.276 88.6128L66.2919 88.5985L66.2776 86.5902Z" fill="#71495A"/>
<path d="M68.2932 86.5902L66.2773 86.6045L66.2917 88.6128L68.3075 88.5985L68.2932 86.5902Z" fill="#D8BFB4"/>
<path d="M66.3049 88.598L64.2891 88.6123L64.3034 90.6206L66.3193 90.6063L66.3049 88.598Z" fill="#D8BFB4"/>
<path d="M68.3205 88.5716L66.3047 88.5859L66.319 90.5942L68.3349 90.5799L68.3205 88.5716Z" fill="white"/>
<path d="M70.3088 86.5638L68.293 86.5781L68.3073 88.5864L70.3232 88.5721L70.3088 86.5638Z" fill="#71495A"/>
<path d="M72.2991 86.5638L70.2832 86.5781L70.2976 88.5864L72.3134 88.5721L72.2991 86.5638Z" fill="#D8BFB4"/>
<path d="M70.3088 88.5717L68.293 88.5859L68.3073 90.5942L70.3231 90.58L70.3088 88.5717Z" fill="#D8BFB4"/>
<path d="M72.3244 88.5453L70.3086 88.5596L70.3229 90.5679L72.3388 90.5536L72.3244 88.5453Z" fill="white"/>
<path d="M74.3147 86.5375L72.2988 86.5518L72.3132 88.5601L74.329 88.5458L74.3147 86.5375Z" fill="#71495A"/>
<path d="M76.3303 86.5374L74.3145 86.5518L74.3288 88.5601L76.3447 88.5457L76.3303 86.5374Z" fill="#D8BFB4"/>
<path d="M74.3147 88.5452L72.2988 88.5596L72.3132 90.5679L74.329 90.5536L74.3147 88.5452Z" fill="#D8BFB4"/>
<path d="M76.3303 88.5189L74.3145 88.5332L74.3288 90.5415L76.3447 90.5272L76.3303 88.5189Z" fill="white"/>
<path d="M78.3205 86.5111L76.3047 86.5254L76.319 88.5337L78.3349 88.5194L78.3205 86.5111Z" fill="#71495A"/>
<path d="M80.3362 86.4838L78.3203 86.498L78.3346 88.5064L80.3505 88.4921L80.3362 86.4838Z" fill="#D8BFB4"/>
<path d="M78.3459 88.5189L76.3301 88.5332L76.3444 90.5415L78.3603 90.5272L78.3459 88.5189Z" fill="#D8BFB4"/>
<path d="M80.3362 88.4925L78.3203 88.5068L78.3347 90.5151L80.3505 90.5008L80.3362 88.4925Z" fill="white"/>
<path d="M80.3398 88.4976H82.117V87.1235C82.117 86.965 82.17 86.8064 82.3026 86.6743C82.2496 86.6214 82.17 86.5422 82.0905 86.4629H80.3398V88.4976Z" fill="#71495A"/>
<path d="M82.0905 88.4707L80.3398 88.4971V90.5054L82.117 90.479L82.0905 88.8142V88.4707Z" fill="#D8BFB4"/>
<path d="M86.7867 87.0971V88.4712H88.3782L88.3517 86.4629H86.6541C86.6011 86.5157 86.548 86.5422 86.5215 86.595C86.6806 86.7007 86.7602 86.8857 86.7867 87.0971Z" fill="#D8BFB4"/>
<path d="M86.7871 88.4443V88.7879V90.4526L88.3786 90.4262L88.3521 88.4443H86.7871Z" fill="white"/>
<path d="M90.3616 86.431L88.3457 86.4453L88.36 88.4536L90.3759 88.4394L90.3616 86.431Z" fill="#71495A"/>
<path d="M92.3791 86.4046L90.3633 86.4189L90.3777 88.4273L92.3935 88.4129L92.3791 86.4046Z" fill="#D8BFB4"/>
<path d="M90.3889 88.4135L88.373 88.4277L88.3874 90.4361L90.4032 90.4218L90.3889 88.4135Z" fill="#D8BFB4"/>
<path d="M92.3791 88.4135L90.3633 88.4277L90.3776 90.4361L92.3934 90.4218L92.3791 88.4135Z" fill="white"/>
<path d="M94.3674 86.4047L92.3516 86.4189L92.3659 88.4273L94.3817 88.413L94.3674 86.4047Z" fill="#71495A"/>
<path d="M96.383 86.3783L94.3672 86.3926L94.3815 88.4009L96.3974 88.3866L96.383 86.3783Z" fill="#D8BFB4"/>
<path d="M94.3947 88.3871L92.3789 88.4014L92.3932 90.4097L94.409 90.3954L94.3947 88.3871Z" fill="#D8BFB4"/>
<path d="M96.4104 88.3871L94.3945 88.4014L94.4089 90.4097L96.4247 90.3954L96.4104 88.3871Z" fill="white"/>
<path d="M98.3986 86.3783L96.3828 86.3926L96.3972 88.4009L98.413 88.3866L98.3986 86.3783Z" fill="#71495A"/>
<path d="M100.389 86.3519L98.373 86.3662L98.3874 88.3745L100.403 88.3602L100.389 86.3519Z" fill="#D8BFB4"/>
<path d="M98.3987 88.3607L96.3828 88.375L96.3971 90.3833L98.413 90.3691L98.3987 88.3607Z" fill="#D8BFB4"/>
<path d="M100.416 88.3607L98.4004 88.375L98.4147 90.3833L100.431 90.369L100.416 88.3607Z" fill="white"/>
<path d="M102.405 86.352L100.389 86.3662L100.403 88.3745L102.419 88.3603L102.405 86.352Z" fill="#71495A"/>
<path d="M104.42 86.3256L102.404 86.3398L102.419 88.3482L104.435 88.3339L104.42 86.3256Z" fill="#D8BFB4"/>
<path d="M102.432 88.3344L100.416 88.3486L100.43 90.357L102.446 90.3427L102.432 88.3344Z" fill="#D8BFB4"/>
<path d="M104.42 88.3343L102.404 88.3486L102.419 90.3569L104.435 90.3426L104.42 88.3343Z" fill="white"/>
<path d="M106.41 86.2992L104.395 86.3135L104.409 88.3218L106.425 88.3075L106.41 86.2992Z" fill="#71495A"/>
<path d="M108.426 86.2992L106.41 86.3135L106.425 88.3218L108.44 88.3075L108.426 86.2992Z" fill="#D8BFB4"/>
<path d="M106.436 88.308L104.42 88.3223L104.434 90.3306L106.45 90.3163L106.436 88.308Z" fill="#D8BFB4"/>
<path d="M108.453 88.308L106.438 88.3223L106.452 90.3306L108.468 90.3163L108.453 88.308Z" fill="white"/>
<path d="M110.442 86.2728L108.426 86.2871L108.44 88.2954L110.456 88.2811L110.442 86.2728Z" fill="#71495A"/>
<path d="M110.445 88.2866H110.976C110.976 87.5996 110.949 86.939 110.949 86.2783H110.445V88.2866Z" fill="#D8BFB4"/>
<path d="M110.442 88.2816L108.426 88.2959L108.44 90.3042L110.456 90.2899L110.442 88.2816Z" fill="#D8BFB4"/>
<path d="M110.445 90.2681H110.976C110.976 89.7132 110.976 89.1582 110.976 88.5504C110.976 88.4447 110.976 88.3655 110.976 88.2598H110.445V90.2681Z" fill="white"/>
<path d="M58.2724 90.6377H57.7949C57.8214 91.3248 57.848 92.0118 57.901 92.646H58.2989L58.2724 90.6377Z" fill="#71495A"/>
<path d="M60.2834 90.6332L58.2676 90.6475L58.2819 92.6558L60.2978 92.6415L60.2834 90.6332Z" fill="#D8BFB4"/>
<path d="M58.2983 92.6465H57.9004C57.9534 93.36 58.0065 94.0206 58.0861 94.6548H58.2983V92.6465Z" fill="#D8BFB4"/>
<path d="M60.3088 92.642L58.293 92.6562L58.3073 94.6646L60.3231 94.6503L60.3088 92.642Z" fill="white"/>
<path d="M62.2991 90.6331L60.2832 90.6475L60.2976 92.6558L62.3134 92.6415L62.2991 90.6331Z" fill="#71495A"/>
<path d="M64.3147 90.6068L62.2988 90.6211L62.3132 92.6294L64.329 92.6151L64.3147 90.6068Z" fill="#D8BFB4"/>
<path d="M62.3264 92.6156L60.3105 92.6299L60.3249 94.6382L62.3407 94.6239L62.3264 92.6156Z" fill="#D8BFB4"/>
<path d="M64.3147 92.6156L62.2988 92.6299L62.3132 94.6382L64.329 94.6239L64.3147 92.6156Z" fill="white"/>
<path d="M66.3049 90.6068L64.2891 90.6211L64.3034 92.6294L66.3192 92.6152L66.3049 90.6068Z" fill="#71495A"/>
<path d="M68.3205 90.5804L66.3047 90.5947L66.3191 92.6031L68.3349 92.5887L68.3205 90.5804Z" fill="#D8BFB4"/>
<path d="M66.3303 92.5892L64.3145 92.6035L64.3288 94.6118L66.3446 94.5975L66.3303 92.5892Z" fill="#D8BFB4"/>
<path d="M68.3459 92.5883L66.3301 92.6025L66.3444 94.6109L68.3603 94.5966L68.3459 92.5883Z" fill="white"/>
<path d="M70.3362 90.5541L68.3203 90.5684L68.3346 92.5767L70.3505 92.5624L70.3362 90.5541Z" fill="#71495A"/>
<path d="M72.3264 90.5541L70.3105 90.5684L70.3249 92.5767L72.3407 92.5624L72.3264 90.5541Z" fill="#D8BFB4"/>
<path d="M70.3362 92.5629L68.3203 92.5771L68.3346 94.5855L70.3505 94.5712L70.3362 92.5629Z" fill="#D8BFB4"/>
<path d="M72.3518 92.5619L70.3359 92.5762L70.3503 94.5845L72.3661 94.5702L72.3518 92.5619Z" fill="white"/>
<path d="M74.3401 90.5277L72.3242 90.542L72.3386 92.5503L74.3544 92.536L74.3401 90.5277Z" fill="#71495A"/>
<path d="M76.3577 90.5277L74.3418 90.542L74.3561 92.5503L76.372 92.536L76.3577 90.5277Z" fill="#D8BFB4"/>
<path d="M74.3674 92.5355L72.3516 92.5498L72.3659 94.5581L74.3817 94.5439L74.3674 92.5355Z" fill="#D8BFB4"/>
<path d="M76.3577 92.5355L74.3418 92.5498L74.3561 94.5581L76.372 94.5438L76.3577 92.5355Z" fill="white"/>
<path d="M78.3459 90.5013L76.3301 90.5156L76.3445 92.5239L78.3603 92.5096L78.3459 90.5013Z" fill="#71495A"/>
<path d="M80.3635 90.5013L78.3477 90.5156L78.362 92.5239L80.3779 92.5097L80.3635 90.5013Z" fill="#D8BFB4"/>
<path d="M76.3613 92.5146L76.3879 94.523H77.9263C78.0854 94.4173 78.2446 94.3116 78.3772 94.2059V92.5411L76.3613 92.5146Z" fill="#D8BFB4"/>
<path d="M78.3516 92.5137V94.1785C79.1208 93.6236 79.7839 93.1215 80.3409 92.6194V92.4873L78.3516 92.5137Z" fill="white"/>
<path d="M82.117 90.4795H80.3398L80.3664 92.4878H80.5255C81.2682 91.88 81.8252 91.3251 82.2496 90.9023C82.17 90.7966 82.117 90.6645 82.117 90.4795Z" fill="#71495A"/>
<path d="M80.3672 92.6194C80.4202 92.5666 80.4733 92.5137 80.5263 92.4873H80.3672V92.6194Z" fill="#D8BFB4"/>
<path d="M88.3779 90.4268H86.7864V90.4532C86.7864 90.6382 86.7068 90.7967 86.5742 90.9288C86.9986 91.3252 87.5556 91.8537 88.2452 92.4351H88.3513L88.3779 90.4268Z" fill="#D8BFB4"/>
<path d="M88.2715 92.4346C88.2982 92.4612 88.3516 92.4879 88.3782 92.5413V92.4346H88.2715Z" fill="white"/>
<path d="M90.3889 90.4223L88.373 90.4365L88.3874 92.4448L90.4032 92.4306L90.3889 90.4223Z" fill="#71495A"/>
<path d="M92.4046 90.4222L90.3887 90.4365L90.403 92.4448L92.4189 92.4305L92.4046 90.4222Z" fill="#D8BFB4"/>
<path d="M88.4043 92.4346V92.5403C88.9878 93.0159 89.651 93.518 90.4202 94.0729V92.4346H88.4043Z" fill="#D8BFB4"/>
<path d="M92.4084 92.4082L90.3926 92.4346V94.073C90.5517 94.1787 90.7374 94.3108 90.9231 94.4429H92.4084V92.4082Z" fill="white"/>
<path d="M94.4201 90.3959L92.4043 90.4102L92.4186 92.4185L94.4345 92.4042L94.4201 90.3959Z" fill="#71495A"/>
<path d="M96.4104 90.3695L94.3945 90.3838L94.4088 92.3921L96.4247 92.3779L96.4104 90.3695Z" fill="#D8BFB4"/>
<path d="M94.4202 92.4037L92.4043 92.418L92.4186 94.4263L94.4345 94.412L94.4202 92.4037Z" fill="#D8BFB4"/>
<path d="M96.4358 92.3773L94.4199 92.3916L94.4343 94.3999L96.4501 94.3856L96.4358 92.3773Z" fill="white"/>
<path d="M98.426 90.3685L96.4102 90.3828L96.4245 92.3911L98.4404 92.3768L98.426 90.3685Z" fill="#71495A"/>
<path d="M100.442 90.3421L98.4258 90.3564L98.4402 92.3648L100.456 92.3504L100.442 90.3421Z" fill="#D8BFB4"/>
<path d="M98.426 92.3773L96.4102 92.3916L96.4245 94.3999L98.4404 94.3856L98.426 92.3773Z" fill="#D8BFB4"/>
<path d="M100.442 92.351L98.4258 92.3652L98.4401 94.3735L100.456 94.3593L100.442 92.351Z" fill="white"/>
<path d="M102.432 90.3422L100.416 90.3564L100.43 92.3648L102.446 92.3505L102.432 90.3422Z" fill="#71495A"/>
<path d="M104.447 90.3158L102.432 90.3301L102.446 92.3384L104.462 92.3241L104.447 90.3158Z" fill="#D8BFB4"/>
<path d="M102.457 92.3509L100.441 92.3652L100.456 94.3736L102.472 94.3593L102.457 92.3509Z" fill="#D8BFB4"/>
<path d="M104.447 92.3245L102.432 92.3389L102.446 94.3472L104.462 94.3329L104.447 92.3245Z" fill="white"/>
<path d="M106.436 90.3158L104.42 90.3301L104.434 92.3384L106.45 92.3241L106.436 90.3158Z" fill="#71495A"/>
<path d="M108.453 90.2894L106.438 90.3037L106.452 92.312L108.468 92.2977L108.453 90.2894Z" fill="#D8BFB4"/>
<path d="M106.463 92.2982L104.447 92.3125L104.462 94.3208L106.477 94.3066L106.463 92.2982Z" fill="#D8BFB4"/>
<path d="M108.479 92.2982L106.463 92.3125L106.477 94.3208L108.493 94.3065L108.479 92.2982Z" fill="white"/>
<path d="M110.469 90.2894L108.453 90.3037L108.467 92.312L110.483 92.2977L110.469 90.2894Z" fill="#71495A"/>
<path d="M110.473 92.2759H110.924C110.95 91.6417 110.977 90.9811 111.003 90.2676H110.473V92.2759Z" fill="#D8BFB4"/>
<path d="M110.469 92.2718L108.453 92.2861L108.467 94.2944L110.483 94.2802L110.469 92.2718Z" fill="#D8BFB4"/>
<path d="M110.472 94.2847H110.737C110.79 93.6505 110.843 92.9898 110.896 92.2764H110.445L110.472 94.2847Z" fill="white"/>
<path d="M58.0879 94.6543C58.1675 95.2621 58.247 95.8434 58.3266 96.3984V94.6543H58.0879Z" fill="#71495A"/>
<path d="M60.3147 94.6279L58.2988 94.6544V96.3984C58.3254 96.4777 58.3254 96.5834 58.3519 96.6627L60.3147 96.6363V94.6279Z" fill="#D8BFB4"/>
<path d="M60.3144 96.6367L58.3516 96.6631C58.4842 97.403 58.6168 98.0637 58.7494 98.6715H60.3409L60.3144 96.6367Z" fill="white"/>
<path d="M62.3264 94.6234L60.3105 94.6377L60.3249 96.646L62.3407 96.6317L62.3264 94.6234Z" fill="#71495A"/>
<path d="M64.342 94.5971L62.3262 94.6113L62.3405 96.6197L64.3563 96.6054L64.342 94.5971Z" fill="#D8BFB4"/>
<path d="M62.3518 96.6322L60.3359 96.6465L60.3503 98.6548L62.3661 98.6405L62.3518 96.6322Z" fill="#D8BFB4"/>
<path d="M64.342 96.6058L62.3262 96.6201L62.3405 98.6284L64.3564 98.6141L64.342 96.6058Z" fill="white"/>
<path d="M66.3303 94.5971L64.3145 94.6113L64.3288 96.6197L66.3446 96.6054L66.3303 94.5971Z" fill="#71495A"/>
<path d="M68.3459 94.5707L66.3301 94.585L66.3444 96.5933L68.3603 96.579L68.3459 94.5707Z" fill="#D8BFB4"/>
<path d="M66.3576 96.6049L64.3418 96.6191L64.3561 98.6275L66.3719 98.6132L66.3576 96.6049Z" fill="#D8BFB4"/>
<path d="M68.3732 96.5785L66.3574 96.5928L66.3717 98.6011L68.3876 98.5868L68.3732 96.5785Z" fill="white"/>
<path d="M70.3615 94.5706L68.3457 94.585L68.3601 96.5933L70.3759 96.579L70.3615 94.5706Z" fill="#71495A"/>
<path d="M72.3518 94.5443L70.3359 94.5586L70.3502 96.5669L72.3661 96.5527L72.3518 94.5443Z" fill="#D8BFB4"/>
<path d="M70.3615 96.5521L68.3457 96.5664L68.36 98.5747L70.3759 98.5604L70.3615 96.5521Z" fill="#D8BFB4"/>
<path d="M70.3672 96.5576L70.3937 98.5659H70.7651C71.3221 98.3017 71.8791 98.0639 72.4096 97.7996V96.5576H70.3672Z" fill="white"/>
<path d="M74.3674 94.5443L72.3516 94.5586L72.3659 96.5669L74.3818 96.5526L74.3674 94.5443Z" fill="#71495A"/>
<path d="M74.3457 94.5225L74.3722 96.5308H74.717C75.3006 96.1872 75.8576 95.8701 76.3615 95.5266V94.5225H74.3457Z" fill="#D8BFB4"/>
<path d="M72.3574 96.5576V97.7996C73.0736 97.4561 73.7367 97.0861 74.3467 96.7426V96.5576H72.3574Z" fill="#D8BFB4"/>
<path d="M74.373 96.7162C74.4791 96.6634 74.6118 96.5841 74.7179 96.5312H74.373V96.7162Z" fill="white"/>
<path d="M76.3613 95.5267C76.9183 95.1831 77.4223 94.8396 77.8997 94.4961H76.3613V95.5267Z" fill="#71495A"/>
<path d="M90.9238 94.417C91.4013 94.7341 91.8787 95.0512 92.4357 95.3947V94.417H90.9238Z" fill="#D8BFB4"/>
<path d="M94.426 94.3906L92.4102 94.417V95.3948C92.9406 95.7383 93.5242 96.0554 94.1342 96.3989H94.426V94.3906Z" fill="#71495A"/>
<path d="M96.4358 94.3861L94.4199 94.4004L94.4342 96.4087L96.4501 96.3945L96.4358 94.3861Z" fill="#D8BFB4"/>
<path d="M94.1328 96.3984C94.2389 96.4513 94.3185 96.5041 94.4246 96.557V96.3984H94.1328Z" fill="#D8BFB4"/>
<path d="M94.4531 96.3985V96.557C95.0897 96.9006 95.7528 97.2441 96.469 97.5876V96.3721L94.4531 96.3985Z" fill="white"/>
<path d="M98.4514 94.3588L96.4355 94.373L96.4499 96.3814L98.4657 96.3671L98.4514 94.3588Z" fill="#71495A"/>
<path d="M100.469 94.3588L98.4531 94.373L98.4675 96.3814L100.483 96.3671L100.469 94.3588Z" fill="#D8BFB4"/>
<path d="M98.4573 96.3721L96.4414 96.3985V97.6141C96.9984 97.8783 97.5554 98.1426 98.139 98.3804H98.4573V96.3721Z" fill="#D8BFB4"/>
<path d="M100.469 96.3412L98.4531 96.3555L98.4674 98.3638L100.483 98.3495L100.469 96.3412Z" fill="white"/>
<path d="M102.457 94.3333L100.441 94.3477L100.456 96.356L102.472 96.3416L102.457 94.3333Z" fill="#71495A"/>
<path d="M104.473 94.3324L102.457 94.3467L102.471 96.355L104.487 96.3407L104.473 94.3324Z" fill="#D8BFB4"/>
<path d="M102.485 96.3412L100.469 96.3555L100.483 98.3638L102.499 98.3495L102.485 96.3412Z" fill="#D8BFB4"/>
<path d="M104.473 96.3148L102.457 96.3291L102.471 98.3374L104.487 98.3231L104.473 96.3148Z" fill="white"/>
<path d="M106.489 94.306L104.473 94.3203L104.487 96.3286L106.503 96.3143L106.489 94.306Z" fill="#71495A"/>
<path d="M108.479 94.306L106.463 94.3203L106.477 96.3286L108.493 96.3143L108.479 94.306Z" fill="#D8BFB4"/>
<path d="M106.49 96.3148L104.475 96.3291L104.489 98.3374L106.505 98.3231L106.49 96.3148Z" fill="#D8BFB4"/>
<path d="M108.506 96.2884L106.49 96.3027L106.505 98.3111L108.52 98.2968L108.506 96.2884Z" fill="white"/>
<path d="M110.494 94.2797L108.479 94.2939L108.493 96.3023L110.509 96.288L110.494 94.2797Z" fill="#71495A"/>
<path d="M110.5 96.2661C110.606 95.6583 110.686 94.9713 110.765 94.2578H110.5V96.2661Z" fill="#D8BFB4"/>
<path d="M108.484 96.293L108.511 98.3013H110.155C110.288 97.7199 110.394 97.0857 110.5 96.3722V96.293H108.484Z" fill="#D8BFB4"/>
<path d="M60.3415 98.6445H58.75C58.803 98.8295 58.8296 99.0145 58.8826 99.173C59.0152 99.7544 59.3335 100.256 59.7314 100.626H60.3415V98.6445Z" fill="#D8BFB4"/>
<path d="M59.7324 100.627C59.9181 100.812 60.1303 100.97 60.369 101.103V100.627H59.7324Z" fill="white"/>
<path d="M62.3518 98.6136L60.3359 98.6279L60.3503 100.636L62.3662 100.622L62.3518 98.6136Z" fill="#71495A"/>
<path d="M64.3674 98.6136L62.3516 98.6279L62.3659 100.636L64.3817 100.622L64.3674 98.6136Z" fill="#D8BFB4"/>
<path d="M60.3691 100.627V101.103C60.9527 101.446 61.6688 101.578 62.385 101.473V100.601L60.3691 100.627Z" fill="#D8BFB4"/>
<path d="M62.3574 100.627V101.499C62.4635 101.473 62.5961 101.446 62.7022 101.42C63.2592 101.261 63.8163 101.103 64.3467 100.944V100.601L62.3574 100.627Z" fill="white"/>
<path d="M64.3477 98.5918L64.3742 100.6H65.4617C65.78 100.494 66.0717 100.389 66.39 100.283V98.5918H64.3477Z" fill="#71495A"/>
<path d="M66.3633 98.5919V100.283C67.0529 100.045 67.716 99.8074 68.3526 99.5432V98.5654L66.3633 98.5919Z" fill="#D8BFB4"/>
<path d="M64.373 100.944C64.7444 100.838 65.0892 100.733 65.4606 100.601H64.373V100.944Z" fill="#D8BFB4"/>
<path d="M68.3789 98.5654V99.5432C69.0685 99.2789 69.7316 98.9882 70.3682 98.724V98.5654H68.3789Z" fill="#71495A"/>
<path d="M70.3672 98.724C70.4998 98.6711 70.6059 98.6183 70.7385 98.5654H70.3672V98.724Z" fill="#D8BFB4"/>
<path d="M98.166 98.3545C98.2721 98.4073 98.3782 98.4338 98.4843 98.4866V98.3545H98.166Z" fill="#71495A"/>
<path d="M98.457 98.3545V98.4866C99.0936 98.7509 99.7832 99.0415 100.473 99.3058V98.3545H98.457Z" fill="#D8BFB4"/>
<path d="M100.473 98.3546V99.3059C101.109 99.5437 101.799 99.7815 102.489 100.019V98.3281L100.473 98.3546Z" fill="#71495A"/>
<path d="M104.479 98.3281L102.463 98.3546V100.046C102.781 100.151 103.099 100.257 103.444 100.363H104.479V98.3281Z" fill="#D8BFB4"/>
<path d="M104.505 100.31H103.471C103.816 100.415 104.16 100.521 104.505 100.627V100.31Z" fill="white"/>
<path d="M106.516 98.2963L104.5 98.3105L104.514 100.319L106.53 100.305L106.516 98.2963Z" fill="#71495A"/>
<path d="M108.506 98.2963L106.49 98.3105L106.505 100.319L108.52 100.305L108.506 98.2963Z" fill="#D8BFB4"/>
<path d="M104.506 100.31V100.627C105.063 100.785 105.62 100.944 106.203 101.102C106.31 101.129 106.416 101.155 106.522 101.155V100.31H104.506Z" fill="#D8BFB4"/>
<path d="M106.521 100.31V101.155C107.238 101.261 107.927 101.129 108.537 100.785V100.283L106.521 100.31Z" fill="white"/>
<path d="M108.51 100.284H109.173C109.571 99.8873 109.863 99.3852 109.995 98.8039C110.022 98.6453 110.075 98.4604 110.102 98.2754H108.457L108.51 100.284Z" fill="#71495A"/>
<path d="M108.51 100.785C108.748 100.653 108.987 100.468 109.173 100.283H108.51V100.785Z" fill="#D8BFB4"/>
<path d="M84.4258 87.2821H85.8581C85.9907 87.1499 86.1233 86.9914 86.3355 86.78C86.3886 86.7271 86.4416 86.6743 86.5212 86.595C86.4151 86.5157 86.2825 86.4629 86.1233 86.4629H84.4258V87.2821Z" fill="#71495A"/>
<path d="M86.3629 88.4451V86.7539C86.1772 86.9389 86.0181 87.1239 85.8855 87.256H84.4531V88.4451H86.3629Z" fill="#71495A"/>
<path d="M86.3613 88.4445H86.7857V87.0704C86.7857 86.859 86.6796 86.7005 86.547 86.5684C86.4939 86.6212 86.4144 86.7005 86.3613 86.7533V88.4445Z" fill="#71495A"/>
<path d="M86.3629 88.4669L84.4531 88.4805L84.4556 88.824L86.3653 88.8105L86.3629 88.4669Z" fill="#71495A"/>
<path d="M86.7877 88.4452L86.3633 88.4482L86.3658 88.7917L86.7902 88.7887L86.7877 88.4452Z" fill="#71495A"/>
<path d="M86.0968 90.4531C85.9376 90.2681 85.805 90.136 85.6989 90.0303H84.4258V91.1137H86.1233C86.2825 91.1137 86.4416 91.0344 86.5477 90.9287C86.4681 90.8495 86.3886 90.7702 86.3355 90.7173C86.2825 90.6381 86.1764 90.5323 86.0968 90.4531Z" fill="#D8BFB4"/>
<path d="M84.4531 88.7881V90.0301H85.7263C85.8059 90.1358 85.9385 90.2679 86.1242 90.4529H86.3894V88.7881H84.4531Z" fill="#D8BFB4"/>
<path d="M86.7818 88.789L86.3574 88.792L86.3693 90.4568L86.7937 90.4538L86.7818 88.789Z" fill="#D8BFB4"/>
<path d="M86.3629 90.7174V90.4531H86.0977C86.1772 90.5324 86.2833 90.6381 86.3629 90.7174Z" fill="#D8BFB4"/>
<path d="M86.7857 90.4796L86.3613 90.4531V90.7174C86.4409 90.7966 86.494 90.8495 86.5735 90.9288C86.7327 90.8231 86.8123 90.6645 86.7857 90.4796Z" fill="#D8BFB4"/>
<path d="M82.3304 86.7536C82.5426 86.965 82.7283 87.1499 82.8609 87.2821H84.3463H84.4524V86.4629H82.7548C82.5691 86.4629 82.41 86.5422 82.2773 86.6743C82.2773 86.7007 82.3039 86.7271 82.3304 86.7536Z" fill="#D8BFB4"/>
<path d="M82.0918 88.4707H82.3305V86.7267C82.304 86.7003 82.2775 86.6738 82.2775 86.6738C82.1714 86.7795 82.0918 86.9381 82.0918 87.1231V88.4707Z" fill="#D8BFB4"/>
<path d="M84.3459 87.2824H82.8606C82.7279 87.1503 82.5423 86.9653 82.3301 86.7539V88.498L84.3459 88.4715V87.2824Z" fill="#D8BFB4"/>
<path d="M82.3305 88.4729L82.0918 88.4746L82.0942 88.8182L82.3329 88.8165L82.3305 88.4729Z" fill="#D8BFB4"/>
<path d="M84.3733 88.4664L82.3574 88.4805L82.3598 88.824L84.3757 88.8099L84.3733 88.4664Z" fill="#D8BFB4"/>
<path d="M84.4499 87.2834L84.3438 87.2842L84.3522 88.4733L84.4583 88.4726L84.4499 87.2834Z" fill="#D8BFB4"/>
<path d="M84.4537 88.4729L84.3477 88.4736L84.3501 88.8172L84.4562 88.8164L84.4537 88.4729Z" fill="#D8BFB4"/>
<path d="M84.4516 90.0566H84.3455H83.0457C82.9662 90.1623 82.8335 90.2945 82.6744 90.4794C82.5948 90.5851 82.4887 90.6909 82.3561 90.7966C82.3296 90.823 82.303 90.8494 82.25 90.9023C82.3561 91.0608 82.5418 91.1401 82.754 91.1401H84.4516V90.0566Z" fill="white"/>
<path d="M82.352 88.8157L82.1133 88.8174L82.1252 90.4822L82.3639 90.4805L82.352 88.8157Z" fill="white"/>
<path d="M82.3574 88.8145V90.4792H82.6757C82.8349 90.2943 82.9675 90.1621 83.0471 90.0564H84.3467V88.8145H82.3574Z" fill="white"/>
<path d="M84.4499 88.7903L84.3438 88.791L84.3526 90.033L84.4587 90.0323L84.4499 88.7903Z" fill="white"/>
<path d="M82.3559 90.4795H82.1172V90.5059C82.1172 90.6645 82.1702 90.7966 82.2498 90.9023C82.2763 90.8759 82.3294 90.823 82.3559 90.7966V90.4795Z" fill="white"/>
<path d="M82.3574 90.7966C82.4635 90.6645 82.5696 90.5588 82.6757 90.4795H82.3574V90.7966Z" fill="white"/>
<path d="M45.5423 90.9551L45.2771 90.8229C44.72 90.5058 44.1365 90.1623 43.606 89.8452C43.3408 89.6866 43.1021 89.5281 42.8368 89.3695C42.1737 88.9467 41.5371 88.4975 40.9005 88.0483C40.7679 87.969 40.6353 87.8633 40.5292 87.784C40.3966 87.6783 40.264 87.5991 40.1579 87.4934C39.7865 87.2027 39.4152 86.912 39.0438 86.6213C38.9377 86.5156 38.8051 86.4363 38.699 86.3306L38.6725 86.3042C38.5664 86.1985 38.4338 86.1192 38.3277 86.0135C36.5505 84.5073 34.906 82.8425 33.4737 81.0192C33.3676 80.887 33.2881 80.7813 33.182 80.6492C32.7045 80.015 32.2271 79.3544 31.8027 78.6673C31.7231 78.5352 31.617 78.4031 31.5374 78.2445C31.4579 78.1124 31.3783 77.9803 31.2722 77.8217C31.1926 77.6896 31.1131 77.531 31.0335 77.3989C30.8478 77.0818 30.6887 76.7647 30.503 76.4476C30.45 76.3419 30.3969 76.2098 30.3173 76.1041C30.2378 75.9455 30.1582 75.8134 30.1051 75.6548C30.0256 75.4963 29.946 75.3642 29.8929 75.2056C29.8134 75.0471 29.7603 74.9149 29.6807 74.7564C29.5481 74.4657 29.442 74.2015 29.3094 73.9108C29.2298 73.7258 29.1503 73.5408 29.0972 73.3558C29.0707 73.2501 29.0176 73.1709 28.9911 73.0652C28.9381 72.9595 28.9115 72.8273 28.8585 72.7216C28.8054 72.5895 28.7524 72.431 28.6993 72.2724C28.5402 71.7703 28.3811 71.2682 28.2484 70.7662C28.1954 70.634 28.1689 70.4755 28.1423 70.3434C28.0893 70.1584 28.0628 69.9998 28.0097 69.8149C27.9832 69.6563 27.9301 69.5242 27.9036 69.3656C27.8771 69.2335 27.8506 69.075 27.824 68.9428C27.7975 68.7579 27.7445 68.5993 27.7179 68.4143C27.6914 68.2293 27.6384 68.0708 27.6118 67.8858C27.1609 65.2697 27.0018 62.4422 27.214 59.3769C27.2936 58.1878 27.3997 57.025 27.5323 55.8888C27.5853 55.4924 27.6384 55.096 27.6649 54.6996C27.7179 54.2504 27.771 53.8012 27.8506 53.3784C27.9036 53.1141 27.9301 52.8234 27.9832 52.5592C28.275 50.7887 28.5932 49.071 28.9911 47.4062C28.6993 48.8332 28.3545 50.8944 28.1158 53.3519C27.9832 54.7525 27.8771 56.2851 27.8506 57.9235C27.771 62.6536 28.275 68.0708 30.2378 73.0123C34.0573 82.6311 45.0914 91.0608 52.5978 91.9064C52.5182 91.9064 48.3539 92.0385 45.5423 90.9551Z" fill="#B6724D"/>
<path d="M139.81 55.5197C139.916 56.286 139.996 57.0788 140.075 57.8715C140.102 58.1093 140.128 58.3208 140.128 58.5586C140.155 58.77 140.155 58.955 140.181 59.1664C140.181 59.1928 140.181 59.2192 140.181 59.2456C140.181 59.2456 140.181 59.2721 140.181 59.2985C140.181 59.5099 140.208 59.7213 140.208 59.9327C140.208 59.9855 140.208 60.0648 140.208 60.1441C140.208 60.3555 140.234 60.5669 140.234 60.7519C140.234 60.8047 140.234 60.8576 140.234 60.9104C140.234 61.1483 140.234 61.3861 140.234 61.6239C140.234 61.8617 140.234 62.126 140.234 62.3638C140.234 62.3902 140.234 62.3902 140.234 62.4167C140.234 62.6545 140.208 62.9187 140.208 63.1566C140.208 63.368 140.181 63.5794 140.181 63.7644C140.181 63.8701 140.181 63.9493 140.155 64.0286C140.128 64.2136 140.128 64.3986 140.102 64.61C140.102 64.6364 140.102 64.6364 140.102 64.6628C140.075 64.9006 140.049 65.1385 140.022 65.3763C139.996 65.5877 139.969 65.8255 139.942 66.0369C139.942 66.0898 139.942 66.1162 139.916 66.1691C139.889 66.3805 139.863 66.5919 139.81 66.8033C139.783 67.0147 139.73 67.2261 139.704 67.411C139.677 67.4903 139.677 67.5696 139.651 67.6489C139.624 67.8338 139.571 67.9924 139.545 68.1774C139.545 68.2038 139.545 68.2038 139.545 68.2302C139.492 68.4416 139.439 68.6795 139.385 68.8909C139.332 69.1287 139.279 69.3401 139.226 69.5515C139.173 69.7629 139.12 70.0007 139.041 70.2121C138.988 70.4235 138.908 70.6349 138.855 70.8463C138.855 70.8727 138.855 70.8727 138.828 70.8992C138.775 71.0841 138.722 71.2691 138.643 71.4541C138.616 71.507 138.616 71.5598 138.59 71.6127C138.537 71.7712 138.484 71.9562 138.404 72.1147C138.325 72.3261 138.245 72.5375 138.165 72.7489C137.98 73.1982 137.794 73.6474 137.608 74.0966C137.529 74.2552 137.476 74.4137 137.396 74.5723C136.653 76.1578 135.778 77.6376 134.797 79.0382C134.717 79.1439 134.664 79.2496 134.585 79.3288C134.505 79.4345 134.452 79.5402 134.372 79.6195C134.24 79.8045 134.107 79.963 133.975 80.148C133.603 80.6237 133.205 81.0993 132.807 81.575C132.728 81.6807 132.648 81.7599 132.542 81.8656C132.41 81.9978 132.303 82.1299 132.171 82.262C132.091 82.3677 131.985 82.447 131.906 82.5527C131.693 82.7905 131.481 83.0019 131.243 83.2398C131.136 83.3455 131.03 83.4512 130.951 83.5304C130.951 83.5569 130.924 83.5569 130.898 83.5833C130.765 83.7154 130.606 83.874 130.473 84.0061C130.447 84.0325 130.447 84.0325 130.42 84.0589C130.261 84.1911 130.128 84.3496 129.969 84.4818C129.784 84.6403 129.625 84.7989 129.439 84.9574C129.306 85.0631 129.174 85.1952 129.041 85.3009C128.325 85.9087 127.609 86.4901 126.839 87.045C126.68 87.1507 126.548 87.2564 126.389 87.3885C126.229 87.4942 126.07 87.6264 125.911 87.7321C125.832 87.7849 125.752 87.8378 125.672 87.8906C125.513 87.9963 125.354 88.1284 125.195 88.2341C124.638 88.6041 124.081 88.974 123.524 89.3176L121.959 88.8419C134.213 81.76 138.616 71.5598 139.306 62.1524C139.73 56.4974 138.935 50.7103 138.245 47.0107C138.908 49.7061 139.439 52.5336 139.81 55.5197Z" fill="#B6724D"/>
<path d="M72.1196 39.7171C68.5388 40.272 65.7802 41.2762 63.7113 42.2539C63.0748 42.571 62.5177 42.8617 62.0138 43.1524C61.5894 42.756 61.2181 42.2803 60.9263 41.7518C60.6345 41.2233 60.4488 40.642 60.3428 40.0078C60.2897 39.6114 60.2632 39.1886 60.2897 38.7922C60.4223 37.0217 61.3772 35.4626 62.836 34.5378C63.4726 34.1414 64.1888 33.8771 64.958 33.745L65.7802 33.6129C68.3796 33.2165 70.8464 34.6963 71.7482 37.0482C71.9074 37.4181 72.0135 37.8145 72.0665 38.2373C72.1726 38.7394 72.1726 39.2414 72.1196 39.7171Z" fill="#333132"/>
<path d="M71.8015 37.0482C70.4222 39.1093 68.0085 40.457 65.2499 40.457C63.3932 40.457 61.6691 39.8228 60.3164 38.7922C60.449 37.0217 61.4039 35.4626 62.8627 34.5378C63.4993 34.1414 64.2155 33.8771 64.9847 33.745L65.8069 33.6129C68.4063 33.2165 70.8731 34.6963 71.8015 37.0482Z" fill="#272425"/>
<path d="M66.4349 37.664C67.4921 37.5035 68.2221 36.5429 68.0654 35.5185C67.9086 34.4941 66.9245 33.7939 65.8673 33.9544C64.8101 34.115 64.0802 35.0755 64.2369 36.0999C64.3937 37.1243 65.3778 37.8246 66.4349 37.664Z" fill="white"/>
<path d="M59.2814 45.6097C59.1753 45.6361 59.0427 45.5832 58.9631 45.504C58.804 45.3454 58.804 45.1076 58.9631 44.949C59.1488 44.764 63.3661 40.5624 72.7557 39.2412C72.9679 39.2147 73.1801 39.3733 73.2067 39.5847C73.2332 39.7961 73.074 40.0075 72.8618 40.0339C68.114 40.6946 64.7454 42.1479 62.7296 43.2578C60.5811 44.4469 59.5201 45.504 59.5201 45.504C59.4405 45.5568 59.361 45.5832 59.2814 45.6097Z" fill="#43281F"/>
<path d="M95.1677 39.7171C98.7484 40.272 101.507 41.2762 103.576 42.2539C104.212 42.571 104.769 42.8617 105.273 43.1524C105.698 42.756 106.069 42.2803 106.361 41.7518C106.653 41.2233 106.838 40.642 106.944 40.0078C106.998 39.6114 107.024 39.1886 106.998 38.7922C106.865 37.0217 105.91 35.4626 104.451 34.5378C103.815 34.1414 103.098 33.8771 102.329 33.745L101.507 33.6129C98.9076 33.2165 96.4408 34.6963 95.539 37.0482C95.3799 37.4181 95.2738 37.8145 95.2207 38.2373C95.1146 38.7394 95.1146 39.2414 95.1677 39.7171Z" fill="#333132"/>
<path d="M95.5137 37.0482C96.8929 39.1093 99.3066 40.457 102.065 40.457C103.922 40.457 105.646 39.8228 106.999 38.7922C106.866 37.0217 105.911 35.4626 104.452 34.5378C103.816 34.1414 103.1 33.8771 102.33 33.745L101.508 33.6129C98.8823 33.2165 96.4155 34.6963 95.5137 37.0482Z" fill="#272425"/>
<path d="M103.046 36.1094C103.203 35.0851 102.473 34.1245 101.415 33.9639C100.358 33.8034 99.3741 34.5036 99.2174 35.528C99.0607 36.5524 99.7906 37.513 100.848 37.6735C101.905 37.8341 102.889 37.1338 103.046 36.1094Z" fill="white"/>
<path d="M108.006 45.6097C108.112 45.6361 108.245 45.5832 108.325 45.504C108.484 45.3454 108.484 45.1076 108.325 44.949C108.139 44.764 103.922 40.5624 94.5319 39.2412C94.3197 39.2147 94.1075 39.3733 94.081 39.5847C94.0545 39.7961 94.2136 40.0075 94.4258 40.0339C99.1737 40.6946 102.542 42.1479 104.558 43.2578C106.707 44.4469 107.768 45.504 107.768 45.504C107.847 45.5568 107.927 45.5832 108.006 45.6097Z" fill="#43281F"/>
<path d="M91.0834 58.0293C91.0834 58.0293 90.3142 59.5884 89.7307 62.3366C89.545 63.1558 89.2532 64.1071 88.8023 65.0055C87.7944 67.0667 86.0438 68.9693 83.5505 68.9165C81.0307 68.9693 79.3066 67.0667 78.2987 65.0055C77.8478 64.1071 77.556 63.1558 77.3703 62.3366C76.7868 59.6148 76.0176 58.0293 76.0176 58.0293H76.1502C78.2987 59.2977 80.845 60.0112 83.6035 59.9848C86.2295 59.9583 88.6962 59.2449 90.7386 58.0293H91.0834Z" fill="#43281F"/>
<path d="M88.8025 65.0066C87.7945 67.0678 86.0439 68.9704 83.5506 68.9175C81.0308 68.9704 79.3068 67.0678 78.2988 65.0066C78.6967 64.7952 79.1211 64.6102 79.5985 64.4517C80.7656 64.0288 82.1183 63.791 83.5772 63.791C84.983 63.791 86.3092 64.0024 87.4497 64.3988C87.9272 64.5838 88.3781 64.7952 88.8025 65.0066Z" fill="#C45D69"/>
<path d="M87.4243 64.4252C86.4429 65.5615 85.1167 66.3543 83.4987 66.3014C81.8807 66.3278 80.581 65.5615 79.5996 64.4516C80.7667 64.0288 82.1194 63.791 83.5783 63.791C84.9575 63.791 86.2837 64.0288 87.4243 64.4252Z" fill="#D67679"/>
<path d="M154.513 89.0996H33.8848V108H154.513V89.0996Z" fill="#0096A6"/>
<path d="M158.908 92.9384C158.749 93.599 158.536 94.2596 158.271 94.8938C156.282 99.5711 151.163 102.848 141.455 103.271C128.033 103.852 121.933 98.1177 121.137 91.6699C121.111 91.485 121.084 91.2736 121.084 91.0886C121.058 90.8508 121.058 90.6394 121.058 90.4015C120.978 85.5657 122.543 82.2097 125.567 79.9371C125.593 79.9107 125.646 79.8843 125.673 79.8579C128.67 77.6381 133.1 76.449 138.776 75.9205C147.264 75.1013 154.956 77.9288 157.953 83.5574C158.033 83.7159 158.112 83.8481 158.165 84.0066C158.696 85.1165 159.04 86.332 159.173 87.6269C159.359 89.4767 159.279 91.2736 158.908 92.9384Z" fill="#B6724D"/>
<path d="M158.271 94.867C156.282 99.5443 151.163 102.821 141.455 103.244C128.033 103.825 121.933 98.0909 121.137 91.6431C121.084 91.2203 121.058 90.7975 121.058 90.3747C120.978 85.5389 122.543 82.1829 125.567 79.9103C125.593 79.8839 125.646 79.8575 125.673 79.8311C124.904 83.5306 124.691 92.4359 140.314 92.4359C153.285 92.4359 157.582 87.97 157.926 83.5306C158.006 83.6891 158.086 83.8213 158.139 83.9798C158.669 85.0897 159.014 86.3052 159.147 87.6001C159.438 90.2162 159.2 92.7001 158.271 94.867Z" fill="#AD6946"/>
<path d="M158.271 94.8668C156.282 99.5441 151.163 102.821 141.455 103.244C128.033 103.825 121.933 98.0907 121.137 91.643C121.084 91.2202 121.058 90.7974 121.058 90.3746C120.978 85.5387 122.543 82.1827 125.567 79.9102C124.187 84.6931 121.906 98.0379 139.439 98.355C155.884 98.6721 158.483 90.0839 158.165 83.9532C158.696 85.0631 159.04 86.2786 159.173 87.5735C159.438 90.216 159.199 92.7 158.271 94.8668Z" fill="#945339"/>
<path d="M158.271 94.8669C158.855 91.828 159.067 85.5652 156.017 82.632C149.173 75.9993 133.391 76.5806 126.389 81.0729C121.27 84.3761 121.137 91.6694 121.137 91.6694C121.084 91.2466 121.058 90.8238 121.058 90.401C120.898 80.7558 127.264 77.0034 138.776 75.8936C149.12 74.9158 158.298 79.3024 159.2 87.5999C159.438 90.216 159.2 92.7 158.271 94.8669Z" fill="#D59A77"/>
<path d="M158.908 92.9378C158.749 93.5985 158.536 94.2591 158.271 94.8933C156.282 99.5706 151.163 102.847 141.455 103.27C128.033 103.851 121.933 98.1172 121.137 91.6694C121.111 91.4844 121.084 91.273 121.084 91.0881L121.137 91.0088C121.137 91.0088 122.012 102.9 140.845 102.609C152.648 102.424 157.184 96.9545 158.908 92.9378Z" fill="#AD6946"/>
<path d="M11.5907 92.9384C11.7498 93.599 11.962 94.2596 12.2272 94.8938C14.2166 99.5711 19.3358 102.848 29.0437 103.271C42.465 103.852 48.5656 98.1177 49.3613 91.6699C49.3879 91.485 49.4144 91.2736 49.4144 91.0886C49.4409 90.8508 49.4409 90.6394 49.4409 90.4015C49.5205 85.5657 47.9555 82.2097 44.9318 79.9371C44.9052 79.9107 44.8522 79.8843 44.8257 79.8579C41.8284 77.6381 37.3988 76.449 31.7226 75.9205C23.2348 75.1013 15.5428 77.9288 12.5455 83.5574C12.466 83.7159 12.3864 83.8481 12.3333 84.0066C11.8029 85.1165 11.458 86.332 11.3254 87.6269C11.1397 89.4767 11.1928 91.2736 11.5907 92.9384Z" fill="#B6724D"/>
<path d="M12.2269 94.867C14.2162 99.5443 19.3354 102.821 29.0433 103.244C42.4646 103.825 48.5652 98.0909 49.361 91.6431C49.414 91.2203 49.4405 90.7975 49.4405 90.3747C49.5201 85.5389 47.9552 82.1829 44.9314 79.9103C44.9049 79.8839 44.8518 79.8575 44.8253 79.8311C45.5945 83.5306 45.8067 92.4359 30.1839 92.4359C17.2135 92.4359 12.9165 87.97 12.5717 83.5306C12.4922 83.6891 12.4126 83.8213 12.3595 83.9798C11.829 85.0897 11.4842 86.3052 11.3516 87.6001C11.0598 90.2162 11.2986 92.7001 12.2269 94.867Z" fill="#AD6946"/>
<path d="M12.228 94.8668C14.2173 99.5441 19.3365 102.821 29.0444 103.244C42.4657 103.825 48.5663 98.0907 49.3621 91.643C49.4151 91.2202 49.4417 90.7974 49.4417 90.3746C49.5212 85.5387 47.9563 82.1827 44.9325 79.9102C46.3118 84.6931 48.5929 98.0379 31.0603 98.355C14.6152 98.6721 12.0158 90.0839 12.3341 83.9532C11.8036 85.0631 11.4588 86.2786 11.3262 87.5735C11.0609 90.216 11.2996 92.7 12.228 94.8668Z" fill="#945339"/>
<path d="M12.2277 94.8669C11.6442 91.828 11.432 85.5652 14.4823 82.632C21.3255 75.9993 37.1075 76.5806 44.11 81.0729C49.2292 84.3761 49.3618 91.6694 49.3618 91.6694C49.4148 91.2466 49.4413 90.8238 49.4413 90.401C49.6005 80.7558 43.2346 77.0034 31.7231 75.8936C21.3786 74.9158 12.2012 79.3024 11.2993 87.5999C11.0606 90.216 11.2993 92.7 12.2277 94.8669Z" fill="#D59A77"/>
<path d="M11.5918 92.9378C11.7509 93.5985 11.9631 94.2591 12.2284 94.8933C14.2177 99.5706 19.3369 102.847 29.0448 103.27C42.4661 103.851 48.5667 98.1172 49.3625 91.6694C49.389 91.4844 49.4155 91.273 49.4155 91.0881L49.3625 91.0088C49.3625 91.0088 48.4872 102.9 29.6549 102.609C17.8515 102.424 13.3159 96.9545 11.5918 92.9378Z" fill="#AD6946"/>
</g>
<defs>
<clipPath id="clip0_2132_3254">
<rect width="164" height="108" fill="white"/>
</clipPath>
</defs>
</svg>
