<svg width="15" height="15" viewBox="0 0 15 15" fill="none" xmlns="http://www.w3.org/2000/svg">
<path d="M10.7727 15C10.2273 15 9.81818 14.8636 9.27273 14.7273C7.22727 13.9091 5.31818 12.6818 3.68182 11.1818C2.04545 9.68182 0.954545 7.63636 0.136364 5.59091C0 5.04545 0 4.36364 0 3.68182C0.136364 3 0.409091 2.45455 0.681818 1.90909C1.09091 1.36364 1.63636 0.954545 2.18182 0.545455C2.86364 0.136364 3.54545 0 4.22727 0C4.5 0 4.63636 0.136364 4.63636 0.409091L5.45455 3.81818C5.45455 3.95455 5.45455 4.09091 5.31818 4.22727L4.09091 5.45455C5.31818 7.77273 7.22727 9.68182 9.54545 10.9091L10.7727 9.68182C10.9091 9.54545 11.0455 9.54545 11.1818 9.54545L14.5909 10.2273C14.8636 10.2273 15 10.5 15 10.6364C15 11.3182 14.8636 12 14.4545 12.6818C14.1818 13.2273 13.6364 13.7727 13.0909 14.1818C12.5455 14.5909 11.8636 14.8636 11.3182 14.8636C11.1818 15 11.0455 15 10.7727 15ZM3.81818 0.954545C2.86364 1.09091 2.04545 1.5 1.5 2.31818C0.954545 3.27273 0.818182 4.36364 1.09091 5.31818C2.59091 9.27273 5.59091 12.4091 9.68182 13.9091C10.6364 14.3182 11.7273 14.1818 12.6818 13.5C13.5 12.9545 13.9091 12.1364 14.0455 11.1818L11.3182 10.5L9.95455 11.8636C9.81818 12 9.54545 12 9.40909 12C6.68182 10.6364 4.36364 8.45455 3 5.59091C3 5.45455 3 5.18182 3.13636 5.04545L4.5 3.68182L3.81818 0.954545Z" fill="#A7FFEB"/>
<path d="M14.5906 8.04545C14.3179 8.04545 14.1815 7.77273 14.1815 7.63636C14.1815 3.95455 11.1815 1.09091 7.63608 1.09091C7.36335 1.09091 7.22699 0.818182 7.22699 0.681818C7.22699 0.545455 7.22699 0 7.49972 0C9.54517 0 11.4543 0.818182 12.8179 2.18182C14.1815 3.54545 14.9997 5.45455 14.9997 7.5C14.9997 7.77273 14.8634 8.04545 14.5906 8.04545Z" fill="#A7FFEB"/>
<path d="M12.6815 8.0459C12.4088 8.0459 12.2724 7.77317 12.2724 7.50044C12.2724 4.90953 10.227 2.86408 7.63608 2.86408C7.36335 2.86408 7.22699 2.59135 7.22699 2.45499C7.22699 2.31863 7.49972 2.0459 7.63608 2.0459C10.7724 2.0459 13.227 4.63681 13.227 7.63681C13.0906 7.77317 12.9543 8.0459 12.6815 8.0459Z" fill="#A7FFEB"/>
<path d="M10.773 8.04612C10.5003 8.04612 10.3639 7.77339 10.3639 7.63703C10.3639 6.13703 9.13664 4.77339 7.50028 4.77339C7.22755 4.77339 7.09119 4.50067 7.09119 4.3643C7.09119 4.22794 7.36391 3.95521 7.50028 3.95521C9.54573 3.81885 11.3185 5.45521 11.3185 7.50067C11.3185 7.77339 11.0457 8.04612 10.773 8.04612Z" fill="#A7FFEB"/>
</svg>
