<svg width="60" height="62" viewBox="0 0 60 62" fill="none" xmlns="http://www.w3.org/2000/svg">
<path d="M57.6355 27.7987C57.8619 26.5157 57.9625 25.2075 57.9625 23.8994C57.9625 20.2767 57.409 16.9057 56.4782 14.0629C57.409 12.7296 57.9625 11.0189 57.9625 9.13207C57.9625 4.8805 55.1197 1.45912 51.6229 1.45912C50.038 1.45912 48.5788 2.16352 47.4468 3.34591C44.3021 1.38365 37.6355 0 29.887 0C22.2644 0 15.648 1.33333 12.4531 3.2956C11.3461 2.16352 9.91218 1.48428 8.35243 1.48428C4.85557 1.45912 2.03796 4.90566 2.03796 9.15723C2.03796 11.044 2.61658 12.7799 3.5474 14.1384C2.61658 16.9811 2.08828 20.3522 2.08828 23.9497C2.08828 24.2264 2.08828 24.478 2.11344 24.7547H49.1323C52.3524 24.7296 55.321 25.8868 57.6355 27.7987Z" fill="#664535"/>
<path d="M21.3835 9.9871C20.4276 8.4022 18.3647 7.89905 16.7798 8.85503C15.1949 9.811 14.6917 11.8739 15.6477 13.4588C16.3018 14.5406 17.4842 15.1192 18.6666 15.0689C18.0879 14.9179 17.5848 14.5406 17.2578 13.9871C16.5534 12.8299 16.9307 11.3456 18.0628 10.6412C19.22 9.93679 20.7043 10.3141 21.4087 11.4462C21.6351 11.7984 21.7357 12.2009 21.7609 12.6035C21.9873 11.7733 21.8867 10.8173 21.3835 9.9871Z" fill="white"/>
<path d="M43.2195 8.85503C41.6346 7.89905 39.5717 8.4022 38.6157 9.9871C38.1126 10.8173 38.012 11.7733 38.2635 12.6286C38.2887 12.2261 38.3893 11.8487 38.6157 11.4714C39.3201 10.3141 40.8044 9.96195 41.9617 10.6663C43.1189 11.3708 43.4711 12.855 42.7667 14.0123C42.4396 14.5657 41.9113 14.9179 41.3579 15.094C42.5403 15.1443 43.7227 14.5657 44.3767 13.484C45.3076 11.8739 44.8044 9.811 43.2195 8.85503Z" fill="white"/>
<path d="M43.7232 19.9494C42.8679 17.2073 38.4905 12.1759 34.893 8.37712C32.0754 5.38341 27.9496 5.38341 25.132 8.37712C21.5597 12.1759 17.1572 17.2325 16.3018 19.9494C15.7987 21.5344 15.6981 23.1696 15.9245 24.7042H44.1006C44.327 23.1696 44.2264 21.5344 43.7232 19.9494ZM35.0691 20.0501C34.8679 20.2765 33.6855 21.3331 30.2641 21.3834C30.2138 21.3834 30.1886 21.3834 30.1383 21.3834C30.088 21.3834 30.0628 21.3834 30.0125 21.3834C26.5911 21.3331 25.4088 20.2765 25.2075 20.0501C24.8553 19.6979 24.8805 19.1193 25.2327 18.7922C25.5849 18.44 26.1635 18.4652 26.4905 18.8174C26.4905 18.8174 27.1949 19.3708 29.1069 19.5469V16.7545C28.0251 15.874 26.2893 14.3897 25.9874 13.6601C25.5345 12.5281 26.1635 11.2954 27.3962 10.8928C28.3522 10.5658 29.3836 10.8677 30.0125 11.5218C30.6415 10.8425 31.6729 10.5658 32.6289 10.8928C33.8364 11.2954 34.4654 12.5281 34.0377 13.6601C33.7358 14.4149 32 15.8991 30.9182 16.7796V19.5972C33.0314 19.4715 33.7861 18.8677 33.7861 18.8425C34.1383 18.4903 34.6918 18.4652 35.044 18.8174C35.3962 19.1193 35.3962 19.6979 35.0691 20.0501Z" fill="white"/>
<path d="M49.1069 27.1699H0V50.8177C0 56.8051 4.8805 61.6856 10.8679 61.6856H49.1321C55.1195 61.6856 60 56.8051 60 50.8177V38.0378C59.9748 32.0504 55.0943 27.1699 49.1069 27.1699Z" fill="white"/>
<path d="M16.4025 40.3773C16.4025 41.283 16.0754 41.9874 15.3962 42.4906C14.7924 42.9685 14.0377 43.195 13.1069 43.195C12.6289 43.195 12.1761 43.1195 11.7484 42.9937C11.2201 42.8428 10.8176 42.6163 10.5912 42.3396C10.4654 42.1635 10.3899 42.0126 10.3899 41.8365C10.3899 41.5597 10.4905 41.3585 10.6666 41.2075C10.8427 41.0566 11.0691 40.9811 11.3459 40.9811C11.4968 40.9811 11.7987 41.0566 12.2515 41.1824C12.7547 41.3333 13.132 41.3836 13.4088 41.3836C13.6855 41.3836 13.9119 41.3082 14.088 41.1572C14.2641 41.0063 14.3647 40.805 14.3647 40.5283C14.3647 40.1761 14.2389 39.9497 13.9622 39.7987C13.7358 39.6729 13.3584 39.522 12.8805 39.3711C12.1257 39.1446 11.5723 38.8931 11.2201 38.5912C10.7421 38.1887 10.4905 37.6604 10.4905 36.9811C10.4905 36.1509 10.7924 35.4968 11.4213 34.9937C12 34.5409 12.7044 34.3145 13.5597 34.3145C14.2641 34.3145 14.8427 34.4402 15.2452 34.6918C15.6729 34.9434 15.8742 35.2201 15.8742 35.5472C15.8742 36.1006 15.5723 36.3773 14.9937 36.3773C14.8176 36.3773 14.566 36.327 14.2641 36.2264C13.9622 36.1258 13.6855 36.0755 13.5094 36.0755C13.2578 36.0755 13.0314 36.1258 12.8553 36.2516C12.654 36.3773 12.5534 36.5534 12.5534 36.805C12.5534 36.956 12.5786 37.0818 12.654 37.1824C12.7547 37.3082 12.9559 37.4591 13.3081 37.5849C13.5597 37.6604 13.8113 37.7358 14.0628 37.8113C14.7924 38.0629 15.3459 38.3648 15.6981 38.6918C16.1761 39.1195 16.4025 39.6981 16.4025 40.3773Z" fill="#13B0B1"/>
<path d="M22.2382 40.3522H22.2885L23.4206 35.4717C23.4961 35.1195 23.6722 34.8428 23.9237 34.6415C24.1753 34.4402 24.4772 34.3145 24.8294 34.3145C25.2319 34.3145 25.5589 34.4402 25.8608 34.6918C26.1376 34.9434 26.3137 35.2704 26.3891 35.6729L27.3451 41.5849C27.3954 41.8868 27.4206 42.088 27.4206 42.239C27.4206 42.8679 27.1187 43.195 26.5401 43.195C26.1879 43.195 25.9363 43.0692 25.7854 42.7924C25.6847 42.6163 25.5841 42.3396 25.5338 41.9371L24.7791 37.2075H24.7539L23.647 41.5849C23.5212 42.0377 23.3954 42.3648 23.2445 42.5409C23.0181 42.8176 22.7162 42.9434 22.3137 42.9434C21.9111 42.9434 21.5841 42.8176 21.3828 42.5409C21.2319 42.3648 21.1061 42.0377 20.9803 41.5849L19.8483 37.2075H19.8231L19.0935 41.9623C19.0181 42.3648 18.9426 42.6667 18.842 42.8428C18.6659 43.0943 18.4143 43.2201 18.0621 43.2201C17.4583 43.2201 17.1564 42.8931 17.1564 42.2641C17.1564 42.1635 17.1816 41.9371 17.2319 41.6101L18.1879 35.6981C18.2634 35.2956 18.4143 34.9685 18.7162 34.717C18.9929 34.4654 19.3451 34.3396 19.7225 34.3396C20.0747 34.3396 20.3766 34.4402 20.6281 34.6667C20.8797 34.8931 21.0558 35.1698 21.1313 35.522L22.2382 40.3522Z" fill="#13B0B1"/>
<path d="M32.0498 34.3145C32.7542 34.3145 33.2322 34.6918 33.5089 35.4465L35.6976 41.6855C35.7982 41.9623 35.8485 42.1635 35.8485 42.3145C35.8485 42.5912 35.7479 42.7924 35.5718 42.9685C35.3705 43.1446 35.1441 43.2201 34.8925 43.2201C34.3894 43.2201 34.0372 42.9182 33.8359 42.2893L33.5089 41.283H30.4397L30.0875 42.3648C29.8862 42.9434 29.5844 43.2201 29.1315 43.2201C28.8548 43.2201 28.6284 43.1446 28.4523 42.9685C28.2762 42.7924 28.2007 42.566 28.2007 42.2893C28.2007 42.088 28.2259 41.8868 28.3013 41.7107L30.5655 35.5975C30.8422 34.7421 31.3454 34.3145 32.0498 34.3145ZM31.9743 36.4528L30.9932 39.4968H32.9554L31.9743 36.4528Z" fill="#13B0B1"/>
<path d="M38.5902 39.6722V41.8105C38.5902 42.7413 38.2632 43.2193 37.6091 43.2193C36.955 43.2193 36.628 42.7413 36.628 41.8105V35.8231C36.628 35.32 36.7286 34.9426 36.9298 34.7413C37.1311 34.5401 37.4833 34.4395 38.0116 34.4395H39.5462C40.5022 34.4395 41.2569 34.6407 41.8607 35.0684C42.5148 35.5464 42.867 36.2508 42.867 37.1564C42.867 37.8105 42.6909 38.3137 42.3135 38.7413C41.9361 39.1439 41.433 39.3954 40.8041 39.4961L42.3638 41.2319C42.7412 41.6596 42.9424 42.0369 42.9424 42.364C42.9424 42.6407 42.8418 42.8671 42.6657 43.0181C42.4896 43.1942 42.2632 43.2696 41.9864 43.2696C41.6594 43.2696 41.3072 43.0432 40.9298 42.5652L38.5902 39.6722ZM38.5902 38.364H39.4959C40.3261 38.364 40.7537 38.0118 40.7537 37.2822C40.7537 36.603 40.3512 36.2508 39.521 36.2508H38.5902V38.364Z" fill="#13B0B1"/>
<path d="M45.3577 36.2759C44.6533 36.2759 44.2005 36.2508 44.0244 36.2256C43.4961 36.125 43.2194 35.8231 43.2194 35.3703C43.2194 34.7413 43.6973 34.4395 44.6282 34.4395H48.0495C48.9804 34.4395 49.4584 34.7413 49.4584 35.3703C49.4584 35.8231 49.1816 36.125 48.6533 36.2256C48.4772 36.2759 48.0244 36.2759 47.32 36.2759V41.8105C47.32 42.7413 46.9929 43.2193 46.3389 43.2193C45.6848 43.2193 45.3577 42.7413 45.3577 41.8105V36.2759Z" fill="#13B0B1"/>
<path d="M13.8361 48.5289C13.1317 48.5289 12.6788 48.5037 12.5027 48.4785C11.9744 48.3779 11.6977 48.076 11.6977 47.6232C11.6977 46.9943 12.1757 46.6924 13.1065 46.6924H16.553C17.4839 46.6924 17.9618 46.9943 17.9618 47.6232C17.9618 48.076 17.6851 48.3779 17.1568 48.4785C16.9807 48.5289 16.5279 48.5289 15.8235 48.5289V54.0634C15.8235 54.9943 15.4964 55.4723 14.8423 55.4723C14.1883 55.4723 13.8612 54.9943 13.8612 54.0634V48.5289H13.8361Z" fill="#13B0B1"/>
<path d="M22.3392 46.6914C23.27 46.6914 23.748 46.9933 23.748 47.6222C23.748 48.226 23.27 48.5279 22.3392 48.5279H20.7291V50.0625H22.1127C23.0436 50.0625 23.5216 50.3644 23.5216 50.9681C23.5216 51.5719 23.0436 51.8738 22.1127 51.8738H20.7291V53.5342H22.3895C23.3203 53.5342 23.7983 53.8361 23.7983 54.4398C23.7983 55.0436 23.3203 55.3455 22.3895 55.3455H20.075C19.5719 55.3455 19.2197 55.27 19.0184 55.0939C18.8172 54.9178 18.7165 54.5908 18.7165 54.1128V48.0751C18.7165 47.5719 18.8172 47.1946 19.0184 46.9933C19.2197 46.792 19.5719 46.6914 20.1002 46.6914H22.3392Z" fill="#13B0B1"/>
<path d="M27.9491 46.6914C29.0308 46.6914 29.9113 46.8927 30.5402 47.2952C31.144 47.6725 31.5969 48.2008 31.9239 48.8801C32.2258 49.509 32.3767 50.1883 32.3767 50.943C32.3767 52.2763 31.9994 53.3329 31.2698 54.1379C30.5151 54.9681 29.4585 55.3707 28.1503 55.3707H26.339C25.8358 55.3707 25.4836 55.2952 25.2824 55.1191C25.0811 54.943 24.9805 54.6159 24.9805 54.1379V48.1002C24.9805 47.5971 25.0811 47.2197 25.2824 47.0184C25.4836 46.8172 25.8358 46.7166 26.3641 46.7166H27.9491V46.6914ZM26.9679 53.5342H27.8736C29.4333 53.5342 30.2384 52.6537 30.2384 50.9178C30.2384 49.3329 29.4333 48.5279 27.8484 48.5279H26.9931V53.5342H26.9679Z" fill="#13B0B1"/>
<path d="M36.4021 46.6914C37.4838 46.6914 38.3643 46.8927 38.9933 47.2952C39.597 47.6725 40.0499 48.2008 40.3769 48.8801C40.6788 49.509 40.8297 50.1883 40.8297 50.943C40.8297 52.2763 40.4524 53.3329 39.7228 54.1379C38.9681 54.9681 37.9115 55.3707 36.6033 55.3707H34.792C34.2889 55.3707 33.9366 55.2952 33.7354 55.1191C33.5341 54.943 33.4335 54.6159 33.4335 54.1379V48.1002C33.4335 47.5971 33.5341 47.2197 33.7354 47.0184C33.9366 46.8172 34.2888 46.7166 34.8172 46.7166H36.4021V46.6914ZM35.4209 53.5342H36.3266C37.8863 53.5342 38.6914 52.6537 38.6914 50.9178C38.6914 49.3329 37.8863 48.5279 36.3014 48.5279H35.4461V53.5342H35.4209Z" fill="#13B0B1"/>
<path d="M46.7415 46.5664C46.9679 46.5664 47.1692 46.667 47.3453 46.8431C47.5214 47.0192 47.5969 47.2205 47.5969 47.4469C47.5969 47.6733 47.4459 48.0004 47.144 48.4532L45.1566 51.2708V54.0633C45.1566 54.9941 44.8296 55.4469 44.1755 55.4469C43.5214 55.4469 43.1943 54.9941 43.1943 54.0633V51.2708L41.1818 48.4532C40.8799 48.0507 40.7541 47.6985 40.7541 47.4469C40.7541 47.1953 40.8547 46.9941 41.0308 46.818C41.2321 46.6419 41.4585 46.5664 41.7101 46.5664C42.0371 46.5664 42.3642 46.818 42.7164 47.3211L44.2006 49.4343L45.6849 47.296C46.012 46.818 46.3642 46.5664 46.7415 46.5664Z" fill="#13B0B1"/>
</svg>
