<svg width="50" height="50" viewBox="0 0 50 50" fill="none" xmlns="http://www.w3.org/2000/svg">
<circle cx="25" cy="25" r="25" fill="#0096A6"/>
<path d="M18.5014 25C18.5014 21.4156 21.4178 18.5 25.0014 18.5C28.5851 18.5 31.5014 21.4156 31.5014 25C31.5014 28.5844 28.5851 31.5 25.0014 31.5C21.4178 31.5 18.5014 28.5844 18.5014 25ZM21.0014 25C21.0014 27.2055 22.7949 29 25.0014 29C27.2079 29 29.0014 27.2055 29.0014 25C29.0014 22.7945 27.208 21 25.0014 21C22.7949 21 21.0014 22.7945 21.0014 25Z" fill="white" stroke="#0096A6"/>
<path d="M32.8853 17.1161L32.8853 17.1161C33.3734 17.6043 33.3734 18.3957 32.8853 18.8839L32.8853 18.8839C32.3971 19.372 31.6057 19.372 31.1175 18.8839L31.1175 18.8839C30.6294 18.3957 30.6294 17.6043 31.1175 17.1161L31.1175 17.1161C31.6057 16.628 32.3971 16.628 32.8853 17.1161Z" fill="white" stroke="#0096A6"/>
<path d="M19.75 11.5H30.2501C34.7984 11.5 38.5001 15.2017 38.5001 19.75V30.2501C38.5001 34.7984 34.7984 38.5001 30.2501 38.5001H19.75C15.2017 38.5001 11.5 34.7984 11.5 30.2501V19.75C11.5 15.2017 15.2017 11.5 19.75 11.5ZM30.2501 36.0001C33.4212 36.0001 36.0001 33.4212 36.0001 30.2501V19.75C36.0001 16.5788 33.4212 14 30.2501 14H19.75C16.5788 14 14 16.5788 14 19.75V30.2501C14 33.4212 16.5788 36.0001 19.75 36.0001H30.2501Z" fill="white" stroke="#0096A6"/>
</svg>
