<svg width="15" height="11" viewBox="0 0 15 11" fill="none" xmlns="http://www.w3.org/2000/svg">
<path d="M13.6486 0H1.35135C0.675676 0 0 0.540541 0 1.35135V9.18919C0 9.86486 0.54054 10.5405 1.35135 10.5405H13.6486C14.3243 10.5405 15 10 15 9.18919V1.35135C14.8649 0.540541 14.3243 0 13.6486 0ZM13.3784 0.945947C13.1081 1.21622 8.51351 5.81081 8.37838 5.94595C8.10811 6.08108 7.83784 6.21622 7.43243 6.21622C7.02703 6.21622 6.75676 6.08108 6.48649 5.94595C6.35135 5.81081 1.89189 1.35135 1.48649 0.945947H13.3784ZM0.810811 9.05406V1.62162L4.59459 5.40541L0.810811 9.05406ZM1.48649 9.59459L5.27027 5.81081L5.94595 6.48649C6.35135 6.89189 6.89189 7.16216 7.43243 7.16216C7.97297 7.16216 8.51351 6.89189 8.91892 6.48649L9.59459 5.81081L13.3784 9.59459H1.48649ZM14.0541 9.05406L10.2703 5.27027L14.0541 1.48649V9.05406Z" fill="#A7FFEB"/>
</svg>
