<svg width="300" height="45" viewBox="0 0 300 45" fill="none" xmlns="http://www.w3.org/2000/svg">
<rect width="300" height="45" rx="22.5" fill="white"/>
<g clip-path="url(#clip0_1919_82)">
<path fill-rule="evenodd" clip-rule="evenodd" d="M43.1053 35.1126L47.1294 11.3799H53.625L49.5693 35.1126H43.1053Z" fill="#01549A"/>
<path fill-rule="evenodd" clip-rule="evenodd" d="M73.0168 11.9823C71.7494 11.5387 69.7215 11 67.2183 11C60.8178 11 56.3184 14.2003 56.2867 18.8264C56.255 22.2168 59.4869 24.1179 61.9584 25.2586C64.4616 26.431 65.3171 27.1598 65.2855 28.2054C65.2855 29.8214 63.2892 30.5185 61.4198 30.5185C58.8215 30.5185 57.4591 30.1699 55.3361 29.2827L54.4806 28.9025L53.5934 34.194C55.0826 34.8911 57.871 35.4298 60.7861 35.4615C67.5985 35.4615 71.9712 32.2929 72.0345 27.3499C72.0662 24.6566 70.3235 22.597 66.6163 20.9177C64.3666 19.8403 62.9724 19.1116 62.9724 18.0026C62.9724 16.9886 64.1448 15.943 66.6796 15.943C68.8026 15.9113 70.3552 16.3549 71.5276 16.8619L72.1296 17.1154L73.0168 11.9823Z" fill="#01549A"/>
<path fill-rule="evenodd" clip-rule="evenodd" d="M89.5884 11.4121H84.5821C83.0295 11.4121 81.8571 11.824 81.1917 13.3766L71.6226 35.1131H78.3716C78.3716 35.1131 79.4806 32.1663 79.7341 31.5326C80.4946 31.5326 87.0536 31.5326 88.0041 31.5326C88.1943 32.3564 88.7963 35.1131 88.7963 35.1131H94.7849L89.5884 11.4121ZM81.6036 26.6847C82.1423 25.3539 84.2018 20.094 84.2018 20.094C84.1385 20.1574 84.7405 18.7315 85.0574 17.8443L85.4693 19.8722C85.4693 19.8722 86.705 25.544 86.9585 26.7164H81.6036V26.6847Z" fill="#01549A"/>
<path fill-rule="evenodd" clip-rule="evenodd" d="M37.6869 11.4121L31.3498 27.5719L30.6844 24.3082C29.512 20.5059 25.8048 16.4185 21.7173 14.3589L27.5158 35.0814H34.3599L44.5311 11.4121H37.6869Z" fill="#01549A"/>
<path fill-rule="evenodd" clip-rule="evenodd" d="M25.488 11.3799H15.0634L15 11.9185C23.0799 13.8831 28.4665 18.6043 30.6845 24.3077L28.4031 13.4078C28.0229 11.9185 26.9139 11.4433 25.488 11.3799Z" fill="#F7A707"/>
</g>
<g clip-path="url(#clip1_1919_82)">
<path d="M158.152 37.2939H142.329V8.86328H158.152V37.2939Z" fill="#EA5E20"/>
<path d="M143.347 23.0901C143.347 17.33 146.053 12.1944 150.263 8.88637C147.164 6.43426 143.3 5 139.067 5C129.097 5 121 13.0966 121 23.0901C121 33.0837 129.097 41.1571 139.067 41.1571C143.277 41.1571 147.164 39.7229 150.24 37.2939C146.053 33.9859 143.347 28.8503 143.347 23.0901Z" fill="#DE1E26"/>
<path d="M179.504 23.0901C179.504 33.0837 171.407 41.1571 161.437 41.1571C157.226 41.1571 153.34 39.7229 150.263 37.2939C154.474 33.9859 157.157 28.8503 157.157 23.0901C157.157 17.33 154.45 12.1944 150.263 8.88637C153.317 6.43426 157.203 5 161.413 5C171.407 5 179.504 13.0966 179.504 23.0901Z" fill="#F59F0D"/>
<path d="M172.679 23.9926C172.679 23.0904 173.258 22.3733 174.183 22.3733C175.062 22.3733 175.64 23.0673 175.64 23.9926C175.64 24.9179 175.062 25.6119 174.183 25.6119C173.258 25.6119 172.679 24.8948 172.679 23.9926ZM176.566 23.9926V19.6436H175.594V22.1651C175.27 21.7255 174.715 21.4711 174.044 21.4711C172.703 21.4711 171.662 22.5352 171.662 23.9926C171.662 25.45 172.679 26.5141 174.044 26.5141C174.738 26.5141 175.27 26.2365 175.594 25.8201V26.3984H176.566V23.9926ZM162.987 23.9926C162.987 23.0904 163.565 22.3733 164.49 22.3733C165.369 22.3733 165.948 23.0673 165.948 23.9926C165.948 24.9179 165.369 25.6119 164.49 25.6119C163.542 25.6119 162.987 24.8948 162.987 23.9926ZM166.873 23.9926V21.5867H165.901V22.1651C165.578 21.7255 165.022 21.4711 164.352 21.4711C163.01 21.4711 161.969 22.5352 161.969 23.9926C161.969 25.45 162.987 26.5141 164.352 26.5141C165.045 26.5141 165.578 26.2365 165.901 25.8201V26.3984H166.873V23.9926ZM170.574 21.4711C169.973 21.4711 169.533 21.7487 169.279 22.1651V21.5867H168.33V26.3984H169.302V23.6919C169.302 22.9053 169.695 22.3964 170.366 22.3964C170.574 22.3964 170.806 22.4195 171.014 22.5121L171.338 21.6099C171.083 21.4942 170.783 21.4711 170.574 21.4711ZM133.469 23.9926C133.469 23.0904 134.047 22.3733 134.972 22.3733C135.851 22.3733 136.43 23.0673 136.43 23.9926C136.43 24.9179 135.851 25.6119 134.972 25.6119C134.047 25.6119 133.469 24.8948 133.469 23.9926ZM137.355 23.9926V21.5867H136.384V22.1651C136.06 21.7255 135.504 21.4711 134.834 21.4711C133.492 21.4711 132.451 22.5352 132.451 23.9926C132.451 25.45 133.492 26.5141 134.834 26.5141C135.528 26.5141 136.06 26.2365 136.384 25.8201V26.3984H137.355V23.9926ZM150.379 22.3501C151.096 22.3501 151.582 22.8128 151.651 23.5762H149.06C149.13 22.8591 149.593 22.3501 150.379 22.3501ZM150.379 21.4711C148.968 21.4711 147.996 22.4889 147.996 23.9926C147.996 25.5194 148.991 26.5372 150.448 26.5372C151.166 26.5372 151.836 26.3522 152.415 25.8664L151.906 25.1492C151.513 25.4731 150.981 25.6582 150.518 25.6582C149.847 25.6582 149.153 25.2649 149.037 24.409H152.623C152.623 24.2702 152.646 24.1545 152.646 24.0157C152.646 22.4658 151.744 21.4711 150.379 21.4711ZM157.157 23.9926C157.157 25.45 158.129 26.5141 159.679 26.5141C160.396 26.5141 160.882 26.3522 161.414 25.9358L160.905 25.1724C160.511 25.45 160.095 25.6119 159.655 25.6119C158.823 25.6119 158.175 24.941 158.175 23.9926C158.175 23.021 158.823 22.3733 159.655 22.3733C160.118 22.3733 160.511 22.5352 160.905 22.8128L161.414 22.0494C160.882 21.633 160.419 21.4711 159.679 21.4711C158.129 21.4711 157.157 22.5352 157.157 23.9926ZM142.56 21.9569C142.051 21.633 141.357 21.4479 140.594 21.4479C139.368 21.4479 138.627 22.0263 138.627 22.9747C138.627 23.7613 139.159 24.2239 140.247 24.3859L140.733 24.4553C141.311 24.5247 141.612 24.7328 141.612 25.0104C141.612 25.3806 141.195 25.635 140.478 25.635C139.715 25.635 139.229 25.4037 138.882 25.1261L138.396 25.8895C139.113 26.4216 139.969 26.5141 140.478 26.5141C141.866 26.5141 142.629 25.8664 142.629 24.9642C142.629 24.1083 142.051 23.6919 140.987 23.5299L140.501 23.4605C140.039 23.3911 139.645 23.2523 139.645 22.9285C139.645 22.5815 140.039 22.327 140.594 22.327C141.218 22.327 141.797 22.5583 142.097 22.7434L142.56 21.9569ZM156.047 21.4711C155.445 21.4711 155.006 21.7487 154.728 22.1651V21.5867H153.78V26.3984H154.751V23.6919C154.751 22.9053 155.145 22.3964 155.815 22.3964C156.024 22.3964 156.255 22.4195 156.463 22.5121L156.787 21.6099C156.556 21.4942 156.255 21.4711 156.047 21.4711ZM147.14 21.5867H145.382V20.1294H144.411V21.5867H143.393V22.4658H144.411V24.7328C144.411 25.8432 144.804 26.5141 146.03 26.5141C146.493 26.5141 147.002 26.3753 147.325 26.144L147.025 25.288C146.724 25.4731 146.377 25.5656 146.099 25.5656C145.567 25.5656 145.359 25.2418 145.359 24.756V22.4658H147.117V21.5867H147.14ZM131.456 26.3984V23.368C131.456 22.2345 130.762 21.4711 129.605 21.4711C129.004 21.4711 128.356 21.6561 127.917 22.327C127.593 21.7949 127.061 21.4711 126.321 21.4711C125.812 21.4711 125.256 21.6099 124.863 22.1651V21.5867H123.892V26.3984H124.863V23.6225C124.863 22.7897 125.372 22.3501 126.089 22.3501C126.783 22.3501 127.177 22.8128 127.177 23.6225V26.3984H128.171V23.6225C128.171 22.7897 128.703 22.3501 129.397 22.3501C130.114 22.3501 130.485 22.8128 130.485 23.6225V26.3984H131.456Z" fill="white"/>
</g>
<path d="M217.752 37.0004V24.8809H230.584L231.961 26.6756L233.383 24.8809H279.961V36.1645C279.961 36.1645 278.743 36.9882 277.335 37.0004H251.543L249.991 35.0899V37.0004H244.904V33.7391C244.904 33.7391 244.21 34.1944 242.707 34.1944H240.976V37.0004H233.274L231.9 35.1671L230.504 37.0004H217.752Z" fill="#016FD0"/>
<path d="M202.766 15.7463L205.66 9H210.664L212.306 12.779V9H218.527L219.505 11.7314L220.453 9H248.378V10.3731C248.378 10.3731 249.846 9 252.259 9L261.32 9.03167L262.934 12.7612V9H268.14L269.573 11.1423V9H274.826V21.1195H269.573L268.2 18.9702V21.1195H260.551L259.782 19.209H257.725L256.969 21.1195H251.781C249.705 21.1195 248.378 19.7744 248.378 19.7744V21.1195H240.557L239.005 19.209V21.1195H209.923L209.154 19.209H207.105L206.341 21.1195H202.766V15.7463Z" fill="#016FD0"/>
<path d="M206.684 10.4932L202.781 19.5679H205.322L206.042 17.7507H210.229L210.945 19.5679H213.542L209.643 10.4932H206.684ZM208.128 12.6051L209.404 15.7805H206.848L208.128 12.6051Z" fill="white"/>
<path d="M213.811 19.5669V10.4922L217.422 10.5056L219.522 16.3564L221.572 10.4922H225.154V19.5669H222.886V12.8803L220.481 19.5669H218.491L216.08 12.8803V19.5669H213.811Z" fill="white"/>
<path d="M226.706 19.5669V10.4922H234.109V12.5221H228.999V14.0743H233.99V15.9848H228.999V17.5967H234.109V19.5669H226.706Z" fill="white"/>
<path d="M235.423 10.4932V19.5679H237.692V16.344H238.647L241.367 19.5679H244.14L241.154 16.2246C242.38 16.1212 243.643 15.0697 243.643 13.4372C243.643 11.5276 242.144 10.4932 240.472 10.4932H235.423ZM237.692 12.523H240.285C240.907 12.523 241.36 13.0097 241.36 13.4783C241.36 14.0811 240.773 14.4335 240.319 14.4335H237.692V12.523Z" fill="white"/>
<path d="M246.886 19.5669H244.569V10.4922H246.886V19.5669Z" fill="white"/>
<path d="M252.379 19.5669H251.879C249.459 19.5669 247.99 17.6609 247.99 15.0669C247.99 12.4087 249.443 10.4922 252.498 10.4922H255.005V12.6415H252.406C251.166 12.6415 250.289 13.6093 250.289 15.0892C250.289 16.8467 251.292 17.5848 252.737 17.5848H253.334L252.379 19.5669Z" fill="white"/>
<path d="M257.315 10.4932L253.412 19.5679H255.953L256.673 17.7507H260.86L261.576 19.5679H264.174L260.274 10.4932H257.315ZM258.759 12.6051L260.035 15.7805H257.479L258.759 12.6051Z" fill="white"/>
<path d="M264.438 19.5669V10.4922H267.322L271.005 16.1937V10.4922H273.274V19.5669H270.483L266.707 13.7161V19.5669H264.438Z" fill="white"/>
<path d="M219.303 35.4487V26.374H226.706V28.4039H221.596V29.9562H226.587V31.8666H221.596V33.4786H226.706V35.4487H219.303Z" fill="white"/>
<path d="M255.579 35.4487V26.374H262.982V28.4039H257.871V29.9562H262.839V31.8666H257.871V33.4786H262.982V35.4487H255.579Z" fill="white"/>
<path d="M226.994 35.4487L230.598 30.9673L226.908 26.374H229.766L231.964 29.2136L234.169 26.374H236.916L233.274 30.9114L236.885 35.4487H234.027L231.893 32.6539L229.811 35.4487H226.994Z" fill="white"/>
<path d="M237.154 26.375V35.4497H239.483V32.584H241.871C243.891 32.584 245.423 31.512 245.423 29.4273C245.423 27.7003 244.222 26.375 242.166 26.375H237.154ZM239.483 28.4273H241.998C242.65 28.4273 243.117 28.8274 243.117 29.472C243.117 30.0777 242.653 30.5168 241.99 30.5168H239.483V28.4273Z" fill="white"/>
<path d="M246.408 26.374V35.4487H248.677V32.2248H249.632L252.353 35.4487H255.125L252.14 32.1054C253.365 32.002 254.629 30.9506 254.629 29.3181C254.629 27.4084 253.13 26.374 251.457 26.374H246.408ZM248.677 28.4039H251.27C251.893 28.4039 252.345 28.8905 252.345 29.3591C252.345 29.962 251.759 30.3144 251.304 30.3144H248.677V28.4039Z" fill="white"/>
<path d="M264.032 35.4487V33.4786H268.572C269.244 33.4786 269.535 33.1155 269.535 32.7174C269.535 32.3359 269.245 31.9502 268.572 31.9502H266.52C264.737 31.9502 263.744 30.8636 263.744 29.2323C263.744 27.7772 264.653 26.374 267.304 26.374H271.721L270.766 28.4158H266.945C266.215 28.4158 265.99 28.7991 265.99 29.1651C265.99 29.5413 266.268 29.9562 266.826 29.9562H268.975C270.963 29.9562 271.826 31.0839 271.826 32.5606C271.826 34.1483 270.865 35.4487 268.867 35.4487H264.032Z" fill="white"/>
<path d="M272.359 35.4487V33.4786H276.899C277.571 33.4786 277.862 33.1155 277.862 32.7174C277.862 32.3359 277.572 31.9502 276.899 31.9502H274.847C273.064 31.9502 272.071 30.8636 272.071 29.2323C272.071 27.7772 272.98 26.374 275.63 26.374H280.048L279.093 28.4158H275.272C274.542 28.4158 274.317 28.7991 274.317 29.1651C274.317 29.5413 274.595 29.9562 275.153 29.9562H277.302C279.29 29.9562 280.153 31.0839 280.153 32.5606C280.153 34.1483 279.192 35.4487 277.194 35.4487H272.359Z" fill="white"/>
<defs>
<clipPath id="clip0_1919_82">
<rect width="79.7849" height="24.4615" fill="white" transform="translate(15 11)"/>
</clipPath>
<clipPath id="clip1_1919_82">
<rect width="58.5038" height="36.1571" fill="white" transform="translate(121 5)"/>
</clipPath>
</defs>
</svg>
