<svg width="50" height="50" viewBox="0 0 50 50" fill="none" xmlns="http://www.w3.org/2000/svg">
<circle cx="25" cy="25" r="25" fill="#0096A6"/>
<path fill-rule="evenodd" clip-rule="evenodd" d="M38.72 18.5298C38.72 18.5298 38.4461 16.4723 37.607 15.5664C36.5421 14.3768 35.3486 14.3713 34.8018 14.3023C30.8835 14 25.0061 14 25.0061 14H24.9939C24.9939 14 19.1165 14 15.1982 14.3023C14.6505 14.3713 13.4579 14.3768 12.3921 15.5664C11.553 16.4725 11.28 18.5298 11.28 18.5298C11.28 18.5298 11 20.9465 11 23.3621V25.6275C11 28.044 11.28 30.4598 11.28 30.4598C11.28 30.4598 11.553 32.5173 12.3921 33.4231C13.4579 34.6127 14.857 34.5754 15.48 34.6996C17.72 34.9291 25 35 25 35C25 35 30.8835 34.9907 34.8018 34.6885C35.3486 34.6185 36.5421 34.613 37.607 33.4234C38.4461 32.5173 38.72 30.46 38.72 30.46C38.72 30.46 39 28.0442 39 25.6275V23.3621C39 20.9465 38.72 18.5298 38.72 18.5298ZM22.109 28.3727L22.1081 19.9837L29.6734 24.1926L22.109 28.3727Z" fill="white"/>
</svg>
