<svg width="249" height="311" viewBox="0 0 249 311" fill="none" xmlns="http://www.w3.org/2000/svg">
<path d="M133.336 310.996C197.216 310.996 249 289.969 249 264.031C249 238.092 197.216 217.065 133.336 217.065C69.4565 217.065 17.6719 238.092 17.6719 264.031C17.6719 289.969 69.4565 310.996 133.336 310.996Z" fill="#AC61C8"/>
<path d="M133.42 303.24C193.017 303.24 241.329 285.589 241.329 263.816C241.329 242.042 193.017 224.391 133.42 224.391C73.8241 224.391 25.5117 242.042 25.5117 263.816C25.5117 285.589 73.8241 303.24 133.42 303.24Z" fill="#9B5AB3"/>
<path d="M137.339 292.425C186.78 292.425 226.86 279.288 226.86 263.083C226.86 246.877 186.78 233.74 137.339 233.74C87.8982 233.74 47.8184 246.877 47.8184 263.083C47.8184 279.288 87.8982 292.425 137.339 292.425Z" fill="#7C4191"/>
<path d="M4.16047 257.653C7.07918 267.865 12.7081 275.19 19.8381 279.843C23.4656 282.213 27.5101 283.893 31.7631 284.884C33.5977 285.315 35.474 285.617 37.392 285.832C47.6075 286.866 58.782 284.411 69.0391 278.852C89.9704 267.52 105.398 255.973 105.398 255.973L90.0121 216.677C90.0121 216.677 88.6362 214.954 86.2178 215.6C80.839 217.065 77.2949 219.047 59.8244 217.582C59.8244 217.582 44.8973 201.295 25.2168 204.44C24.7999 204.527 24.3829 204.57 24.0077 204.656C23.0487 204.828 22.1314 205.044 21.2141 205.302C17.3363 206.422 13.959 208.146 11.1654 210.473C0.658025 219.133 -2.0939 235.851 4.16047 257.653Z" fill="#945339"/>
<path d="M42.3134 282.86C60.326 285.23 102.856 257.869 102.856 257.869H103.148C97.8522 261.618 85.2184 270.278 69.4991 278.766C59.2002 284.325 48.0257 286.781 37.8519 285.747C36.5594 285.617 35.3085 285.445 34.0576 285.186L42.3134 282.86Z" fill="#AD6946"/>
<path d="M62.0346 218.874C66.2042 223.743 76.92 226.716 76.92 226.716C77.2119 225.639 77.5038 224.648 77.7957 223.7L79.6303 228.698C79.6303 228.698 80.214 233.783 81.7985 239.169C78.0875 240.763 72.7088 242.874 67.0381 244.511C67.0381 244.511 64.4113 223.011 45.0645 210.085C39.7691 206.551 33.5147 205.13 27.3438 205.388C42.0207 203.665 54.2375 209.74 62.0346 218.874Z" fill="#945339"/>
<path d="M18.6289 207.112C18.6289 207.112 26.4677 203.406 35.2655 205.604C44.105 207.758 48.358 211.162 52.3191 215.298C69.0391 232.619 74.0843 283.98 38.6012 285.962L18.6289 207.112Z" fill="#945339"/>
<path d="M10.9141 210.558C14.3748 207.283 20.1288 204.569 25.7995 203.836C41.8107 201.768 52.1095 207.068 59.7398 212.367C65.4939 216.332 74.7503 215.556 81.1298 215.384C79.7955 217.969 79.3786 221.33 79.6287 228.698C79.6287 228.698 68.9129 228.698 61.6579 219.994C53.4021 210.084 41.9774 203.664 27.3422 205.344C21.5048 205.646 15.5423 207.499 10.9141 210.558Z" fill="#945339"/>
<path d="M210.682 255.757C210.473 256.059 210.265 256.36 210.056 256.662C201.091 268.985 190.626 275.491 181.62 279.498L184.246 264.03L140.716 256.748C140.716 256.748 120.785 255.111 109.361 247.097C103.899 243.305 96.8521 233.912 93.975 221.632C92.9327 217.237 92.474 212.454 92.8076 207.413C94.0584 188.282 97.0188 171.737 106.734 156.053C113.739 144.764 149.639 151.96 169.069 156.829C178.034 167.902 196.296 194.789 207.096 240.461C208.388 245.89 209.597 250.974 210.682 255.757Z" fill="#AD6946"/>
<path d="M4.16047 257.654C9.20566 275.277 22.2564 284.325 37.392 285.833C46.5651 286.565 60.9918 279.715 57.8646 255.327C57.8646 255.327 46.5234 287.944 19.2127 266.831C-3.67834 249.123 49.0251 233.051 49.0251 233.051C49.0251 233.051 44.6888 216.462 31.638 208.922C27.802 206.725 24.2995 205.647 21.214 205.303C17.3363 206.423 13.959 208.146 11.1654 210.473C0.658026 219.134 -2.0939 235.852 4.16047 257.654Z" fill="#AD6946"/>
<path d="M22.0505 216.203C29.8476 213.747 38.3118 217.194 44.4828 224.432C44.9414 224.949 45.3584 225.509 45.7754 226.07C47.4015 228.827 48.7358 231.929 49.7365 235.247C54.6983 252.051 48.6107 268.855 36.1019 272.819C33.8504 273.552 31.5571 273.767 29.2221 273.595C20.7996 271.441 13.0025 263.469 9.45832 252.439C9.37493 252.137 9.24984 251.836 9.16645 251.534C4.57992 235.721 10.2922 219.951 22.0505 216.203Z" fill="#ECD09C"/>
<path d="M9.49707 252.397C13.0412 263.471 20.8383 271.399 29.2609 273.553C32.4715 274.372 35.7654 274.372 38.9343 273.381C50.6925 269.675 56.4465 253.862 51.7766 238.049C50.4423 233.482 48.3576 229.432 45.8141 226.028C45.3972 225.468 44.9385 224.908 44.5215 224.391C48.1908 233.18 53.0692 250.588 39.7265 261.23C27.8432 270.71 15.2928 261.704 9.49707 252.397Z" fill="#DCBD8A"/>
<path d="M49.777 235.247C48.7763 231.929 47.4421 228.827 45.8159 226.069C48.3594 229.43 50.4442 233.523 51.7784 238.091C56.4484 253.904 50.6943 269.674 38.9361 273.422C35.7672 274.413 32.4733 274.457 29.2627 273.595C31.556 273.767 33.8492 273.509 36.1425 272.819C48.6512 268.855 54.7388 252.051 49.777 235.247Z" fill="#C59F6D"/>
<path d="M28.6789 204.656C32.1813 204.785 37.3933 207.026 37.3933 207.026C27.011 204.182 14.0853 207.586 8.16455 216.849C-4.38589 236.454 8.78998 272.432 19.8394 279.843C12.7094 275.19 7.41402 267.736 4.16175 257.653C-4.05232 232.318 2.32713 203.535 28.6789 204.656Z" fill="#D59A77"/>
<path d="M62.5773 234.301C62.5773 234.301 78.3801 287.471 38.9775 285.704C38.9775 285.661 73.2932 286.824 62.5773 234.301Z" fill="#AD6946"/>
<path d="M181.618 160.233C181.618 160.233 178.366 159.242 173.237 157.906C171.944 157.562 170.568 157.217 169.067 156.829C178.032 167.903 196.295 194.789 207.094 240.462C208.386 245.891 209.554 250.975 210.68 255.801C211.931 253.948 213.015 251.923 213.932 249.725C213.974 249.251 213.974 248.778 214.015 248.304C217.059 196.469 181.618 160.233 181.618 160.233Z" fill="#945339"/>
<path d="M211.723 202.197C202.549 177.723 181.618 160.229 181.618 160.229C181.618 160.229 217.06 196.466 214.016 248.257C213.974 248.731 213.974 249.205 213.932 249.679C219.061 237.614 218.769 220.94 211.723 202.197Z" fill="#AD6946"/>
<path d="M28.3052 261.962C28.1384 261.962 28.0134 261.919 27.8466 261.876C27.513 261.747 27.2211 261.531 26.971 261.23L15.8799 246.58C12.9612 242.702 12.8361 236.67 15.6297 233.093C17.0474 231.284 19.0071 230.379 21.1335 230.508C23.26 230.638 25.3448 231.844 26.8876 233.869L28.1384 235.506L29.6395 233.74C31.0155 232.146 32.8084 231.284 34.8098 231.327C36.978 231.37 39.0628 232.576 40.5638 234.558C42.0232 236.454 42.8154 238.91 42.8154 241.496C42.8154 244.124 41.9815 246.666 40.5221 248.389L29.4727 261.445C29.1391 261.79 28.7222 261.962 28.3052 261.962ZM20.7583 231.801C19.1738 231.801 17.7145 232.533 16.6304 233.912C14.1703 237.014 14.2954 242.357 16.8806 245.761L27.9717 260.497C28.0551 260.583 28.1384 260.669 28.2218 260.712C28.3469 260.756 28.4303 260.712 28.5137 260.626L39.5631 247.571C40.8557 246.063 41.5645 243.865 41.5228 241.539C41.5228 239.255 40.814 237.058 39.5214 235.377C38.2288 233.697 36.4776 232.706 34.7264 232.663C33.1419 232.62 31.6826 233.309 30.5568 234.645L28.5554 237.014C28.4303 237.144 28.2635 237.23 28.0551 237.23C27.8883 237.23 27.6798 237.144 27.5964 236.971L25.8869 234.731C24.5943 233.007 22.8431 231.973 21.0502 231.887C20.9668 231.801 20.8834 231.801 20.7583 231.801Z" fill="#C59F6D"/>
<path d="M21.9671 81.1686C14.4619 97.8003 27.5961 107.193 33.5586 110.468C35.1847 111.373 36.3105 111.804 36.3105 111.804L44.9832 92.5868L47.068 87.5025L53.1139 72.7666C53.1139 72.8097 31.0985 61.2192 21.9671 81.1686ZM4.32981 73.1974C4.32981 73.2405 4.32981 73.2405 4.32981 73.1974C4.20473 73.4991 4.07964 73.8007 3.95455 74.0592C3.24572 75.7827 2.62029 77.42 2.11994 79.0573C-8.05384 111.631 21.5502 126.712 30.0561 130.288C31.4738 130.891 32.266 131.15 32.266 131.15L49.6948 95.4736L49.7782 95.5167L50.0284 94.7842L50.4037 94.0086L50.3203 93.9656L59.2432 70.1383L64.1216 57.1259L64.2884 56.7381C64.3717 56.7812 22.676 32.0059 4.32981 73.1974Z" fill="#B6724D"/>
<path d="M45.3555 91.723L45.0219 92.5847L44.7717 93.1449L36.3075 111.845C36.3075 111.845 31.9294 110.121 27.6764 106.459C22.1309 101.719 16.7938 93.7912 21.4638 82.2869C21.7139 81.6837 21.9641 81.1235 22.2143 80.5634C22.3811 80.2187 22.5896 79.8309 22.7563 79.4862C30.5951 65.095 45.8558 69.7485 51.1929 71.9459C52.402 72.4199 53.0692 72.8077 53.0692 72.8077L45.3555 91.723Z" fill="#DCBD8A"/>
<path d="M50.3996 94.0069L50.483 94.05L50.1077 94.8255L49.8575 95.558L49.7741 95.5149L32.3453 131.191C32.3453 131.191 -6.05652 118.265 0.906676 83.9675C1.24024 82.3733 1.6572 80.7791 2.15755 79.0987C3.70029 90.0859 6.24374 107.709 27.5086 117.145C27.5086 117.145 28.4676 110.639 29.2598 107.536C30.469 102.711 32.2202 98.1433 34.2216 93.7484C36.9318 87.8885 40.1841 82.3733 43.4781 77.2028C47.3141 71.2137 55.1112 75.4362 59.3225 70.2227L50.3996 94.0069Z" fill="#945339"/>
<path d="M34.2241 93.7493C30.3881 108.485 29.5125 123.609 29.5125 123.609C6.24624 113.397 1.07596 96.4638 0.90918 83.9685C1.24275 82.3742 1.6597 80.78 2.16005 79.0996C3.7028 90.0869 6.24624 107.71 27.5111 117.146C27.5111 117.146 28.4701 110.64 29.2623 107.537C30.4715 102.711 32.2227 98.1011 34.2241 93.7493Z" fill="#AD6946"/>
<path d="M42.2256 76.0398C31.0512 88.7506 28.2992 100.039 27.7155 106.46C22.17 101.72 16.8329 93.7918 21.5028 82.2875C21.753 81.6843 22.0032 81.1241 22.2534 80.564C22.4201 80.2193 22.6286 79.8315 22.7954 79.4868C31.1346 72.9806 42.2256 76.0398 42.2256 76.0398Z" fill="#ECD09C"/>
<path d="M64.3696 56.781L64.2028 57.1688L61.9929 58.5907C61.9929 58.5907 52.4029 53.0324 41.3535 52.2138C30.3041 51.3951 17.17 56.6949 10.2901 67.2943C3.41034 77.8938 -0.75924 96.8954 7.20466 109.261C14.5431 120.636 27.9275 128.995 30.054 130.288C21.5063 126.712 -8.0977 111.674 2.11777 79.0572C2.61812 77.4199 3.24356 75.7826 3.95238 74.0591C4.07747 73.8005 4.20256 73.4989 4.32765 73.2404V73.1973C22.6738 32.0058 64.3696 56.781 64.3696 56.781Z" fill="#D59A77"/>
<path d="M51.2354 71.945L50.1513 74.4441C34.849 69.2305 26.5932 74.7457 22.2568 80.5625C29.8872 64.8787 45.7733 69.7045 51.2354 71.945Z" fill="#C59F6D"/>
<path d="M141.925 37.1746L155.851 44.1548L160.646 46.5677L179.451 55.1421C179.451 55.1421 179.993 54.0649 180.66 52.2552C183.079 45.7059 186.956 29.6774 170.737 22.3095C151.098 13.4766 141.925 37.1746 141.925 37.1746ZM123.245 32.7797L123.62 32.9521L135.587 39.4583L157.477 51.3073L157.436 51.3935L158.228 51.7382L158.895 52.0829L158.937 51.9967L194.795 66.9911C194.795 66.9911 195.254 66.2155 195.921 64.8367C200.049 56.3485 212.766 24.8947 184.329 7.27201C182.912 6.41026 181.411 5.54851 179.785 4.72985C179.534 4.60059 179.243 4.47133 178.992 4.34207H178.951C138.839 -14.2286 123.245 32.7797 123.245 32.7797Z" fill="#B6724D"/>
<path d="M159.854 46.1805L160.646 46.5682L161.188 46.8268L179.409 55.1426C179.409 55.1426 181.578 50.877 182.495 45.2325C183.662 37.9077 182.62 28.2992 171.779 22.784C171.195 22.4824 170.653 22.2239 170.111 22.0085C169.736 21.8361 169.361 21.7068 169.027 21.5776C153.975 16.0624 145.427 29.9796 142.8 35.2363C142.217 36.3996 141.925 37.1752 141.925 37.1752L159.854 46.1805Z" fill="#DCBD8A"/>
<path d="M157.477 51.3068L157.435 51.3929L158.227 51.7376L158.894 52.0823L158.936 51.9962L194.795 66.9906C194.795 66.9906 215.476 31.1419 188.415 10.0722C187.164 9.08115 185.83 8.17632 184.371 7.27148C190.208 16.5784 199.506 31.5728 189.499 53.1595C189.499 53.1595 184.621 48.937 182.036 47.1273C178.033 44.3266 173.822 42.043 169.527 40.1471C163.731 37.5619 157.81 35.623 152.015 33.9856C145.302 32.0898 142.133 40.578 135.67 39.5008L157.477 51.3068Z" fill="#945339"/>
<path d="M169.485 40.104C181.744 48.5922 192.084 59.3641 192.084 59.3641C203.092 35.8384 196.212 19.5945 188.374 10.0722C187.123 9.08115 185.788 8.17632 184.329 7.27148C190.166 16.5783 199.465 31.5727 189.458 53.1595C189.458 53.1595 184.579 48.9369 181.994 47.1273C177.991 44.3266 173.78 42.043 169.485 40.104Z" fill="#AD6946"/>
<path d="M152.179 32.2196C168.69 34.2016 177.988 40.8371 182.492 45.2751C183.659 37.9502 182.617 28.3417 171.776 22.8266C171.192 22.525 170.65 22.2664 170.108 22.051C169.733 21.8786 169.357 21.7494 169.024 21.6201C158.558 22.3526 152.179 32.2196 152.179 32.2196Z" fill="#ECD09C"/>
<path d="M123.245 32.7797L123.62 32.9521L126.206 32.5212C126.206 32.5212 129.916 21.7924 137.714 13.692C145.469 5.5916 158.728 0.636555 170.695 3.95428C182.62 7.27201 197.881 18.6902 199.757 33.4691C201.466 47.0416 196.713 62.4238 195.921 64.8367C200.049 56.3485 212.766 24.8947 184.329 7.27201C182.912 6.41026 181.411 5.54851 179.785 4.72985C179.534 4.60059 179.243 4.47133 178.992 4.34207H178.951C138.839 -14.2286 123.245 32.7797 123.245 32.7797Z" fill="#D59A77"/>
<path d="M142.797 35.2347L145.215 36.355C153.429 22.0069 163.144 20.5419 170.108 22.0069C154.347 15.4146 145.465 29.8488 142.797 35.2347Z" fill="#C59F6D"/>
<path d="M212.929 102.322C212.929 102.279 212.929 102.279 212.929 102.236C212.887 101.934 212.846 101.633 212.804 101.331C212.804 101.202 212.762 101.073 212.721 100.9C212.679 100.556 212.595 100.211 212.554 99.8661C212.512 99.5214 212.429 99.1336 212.345 98.7889C212.345 98.7028 212.304 98.6166 212.304 98.5735C212.22 98.2288 212.137 97.841 212.053 97.4532C211.97 97.0654 211.887 96.6777 211.762 96.2899C211.762 96.2468 211.762 96.2468 211.72 96.2037C211.636 95.9021 211.553 95.5574 211.47 95.2558C211.428 95.0834 211.386 94.9542 211.345 94.7818C211.261 94.4371 211.136 94.0924 211.053 93.7908C210.928 93.403 210.803 92.9721 210.677 92.5843C210.677 92.5413 210.677 92.5413 210.636 92.4982C210.511 92.1104 210.386 91.6795 210.219 91.2917C210.094 90.9039 209.969 90.5162 209.802 90.1284C209.76 90.0422 209.76 89.956 209.718 89.8699C209.593 89.5682 209.468 89.2235 209.343 88.8788C209.301 88.7927 209.26 88.6634 209.218 88.5772C209.093 88.2325 208.968 87.9309 208.801 87.5862C208.801 87.5862 208.801 87.5431 208.759 87.5C208.759 87.457 208.718 87.4139 208.718 87.3708C208.593 87.0692 208.468 86.7245 208.301 86.4229C208.134 86.0782 207.967 85.6904 207.842 85.3457C207.3 84.0961 206.716 82.8897 206.133 81.7263C203.881 77.116 201.504 72.8934 199.003 69.0156C198.836 68.757 198.669 68.4985 198.502 68.1969C169.816 24.3771 125.701 23.9462 93.4289 36.7432C92.7201 37.0017 89.6346 38.2081 88.759 38.5528C58.6963 50.1002 28.3417 77.1591 29.3424 123.133C29.4258 126.192 29.6343 129.295 29.9679 132.526V132.569C30.3014 135.456 30.7184 138.386 31.2604 141.402C31.3438 141.876 31.4272 142.35 31.5106 142.781C31.6774 143.514 31.8025 144.246 31.9693 145.022C32.0944 145.668 32.2611 146.357 32.4279 147.047C32.8449 148.943 33.3452 150.882 33.8873 152.82C35.2632 157.862 37.0979 162.3 39.266 166.264C39.3911 166.522 39.5579 166.781 39.7247 167.039C39.8915 167.298 40.0166 167.556 40.1833 167.815C40.3084 168.03 40.4335 168.246 40.5586 168.461C40.6837 168.677 40.8505 168.892 40.9756 169.107C41.1424 169.366 41.3091 169.625 41.4759 169.883C41.601 170.098 41.7678 170.314 41.8929 170.529C42.3932 171.262 42.9353 171.994 43.4356 172.684C43.6024 172.899 43.7692 173.115 43.936 173.287C44.0611 173.459 44.1861 173.632 44.3529 173.761C44.4363 173.89 44.5614 174.019 44.6865 174.149C44.895 174.407 45.1451 174.666 45.3536 174.924C45.6872 175.312 46.0208 175.7 46.396 176.088C46.5628 176.303 46.7713 176.475 46.9381 176.691C47.1465 176.906 47.3133 177.079 47.5218 177.294C47.7303 177.51 47.8971 177.682 48.1056 177.897C48.2723 178.07 48.3974 178.199 48.5642 178.328C49.0229 178.759 49.4398 179.147 49.8985 179.578C50.1069 179.75 50.3154 179.922 50.5239 180.095C50.7324 180.267 50.9409 180.439 51.1493 180.612C51.3578 180.784 51.5663 180.956 51.7748 181.129C52.8172 181.991 53.943 182.766 55.0271 183.542C55.2355 183.671 55.444 183.843 55.6942 183.973C58.9465 186.084 62.4072 187.807 65.993 189.229C66.2432 189.315 66.4517 189.402 66.7019 189.488C66.7436 189.488 66.7436 189.488 66.7436 189.488C66.9937 189.574 67.2022 189.66 67.4524 189.746C68.1612 190.005 68.9118 190.263 69.6623 190.479C69.9125 190.565 70.1626 190.651 70.4128 190.694C70.663 190.78 70.9132 190.867 71.1633 190.91C72.4142 191.297 73.6651 191.599 74.916 191.901C75.4163 192.03 75.875 192.116 76.3753 192.245C77.4177 192.461 78.4601 192.676 79.5442 192.849C79.5442 192.849 79.5442 192.849 79.5442 192.892C79.4608 192.978 79.4191 193.107 79.3357 193.193C79.1272 193.495 78.9604 193.797 78.752 194.141C78.7103 194.227 78.6269 194.357 78.5852 194.443C78.4601 194.658 78.335 194.874 78.2099 195.089C77.793 195.779 77.376 196.554 76.959 197.416C150.886 181.474 184.701 160.059 184.701 160.059C185.952 158.767 195.375 151.054 196.543 149.675C196.793 149.417 197.001 149.115 197.251 148.856C197.335 148.77 197.418 148.641 197.502 148.555C197.71 148.339 197.877 148.124 198.044 147.865C198.21 147.65 198.419 147.391 198.586 147.176C198.836 146.874 199.044 146.616 199.253 146.314C199.461 146.099 199.628 145.84 199.795 145.582C199.837 145.539 199.878 145.496 199.92 145.453C200.587 144.548 201.254 143.643 201.921 142.738C202.13 142.479 202.297 142.178 202.505 141.919C202.588 141.79 202.714 141.661 202.797 141.488C203.005 141.23 203.172 140.928 203.339 140.627C203.506 140.368 203.673 140.11 203.839 139.851C204.673 138.515 205.507 137.18 206.258 135.758C206.383 135.499 206.55 135.241 206.675 134.982C206.883 134.638 207.05 134.25 207.217 133.905C207.383 133.604 207.55 133.302 207.675 132.957C207.675 132.914 207.717 132.914 207.717 132.871C207.884 132.569 208.009 132.268 208.134 131.966C208.134 131.923 208.176 131.923 208.176 131.88C208.259 131.665 208.384 131.449 208.468 131.234C208.676 130.76 208.885 130.243 209.093 129.769C209.176 129.553 209.26 129.338 209.343 129.122C209.468 128.821 209.593 128.562 209.677 128.261C209.76 128.045 209.844 127.83 209.927 127.657C210.302 126.666 210.636 125.675 210.928 124.684C211.053 124.34 211.136 123.995 211.261 123.607C211.303 123.392 211.386 123.219 211.428 123.004C211.47 122.789 211.553 122.616 211.595 122.401C212.345 119.6 212.846 116.713 213.138 113.74C213.179 113.439 213.179 113.137 213.221 112.835C213.304 112.017 213.304 111.198 213.346 110.336C213.346 109.949 213.346 109.561 213.346 109.216C213.346 108.914 213.346 108.613 213.346 108.311C213.346 108.225 213.346 108.096 213.346 108.01C213.346 107.665 213.346 107.32 213.304 107.019C213.304 106.976 213.304 106.932 213.304 106.932C213.304 106.545 213.263 106.157 213.221 105.812C213.179 105.424 213.179 105.037 213.138 104.649C213.096 104.261 213.054 103.873 213.012 103.485C213.054 103.055 213.012 102.71 212.929 102.322Z" fill="#B6724D"/>
<path d="M212.974 102.365C212.974 102.322 212.974 102.322 212.974 102.279C212.932 101.977 212.89 101.676 212.849 101.374C212.849 101.245 212.807 101.116 212.765 100.943C212.723 100.599 212.64 100.254 212.598 99.9093C212.557 99.5646 212.473 99.1768 212.39 98.8321C212.39 98.7459 212.348 98.6598 212.348 98.6167C212.265 98.272 212.181 97.8842 212.098 97.4964C212.015 97.1086 211.931 96.7208 211.806 96.3331C211.806 96.29 211.806 96.29 211.764 96.2469C211.681 95.9453 211.598 95.6006 211.514 95.299C211.473 95.1266 211.431 94.9974 211.389 94.825C211.306 94.4803 211.181 94.1356 211.097 93.834C210.972 93.4462 210.847 93.0153 210.722 92.6275C210.722 92.5845 210.722 92.5845 210.68 92.5414C210.555 92.1536 210.43 91.7227 210.263 91.3349C210.138 90.9471 210.013 90.5594 209.846 90.1716C209.805 90.0854 209.805 89.9992 209.763 89.913C209.638 89.6114 209.513 89.2667 209.388 88.922C209.346 88.8359 209.304 88.7066 209.263 88.6204C209.138 88.2757 209.013 87.9741 208.846 87.6294C208.846 87.6294 208.846 87.5863 208.804 87.5432C208.804 87.5001 208.762 87.4571 208.762 87.414C208.637 87.1124 208.512 86.7677 208.345 86.4661C208.179 86.1214 208.012 85.7336 207.887 85.3889C207.345 84.1393 206.761 82.9329 206.177 81.7695C207.97 97.4533 205.177 138.472 134.377 164.066C66.7465 188.54 40.5615 158.422 31.8888 142.566C31.6803 142.135 31.4302 141.747 31.2217 141.359C31.3051 141.833 31.3885 142.307 31.4719 142.738C31.6386 143.471 31.7637 144.203 31.9305 144.979C32.0556 145.625 32.2224 146.314 32.3892 147.004C32.8061 148.9 33.3065 150.839 33.8485 152.778C35.2245 157.819 37.0591 162.257 39.2273 166.221C39.3524 166.479 39.5191 166.738 39.6859 166.996C39.8527 167.255 39.9778 167.513 40.1446 167.772C40.2697 167.987 40.3948 168.203 40.5198 168.418C40.6449 168.634 40.8117 168.849 40.9368 169.065C41.1036 169.323 41.2704 169.582 41.4371 169.84C41.5622 170.056 41.729 170.271 41.8541 170.486C42.3545 171.219 42.8965 171.951 43.3968 172.641C43.5636 172.856 43.7304 173.072 43.8972 173.244C44.0223 173.416 44.1474 173.589 44.3142 173.718C44.3975 173.847 44.5226 173.976 44.6477 174.106C44.8562 174.364 45.1064 174.623 45.3149 174.881C45.6484 175.269 45.982 175.657 46.3573 176.045C46.524 176.26 46.7325 176.432 46.8993 176.648C47.1078 176.863 47.2746 177.036 47.483 177.251C47.6915 177.467 47.8583 177.639 48.0668 177.854C48.2336 178.027 48.3587 178.156 48.5254 178.285C48.9841 178.716 49.401 179.104 49.8597 179.535C50.0682 179.707 50.2767 179.879 50.4851 180.052C50.6936 180.224 50.9021 180.396 51.1106 180.569C51.319 180.741 51.5275 180.914 51.736 181.086C52.7784 181.948 53.9042 182.723 54.9883 183.499C55.1968 183.628 55.4052 183.8 55.6554 183.93C58.9077 186.041 62.3684 187.764 65.9543 189.186C66.2044 189.272 66.4129 189.359 66.6631 189.445C66.7048 189.445 66.7048 189.445 66.7048 189.445C66.955 189.531 67.1635 189.617 67.4136 189.703C68.1225 189.962 68.873 190.22 69.6235 190.436C69.8737 190.522 70.1239 190.608 70.374 190.651C70.6242 190.737 70.8744 190.824 71.1245 190.867C72.3754 191.255 73.6263 191.556 74.8772 191.858C75.3775 191.987 75.8362 192.073 76.3365 192.202C77.3789 192.418 78.4213 192.633 79.5054 192.806C79.5054 192.806 79.5054 192.806 79.5054 192.849C79.422 192.935 79.3803 193.064 79.2969 193.15C79.2135 193.323 79.0884 193.452 78.9634 193.624C93.8488 190.22 108.484 186.515 123.369 182.12C136.629 178.759 149.304 178.199 162.438 173.933C181.035 166.565 195.253 151.011 196.42 149.632C196.671 149.374 196.879 149.072 197.129 148.813C197.213 148.727 197.296 148.598 197.379 148.512C197.588 148.296 197.755 148.081 197.921 147.822C198.088 147.607 198.297 147.348 198.463 147.133C198.714 146.831 198.922 146.573 199.131 146.271C199.339 146.056 199.506 145.797 199.673 145.539C200.382 144.591 201.09 143.643 201.757 142.695C201.966 142.437 202.133 142.135 202.341 141.876C202.425 141.747 202.55 141.618 202.633 141.446C202.842 141.187 203.008 140.885 203.175 140.584C203.342 140.325 203.509 140.067 203.675 139.808C204.509 138.472 205.343 137.137 206.094 135.715C206.219 135.456 206.386 135.198 206.511 134.939C206.719 134.595 206.886 134.207 207.053 133.862C207.22 133.561 207.386 133.259 207.511 132.914C207.511 132.871 207.553 132.871 207.553 132.828C207.72 132.526 207.845 132.225 207.97 131.923C207.97 131.88 208.012 131.88 208.012 131.837C208.095 131.622 208.22 131.406 208.304 131.191C208.512 130.717 208.721 130.2 208.929 129.726C209.013 129.51 209.096 129.295 209.179 129.079C209.304 128.778 209.429 128.519 209.513 128.218C209.596 128.002 209.68 127.787 209.763 127.614C210.138 126.623 210.472 125.632 210.764 124.641C210.889 124.297 210.972 123.909 211.097 123.564C211.139 123.349 211.222 123.176 211.264 122.961C211.306 122.746 211.389 122.573 211.431 122.358C212.181 119.557 212.682 116.67 212.974 113.697C213.015 113.396 213.015 113.094 213.057 112.792C213.14 111.974 213.14 111.155 213.182 110.293C213.182 109.906 213.182 109.518 213.182 109.173C213.182 108.871 213.182 108.57 213.182 108.268C213.182 108.182 213.182 108.053 213.182 107.967C213.182 107.622 213.182 107.277 213.14 106.976C213.14 106.933 213.14 106.889 213.14 106.889C213.14 106.502 213.099 106.114 213.057 105.769C213.015 105.381 213.015 104.994 212.974 104.606C212.932 104.218 212.89 103.83 212.849 103.442C213.057 103.098 213.015 102.753 212.974 102.365Z" fill="#945339"/>
<path d="M206.261 81.8574C206.844 83.0208 207.428 84.2703 207.97 85.4768C208.137 85.8215 208.304 86.2092 208.429 86.5539C208.554 86.8556 208.721 87.2003 208.846 87.5019C208.846 87.545 208.887 87.588 208.887 87.6311C211.431 117.534 202.174 159.027 139.923 178.158C74.5435 198.28 46.1487 172.039 34.0986 150.151C33.5149 149.117 33.0145 148.083 32.5142 147.092C32.3474 146.402 32.2223 145.756 32.0555 145.067C31.8887 144.334 31.7219 143.559 31.5969 142.826C31.5135 142.352 31.4301 141.878 31.3467 141.447C31.5552 141.835 31.7636 142.266 32.0138 142.654C40.6865 158.467 66.8715 188.585 134.502 164.154C205.26 138.56 208.053 97.5412 206.261 81.8574Z" fill="#AD6946"/>
<path d="M198.006 67.4204C198.048 67.5066 197.964 67.5928 197.881 67.5497C164.191 31.3563 128.124 21.4893 71.3344 52.5553C38.3113 70.6089 31.3064 104.303 29.3884 123.175C28.346 77.2013 58.7005 50.1424 88.8049 38.595C89.6805 38.2503 92.8077 37.0438 93.4748 36.7853C125.456 24.0314 169.236 24.3761 198.006 67.4204Z" fill="#D59A77"/>
<path d="M142.393 154.204C160.547 146.9 170.578 128.539 164.797 113.193C159.016 97.8471 139.611 91.3279 121.456 98.6317C103.301 105.936 93.2707 124.297 99.052 139.642C104.833 154.988 124.238 161.507 142.393 154.204Z" fill="#AD6946"/>
<path d="M146.014 164.406C164.276 157.059 174.394 138.663 168.612 123.317C162.831 107.971 143.34 101.487 125.077 108.834C106.815 116.181 96.6975 134.577 102.479 149.923C108.26 165.268 127.751 171.753 146.014 164.406Z" fill="#945339"/>
<path d="M168.194 117.919C171.279 126.148 170.487 135.11 166.443 142.995C162.398 150.88 155.06 157.731 145.094 161.738C121.453 171.261 105.859 161.997 99.6461 145.495C99.2708 144.504 98.9372 143.469 98.6871 142.478C96.6857 135.154 97.3945 127.527 100.188 120.892C101.105 118.78 102.231 116.712 103.565 114.816C106.943 110.034 111.654 106.113 117.367 103.829L127.874 99.6065C133.586 97.3228 139.549 96.892 145.178 98.0553C153.267 99.7357 160.605 104.691 165.234 112.016C166.401 113.868 167.402 115.807 168.194 117.919Z" fill="#DCBD8A"/>
<path d="M165.232 112.016C168.61 128.389 158.686 146.012 141.257 152.992C125.079 159.498 107.609 154.758 98.6441 142.435C96.6427 135.111 97.3515 127.484 100.145 120.849C101.062 118.737 102.188 116.669 103.523 114.773C106.9 109.991 111.611 106.07 117.324 103.786L127.831 99.5635C133.543 97.2799 139.506 96.849 145.135 98.0124C153.266 99.7359 160.604 104.691 165.232 112.016Z" fill="#ECD09C"/>
<path d="M134.333 135.499C134.083 135.499 133.833 135.326 133.749 135.068L127.829 119.427C127.704 119.082 127.87 118.738 128.204 118.608C128.537 118.479 128.871 118.651 128.996 118.996L134.917 134.637C135.042 134.982 134.875 135.326 134.542 135.455C134.458 135.499 134.375 135.499 134.333 135.499Z" fill="#43281F"/>
<path d="M145.177 98.0548C145.135 101.2 144.468 104.259 143.217 107.103C140.84 112.36 136.337 116.798 129.332 119.598C121.869 122.615 115.323 122.356 110.027 119.771C107.609 118.564 105.441 116.927 103.564 114.859C106.942 110.076 112.279 105.25 121.827 101.373C133.46 96.676 139.59 96.8915 145.177 98.0548Z" fill="#5C392B"/>
<path d="M143.216 107.103C140.84 112.36 136.336 116.798 129.332 119.598C121.868 122.614 115.322 122.356 110.026 119.771C110.235 118.521 110.568 117.315 111.069 116.194C112.528 112.79 115.197 109.99 118.782 108.525L128.873 104.475C133.918 102.406 139.422 103.656 143.216 107.103Z" fill="#43281F"/>
<path d="M112.862 110.55C113.237 110.162 113.57 109.861 113.946 109.516C114.321 109.171 114.696 108.87 115.071 108.568C115.822 107.965 116.614 107.405 117.448 106.888C119.074 105.853 120.742 104.906 122.535 104.13C124.286 103.354 126.163 102.708 128.039 102.234C129.957 101.803 131.917 101.545 133.918 101.674C134.877 101.717 135.586 102.579 135.544 103.57C135.502 104.302 135.044 104.906 134.418 105.164L134.335 105.207C132.667 105.853 131.083 106.414 129.456 107.06C127.83 107.749 126.246 108.396 124.62 109.128L119.741 111.326L117.281 112.446C116.864 112.618 116.447 112.791 116.03 113.006C115.614 113.178 115.197 113.351 114.78 113.523L114.696 113.566C113.779 113.911 112.778 113.437 112.486 112.489C112.236 111.756 112.403 111.024 112.862 110.55Z" fill="white"/>
<path d="M144.173 94.0494C141.213 94.0494 138.252 92.9722 135.876 90.8179C135.459 90.4301 135.417 89.7407 135.792 89.3098C136.168 88.8789 136.835 88.8358 137.252 89.2236C140.796 92.4552 146.05 92.7999 149.969 90.0854C153.888 87.3709 155.598 82.2866 154.139 77.6762C153.972 77.1161 154.264 76.5128 154.806 76.2974C155.348 76.1251 155.931 76.4267 156.14 76.9868C157.933 82.5451 155.848 88.6635 151.136 91.895C149.01 93.36 146.55 94.0494 144.173 94.0494Z" fill="#43281F"/>
<path d="M87.0911 122.316C83.8388 122.316 80.5865 121.023 78.1682 118.481C77.7512 118.05 77.7512 117.361 78.1682 116.973C78.5851 116.542 79.2523 116.542 79.6275 116.973C82.9632 120.42 88.1335 121.153 92.2614 118.74C96.3475 116.327 98.3906 111.329 97.2232 106.632C97.0981 106.072 97.4316 105.469 97.9737 105.34C98.5157 105.21 99.0995 105.555 99.2246 106.115C100.642 111.76 98.1822 117.749 93.2621 120.636C91.3858 121.756 89.2176 122.316 87.0911 122.316Z" fill="#43281F"/>
<path d="M96.8922 188.669C96.8922 188.669 96.8076 188.669 96.6807 188.669C96.723 188.582 96.8076 188.582 96.8922 188.669Z" fill="#945339"/>
<path d="M72.5029 136.19C72.5029 136.19 106.735 135.5 125.748 171.995C111.655 127.702 72.5029 136.19 72.5029 136.19Z" fill="#945339"/>
<path d="M72.5029 136.19C91.0159 152.262 82.4682 175.141 82.4682 175.141L125.748 171.996C106.735 135.501 72.5029 136.19 72.5029 136.19Z" fill="#AD6946"/>
<path d="M67.833 140.931L72.5029 136.191C72.5029 136.191 100.272 139.466 110.905 162.432C110.905 162.432 96.4363 156.184 78.3403 158.597L67.833 140.931Z" fill="#B6724D"/>
<path d="M130.083 136.363C124.412 136.363 121.452 131.494 121.41 131.451C121.243 131.15 121.327 130.762 121.619 130.546C121.911 130.374 122.286 130.46 122.494 130.762C122.661 131.02 126.497 137.311 134.086 134.252C141.299 131.322 139.423 124.213 139.339 123.911C139.256 123.566 139.423 123.222 139.756 123.092C140.09 123.006 140.423 123.178 140.549 123.523C141.382 126.496 141.174 132.744 134.544 135.458C132.918 136.105 131.417 136.363 130.083 136.363Z" fill="#43281F"/>
<path d="M183.202 236.149C183.202 276.307 151.68 308.881 112.82 308.881C89.5537 308.881 68.956 297.204 56.1137 279.237C47.5244 267.172 42.4375 252.264 42.4375 236.149C42.4375 195.992 73.9595 163.418 112.82 163.418C140.798 163.418 164.981 180.308 176.323 204.739C180.742 214.261 183.202 224.904 183.202 236.149Z" fill="#F15A29"/>
<path d="M176.323 204.782C169.443 249.894 131.625 284.407 86.0096 284.407C75.544 284.407 65.4953 282.598 56.1137 279.237C47.5244 267.172 42.4375 252.264 42.4375 236.149C42.4375 226.972 44.0636 218.182 47.1074 210.082C54.9879 188.84 72.25 172.423 93.5983 166.176C99.7275 164.366 106.149 163.418 112.82 163.418C140.798 163.461 164.981 180.308 176.323 204.782Z" fill="#FEA170"/>
<path d="M179.283 235.808C179.283 248.648 175.906 260.669 169.985 270.924C158.352 291.175 137.003 304.705 112.57 304.705C75.7106 304.705 45.8564 273.854 45.8564 235.765C45.8564 197.719 75.7106 166.825 112.57 166.825C131.083 166.825 147.844 174.624 159.936 187.249C171.945 199.787 179.283 216.893 179.283 235.808Z" fill="#FF8543"/>
<path d="M179.285 235.807C179.285 248.647 175.908 260.668 169.987 270.923C163.357 273.465 153.142 272.172 145.428 267.303C125.497 254.808 122.287 240.546 143.51 217.193C151.599 208.317 157.019 199.268 159.98 187.247C171.947 199.785 179.285 216.891 179.285 235.807Z" fill="#F15A29"/>
<path d="M82.9258 202.76C61.9528 220.426 47.0674 210.128 47.0674 210.128C54.9479 188.886 72.2099 172.469 93.5582 166.222C93.5999 166.179 108.277 181.389 82.9258 202.76Z" fill="#F15A29"/>
<path d="M92.7648 168.806C93.1817 169.84 93.557 170.917 93.8072 171.994C95.6835 180.051 92.2644 189.315 80.3811 199.225C63.953 212.927 50.8605 211.333 43.8139 203.62C43.6054 203.405 43.397 203.146 43.1885 202.888C42.9383 202.586 42.7298 202.327 42.5214 202.026C37.8931 195.778 36.7256 189.875 38.3935 183.972C38.4352 183.886 38.4352 183.8 38.4769 183.757C40.1864 177.94 44.6895 172.123 51.3192 165.962C61.2845 156.698 73.6681 152.992 82.7161 157.474C82.9663 157.603 83.1748 157.732 83.4249 157.861C85.1345 158.809 86.7189 160.059 88.0949 161.653C90.0963 163.85 91.6807 166.263 92.7648 168.806Z" fill="#B6724D"/>
<path d="M93.8072 171.993C95.6835 180.05 92.2644 189.314 80.3811 199.224C63.953 212.926 50.8605 211.332 43.8139 203.619C43.3553 203.102 42.9383 202.585 42.5214 202.025C37.8931 195.777 36.7256 189.874 38.3935 183.971C38.4352 183.885 38.4352 183.799 38.4769 183.756C40.9786 189.357 49.0259 201.249 68.7897 186.169C85.1762 173.674 86.4687 163.634 82.7161 157.473C82.9663 157.602 83.1748 157.731 83.4249 157.86C85.1345 158.808 86.7189 160.058 88.0949 161.652C90.9302 164.754 92.9316 168.245 93.8072 171.993Z" fill="#AD6946"/>
<path d="M93.8072 171.995C95.6835 180.052 92.2644 189.316 80.3811 199.226C63.953 212.928 50.8605 211.334 43.8139 203.621C43.3553 203.104 42.9383 202.587 42.5214 202.027C37.8931 195.779 36.7256 189.876 38.3935 183.973C41.1037 191.557 50.7354 211.291 73.2095 194.788C94.3075 179.32 89.5125 165.575 83.3832 157.819C85.0928 158.767 86.6772 160.017 88.0532 161.611C90.9302 164.756 92.9316 168.246 93.8072 171.995Z" fill="#945339"/>
<path d="M93.8071 171.993C91.7223 167.469 86.0933 159.024 79.5054 158.119C64.62 156.051 45.1898 171.993 40.5615 184.661C37.1842 193.925 43.8555 203.62 43.8555 203.62C43.3968 203.103 42.9799 202.586 42.5629 202.025C33.3065 189.53 37.8513 178.457 51.3607 165.918C63.5359 154.629 79.2552 151.57 88.1364 161.566C90.9301 164.755 92.9314 168.245 93.8071 171.993Z" fill="#D59A77"/>
<path d="M92.7667 168.806C93.1837 169.84 93.559 170.917 93.8091 171.994C95.6855 180.051 92.2664 189.315 80.3831 199.225C63.9549 212.927 50.8625 211.333 43.8159 203.62C43.6074 203.405 43.3989 203.146 43.1904 202.888V202.759C43.1904 202.759 55.449 217.494 79.0071 198.967C93.7674 187.29 94.3512 175.786 92.7667 168.806Z" fill="#AD6946"/>
<path d="M111.778 278.98C108.609 278.98 105.607 277.601 103.439 275.188L66.163 232.92C61.9935 228.18 62.327 220.812 66.9136 216.503C71.5001 212.195 78.6301 212.539 82.7997 217.279L109.944 248.087C117.24 235.591 128.04 216.805 134.919 203.319C137.838 197.631 144.635 195.477 150.138 198.45C155.642 201.466 157.727 208.489 154.85 214.177C143.342 236.668 122.244 272 121.368 273.508C119.492 276.61 116.365 278.635 112.821 278.98C112.487 278.98 112.153 278.98 111.778 278.98Z" fill="white"/>
<path d="M196.712 218.359C193.752 242.789 178.575 275.148 151.347 266.229C150.764 266.056 150.138 265.841 149.554 265.582C146.886 264.548 144.092 263.126 141.215 261.274C136.879 258.473 133.335 255.543 130.75 252.527C120.367 240.463 123.828 226.158 143.509 208.104C154.141 198.323 161.229 186.819 165.566 178.589C166.191 177.426 166.733 176.306 167.234 175.315C168.109 173.548 168.776 171.824 169.318 170.618L178.158 165.706L195.962 181.821C195.962 181.864 200.006 191.041 196.712 218.359Z" fill="#945339"/>
<path d="M168.981 260.498C163.185 265.323 157.056 266.659 151.385 266.228C150.802 266.056 150.176 265.84 149.593 265.582C146.924 264.548 144.13 263.126 141.253 261.273C136.917 258.472 133.373 255.542 130.788 252.526C120.406 240.462 123.866 226.157 143.547 208.103C154.179 198.322 161.267 186.818 165.604 178.588C166.229 177.425 166.771 176.305 167.272 175.314C168.147 173.547 168.606 172.255 169.148 171.048C169.148 171.048 186.618 165.748 188.078 191.989C189.704 221.417 187.119 245.331 168.981 260.498Z" fill="#AD6946"/>
<path d="M178.7 210.818C175.656 232.965 160.812 272.476 130.75 252.569C120.367 240.505 123.828 226.2 143.509 208.146C154.141 198.365 161.229 186.861 165.566 178.631C166.858 178.244 168.193 178.114 169.527 178.373C178.325 179.881 181.994 186.689 178.7 210.818Z" fill="#B6724D"/>
<path d="M152.807 202.457C142.216 215.599 111.903 244.726 149.554 265.623C146.886 264.589 144.092 263.167 141.215 261.315C136.879 258.514 133.335 255.584 130.75 252.568C120.367 240.504 123.828 226.199 143.509 208.145C154.141 198.364 161.229 186.86 165.566 178.63C166.191 177.467 166.733 176.346 167.233 175.355C166.191 178.802 162.147 190.91 152.807 202.457Z" fill="#D59A77"/>
<path d="M161.32 262.303C162.279 270.662 166.073 282.339 178.332 291.991C178.832 292.378 179.374 292.766 179.874 293.154C199.18 304.141 218.026 300.78 231.285 286.174C232.87 284.407 234.412 282.511 235.83 280.4C244.836 267.258 245.545 250.842 239.333 237.873C238.791 236.71 238.165 235.589 237.498 234.512C235.497 231.194 232.995 228.135 229.993 225.55C228.909 224.602 227.783 223.697 226.615 222.878C211.73 212.193 191.007 211.331 176.706 223.482C172.202 227.273 169.033 231.237 166.782 234.986C166.49 235.417 166.24 235.848 166.031 236.322C164.822 238.476 163.947 240.501 163.279 242.354C163.154 242.742 162.988 243.173 162.863 243.56C162.737 243.948 162.612 244.336 162.529 244.681C162.362 245.241 162.237 245.758 162.112 246.275C162.07 246.49 162.029 246.663 161.987 246.835C161.403 249.636 161.403 251.402 161.403 251.488C161.487 251.488 160.569 255.926 161.32 262.303Z" fill="#AD6946"/>
<path d="M161.314 263.209C162.482 272.128 166.693 282.9 178.326 292.034C178.826 292.422 179.368 292.81 179.869 293.198C199.174 304.185 218.02 300.824 231.28 286.217C232.864 284.451 234.407 282.555 235.825 280.444C244.831 267.302 245.54 250.886 239.327 237.917C239.911 241.924 239.869 246.448 239.244 251.015C237.576 262.993 231.655 275.575 221.106 282.253C214.977 286.131 207.263 287.984 197.881 286.562C197.298 286.476 196.756 286.39 196.172 286.261C186.623 284.408 179.702 278.893 174.907 272.042C168.361 262.692 165.692 250.886 165.567 242.527C165.525 240.114 165.734 238.003 166.067 236.322C164.858 238.477 163.983 240.502 163.316 242.355C163.149 242.742 163.024 243.173 162.899 243.561C162.774 243.949 162.648 244.337 162.565 244.681C162.398 245.241 162.273 245.758 162.148 246.275C162.106 246.491 162.065 246.663 162.023 246.836C161.398 249.938 160.355 255.97 161.314 263.209Z" fill="#945339"/>
<path d="M219.352 233.909C228.192 240.544 232.445 251.23 231.486 261.7C231.402 262.476 231.319 263.208 231.194 263.984C230.193 267.215 228.692 270.361 226.649 273.248C216.35 287.897 196.503 291.129 182.368 280.486C179.825 278.547 177.615 276.307 175.78 273.851C170.443 263.941 170.61 251.402 177.156 241.492C177.323 241.234 177.49 240.975 177.698 240.717C187.413 226.929 206.051 223.87 219.352 233.909Z" fill="#ECD09C"/>
<path d="M177.198 241.493C170.652 251.403 170.443 263.985 175.822 273.852C177.865 277.643 180.701 281.004 184.328 283.719C197.629 293.715 216.309 290.699 225.982 276.911C228.776 272.947 230.527 268.509 231.278 263.942C231.403 263.166 231.486 262.434 231.569 261.658C227.108 270.405 216.184 285.313 195.461 277.6C177.073 270.749 174.071 252.696 177.198 241.493Z" fill="#DCBD8A"/>
<path d="M226.652 273.249C228.695 270.362 230.196 267.217 231.197 263.985C230.446 268.51 228.695 272.948 225.901 276.955C216.228 290.7 197.59 293.759 184.247 283.762C180.62 281.048 177.784 277.644 175.741 273.895C177.576 276.351 179.744 278.592 182.329 280.531C196.547 291.13 216.353 287.856 226.652 273.249Z" fill="#C59F6D"/>
<path d="M208.763 278.248C208.721 278.248 208.68 278.248 208.638 278.248C208.221 278.205 207.804 278.033 207.47 277.774L199.548 270.923L189.791 273.896C189.458 274.026 189.041 274.026 188.707 273.896C188.332 273.81 187.999 273.595 187.748 273.293C187.248 272.733 187.123 271.914 187.373 271.225L191.001 261.099L185.205 252.137C184.788 251.491 184.746 250.715 185.121 250.026C185.497 249.336 186.247 248.949 186.998 248.992L197.172 249.638L203.384 241.15C203.843 240.547 204.635 240.245 205.386 240.374C206.136 240.547 206.72 241.107 206.928 241.882L209.555 252.353L219.187 256.058C219.896 256.317 220.396 256.963 220.48 257.738C220.563 258.514 220.229 259.247 219.604 259.634L211.015 265.451L210.723 276.266C210.723 277.042 210.264 277.731 209.597 278.033C209.347 278.162 209.055 278.248 208.763 278.248ZM199.673 269.544C199.798 269.544 199.965 269.588 200.09 269.674L208.263 276.74C208.388 276.869 208.555 276.912 208.721 276.912C208.846 276.912 208.971 276.912 209.097 276.826C209.347 276.697 209.514 276.481 209.514 276.18L209.805 265.02C209.805 264.805 209.93 264.632 210.097 264.503L218.978 258.514C219.187 258.385 219.312 258.083 219.312 257.825C219.27 257.523 219.104 257.308 218.812 257.178L208.888 253.387C208.68 253.3 208.555 253.128 208.513 252.956L205.803 242.184C205.719 241.925 205.511 241.667 205.219 241.624C204.927 241.581 204.635 241.667 204.468 241.882L198.047 250.629C197.922 250.801 197.714 250.888 197.505 250.888L186.998 250.198C186.706 250.198 186.456 250.327 186.289 250.586C186.164 250.801 186.164 251.103 186.331 251.362L192.251 260.668C192.377 260.841 192.377 261.056 192.335 261.272L188.541 271.656C188.457 271.914 188.499 272.216 188.666 272.388C188.749 272.517 188.874 272.604 189.041 272.604C189.166 272.647 189.333 272.647 189.458 272.604L199.548 269.544C199.59 269.544 199.632 269.544 199.673 269.544Z" fill="#C59F6D"/>
<path d="M161.315 263.211C161.315 262.909 161.315 262.607 161.315 262.306C161.399 255.8 162.9 248.906 165.568 242.529C172.073 227.103 188.626 215.125 205.346 217.236C231.823 220.597 240.495 244.123 241.037 255.627C241.788 271.527 231.364 286.262 231.156 286.219C231.156 286.219 231.197 286.219 231.322 286.262C232.907 284.496 234.45 282.6 235.867 280.489C244.873 267.347 245.666 250.888 239.37 237.961C225.485 209.481 193.337 208.533 176.909 222.838C172.448 226.716 169.071 231.283 166.819 234.988C166.527 235.419 166.277 235.85 166.068 236.324C164.859 238.478 163.984 240.504 163.317 242.356C163.15 242.744 163.025 243.175 162.9 243.563C162.774 243.951 162.649 244.338 162.566 244.683C162.399 245.243 162.274 245.76 162.149 246.277C162.107 246.493 162.066 246.665 162.024 246.837C161.399 249.94 160.356 255.972 161.315 263.211Z" fill="#D59A77"/>
</svg>
