<svg width="61" height="62" viewBox="0 0 61 62" fill="none" xmlns="http://www.w3.org/2000/svg">
<path d="M57.9297 27.9405C58.1573 26.6509 58.2585 25.3361 58.2585 24.0212C58.2585 20.3801 57.7022 16.9918 56.7666 14.1346C57.7022 12.7945 58.2585 11.075 58.2585 9.17863C58.2585 4.90538 55.4012 1.46656 51.8865 1.46656C50.2935 1.46656 48.827 2.17455 47.6891 3.36297C44.5284 1.3907 37.8278 0 30.0399 0C22.3784 0 15.7283 1.34013 12.517 3.3124C11.4045 2.17455 9.96318 1.49184 8.39548 1.49184C4.8808 1.46656 2.04883 4.93067 2.04883 9.20391C2.04883 11.1003 2.63039 12.845 3.56596 14.2104C2.63039 17.0677 2.0994 20.456 2.0994 24.0718C2.0994 24.3499 2.0994 24.6028 2.12468 24.8809H49.3833C52.6198 24.8556 55.6035 26.0188 57.9297 27.9405Z" fill="#664535"/>
<path d="M21.4937 10.0383C20.5328 8.44533 18.4594 7.93962 16.8664 8.90046C15.2734 9.86131 14.7677 11.9347 15.7286 13.5277C16.386 14.615 17.5744 15.1965 18.7628 15.146C18.1813 14.9943 17.6756 14.615 17.3469 14.0587C16.6389 12.8956 17.0181 11.4037 18.156 10.6957C19.3191 9.98774 20.811 10.367 21.519 11.5049C21.7465 11.8589 21.8477 12.2634 21.873 12.668C22.1005 11.8336 21.9994 10.8727 21.4937 10.0383Z" fill="white"/>
<path d="M43.4406 8.90046C41.8477 7.93962 39.7743 8.44533 38.8134 10.0383C38.3077 10.8727 38.2066 11.8336 38.4594 12.6933C38.4847 12.2887 38.5858 11.9094 38.8134 11.5302C39.5214 10.367 41.0132 10.013 42.1764 10.721C43.3395 11.429 43.6935 12.9209 42.9855 14.084C42.6568 14.6403 42.1258 14.9943 41.5695 15.1713C42.7579 15.2218 43.9464 14.6403 44.6038 13.553C45.5393 11.9347 45.0336 9.86131 43.4406 8.90046Z" fill="white"/>
<path d="M43.9482 20.0511C43.0885 17.295 38.6888 12.2379 35.073 8.41982C32.241 5.41084 28.0942 5.41084 25.2623 8.41982C21.6717 12.2379 17.2468 17.3203 16.3871 20.0511C15.8813 21.6441 15.7802 23.2877 16.0078 24.8301H44.3275C44.5551 23.2877 44.4539 21.6441 43.9482 20.0511ZM35.25 20.1523C35.0477 20.3798 33.8593 21.4418 30.4205 21.4924C30.3699 21.4924 30.3446 21.4924 30.2941 21.4924C30.2435 21.4924 30.2182 21.4924 30.1676 21.4924C26.7288 21.4418 25.5404 20.3798 25.3381 20.1523C24.9841 19.7983 25.0094 19.2167 25.3634 18.888C25.7174 18.534 26.299 18.5593 26.6277 18.9133C26.6277 18.9133 27.3357 19.4696 29.2574 19.6466V16.8399C28.1701 15.9549 26.4254 14.463 26.122 13.7298C25.6668 12.5919 26.299 11.3529 27.5379 10.9484C28.4988 10.6197 29.5355 10.9231 30.1676 11.5805C30.7998 10.8978 31.8365 10.6197 32.7973 10.9484C34.011 11.3529 34.6432 12.5919 34.2133 13.7298C33.9099 14.4883 32.1652 15.9802 31.0779 16.8652V19.6971C33.2019 19.5707 33.9605 18.9639 33.9605 18.9386C34.3145 18.5846 34.8707 18.5593 35.2247 18.9133C35.5787 19.2167 35.5787 19.7983 35.25 20.1523Z" fill="white"/>
<path d="M49.3573 27.3086H0V51.0769C0 57.0949 4.90538 62.0003 10.9233 62.0003H49.3825C55.4005 62.0003 60.3059 57.0949 60.3059 51.0769V38.2319C60.2806 32.214 55.3752 27.3086 49.3573 27.3086Z" fill="#13B0B1"/>
<path d="M16.4866 40.5831C16.4866 41.4933 16.1579 42.2013 15.4752 42.707C14.8683 43.1875 14.1098 43.415 13.1742 43.415C12.6938 43.415 12.2386 43.3392 11.8088 43.2127C11.2778 43.061 10.8732 42.8335 10.6456 42.5553C10.5192 42.3783 10.4434 42.2266 10.4434 42.0496C10.4434 41.7715 10.5445 41.5692 10.7215 41.4175C10.8985 41.2658 11.1261 41.1899 11.4042 41.1899C11.5559 41.1899 11.8593 41.2658 12.3145 41.3922C12.8202 41.5439 13.1995 41.5945 13.4776 41.5945C13.7558 41.5945 13.9833 41.5186 14.1603 41.3669C14.3373 41.2152 14.4385 41.0129 14.4385 40.7348C14.4385 40.3808 14.312 40.1532 14.0339 40.0015C13.8063 39.8751 13.427 39.7234 12.9466 39.5716C12.1881 39.3441 11.6318 39.0912 11.2778 38.7878C10.7974 38.3832 10.5445 37.8522 10.5445 37.1695C10.5445 36.3351 10.8479 35.6777 11.4801 35.172C12.0616 34.7168 12.7696 34.4893 13.6293 34.4893C14.3373 34.4893 14.9189 34.6157 15.3235 34.8685C15.7533 35.1214 15.9556 35.3995 15.9556 35.7282C15.9556 36.2845 15.6522 36.5627 15.0706 36.5627C14.8936 36.5627 14.6407 36.5121 14.3373 36.411C14.0339 36.3098 13.7558 36.2592 13.5788 36.2592C13.3259 36.2592 13.0983 36.3098 12.9213 36.4362C12.7191 36.5627 12.6179 36.7397 12.6179 36.9925C12.6179 37.1442 12.6432 37.2707 12.7191 37.3718C12.8202 37.4982 13.0225 37.6499 13.3765 37.7764C13.6293 37.8522 13.8822 37.9281 14.135 38.0039C14.8683 38.2568 15.4246 38.5602 15.7786 38.8889C16.259 39.3188 16.4866 39.9004 16.4866 40.5831Z" fill="white"/>
<path d="M22.3518 40.5578H22.4024L23.5402 35.6524C23.6161 35.2984 23.7931 35.0203 24.0459 34.818C24.2988 34.6157 24.6022 34.4893 24.9562 34.4893C25.3608 34.4893 25.6895 34.6157 25.9929 34.8685C26.2711 35.1214 26.4481 35.4501 26.5239 35.8547L27.4848 41.7968C27.5353 42.1002 27.5606 42.3025 27.5606 42.4542C27.5606 43.0863 27.2572 43.415 26.6756 43.415C26.3216 43.415 26.0688 43.2886 25.9171 43.0105C25.8159 42.8335 25.7148 42.5553 25.6642 42.1508L24.9056 37.3971H24.8804L23.7678 41.7968C23.6414 42.2519 23.5149 42.5806 23.3632 42.7576C23.1357 43.0358 22.8322 43.1622 22.4277 43.1622C22.0231 43.1622 21.6944 43.0358 21.4921 42.7576C21.3404 42.5806 21.214 42.2519 21.0875 41.7968L19.9497 37.3971H19.9244L19.1911 42.176C19.1153 42.5806 19.0394 42.884 18.9383 43.061C18.7613 43.3139 18.5084 43.4403 18.1544 43.4403C17.5476 43.4403 17.2441 43.1116 17.2441 42.4795C17.2441 42.3783 17.2694 42.1508 17.32 41.822L18.2808 35.88C18.3567 35.4754 18.5084 35.1467 18.8118 34.8938C19.09 34.641 19.444 34.5145 19.8233 34.5145C20.1773 34.5145 20.4807 34.6157 20.7335 34.8433C20.9864 35.0708 21.1634 35.349 21.2392 35.703L22.3518 40.5578Z" fill="white"/>
<path d="M32.2144 34.4893C32.9224 34.4893 33.4028 34.8685 33.6809 35.6271L35.8808 41.8979C35.9819 42.176 36.0325 42.3783 36.0325 42.53C36.0325 42.8082 35.9313 43.0105 35.7543 43.1875C35.5521 43.3645 35.3245 43.4403 35.0716 43.4403C34.5659 43.4403 34.2119 43.1369 34.0097 42.5048L33.6809 41.4933H30.5961L30.2421 42.5806C30.0398 43.1622 29.7364 43.4403 29.2813 43.4403C29.0031 43.4403 28.7756 43.3645 28.5986 43.1875C28.4216 43.0105 28.3457 42.7829 28.3457 42.5048C28.3457 42.3025 28.371 42.1002 28.4468 41.9232L30.7225 35.7788C31.0007 34.9191 31.5064 34.4893 32.2144 34.4893ZM32.1385 36.6385L31.1524 39.6981H33.1247L32.1385 36.6385Z" fill="white"/>
<path d="M38.7887 39.8746V42.0239C38.7887 42.9594 38.46 43.4399 37.8025 43.4399C37.1451 43.4399 36.8164 42.9594 36.8164 42.0239V36.0059C36.8164 35.5002 36.9175 35.1209 37.1198 34.9187C37.3221 34.7164 37.6761 34.6152 38.2071 34.6152H39.7495C40.7104 34.6152 41.4689 34.8175 42.0758 35.2474C42.7332 35.7278 43.0872 36.4358 43.0872 37.3461C43.0872 38.0035 42.9102 38.5092 42.5309 38.9391C42.1516 39.3436 41.6459 39.5965 41.0138 39.6976L42.5815 41.4423C42.9608 41.8722 43.1631 42.2514 43.1631 42.5802C43.1631 42.8583 43.0619 43.0859 42.8849 43.2376C42.7079 43.4146 42.4804 43.4904 42.2022 43.4904C41.8735 43.4904 41.5195 43.2629 41.1402 42.7824L38.7887 39.8746ZM38.7887 38.5598H39.6989C40.5334 38.5598 40.9632 38.2058 40.9632 37.4725C40.9632 36.7898 40.5587 36.4358 39.7242 36.4358H38.7887V38.5598Z" fill="white"/>
<path d="M45.5907 36.4611C44.8827 36.4611 44.4275 36.4358 44.2505 36.4105C43.7195 36.3094 43.4414 36.0059 43.4414 35.5508C43.4414 34.9187 43.9218 34.6152 44.8574 34.6152H48.2962C49.2318 34.6152 49.7122 34.9187 49.7122 35.5508C49.7122 36.0059 49.4341 36.3094 48.9031 36.4105C48.7261 36.4611 48.2709 36.4611 47.5629 36.4611V42.0239C47.5629 42.9594 47.2342 43.4399 46.5768 43.4399C45.9194 43.4399 45.5907 42.9594 45.5907 42.0239V36.4611Z" fill="white"/>
<path d="M13.9071 48.7755C13.1991 48.7755 12.7439 48.7502 12.5669 48.725C12.036 48.6238 11.7578 48.3204 11.7578 47.8652C11.7578 47.2331 12.2382 46.9297 13.1738 46.9297H16.6379C17.5735 46.9297 18.0539 47.2331 18.0539 47.8652C18.0539 48.3204 17.7758 48.6238 17.2448 48.725C17.0678 48.7755 16.6126 48.7755 15.9046 48.7755V54.3383C15.9046 55.2739 15.5759 55.7543 14.9185 55.7543C14.2611 55.7543 13.9324 55.2739 13.9324 54.3383V48.7755H13.9071Z" fill="white"/>
<path d="M22.4536 46.9297C23.3892 46.9297 23.8696 47.2331 23.8696 47.8652C23.8696 48.4721 23.3892 48.7755 22.4536 48.7755H20.8353V50.3179H22.226C23.1616 50.3179 23.642 50.6214 23.642 51.2282C23.642 51.8351 23.1616 52.1385 22.226 52.1385H20.8353V53.8073H22.5042C23.4397 53.8073 23.9202 54.1108 23.9202 54.7176C23.9202 55.3245 23.4397 55.6279 22.5042 55.6279H20.1779C19.6722 55.6279 19.3182 55.552 19.1159 55.375C18.9136 55.198 18.8125 54.8693 18.8125 54.3889V48.3204C18.8125 47.8147 18.9136 47.4354 19.1159 47.2331C19.3182 47.0308 19.6722 46.9297 20.2032 46.9297H22.4536Z" fill="white"/>
<path d="M28.0931 46.9297C29.1803 46.9297 30.0653 47.132 30.6975 47.5365C31.3043 47.9158 31.7595 48.4468 32.0882 49.1295C32.3916 49.7617 32.5433 50.4444 32.5433 51.2029C32.5433 52.5431 32.164 53.6051 31.4307 54.4142C30.6722 55.2486 29.6102 55.6532 28.2953 55.6532H26.4748C25.9691 55.6532 25.6151 55.5773 25.4128 55.4003C25.2105 55.2233 25.1094 54.8946 25.1094 54.4142V48.3457C25.1094 47.84 25.2105 47.4607 25.4128 47.2584C25.6151 47.0561 25.9691 46.955 26.5001 46.955H28.0931V46.9297ZM27.1069 53.8073H28.0172C29.5849 53.8073 30.394 52.9223 30.394 51.1776C30.394 49.5847 29.5849 48.7755 27.9919 48.7755H27.1322V53.8073H27.1069Z" fill="white"/>
<path d="M36.5892 46.9297C37.6764 46.9297 38.5614 47.132 39.1936 47.5365C39.8004 47.9158 40.2556 48.4468 40.5843 49.1295C40.8877 49.7617 41.0394 50.4444 41.0394 51.2029C41.0394 52.5431 40.6601 53.6051 39.9268 54.4142C39.1683 55.2486 38.1063 55.6532 36.7914 55.6532H34.9709C34.4652 55.6532 34.1112 55.5773 33.9089 55.4003C33.7066 55.2233 33.6055 54.8946 33.6055 54.4142V48.3457C33.6055 47.84 33.7066 47.4607 33.9089 47.2584C34.1112 47.0561 34.4652 46.955 34.9962 46.955H36.5892V46.9297ZM35.603 53.8073H36.5133C38.081 53.8073 38.8901 52.9223 38.8901 51.1776C38.8901 49.5847 38.081 48.7755 36.488 48.7755H35.6283V53.8073H35.603Z" fill="white"/>
<path d="M46.9808 46.8037C47.2084 46.8037 47.4107 46.9049 47.5877 47.0818C47.7647 47.2588 47.8405 47.4611 47.8405 47.6887C47.8405 47.9163 47.6888 48.245 47.3854 48.7001L45.3878 51.5321V54.3388C45.3878 55.2743 45.0591 55.7295 44.4017 55.7295C43.7443 55.7295 43.4156 55.2743 43.4156 54.3388V51.5321L41.3927 48.7001C41.0893 48.2956 40.9629 47.9416 40.9629 47.6887C40.9629 47.4358 41.064 47.2336 41.241 47.0566C41.4433 46.8796 41.6709 46.8037 41.9237 46.8037C42.2525 46.8037 42.5812 47.0566 42.9352 47.5623L44.427 49.6863L45.9188 47.537C46.2476 47.0566 46.6016 46.8037 46.9808 46.8037Z" fill="white"/>
</svg>
