<svg width="61" height="62" viewBox="0 0 61 62" fill="none" xmlns="http://www.w3.org/2000/svg">
<path d="M57.9291 27.9405C58.1566 26.6509 58.2578 25.3361 58.2578 24.0212C58.2578 20.3801 57.7015 16.9918 56.7659 14.1346C57.7015 12.7945 58.2578 11.075 58.2578 9.17863C58.2578 4.90538 55.4005 1.46656 51.8858 1.46656C50.2929 1.46656 48.8263 2.17455 47.6885 3.36297C44.5278 1.3907 37.8271 0 30.0392 0C22.3777 0 15.7276 1.34013 12.5163 3.3124C11.4038 2.17455 9.96251 1.49184 8.39481 1.49184C4.88013 1.46656 2.04816 4.93067 2.04816 9.20391C2.04816 11.1003 2.62972 12.845 3.56529 14.2104C2.62972 17.0677 2.09873 20.456 2.09873 24.0718C2.09873 24.3499 2.09873 24.6028 2.12401 24.8809H49.3826C52.6191 24.8556 55.6028 26.0188 57.9291 27.9405Z" fill="#664535"/>
<path d="M21.4928 10.0383C20.5319 8.44533 18.4585 7.93962 16.8655 8.90046C15.2725 9.86131 14.7668 11.9347 15.7277 13.5277C16.3851 14.615 17.5735 15.1965 18.7619 15.146C18.1804 14.9943 17.6747 14.615 17.3459 14.0587C16.638 12.8956 17.0172 11.4037 18.1551 10.6957C19.3182 9.98774 20.8101 10.367 21.518 11.5049C21.7456 11.8589 21.8468 12.2634 21.872 12.668C22.0996 11.8336 21.9985 10.8727 21.4928 10.0383Z" fill="white"/>
<path d="M43.4404 8.90046C41.8475 7.93962 39.774 8.44533 38.8132 10.0383C38.3075 10.8727 38.2063 11.8336 38.4592 12.6933C38.4845 12.2887 38.5856 11.9094 38.8132 11.5302C39.5212 10.367 41.013 10.013 42.1762 10.721C43.3393 11.429 43.6933 12.9209 42.9853 14.084C42.6566 14.6403 42.1256 14.9943 41.5693 15.1713C42.7577 15.2218 43.9461 14.6403 44.6036 13.553C45.5391 11.9347 45.0334 9.86131 43.4404 8.90046Z" fill="white"/>
<path d="M43.9465 20.0511C43.0868 17.295 38.6871 12.2379 35.0713 8.41982C32.2393 5.41084 28.0925 5.41084 25.2605 8.41982C21.67 12.2379 17.245 17.3203 16.3853 20.0511C15.8796 21.6441 15.7785 23.2877 16.0061 24.8301H44.3258C44.5534 23.2877 44.4522 21.6441 43.9465 20.0511ZM35.2483 20.1523C35.046 20.3798 33.8576 21.4418 30.4188 21.4924C30.3682 21.4924 30.3429 21.4924 30.2924 21.4924C30.2418 21.4924 30.2165 21.4924 30.1659 21.4924C26.7271 21.4418 25.5387 20.3798 25.3364 20.1523C24.9824 19.7983 25.0077 19.2167 25.3617 18.888C25.7157 18.534 26.2973 18.5593 26.626 18.9133C26.626 18.9133 27.334 19.4696 29.2557 19.6466V16.8399C28.1684 15.9549 26.4237 14.463 26.1203 13.7298C25.6651 12.5919 26.2973 11.3529 27.5362 10.9484C28.4971 10.6197 29.5338 10.9231 30.1659 11.5805C30.7981 10.8978 31.8348 10.6197 32.7956 10.9484C34.0093 11.3529 34.6415 12.5919 34.2116 13.7298C33.9082 14.4883 32.1635 15.9802 31.0762 16.8652V19.6971C33.2002 19.5707 33.9588 18.9639 33.9588 18.9386C34.3127 18.5846 34.869 18.5593 35.223 18.9133C35.577 19.2167 35.577 19.7983 35.2483 20.1523Z" fill="white"/>
<path d="M49.3573 27.3086H0V51.0769C0 57.0949 4.90538 62.0003 10.9233 62.0003H49.3825C55.4005 62.0003 60.3059 57.0949 60.3059 51.0769V38.2319C60.2806 32.214 55.3752 27.3086 49.3573 27.3086Z" fill="#13B0B1"/>
<path d="M16.4862 40.5831C16.4862 41.4933 16.1575 42.2013 15.4748 42.707C14.868 43.1875 14.1094 43.415 13.1738 43.415C12.6934 43.415 12.2383 43.3392 11.8084 43.2127C11.2774 43.061 10.8728 42.8335 10.6453 42.5553C10.5188 42.3783 10.443 42.2266 10.443 42.0496C10.443 41.7715 10.5441 41.5692 10.7211 41.4175C10.8981 41.2658 11.1257 41.1899 11.4038 41.1899C11.5556 41.1899 11.859 41.2658 12.3141 41.3922C12.8198 41.5439 13.1991 41.5945 13.4773 41.5945C13.7554 41.5945 13.983 41.5186 14.16 41.3669C14.337 41.2152 14.4381 41.0129 14.4381 40.7348C14.4381 40.3808 14.3117 40.1532 14.0335 40.0015C13.806 39.8751 13.4267 39.7234 12.9463 39.5716C12.1877 39.3441 11.6314 39.0912 11.2774 38.7878C10.797 38.3832 10.5441 37.8522 10.5441 37.1695C10.5441 36.3351 10.8476 35.6777 11.4797 35.172C12.0613 34.7168 12.7693 34.4893 13.629 34.4893C14.337 34.4893 14.9185 34.6157 15.3231 34.8685C15.7529 35.1214 15.9552 35.3995 15.9552 35.7282C15.9552 36.2845 15.6518 36.5627 15.0702 36.5627C14.8932 36.5627 14.6404 36.5121 14.337 36.411C14.0335 36.3098 13.7554 36.2592 13.5784 36.2592C13.3255 36.2592 13.098 36.3098 12.921 36.4362C12.7187 36.5627 12.6175 36.7397 12.6175 36.9925C12.6175 37.1442 12.6428 37.2707 12.7187 37.3718C12.8198 37.4982 13.0221 37.6499 13.3761 37.7764C13.629 37.8522 13.8818 37.9281 14.1347 38.0039C14.868 38.2568 15.4242 38.5602 15.7782 38.8889C16.2587 39.3188 16.4862 39.9004 16.4862 40.5831Z" fill="white"/>
<path d="M22.3521 40.5578H22.4027L23.5405 35.6524C23.6164 35.2984 23.7934 35.0203 24.0462 34.818C24.2991 34.6157 24.6025 34.4893 24.9565 34.4893C25.3611 34.4893 25.6898 34.6157 25.9932 34.8685C26.2713 35.1214 26.4483 35.4501 26.5242 35.8547L27.485 41.7968C27.5356 42.1002 27.5609 42.3025 27.5609 42.4542C27.5609 43.0863 27.2575 43.415 26.6759 43.415C26.3219 43.415 26.069 43.2886 25.9173 43.0105C25.8162 42.8335 25.7151 42.5553 25.6645 42.1508L24.9059 37.3971H24.8806L23.7681 41.7968C23.6416 42.2519 23.5152 42.5806 23.3635 42.7576C23.1359 43.0358 22.8325 43.1622 22.4279 43.1622C22.0234 43.1622 21.6947 43.0358 21.4924 42.7576C21.3407 42.5806 21.2142 42.2519 21.0878 41.7968L19.95 37.3971H19.9247L19.1914 42.176C19.1155 42.5806 19.0397 42.884 18.9385 43.061C18.7615 43.3139 18.5087 43.4403 18.1547 43.4403C17.5478 43.4403 17.2444 43.1116 17.2444 42.4795C17.2444 42.3783 17.2697 42.1508 17.3203 41.822L18.2811 35.88C18.357 35.4754 18.5087 35.1467 18.8121 34.8938C19.0903 34.641 19.4443 34.5145 19.8235 34.5145C20.1775 34.5145 20.481 34.6157 20.7338 34.8433C20.9867 35.0708 21.1637 35.349 21.2395 35.703L22.3521 40.5578Z" fill="white"/>
<path d="M32.2134 34.4893C32.9214 34.4893 33.4019 34.8685 33.68 35.6271L35.8798 41.8979C35.981 42.176 36.0315 42.3783 36.0315 42.53C36.0315 42.8082 35.9304 43.0105 35.7534 43.1875C35.5511 43.3645 35.3235 43.4403 35.0707 43.4403C34.565 43.4403 34.211 43.1369 34.0087 42.5048L33.68 41.4933H30.5952L30.2412 42.5806C30.0389 43.1622 29.7355 43.4403 29.2803 43.4403C29.0022 43.4403 28.7746 43.3645 28.5976 43.1875C28.4206 43.0105 28.3448 42.7829 28.3448 42.5048C28.3448 42.3025 28.37 42.1002 28.4459 41.9232L30.7216 35.7788C30.9997 34.9191 31.5054 34.4893 32.2134 34.4893ZM32.1376 36.6385L31.1514 39.6981H33.1237L32.1376 36.6385Z" fill="white"/>
<path d="M38.7874 39.8746V42.0239C38.7874 42.9594 38.4587 43.4399 37.8013 43.4399C37.1439 43.4399 36.8152 42.9594 36.8152 42.0239V36.0059C36.8152 35.5002 36.9163 35.1209 37.1186 34.9187C37.3209 34.7164 37.6749 34.6152 38.2059 34.6152H39.7483C40.7091 34.6152 41.4677 34.8175 42.0745 35.2474C42.732 35.7278 43.086 36.4358 43.086 37.3461C43.086 38.0035 42.909 38.5092 42.5297 38.9391C42.1504 39.3436 41.6447 39.5965 41.0125 39.6976L42.5802 41.4423C42.9595 41.8722 43.1618 42.2514 43.1618 42.5802C43.1618 42.8583 43.0607 43.0859 42.8837 43.2376C42.7067 43.4146 42.4791 43.4904 42.201 43.4904C41.8722 43.4904 41.5183 43.2629 41.139 42.7824L38.7874 39.8746ZM38.7874 38.5598H39.6977C40.5321 38.5598 40.962 38.2058 40.962 37.4725C40.962 36.7898 40.5574 36.4358 39.723 36.4358H38.7874V38.5598Z" fill="white"/>
<path d="M45.5895 36.4611C44.8815 36.4611 44.4264 36.4358 44.2494 36.4105C43.7184 36.3094 43.4402 36.0059 43.4402 35.5508C43.4402 34.9187 43.9207 34.6152 44.8562 34.6152H48.2951C49.2306 34.6152 49.711 34.9187 49.711 35.5508C49.711 36.0059 49.4329 36.3094 48.9019 36.4105C48.7249 36.4611 48.2698 36.4611 47.5618 36.4611V42.0239C47.5618 42.9594 47.2331 43.4399 46.5756 43.4399C45.9182 43.4399 45.5895 42.9594 45.5895 42.0239V36.4611Z" fill="white"/>
<path d="M13.9068 48.7755C13.1988 48.7755 12.7437 48.7502 12.5667 48.725C12.0357 48.6238 11.7575 48.3204 11.7575 47.8652C11.7575 47.2331 12.238 46.9297 13.1735 46.9297H16.6376C17.5732 46.9297 18.0536 47.2331 18.0536 47.8652C18.0536 48.3204 17.7755 48.6238 17.2445 48.725C17.0675 48.7755 16.6124 48.7755 15.9044 48.7755V54.3383C15.9044 55.2739 15.5756 55.7543 14.9182 55.7543C14.2608 55.7543 13.9321 55.2739 13.9321 54.3383V48.7755H13.9068Z" fill="white"/>
<path d="M22.4532 46.9297C23.3888 46.9297 23.8692 47.2331 23.8692 47.8652C23.8692 48.4721 23.3888 48.7755 22.4532 48.7755H20.835V50.3179H22.2257C23.1612 50.3179 23.6417 50.6214 23.6417 51.2282C23.6417 51.8351 23.1612 52.1385 22.2257 52.1385H20.835V53.8073H22.5038C23.4394 53.8073 23.9198 54.1108 23.9198 54.7176C23.9198 55.3245 23.4394 55.6279 22.5038 55.6279H20.1776C19.6718 55.6279 19.3178 55.552 19.1156 55.375C18.9133 55.198 18.8121 54.8693 18.8121 54.3889V48.3204C18.8121 47.8147 18.9133 47.4354 19.1156 47.2331C19.3178 47.0308 19.6718 46.9297 20.2028 46.9297H22.4532Z" fill="white"/>
<path d="M28.092 46.9297C29.1792 46.9297 30.0642 47.132 30.6964 47.5365C31.3032 47.9158 31.7584 48.4468 32.0871 49.1295C32.3905 49.7617 32.5422 50.4444 32.5422 51.2029C32.5422 52.5431 32.1629 53.6051 31.4296 54.4142C30.6711 55.2486 29.6091 55.6532 28.2942 55.6532H26.4737C25.968 55.6532 25.614 55.5773 25.4117 55.4003C25.2094 55.2233 25.1083 54.8946 25.1083 54.4142V48.3457C25.1083 47.84 25.2094 47.4607 25.4117 47.2584C25.614 47.0561 25.968 46.955 26.499 46.955H28.092V46.9297ZM27.1058 53.8073H28.0161C29.5838 53.8073 30.3929 52.9223 30.3929 51.1776C30.3929 49.5847 29.5838 48.7755 27.9908 48.7755H27.1311V53.8073H27.1058Z" fill="white"/>
<path d="M36.5879 46.9297C37.6752 46.9297 38.5602 47.132 39.1923 47.5365C39.7992 47.9158 40.2543 48.4468 40.583 49.1295C40.8865 49.7617 41.0382 50.4444 41.0382 51.2029C41.0382 52.5431 40.6589 53.6051 39.9256 54.4142C39.1671 55.2486 38.1051 55.6532 36.7902 55.6532H34.9697C34.464 55.6532 34.11 55.5773 33.9077 55.4003C33.7054 55.2233 33.6042 54.8946 33.6042 54.4142V48.3457C33.6042 47.84 33.7054 47.4607 33.9077 47.2584C34.11 47.0561 34.464 46.955 34.9949 46.955H36.5879V46.9297ZM35.6018 53.8073H36.5121C38.0798 53.8073 38.8889 52.9223 38.8889 51.1776C38.8889 49.5847 38.0798 48.7755 36.4868 48.7755H35.6271V53.8073H35.6018Z" fill="white"/>
<path d="M46.9802 46.8037C47.2078 46.8037 47.41 46.9049 47.587 47.0818C47.764 47.2588 47.8399 47.4611 47.8399 47.6887C47.8399 47.9163 47.6882 48.245 47.3848 48.7001L45.3872 51.5321V54.3388C45.3872 55.2743 45.0585 55.7295 44.4011 55.7295C43.7437 55.7295 43.4149 55.2743 43.4149 54.3388V51.5321L41.3921 48.7001C41.0887 48.2956 40.9622 47.9416 40.9622 47.6887C40.9622 47.4358 41.0634 47.2336 41.2404 47.0566C41.4427 46.8796 41.6702 46.8037 41.9231 46.8037C42.2518 46.8037 42.5805 47.0566 42.9345 47.5623L44.4264 49.6863L45.9182 47.537C46.2469 47.0566 46.6009 46.8037 46.9802 46.8037Z" fill="white"/>
</svg>
