<svg width="59" height="37" viewBox="0 0 59 37" fill="none" xmlns="http://www.w3.org/2000/svg">
<g clip-path="url(#clip0_1919_91)">
<path d="M37.1517 32.2939H21.3286V3.86328H37.1517V32.2939Z" fill="#EA5E20"/>
<path d="M22.3466 18.0901C22.3466 12.33 25.0532 7.19441 29.2634 3.88637C26.1636 1.43426 22.3004 0 18.067 0C8.09661 0 0 8.09661 0 18.0901C0 28.0837 8.09661 36.1571 18.067 36.1571C22.2772 36.1571 26.1636 34.7229 29.2403 32.2939C25.0532 28.9859 22.3466 23.8503 22.3466 18.0901Z" fill="#DE1E26"/>
<path d="M58.5036 18.0901C58.5036 28.0837 50.407 36.1571 40.4366 36.1571C36.2264 36.1571 32.34 34.7229 29.2633 32.2939C33.4735 28.9859 36.157 23.8503 36.157 18.0901C36.157 12.33 33.4504 7.19441 29.2633 3.88637C32.3169 1.43426 36.2033 0 40.4135 0C50.407 0 58.5036 8.09661 58.5036 18.0901Z" fill="#F59F0D"/>
<path d="M51.6794 18.9926C51.6794 18.0904 52.2578 17.3733 53.1831 17.3733C54.0622 17.3733 54.6405 18.0673 54.6405 18.9926C54.6405 19.9179 54.0622 20.6119 53.1831 20.6119C52.2578 20.6119 51.6794 19.8948 51.6794 18.9926ZM55.5658 18.9926V14.6436H54.5942V17.1651C54.2704 16.7255 53.7152 16.4711 53.0443 16.4711C51.7026 16.4711 50.6616 17.5352 50.6616 18.9926C50.6616 20.45 51.6794 21.5141 53.0443 21.5141C53.7383 21.5141 54.2704 21.2365 54.5942 20.8201V21.3984H55.5658V18.9926ZM41.9866 18.9926C41.9866 18.0904 42.565 17.3733 43.4903 17.3733C44.3694 17.3733 44.9477 18.0673 44.9477 18.9926C44.9477 19.9179 44.3694 20.6119 43.4903 20.6119C42.5418 20.6119 41.9866 19.8948 41.9866 18.9926ZM45.873 18.9926V16.5867H44.9014V17.1651C44.5776 16.7255 44.0224 16.4711 43.3515 16.4711C42.0098 16.4711 40.9688 17.5352 40.9688 18.9926C40.9688 20.45 41.9866 21.5141 43.3515 21.5141C44.0455 21.5141 44.5776 21.2365 44.9014 20.8201V21.3984H45.873V18.9926ZM49.5743 16.4711C48.9729 16.4711 48.5333 16.7487 48.2789 17.1651V16.5867H47.3304V21.3984H48.302V18.6919C48.302 17.9053 48.6953 17.3964 49.3661 17.3964C49.5743 17.3964 49.8057 17.4195 50.0139 17.5121L50.3377 16.6099C50.0833 16.4942 49.7825 16.4711 49.5743 16.4711ZM12.4687 18.9926C12.4687 18.0904 13.0471 17.3733 13.9724 17.3733C14.8514 17.3733 15.4298 18.0673 15.4298 18.9926C15.4298 19.9179 14.8514 20.6119 13.9724 20.6119C13.0471 20.6119 12.4687 19.8948 12.4687 18.9926ZM16.3551 18.9926V16.5867H15.3835V17.1651C15.0596 16.7255 14.5044 16.4711 13.8336 16.4711C12.4919 16.4711 11.4509 17.5352 11.4509 18.9926C11.4509 20.45 12.4919 21.5141 13.8336 21.5141C14.5276 21.5141 15.0596 21.2365 15.3835 20.8201V21.3984H16.3551V18.9926ZM29.3791 17.3501C30.0962 17.3501 30.582 17.8128 30.6514 18.5762H28.0605C28.1299 17.8591 28.5925 17.3501 29.3791 17.3501ZM29.3791 16.4711C27.9679 16.4711 26.9964 17.4889 26.9964 18.9926C26.9964 20.5194 27.9911 21.5372 29.4485 21.5372C30.1656 21.5372 30.8365 21.3522 31.4148 20.8664L30.9059 20.1492C30.5126 20.4731 29.9805 20.6582 29.5179 20.6582C28.847 20.6582 28.153 20.2649 28.0373 19.409H31.623C31.623 19.2702 31.6461 19.1545 31.6461 19.0157C31.6461 17.4658 30.7439 16.4711 29.3791 16.4711ZM36.1571 18.9926C36.1571 20.45 37.1287 21.5141 38.6786 21.5141C39.3957 21.5141 39.8815 21.3522 40.4136 20.9358L39.9047 20.1724C39.5114 20.45 39.095 20.6119 38.6555 20.6119C37.8227 20.6119 37.1749 19.941 37.1749 18.9926C37.1749 18.021 37.8227 17.3733 38.6555 17.3733C39.1181 17.3733 39.5114 17.5352 39.9047 17.8128L40.4136 17.0494C39.8815 16.633 39.4189 16.4711 38.6786 16.4711C37.1287 16.4711 36.1571 17.5352 36.1571 18.9926ZM21.5601 16.9569C21.0511 16.633 20.3571 16.4479 19.5937 16.4479C18.3677 16.4479 17.6274 17.0263 17.6274 17.9747C17.6274 18.7613 18.1595 19.2239 19.2467 19.3859L19.7325 19.4553C20.3109 19.5247 20.6116 19.7328 20.6116 20.0104C20.6116 20.3806 20.1952 20.635 19.4781 20.635C18.7147 20.635 18.2289 20.4037 17.8819 20.1261L17.3961 20.8895C18.1132 21.4216 18.9691 21.5141 19.4781 21.5141C20.8661 21.5141 21.6295 20.8664 21.6295 19.9642C21.6295 19.1083 21.0511 18.6919 19.987 18.5299L19.5012 18.4605C19.0385 18.3911 18.6453 18.2523 18.6453 17.9285C18.6453 17.5815 19.0385 17.327 19.5937 17.327C20.2183 17.327 20.7967 17.5583 21.0974 17.7434L21.5601 16.9569ZM35.0467 16.4711C34.4452 16.4711 34.0057 16.7487 33.7281 17.1651V16.5867H32.7796V21.3984H33.7512V18.6919C33.7512 17.9053 34.1445 17.3964 34.8154 17.3964C35.0236 17.3964 35.2549 17.4195 35.4631 17.5121L35.787 16.6099C35.5556 16.4942 35.2549 16.4711 35.0467 16.4711ZM26.1404 16.5867H24.3823V15.1294H23.4107V16.5867H22.3929V17.4658H23.4107V19.7328C23.4107 20.8432 23.804 21.5141 25.03 21.5141C25.4927 21.5141 26.0016 21.3753 26.3255 21.144L26.0248 20.288C25.724 20.4731 25.377 20.5656 25.0994 20.5656C24.5674 20.5656 24.3592 20.2418 24.3592 19.756V17.4658H26.1173V16.5867H26.1404ZM10.4561 21.3984V18.368C10.4561 17.2345 9.76215 16.4711 8.60549 16.4711C8.00403 16.4711 7.3563 16.6561 6.91677 17.327C6.59291 16.7949 6.06084 16.4711 5.32058 16.4711C4.81165 16.4711 4.25646 16.6099 3.86319 17.1651V16.5867H2.8916V21.3984H3.86319V18.6225C3.86319 17.7897 4.37212 17.3501 5.08925 17.3501C5.78325 17.3501 6.17651 17.8128 6.17651 18.6225V21.3984H7.17124V18.6225C7.17124 17.7897 7.7033 17.3501 8.39729 17.3501C9.11442 17.3501 9.48455 17.8128 9.48455 18.6225V21.3984H10.4561Z" fill="white"/>
</g>
<defs>
<clipPath id="clip0_1919_91">
<rect width="58.5038" height="36.1571" fill="white"/>
</clipPath>
</defs>
</svg>
