<svg width="112" height="45" viewBox="0 0 112 45" fill="none" xmlns="http://www.w3.org/2000/svg">
<rect width="112" height="45" rx="22.5" fill="white"/>
<g clip-path="url(#clip0_1934_5531)">
<path d="M64.1517 37.2939H48.3286V8.86328H64.1517V37.2939Z" fill="#EA5E20"/>
<path d="M49.3466 23.0901C49.3466 17.33 52.0532 12.1944 56.2634 8.88637C53.1636 6.43426 49.3004 5 45.067 5C35.0966 5 27 13.0966 27 23.0901C27 33.0837 35.0966 41.1571 45.067 41.1571C49.2772 41.1571 53.1636 39.7229 56.2403 37.2939C52.0532 33.9859 49.3466 28.8503 49.3466 23.0901Z" fill="#DE1E26"/>
<path d="M85.5035 23.0901C85.5035 33.0837 77.4069 41.1571 67.4365 41.1571C63.2263 41.1571 59.3399 39.7229 56.2632 37.2939C60.4734 33.9859 63.1569 28.8503 63.1569 23.0901C63.1569 17.33 60.4503 12.1944 56.2632 8.88637C59.3168 6.43426 63.2031 5 67.4134 5C77.4069 5 85.5035 13.0966 85.5035 23.0901Z" fill="#F59F0D"/>
<path d="M78.6794 23.9926C78.6794 23.0904 79.2578 22.3733 80.1831 22.3733C81.0622 22.3733 81.6405 23.0673 81.6405 23.9926C81.6405 24.9179 81.0622 25.6119 80.1831 25.6119C79.2578 25.6119 78.6794 24.8948 78.6794 23.9926ZM82.5658 23.9926V19.6436H81.5942V22.1651C81.2704 21.7255 80.7152 21.4711 80.0443 21.4711C78.7026 21.4711 77.6616 22.5352 77.6616 23.9926C77.6616 25.45 78.6794 26.5141 80.0443 26.5141C80.7383 26.5141 81.2704 26.2365 81.5942 25.8201V26.3984H82.5658V23.9926ZM68.9866 23.9926C68.9866 23.0904 69.565 22.3733 70.4903 22.3733C71.3694 22.3733 71.9477 23.0673 71.9477 23.9926C71.9477 24.9179 71.3694 25.6119 70.4903 25.6119C69.5418 25.6119 68.9866 24.8948 68.9866 23.9926ZM72.873 23.9926V21.5867H71.9014V22.1651C71.5776 21.7255 71.0224 21.4711 70.3515 21.4711C69.0098 21.4711 67.9688 22.5352 67.9688 23.9926C67.9688 25.45 68.9866 26.5141 70.3515 26.5141C71.0455 26.5141 71.5776 26.2365 71.9014 25.8201V26.3984H72.873V23.9926ZM76.5743 21.4711C75.9729 21.4711 75.5333 21.7487 75.2789 22.1651V21.5867H74.3304V26.3984H75.302V23.6919C75.302 22.9053 75.6953 22.3964 76.3661 22.3964C76.5743 22.3964 76.8057 22.4195 77.0139 22.5121L77.3377 21.6099C77.0833 21.4942 76.7825 21.4711 76.5743 21.4711ZM39.4687 23.9926C39.4687 23.0904 40.0471 22.3733 40.9724 22.3733C41.8514 22.3733 42.4298 23.0673 42.4298 23.9926C42.4298 24.9179 41.8514 25.6119 40.9724 25.6119C40.0471 25.6119 39.4687 24.8948 39.4687 23.9926ZM43.3551 23.9926V21.5867H42.3835V22.1651C42.0596 21.7255 41.5044 21.4711 40.8336 21.4711C39.4919 21.4711 38.4509 22.5352 38.4509 23.9926C38.4509 25.45 39.4919 26.5141 40.8336 26.5141C41.5276 26.5141 42.0596 26.2365 42.3835 25.8201V26.3984H43.3551V23.9926ZM56.3791 22.3501C57.0962 22.3501 57.582 22.8128 57.6514 23.5762H55.0605C55.1299 22.8591 55.5925 22.3501 56.3791 22.3501ZM56.3791 21.4711C54.9679 21.4711 53.9964 22.4889 53.9964 23.9926C53.9964 25.5194 54.9911 26.5372 56.4485 26.5372C57.1656 26.5372 57.8365 26.3522 58.4148 25.8664L57.9059 25.1492C57.5126 25.4731 56.9805 25.6582 56.5179 25.6582C55.847 25.6582 55.153 25.2649 55.0373 24.409H58.623C58.623 24.2702 58.6461 24.1545 58.6461 24.0157C58.6461 22.4658 57.7439 21.4711 56.3791 21.4711ZM63.1571 23.9926C63.1571 25.45 64.1287 26.5141 65.6786 26.5141C66.3957 26.5141 66.8815 26.3522 67.4136 25.9358L66.9047 25.1724C66.5114 25.45 66.095 25.6119 65.6555 25.6119C64.8227 25.6119 64.1749 24.941 64.1749 23.9926C64.1749 23.021 64.8227 22.3733 65.6555 22.3733C66.1181 22.3733 66.5114 22.5352 66.9047 22.8128L67.4136 22.0494C66.8815 21.633 66.4189 21.4711 65.6786 21.4711C64.1287 21.4711 63.1571 22.5352 63.1571 23.9926ZM48.5601 21.9569C48.0511 21.633 47.3571 21.4479 46.5937 21.4479C45.3677 21.4479 44.6274 22.0263 44.6274 22.9747C44.6274 23.7613 45.1595 24.2239 46.2467 24.3859L46.7325 24.4553C47.3109 24.5247 47.6116 24.7328 47.6116 25.0104C47.6116 25.3806 47.1952 25.635 46.4781 25.635C45.7147 25.635 45.2289 25.4037 44.8819 25.1261L44.3961 25.8895C45.1132 26.4216 45.9691 26.5141 46.4781 26.5141C47.8661 26.5141 48.6295 25.8664 48.6295 24.9642C48.6295 24.1083 48.0511 23.6919 46.987 23.5299L46.5012 23.4605C46.0385 23.3911 45.6453 23.2523 45.6453 22.9285C45.6453 22.5815 46.0385 22.327 46.5937 22.327C47.2183 22.327 47.7967 22.5583 48.0974 22.7434L48.5601 21.9569ZM62.0467 21.4711C61.4452 21.4711 61.0057 21.7487 60.7281 22.1651V21.5867H59.7796V26.3984H60.7512V23.6919C60.7512 22.9053 61.1445 22.3964 61.8154 22.3964C62.0236 22.3964 62.2549 22.4195 62.4631 22.5121L62.787 21.6099C62.5556 21.4942 62.2549 21.4711 62.0467 21.4711ZM53.1404 21.5867H51.3823V20.1294H50.4107V21.5867H49.3929V22.4658H50.4107V24.7328C50.4107 25.8432 50.804 26.5141 52.03 26.5141C52.4927 26.5141 53.0016 26.3753 53.3255 26.144L53.0248 25.288C52.724 25.4731 52.377 25.5656 52.0994 25.5656C51.5674 25.5656 51.3592 25.2418 51.3592 24.756V22.4658H53.1173V21.5867H53.1404ZM37.4561 26.3984V23.368C37.4561 22.2345 36.7622 21.4711 35.6055 21.4711C35.004 21.4711 34.3563 21.6561 33.9168 22.327C33.5929 21.7949 33.0608 21.4711 32.3206 21.4711C31.8117 21.4711 31.2565 21.6099 30.8632 22.1651V21.5867H29.8916V26.3984H30.8632V23.6225C30.8632 22.7897 31.3721 22.3501 32.0893 22.3501C32.7832 22.3501 33.1765 22.8128 33.1765 23.6225V26.3984H34.1712V23.6225C34.1712 22.7897 34.7033 22.3501 35.3973 22.3501C36.1144 22.3501 36.4846 22.8128 36.4846 23.6225V26.3984H37.4561Z" fill="white"/>
</g>
<defs>
<clipPath id="clip0_1934_5531">
<rect width="58.5038" height="36.1571" fill="white" transform="translate(27 5)"/>
</clipPath>
</defs>
</svg>
