<svg width="112" height="45" viewBox="0 0 112 45" fill="none" xmlns="http://www.w3.org/2000/svg">
<rect width="112" height="45" rx="22.5" fill="white"/>
<g clip-path="url(#clip0_1934_5530)">
<path fill-rule="evenodd" clip-rule="evenodd" d="M43.1055 35.1126L47.1296 11.3799H53.6252L49.5694 35.1126H43.1055Z" fill="#01549A"/>
<path fill-rule="evenodd" clip-rule="evenodd" d="M73.0167 11.9823C71.7492 11.5387 69.7214 11 67.2182 11C60.8176 11 56.3182 14.2003 56.2866 18.8264C56.2549 22.2168 59.4868 24.1179 61.9583 25.2586C64.4615 26.431 65.317 27.1598 65.2853 28.2054C65.2853 29.8214 63.2891 30.5185 61.4197 30.5185C58.8214 30.5185 57.4589 30.1699 55.336 29.2827L54.4805 28.9025L53.5933 34.194C55.0825 34.8911 57.8708 35.4298 60.7859 35.4615C67.5984 35.4615 71.971 32.2929 72.0344 27.3499C72.0661 24.6566 70.3234 22.597 66.6161 20.9177C64.3664 19.8403 62.9723 19.1116 62.9723 18.0026C62.9723 16.9886 64.1446 15.943 66.6795 15.943C68.8025 15.9113 70.3551 16.3549 71.5274 16.8619L72.1295 17.1154L73.0167 11.9823Z" fill="#01549A"/>
<path fill-rule="evenodd" clip-rule="evenodd" d="M89.5884 11.4121H84.5821C83.0295 11.4121 81.8571 11.824 81.1917 13.3766L71.6226 35.1131H78.3716C78.3716 35.1131 79.4806 32.1663 79.7341 31.5326C80.4946 31.5326 87.0536 31.5326 88.0041 31.5326C88.1943 32.3564 88.7963 35.1131 88.7963 35.1131H94.7849L89.5884 11.4121ZM81.6036 26.6847C82.1423 25.3539 84.2018 20.094 84.2018 20.094C84.1385 20.1574 84.7405 18.7315 85.0574 17.8443L85.4693 19.8722C85.4693 19.8722 86.705 25.544 86.9585 26.7164H81.6036V26.6847Z" fill="#01549A"/>
<path fill-rule="evenodd" clip-rule="evenodd" d="M37.6869 11.4121L31.3498 27.5719L30.6844 24.3082C29.512 20.5059 25.8048 16.4185 21.7173 14.3589L27.5158 35.0814H34.3599L44.5311 11.4121H37.6869Z" fill="#01549A"/>
<path fill-rule="evenodd" clip-rule="evenodd" d="M25.488 11.3799H15.0634L15 11.9185C23.0799 13.8831 28.4665 18.6043 30.6845 24.3077L28.4031 13.4078C28.0229 11.9185 26.9139 11.4433 25.488 11.3799Z" fill="#F7A707"/>
</g>
<defs>
<clipPath id="clip0_1934_5530">
<rect width="79.7849" height="24.4615" fill="white" transform="translate(15 11)"/>
</clipPath>
</defs>
</svg>
