<svg width="256" height="298" viewBox="0 0 256 298" fill="none" xmlns="http://www.w3.org/2000/svg">
<path d="M131.86 298C199.807 298 254.889 282.709 254.889 263.847C254.889 244.985 199.807 229.694 131.86 229.694C63.9129 229.694 8.83105 244.985 8.83105 263.847C8.83105 282.709 63.9129 298 131.86 298Z" fill="#2C79E2"/>
<path d="M131.947 292.323C195.335 292.323 246.721 279.496 246.721 263.673C246.721 247.85 195.335 235.023 131.947 235.023C68.5586 235.023 17.1724 247.85 17.1724 263.673C17.1724 279.496 68.5586 292.323 131.947 292.323Z" fill="#2C75D8"/>
<path d="M136.096 284.417C188.702 284.417 231.348 274.875 231.348 263.105C231.348 251.334 188.702 241.792 136.096 241.792C83.4896 241.792 40.8438 251.334 40.8438 263.105C40.8438 274.875 83.4896 284.417 136.096 284.417Z" fill="#2461B3"/>
<path d="M220.78 231.442C220.343 234.368 219.688 237.12 218.814 239.696C218.246 241.356 217.591 242.928 216.849 244.413C216.063 245.942 215.233 247.383 214.272 248.737C213.879 246.99 213.442 245.243 213.006 243.409C212.569 241.618 212.132 239.784 211.652 237.862C211.259 236.333 210.909 234.761 210.516 233.189C200.253 191.087 183.482 164.752 173.481 151.869C172.782 150.995 172.127 150.165 171.516 149.423C171.254 149.073 170.992 148.768 170.729 148.462C172.302 148.855 173.743 149.204 175.097 149.554C179.945 150.777 187.282 148.593 188.723 148.156C193.571 155.144 210.691 181.305 216.281 208.295C218.028 216.724 219.557 224.541 220.78 231.442Z" fill="#945339"/>
<path d="M3.28482 228.865C6.25463 239.478 12.1506 247.121 19.7061 252.056C23.5494 254.545 27.8294 256.336 32.3715 257.471C34.3368 257.952 36.3021 258.301 38.3548 258.52C49.2295 259.742 61.1961 257.384 72.2455 251.794C94.7375 240.395 111.377 228.734 111.377 228.734L95.5673 187.856C95.5673 187.856 94.1261 186.065 91.5493 186.676C85.7844 188.118 81.9848 190.083 63.3361 188.292C63.3361 188.292 47.6573 171.216 26.5629 174.186C26.1262 174.229 25.6894 174.317 25.2527 174.404C24.2482 174.579 23.2437 174.797 22.2829 175.059C18.1339 176.151 14.509 177.898 11.4955 180.213C0.140319 188.991 -3.09153 206.242 3.28482 228.865Z" fill="#945339"/>
<path d="M43.6384 255.506C62.8112 258.258 108.625 230.612 108.625 230.612H108.931C103.209 234.412 89.6268 243.147 72.6814 251.707C61.632 257.297 49.6654 259.655 38.7907 258.432C37.4368 258.301 36.0829 258.083 34.729 257.821L43.6384 255.506Z" fill="#B6724D"/>
<path d="M65.6506 189.689C70.018 194.799 81.4605 198.031 81.4605 198.031C81.7662 196.939 82.1156 195.891 82.4213 194.93L84.2993 200.084C84.2993 200.084 84.8234 205.368 86.483 210.915C82.5087 212.487 76.7001 214.627 70.6294 216.199C70.6294 216.199 68.14 193.926 47.6571 180.299C42.0668 176.631 35.3848 175.015 28.79 175.19C44.4689 173.661 57.4836 180.125 65.6506 189.689Z" fill="#AD6946"/>
<path d="M19.4878 176.894C19.4878 176.894 27.9168 173.181 37.3067 175.583C46.6965 177.942 51.1949 181.523 55.3876 185.847C72.9444 203.971 77.5738 257.078 39.665 258.607L19.4878 176.894Z" fill="#AD6946"/>
<path d="M11.189 180.344C14.9449 177.025 21.1466 174.273 27.1735 173.618C44.2936 171.696 55.212 177.374 63.2917 182.964C69.3623 187.157 79.2762 186.458 86.0893 186.414C84.6044 189.079 84.124 192.529 84.2987 200.172C84.2987 200.172 72.8562 199.997 65.257 190.913C56.6096 180.562 44.512 173.749 28.8331 175.278C22.5878 175.365 16.1678 177.243 11.189 180.344Z" fill="#AD6946"/>
<path d="M214.272 248.693C214.054 248.998 213.836 249.304 213.617 249.61C204.227 262.101 206.455 252.798 197.021 256.86L186.583 257.078L140.988 249.697C140.988 249.697 120.112 248.038 108.145 239.914C102.424 236.071 95.0431 226.55 92.0297 214.103C90.9378 209.648 90.4574 204.801 90.8068 199.691C92.117 180.3 95.2178 163.529 105.394 147.632C112.731 136.189 150.334 143.483 170.686 148.418C180.076 159.642 199.205 186.895 210.516 233.189C211.87 238.691 213.137 243.845 214.272 248.693Z" fill="#945339"/>
<path d="M129.109 235.722C109.412 236.158 98.1876 226.943 92.0297 214.103C90.9378 209.649 90.4574 204.801 90.8068 199.691C91.5929 187.986 93.0342 177.243 96.3097 167.067C97.9693 161.957 100.022 157.022 102.73 152.13C103.56 150.645 104.433 149.117 105.394 147.632C109.019 141.954 120.068 140.906 132.821 141.867C130.943 145.317 128.148 150.951 125.353 157.983C124.348 160.472 123.387 163.136 122.427 165.975C115.526 186.72 111.508 215.02 129.109 235.722Z" fill="#B6724D"/>
<path d="M138.761 234.761C136.184 235.241 133.432 235.547 130.506 235.634C130.201 235.634 129.851 235.678 129.546 235.678C129.415 235.678 129.283 235.678 129.152 235.678C102.512 204.364 125.397 155.668 132.865 141.823C141.687 142.478 151.339 144.138 159.855 145.929H159.942C161.296 146.191 162.607 146.496 163.873 146.758C168.109 147.719 170.075 149.029 173.219 149.816C176.582 171.128 183.133 226.769 138.761 234.761Z" fill="#AD6946"/>
<path d="M220.779 231.441C219.513 224.584 218.028 216.767 216.281 208.207C210.691 181.216 193.527 155.056 188.723 148.068C188.897 148.024 189.421 147.85 189.421 147.85C189.421 147.85 205.755 169.599 215.364 194.406C220.692 208.163 222.308 220.828 220.779 231.441Z" fill="#AD6946"/>
<path d="M3.28411 228.864C8.43761 247.163 22.2385 256.728 38.3541 258.475C48.137 259.392 63.6411 252.535 60.6713 227.292C60.6713 227.292 48.0496 260.833 19.225 238.603C-4.97021 219.954 51.5435 204.145 51.5435 204.145C51.5435 204.145 47.1762 186.937 33.3316 178.989C29.2699 176.63 25.5577 175.495 22.2385 175.102C18.0895 176.193 14.4646 177.94 11.4511 180.255C0.13961 188.99 -3.09224 206.241 3.28411 228.864Z" fill="#B6724D"/>
<path d="M23.0254 186.327C31.3671 183.925 40.3639 187.637 46.8712 195.149C47.3516 195.717 47.7884 196.285 48.2688 196.852C49.9721 199.735 51.3696 202.923 52.3741 206.373C57.4403 223.799 50.6708 241.094 37.263 244.981C34.861 245.679 32.3716 245.898 29.9258 245.679C20.9291 243.321 12.7184 235.023 9.0935 223.537C9.00615 223.231 8.91881 222.925 8.83146 222.62C4.02736 206.242 10.4037 189.996 23.0254 186.327Z" fill="#ECD09C"/>
<path d="M9.09326 223.536C12.7182 235.022 20.9288 243.363 29.8819 245.722C33.2885 246.639 36.826 246.683 40.2326 245.678C52.8543 242.01 59.187 225.763 54.4265 209.385C53.0727 204.669 50.889 200.432 48.2249 196.895C47.7881 196.327 47.3077 195.715 46.8273 195.191C45.6045 233.493 12.9802 229.17 9.09326 223.536Z" fill="#DCBD8A"/>
<path d="M52.3301 206.417C51.3256 202.967 49.9281 199.779 48.2248 196.896C50.8889 200.434 53.0289 204.67 54.4264 209.387C59.1869 225.765 52.8105 242.011 40.2325 245.68C36.8259 246.684 33.2884 246.641 29.8818 245.724C32.3276 245.942 34.817 245.724 37.219 245.025C50.6268 241.138 57.3526 223.843 52.3301 206.417Z" fill="#C59F6D"/>
<path d="M30.2749 174.491C34.0308 174.709 38.0051 176.98 38.0051 176.98C26.9557 173.879 14.596 177.286 8.1323 186.763C-5.53756 206.853 8.00128 244.194 19.7058 252.011C12.1503 247.076 6.64739 239.302 3.28452 228.821C-5.10083 202.573 2.10533 172.918 30.2749 174.491Z" fill="#AD6946"/>
<path d="M65.9563 205.588C65.9563 205.588 82.0282 260.748 40.0142 258.302C40.0142 258.346 76.6564 260.049 65.9563 205.588Z" fill="#B6724D"/>
<path d="M31.9346 234.674C31.4979 234.674 31.1048 234.499 30.7555 234.193L17.2166 221.266C15.426 219.563 14.1595 217.029 13.679 214.322C13.2423 211.658 13.5917 209.081 14.7272 207.072C15.8191 205.063 17.566 203.84 19.575 203.534C21.715 203.229 23.8987 203.971 25.6893 205.718L27.5236 207.465L28.4407 205.849C29.6199 203.709 31.5416 202.355 33.7253 202.137C35.8653 201.918 37.9616 202.748 39.7086 204.539C43.1588 208.033 44.1196 214.234 41.8486 218.34L33.2885 233.888C33.1138 234.237 32.8081 234.499 32.4587 234.63C32.284 234.674 32.1093 234.674 31.9346 234.674ZM20.5358 204.757C20.2738 204.757 20.0554 204.757 19.7934 204.801C18.1774 205.063 16.8235 206.067 15.9064 207.683C14.9456 209.43 14.5962 211.701 14.9893 214.06C15.3823 216.462 16.5178 218.733 18.1338 220.261L31.6726 233.189C31.8036 233.32 31.9346 233.363 32.022 233.32C32.0657 233.276 32.153 233.232 32.1967 233.145L40.7567 217.597C42.7657 213.972 41.8922 208.469 38.8351 205.369C37.3938 203.884 35.6469 203.185 33.9 203.36C32.153 203.534 30.5808 204.67 29.6199 206.417L27.9167 209.561L24.8595 206.635C23.5056 205.412 22.0207 204.757 20.5358 204.757Z" fill="#C49E6E"/>
<path d="M90.4558 185.585C90.4558 185.585 109.192 188.03 125.089 167.984L129.849 167.678C129.849 167.678 137.798 177.505 149.328 180.65C160.858 183.794 163.609 181.96 165.05 177.898C166.492 173.88 128.714 162.307 128.714 162.307L90.1064 173.531L90.4558 185.585Z" fill="#945339"/>
<path d="M60.0591 34.8226C49.0533 47.8373 58.9236 59.5856 63.684 64.0403C64.9942 65.2631 65.9114 65.9182 65.9114 65.9182L78.6204 50.8508L81.7649 46.8328L90.9364 35.1283C90.98 35.1283 73.3796 19.1874 60.0591 34.8226ZM45.6468 23.2491C45.4284 23.5111 45.2537 23.7295 45.079 23.9478C43.9872 25.3017 43.0264 26.6556 42.1966 27.9658C24.8144 54.6504 48.6166 75.5701 55.6481 80.8983C56.7836 81.7718 57.4824 82.2522 57.4824 82.2522L82.289 54.6504L82.3327 54.6941L82.7694 54.1264L83.2935 53.5149L83.2498 53.4712L97.3127 34.3422L104.999 23.9042L105.218 23.5985C105.305 23.5548 72.7245 -9.11313 45.6468 23.2491Z" fill="#B6724D"/>
<path d="M79.1874 50.1521L78.6633 50.8072L78.3139 51.2876L65.9542 65.9183C65.9542 65.9183 62.3293 63.2542 59.2722 58.9305C55.2979 53.2966 52.2844 44.8676 59.4032 35.6961C59.7962 35.2157 60.1456 34.779 60.5387 34.3422C60.8007 34.0802 61.0628 33.7745 61.3248 33.5124C72.0685 22.594 85.0833 30.5863 89.4943 33.8618C90.4988 34.6043 91.0229 35.0847 91.0229 35.0847L79.1874 50.1521Z" fill="#DCBD8A"/>
<path d="M83.2927 53.4712L83.3363 53.5149L82.8123 54.1264L82.3755 54.6941L82.3318 54.6504L57.5252 82.2522C57.5252 82.2522 25.0757 60.9831 39.881 32.0275C40.5798 30.6736 41.3223 29.3197 42.2394 27.9658C41.0165 38.1855 39.0512 54.6504 56.477 68.4513C56.477 68.4513 58.9664 62.8611 60.4513 60.2843C62.766 56.2664 65.4738 52.5978 68.3999 49.1912C72.3306 44.6055 76.6979 40.5002 81.0216 36.6569C86.0441 32.2458 92.2458 38.0108 97.3993 34.3858L83.2927 53.4712Z" fill="#945339"/>
<path d="M68.3561 49.1476C61.1936 61.3762 56.6952 74.7403 56.6952 74.7403C37.6098 59.7166 36.9547 43.2516 39.7935 32.0275C40.4923 30.6736 41.2347 29.3197 42.1519 27.9658C40.929 38.1855 38.9637 54.6504 56.3895 68.4513C56.3895 68.4513 58.8789 62.8611 60.3638 60.2843C62.7222 56.2227 65.4299 52.5541 68.3561 49.1476Z" fill="#AD6946"/>
<path d="M80.1045 35.2596C66.6967 43.8634 61.3685 53.2969 59.2722 58.8871C55.2979 53.2532 52.2844 44.8242 59.4032 35.6527C59.7962 35.1723 60.1456 34.7356 60.5387 34.2988C60.8007 34.0368 61.0628 33.7311 61.3248 33.469C70.5836 29.7568 80.1045 35.2596 80.1045 35.2596Z" fill="#ECD09C"/>
<path d="M105.306 23.5544L105.088 23.8601L102.686 24.5589C102.686 24.5589 95.13 17.1781 85.085 13.6842C75.0401 10.1903 61.5886 11.6315 52.6355 19.4054C43.6824 27.223 35.166 43.2076 39.5771 56.3097C43.595 68.3636 53.9894 79.1947 55.649 80.8979C48.6175 75.5261 24.859 54.6064 42.1975 27.9655C43.071 26.6552 44.0318 25.3014 45.08 23.9475C45.2546 23.7291 45.4293 23.5107 45.604 23.2924C45.604 23.2924 45.604 23.2924 45.6477 23.2487C72.7254 -9.11349 105.306 23.5544 105.306 23.5544Z" fill="#D59A77"/>
<path d="M89.451 33.8629L87.8351 35.8282C74.9077 27.3118 65.9109 30.1506 60.5391 34.2996C71.3701 22.202 84.909 30.5 89.451 33.8629Z" fill="#C59F6D"/>
<path d="M54.0325 124.267C54.0325 124.31 54.0761 124.31 54.0761 124.354C54.2072 124.66 54.2945 124.922 54.4255 125.227C54.4692 125.315 54.5129 125.402 54.5566 125.49C54.6439 125.752 54.7749 126.014 54.9059 126.276C55.037 126.625 55.2117 126.931 55.3427 127.236C55.6921 127.935 56.0415 128.634 56.3909 129.289C56.5219 129.551 56.6529 129.77 56.7839 130.032C58.1378 132.434 59.71 134.661 61.457 136.757C61.5443 136.845 61.6317 136.976 61.719 137.063C61.7627 137.107 61.8064 137.15 61.8501 137.194C61.9811 137.325 62.1121 137.5 62.2431 137.631C62.4615 137.893 62.6799 138.155 62.9419 138.417C63.597 139.159 64.2521 139.858 64.9509 140.513C65.0819 140.644 65.2566 140.819 65.3876 140.95C65.606 141.168 65.8244 141.343 66.0427 141.561C66.2174 141.692 66.3484 141.867 66.5231 141.998C66.8725 142.348 67.2656 142.697 67.6587 143.003C67.8333 143.134 68.008 143.308 68.1827 143.439C68.1827 143.483 68.2264 143.483 68.2701 143.527C68.4885 143.745 68.7505 143.92 69.0125 144.138C69.0125 144.182 69.0562 144.182 69.0999 144.182C69.3619 144.4 69.624 144.575 69.886 144.793C70.1917 145.055 70.4974 145.274 70.8032 145.492C71.0215 145.667 71.2399 145.841 71.5019 145.972C72.6811 146.846 73.904 147.676 75.1705 148.462C75.4326 148.637 75.6946 148.768 75.913 148.942C76.175 149.117 76.4371 149.292 76.7428 149.423C76.8738 149.51 77.0048 149.597 77.1358 149.685C77.3979 149.859 77.6599 149.99 77.922 150.165C78.3587 150.427 78.8391 150.689 79.3195 150.951C79.8436 151.213 80.3677 151.519 80.8918 151.781C81.1538 151.912 81.4159 152.043 81.6342 152.174C81.9399 152.349 82.2457 152.48 82.5514 152.655C82.8134 152.786 83.0318 152.917 83.2938 153.004C83.5559 153.135 83.7742 153.266 84.0363 153.353C84.1673 153.397 84.2546 153.484 84.3857 153.528C84.6914 153.659 84.9971 153.79 85.3028 153.965C86.8751 154.664 88.4473 155.319 90.0632 155.93C90.0632 155.93 115.001 163.529 143.738 160.822C171.515 158.201 185.359 153.222 199.859 146.715C201.3 146.06 202.829 145.143 204.226 144.182C207.196 142.173 209.729 139.902 210.559 139.203C210.603 139.159 210.646 139.159 210.646 139.116C210.821 138.941 211.039 138.81 211.214 138.635C211.389 138.461 211.607 138.286 211.782 138.155C212.35 137.674 212.874 137.15 213.398 136.67C213.572 136.495 213.747 136.321 213.922 136.19L213.965 136.146C214.14 135.971 214.315 135.797 214.49 135.622C217.11 133.001 219.468 130.163 221.477 127.105C221.608 126.887 221.739 126.669 221.87 126.494C222.569 125.402 223.181 124.31 223.792 123.175C223.923 122.956 224.054 122.738 224.141 122.476C224.272 122.258 224.36 121.996 224.491 121.777C224.622 121.559 224.709 121.341 224.797 121.078C225.059 120.554 225.277 120.03 225.495 119.506C225.583 119.332 225.67 119.157 225.714 118.938C225.801 118.676 225.932 118.458 226.019 118.196C226.107 117.934 226.194 117.716 226.281 117.454C226.369 117.192 226.456 116.973 226.543 116.711C226.631 116.405 226.762 116.1 226.849 115.794C226.893 115.619 226.937 115.488 227.024 115.314C227.111 115.008 227.199 114.702 227.286 114.396C227.33 114.222 227.373 114.091 227.417 113.96C227.461 113.785 227.504 113.567 227.592 113.392C227.635 113.174 227.723 112.912 227.766 112.693C227.985 111.907 228.159 111.077 228.29 110.247C228.334 110.029 228.378 109.767 228.421 109.549C228.465 109.243 228.509 108.981 228.552 108.675C228.596 108.413 228.64 108.195 228.64 107.933C228.683 107.714 228.727 107.496 228.727 107.234C228.771 106.972 228.814 106.666 228.814 106.404C228.858 106.142 228.858 105.836 228.902 105.574C229.295 101.382 229.164 96.8833 228.465 92.0792C228.203 90.2012 227.897 88.4106 227.548 86.62C227.417 86.0085 227.286 85.3534 227.155 84.742C227.024 84.0432 226.849 83.3444 226.718 82.6457C226.631 82.2089 226.5 81.7722 226.412 81.3791C226.019 79.6759 225.583 78.0163 225.102 76.444C224.797 75.3958 224.491 74.3913 224.185 73.3868V73.3432C223.268 70.5044 222.22 67.7529 221.128 65.1325C210.253 39.4087 190.862 25.8699 170.161 20.1486C159.024 17.0478 147.494 16.218 136.707 16.9605C135.833 17.0041 132.645 17.2662 131.903 17.2662C101.899 19.0568 67.5713 33.8622 55.2117 72.6881C54.2072 75.8326 53.3774 79.1081 52.6786 82.5583C52.4602 83.5628 52.2855 84.611 52.1108 85.6155C52.0672 85.9212 52.0235 86.1832 51.9798 86.4889C51.281 90.769 50.8006 95.311 50.6259 100.071C50.5822 101.294 50.5386 102.561 50.5386 103.827C50.5386 104.177 50.5386 104.57 50.5386 104.919C50.5386 105.225 50.5386 105.574 50.5386 105.88C50.5386 105.924 50.5386 105.967 50.5386 106.011C50.5386 106.055 50.5386 106.055 50.5386 106.098C50.5386 106.448 50.5386 106.754 50.5823 107.103C50.5823 107.19 50.5823 107.321 50.5823 107.409C50.5823 107.758 50.6259 108.064 50.6259 108.369C50.6259 108.457 50.6259 108.544 50.6696 108.632C50.6696 109.025 50.7133 109.374 50.7569 109.767C50.8006 110.16 50.8443 110.553 50.888 110.946V111.034C50.9316 111.427 50.9753 111.82 51.019 112.213C51.0627 112.518 51.1063 112.868 51.15 113.174C51.15 113.305 51.1937 113.479 51.2374 113.61C51.281 113.916 51.3247 114.222 51.3684 114.527C51.3684 114.527 51.3684 114.571 51.3684 114.615C51.412 115.008 51.4994 115.357 51.5867 115.707C51.6741 116.056 51.7178 116.405 51.8051 116.755C51.8051 116.842 51.8488 116.886 51.8488 116.973C51.9361 117.323 51.9798 117.628 52.0672 117.978C52.1545 118.327 52.2419 118.633 52.3292 118.938C52.3729 119.07 52.4165 119.201 52.4165 119.332C52.5039 119.594 52.5912 119.856 52.6349 120.118C52.6349 120.161 52.6349 120.161 52.6349 120.205C52.7223 120.554 52.8533 120.904 52.9406 121.21C53.0716 121.559 53.159 121.908 53.29 122.258C53.421 122.607 53.5521 122.956 53.6831 123.262C53.7704 123.568 53.9014 123.917 54.0325 124.267Z" fill="#B6724D"/>
<path d="M61.7188 136.975C61.7624 137.019 61.8061 137.062 61.8498 137.106C61.9808 137.237 62.1118 137.412 62.2428 137.543C62.4612 137.805 62.6796 138.067 62.9416 138.329C63.553 139.028 79.8433 169.337 135.353 162.917C138.017 162.611 140.812 162.218 143.651 161.738C171.121 157.065 183.175 154.139 197.675 147.631C200.863 146.19 202.828 144.88 204.226 143.919C207.196 141.91 209.729 139.639 210.559 138.94C210.602 138.897 210.646 138.897 210.646 138.853C210.821 138.678 211.039 138.547 211.214 138.373C211.388 138.198 211.607 138.023 211.781 137.892C212.349 137.412 212.873 136.888 213.397 136.407C213.572 136.233 213.747 136.058 213.921 135.927L213.965 135.883C214.14 135.708 214.315 135.534 214.489 135.359C217.11 132.739 219.468 129.9 221.477 126.843C221.608 126.624 221.739 126.406 221.87 126.231C222.569 125.139 223.224 124.048 223.792 122.912C223.923 122.694 224.054 122.475 224.141 122.213C224.272 121.995 224.359 121.733 224.491 121.514C224.622 121.296 224.709 121.078 224.796 120.816C225.058 120.292 225.277 119.768 225.495 119.243C225.582 119.069 225.67 118.894 225.713 118.676C225.801 118.414 225.932 118.195 226.019 117.933C226.106 117.671 226.194 117.453 226.281 117.191C226.368 116.929 226.456 116.71 226.543 116.448C226.631 116.143 226.762 115.837 226.849 115.531C226.893 115.356 226.936 115.225 227.024 115.051C227.111 114.745 227.198 114.439 227.286 114.134C227.329 113.959 227.373 113.828 227.417 113.697C227.46 113.522 227.504 113.304 227.591 113.129C227.635 112.911 227.722 112.649 227.766 112.43C227.984 111.644 228.159 110.814 228.29 109.985C228.334 109.766 228.377 109.504 228.421 109.286C228.465 108.98 228.508 108.718 228.552 108.412C228.596 108.15 228.64 107.932 228.64 107.67C228.683 107.452 228.727 107.233 228.727 106.971C228.771 106.709 228.814 106.403 228.814 106.141C228.858 105.879 228.858 105.574 228.902 105.312C229.295 101.119 229.164 96.6205 228.465 91.8164C228.203 89.9384 227.897 88.1478 227.548 86.3572C227.417 85.7458 227.286 85.0906 227.155 84.4792C227.024 83.7804 226.849 83.0817 226.718 82.3829C226.631 81.9461 226.5 81.5094 226.412 81.1163C226.019 79.4131 225.539 77.7971 225.102 76.1812C224.796 75.133 224.491 74.1286 224.185 73.1241V73.0804C223.268 70.2416 222.219 67.4902 221.128 64.8697C213.135 46.0901 200.514 33.8178 186.189 26.3496C181.035 23.6418 175.62 21.5891 170.16 20.0605C183.787 31.8524 215.319 59.6289 199.859 109.155C189.508 142.478 118.931 177.591 61.7188 136.975Z" fill="#AD6946"/>
<path d="M135.309 162.961C137.973 162.655 140.768 162.262 143.607 161.782C171.078 157.109 183.132 154.183 197.631 147.675C200.82 146.234 202.785 144.924 204.182 143.963C207.152 141.954 209.685 139.683 210.515 138.984C210.559 138.941 210.603 138.941 210.603 138.897C210.777 138.722 210.996 138.591 211.17 138.417C211.345 138.242 211.563 138.067 211.738 137.936C212.306 137.456 212.83 136.932 213.354 136.451C213.529 136.277 213.703 136.102 213.878 135.971L213.922 135.927C214.096 135.752 214.271 135.578 214.446 135.403C217.066 132.783 219.425 129.944 221.434 126.887C221.565 126.668 221.696 126.45 221.827 126.275C222.525 125.183 223.181 124.092 223.748 122.956C223.879 122.738 224.01 122.519 224.098 122.257C224.229 122.039 224.316 121.777 224.447 121.558C224.578 121.34 224.665 121.122 224.753 120.86C225.015 120.336 225.233 119.812 225.452 119.287C225.539 119.113 225.626 118.938 225.67 118.72C225.757 118.458 225.888 118.239 225.976 117.977C226.063 117.715 226.15 117.497 226.238 117.235C226.325 116.973 226.412 116.754 226.5 116.492C226.587 116.187 226.718 115.881 226.805 115.575C226.849 115.4 226.893 115.269 226.98 115.095C227.067 114.789 227.155 114.483 227.242 114.178C227.286 114.003 227.33 113.872 227.373 113.741C227.417 113.566 227.461 113.348 227.548 113.173C227.592 112.955 227.679 112.693 227.723 112.474C227.941 111.688 228.116 110.858 228.247 110.029C228.29 109.81 228.334 109.548 228.378 109.33C228.421 109.024 228.465 108.762 228.509 108.456C228.552 108.194 228.596 107.976 228.596 107.714C228.64 107.496 228.683 107.277 228.683 107.015C228.727 106.753 228.771 106.447 228.771 106.185C228.814 105.923 228.814 105.618 228.858 105.356C229.251 101.163 229.12 96.6645 228.421 91.8604C228.159 89.9824 227.854 88.1918 227.504 86.4012C227.373 85.7897 227.242 85.1346 227.111 84.5232C226.98 83.8244 226.805 83.1257 226.674 82.4269C226.587 81.9901 226.456 81.5534 226.369 81.1603C225.976 79.4571 225.495 77.8411 225.058 76.2252C224.753 75.177 224.447 74.1726 224.141 73.1681V73.1244C223.224 70.2856 222.176 67.5342 221.084 64.9137C213.092 46.1341 200.47 33.8618 186.145 26.3936L199.029 35.6524C199.029 35.6524 225.583 67.5341 217.503 107.234C211.738 136.014 169.549 155.624 135.309 162.961Z" fill="#945339"/>
<path d="M219.817 61.9876C218.551 59.2798 217.241 56.6594 215.843 54.2136C214.751 52.292 213.572 50.414 212.349 48.6671C210.733 46.3087 209.074 44.0814 207.327 42.0287C206.06 40.5438 204.794 39.1462 203.44 37.7923C201.911 36.2201 200.295 34.7352 198.636 33.3376C190.338 26.3498 180.773 21.5894 170.117 18.838C168.37 18.4012 166.623 18.0082 164.832 17.6588C161.164 16.96 157.408 16.4796 153.565 16.1739C152.429 16.0865 151.293 16.0429 150.158 15.9555C148.586 15.8682 146.97 15.8682 145.398 15.8682C140.812 15.8682 136.051 16.1302 131.204 16.6543C124.696 17.3531 118.669 18.4012 113.079 19.7988C112.162 20.0172 111.288 20.2792 110.415 20.4976C104.563 22.1135 99.2345 24.1662 94.3867 26.5245C93.4696 26.9613 92.5961 27.398 91.7226 27.8784C84.9095 31.5033 79.0573 35.827 74.0785 40.7622C70.6282 44.1687 67.5711 47.881 64.9507 51.7679C62.898 54.7814 61.1074 57.9259 59.5351 61.1578C59.5351 61.1578 59.5351 61.1578 59.5351 61.2014C58.1812 63.9966 56.9584 66.8353 55.9102 69.8051C54.6437 73.3427 53.5955 76.924 52.722 80.6362C50.8441 88.6285 49.9269 97.669 50.5383 106.753C50.8877 111.863 51.7175 117.016 53.2024 121.995V122.039C56.9147 134.748 64.6013 146.496 78.0964 154.576C78.3585 154.75 78.6205 154.881 78.8826 155.056C79.8871 155.624 80.8916 156.192 81.9397 156.716C82.5948 157.021 83.2499 157.371 83.905 157.677C84.2544 157.851 84.6038 158.026 84.9969 158.157C86.0014 158.594 87.0059 159.03 88.054 159.424C89.0585 159.817 90.063 160.21 91.1549 160.559C91.6789 160.734 92.1594 160.908 92.6834 161.083C92.6834 161.083 93.2075 161.258 94.2557 161.476C94.8671 161.651 95.6969 161.826 96.7014 162.044C96.9198 162.088 97.1382 162.131 97.4002 162.175C98.3173 162.35 99.3655 162.568 100.545 162.743C101.506 162.917 102.554 163.048 103.689 163.223C104.694 163.354 105.742 163.485 106.834 163.616C107.838 163.704 108.886 163.835 109.978 163.922C110.983 164.009 112.031 164.053 113.123 164.14C113.953 164.184 114.826 164.228 115.699 164.271C116.879 164.315 118.102 164.315 119.324 164.315C120.547 164.315 121.77 164.315 123.037 164.271C123.954 164.228 124.871 164.228 125.832 164.14C126.88 164.097 127.972 164.009 129.02 163.922C130.068 163.835 131.16 163.747 132.208 163.616C133.256 163.529 134.348 163.398 135.44 163.223C136.488 163.092 137.58 162.917 138.672 162.743C138.715 162.743 138.759 162.743 138.803 162.743C139.196 162.699 139.589 162.612 139.982 162.568C140.506 162.481 141.161 162.35 141.904 162.219C142.864 162.044 144 161.826 145.136 161.607C145.703 161.52 146.271 161.389 146.795 161.301C146.839 161.301 146.882 161.301 146.926 161.258C147.407 161.17 147.887 161.083 148.367 160.996C149.022 160.865 149.634 160.777 150.245 160.646C150.726 160.559 151.206 160.472 151.599 160.384C152.254 160.253 152.822 160.166 153.259 160.122C153.302 160.122 153.346 160.122 153.39 160.122H153.346C152.822 160.166 152.211 160.21 151.599 160.297C150.9 160.384 150.158 160.472 149.372 160.559C149.022 160.603 148.717 160.646 148.367 160.69C147.363 160.821 146.271 160.996 145.136 161.214C144.087 161.389 143.039 161.564 141.904 161.738C140.855 161.913 139.807 162.088 138.715 162.219H138.672C137.973 162.306 137.274 162.437 136.575 162.524C136.226 162.568 135.833 162.655 135.44 162.699C134.392 162.83 133.3 163.005 132.208 163.092C131.16 163.223 130.068 163.354 128.976 163.441C127.928 163.529 126.836 163.616 125.788 163.704C125.22 163.747 124.653 163.791 124.041 163.835C123.692 163.835 123.342 163.878 122.949 163.878C121.726 163.922 120.46 163.966 119.237 164.009C118.014 164.009 116.791 164.009 115.525 163.966C114.695 163.966 113.865 163.922 113.035 163.878C111.987 163.835 110.939 163.747 109.891 163.66C108.843 163.573 107.795 163.441 106.746 163.31C105.698 163.179 104.65 163.005 103.602 162.83C103.209 162.743 102.816 162.699 102.423 162.612C101.768 162.481 101.112 162.35 100.457 162.219C99.4092 162 98.361 161.738 97.3565 161.433C96.3083 161.127 95.3039 160.821 94.2557 160.472C93.7753 160.297 93.2512 160.122 92.7708 159.948C92.2467 159.773 91.7226 159.555 91.1985 159.336C90.2377 158.943 89.2332 158.55 88.2724 158.113C88.2287 158.113 88.1851 158.07 88.1414 158.026C87.1369 157.546 86.0887 157.065 85.0842 156.541C84.0797 156.017 83.0752 155.449 82.0707 154.838C81.765 154.663 81.4593 154.445 81.1536 154.27C80.4548 153.833 79.756 153.353 79.0573 152.916C78.8389 152.741 78.5768 152.61 78.3585 152.436C75.0829 150.121 71.9384 147.37 68.8813 144.138C67.4837 142.653 66.2172 141.081 65.0817 139.421C55.9976 126.275 52.6784 109.723 55.6482 87.624C56.4343 81.7717 59.2294 73.8231 61.0637 68.5386C62.6796 63.8219 64.7323 59.3671 67.178 55.2181C73.3797 44.7801 82.2454 36.1764 94.1247 30.0184C94.1247 30.0184 94.1247 30.0184 94.1683 30.0184C94.9981 29.5817 95.8279 29.1886 96.6577 28.7956C101.855 26.3062 107.62 24.2972 113.953 22.7686C114.258 22.6813 114.52 22.6376 114.826 22.5502C123.561 20.4976 133.344 19.3621 144.218 19.231C145.616 19.231 147.057 19.231 148.498 19.231C149.459 19.231 150.42 19.2747 151.381 19.3184C152.866 19.3621 154.394 19.4057 155.923 19.4931C158.325 19.6241 160.596 19.8425 162.823 20.1482C164.745 20.4102 166.579 20.7159 168.37 21.109C169.593 21.371 170.772 21.6331 171.951 21.9388C179.201 23.8168 185.446 26.6119 190.818 29.9748C193.482 31.6344 195.928 33.3813 198.199 35.2593C198.243 35.3029 198.33 35.3466 198.374 35.434C198.636 35.6523 198.898 35.8707 199.16 36.0891C200.47 37.1809 201.693 38.3164 202.828 39.4519C204.226 40.8058 205.536 42.2034 206.715 43.6009C208.55 45.6973 210.209 47.8373 211.738 49.89C213.048 51.6806 214.227 53.4275 215.275 55.1308C217.022 57.9259 218.507 60.5027 219.774 62.7737C219.861 62.7737 219.949 62.7737 219.992 62.7737C219.905 62.599 219.817 62.4243 219.73 62.2059C219.861 62.0312 219.817 62.0312 219.817 61.9876Z" fill="#D59A77"/>
<path d="M205.71 142.958C207.195 141.91 209.641 139.726 210.602 138.94C210.776 138.765 210.995 138.634 211.169 138.459C211.344 138.285 211.562 138.11 211.737 137.979C212.305 137.499 212.829 136.974 213.353 136.494C213.528 136.319 213.702 136.145 213.877 136.014L213.921 135.97C214.095 135.795 214.27 135.621 214.445 135.446C217.065 132.825 219.424 129.987 221.433 126.93C221.564 126.711 221.695 126.493 221.826 126.318C222.524 125.226 223.136 124.134 223.747 122.999C223.878 122.781 224.009 122.562 224.097 122.3C224.228 122.082 224.315 121.82 224.446 121.601C224.577 121.383 224.664 121.121 224.752 120.903C225.014 120.379 225.232 119.854 225.451 119.33C225.538 119.156 225.625 118.981 225.669 118.763C225.756 118.544 225.844 118.282 225.975 118.02C226.062 117.758 226.149 117.54 226.237 117.278C226.324 117.016 226.411 116.797 226.499 116.535C226.673 116.055 226.804 115.618 226.979 115.138C227.067 114.832 227.154 114.526 227.241 114.221C227.285 114.046 227.329 113.915 227.372 113.784C227.416 113.609 227.46 113.391 227.547 113.216C227.591 112.998 227.678 112.736 227.722 112.517C227.94 111.731 228.115 110.901 228.246 110.072C228.289 109.853 228.333 109.591 228.377 109.373C228.42 109.067 228.464 108.805 228.508 108.499C228.551 108.237 228.595 108.019 228.639 107.757C228.682 107.538 228.682 107.32 228.726 107.058C228.77 106.796 228.813 106.49 228.813 106.228C228.857 105.966 228.857 105.66 228.901 105.398C229.294 101.206 229.163 96.7074 228.464 91.9033C228.202 90.0253 227.853 88.2347 227.547 86.4441C227.416 85.8326 227.285 85.1775 227.154 84.5661C227.023 83.8673 226.848 83.1685 226.717 82.4698C226.63 82.033 226.499 81.5963 226.411 81.2032C225.756 78.4518 225.014 75.7877 224.184 73.2109C224.795 75.3946 225.625 78.6265 226.324 82.5134C226.717 84.7408 227.067 87.1428 227.329 89.6759C228.071 97.1441 228.289 105.879 225.494 113.827C215.449 142.303 189.638 150.95 189.638 150.95C190.599 150.688 197.456 148.81 205.71 142.958Z" fill="#AD6946"/>
<path d="M222.742 14.8187C221.738 13.6395 220.602 12.4603 219.379 11.2811C219.161 11.1064 218.986 10.8881 218.768 10.7134C218.768 10.7134 218.768 10.7134 218.724 10.6697C215.187 7.43784 211.649 5.07946 208.243 3.41986C202.827 0.799441 197.674 -0.074032 192.826 0.18801C178.894 0.930463 167.801 11.0628 163.084 16.1726L163.04 16.2162C162.604 16.653 162.254 17.0897 161.949 17.4391C161.599 17.8758 161.293 18.2252 161.075 18.4873C160.769 18.8803 160.595 19.0987 160.595 19.0987L160.857 19.3608C160.857 19.3608 160.9 19.5354 161.031 19.8848C161.687 21.9812 164.962 30.8033 171.775 32.2882C181.209 34.2971 186.013 39.5817 187.76 41.1539C191.603 44.5605 195.141 51.985 196.8 56.1777C197.368 57.6189 197.761 58.0993 197.761 58.0993C198.766 60.0646 199.901 61.6805 201.08 63.0781C204.006 66.3536 207.369 68.0569 210.077 68.974C210.252 69.0177 210.383 69.0614 210.557 69.1051C213.265 69.9349 215.187 69.9349 215.187 69.9349C215.187 69.9349 215.798 69.4108 216.759 68.4063L216.803 68.3626C216.89 68.2753 216.977 68.1879 217.065 68.1006C217.196 67.9696 217.37 67.7949 217.502 67.6202C217.545 67.5765 217.545 67.5765 217.589 67.5328C217.851 67.2271 218.157 66.9214 218.462 66.572C225.843 58.405 241.653 36.6119 222.742 14.8187Z" fill="#B4724D"/>
<path d="M218.462 66.5283C218.157 66.8777 217.851 67.1834 217.545 67.4891C217.501 67.5328 217.501 67.5328 217.458 67.5765C217.283 67.7512 217.152 67.8822 217.021 68.0569C216.934 68.1442 216.846 68.2316 216.759 68.3189L216.715 68.3626C215.754 69.3234 215.143 69.8912 215.143 69.8912C215.143 69.8912 213.221 69.8912 210.514 69.0614C210.339 69.0177 210.208 68.974 210.033 68.9304C207.325 68.0569 203.963 66.31 201.036 63.0344C206.452 58.0556 221.607 41.678 213.221 22.0248C204.443 1.45455 186.013 2.80843 186.013 2.80843L192.782 0.18801C197.63 -0.074032 202.827 0.799441 208.199 3.41986C211.605 5.07946 215.143 7.43784 218.681 10.6697C218.681 10.6697 218.681 10.6697 218.724 10.7134C218.943 10.8881 219.117 11.1064 219.336 11.2811C220.559 12.4603 221.694 13.6395 222.699 14.8187C241.653 36.6119 225.843 58.405 218.462 66.5283Z" fill="#AB6A46"/>
<path d="M218.463 66.5293C218.157 66.8787 217.851 67.1844 217.545 67.4901C217.502 67.5338 217.502 67.5338 217.458 67.5775C217.283 67.7522 217.152 67.8832 217.021 68.0579C216.934 68.1452 216.847 68.2326 216.759 68.3199C218.157 66.442 226.804 54.4754 229.119 42.1594C231.434 29.7998 222.743 16.5666 213.702 9.57884C212.916 8.96741 212.174 8.44333 211.387 7.91924C201.605 1.54289 188.284 1.93595 178.938 6.69638C172.474 10.0156 167.408 15.2564 164.875 18.1389C164.526 18.5319 164.22 18.8813 164.002 19.187C163.521 19.7985 163.215 20.1479 163.172 20.2352L161.032 19.7985H160.988L159.853 19.5801C159.853 19.5801 162.604 16.5666 163.041 16.1299L163.084 16.0862C169.723 8.79272 187.018 -6.58042 208.025 3.11514C211.65 4.77474 215.362 7.22047 219.205 10.5397C219.205 10.5397 222.175 13.5095 223.223 14.6887C242.09 36.5692 225.931 58.406 218.463 66.5293Z" fill="#D39877"/>
<path d="M196.757 56.1337C195.054 52.0284 192.477 47.9231 189.071 44.0798C185.577 40.1492 181.69 37.0483 177.716 34.8647C176.58 34.2096 175.445 33.6855 174.265 33.2051C173.436 32.8557 172.562 32.55 171.732 32.2879C172.3 31.5891 173.086 30.6283 174.003 29.5801C174.265 29.2744 174.571 28.9687 174.833 28.663C175.707 27.7459 176.711 26.7414 177.803 25.7369C180.904 22.9417 184.835 20.1903 189.071 19.0111C189.333 18.9238 189.595 18.8801 189.857 18.8364C189.988 18.7927 190.119 18.7927 190.25 18.7491C190.381 18.7054 190.512 18.7054 190.643 18.6617C190.774 18.6617 190.905 18.6181 191.036 18.6181C191.822 18.487 192.608 18.4434 193.438 18.4434C193.569 18.4434 193.7 18.4434 193.831 18.4434C193.962 18.4434 194.093 18.4434 194.224 18.4434C194.355 18.4434 194.486 18.4434 194.617 18.487C194.879 18.5307 195.142 18.5307 195.404 18.5744C195.535 18.6181 195.666 18.6181 195.84 18.6617C195.971 18.7054 196.102 18.7054 196.233 18.7491C196.364 18.7927 196.539 18.8364 196.67 18.8801C196.801 18.9238 196.932 18.9674 197.019 18.9674C197.282 19.0548 197.544 19.1421 197.849 19.2295C198.242 19.3605 198.679 19.5352 199.072 19.7536C199.334 19.8846 199.64 20.0156 199.902 20.1466C200.033 20.234 200.164 20.2777 200.295 20.365C200.47 20.496 200.688 20.5834 200.863 20.7144C200.994 20.8017 201.168 20.8891 201.299 21.0201C201.736 21.2821 202.129 21.6315 202.522 21.9373C203.265 22.5487 203.964 23.2038 204.575 23.8589C215.013 35.2141 201.955 50.7619 196.757 56.1337Z" fill="#EACD9A"/>
<path d="M200.338 20.3667C188.154 16.0867 177.628 28.5773 174.309 33.1631C173.479 32.8137 172.606 32.508 171.776 32.2459C172.344 31.5471 173.13 30.5863 174.047 29.5382C174.309 29.2324 174.615 28.9267 174.877 28.621C175.75 27.7039 176.755 26.6994 177.847 25.6949C180.947 22.8998 184.878 20.1483 189.114 18.9691C189.376 18.8818 189.638 18.8381 189.9 18.7944C190.031 18.7508 190.163 18.7508 190.294 18.7071C190.425 18.6634 190.556 18.6634 190.687 18.6197C190.818 18.6197 190.949 18.5761 191.08 18.5761C191.866 18.445 192.652 18.4014 193.482 18.4014C193.613 18.4014 193.744 18.4014 193.875 18.4014C194.006 18.4014 194.137 18.4014 194.268 18.4014C194.399 18.4014 194.53 18.4014 194.661 18.445C194.923 18.4887 195.185 18.4887 195.447 18.5324C195.578 18.5761 195.709 18.5761 195.884 18.6197C196.015 18.6634 196.146 18.6634 196.277 18.7071C196.408 18.7508 196.583 18.7944 196.714 18.8381C196.845 18.8818 196.976 18.9255 197.063 18.9255C197.325 19.0128 197.587 19.1001 197.893 19.1875C198.286 19.3185 198.723 19.4932 199.116 19.7116C199.378 19.8426 199.683 19.9736 199.945 20.1046C200.076 20.2357 200.207 20.323 200.338 20.3667Z" fill="#C39E6F"/>
<path d="M204.618 23.9036C190.861 15.8677 181.121 29.1445 177.715 34.8657C176.579 34.2106 175.444 33.6865 174.265 33.2061C177.628 28.6204 188.109 16.1297 200.294 20.4097C200.469 20.5408 200.687 20.6281 200.862 20.7591C200.993 20.8465 201.168 20.9338 201.299 21.0648C201.735 21.3269 202.128 21.6763 202.522 21.982C203.351 22.5934 204.006 23.2485 204.618 23.9036Z" fill="#DABA88"/>
<path d="M156.273 84.3051C158.806 80.1998 157.539 74.7842 153.39 72.2512C149.722 69.9801 145.092 70.7662 142.297 73.8234C141.948 74.2165 141.598 74.6532 141.336 75.1336C138.803 79.2389 140.07 84.6545 144.219 87.1875C147.058 88.9345 150.464 88.8471 153.172 87.3186C154.395 86.6198 155.443 85.6153 156.273 84.3051Z" fill="#333132"/>
<path d="M154.132 86.0519C156.665 81.9466 155.399 76.5311 151.25 73.998C148.411 72.251 145.005 72.3384 142.297 73.867C141.947 74.26 141.598 74.6968 141.336 75.1772C138.803 79.2825 140.069 84.698 144.218 87.2311C147.057 88.9781 150.464 88.8907 153.172 87.3621C153.477 86.9254 153.827 86.4887 154.132 86.0519Z" fill="#272425"/>
<path d="M145.879 85.528C147.712 85.528 149.198 84.042 149.198 82.2088C149.198 80.3757 147.712 78.8896 145.879 78.8896C144.046 78.8896 142.56 80.3757 142.56 82.2088C142.56 84.042 144.046 85.528 145.879 85.528Z" fill="white"/>
<path d="M98.3618 88.2358C100.545 83.9121 98.8422 78.6275 94.5622 76.4439C90.7625 74.4785 86.1768 75.6141 83.6437 78.8896C83.2943 79.3263 83.0323 79.7631 82.7703 80.2435C80.5866 84.5672 82.2898 89.8517 86.5699 92.0354C89.5397 93.5639 92.9462 93.2146 95.4793 91.4676C96.7022 90.7252 97.7067 89.5896 98.3618 88.2358Z" fill="#333132"/>
<path d="M96.1776 90.3321C98.4923 86.0957 96.9638 80.7675 92.7274 78.4091C89.845 76.7932 86.3947 77.0116 83.7743 78.7149C83.4249 79.1079 83.1192 79.5883 82.8572 80.0687C80.5425 84.3051 82.071 89.6333 86.3074 91.9917C89.1899 93.6076 92.6401 93.3892 95.2605 91.6859C95.6099 91.2492 95.9156 90.8125 96.1776 90.3321Z" fill="#272425"/>
<path d="M88.535 90.4636C90.3682 90.4636 91.8542 88.9775 91.8542 87.1444C91.8542 85.3112 90.3682 83.8252 88.535 83.8252C86.7019 83.8252 85.2158 85.3112 85.2158 87.1444C85.2158 88.9775 86.7019 90.4636 88.535 90.4636Z" fill="white"/>
<path d="M124.38 139.737C142.931 137.44 156.446 123.275 154.567 108.099C152.687 92.9225 136.125 82.4822 117.574 84.7796C99.0226 87.077 85.5075 101.242 87.3869 116.418C89.2663 131.594 105.829 142.034 124.38 139.737Z" fill="#AD6946"/>
<path d="M127.699 149.735C146.37 147.422 159.982 133.245 158.103 118.069C156.223 102.893 139.564 92.465 120.893 94.7772C102.222 97.0894 88.61 111.266 90.4894 126.443C92.3688 141.619 109.028 152.047 127.699 149.735Z" fill="#945339"/>
<path d="M147.407 117.103C142.996 134.354 110.765 151.649 88.9714 129.856C87.7922 127.367 87.0061 124.659 86.6567 121.864C86.3947 119.767 86.351 117.715 86.5257 115.706C87.2245 107.582 91.1988 100.202 97.3131 95.1354C101.549 91.6415 106.79 89.2395 112.643 88.497L123.386 87.1431C129.239 86.4007 134.916 87.4489 139.895 89.8509C141.686 90.7244 143.389 91.7725 144.961 92.9517C147.669 97.1881 150.508 104.918 147.407 117.103Z" fill="#ECD09C"/>
<path d="M147.407 117.103C150.507 104.918 147.669 97.1878 144.961 92.9951C145.092 93.0825 145.267 93.2135 145.398 93.3008C150.726 97.4498 154.656 103.346 156.185 110.246C156.403 111.207 156.578 112.168 156.709 113.172C158.718 129.463 149.634 144.137 125.482 147.15C115.306 148.417 106.091 146.146 99.1908 141.56C94.6924 138.547 91.1549 134.572 88.9712 129.856C110.764 151.649 142.996 134.354 147.407 117.103Z" fill="#DCBD8A"/>
<path d="M119.194 125.139C118.888 125.139 118.583 124.921 118.539 124.571C116.923 112.867 117.185 103.171 117.185 103.084C117.185 102.734 117.491 102.472 117.84 102.429C118.19 102.429 118.495 102.734 118.495 103.084C118.495 103.171 118.233 112.779 119.806 124.353C119.849 124.702 119.587 125.052 119.238 125.095C119.238 125.139 119.194 125.139 119.194 125.139Z" fill="#43281F"/>
<path d="M132.34 87.4482C135.266 88.016 137.711 88.8895 139.895 89.894C139.196 92.427 138.104 94.7854 136.576 96.8818C133.257 101.424 127.841 104.612 120.198 105.529C116.792 105.966 113.735 105.791 110.939 105.223C127.448 101.424 131.466 92.6454 132.34 87.4482Z" fill="#43281F"/>
<path d="M102.947 101.642C100.632 99.8953 98.7542 97.7116 97.313 95.1349C101.549 91.641 106.615 88.6712 118.495 87.1863C123.998 86.4875 128.54 86.7059 132.339 87.4047C131.466 92.6018 127.491 101.424 110.939 105.18C107.882 104.568 105.218 103.346 102.947 101.642Z" fill="#5C392B"/>
<path d="M125.177 89.5878C124.696 89.5004 124.26 89.4568 123.779 89.4131C123.299 89.3694 122.862 89.3257 122.382 89.3257C121.465 89.2821 120.547 89.2821 119.63 89.3257C117.796 89.4131 115.962 89.5878 114.171 89.9372C112.337 90.2865 110.546 90.8106 108.799 91.4657C107.052 92.1645 105.349 93.038 103.82 94.2172C103.078 94.7849 102.947 95.8331 103.515 96.5756C103.951 97.0996 104.607 97.318 105.218 97.187L105.305 97.1433C106.965 96.7503 108.537 96.3135 110.153 95.9205C111.769 95.5711 113.429 95.2217 115.088 94.8723L120.111 93.9551L122.644 93.4747C123.08 93.3874 123.474 93.3 123.91 93.2127C124.347 93.1253 124.784 93.038 125.177 92.9506L125.264 92.907C126.138 92.6886 126.705 91.7714 126.443 90.8543C126.356 90.1555 125.832 89.6751 125.177 89.5878Z" fill="white"/>
<path d="M164.658 141.517C165.793 142.084 166.667 143.089 167.103 144.399L164.832 144.53L164.658 141.517Z" fill="white"/>
<path d="M161.469 141.036C162.43 140.861 163.435 140.949 164.308 141.342L161.469 141.473V141.036Z" fill="#71495A"/>
<path d="M159.766 141.56C160.159 141.429 160.552 141.298 160.945 141.167C161.12 141.123 161.338 141.08 161.513 141.036V141.473L159.766 141.56Z" fill="#D8BFB4"/>
<path d="M161.644 144.661L161.469 141.473L164.308 141.342C164.439 141.385 164.526 141.429 164.657 141.516L164.788 144.486L161.644 144.661Z" fill="#D8BFB4"/>
<path d="M161.643 144.661L158.455 144.836L158.324 142.084C158.805 141.91 159.241 141.779 159.722 141.604L161.469 141.517L161.643 144.661Z" fill="white"/>
<path d="M155.311 144.966L155.224 143.219C156.229 142.826 157.277 142.433 158.325 142.04L158.456 144.791L155.311 144.966Z" fill="#D8BFB4"/>
<path d="M152.167 145.141L152.123 144.53C153.128 144.093 154.176 143.656 155.224 143.22L155.311 144.967L152.167 145.141Z" fill="white"/>
<path d="M150.595 145.185C151.075 144.967 151.599 144.705 152.123 144.486L152.167 145.098L150.595 145.185Z" fill="#D8BFB4"/>
<path d="M101.461 147.063C101.986 147.238 102.466 147.413 102.946 147.588L101.461 147.675V147.063Z" fill="white"/>
<path d="M98.3173 147.806L98.23 146.059C99.3218 146.364 100.414 146.714 101.462 147.063L101.506 147.631L98.3173 147.806Z" fill="#D8BFB4"/>
<path d="M95.1725 147.98L95.0415 145.229C96.1333 145.491 97.2252 145.796 98.2734 146.058L98.3607 147.805L95.1725 147.98Z" fill="white"/>
<path d="M91.8101 144.529C91.9848 144.529 92.1158 144.573 92.2905 144.617C92.6835 144.704 93.0766 144.791 93.4697 144.879L91.8101 144.966V144.529Z" fill="#71495A"/>
<path d="M88.9272 145.097C89.8007 144.617 90.8052 144.399 91.8097 144.53V144.966L88.9272 145.097Z" fill="#D8BFB4"/>
<path d="M91.9848 148.11L91.8101 144.922L93.4697 144.835C93.9937 144.966 94.4742 145.053 94.9982 145.184L95.1293 147.936L91.9848 148.11Z" fill="#D8BFB4"/>
<path d="M91.9847 148.112L88.7965 148.286L88.6655 145.273C88.7529 145.229 88.8402 145.185 88.9276 145.142L91.81 145.011L91.9847 148.112Z" fill="white"/>
<path d="M86.438 148.417C86.7437 147.063 87.5298 145.971 88.6653 145.272L88.7964 148.286L86.438 148.417Z" fill="#D8BFB4"/>
<path d="M164.833 144.486L167.104 144.355C167.104 144.399 167.147 144.399 167.147 144.443C167.409 145.316 167.671 146.321 167.933 147.5L165.007 147.631L164.833 144.486Z" fill="#D8BFB4"/>
<path d="M168.194 148.854C168.325 149.421 168.413 150.033 168.544 150.644H168.282L168.194 148.854Z" fill="#D8BFB4"/>
<path d="M165.138 150.818L164.963 147.63L167.889 147.499C167.976 147.936 168.064 148.372 168.195 148.853L168.282 150.687L165.138 150.818Z" fill="white"/>
<path d="M164.846 144.502L161.662 144.661L161.821 147.845L165.005 147.686L164.846 144.502Z" fill="#71495A"/>
<path d="M161.657 144.634L158.472 144.793L158.631 147.977L161.816 147.818L161.657 144.634Z" fill="#D8BFB4"/>
<path d="M164.977 147.648L161.793 147.808L161.952 150.992L165.136 150.833L164.977 147.648Z" fill="#D8BFB4"/>
<path d="M161.832 147.821L158.647 147.98L158.807 151.165L161.991 151.006L161.832 147.821Z" fill="white"/>
<path d="M158.513 144.808L155.329 144.967L155.488 148.151L158.672 147.992L158.513 144.808Z" fill="#71495A"/>
<path d="M155.325 144.984L152.141 145.144L152.3 148.328L155.485 148.169L155.325 144.984Z" fill="#D8BFB4"/>
<path d="M158.645 147.997L155.461 148.156L155.62 151.341L158.804 151.181L158.645 147.997Z" fill="#D8BFB4"/>
<path d="M155.499 148.127L152.314 148.286L152.474 151.47L155.658 151.311L155.499 148.127Z" fill="white"/>
<path d="M152.298 148.286L149.11 148.461L148.979 145.971C149.503 145.709 150.027 145.447 150.551 145.229L152.123 145.142L152.298 148.286Z" fill="#71495A"/>
<path d="M145.965 148.591L145.921 147.587C146.925 147.063 147.93 146.495 149.022 145.971L149.153 148.46L145.965 148.591Z" fill="#D8BFB4"/>
<path d="M152.312 148.303L149.127 148.462L149.287 151.646L152.471 151.487L152.312 148.303Z" fill="#D8BFB4"/>
<path d="M149.166 148.434L145.981 148.593L146.141 151.777L149.325 151.618L149.166 148.434Z" fill="white"/>
<path d="M143.957 148.722C144.568 148.329 145.223 147.98 145.922 147.587L145.966 148.591L143.957 148.722Z" fill="#71495A"/>
<path d="M146.14 151.779L142.952 151.954L142.821 149.421C143.17 149.203 143.563 148.984 143.956 148.722L145.965 148.635L146.14 151.779Z" fill="#D8BFB4"/>
<path d="M139.807 152.085L139.763 151.43C140.724 150.775 141.728 150.076 142.82 149.421L142.951 151.954L139.807 152.085Z" fill="white"/>
<path d="M138.758 152.129C139.108 151.911 139.413 151.649 139.763 151.387L139.806 152.042L138.758 152.129Z" fill="#D8BFB4"/>
<path d="M114.433 152.74C114.782 152.915 115.088 153.133 115.438 153.308L114.477 153.352L114.433 152.74Z" fill="white"/>
<path d="M107.926 149.509C108.625 149.815 109.28 150.077 109.891 150.382L107.969 150.47L107.926 149.509Z" fill="#D8BFB4"/>
<path d="M111.288 153.527L111.157 151.037C112.336 151.605 113.385 152.173 114.433 152.74L114.476 153.352L111.288 153.527Z" fill="#D8BFB4"/>
<path d="M108.143 153.657L107.969 150.469L109.89 150.382C110.327 150.6 110.764 150.775 111.157 150.993L111.288 153.483L108.143 153.657Z" fill="white"/>
<path d="M104.825 150.645L104.694 148.199C105.829 148.636 106.921 149.073 107.926 149.509L107.969 150.47L104.825 150.645Z" fill="#71495A"/>
<path d="M101.636 150.819L101.461 147.631L102.946 147.544C103.558 147.762 104.126 147.981 104.693 148.155L104.824 150.601L101.636 150.819Z" fill="#D8BFB4"/>
<path d="M107.981 150.53L104.797 150.689L104.956 153.874L108.14 153.715L107.981 150.53Z" fill="#D8BFB4"/>
<path d="M104.835 150.66L101.65 150.819L101.81 154.004L104.994 153.845L104.835 150.66Z" fill="white"/>
<path d="M101.516 147.647L98.332 147.806L98.4911 150.99L101.676 150.831L101.516 147.647Z" fill="#71495A"/>
<path d="M98.3279 147.822L95.1436 147.981L95.3027 151.166L98.487 151.007L98.3279 147.822Z" fill="#D8BFB4"/>
<path d="M101.649 150.836L98.4644 150.995L98.6235 154.179L101.808 154.02L101.649 150.836Z" fill="#D8BFB4"/>
<path d="M98.5022 150.967L95.3179 151.126L95.477 154.31L98.6613 154.151L98.5022 150.967Z" fill="white"/>
<path d="M95.1824 147.952L91.998 148.111L92.1572 151.296L95.3415 151.137L95.1824 147.952Z" fill="#71495A"/>
<path d="M91.9949 148.128L88.8105 148.287L88.9697 151.471L92.1541 151.312L91.9949 148.128Z" fill="#D8BFB4"/>
<path d="M95.3147 151.142L92.1304 151.301L92.2895 154.485L95.4738 154.326L95.3147 151.142Z" fill="#D8BFB4"/>
<path d="M92.1702 151.315L88.9858 151.474L89.1449 154.658L92.3293 154.499L92.1702 151.315Z" fill="white"/>
<path d="M88.971 151.429L85.9575 151.56C86.0885 150.381 86.2632 149.377 86.4379 148.46C86.4379 148.416 86.4379 148.372 86.4816 148.372L88.84 148.241L88.971 151.429Z" fill="#71495A"/>
<path d="M89.1449 154.618L85.9567 154.793L85.8257 152.434C85.8694 152.172 85.8694 151.867 85.913 151.605L88.9265 151.474L89.1449 154.618Z" fill="#D8BFB4"/>
<path d="M85.6523 154.794C85.696 153.964 85.7834 153.178 85.8707 152.436L86.0017 154.794H85.6523Z" fill="white"/>
<path d="M168.282 150.645H168.544C168.718 151.605 168.85 152.697 169.024 153.789L168.456 153.833L168.282 150.645Z" fill="#71495A"/>
<path d="M168.34 150.659L165.156 150.818L165.315 154.003L168.499 153.844L168.34 150.659Z" fill="#D8BFB4"/>
<path d="M168.457 153.832L169.024 153.788C169.155 154.793 169.243 155.841 169.33 156.933L168.588 156.976L168.457 153.832Z" fill="#D8BFB4"/>
<path d="M168.471 153.849L165.287 154.008L165.446 157.192L168.631 157.033L168.471 153.849Z" fill="white"/>
<path d="M165.153 150.836L161.968 150.995L162.127 154.179L165.312 154.02L165.153 150.836Z" fill="#71495A"/>
<path d="M162.006 150.966L158.821 151.125L158.98 154.309L162.165 154.15L162.006 150.966Z" fill="#D8BFB4"/>
<path d="M165.325 153.98L162.141 154.139L162.3 157.323L165.485 157.164L165.325 153.98Z" fill="#D8BFB4"/>
<path d="M162.138 154.155L158.954 154.314L159.113 157.499L162.297 157.34L162.138 154.155Z" fill="white"/>
<path d="M158.818 151.141L155.634 151.3L155.793 154.484L158.977 154.325L158.818 151.141Z" fill="#71495A"/>
<path d="M155.675 151.315L152.491 151.474L152.65 154.658L155.834 154.499L155.675 151.315Z" fill="#D8BFB4"/>
<path d="M158.994 154.328L155.81 154.487L155.969 157.672L159.154 157.513L158.994 154.328Z" fill="#D8BFB4"/>
<path d="M155.804 154.461L152.62 154.62L152.779 157.804L155.964 157.645L155.804 154.461Z" fill="white"/>
<path d="M152.485 151.446L149.301 151.605L149.46 154.79L152.644 154.631L152.485 151.446Z" fill="#71495A"/>
<path d="M149.342 151.621L146.157 151.78L146.316 154.965L149.501 154.805L149.342 151.621Z" fill="#D8BFB4"/>
<path d="M152.66 154.634L149.476 154.793L149.635 157.977L152.82 157.818L152.66 154.634Z" fill="#D8BFB4"/>
<path d="M149.47 154.766L146.286 154.925L146.445 158.109L149.63 157.95L149.47 154.766Z" fill="white"/>
<path d="M146.153 151.796L142.969 151.955L143.128 155.139L146.312 154.98L146.153 151.796Z" fill="#71495A"/>
<path d="M143.008 151.926L139.824 152.085L139.983 155.269L143.167 155.11L143.008 151.926Z" fill="#D8BFB4"/>
<path d="M146.328 154.94L143.144 155.1L143.303 158.284L146.487 158.125L146.328 154.94Z" fill="#D8BFB4"/>
<path d="M143.14 155.116L139.956 155.275L140.115 158.46L143.3 158.301L143.14 155.116Z" fill="white"/>
<path d="M139.938 155.273L136.75 155.448L136.663 153.745C137.318 153.221 137.973 152.74 138.715 152.173L139.763 152.129L139.938 155.273Z" fill="#71495A"/>
<path d="M134.522 155.536C135.177 154.969 135.92 154.357 136.706 153.702L136.793 155.405L134.522 155.536Z" fill="#D8BFB4"/>
<path d="M139.993 155.246L136.809 155.405L136.968 158.59L140.153 158.431L139.993 155.246Z" fill="#D8BFB4"/>
<path d="M136.968 158.593L133.78 158.767L133.649 156.322C133.911 156.06 134.217 155.841 134.479 155.579L136.75 155.448L136.968 158.593Z" fill="white"/>
<path d="M131.029 158.855C131.684 158.156 132.557 157.239 133.649 156.278L133.78 158.724L131.029 158.855Z" fill="#D8BFB4"/>
<path d="M120.983 156.977C122.118 157.85 123.036 158.592 123.778 159.248L121.114 159.379L120.983 156.977Z" fill="white"/>
<path d="M117.708 154.706C118.538 155.23 119.28 155.754 119.979 156.235L117.795 156.366L117.708 154.706Z" fill="#71495A"/>
<path d="M114.608 156.54L114.433 153.352L115.394 153.309C116.224 153.789 116.966 154.269 117.665 154.706L117.752 156.366L114.608 156.54Z" fill="#D8BFB4"/>
<path d="M117.971 159.51L117.796 156.321L119.98 156.19C120.329 156.452 120.678 156.671 120.984 156.933L121.115 159.335L117.971 159.51Z" fill="#D8BFB4"/>
<path d="M117.808 156.383L114.624 156.542L114.783 159.726L117.967 159.567L117.808 156.383Z" fill="white"/>
<path d="M114.489 153.368L111.304 153.527L111.463 156.712L114.648 156.553L114.489 153.368Z" fill="#71495A"/>
<path d="M111.342 153.498L108.158 153.657L108.317 156.842L111.501 156.682L111.342 153.498Z" fill="#D8BFB4"/>
<path d="M114.662 156.513L111.478 156.672L111.637 159.856L114.822 159.697L114.662 156.513Z" fill="#D8BFB4"/>
<path d="M111.474 156.688L108.29 156.847L108.449 160.031L111.634 159.872L111.474 156.688Z" fill="white"/>
<path d="M108.156 153.674L104.971 153.833L105.13 157.017L108.315 156.858L108.156 153.674Z" fill="#71495A"/>
<path d="M105.011 153.848L101.826 154.007L101.985 157.191L105.17 157.032L105.011 153.848Z" fill="#D8BFB4"/>
<path d="M108.331 156.861L105.147 157.021L105.306 160.205L108.49 160.046L108.331 156.861Z" fill="#D8BFB4"/>
<path d="M105.141 156.994L101.957 157.153L102.116 160.338L105.3 160.179L105.141 156.994Z" fill="white"/>
<path d="M101.822 153.98L98.6372 154.139L98.7963 157.323L101.981 157.164L101.822 153.98Z" fill="#71495A"/>
<path d="M98.6775 154.153L95.4932 154.312L95.6523 157.497L98.8366 157.338L98.6775 154.153Z" fill="#D8BFB4"/>
<path d="M101.997 157.168L98.813 157.327L98.9721 160.512L102.156 160.352L101.997 157.168Z" fill="#D8BFB4"/>
<path d="M98.8074 157.3L95.623 157.459L95.7822 160.643L98.9665 160.484L98.8074 157.3Z" fill="white"/>
<path d="M95.49 154.329L92.3057 154.488L92.4648 157.673L95.6491 157.514L95.49 154.329Z" fill="#71495A"/>
<path d="M92.3435 154.459L89.1592 154.618L89.3183 157.803L92.5026 157.643L92.3435 154.459Z" fill="#D8BFB4"/>
<path d="M95.6634 157.473L92.479 157.632L92.6381 160.816L95.8225 160.657L95.6634 157.473Z" fill="#D8BFB4"/>
<path d="M92.4759 157.649L89.2915 157.809L89.4506 160.993L92.635 160.834L92.4759 157.649Z" fill="white"/>
<path d="M89.156 154.635L85.9717 154.794L86.1308 157.978L89.3151 157.819L89.156 154.635Z" fill="#71495A"/>
<path d="M86.1322 157.937L85.4771 157.981C85.5207 156.846 85.5644 155.797 85.6081 154.793H85.9575L86.1322 157.937Z" fill="#D8BFB4"/>
<path d="M89.3303 157.779L86.146 157.938L86.3051 161.123L89.4895 160.964L89.3303 157.779Z" fill="#D8BFB4"/>
<path d="M86.2632 161.127L85.4771 161.17C85.4771 160.078 85.4771 158.987 85.4771 157.982L86.1322 157.938L86.2632 161.127Z" fill="white"/>
<path d="M168.632 156.977L169.374 156.934C169.462 157.938 169.505 158.986 169.549 160.078L168.807 160.122L168.632 156.977Z" fill="#71495A"/>
<path d="M168.645 156.993L165.461 157.152L165.62 160.337L168.804 160.178L168.645 156.993Z" fill="#D8BFB4"/>
<path d="M168.763 160.166L169.506 160.122C169.506 160.297 169.506 160.428 169.506 160.602C169.549 161.52 169.593 162.437 169.637 163.31L168.894 163.354L168.763 160.166Z" fill="#D8BFB4"/>
<path d="M168.778 160.183L165.593 160.342L165.752 163.526L168.937 163.367L168.778 160.183Z" fill="white"/>
<path d="M165.458 157.169L162.273 157.328L162.433 160.512L165.617 160.353L165.458 157.169Z" fill="#71495A"/>
<path d="M162.312 157.299L159.127 157.458L159.287 160.642L162.471 160.483L162.312 157.299Z" fill="#D8BFB4"/>
<path d="M165.632 160.313L162.447 160.472L162.606 163.656L165.791 163.497L165.632 160.313Z" fill="#D8BFB4"/>
<path d="M162.444 160.488L159.26 160.647L159.419 163.832L162.603 163.673L162.444 160.488Z" fill="white"/>
<path d="M159.124 157.475L155.94 157.634L156.099 160.818L159.283 160.659L159.124 157.475Z" fill="#71495A"/>
<path d="M155.981 157.648L152.796 157.808L152.956 160.992L156.14 160.833L155.981 157.648Z" fill="#D8BFB4"/>
<path d="M159.3 160.662L156.116 160.821L156.275 164.006L159.459 163.847L159.3 160.662Z" fill="#D8BFB4"/>
<path d="M156.11 160.794L152.925 160.953L153.084 164.137L156.269 163.978L156.11 160.794Z" fill="white"/>
<path d="M152.791 157.78L149.606 157.939L149.766 161.124L152.95 160.965L152.791 157.78Z" fill="#71495A"/>
<path d="M149.647 157.953L146.463 158.112L146.622 161.297L149.806 161.138L149.647 157.953Z" fill="#D8BFB4"/>
<path d="M152.967 160.968L149.783 161.127L149.942 164.311L153.126 164.152L152.967 160.968Z" fill="#D8BFB4"/>
<path d="M149.777 161.101L146.593 161.26L146.752 164.444L149.936 164.285L149.777 161.101Z" fill="white"/>
<path d="M146.46 158.129L143.275 158.288L143.434 161.472L146.619 161.313L146.46 158.129Z" fill="#71495A"/>
<path d="M143.313 158.261L140.129 158.42L140.288 161.604L143.472 161.445L143.313 158.261Z" fill="#D8BFB4"/>
<path d="M146.633 161.274L143.449 161.433L143.608 164.617L146.792 164.458L146.633 161.274Z" fill="#D8BFB4"/>
<path d="M143.446 161.449L140.261 161.608L140.42 164.793L143.605 164.634L143.446 161.449Z" fill="white"/>
<path d="M140.126 158.436L136.941 158.595L137.101 161.779L140.285 161.62L140.126 158.436Z" fill="#71495A"/>
<path d="M136.981 158.565L133.796 158.725L133.955 161.909L137.14 161.75L136.981 158.565Z" fill="#D8BFB4"/>
<path d="M140.3 161.578L137.115 161.737L137.274 164.922L140.459 164.763L140.3 161.578Z" fill="#D8BFB4"/>
<path d="M137.113 161.755L133.928 161.914L134.087 165.098L137.272 164.939L137.113 161.755Z" fill="white"/>
<path d="M133.955 161.912L131.16 162.043L131.029 159.903C131.029 159.641 130.898 159.379 130.724 159.204C130.811 159.117 130.942 158.986 131.029 158.855L133.781 158.724L133.955 161.912Z" fill="#71495A"/>
<path d="M133.954 161.912L134.085 165.057L131.334 165.188L131.203 162.567L131.159 162.043L133.954 161.912Z" fill="#D8BFB4"/>
<path d="M123.648 160.253L123.735 162.393L121.246 162.524L121.071 159.336L123.735 159.205C123.823 159.292 123.91 159.336 123.954 159.423C123.779 159.642 123.648 159.948 123.648 160.253Z" fill="#D8BFB4"/>
<path d="M123.779 162.393V162.917L123.91 165.581L121.421 165.712L121.29 162.524L123.779 162.393Z" fill="white"/>
<path d="M121.128 159.397L117.943 159.556L118.102 162.74L121.287 162.581L121.128 159.397Z" fill="#71495A"/>
<path d="M117.981 159.525L114.797 159.685L114.956 162.869L118.14 162.71L117.981 159.525Z" fill="#D8BFB4"/>
<path d="M121.301 162.54L118.117 162.699L118.276 165.884L121.46 165.724L121.301 162.54Z" fill="#D8BFB4"/>
<path d="M118.114 162.715L114.929 162.874L115.088 166.058L118.273 165.899L118.114 162.715Z" fill="white"/>
<path d="M114.794 159.702L111.609 159.861L111.768 163.046L114.953 162.887L114.794 159.702Z" fill="#71495A"/>
<path d="M111.648 159.832L108.464 159.991L108.623 163.176L111.807 163.016L111.648 159.832Z" fill="#D8BFB4"/>
<path d="M114.968 162.846L111.783 163.005L111.942 166.189L115.127 166.03L114.968 162.846Z" fill="#D8BFB4"/>
<path d="M111.781 163.023L108.596 163.182L108.755 166.366L111.94 166.207L111.781 163.023Z" fill="white"/>
<path d="M108.46 160.008L105.276 160.167L105.435 163.351L108.619 163.192L108.46 160.008Z" fill="#71495A"/>
<path d="M105.317 160.182L102.133 160.341L102.292 163.525L105.476 163.366L105.317 160.182Z" fill="#D8BFB4"/>
<path d="M108.637 163.195L105.453 163.354L105.612 166.539L108.796 166.38L108.637 163.195Z" fill="#D8BFB4"/>
<path d="M105.447 163.327L102.262 163.486L102.421 166.671L105.606 166.512L105.447 163.327Z" fill="white"/>
<path d="M102.127 160.314L98.9429 160.474L99.102 163.658L102.286 163.499L102.127 160.314Z" fill="#71495A"/>
<path d="M98.9832 160.486L95.7988 160.646L95.958 163.83L99.1423 163.671L98.9832 160.486Z" fill="#D8BFB4"/>
<path d="M102.303 163.5L99.1187 163.659L99.2778 166.844L102.462 166.684L102.303 163.5Z" fill="#D8BFB4"/>
<path d="M99.1131 163.633L95.9287 163.792L96.0878 166.976L99.2722 166.817L99.1131 163.633Z" fill="white"/>
<path d="M95.7957 160.662L92.6113 160.821L92.7704 164.006L95.9548 163.847L95.7957 160.662Z" fill="#71495A"/>
<path d="M92.6492 160.793L89.4648 160.952L89.624 164.136L92.8083 163.977L92.6492 160.793Z" fill="#D8BFB4"/>
<path d="M95.97 163.808L92.7856 163.967L92.9448 167.151L96.1291 166.992L95.97 163.808Z" fill="#D8BFB4"/>
<path d="M92.7815 163.982L89.5972 164.142L89.7563 167.326L92.9406 167.167L92.7815 163.982Z" fill="white"/>
<path d="M89.4627 160.969L86.2783 161.128L86.4374 164.312L89.6218 164.153L89.4627 160.969Z" fill="#71495A"/>
<path d="M86.4379 164.27L85.6081 164.314C85.5644 163.222 85.5207 162.174 85.4771 161.126L86.2632 161.082L86.4379 164.27Z" fill="#D8BFB4"/>
<path d="M89.636 164.111L86.4517 164.271L86.6108 167.455L89.7951 167.296L89.636 164.111Z" fill="#D8BFB4"/>
<path d="M86.6119 167.458L85.7821 167.501C85.7384 166.628 85.6511 165.754 85.6511 164.794C85.6511 164.619 85.6511 164.488 85.6074 164.313L86.4372 164.27L86.6119 167.458Z" fill="white"/>
<path d="M168.937 163.309L169.679 163.266C169.723 164.357 169.723 165.449 169.723 166.454L169.112 166.497L168.937 163.309Z" fill="#71495A"/>
<path d="M168.951 163.326L165.767 163.485L165.926 166.67L169.111 166.511L168.951 163.326Z" fill="#D8BFB4"/>
<path d="M169.068 166.498L169.68 166.454C169.68 167.59 169.636 168.638 169.592 169.642H169.243L169.068 166.498Z" fill="#D8BFB4"/>
<path d="M169.127 166.514L165.942 166.673L166.101 169.857L169.286 169.698L169.127 166.514Z" fill="white"/>
<path d="M165.807 163.5L162.623 163.659L162.782 166.844L165.966 166.684L165.807 163.5Z" fill="#71495A"/>
<path d="M162.617 163.632L159.433 163.791L159.592 166.975L162.776 166.816L162.617 163.632Z" fill="#D8BFB4"/>
<path d="M165.938 166.647L162.753 166.806L162.913 169.99L166.097 169.831L165.938 166.647Z" fill="#D8BFB4"/>
<path d="M162.793 166.819L159.608 166.979L159.768 170.163L162.952 170.004L162.793 166.819Z" fill="white"/>
<path d="M159.474 163.807L156.29 163.966L156.449 167.15L159.634 166.991L159.474 163.807Z" fill="#71495A"/>
<path d="M156.286 163.982L153.102 164.141L153.261 167.325L156.445 167.166L156.286 163.982Z" fill="#D8BFB4"/>
<path d="M159.606 166.995L156.421 167.154L156.58 170.339L159.765 170.18L159.606 166.995Z" fill="#D8BFB4"/>
<path d="M156.46 167.126L153.275 167.285L153.435 170.47L156.619 170.31L156.46 167.126Z" fill="white"/>
<path d="M153.14 164.111L149.956 164.271L150.115 167.455L153.3 167.296L153.14 164.111Z" fill="#71495A"/>
<path d="M149.953 164.288L146.769 164.447L146.928 167.632L150.112 167.472L149.953 164.288Z" fill="#D8BFB4"/>
<path d="M153.272 167.302L150.088 167.461L150.247 170.645L153.431 170.486L153.272 167.302Z" fill="#D8BFB4"/>
<path d="M150.126 167.432L146.942 167.591L147.101 170.775L150.285 170.616L150.126 167.432Z" fill="white"/>
<path d="M146.809 164.461L143.625 164.62L143.784 167.804L146.968 167.645L146.809 164.461Z" fill="#71495A"/>
<path d="M143.619 164.593L140.435 164.752L140.594 167.936L143.779 167.777L143.619 164.593Z" fill="#D8BFB4"/>
<path d="M146.939 167.607L143.754 167.767L143.914 170.951L147.098 170.792L146.939 167.607Z" fill="#D8BFB4"/>
<path d="M143.796 167.78L140.611 167.939L140.77 171.124L143.955 170.965L143.796 167.78Z" fill="white"/>
<path d="M140.475 164.767L137.291 164.926L137.45 168.11L140.634 167.951L140.475 164.767Z" fill="#71495A"/>
<path d="M137.286 164.899L134.102 165.059L134.261 168.243L137.445 168.084L137.286 164.899Z" fill="#D8BFB4"/>
<path d="M140.593 167.938L140.768 171.127L138.322 171.258C138.06 171.083 137.798 170.952 137.58 170.777L137.449 168.113L140.593 167.938Z" fill="#D8BFB4"/>
<path d="M137.405 168.07L137.536 170.734C136.269 169.948 135.177 169.162 134.26 168.463V168.245L137.405 168.07Z" fill="white"/>
<path d="M131.334 165.23L134.129 165.056L134.304 168.244H134.042C132.819 167.327 131.902 166.541 131.159 165.885C131.247 165.711 131.334 165.492 131.334 165.23Z" fill="#71495A"/>
<path d="M134.261 168.463C134.173 168.375 134.086 168.331 133.999 168.244H134.261V168.463Z" fill="#D8BFB4"/>
<path d="M121.42 165.712L123.91 165.581V165.625C123.91 165.93 124.085 166.192 124.259 166.367C123.648 167.066 122.774 167.896 121.726 168.9H121.551L121.42 165.712Z" fill="#D8BFB4"/>
<path d="M121.77 168.856C121.726 168.9 121.639 168.944 121.595 169.031V168.856H121.77Z" fill="white"/>
<path d="M121.477 165.729L118.292 165.888L118.452 169.072L121.636 168.913L121.477 165.729Z" fill="#71495A"/>
<path d="M118.288 165.859L115.104 166.019L115.263 169.203L118.447 169.044L118.288 165.859Z" fill="#D8BFB4"/>
<path d="M121.595 168.856V169.031C120.722 169.817 119.717 170.691 118.538 171.652L118.407 169.075L121.595 168.856Z" fill="#D8BFB4"/>
<path d="M115.262 169.206L118.45 169.031L118.581 171.608C118.319 171.826 118.057 172.001 117.795 172.219L115.437 172.35L115.262 169.206Z" fill="white"/>
<path d="M115.144 166.032L111.959 166.191L112.119 169.376L115.303 169.217L115.144 166.032Z" fill="#71495A"/>
<path d="M111.954 166.165L108.77 166.324L108.929 169.509L112.113 169.349L111.954 166.165Z" fill="#D8BFB4"/>
<path d="M115.274 169.18L112.089 169.339L112.248 172.523L115.433 172.364L115.274 169.18Z" fill="#D8BFB4"/>
<path d="M112.13 169.354L108.945 169.513L109.104 172.697L112.289 172.538L112.13 169.354Z" fill="white"/>
<path d="M108.81 166.34L105.626 166.499L105.785 169.683L108.969 169.524L108.81 166.34Z" fill="#71495A"/>
<path d="M105.623 166.515L102.438 166.674L102.598 169.858L105.782 169.699L105.623 166.515Z" fill="#D8BFB4"/>
<path d="M108.942 169.529L105.758 169.688L105.917 172.873L109.101 172.714L108.942 169.529Z" fill="#D8BFB4"/>
<path d="M105.796 169.659L102.611 169.818L102.77 173.003L105.955 172.844L105.796 169.659Z" fill="white"/>
<path d="M102.477 166.645L99.293 166.804L99.4521 169.988L102.636 169.829L102.477 166.645Z" fill="#71495A"/>
<path d="M99.2888 166.82L96.1045 166.979L96.2636 170.164L99.448 170.005L99.2888 166.82Z" fill="#D8BFB4"/>
<path d="M102.609 169.835L99.4243 169.994L99.5834 173.179L102.768 173.019L102.609 169.835Z" fill="#D8BFB4"/>
<path d="M99.4632 169.964L96.2788 170.123L96.4379 173.307L99.6223 173.148L99.4632 169.964Z" fill="white"/>
<path d="M96.1453 166.994L92.9609 167.153L93.1201 170.338L96.3044 170.179L96.1453 166.994Z" fill="#71495A"/>
<path d="M92.9558 167.126L89.7715 167.285L89.9306 170.47L93.1149 170.31L92.9558 167.126Z" fill="#D8BFB4"/>
<path d="M96.2747 170.14L93.0903 170.299L93.2494 173.483L96.4338 173.324L96.2747 170.14Z" fill="#D8BFB4"/>
<path d="M93.1311 170.314L89.9468 170.473L90.1059 173.657L93.2902 173.498L93.1311 170.314Z" fill="white"/>
<path d="M89.7683 167.302L86.584 167.461L86.7431 170.645L89.9275 170.486L89.7683 167.302Z" fill="#71495A"/>
<path d="M86.7433 170.603L86.0445 170.646C85.9135 169.642 85.8261 168.594 85.7388 167.502L86.5686 167.458L86.7433 170.603Z" fill="#D8BFB4"/>
<path d="M89.9417 170.446L86.7573 170.605L86.9164 173.79L90.1008 173.631L89.9417 170.446Z" fill="#D8BFB4"/>
<path d="M86.9179 173.792H86.4812C86.3065 172.787 86.1755 171.739 86.0444 170.647L86.7432 170.604L86.9179 173.792Z" fill="white"/>
<path d="M169.593 169.642C169.549 170.646 169.462 171.563 169.374 172.437L169.243 169.685L169.593 169.642Z" fill="#71495A"/>
<path d="M166.099 169.816L169.287 169.642L169.418 172.393C169.418 172.524 169.374 172.655 169.374 172.786L166.273 172.961L166.099 169.816Z" fill="#D8BFB4"/>
<path d="M166.23 173.005L169.331 172.83C169.2 174.009 169.069 175.101 168.894 176.018L166.405 176.149L166.23 173.005Z" fill="white"/>
<path d="M166.113 169.834L162.929 169.993L163.088 173.178L166.272 173.018L166.113 169.834Z" fill="#71495A"/>
<path d="M162.924 169.966L159.74 170.125L159.899 173.309L163.083 173.15L162.924 169.966Z" fill="#D8BFB4"/>
<path d="M166.242 172.98L163.058 173.139L163.217 176.323L166.401 176.164L166.242 172.98Z" fill="#D8BFB4"/>
<path d="M163.099 173.153L159.915 173.312L160.074 176.497L163.259 176.338L163.099 173.153Z" fill="white"/>
<path d="M159.78 170.139L156.595 170.298L156.754 173.482L159.939 173.323L159.78 170.139Z" fill="#71495A"/>
<path d="M156.592 170.315L153.408 170.475L153.567 173.659L156.751 173.5L156.592 170.315Z" fill="#D8BFB4"/>
<path d="M159.912 173.329L156.728 173.488L156.887 176.673L160.071 176.514L159.912 173.329Z" fill="#D8BFB4"/>
<path d="M156.765 173.459L153.581 173.618L153.74 176.803L156.924 176.643L156.765 173.459Z" fill="white"/>
<path d="M153.446 170.446L150.261 170.605L150.42 173.79L153.605 173.631L153.446 170.446Z" fill="#71495A"/>
<path d="M150.259 170.621L147.074 170.78L147.233 173.965L150.418 173.805L150.259 170.621Z" fill="#D8BFB4"/>
<path d="M153.577 173.635L150.393 173.794L150.552 176.978L153.737 176.819L153.577 173.635Z" fill="#D8BFB4"/>
<path d="M150.42 173.792L150.595 176.98L150.027 177.024C149.11 176.674 148.236 176.325 147.363 175.932L147.275 173.967L150.42 173.792Z" fill="white"/>
<path d="M147.115 170.794L143.93 170.953L144.089 174.137L147.274 173.978L147.115 170.794Z" fill="#71495A"/>
<path d="M143.912 170.908L144.087 174.096L143.563 174.14C142.602 173.66 141.728 173.179 140.855 172.699L140.768 171.083L143.912 170.908Z" fill="#D8BFB4"/>
<path d="M147.232 173.922L147.319 175.887C146.184 175.407 145.092 174.883 144.087 174.402V174.097L147.232 173.922Z" fill="#D8BFB4"/>
<path d="M144.088 174.402C143.913 174.315 143.695 174.228 143.52 174.14L144.044 174.097L144.088 174.402Z" fill="white"/>
<path d="M140.812 172.7C139.939 172.219 139.065 171.695 138.279 171.215L140.725 171.084L140.812 172.7Z" fill="#71495A"/>
<path d="M117.752 172.219C117.053 172.743 116.267 173.311 115.481 173.878L115.394 172.306L117.752 172.219Z" fill="#D8BFB4"/>
<path d="M112.249 172.524L115.437 172.35L115.524 173.922C114.694 174.49 113.821 175.101 112.904 175.669L112.423 175.712L112.249 172.524Z" fill="#71495A"/>
<path d="M112.259 172.499L109.075 172.658L109.234 175.843L112.418 175.683L112.259 172.499Z" fill="#D8BFB4"/>
<path d="M112.861 175.669C112.73 175.756 112.555 175.844 112.424 175.931V175.669H112.861Z" fill="#D8BFB4"/>
<path d="M112.424 175.669V175.931C111.463 176.542 110.415 177.154 109.323 177.765L109.235 175.844L112.424 175.669Z" fill="white"/>
<path d="M109.116 172.672L105.931 172.831L106.09 176.015L109.275 175.856L109.116 172.672Z" fill="#71495A"/>
<path d="M105.928 172.848L102.744 173.007L102.903 176.191L106.087 176.032L105.928 172.848Z" fill="#D8BFB4"/>
<path d="M106.091 175.974L109.279 175.8L109.366 177.721C108.537 178.202 107.663 178.639 106.746 179.119L106.266 179.163L106.091 175.974Z" fill="#D8BFB4"/>
<path d="M106.102 175.992L102.918 176.151L103.077 179.336L106.261 179.177L106.102 175.992Z" fill="white"/>
<path d="M102.782 172.979L99.5972 173.138L99.7563 176.322L102.941 176.163L102.782 172.979Z" fill="#71495A"/>
<path d="M99.595 173.154L96.4106 173.313L96.5698 176.498L99.7541 176.339L99.595 173.154Z" fill="#D8BFB4"/>
<path d="M102.914 176.168L99.7295 176.327L99.8886 179.512L103.073 179.352L102.914 176.168Z" fill="#D8BFB4"/>
<path d="M99.7683 176.297L96.584 176.456L96.7431 179.64L99.9275 179.481L99.7683 176.297Z" fill="white"/>
<path d="M96.451 173.327L93.2666 173.486L93.4257 176.671L96.6101 176.512L96.451 173.327Z" fill="#71495A"/>
<path d="M93.2615 173.46L90.0771 173.619L90.2363 176.803L93.4206 176.644L93.2615 173.46Z" fill="#D8BFB4"/>
<path d="M96.5808 176.474L93.3965 176.633L93.5556 179.817L96.74 179.658L96.5808 176.474Z" fill="#D8BFB4"/>
<path d="M93.4368 176.648L90.2524 176.807L90.4116 179.991L93.5959 179.832L93.4368 176.648Z" fill="white"/>
<path d="M90.117 173.634L86.9326 173.793L87.0917 176.977L90.2761 176.818L90.117 173.634Z" fill="#71495A"/>
<path d="M87.0929 176.937C86.8745 175.976 86.6561 174.928 86.4814 173.792H86.9182L87.0929 176.937Z" fill="#D8BFB4"/>
<path d="M90.2378 176.805L90.4125 179.993L87.8357 180.124C87.5737 179.207 87.3553 178.202 87.0933 177.11V176.979L90.2378 176.805Z" fill="#D8BFB4"/>
<path d="M87.093 177.067C87.093 177.023 87.093 176.979 87.0493 176.936L87.093 177.067Z" fill="white"/>
<path d="M166.404 176.15L168.893 176.019C168.85 176.324 168.806 176.586 168.762 176.848C168.587 177.765 168.151 178.595 167.539 179.25L166.535 179.294L166.404 176.15Z" fill="#D8BFB4"/>
<path d="M167.539 179.25C167.277 179.556 166.928 179.818 166.578 180.036L166.535 179.294L167.539 179.25Z" fill="white"/>
<path d="M166.418 176.166L163.234 176.325L163.393 179.51L166.577 179.35L166.418 176.166Z" fill="#71495A"/>
<path d="M163.272 176.297L160.088 176.456L160.247 179.64L163.431 179.481L163.272 176.297Z" fill="#D8BFB4"/>
<path d="M166.535 179.338L166.579 180.08C165.662 180.648 164.57 180.954 163.435 180.866L163.347 179.513L166.535 179.338Z" fill="#D8BFB4"/>
<path d="M163.391 179.469L163.478 180.823C163.303 180.823 163.085 180.779 162.91 180.735C161.993 180.561 161.12 180.342 160.29 180.124L160.246 179.6L163.391 179.469Z" fill="white"/>
<path d="M160.072 176.455L160.246 179.643L158.543 179.731C158.063 179.6 157.539 179.469 157.058 179.338L156.927 176.63L160.072 176.455Z" fill="#71495A"/>
<path d="M156.883 176.63L157.015 179.338C155.923 179.032 154.831 178.683 153.783 178.377L153.695 176.805L156.883 176.63Z" fill="#D8BFB4"/>
<path d="M160.246 180.168C159.679 180.037 159.067 179.862 158.5 179.731L160.203 179.644L160.246 180.168Z" fill="#D8BFB4"/>
<path d="M153.739 176.805L153.827 178.377C152.691 178.028 151.643 177.634 150.595 177.241V176.979L153.739 176.805Z" fill="#71495A"/>
<path d="M150.594 177.198C150.376 177.11 150.201 177.067 150.026 176.979L150.594 176.936V177.198Z" fill="#D8BFB4"/>
<path d="M106.703 179.119C106.528 179.206 106.397 179.294 106.222 179.381V179.163L106.703 179.119Z" fill="#71495A"/>
<path d="M106.222 179.163V179.381C105.217 179.862 104.213 180.342 103.121 180.823L103.034 179.294L106.222 179.163Z" fill="#D8BFB4"/>
<path d="M103.077 179.338L103.164 180.866C102.16 181.303 101.112 181.74 100.064 182.177L99.9326 179.513L103.077 179.338Z" fill="#71495A"/>
<path d="M96.7441 179.643L99.9323 179.469L100.063 182.133C99.5829 182.308 99.0588 182.526 98.5348 182.701L96.9188 182.788L96.7441 179.643Z" fill="#D8BFB4"/>
<path d="M98.5356 182.7C98.0115 182.919 97.4874 183.093 96.9196 183.268L96.876 182.788L98.5356 182.7Z" fill="white"/>
<path d="M96.7566 179.661L93.5723 179.82L93.7314 183.005L96.9157 182.846L96.7566 179.661Z" fill="#71495A"/>
<path d="M93.5667 179.794L90.3823 179.953L90.5414 183.137L93.7258 182.978L93.5667 179.794Z" fill="#D8BFB4"/>
<path d="M96.8757 182.788L96.9193 183.268C96.0459 183.574 95.1724 183.88 94.2553 184.142C94.0806 184.186 93.9495 184.229 93.7748 184.273L93.6875 182.919L96.8757 182.788Z" fill="#D8BFB4"/>
<path d="M90.543 183.138L93.7311 182.963L93.8185 184.317C92.7267 184.535 91.5911 184.404 90.6303 183.924L90.543 183.138Z" fill="white"/>
<path d="M90.5437 183.137L89.4955 183.181C88.8404 182.613 88.3163 181.827 88.0543 180.91C87.967 180.648 87.8796 180.386 87.8359 180.08L90.4127 179.949L90.5437 183.137Z" fill="#71495A"/>
<path d="M90.587 183.924C90.1939 183.749 89.8008 183.487 89.4951 183.181L90.5433 183.138L90.587 183.924Z" fill="#D8BFB4"/>
<path d="M127.491 162.742L123.778 162.916L123.735 162.392L123.647 160.252C123.647 159.946 123.778 159.641 123.997 159.422C124.172 159.291 124.39 159.204 124.608 159.16L127.272 159.029L127.491 162.742Z" fill="#71495A"/>
<path d="M123.91 165.624L123.779 162.96L127.491 162.785L127.666 166.497L125.002 166.628C124.74 166.628 124.478 166.541 124.303 166.41C124.085 166.148 123.954 165.93 123.91 165.624Z" fill="#D8BFB4"/>
<path d="M131.029 159.903L131.116 162.043L131.16 162.567L127.448 162.742L127.273 159.029L129.937 158.898C130.243 158.898 130.505 158.986 130.68 159.16C130.898 159.379 131.029 159.597 131.029 159.903Z" fill="#D8BFB4"/>
<path d="M127.491 162.741L131.203 162.566L131.335 165.187V165.231C131.335 165.449 131.291 165.711 131.16 165.886C130.985 166.148 130.723 166.279 130.374 166.322L127.71 166.453L127.491 162.741Z" fill="white"/>
<path d="M98.6682 185.104L89.1036 182.178L45.4736 194.625L76.2199 203.84C80.2379 203.49 86.6142 202.18 91.8551 197.813C97.5763 193.009 98.5808 187.855 98.6682 185.104Z" fill="#3B6876"/>
<path d="M129.24 194.406L98.6682 185.104C98.5809 187.811 97.5764 193.008 91.8114 197.813C86.6143 202.18 80.1942 203.49 76.1763 203.84L86.9637 207.071L129.24 194.406Z" fill="#98DFEB"/>
<path d="M138.236 251.137L131.467 254.195C129.064 250.57 126.619 246.028 124.566 238.341C124.086 236.507 123.256 234.847 122.164 233.362L126.75 231.31C127.012 232.707 127.361 234.148 127.842 235.633C129.807 242.01 133.476 247.381 138.236 251.137Z" fill="#5494A2"/>
<path d="M126.75 231.31L122.164 233.362C113.822 221.745 90.2822 219.256 90.2822 219.256L129.239 205.892C129.239 205.892 130.418 206.285 132.209 207.071C129.239 211.22 124.61 219.649 126.75 231.31Z" fill="#EEC892"/>
<path d="M45.4736 210.565V194.624L87.0073 207.071L86.8763 252.011C83.164 237.817 73.0317 218.819 45.4736 210.565Z" fill="#3B6876"/>
<path d="M86.8753 252.012L86.7879 274.897L75.4328 270.311L52.8972 261.227L45.4727 258.213V210.565C73.0307 218.82 83.163 237.818 86.8753 252.012Z" fill="#5494A2"/>
<path d="M176.495 266.337C175.098 263.105 172.172 258.694 165.97 254.981C161.035 252.012 154.003 249.522 144.089 248.561L161.471 240.7C162.476 241.617 163.611 242.534 164.922 243.539C167.892 245.766 170.643 248.387 172.739 251.575C175.316 255.375 176.888 260.179 176.495 266.337Z" fill="#EEC892"/>
<path d="M176.495 266.336C176.451 266.685 176.451 267.034 176.407 267.428L141.338 287.823C141.6 265.593 136.664 262.099 131.467 254.282L138.237 251.225C145.574 257.033 155.531 258.999 165.969 255.024C172.171 258.649 175.097 263.104 176.495 266.336Z" fill="#EAB979"/>
<path d="M121.99 196.59L129.239 194.406V205.892L112.949 211.483C120.243 206.154 121.728 199.56 121.99 196.59Z" fill="#3B6876"/>
<path d="M86.7886 274.94L87.0069 207.115L121.99 196.59C121.728 199.56 120.243 206.154 112.949 211.526L90.2825 219.3L90.5882 273.281L86.7886 274.94Z" fill="#81C4D5"/>
<path d="M114.696 249.435L131.467 254.239C135.267 259.916 138.892 263.323 140.507 273.28C128.628 267.166 120.374 258.3 114.696 249.435Z" fill="#E7AA5A"/>
<path d="M103.254 222.008C111.945 224.628 122.208 229.52 124.523 238.385C126.576 246.072 129.021 250.614 131.423 254.239L114.653 249.435C107.84 238.735 104.651 228.035 103.254 222.008Z" fill="#81C4D5"/>
<path d="M90.4132 242.447L90.2822 219.3C90.2822 219.3 96.2655 219.911 103.253 222.051C104.607 228.078 107.839 238.778 114.696 249.435L90.4132 242.447Z" fill="#3B6876"/>
<path d="M90.4131 242.447L90.5878 273.281L99.3662 275.814L121.902 282.278L141.293 287.824L141.337 287.781C141.424 281.666 141.075 276.993 140.463 273.237C128.628 267.123 120.373 258.257 114.652 249.391L90.4131 242.447Z" fill="#E09446"/>
<path d="M60.2785 248.299L59.7981 247.513L63.4667 246.945C68.6639 246.159 73.7737 251.487 74.9092 258.824C76.0447 266.205 72.7255 272.8 67.5283 273.586L63.8598 274.154L63.9034 273.193C60.1038 271.752 56.9156 267.341 56.0858 261.707C55.1687 255.986 57.003 250.701 60.2785 248.299Z" fill="#43281F"/>
<path d="M170.685 266.948C172.398 266.948 173.786 264.895 173.786 262.362C173.786 259.829 172.398 257.776 170.685 257.776C168.973 257.776 167.584 259.829 167.584 262.362C167.584 264.895 168.973 266.948 170.685 266.948Z" fill="#E09446"/>
<path d="M146.883 280.093C148.596 280.093 149.984 278.04 149.984 275.508C149.984 272.975 148.596 270.922 146.883 270.922C145.171 270.922 143.782 272.975 143.782 275.508C143.782 278.04 145.171 280.093 146.883 280.093Z" fill="#E09446"/>
<path d="M108.8 263.235L108.319 262.449L111.988 262.013C117.229 261.401 122.164 266.86 123.037 274.285C123.911 281.709 120.417 288.173 115.176 288.828L111.507 289.265L111.595 288.304C107.883 286.688 104.825 282.19 104.127 276.512C103.428 270.791 105.437 265.55 108.8 263.235Z" fill="#43281F"/>
<path d="M63.8886 274.233C69.0863 273.436 72.3846 266.818 71.2554 259.45C70.1263 252.083 64.9973 246.756 59.7996 247.553C54.6018 248.349 51.3035 254.968 52.4327 262.335C53.5619 269.703 58.6908 275.029 63.8886 274.233Z" fill="#272425"/>
<path d="M111.551 289.236C116.772 288.609 120.282 282.101 119.392 274.702C118.503 267.302 113.549 261.813 108.329 262.44C103.108 263.068 99.5979 269.576 100.488 276.975C101.378 284.375 106.331 289.864 111.551 289.236Z" fill="#272425"/>
<path d="M110.696 282.126C113.139 281.833 114.78 278.78 114.363 275.307C113.945 271.835 111.626 269.258 109.184 269.552C106.741 269.846 105.1 272.899 105.517 276.371C105.935 279.843 108.254 282.42 110.696 282.126Z" fill="#98DFEB"/>
<path d="M62.305 266.45C64.7476 266.157 66.3891 263.104 65.9715 259.632C65.5539 256.159 63.2353 253.583 60.7928 253.876C58.3502 254.17 56.7086 257.223 57.1262 260.695C57.5438 264.168 59.8624 266.744 62.305 266.45Z" fill="#98DFEB"/>
<path d="M83.2075 198.774C66.0874 206.854 46.0849 206.461 37.8306 191.262C37.0444 189.821 36.3457 188.293 35.8216 186.808C35.8216 186.808 35.8216 186.764 35.7779 186.677C34.5987 183.401 33.9873 180.038 34.0746 176.675C34.293 167.504 39.5775 158.507 52.0682 152.611C68.0091 145.099 80.9802 149.03 89.0161 155.887C91.9422 158.376 94.2133 161.259 95.7419 164.141C96.1786 164.971 96.6153 165.844 96.9647 166.762C101.157 177.374 99.0174 191.306 83.2075 198.774Z" fill="#945339"/>
<path d="M74.7349 189.34C49.7972 198.599 38.7478 186.326 34.0747 176.631C34.2931 167.459 39.5776 158.463 52.0683 152.567C65.7818 146.147 77.268 148.112 85.3039 153.134C86.6141 153.964 87.8807 154.881 89.0162 155.842C94.9121 166.542 94.8248 181.872 74.7349 189.34Z" fill="#AD6946"/>
<path d="M74.3418 177.985C80.4998 167.416 72.8133 151.65 55.3001 157.589C37.787 163.573 34.0747 176.675 34.0747 176.675C34.2931 167.503 39.5776 158.506 52.0683 152.611C65.7818 146.19 77.268 148.156 85.3039 153.178C94.9995 167.765 74.3418 177.985 74.3418 177.985Z" fill="#B6724D"/>
<path d="M83.2072 198.774C66.0871 206.853 46.0846 206.46 37.8303 191.262C37.0442 189.821 36.3454 188.292 35.8213 186.807C39.4899 193.751 47.3948 204.146 66.8733 201.394C96.7897 197.158 99.6285 178.378 96.9208 166.805C101.157 177.374 99.0171 191.306 83.2072 198.774Z" fill="#B6724D"/>
<path d="M96.921 166.805C94.1259 160.123 80.8055 142.916 54.5576 154.446C29.4889 165.451 35.2101 184.93 35.7779 186.677C34.5987 183.401 33.9873 180.038 34.0746 176.675C34.293 167.504 39.5775 158.507 52.0682 152.611C68.0091 145.099 80.9801 149.03 89.0161 155.887C91.9422 158.376 94.2133 161.259 95.7419 164.141C96.1349 165.015 96.5716 165.888 96.921 166.805Z" fill="#D59A77"/>
<path d="M150.246 220.654L126.75 231.31C124.61 219.65 129.239 211.221 132.253 207.115C136.926 209.168 145.922 213.797 150.246 220.654Z" fill="#E09446"/>
<path d="M161.471 240.612L144.089 248.473L138.236 251.138C133.476 247.382 129.807 242.01 127.798 235.633C127.318 234.148 126.969 232.707 126.707 231.31L150.203 220.653C150.814 221.658 151.338 222.662 151.732 223.754C155.182 233.013 157.234 236.813 161.471 240.612Z" fill="#3B6876"/>
<path d="M165.969 254.937C155.531 258.955 145.574 256.946 138.236 251.138L144.089 248.474C154.003 249.478 161.034 251.968 165.969 254.937Z" fill="#E09446"/>
<path d="M174.835 252.011C174.18 252.317 173.525 252.623 172.87 252.928C171.516 253.496 170.162 254.02 168.852 254.457C163.524 256.204 158.37 256.728 153.653 256.16C153.348 256.117 153.042 256.073 152.736 256.029C152.474 255.986 152.256 255.942 151.994 255.898C151.95 255.898 151.907 255.898 151.863 255.855C151.601 255.811 151.339 255.767 151.033 255.68C150.465 255.549 149.941 255.418 149.373 255.287C148.325 254.981 147.277 254.632 146.273 254.239C146.011 254.151 145.749 254.02 145.53 253.933C145.487 253.933 145.443 253.889 145.443 253.889C145.224 253.802 145.006 253.715 144.831 253.584C144.351 253.365 143.871 253.103 143.39 252.841C143.172 252.71 142.91 252.579 142.691 252.448C142.473 252.317 142.255 252.186 142.036 252.011C141.818 251.88 141.6 251.706 141.381 251.575C140.944 251.269 140.508 250.963 140.115 250.614C139.722 250.308 139.329 249.959 138.935 249.609C138.717 249.435 138.499 249.216 138.28 248.998C138.106 248.823 137.887 248.648 137.713 248.43C137.32 248.037 136.97 247.644 136.621 247.251C136.446 247.076 136.271 246.858 136.14 246.639C135.922 246.377 135.747 246.159 135.573 245.897C135.442 245.722 135.267 245.504 135.136 245.329C134.961 245.111 134.83 244.892 134.655 244.63C134.35 244.194 134.088 243.713 133.782 243.277C133.476 242.796 133.214 242.272 132.952 241.748C132.865 241.53 132.734 241.311 132.646 241.093C132.646 241.049 132.603 241.006 132.603 240.962C132.515 240.743 132.384 240.481 132.297 240.263C132.21 240.045 132.079 239.783 131.991 239.564C131.948 239.477 131.904 239.346 131.86 239.215L131.598 238.56C125.964 223.274 129.153 212.88 141.774 203.184C145.836 200.04 150.902 196.982 156.973 193.838C157.278 193.663 157.584 193.532 157.89 193.358C158.196 193.183 158.458 193.008 158.763 192.833C159.025 192.659 159.287 192.484 159.549 192.309C159.811 192.135 160.03 191.96 160.248 191.785C160.379 191.698 160.51 191.567 160.641 191.48C160.772 191.392 160.947 191.261 161.078 191.13C161.122 191.087 161.165 191.043 161.253 190.999C161.427 190.868 161.602 190.693 161.82 190.519C161.908 190.475 161.951 190.388 162.039 190.3C162.214 190.126 162.388 189.995 162.563 189.82C162.607 189.776 162.65 189.733 162.694 189.689C162.869 189.514 163.043 189.34 163.218 189.165C163.262 189.121 163.305 189.078 163.349 189.034C163.524 188.859 163.655 188.684 163.829 188.51C164.004 188.335 164.179 188.16 164.31 187.942C164.441 187.811 164.572 187.636 164.703 187.462C164.834 187.287 165.009 187.112 165.14 186.894C165.271 186.719 165.445 186.501 165.576 186.326C165.664 186.239 165.707 186.151 165.751 186.064C165.838 185.933 165.926 185.802 166.057 185.627C166.319 185.278 166.537 184.929 166.756 184.579C166.887 184.361 167.061 184.099 167.192 183.837C167.236 183.793 167.236 183.706 167.28 183.662C167.411 183.444 167.542 183.182 167.673 182.963C167.76 182.789 167.847 182.614 167.978 182.395C168.022 182.264 168.109 182.177 168.153 182.046C168.284 181.784 168.415 181.566 168.503 181.304C168.59 181.085 168.721 180.867 168.808 180.649C168.852 180.561 168.896 180.43 168.939 180.343C168.983 180.212 169.07 180.037 169.114 179.906C169.201 179.731 169.245 179.6 169.332 179.426C169.376 179.338 169.42 179.251 169.42 179.164C169.507 178.902 169.638 178.64 169.725 178.377C169.813 178.159 169.9 177.897 169.987 177.679C170.031 177.548 170.075 177.373 170.118 177.242C170.249 176.849 170.38 176.456 170.468 176.063C170.512 175.888 170.599 175.67 170.643 175.495C170.73 175.233 170.774 175.015 170.861 174.753C170.948 174.491 170.992 174.228 171.079 174.01C171.123 173.792 171.167 173.617 171.21 173.399C171.254 173.18 171.298 173.006 171.341 172.787C171.385 172.482 171.472 172.219 171.516 171.914C171.691 171.084 171.865 170.211 171.996 169.381C172.04 169.206 172.04 169.031 172.084 168.857C172.302 167.153 172.346 165.625 172.258 164.227C172.258 164.227 172.258 164.227 172.258 164.184C172.215 163.004 172.04 161.956 171.822 161.039C171.167 157.982 170.075 156.322 170.075 156.322L175.578 153.309L188.243 151.3C188.243 151.3 203.354 165.144 205.057 192.484C206.368 216.417 194.226 242.621 174.835 252.011Z" fill="#945339"/>
<path d="M194.881 201C194.881 228.558 169.9 247.905 152.911 240.699C134.48 232.925 134.699 214.102 141.687 203.227C145.748 200.083 150.814 197.026 156.885 193.881C166.624 188.859 170.424 178.464 171.821 169.642C173.394 168.419 175.097 167.59 177.019 167.371C185.972 166.41 194.881 173.442 194.881 201Z" fill="#AD6946"/>
<path d="M172.87 252.885C171.516 253.453 170.162 253.977 168.852 254.413C163.524 256.16 158.37 256.684 153.653 256.117C152.474 255.986 151.295 255.767 150.16 255.505C149.898 255.462 149.635 255.374 149.373 255.287C148.325 254.981 147.277 254.632 146.273 254.239C146.011 254.151 145.749 254.02 145.53 253.933C145.487 253.933 145.443 253.889 145.443 253.889C145.224 253.802 145.006 253.715 144.831 253.584C144.351 253.365 143.871 253.103 143.39 252.841C143.172 252.71 142.91 252.579 142.691 252.448C142.473 252.317 142.255 252.186 142.036 252.011C141.818 251.88 141.6 251.706 141.381 251.575C140.944 251.269 140.508 250.963 140.115 250.614C139.722 250.308 139.329 249.959 138.935 249.609C138.717 249.435 138.499 249.216 138.28 248.998C138.106 248.823 137.887 248.648 137.713 248.43C137.32 248.037 136.97 247.644 136.621 247.251C136.446 247.076 136.271 246.858 136.14 246.639C135.922 246.377 135.747 246.159 135.573 245.897C135.442 245.722 135.267 245.504 135.136 245.329C134.961 245.111 134.83 244.893 134.655 244.63C134.35 244.194 134.088 243.713 133.782 243.277C133.476 242.796 133.214 242.272 132.952 241.748C132.865 241.53 132.734 241.311 132.646 241.093C132.646 241.049 132.603 241.006 132.603 240.962C132.515 240.743 132.384 240.481 132.297 240.263C132.21 240.045 132.079 239.783 131.991 239.564C131.948 239.477 131.904 239.346 131.86 239.215L131.598 238.56C125.964 223.274 129.153 212.88 141.774 203.184C145.836 200.04 150.902 196.982 156.973 193.838C157.278 193.663 157.584 193.532 157.89 193.358C158.196 193.183 158.458 193.008 158.763 192.833C159.025 192.659 159.287 192.484 159.549 192.309C159.811 192.135 160.03 191.96 160.248 191.785C160.379 191.698 160.51 191.567 160.641 191.48C160.772 191.392 160.903 191.261 161.078 191.13C161.122 191.087 161.165 191.043 161.253 190.999C161.427 190.868 161.602 190.693 161.82 190.519C161.908 190.475 161.951 190.388 162.039 190.3C162.214 190.169 162.388 189.995 162.563 189.82C162.607 189.776 162.65 189.733 162.694 189.689C162.869 189.514 163.043 189.34 163.218 189.165C163.262 189.121 163.305 189.078 163.349 189.034C163.524 188.859 163.655 188.684 163.829 188.51C164.004 188.335 164.179 188.16 164.31 187.942C164.441 187.811 164.572 187.636 164.703 187.462C164.834 187.287 165.009 187.112 165.14 186.894C165.271 186.719 165.445 186.501 165.576 186.326C165.664 186.239 165.707 186.151 165.751 186.064C165.838 185.933 165.926 185.802 166.057 185.627C166.319 185.278 166.537 184.929 166.756 184.579C166.887 184.361 167.061 184.099 167.192 183.837C167.236 183.793 167.236 183.706 167.28 183.662C167.411 183.444 167.542 183.182 167.673 182.963C167.76 182.789 167.847 182.614 167.978 182.395C168.022 182.264 168.109 182.177 168.153 182.046C168.284 181.784 168.415 181.566 168.503 181.304C168.59 181.085 168.721 180.867 168.808 180.649C168.852 180.561 168.896 180.43 168.939 180.343C168.983 180.168 169.07 180.037 169.114 179.906C169.201 179.731 169.245 179.6 169.332 179.426C169.376 179.338 169.42 179.251 169.42 179.164C169.507 178.902 169.638 178.64 169.725 178.378C169.813 178.159 169.9 177.897 169.987 177.679C170.031 177.548 170.075 177.373 170.118 177.242C170.249 176.849 170.38 176.456 170.468 176.063C170.512 175.844 170.599 175.67 170.643 175.495C170.73 175.233 170.774 175.015 170.861 174.753C170.948 174.491 170.992 174.229 171.079 174.01C171.123 173.792 171.167 173.617 171.21 173.399C171.254 173.18 171.298 173.006 171.341 172.787C171.385 172.482 171.472 172.22 171.516 171.914C171.691 171.084 171.865 170.211 171.996 169.381C172.04 169.206 172.04 169.031 172.084 168.857C172.346 167.022 172.389 165.494 172.258 164.227C172.258 164.227 172.258 164.227 172.258 164.184C172.215 163.004 172.04 161.956 171.822 161.039C173.874 169.555 172.258 185.627 161.602 194.799C138.018 215.02 136.708 227.86 139.547 237.162C144.045 252.535 160.03 256.466 172.87 252.885Z" fill="#B6724D"/>
<path d="M168.939 245.679C171.909 253.977 178.591 265.07 193.833 271.971C194.445 272.276 195.1 272.538 195.755 272.8C218.684 279.439 237.856 271.446 248.469 253.366C249.736 251.182 250.915 248.867 251.963 246.378C258.47 230.786 255.369 213.841 245.805 202.049C244.931 201.001 244.058 199.996 243.097 199.036C240.215 196.109 236.852 193.62 233.096 191.655C231.742 190.956 230.344 190.301 228.947 189.733C210.735 182.352 188.636 186.458 176.32 202.311C172.433 207.29 170.031 212.094 168.502 216.418C168.328 216.942 168.153 217.422 167.978 217.946C167.236 220.436 166.756 222.707 166.493 224.759C166.45 225.196 166.406 225.676 166.362 226.07C166.319 226.506 166.275 226.899 166.275 227.336C166.231 227.948 166.231 228.515 166.231 229.039C166.231 229.258 166.231 229.432 166.231 229.651C166.231 232.621 166.668 234.455 166.668 234.542C166.625 234.63 166.668 239.346 168.939 245.679Z" fill="#B6724D"/>
<path d="M169.158 246.639C172.478 255.505 179.378 265.462 193.834 272.013C194.445 272.319 195.101 272.581 195.756 272.843C218.684 279.482 237.857 271.489 248.47 253.408C249.736 251.225 250.916 248.91 251.964 246.421C258.471 230.829 255.37 213.884 245.806 202.092C247.334 206.066 248.339 210.652 248.732 215.5C249.736 228.121 246.417 242.446 236.809 251.792C231.219 257.252 223.488 261.008 213.269 261.75C212.657 261.794 212.002 261.837 211.391 261.837C200.866 262.23 192.305 258.256 185.623 252.36C176.539 244.368 170.949 232.925 168.896 224.409C168.285 221.963 168.023 219.736 167.979 217.945C167.237 220.435 166.756 222.706 166.494 224.758C166.451 225.195 166.407 225.676 166.363 226.069C166.32 226.505 166.276 226.898 166.276 227.335C166.232 227.947 166.232 228.514 166.232 229.038C166.232 229.257 166.232 229.432 166.232 229.65C166.145 233.013 166.451 239.433 169.158 246.639Z" fill="#AD6946"/>
<path d="M223.706 202.704C234.581 207.377 241.569 217.291 243.01 228.209C243.098 228.995 243.185 229.825 243.229 230.611C242.923 234.149 242.049 237.73 240.564 241.18C233.053 258.606 212.875 266.686 195.45 259.174C192.305 257.82 189.466 256.073 186.977 253.977C179.028 245.155 176.32 232.271 180.95 220.523C181.081 220.217 181.212 219.911 181.343 219.606C188.331 203.272 207.329 195.672 223.706 202.704Z" fill="#ECD09C"/>
<path d="M180.907 220.566C176.278 232.271 178.985 245.155 186.934 254.02C189.947 257.383 193.747 260.178 198.202 262.1C214.579 269.132 233.577 261.576 240.653 245.155C242.705 240.438 243.491 235.459 243.229 230.655C243.186 229.869 243.098 229.039 243.011 228.253C240.347 238.298 232.223 256.16 208.552 253.191C187.545 250.57 180.208 232.795 180.907 220.566Z" fill="#DCBD8A"/>
<path d="M240.564 241.224C242.049 237.774 242.923 234.193 243.228 230.655C243.491 235.459 242.704 240.438 240.652 245.155C233.62 261.533 214.622 269.132 198.201 262.1C193.746 260.179 189.947 257.427 186.933 254.021C189.423 256.117 192.261 257.864 195.406 259.218C212.832 266.73 233.052 258.65 240.564 241.224Z" fill="#C59F6D"/>
<path d="M169.157 246.64C169.07 246.334 169.026 246.029 168.939 245.723C167.541 239.041 167.498 231.66 168.852 224.498C172.127 207.159 186.889 190.956 205.013 189.078C233.794 186.152 248.381 208.164 251.613 219.781C256.068 235.896 248.469 253.409 248.294 253.409C248.294 253.409 248.381 253.409 248.512 253.409C249.779 251.226 250.958 248.911 252.006 246.422C258.514 230.83 255.5 213.841 245.848 202.093C224.579 176.282 190.383 183.008 176.364 201.613C172.564 206.635 170.031 212.138 168.546 216.462C168.371 216.986 168.197 217.466 168.022 217.99C167.279 220.48 166.799 222.751 166.537 224.803C166.493 225.24 166.45 225.72 166.406 226.113C166.362 226.55 166.319 226.943 166.319 227.38C166.275 227.991 166.275 228.559 166.275 229.083C166.275 229.302 166.275 229.476 166.275 229.695C166.144 233.014 166.45 239.434 169.157 246.64Z" fill="#D59A77"/>
<path d="M199.86 251.269C199.816 251.269 199.816 251.269 199.772 251.269C199.336 251.269 198.943 251.094 198.593 250.876C197.938 250.396 197.632 249.653 197.72 248.867L199.292 237.643L191.081 229.825C190.513 229.301 190.295 228.471 190.513 227.729C190.732 226.943 191.387 226.375 192.217 226.244L203.135 224.454L207.765 214.278C208.114 213.535 208.856 213.055 209.686 213.055C210.472 213.055 211.258 213.491 211.608 214.19L216.849 224.279L227.898 225.764C228.684 225.851 229.383 226.419 229.645 227.161C229.907 227.904 229.732 228.734 229.165 229.301L221.434 237.294L223.662 248.43C223.836 249.216 223.531 250.003 222.876 250.483C222.614 250.701 222.264 250.832 221.915 250.92C221.478 251.007 220.998 250.92 220.561 250.701L210.603 245.592L200.908 251.007C200.602 251.182 200.253 251.269 199.86 251.269ZM199.379 249.828C199.51 249.915 199.685 249.959 199.86 250.003C200.034 250.003 200.165 249.959 200.296 249.915L210.254 244.369C210.429 244.281 210.691 244.238 210.865 244.369L221.129 249.61C221.303 249.697 221.478 249.741 221.653 249.697C221.784 249.653 221.915 249.61 222.046 249.522C222.264 249.348 222.395 249.042 222.352 248.736L220.081 237.25C220.037 237.032 220.124 236.813 220.255 236.682L228.248 228.428C228.466 228.209 228.51 227.904 228.422 227.642C228.335 227.336 228.073 227.161 227.767 227.118L216.368 225.589C216.15 225.545 215.975 225.414 215.888 225.24L210.516 214.845C210.385 214.583 210.079 214.409 209.774 214.409C209.468 214.409 209.162 214.583 209.031 214.889L204.271 225.414C204.183 225.633 204.009 225.764 203.79 225.807L192.522 227.642C192.217 227.685 191.955 227.904 191.867 228.209C191.78 228.471 191.867 228.777 192.086 228.996L200.558 237.032C200.733 237.163 200.777 237.381 200.777 237.599L199.161 249.129C198.986 249.347 199.117 249.653 199.379 249.828Z" fill="#C59F6D"/>
<path d="M167.105 183.837C166.406 186.283 164.266 190.519 157.759 195.279C147.495 202.835 132.559 209.08 131.38 225.895C130.419 239.958 139.984 251.749 150.203 255.462C141.556 253.365 134.786 247.382 131.511 238.56C125.877 223.274 129.065 212.88 141.687 203.141C145.748 199.996 150.815 196.939 156.885 193.795C161.515 191.48 164.79 187.899 167.105 183.837Z" fill="#D59A77"/>
<path d="M113.779 118.895C105.655 118.895 102.423 116.405 102.292 116.274C102.03 116.056 101.943 115.619 102.205 115.357C102.423 115.095 102.86 115.008 103.122 115.27C103.166 115.313 107.49 118.545 118.801 117.279C130.331 116.012 135.659 112.911 135.703 112.911C136.009 112.737 136.402 112.824 136.62 113.13C136.838 113.435 136.707 113.828 136.402 114.047C136.183 114.178 130.811 117.322 118.976 118.589C117.054 118.807 115.351 118.895 113.779 118.895Z" fill="#43281F"/>
<path d="M131.816 122.17C133.301 118.414 133.651 115.008 133.651 115.008C120.723 120.249 105.568 117.497 105.568 117.497C105.568 117.497 107.446 124.834 112.556 128.983C114.434 125.621 119.413 120.38 131.816 122.17Z" fill="#43281F"/>
<path d="M126.532 123.872C126.051 122.867 125.178 122.3 124.173 121.95C117.229 122.736 113.997 126.405 112.6 128.982C114.958 130.903 117.971 132.126 121.771 131.646C122.295 131.558 122.776 131.471 123.3 131.34C126.269 129.593 127.885 126.623 126.532 123.872Z" fill="#D67579"/>
<path d="M131.816 122.17C128.847 121.734 126.314 121.734 124.13 121.952C125.134 122.258 125.964 122.869 126.488 123.874C127.886 126.625 126.226 129.595 123.256 131.342C127.755 130.075 130.331 125.97 131.816 122.17Z" fill="#C45D69"/>
<path d="M163.742 17.6152L163.174 20.323C163.174 20.323 160.598 23.7295 159.724 26.2189C159.724 26.2189 159.681 22.3757 161.733 18.4014L163.742 17.6152Z" fill="#D59A77"/>
</svg>
