<svg width="112" height="45" viewBox="0 0 112 45" fill="none" xmlns="http://www.w3.org/2000/svg">
<rect width="112" height="45" rx="22.5" fill="white"/>
<path d="M29.752 37.0004V24.8809H42.5843L43.961 26.6756L45.3833 24.8809H91.9614V36.1645C91.9614 36.1645 90.7433 36.9882 89.3346 37.0004H63.5433L61.991 35.0899V37.0004H56.9044V33.7391C56.9044 33.7391 56.2096 34.1944 54.7074 34.1944H52.976V37.0004H45.2745L43.8997 35.1671L42.5038 37.0004H29.752Z" fill="#016FD0"/>
<path d="M14.7661 15.7463L17.6599 9H22.6643L24.3065 12.779V9H30.5274L31.5051 11.7314L32.4528 9H60.3784V10.3731C60.3784 10.3731 61.8465 9 64.2591 9L73.3199 9.03167L74.9338 12.7612V9H80.1398L81.5727 11.1423V9H86.8264V21.1195H81.5727L80.1995 18.9702V21.1195H72.5507L71.7815 19.209H69.7253L68.9686 21.1195H63.7815C61.7055 21.1195 60.3784 19.7744 60.3784 19.7744V21.1195H52.5575L51.0052 19.209V21.1195H21.9229L21.1542 19.209H19.1045L18.3413 21.1195H14.7661V15.7463Z" fill="#016FD0"/>
<path d="M18.6838 10.4932L14.7808 19.5679H17.3218L18.042 17.7507H22.2286L22.945 19.5679H25.5421L21.6428 10.4932H18.6838ZM20.1278 12.6051L21.404 15.7805H18.848L20.1278 12.6051Z" fill="white"/>
<path d="M25.811 19.5669V10.4922L29.422 10.5056L31.5223 16.3564L33.5723 10.4922H37.1544V19.5669H34.8857V12.8803L32.4809 19.5669H30.4913L28.0797 12.8803V19.5669H25.811Z" fill="white"/>
<path d="M38.7061 19.5669V10.4922H46.1091V12.5221H40.9986V14.0743H45.9897V15.9848H40.9986V17.5967H46.1091V19.5669H38.7061Z" fill="white"/>
<path d="M47.4233 10.4932V19.5679H49.692V16.344H50.6472L53.3674 19.5679H56.1398L53.1547 16.2246C54.3798 16.1212 55.6436 15.0697 55.6436 13.4372C55.6436 11.5276 54.1447 10.4932 52.4719 10.4932H47.4233ZM49.692 12.523H52.2853C52.9074 12.523 53.36 13.0097 53.36 13.4783C53.36 14.0811 52.7736 14.4335 52.3189 14.4335H49.692V12.523Z" fill="white"/>
<path d="M58.8858 19.5669H56.5693V10.4922H58.8858V19.5669Z" fill="white"/>
<path d="M64.3783 19.5669H63.8783C61.4591 19.5669 59.9902 17.6609 59.9902 15.0669C59.9902 12.4087 61.4426 10.4922 64.4977 10.4922H67.0052V12.6415H64.4061C63.1659 12.6415 62.2888 13.6093 62.2888 15.0892C62.2888 16.8467 63.2917 17.5848 64.7365 17.5848H65.3336L64.3783 19.5669Z" fill="white"/>
<path d="M69.3151 10.4932L65.4121 19.5679H67.9532L68.6733 17.7507H72.8599L73.5764 19.5679H76.1734L72.2741 10.4932H69.3151ZM70.7592 12.6051L72.0353 15.7805H69.4793L70.7592 12.6051Z" fill="white"/>
<path d="M76.438 19.5669V10.4922H79.3223L83.0052 16.1937V10.4922H85.2739V19.5669H82.4828L78.7067 13.7161V19.5669H76.438Z" fill="white"/>
<path d="M31.3032 35.4487V26.374H38.7063V28.4039H33.5958V29.9562H38.5869V31.8666H33.5958V33.4786H38.7063V35.4487H31.3032Z" fill="white"/>
<path d="M67.5786 35.4487V26.374H74.9817V28.4039H69.8712V29.9562H74.8384V31.8666H69.8712V33.4786H74.9817V35.4487H67.5786Z" fill="white"/>
<path d="M38.994 35.4487L42.5985 30.9673L38.9082 26.374H41.7664L43.9642 29.2136L46.1695 26.374H48.9158L45.2739 30.9114L48.8851 35.4487H46.0273L43.8933 32.6539L41.8112 35.4487H38.994Z" fill="white"/>
<path d="M49.1543 26.375V35.4497H51.4827V32.584H53.8708C55.8914 32.584 57.423 31.512 57.423 29.4273C57.423 27.7003 56.2218 26.375 54.1655 26.375H49.1543ZM51.4827 28.4273H53.9976C54.6504 28.4273 55.117 28.8274 55.117 29.472C55.117 30.0777 54.6528 30.5168 53.9902 30.5168H51.4827V28.4273Z" fill="white"/>
<path d="M58.4082 26.374V35.4487H60.6769V32.2248H61.6321L64.3523 35.4487H67.1247L64.1396 32.1054C65.3647 32.002 66.6284 30.9506 66.6284 29.3181C66.6284 27.4084 65.1296 26.374 63.4568 26.374H58.4082ZM60.6769 28.4039H63.2702C63.8923 28.4039 64.3448 28.8905 64.3448 29.3591C64.3448 29.962 63.7585 30.3144 63.3038 30.3144H60.6769V28.4039Z" fill="white"/>
<path d="M76.0317 35.4487V33.4786H80.5721C81.2439 33.4786 81.5347 33.1155 81.5347 32.7174C81.5347 32.3359 81.2448 31.9502 80.5721 31.9502H78.5203C76.7369 31.9502 75.7437 30.8636 75.7437 29.2323C75.7437 27.7772 76.6532 26.374 79.3034 26.374H83.7213L82.7661 28.4158H78.9452C78.2148 28.4158 77.9899 28.7991 77.9899 29.1651C77.9899 29.5413 78.2678 29.9562 78.8258 29.9562H80.975C82.9631 29.9562 83.8258 31.0839 83.8258 32.5606C83.8258 34.1483 82.8645 35.4487 80.8668 35.4487H76.0317Z" fill="white"/>
<path d="M84.3589 35.4487V33.4786H88.8992C89.571 33.4786 89.8619 33.1155 89.8619 32.7174C89.8619 32.3359 89.5719 31.9502 88.8992 31.9502H86.8475C85.064 31.9502 84.0708 30.8636 84.0708 29.2323C84.0708 27.7772 84.9804 26.374 87.6305 26.374H92.0485L91.0932 28.4158H87.2723C86.5419 28.4158 86.3171 28.7991 86.3171 29.1651C86.3171 29.5413 86.5949 29.9562 87.1529 29.9562H89.3022C91.2903 29.9562 92.153 31.0839 92.153 32.5606C92.153 34.1483 91.1917 35.4487 89.194 35.4487H84.3589Z" fill="white"/>
</svg>
