<svg width="124" height="184" viewBox="0 0 124 184" fill="none" xmlns="http://www.w3.org/2000/svg">
<path d="M30.3323 84.0225C30.3323 84.0225 30.8561 104.713 31.1656 104.499C31.4751 104.285 70.7375 91.713 70.7375 91.713L71.2137 84.0225H30.3323Z" fill="#945339"/>
<path d="M63.3326 183.904C96.8382 183.904 124 175.813 124 165.832C124 155.852 96.8382 147.761 63.3326 147.761C29.827 147.761 2.66528 155.852 2.66528 165.832C2.66528 175.813 29.827 183.904 63.3326 183.904Z" fill="#2E74D3"/>
<path d="M63.0469 179.808C93.0679 179.808 117.405 173.295 117.405 165.261C117.405 157.226 93.0679 150.713 63.0469 150.713C33.026 150.713 8.68921 157.226 8.68921 165.261C8.68921 173.295 33.026 179.808 63.0469 179.808Z" fill="#226CD0"/>
<path d="M62.7374 176.357C85.7495 176.357 104.405 171.25 104.405 164.952C104.405 158.653 85.7495 153.547 62.7374 153.547C39.7253 153.547 21.0703 158.653 21.0703 164.952C21.0703 171.25 39.7253 176.357 62.7374 176.357Z" fill="#2258A0"/>
<path d="M113 161.261C113 162.785 112.785 164.237 112.238 165.499C111.595 167.047 110.452 168.285 108.69 168.928C107.285 169.428 105.476 169.928 103.166 170.356C100.19 170.88 96.3805 171.309 91.4757 171.452C82.1899 171.737 76.2613 171.023 72.547 170.142C71.8803 169.976 71.285 169.833 70.7612 169.666C68.166 168.856 66.285 166.618 65.9278 163.952C65.0231 157.213 65.4754 146.737 65.8564 140.856C66.0231 138.189 66.1897 136.451 66.1897 136.451L96.1901 116.642C96.1901 116.642 96.7615 120.142 97.9044 124.88C99.4044 131.094 101.881 139.404 105.333 144.642C105.5 144.904 105.666 145.142 105.833 145.38C110.476 151.713 113 157.475 113 161.261Z" fill="#945339"/>
<path d="M61.6184 138.499C61.6184 138.499 61.6184 139.261 61.5946 140.594C61.547 144.095 61.3803 151.428 60.9994 158.738C60.8803 161.166 60.7374 164.285 59.2136 166.595C58.7612 167.285 58.166 167.928 57.4041 168.428C54.3802 170.428 48.7135 171.69 37.4277 171.571C16.4513 171.357 14.2608 166.428 14.356 160.357C14.4512 154.737 20.2132 148.809 23.7132 145.714C25.3561 144.261 26.4752 142.309 26.9037 140.166C29.4276 127.737 35.3324 117.689 35.3324 117.689L39.9277 121.142L61.6184 138.499Z" fill="#945339"/>
<path d="M61.523 144.094C61.4754 147.594 61.3564 151.451 60.9754 158.737C60.8563 161.166 60.7135 164.285 59.1897 166.594C63.4278 150.261 54.5468 141.951 54.5468 141.951L61.523 144.094Z" fill="#AD6946"/>
<path d="M72.5709 170.119C71.9042 169.952 71.309 169.809 70.7852 169.642C68.1899 168.833 66.3089 166.595 65.9518 163.928C65.047 157.19 65.3803 148.737 65.7613 142.856L75.2376 140.856C75.2376 140.856 66.547 149.547 67.3804 162.547C67.6185 166.023 69.6661 168.428 72.5709 170.119Z" fill="#AD6946"/>
<path d="M14.1178 17.1887C7.42728 24.1888 12.6178 31.1889 15.1416 33.8794C15.8321 34.6175 16.3321 35.0222 16.3321 35.0222L24.0703 26.9269L25.9989 24.7602L31.618 18.4506C31.6418 18.4506 22.2132 8.80767 14.1178 17.1887ZM6.35584 10.1172C6.35584 10.141 6.35584 10.141 6.35584 10.1172C6.23679 10.2601 6.11774 10.3553 6.0225 10.4744C5.35582 11.2125 4.76058 11.9267 4.23676 12.6649C-6.54907 27.165 6.21298 39.8794 9.99873 43.1652C10.6178 43.7128 10.9987 43.9985 10.9987 43.9985L26.0465 29.2127L26.0703 29.2365L26.3322 28.9269L26.6656 28.6174L26.6418 28.5936L35.2847 18.2363L40.0229 12.5696L40.1657 12.4029C40.1657 12.4029 22.8322 -7.26394 6.35584 10.1172Z" fill="#B6724D"/>
<path d="M24.4037 26.5692L24.0703 26.9263L23.8561 27.1644L16.356 35.0216C16.356 35.0216 14.4036 33.4026 12.8083 30.8311C10.7607 27.4978 9.33209 22.5929 13.6893 17.6643C13.9274 17.4024 14.1417 17.1643 14.3798 16.95C14.5226 16.8072 14.6893 16.6405 14.856 16.5214C21.3322 10.688 28.4275 15.6881 30.8323 17.7119C31.3561 18.1643 31.6657 18.4738 31.6657 18.4738L24.4037 26.5692Z" fill="#DCBD8A"/>
<path d="M26.6417 28.5934L26.6655 28.6172L26.3322 28.9267L26.0703 29.2363L26.0465 29.2125L10.9987 43.9983C10.9987 43.9983 -6.64434 30.8077 2.76052 14.9028C3.18909 14.1647 3.6891 13.4266 4.23672 12.6885C3.16528 18.4504 1.4986 27.7125 10.8797 36.1411C10.8797 36.1411 12.4749 33.0697 13.4273 31.6411C14.8797 29.4506 16.5464 27.4505 18.3321 25.6172C20.7369 23.1648 23.3322 20.9743 25.9274 18.9504C28.9275 16.6171 32.237 20.0933 35.2847 18.2362L26.6417 28.5934Z" fill="#945339"/>
<path d="M18.3321 25.6172C13.8558 32.3077 10.832 39.7126 10.832 39.7126C0.546163 30.522 0.736642 21.1648 2.76047 14.9028C3.18905 14.1647 3.68905 13.4266 4.23668 12.6885C3.16524 18.4504 1.49855 27.7125 10.8796 36.1411C10.8796 36.1411 12.4749 33.0697 13.4273 31.6411C14.8797 29.4268 16.5463 27.4505 18.3321 25.6172Z" fill="#AD6946"/>
<path d="M25.4513 18.1651C17.5465 22.5699 14.1893 27.7366 12.8083 30.8319C10.7607 27.4985 9.33209 22.5937 13.6893 17.6651C13.9274 17.4032 14.1417 17.1651 14.3798 16.9508C14.5226 16.8079 14.6893 16.6413 14.856 16.5222C20.2608 14.6889 25.4513 18.1651 25.4513 18.1651Z" fill="#ECD09C"/>
<path d="M40.1651 12.4029L40.0223 12.5696L38.6413 12.9029C38.6413 12.9029 34.6174 8.45052 29.0459 6.11716C23.4745 3.7838 15.7839 4.14095 10.4505 8.23623C5.09331 12.3315 -0.287705 21.0935 1.75994 28.6888C3.6171 35.6651 9.11716 42.1652 10.0219 43.189C6.21237 39.9032 -6.52587 27.1888 4.25996 12.6887C4.78378 11.9744 5.40283 11.2363 6.0457 10.4982C6.16475 10.3791 6.25999 10.2601 6.37903 10.141C6.37903 10.141 6.37903 10.141 6.40284 10.1172C22.8316 -7.26394 40.1651 12.4029 40.1651 12.4029Z" fill="#D59A77"/>
<path d="M30.8085 17.6884L29.8085 18.736C22.7846 13.4502 17.5941 14.7598 14.3798 16.9265C20.9751 10.4264 28.3799 15.6169 30.8085 17.6884Z" fill="#C59F6D"/>
<path d="M83.5471 16.1882L89.5709 22.1168L91.6424 24.1644L99.9044 31.736C99.9044 31.736 100.381 31.2836 101.023 30.5217C103.381 27.6645 108.095 20.3549 100.976 13.8072C92.3091 5.94997 83.5471 16.1882 83.5471 16.1882ZM74.6422 10.7119L74.7851 10.8786L79.8804 16.212L89.19 25.974L89.1662 25.9978L89.5233 26.3073L89.809 26.593L89.8329 26.5692L105.809 40.3313C105.809 40.3313 106.166 40.0218 106.762 39.4503C110.333 35.9265 122.238 22.4263 110.524 8.64047C109.952 7.94999 109.309 7.25951 108.595 6.59283C108.476 6.47378 108.357 6.37854 108.238 6.2595C108.238 6.2595 108.238 6.2595 108.214 6.23569C90.6662 -10.0502 74.6422 10.7119 74.6422 10.7119Z" fill="#B6724D"/>
<path d="M91.2853 23.807L91.6425 24.1403L91.8806 24.3784L99.8806 31.7357C99.8806 31.7357 101.738 29.9737 103.143 27.3309C104.976 23.8784 106.071 18.9022 101.404 14.2355C101.166 13.9974 100.904 13.7593 100.666 13.5688C100.5 13.4259 100.333 13.2831 100.166 13.164C93.333 7.78303 86.5472 13.2355 84.309 15.4022C83.809 15.8784 83.5233 16.2117 83.5233 16.2117L91.2853 23.807Z" fill="#DCBD8A"/>
<path d="M89.19 25.9741L89.1662 25.998L89.5233 26.3075L89.809 26.5932L89.8329 26.5694L105.809 40.3314C105.809 40.3314 122.571 26.0218 112.143 10.7597C111.666 10.0454 111.119 9.35492 110.524 8.64062C111.952 14.3312 114.238 23.4503 105.404 32.4742C105.404 32.4742 103.595 29.498 102.571 28.1646C100.976 26.0694 99.1901 24.1884 97.2853 22.4741C94.7377 20.1646 91.9995 18.1645 89.2852 16.3312C86.1423 14.2121 83.0709 17.8788 79.9042 16.2121L89.19 25.9741Z" fill="#945339"/>
<path d="M97.2853 22.4737C102.19 28.8548 105.69 36.0691 105.69 36.0691C115.357 26.2357 114.547 16.9022 112.143 10.7831C111.666 10.0688 111.119 9.37836 110.524 8.66406C111.952 14.3546 114.238 23.4737 105.404 32.4977C105.404 32.4977 103.595 29.5214 102.571 28.1881C100.976 26.069 99.1901 24.188 97.2853 22.4737Z" fill="#AD6946"/>
<path d="M89.6899 15.4975C97.8805 19.3785 101.547 24.3071 103.142 27.331C104.976 23.8786 106.071 18.9023 101.404 14.2356C101.166 13.9975 100.904 13.7594 100.666 13.5689C100.5 13.4261 100.333 13.2832 100.166 13.1642C94.6662 11.688 89.6899 15.4975 89.6899 15.4975Z" fill="#ECD09C"/>
<path d="M74.6422 10.7119L74.7851 10.8786L76.1898 11.1167C76.1898 11.1167 79.9042 6.40235 85.3328 3.71185C90.7376 1.02134 98.4282 0.878485 104.023 4.61662C109.619 8.35476 115.571 16.7358 114.024 24.4502C112.619 31.5455 107.547 38.3789 106.738 39.4503C110.309 35.9265 122.214 22.4263 110.5 8.64047C109.928 7.94999 109.285 7.25951 108.571 6.59283C108.452 6.47378 108.333 6.37854 108.214 6.2595C108.214 6.2595 108.214 6.2595 108.19 6.23569C90.6662 -10.0502 74.6422 10.7119 74.6422 10.7119Z" fill="#D59A77"/>
<path d="M84.3328 15.3788L85.3804 16.355C92.0471 10.6168 97.3329 11.593 100.666 13.5454C93.6662 7.49771 86.6185 13.1406 84.3328 15.3788Z" fill="#C59F6D"/>
<path d="M109.714 55.9032V55.9508C109.714 56.0698 109.714 56.1651 109.714 56.2841C109.714 56.4032 109.714 56.4984 109.714 56.6175C109.714 56.8079 109.714 56.9746 109.69 57.1651C109.69 57.2603 109.69 57.3318 109.666 57.4032C109.666 57.5698 109.643 57.7603 109.643 57.927C109.643 57.9508 109.643 57.9508 109.643 57.9746C109.619 58.1889 109.619 58.4032 109.595 58.6175C109.571 58.808 109.547 59.0222 109.524 59.2127C109.524 59.2603 109.524 59.2841 109.5 59.3318C109.476 59.5222 109.452 59.7127 109.428 59.9032C109.405 60.0937 109.381 60.2842 109.333 60.4508C109.333 60.5223 109.309 60.5937 109.285 60.6651C109.262 60.8318 109.238 60.9746 109.214 61.1413C109.214 61.1651 109.214 61.1651 109.214 61.1889C109.166 61.3794 109.143 61.5937 109.095 61.7842C109.047 61.9985 109 62.1889 108.952 62.4032C108.905 62.6175 108.857 62.808 108.809 62.9985C108.762 63.189 108.714 63.3794 108.643 63.5699C108.643 63.5937 108.643 63.6175 108.619 63.6175C108.571 63.7842 108.524 63.9747 108.476 64.1175C108.452 64.1652 108.452 64.2128 108.428 64.2604C108.381 64.4033 108.333 64.5699 108.285 64.7128C108.214 64.9033 108.166 65.0937 108.095 65.2842C107.952 65.689 107.785 66.0937 107.619 66.4985C107.571 66.6414 107.5 66.7842 107.428 66.9271C106.785 68.3557 106.024 69.7128 105.166 70.9986C105.095 71.0938 105.047 71.189 104.976 71.2843C104.904 71.3795 104.857 71.4748 104.785 71.5462C104.666 71.7129 104.547 71.8557 104.428 72.0224C104.095 72.4748 103.762 72.9034 103.404 73.3319C103.333 73.4272 103.262 73.5224 103.19 73.5938C103.095 73.7129 102.976 73.8557 102.857 73.9748C102.785 74.07 102.69 74.1653 102.619 74.2605C102.428 74.4748 102.238 74.6891 102.023 74.8796C101.928 74.9748 101.857 75.07 101.762 75.1415C101.762 75.1653 101.738 75.1653 101.714 75.1891C101.595 75.3081 101.452 75.451 101.333 75.57C101.309 75.5938 101.309 75.5939 101.285 75.6177C101.143 75.7367 101.023 75.8796 100.881 75.9986C100.714 76.1415 100.571 76.3082 100.404 76.451C100.285 76.5701 100.166 76.6653 100.047 76.7605C99.4282 77.3082 98.7853 77.8558 98.1187 78.3796C97.9758 78.4748 97.8568 78.5939 97.7139 78.6891C97.571 78.8082 97.4282 78.9034 97.2853 79.0225C97.2139 79.0701 97.1425 79.1415 97.071 79.1891C96.9282 79.2844 96.7853 79.4034 96.6425 79.4987C96.1663 79.8558 95.6663 80.1891 95.1663 80.4987C95.1424 80.5225 95.1186 80.5463 95.0948 80.5463C94.952 80.6415 94.8329 80.713 94.6901 80.8082C94.5234 80.9034 94.3567 81.0225 94.1901 81.1177C94.0472 81.1892 93.9043 81.2844 93.7853 81.3558C93.6424 81.4273 93.5234 81.5225 93.3805 81.5939C93.3091 81.6415 93.2615 81.6654 93.19 81.713C93.0234 81.8082 92.8567 81.9034 92.69 81.9987C91.8567 82.4749 85.6662 84.6892 84.809 85.1178L84.9757 85.3321C51.142 92.4274 24.975 83.1654 24.975 83.1654L24.9274 83.1892L24.9512 83.1654C24.4274 82.8796 23.9274 82.5939 23.4274 82.3082C23.1893 82.1654 22.9512 82.0225 22.7369 81.8796C22.1416 81.5225 21.5464 81.1177 20.975 80.7368C20.8559 80.6653 20.7369 80.5701 20.6416 80.4987C20.5226 80.4272 20.4035 80.332 20.3083 80.2606C19.975 80.0225 19.6178 79.7606 19.3083 79.4987C19.1892 79.4272 19.094 79.332 18.9988 79.2606C18.9988 79.2606 18.9749 79.2606 18.9749 79.2367C18.8797 79.1415 18.7607 79.0701 18.6654 78.9748C17.0464 77.6415 15.5463 76.1653 14.213 74.5462C14.1178 74.4272 14.0225 74.3319 13.9511 74.2129C13.4987 73.6415 13.0701 73.0462 12.6654 72.451C12.5939 72.3319 12.4987 72.2129 12.4273 72.0938C12.3558 71.9748 12.2606 71.8557 12.1892 71.7129C12.1177 71.5938 12.0463 71.4748 11.9749 71.3319C11.8082 71.0462 11.6415 70.7605 11.4987 70.4748C11.4511 70.3795 11.3796 70.2605 11.332 70.1652C11.2606 70.0462 11.1891 69.9033 11.1177 69.7605C11.0463 69.6176 10.9749 69.4985 10.9034 69.3557C10.832 69.2128 10.7844 69.0938 10.713 68.9509C10.5939 68.7128 10.4749 68.4509 10.3796 68.189C10.3082 68.0223 10.2368 67.8557 10.1653 67.689C10.1415 67.5938 10.0939 67.5223 10.0701 67.4509C10.0225 67.3557 9.99866 67.2366 9.95104 67.1414C9.90342 67.0223 9.8558 66.8795 9.80818 66.7366C9.64151 66.2842 9.49865 65.8557 9.35579 65.3795C9.30817 65.2604 9.28436 65.1175 9.23675 64.9985C9.18913 64.8318 9.14151 64.689 9.09389 64.5223C9.04627 64.3794 9.02246 64.2604 8.99865 64.1175C8.97484 64.0461 8.97484 63.9985 8.95103 63.9271C8.92722 63.8794 8.92722 63.808 8.90341 63.7604V63.7366C8.8796 63.5937 8.83198 63.4271 8.80817 63.2604C8.76055 63.1175 8.73674 62.9747 8.71293 62.808C8.61769 62.3556 8.54626 61.8794 8.47483 61.4032C8.45102 61.1651 8.4034 60.927 8.37959 60.6889C8.33197 60.2365 8.28435 59.7842 8.23673 59.308C8.1415 57.9746 8.11769 56.5698 8.18912 55.1174C8.23674 54.046 8.30816 52.9984 8.4034 51.9745C8.42721 51.6174 8.47483 51.2603 8.52245 50.9031C8.57007 50.4983 8.61769 50.0936 8.66531 49.7126C8.68912 49.4745 8.73674 49.2126 8.76055 48.9745C8.97484 47.3793 9.26056 45.8316 9.57008 44.3316C9.57008 44.3316 9.57008 44.3316 9.57008 44.3078C9.92723 42.6411 10.3558 41.022 10.832 39.4982C18.094 16.3075 38.3561 8.09312 55.8563 7.5693C56.3801 7.54549 58.1897 7.49787 58.5944 7.47406C77.428 6.71215 100.142 14.6408 107.571 41.6173C107.619 41.784 107.666 41.9506 107.714 42.1173C108.357 44.4983 108.857 47.0459 109.262 49.7364V49.7602C109.333 50.2126 109.381 50.6888 109.452 51.165C109.476 51.3079 109.5 51.4507 109.5 51.5936C109.5 51.6888 109.524 51.7603 109.524 51.8317C109.524 51.9269 109.547 52.0222 109.547 52.1174C109.547 52.2365 109.571 52.3555 109.595 52.4746C109.619 52.665 109.619 52.8317 109.643 53.0222C109.643 53.046 109.643 53.046 109.643 53.0698C109.643 53.0698 109.643 53.0936 109.643 53.1174V53.1412C109.666 53.3317 109.666 53.4984 109.666 53.6889C109.666 53.7365 109.666 53.8079 109.69 53.8793C109.714 54.0698 109.714 54.2365 109.714 54.427C109.714 54.4746 109.714 54.5222 109.714 54.5698C109.714 54.7841 109.738 54.9984 109.738 55.2127C109.714 55.4508 109.714 55.6651 109.714 55.9032Z" fill="#B6724D"/>
<path d="M8.66527 49.7127C8.68908 49.4746 8.7367 49.2127 8.76051 48.9746C8.80813 49.2127 8.83194 49.4508 8.87955 49.6889C10.6653 59.1176 19.0939 78.7607 58.1896 78.3559C99.0948 77.9511 107.5 57.9271 109.238 49.7841C109.262 50.0222 118.666 87.5465 61.8325 89.6417C-2.23961 91.9989 8.64146 49.9032 8.66527 49.7127Z" fill="#945339"/>
<path d="M109.214 49.7838C109.309 50.4743 109.405 51.1885 109.476 51.9028C109.5 52.1171 109.524 52.3076 109.547 52.5219C109.571 52.7124 109.571 52.879 109.595 53.0695C109.595 53.0933 109.595 53.1171 109.595 53.1409C105.857 68.5459 97.5711 86.308 58.4516 87.1413C17.1416 88.0223 11.213 66.8792 8.68917 53.8076C8.57012 53.1886 8.47488 52.5933 8.37964 51.9981C8.40345 51.6409 8.45107 51.2838 8.49869 50.9266C8.54631 50.5219 8.59393 50.1171 8.64155 49.7361C8.66536 49.4981 8.71298 49.2361 8.73679 48.998C8.7844 49.2361 8.80821 49.4742 8.85583 49.7123C10.6416 59.141 19.0702 78.7841 58.1659 78.3793C99.0949 77.9507 107.5 57.9267 109.214 49.7838Z" fill="#AD6946"/>
<path d="M107.405 41.1169C107.428 41.1645 107.333 41.1883 107.309 41.1407C96.0236 17.1404 79.0948 5.92601 44.4754 11.4975C24.3323 14.7594 15.0227 30.3787 10.8322 39.474C18.0941 16.3071 38.3563 8.0927 55.8565 7.56889C56.3565 7.54508 58.1898 7.49746 58.5946 7.47365C77.2853 6.73554 99.8331 14.569 107.405 41.1169Z" fill="#D59A77"/>
<path d="M59.8015 74.6131C70.4223 74.298 78.8232 66.9992 78.5654 58.3106C78.3076 49.6221 69.4888 42.8341 58.8681 43.1492C48.2473 43.4643 39.8464 50.7632 40.1042 59.4517C40.362 68.1402 49.1808 74.9282 59.8015 74.6131Z" fill="#AD6946"/>
<path d="M59.8491 80.3518C70.5356 80.0347 78.9898 72.7343 78.732 64.0458C78.4742 55.3572 69.6021 48.5708 58.9156 48.8878C48.2292 49.2049 39.775 56.5054 40.0328 65.1939C40.2905 73.8824 49.1626 80.6688 59.8491 80.3518Z" fill="#945339"/>
<path d="M79.4517 61.2845C79.5946 65.9512 77.5946 70.2608 74.1183 73.4275C70.6421 76.618 65.6659 78.6657 59.8325 78.8323C45.999 79.2371 39.6418 71.7846 39.3561 62.4512C39.3322 61.8798 39.3561 61.3321 39.3799 60.7845C39.6656 56.7607 41.3561 53.1178 43.9752 50.332C44.8085 49.4272 45.7609 48.6415 46.7847 47.9272C49.38 46.1653 52.4752 45.0939 55.8086 44.9748L61.9515 44.7843C65.2849 44.6891 68.4278 45.5701 71.1183 47.1653C74.9755 49.4749 77.8803 53.2844 78.9517 57.7845C79.2613 58.9274 79.4279 60.094 79.4517 61.2845Z" fill="#DCBD8A"/>
<path d="M78.9983 57.8317C77.8554 66.5937 69.6172 73.5224 59.4266 73.8319C49.9503 74.1176 41.8312 68.5461 39.4026 60.808C39.6883 56.7841 41.3788 53.1412 43.9979 50.3555C44.8312 49.4507 45.7836 48.665 46.8074 47.9507C49.4027 46.1887 52.498 45.1173 55.8313 44.9983L61.9743 44.8078C65.3076 44.7125 68.4505 45.5935 71.141 47.1888C75.022 49.5221 77.903 53.3079 78.9983 57.8317Z" fill="#ECD09C"/>
<path d="M59.0706 63.8791C58.8801 63.8791 58.7134 63.7363 58.7134 63.522L58.4515 54.6648C58.4515 54.4743 58.5944 54.3076 58.8087 54.3076C58.9992 54.3076 59.1658 54.4505 59.1658 54.6648L59.4277 63.522C59.4277 63.7125 59.2611 63.8791 59.0706 63.8791Z" fill="#43281F"/>
<path d="M71.1422 47.2124C70.547 48.7838 69.6898 50.1886 68.5231 51.3553C66.3802 53.5458 63.2612 54.9029 59.1897 55.022C54.8087 55.141 51.4991 53.8315 49.2372 51.5696C48.1896 50.5458 47.38 49.3076 46.7848 47.9267C49.3801 46.1648 52.9753 44.7362 58.5468 44.5695C65.3802 44.379 68.4755 45.5933 71.1422 47.2124Z" fill="#5C392B"/>
<path d="M68.5469 51.3558C66.404 53.5463 63.2849 54.9035 59.2135 55.0225C54.8325 55.1416 51.5229 53.832 49.261 51.5701C49.5705 50.9749 49.9753 50.4511 50.4277 49.9749C51.761 48.5463 53.642 47.6415 55.7373 47.5701L61.6421 47.4034C64.5707 47.3082 67.1898 48.9272 68.5469 51.3558Z" fill="#43281F"/>
<path d="M52.3324 47.5225C52.5943 47.4034 52.8324 47.3082 53.0705 47.213C53.3086 47.1177 53.5705 47.0225 53.8086 46.951C54.3086 46.7844 54.8086 46.6653 55.3086 46.5463C56.3325 46.3082 57.3563 46.1653 58.4039 46.0939C59.4515 46.0225 60.523 46.0463 61.5706 46.1653C62.6421 46.2844 63.6897 46.5463 64.6897 46.9749C65.1659 47.1891 65.404 47.7368 65.1897 48.213C65.0468 48.5701 64.6897 48.7844 64.3325 48.7844H64.2849C63.3325 48.8082 62.3801 48.7844 61.4516 48.8082C60.4992 48.8558 59.5468 48.8796 58.5944 48.9511L55.7134 49.1654L54.261 49.2606C54.0229 49.2844 53.761 49.2844 53.5229 49.3082C53.2848 49.3082 53.0229 49.332 52.7848 49.332H52.7372C52.2134 49.332 51.7848 48.9034 51.7848 48.3796C51.7848 47.9987 52.0229 47.6653 52.3324 47.5225Z" fill="white"/>
<path d="M58.428 63.5221C56.3327 63.4983 54.3803 62.9983 52.666 62.1411C52.8803 62.5697 53.3803 63.5935 53.8565 65.0459C54.0708 65.7126 54.3089 66.3555 54.547 66.9507C55.4041 69.046 56.4994 70.5222 59.0232 70.4269C61.4518 70.3317 62.5233 68.7126 63.2614 66.4745C63.4519 65.9031 63.6185 65.3078 63.7614 64.6888C64.0709 63.4983 64.3804 62.5935 64.5947 62.0459C62.809 62.9983 60.6899 63.5459 58.428 63.5221Z" fill="#43281F"/>
<path d="M58.5945 64.0221C55.4278 64.0221 52.4516 62.9506 50.142 60.9744C49.9992 60.8554 49.9754 60.6173 50.0944 60.4744C50.2135 60.3316 50.4516 60.3078 50.5944 60.4268C52.8563 62.3792 55.8326 63.3792 58.9755 63.3078C61.1898 63.2364 63.3088 62.6173 65.1184 61.5221C65.2851 61.4268 65.4993 61.4744 65.6184 61.6411C65.7374 61.8078 65.666 62.0221 65.4993 62.1411C63.5708 63.3078 61.3326 63.9745 58.9993 64.0459C58.8802 64.0221 58.7374 64.0221 58.5945 64.0221Z" fill="#43281F"/>
<path d="M63.2611 66.4746C62.523 68.7365 61.4754 70.3318 59.023 70.427C56.4992 70.5222 55.4039 69.0699 54.5468 66.9508C54.7849 66.7603 55.1182 66.5698 55.4991 66.3555C55.6658 66.2603 55.8325 66.1889 56.023 66.0936C57.2849 65.546 59.0706 65.1412 61.2373 65.6889C61.5468 65.7603 61.8802 65.8793 62.2135 65.9984C62.5706 66.1413 62.9278 66.2841 63.2611 66.4746Z" fill="#C45D69"/>
<path d="M62.2374 66.0218C62.1898 67.7361 60.7136 69.1409 58.8564 69.1409C57.1421 69.1409 55.7136 67.9266 55.4993 66.379C55.6659 66.2837 55.8326 66.2123 56.0231 66.1171C57.285 65.5694 59.0707 65.1647 61.2374 65.7123C61.5708 65.7837 61.9041 65.9028 62.2374 66.0218Z" fill="#D67679"/>
<path d="M34.6657 48.7129C34.3561 48.7129 34.0942 48.4748 34.0704 48.1653C33.8323 45.07 35.6895 42.189 38.6181 41.1414C41.5467 40.0938 44.8086 41.1414 46.5944 43.6652C46.7848 43.9271 46.7134 44.3081 46.4515 44.4986C46.1896 44.6891 45.8086 44.6176 45.6182 44.3557C44.1419 42.2605 41.4514 41.4033 39.0228 42.2605C36.6181 43.1176 35.0704 45.5224 35.2609 48.07C35.2847 48.4034 35.0466 48.6891 34.7133 48.7129C34.6895 48.7129 34.6895 48.7129 34.6657 48.7129Z" fill="#43281F"/>
<path d="M48.7135 62.0931C48.5707 62.0931 48.4516 62.0217 48.3802 61.8788C48.3088 61.6883 48.3802 61.4978 48.5707 61.4026C50.5469 60.5931 50.5945 58.8312 50.5945 58.8073C50.5945 58.6169 50.7612 58.4502 50.9517 58.4502C51.1421 58.4502 51.3088 58.6169 51.3088 58.8073C51.3088 58.9026 51.2612 61.0455 48.8326 62.0455C48.8088 62.0693 48.7612 62.0931 48.7135 62.0931Z" fill="#43281F"/>
<path d="M72.8789 46.0454C74.7122 48.0931 77.8551 48.2836 79.9028 46.474C81.7361 44.855 82.0933 42.2121 80.879 40.1882C80.7361 39.9263 80.5456 39.6882 80.3314 39.4501C78.498 37.4025 75.3551 37.1882 73.3075 39.0216C71.9027 40.2597 71.3551 42.1406 71.7598 43.8549C71.9265 44.6407 72.2836 45.4026 72.8789 46.0454Z" fill="#333132"/>
<path d="M72.2374 44.4749C73.9994 46.5939 77.1423 46.8797 79.2613 45.1177C80.7137 43.9034 81.309 42.0701 80.9518 40.332C80.809 40.0701 80.6185 39.8081 80.428 39.57C78.6661 37.451 75.5232 37.1653 73.4041 38.9272C71.9517 40.1415 71.3565 41.9748 71.7136 43.713C71.8565 43.9749 72.0232 44.2368 72.2374 44.4749Z" fill="#272425"/>
<path d="M75.8802 42.9983C76.9191 42.9983 77.7612 42.1561 77.7612 41.1173C77.7612 40.0785 76.9191 39.2363 75.8802 39.2363C74.8414 39.2363 73.9993 40.0785 73.9993 41.1173C73.9993 42.1561 74.8414 42.9983 75.8802 42.9983Z" fill="white"/>
<path d="M105.786 96.9749C105.667 101.046 104.881 104.332 103.714 106.999C99.2379 117.237 85.7377 115.523 85.7377 115.523L82.071 105.046L70.2375 82.9272C70.928 80.7605 71.7376 78.9033 73.2614 77.4509C75.0709 75.7128 77.9043 74.5937 82.7139 74.2842C83.5948 74.2366 84.7377 74.2366 86.0472 74.3318C93.4759 74.9271 106.309 79.07 105.786 96.9749Z" fill="#AD6946"/>
<path d="M105.785 96.9745C105.666 101.046 104.881 104.332 103.714 106.998C99.2378 117.237 86.6662 116.308 86.6662 116.308L82.0709 105.046L97.1187 100.951L100.571 97.3793C100.571 97.3793 101.143 95.0697 101 93.0221C100.833 90.4983 99.8092 79.5458 86.0233 74.3076C93.4758 74.9267 106.309 79.0696 105.785 96.9745Z" fill="#945339"/>
<path d="M57.3803 168.428C54.3802 170.642 48.6659 171.69 37.4039 171.571C33.1657 171.523 29.7133 171.285 26.8561 170.904C15.6417 169.333 14.2369 165.214 14.3322 160.357C14.4274 154.737 20.1894 148.785 23.6894 145.714C25.3323 144.261 26.4514 142.309 26.8799 140.166C28.9514 129.951 33.3086 121.332 34.8086 118.594C35.1419 117.999 35.3086 117.689 35.3086 117.689L35.6419 117.951L36.3562 118.475L39.9039 121.142L39.0944 128.285C39.0944 128.285 35.4276 134.142 35.9277 141.904C36.0467 143.737 37.2848 145.333 39.0229 145.904C41.7849 146.833 46.142 148.714 49.0468 151.999C49.3088 152.285 49.0468 152.737 48.6659 152.666C44.9992 152.023 33.5467 150.856 32.7848 161.714C32.0467 172.428 49.3564 170.642 57.3803 168.428Z" fill="#AD6946"/>
<path d="M16.6417 160.999C16.737 167.19 22.4275 169.499 26.8561 170.904C15.6417 169.333 14.2369 165.214 14.3322 160.356C14.4274 154.737 20.1894 148.785 23.6894 145.713C25.3323 144.261 26.4514 142.309 26.8799 140.166C28.9514 129.951 33.3086 121.332 34.8086 118.594L35.6657 117.927L36.261 117.451L36.3562 118.451V119.023C36.3562 119.023 30.8324 127.237 28.7133 140.499C28.4038 142.475 27.9276 144.975 26.4037 146.285C22.9275 149.237 16.5227 154.713 16.6417 160.999Z" fill="#D59A77"/>
<path d="M37.5943 140.856C33.4038 143.523 26.8561 140.594 24.5466 139.118C24.4989 139.07 24.4513 139.047 24.4037 139.023C18.0941 134.832 11.8798 127.999 12.5464 111.761C13.1417 97.6177 22.8323 88.2842 26.8085 85.0461C27.8323 84.2128 28.4752 83.7842 28.4752 83.7842L30.7847 85.7842L33.5229 125.094C33.5229 125.07 41.9039 138.142 37.5943 140.856Z" fill="#945339"/>
<path d="M113 161.261C113 162.047 112.928 162.832 112.809 163.57C112.69 164.237 112.5 164.88 112.262 165.475C111.143 165.928 110.024 166.332 108.905 166.69C108.643 166.761 108.405 166.856 108.143 166.928C94.1663 171.166 81.5471 168.071 75.6899 166.07C73.5946 165.356 72.547 163.047 73.3089 160.975C73.4994 160.451 73.7375 159.904 73.9518 159.404C73.9518 159.38 73.9756 159.356 73.9994 159.332C77.4042 151.856 84.2614 145.856 92.571 144.475C98.2377 143.546 102.404 143.856 105.381 144.594C105.547 144.856 105.714 145.094 105.881 145.332C110.476 151.713 113 157.475 113 161.261Z" fill="#AD6946"/>
<path d="M113 161.261C113 162.047 112.928 162.832 112.809 163.57L108.881 166.69L107.738 167.594C107.881 167.38 108 167.142 108.119 166.928C112.833 158.047 103.119 151.047 91.3092 152.427C79.19 153.832 73.7614 159.809 73.7614 159.809C73.809 159.666 73.8804 159.547 73.928 159.404C73.928 159.38 73.9518 159.356 73.9756 159.332C77.3804 151.856 84.2377 145.856 92.5473 144.475C98.214 143.546 102.381 143.856 105.357 144.594C105.524 144.856 105.69 145.094 105.857 145.332C110.476 151.713 113 157.475 113 161.261Z" fill="#B6724D"/>
<path d="M113 161.261C113 162.785 112.786 164.237 112.238 165.499C111.595 167.047 110.452 168.285 108.69 168.928C107.285 169.428 105.476 169.928 103.166 170.356C108.666 167.666 110.381 163.832 109.738 158.451C109 152.38 106.381 151.332 101.143 140.094C98.333 134.07 97.9044 124.88 97.9044 124.88L97.9282 124.832C99.4282 131.046 101.904 139.356 105.357 144.594C105.524 144.856 105.69 145.094 105.857 145.332C110.476 151.713 113 157.475 113 161.261Z" fill="#B6724D"/>
<path d="M24.5466 139.118C24.4989 139.07 24.4513 139.046 24.4037 139.023C18.0941 134.832 11.8798 127.999 12.5464 111.76C13.1417 97.6175 22.8323 88.284 26.8085 85.0459C25.2847 86.7126 15.7846 97.427 14.5465 108.308C13.1417 120.356 15.2846 130.523 24.5466 139.118Z" fill="#AD6946"/>
<path d="M105.762 96.1412C104.69 84.3315 99.5474 79.4743 92.4759 76.6409C87.8806 74.8076 81.571 74.1409 77.1424 76.1171C72.0947 78.3791 68.7614 83.8077 70.7376 91.6887C73.4995 102.641 81.3329 105.594 83.952 106.284C80.6186 105.451 77.3567 103.594 74.6186 100.76C70.9042 96.9269 69.1661 92.0459 69.1899 87.6649C69.2137 83.5696 70.428 74.2838 82.9758 74.1171C88.7616 74.0695 105.905 75.8552 105.762 96.1412Z" fill="#D59A77"/>
<path d="M101.024 93.0459C101.024 93.0459 100.857 104.713 89.5711 106.665C89.5473 106.665 89.5473 106.713 89.5711 106.713C91.9521 106.498 101.357 105.022 101.024 93.0459Z" fill="#AD6946"/>
<path d="M73.4518 105.737L47.4753 111.785L30.0227 96.737L21.3083 96.237L32.8085 145.571L101.857 129.475L90.3567 80.1416L82.7614 84.4512L73.4518 105.737Z" fill="#E7EBF2"/>
<path d="M32.8085 145.571L101.857 129.475L73.4994 105.88L47.5229 111.928L32.8085 145.571Z" fill="#F4F6FB"/>
<path d="M22.2131 100.118L63.2374 120.713L91.2853 84.0225C91.2853 84.0225 92.0948 89.7606 91.2853 90.9511C90.4758 92.1416 69.3327 123.951 69.3327 123.951C69.3327 123.951 67.7612 126.38 65.6898 126.523C63.6183 126.666 25.6656 104.642 25.6656 104.642L22.2131 100.118Z" fill="#C1CAD1"/>
<path d="M68.2612 120.975L90.19 89.6179L91.2615 84.0226L90.3567 80.1416L21.3083 96.237L22.2131 100.118L25.6417 104.642L59.1897 123.094C62.3088 124.809 66.2136 123.904 68.2612 120.975Z" fill="white"/>
<path d="M41.0706 143.785C38.1896 144.261 32.7848 145.571 32.7848 145.571L31.6657 140.809C31.6657 140.809 29.1419 134.166 27.1418 131.19L29.8562 115.07L39.8563 121.142C39.8801 121.142 45.9754 142.69 41.0706 143.785Z" fill="#CED1D6"/>
<path d="M97.6663 111.26C91.1186 115.165 84.2138 113.308 79.4757 108.594C78.9757 108.094 78.3328 107.784 77.809 107.332C75.1899 105.141 73.7137 100.57 73.047 97.903C72.7137 96.5935 76.928 88.0219 80.8328 79.498C85.69 82.6171 89.8091 86.8076 92.8568 91.7363C95.6425 96.2363 95.1187 97.9744 95.8568 103.451C95.8568 103.451 97.2139 108.998 97.6663 111.26Z" fill="#C1CAD1"/>
<path d="M25.0698 110.975C24.3555 110.928 23.6412 110.928 22.9269 110.975C20.7364 111.118 18.6173 111.785 16.7601 112.975C10.3315 117.07 14.4744 129.571 20.0459 135.237C26.0936 141.404 34.927 144.214 39.0223 139.856C39.0461 139.833 39.0461 139.809 39.0699 139.809C39.2604 139.595 39.4271 139.38 39.6175 139.166C43.189 134.428 43.8795 124.166 37.2842 117.166C34.3556 114.047 30.7841 112.07 27.165 111.309C26.4507 111.142 25.7602 111.047 25.0698 110.975Z" fill="#B6724D"/>
<path d="M25.0704 110.975C22.118 110.76 19.2132 111.379 16.737 112.951C10.3083 117.046 14.4512 129.546 20.0227 135.213C26.0704 141.38 34.9038 144.189 38.9991 139.832C39.0229 139.808 39.0229 139.785 39.0467 139.785C39.2372 139.57 39.4039 139.356 39.5943 139.142C38.0943 139.451 35.4276 139.07 30.8562 136.332C22.9513 131.594 20.6418 114.689 27.1418 111.284C26.4513 111.141 25.7609 111.046 25.0704 110.975Z" fill="#AD6946"/>
<path d="M25.0704 110.975C22.118 110.76 19.2132 111.379 16.737 112.951C10.3083 117.046 14.4512 129.546 20.0227 135.213C26.0704 141.38 34.9038 144.189 38.9991 139.832C39.0229 139.808 39.0229 139.785 39.0467 139.785C36.1181 142.594 22.5942 141.594 18.737 125.57C16.0465 114.213 20.4037 110.737 25.0704 110.975Z" fill="#945339"/>
<path d="M25.0704 110.975C24.3561 110.928 23.6418 110.928 22.9275 110.975C27.7133 111.237 33.8324 113.166 38.4753 121.38C43.523 130.309 39.6181 139.142 39.6181 139.142C43.1896 134.404 43.8801 124.142 37.2848 117.142C34.3562 114.023 30.7847 112.047 27.1656 111.285C26.4513 111.142 25.7609 111.047 25.0704 110.975Z" fill="#D59A77"/>
<path d="M105.786 96.1415C105.786 96.4272 105.786 96.6891 105.762 96.9749C105.643 101.046 104.857 104.332 103.69 106.999C105.19 102.165 104.857 91.7367 99.7616 85.1176C94.8568 78.7604 86.3091 78.1889 81.9995 83.0699C73.7137 92.4034 84.9043 106.451 84.8567 106.475C81.2376 105.784 77.6423 103.832 74.6661 100.761C70.9518 96.9272 69.4756 92.0938 69.4756 87.7128C69.4756 84.1652 70.4518 80.9271 72.0232 78.7842C72.0709 78.7366 72.1185 78.6651 72.1661 78.6175C72.2137 78.5699 72.2613 78.4985 72.2851 78.4508C72.3328 78.4032 72.3804 78.3318 72.428 78.2842C72.4756 78.2366 72.5232 78.1889 72.5709 78.1175C72.5947 78.0937 72.6185 78.0699 72.6185 78.0461C73.7137 76.808 75.1185 75.8794 76.69 75.2603C77.19 75.0699 77.7138 74.8794 78.2614 74.7365C78.7852 74.5937 79.309 74.4746 79.8567 74.3794C80.8805 74.2127 81.9519 74.1175 83.071 74.0937C88.7853 74.046 105.952 75.8556 105.786 96.1415Z" fill="#B6724D"/>
<path d="M77.809 107.332L80.2137 103.618L82.0709 105.071L79.4756 108.594L77.809 107.332Z" fill="#A3ACB2"/>
<path d="M71.2375 90.8797L77.1424 101.189L86.3329 106.38L95.6188 103.475L98.4521 99.475L100.428 95.6893C100.428 95.6893 99.714 90.6654 99.4759 90.4273C99.2378 90.1892 95.5473 82.0224 95.5473 82.0224C95.5473 82.0224 88.0711 78.7129 87.833 78.7129C87.5949 78.7129 79.8805 80.2843 79.8805 80.2843L71.2375 90.8797Z" fill="#AD6946"/>
<path d="M100.857 95.1887C100.524 100.546 97.4521 103.213 95.2378 104.665C95.0949 104.76 94.9521 104.832 94.833 104.927C94.833 104.927 94.833 104.927 94.8092 104.951C94.6902 105.022 94.5711 105.094 94.4521 105.141C94.4044 105.165 94.3568 105.189 94.3092 105.213C94.214 105.26 94.1187 105.308 94.0235 105.356L93.9282 105.403C93.7854 105.475 93.6663 105.522 93.5235 105.594C93.3806 105.665 93.2378 105.713 93.0711 105.784C93.0711 105.784 93.0473 105.784 93.0473 105.808C92.9044 105.856 92.7616 105.927 92.6187 105.975C92.4758 106.022 92.3092 106.094 92.1663 106.141C92.0235 106.189 91.8806 106.236 91.7377 106.284C91.7139 106.284 91.6901 106.308 91.6663 106.308C91.5473 106.332 91.4282 106.379 91.3092 106.403C90.9758 106.498 90.6425 106.57 90.2853 106.617C90.1187 106.641 89.9758 106.665 89.8091 106.689C89.6663 106.713 89.5472 106.736 89.4044 106.736C89.3568 106.736 89.2853 106.76 89.2377 106.76C89.1187 106.784 88.9996 106.784 88.8806 106.784C88.7139 106.784 88.571 106.808 88.4044 106.808C88.3567 106.808 88.3091 106.808 88.2615 106.808C88.1187 106.808 87.9758 106.808 87.8567 106.808C87.5472 106.808 87.2377 106.808 86.9044 106.784C86.2139 106.736 85.5234 106.665 84.8329 106.522H84.8091C84.5472 106.475 84.2615 106.403 83.9996 106.332H83.9757C80.6424 105.498 77.3804 103.641 74.6423 100.808C70.928 96.9745 69.4518 92.1411 69.4518 87.7601C69.4518 84.2124 70.428 80.9743 71.9994 78.8314C74.0947 76.5219 76.6661 75.1171 79.7376 74.498C79.1186 74.8552 78.4995 75.3552 77.8804 75.9266C77.6423 76.1409 77.4042 76.4028 77.19 76.6409C76.5471 77.3552 75.9518 78.1648 75.4518 79.0933C73.928 81.8791 72.6661 88.8792 76.7852 94.7602C84.5472 105.903 97.1426 103.379 100.857 95.1887Z" fill="#945339"/>
<path d="M57.7373 101.403C58.6421 101.189 59.4517 101.26 60.1421 101.57C60.2612 101.07 60.5707 100.76 61.0231 100.665C61.3326 100.593 61.5945 100.641 61.8326 100.76C62.0707 100.903 62.2374 101.117 62.3088 101.403L63.4041 106.284C63.6422 107.308 64.1422 107.713 64.9279 107.546C65.7851 107.355 66.2851 106.855 66.4279 106.046C66.547 105.284 66.4517 104.165 66.1184 102.665C65.666 100.617 64.5469 99.2363 62.8088 98.5459C61.3088 97.9744 59.4755 97.9268 57.3088 98.4268C54.8802 98.9744 53.1183 100.022 52.0468 101.594C50.9516 103.213 50.6658 105.213 51.2135 107.641C51.7611 110.046 52.8563 111.713 54.523 112.689C56.1421 113.641 58.1659 113.832 60.5945 113.284C61.7136 113.022 62.785 112.617 63.8088 112.022C64.0946 111.832 64.3803 111.665 64.6422 111.498C64.9993 111.284 65.3089 111.165 65.547 111.094C66.047 110.975 66.3565 111.236 66.4993 111.832C66.5946 112.236 66.0946 112.76 64.9755 113.403C64.2374 113.832 63.4755 114.189 62.7136 114.475C62.0707 114.713 61.4993 114.903 61.0231 114.998C58.1897 115.641 55.7135 115.356 53.5706 114.141C51.3563 112.879 49.9277 110.856 49.2849 108.07C48.642 105.26 49.0468 102.808 50.4992 100.713C51.904 98.6649 54.023 97.3316 56.8802 96.6887C58.3326 96.3554 59.6898 96.2363 60.9041 96.3316C62.7374 96.4744 64.2612 97.0458 65.4755 98.022C66.7613 99.0459 67.5946 100.427 67.9994 102.165C68.9041 106.236 67.8803 108.594 64.8803 109.284C64.4279 109.379 63.9279 109.379 63.4041 109.236C62.8564 109.117 62.4517 108.879 62.2136 108.546C61.5707 109.57 60.6183 110.236 59.3564 110.522C58.1897 110.784 57.1421 110.522 56.1897 109.76C55.3088 109.046 54.7373 108.094 54.4754 106.903C54.1897 105.689 54.3802 104.546 54.9992 103.451C55.6183 102.355 56.5231 101.689 57.7373 101.403ZM56.8802 106.332C57.0469 107.046 57.3088 107.594 57.6897 107.998C58.1659 108.498 58.7135 108.689 59.3802 108.546C60.785 108.236 61.2612 107.165 60.8564 105.332C60.4755 103.617 59.6183 102.927 58.3088 103.213C57.5945 103.379 57.1421 103.76 56.904 104.403C56.7135 104.951 56.7135 105.594 56.8802 106.332Z" fill="#86431E"/>
<path d="M57.0469 100.713C57.9517 100.498 58.7612 100.57 59.4517 100.879C59.5708 100.379 59.8803 100.07 60.3327 99.9745C60.6422 99.9031 60.9041 99.9507 61.1422 100.07C61.3803 100.213 61.547 100.427 61.6184 100.713L62.7136 105.594C62.9517 106.617 63.4517 107.022 64.2375 106.856C65.0946 106.665 65.5946 106.165 65.7375 105.356C65.8565 104.594 65.7613 103.475 65.428 101.975C64.9756 99.9269 63.8565 98.5459 62.1184 97.8554C60.6184 97.284 58.785 97.2364 56.6183 97.7364C54.1897 98.284 52.4278 99.3316 51.3564 100.903C50.2611 102.522 49.9754 104.522 50.523 106.951C51.0707 109.356 52.1659 111.022 53.8326 111.998C55.4517 112.951 57.4755 113.141 59.9041 112.594C61.0232 112.332 62.0946 111.927 63.1184 111.332C63.4041 111.141 63.6898 110.975 63.9518 110.808C64.3089 110.594 64.6184 110.475 64.8565 110.403C65.3565 110.284 65.6661 110.546 65.8089 111.141C65.9042 111.546 65.4042 112.07 64.2851 112.713C63.547 113.141 62.7851 113.498 62.0232 113.784C61.3803 114.022 60.8089 114.213 60.3327 114.308C57.4993 114.951 55.0231 114.665 52.8802 113.451C50.6659 112.189 49.2373 110.165 48.5944 107.379C47.9516 104.57 48.3563 102.117 49.8087 100.022C51.2135 97.9745 53.3326 96.6411 56.1898 95.9983C57.6422 95.6649 58.9993 95.5459 60.2136 95.6411C62.047 95.784 63.5708 96.3554 64.7851 97.3316C66.0708 98.3554 66.9042 99.7364 67.3089 101.475C68.2137 105.546 67.1899 107.903 64.1899 108.594C63.7375 108.689 63.2375 108.689 62.7136 108.546C62.166 108.427 61.7613 108.189 61.5232 107.856C60.8803 108.879 59.9279 109.546 58.666 109.832C57.4993 110.094 56.4517 109.832 55.4993 109.07C54.6183 108.356 54.0469 107.403 53.785 106.213C53.4993 104.998 53.6897 103.855 54.3088 102.76C54.904 101.665 55.8326 100.975 57.0469 100.713ZM56.166 105.641C56.3326 106.356 56.5945 106.903 56.9755 107.308C57.4517 107.808 57.9993 107.998 58.666 107.856C60.0708 107.546 60.547 106.475 60.1422 104.641C59.7612 102.927 58.9041 102.236 57.5945 102.522C56.8802 102.689 56.4279 103.07 56.1898 103.713C55.9993 104.26 55.9993 104.903 56.166 105.641Z" fill="#FF8543"/>
</svg>
