<svg width="367" height="345" viewBox="0 0 367 345" fill="none" xmlns="http://www.w3.org/2000/svg">
<path d="M170.902 194.492L228.181 284.118C228.181 284.118 242.477 274.995 264.969 276.653C287.461 278.312 298.39 262.797 304.586 253.137C310.782 243.476 328.103 246.209 336.738 240.842C345.374 235.524 341.959 224.253 344.594 208.689C347.228 193.125 356.401 196.102 364.109 186.49C371.818 176.927 361.67 158.875 361.67 158.875C361.328 159.119 354.839 163.608 330.396 162.486C306.782 161.412 304.83 156.68 272.141 152.972C249.844 150.434 231.45 157.607 221.985 162.388C217.594 164.632 215.155 166.34 215.155 166.34L170.902 194.492Z" fill="#81C2D2"/>
<path d="M218.15 328.761C216.644 329.881 215.123 330.904 213.594 331.88C194.599 343.83 174.865 344.541 167.042 327.676C158.571 309.479 166.248 287.469 166.248 287.469C157.905 276.213 152.864 262.672 149.847 252.029C146.901 241.523 146.012 233.811 146.012 233.811L182.516 223.367L195.518 219.643C195.518 219.643 230.545 253.901 239.591 271.664C248.645 289.475 238.482 313.94 218.15 328.761Z" fill="#AB6A46"/>
<path d="M213.586 331.83C202.783 338.623 191.721 341.803 182.781 340.165C175.971 338.891 170.375 334.913 167.034 327.627C158.563 309.43 166.24 287.42 166.24 287.42C157.897 276.164 152.856 262.623 149.839 251.98C151.92 249.784 155.771 248.502 162.526 249.735C183.03 253.398 197.121 273.792 197.121 273.792C197.121 273.792 185.207 300.352 196.17 321.918C199.847 329.152 206.45 331.643 213.586 331.83Z" fill="#B4724D"/>
<path d="M218.149 328.761C216.642 329.881 215.121 330.904 213.593 331.879C243.364 303.959 229.929 276.257 211.65 258.48C193.371 240.704 166.34 243.078 166.34 243.078C166.34 243.078 174.985 232.52 182.521 223.415L195.524 219.691C195.524 219.691 230.55 253.949 239.597 271.712C248.643 289.475 238.48 313.939 218.149 328.761Z" fill="#935339"/>
<path d="M167.726 319.278C168.613 331.482 175.837 337.382 182.781 340.165C175.97 338.891 170.374 334.913 167.034 327.627C158.562 309.43 166.239 287.421 166.239 287.421C166.239 287.421 171.498 290.809 183.571 283.92C183.044 284.346 166.063 295.593 167.726 319.278Z" fill="#D39877"/>
<path d="M170.902 194.491L242.5 268.5C242.5 268.5 242.477 274.994 264.969 276.653C287.461 278.312 298.39 262.797 304.586 253.137C310.782 243.476 328.103 246.209 336.738 240.842C345.374 235.524 341.959 224.253 344.594 208.689C347.228 193.125 356.401 196.102 364.109 186.49C371.818 176.927 361.67 158.875 361.67 158.875C361.085 159.558 344.252 177.805 311.758 169.853C288.973 164.291 258.626 159.997 221.985 162.437C217.594 164.681 215.155 166.389 215.155 166.389L170.902 194.491Z" fill="#5493A0"/>
<path d="M146.117 159.997C143.97 161.802 132.359 197.809 132.359 197.809C132.359 197.809 126.211 197.712 117.429 197.175C106.939 196.541 92.6925 195.321 80.9342 192.979C58.6373 188.539 41.6585 186.246 18.6786 169.267C11.4577 163.949 6.43238 156.728 3.65137 148.873C-3.91103 127.796 4.67596 102.279 29.3147 97.4001C69.9565 89.3986 74.3476 128.04 92.5949 143.018C93.8147 144.043 96.6445 146.043 98.1082 146.873C103.817 150.288 107.817 151.898 116.697 153.655C131.968 156.631 144.019 159.753 146.117 159.997Z" fill="#935339"/>
<path d="M18.6783 169.267C26.6798 175.17 33.9007 179.269 40.9264 182.343C53.5142 187.856 65.2725 189.905 78.9336 192.588C79.6166 192.735 80.2509 192.881 80.934 192.979C92.7411 195.321 106.939 196.54 117.429 197.175C117.233 196.394 117.038 195.565 116.794 194.735C110.598 173.121 103.084 156.826 96.2051 144.921C95.6197 144.579 95.0342 144.189 94.4487 143.847C93.6193 143.311 92.8386 142.774 92.1068 142.237C86.1545 137.944 81.7634 131.406 77.3723 124.527C67.4192 108.865 57.5149 91.7889 29.2657 97.3509C-4.49676 104.035 -8.05841 149.556 18.6783 169.267Z" fill="#AB6A46"/>
<path d="M9.74963 108.524C7.21256 120.282 7.31014 138.09 24.5817 152.093C43.073 167.12 68.5412 169.121 83.9587 168.633C85.3248 151.263 81.812 136.09 77.4697 124.527C67.5166 108.865 57.6123 91.7889 29.3631 97.3509C20.9225 99.0585 14.3846 103.108 9.74963 108.524Z" fill="#B4724D"/>
<path d="M66.102 127.748C66.0044 127.455 65.9069 127.211 65.8093 126.918C60.3448 112.281 44.0979 104.816 29.461 110.281C19.7518 113.891 13.214 122.234 11.4576 131.748C11.3112 132.431 11.2136 133.115 11.1648 133.846C10.7257 138.042 11.2136 142.433 12.7749 146.629C18.2394 161.266 34.4863 168.731 49.1232 163.267C53.0752 161.803 56.5392 159.51 59.3203 156.68C66.6875 149.313 69.6149 138.189 66.102 127.748Z" fill="#AB6A46"/>
<path d="M28.8752 107.451C19.1661 111.061 12.6283 119.404 10.8718 128.918C10.7255 129.601 10.6279 130.284 10.5791 131.016C10.6767 134.139 11.3109 137.31 12.4331 140.384C18.2391 155.948 35.5594 163.901 51.1233 158.095C53.9531 157.07 56.4902 155.606 58.7833 153.899C66.1018 146.531 69.0291 135.359 65.5163 124.918C65.4187 124.625 65.3211 124.381 65.2235 124.088C59.8079 109.451 43.5121 101.986 28.8752 107.451Z" fill="#EACD9A"/>
<path d="M65.565 124.918C69.0778 135.359 66.1504 146.483 58.832 153.899C56.051 156.729 52.5869 158.973 48.6349 160.486C33.998 165.95 17.7023 158.485 12.2866 143.848C10.7254 139.604 10.2375 135.261 10.6766 131.065C10.7254 130.382 10.8717 129.651 10.9693 128.968C12.8721 137.847 19.166 153.85 39.9992 152.289C58.4417 150.874 65.6137 135.603 65.565 124.918Z" fill="#DABA88"/>
<path d="M12.8721 141.311C11.4572 137.896 10.7741 134.432 10.6277 130.968C10.1886 135.164 10.6765 139.555 12.2378 143.751C17.7022 158.388 33.9492 165.852 48.5861 160.388C52.2941 159.022 56.1485 156.485 58.3928 154.24C58.4416 154.192 58.3928 154.143 58.344 154.192C55.7094 156.094 52.6844 157.607 49.3667 158.632C34.6323 163.12 18.678 155.558 12.8721 141.311Z" fill="#C39E6F"/>
<path d="M40.9268 182.344C53.5145 187.857 65.2728 189.906 78.9339 192.59C79.617 192.736 80.2512 192.882 80.9343 192.98C92.7414 195.322 106.939 196.541 117.429 197.176C117.234 196.395 117.039 195.566 116.795 194.736C110.598 173.122 103.085 156.827 96.2055 144.922C95.62 144.58 95.0345 144.19 94.449 143.849C96.6934 153.948 97.8643 169.951 86.3499 178.538C75.3723 186.832 54.8318 184.93 40.9268 182.344Z" fill="#935339"/>
<path d="M206.079 243.965C214.227 260.602 228.327 265.823 228.327 265.823C228.327 265.823 226.131 282.021 240.329 299.536C254.527 317.1 286.24 314.173 302.536 300.17C306.878 296.462 310.196 292.218 312.636 287.68C317.807 278.069 318.783 267.14 316.002 256.796C314.88 252.601 313.172 248.502 310.879 244.648C300.048 226.449 282.386 224.449 270.042 225.229C269.652 225.229 269.31 225.132 268.92 225.034C266.285 224.449 263.212 223.132 260.04 221.375C248.819 215.276 236.377 204.152 236.377 204.152C236.377 204.152 198.517 228.596 206.079 243.965Z" fill="#AB6A46"/>
<path d="M236.28 300.219C252.38 321.833 286.289 314.173 302.536 300.17C306.878 296.462 310.196 292.217 312.636 287.68C304.39 297.194 290.827 306.025 276.19 302.561C253.649 297.243 257.455 269.872 257.455 269.872C238.622 273.629 228.278 265.725 228.278 265.725C228.278 265.725 224.912 284.948 236.28 300.219Z" fill="#B4724D"/>
<path d="M260.041 221.424L265.505 242.208L275.215 244.745C275.215 244.745 301.317 233.182 316.052 256.845C314.929 252.649 313.222 248.551 310.929 244.696C300.097 226.498 282.435 224.498 270.092 225.278C269.701 225.278 269.36 225.181 268.97 225.083C266.286 224.449 263.212 223.131 260.041 221.424Z" fill="#935339"/>
<path d="M257.503 269.97C260.333 268.945 263.163 267.384 265.895 265.091C272.921 259.187 275.214 251.722 275.214 244.745C275.214 235.963 271.506 228.011 268.969 225.083C256.918 222.449 236.426 204.25 236.426 204.25C236.426 204.25 229.791 208.543 222.619 214.593C219.838 216.935 217.008 219.57 214.422 222.351C216.617 237.525 225.107 266.506 257.503 269.97Z" fill="#AB6A46"/>
<path d="M214.422 222.302C216.618 237.524 225.107 266.456 257.503 269.969C242.866 275.239 228.327 265.822 228.327 265.822C228.327 265.822 214.227 260.602 206.079 243.964C202.908 237.524 207.738 229.474 214.422 222.302Z" fill="#B4724D"/>
<path d="M217.398 222.79C212.275 230.743 227.937 258.992 250.673 257.528C265.407 256.601 272.14 250.112 275.214 244.745C275.214 235.963 271.506 228.011 268.969 225.083C256.918 222.449 236.426 204.25 236.426 204.25C236.426 204.25 229.791 208.543 222.619 214.593C219.691 219.033 217.447 222.644 217.398 222.79Z" fill="#935339"/>
<path d="M218.082 234.401C214.374 237.28 203.396 244.208 197.98 246.208C196.322 246.794 194.614 247.379 192.809 247.818C172.073 253.185 146.946 244.501 134.847 229.717C133.236 227.766 131.87 225.717 130.748 223.521C128.211 218.642 126.65 212.543 125.723 206.103C124.454 197.565 124.357 188.49 124.601 180.781C124.942 170.243 126.064 162.339 126.064 162.339L154.167 163.363C160.412 181.367 174.854 218.203 192.028 229.376C199.151 234.06 213.788 235.084 218.082 234.401Z" fill="#AB6A46"/>
<path d="M154.216 163.413L183.197 164.438L187.49 164.584L199.883 165.023L236.329 212.203C236.329 212.203 228.815 226.108 218.13 234.402C209.885 235.915 199.151 234.012 192.125 229.426C174.903 218.253 160.412 181.416 154.216 163.413Z" fill="#935339"/>
<path d="M198.029 246.258C196.37 246.892 194.663 247.38 192.857 247.868C191.199 248.307 189.491 248.746 187.832 249.039C162.266 254.113 139.384 243.72 130.797 223.57C128.748 218.789 126.894 213.325 125.967 207.275C125.967 207.226 125.967 207.226 125.967 207.177C137.286 203.567 150.947 187.661 150.947 187.661C150.947 187.661 150.459 211.519 168.023 233.523C175.244 242.598 187.295 246.745 198.029 246.258Z" fill="#B4724D"/>
<path d="M183.148 164.438L186.612 163.462L187.393 164.584L203.396 187.564C203.396 187.564 203.932 201.713 193.004 201.274C182.075 200.786 156.997 187.125 156.997 187.125C156.997 187.125 152.85 188.003 150.898 187.759C150.898 187.759 137.188 203.713 125.918 207.275C124.503 198.444 124.356 188.93 124.649 180.929L183.148 164.438Z" fill="#935339"/>
<path d="M192.711 174.927C195.59 178.782 198.419 182.782 202.079 187.076C206.519 192.248 212.178 197.907 220.716 204.348C221.838 205.177 223.058 206.055 224.327 206.933C238.768 216.838 261.504 227.62 277.215 231.133C284.582 232.792 296.487 230.792 306.684 225.376C309.123 224.107 311.465 222.595 313.612 220.936C319.955 216.008 324.687 209.422 325.614 201.274C325.956 198.151 325.907 195.273 325.517 192.736C324.687 187.271 322.296 183.124 319.125 180.05C313.173 174.244 304.488 172.098 297.902 171.854C286.192 171.414 270.775 169.219 249.258 166.145C241.501 165.072 234.573 164.34 228.571 163.95C225.888 163.754 223.449 163.608 221.155 163.511C209.69 163.023 203.201 163.608 203.201 163.608C203.201 163.608 186.417 166.438 192.711 174.927Z" fill="#935339"/>
<path d="M295.511 215.422C311.758 213.08 323.077 202.981 325.419 192.735C324.59 187.27 322.199 183.123 319.028 180.049C313.075 174.244 304.391 172.097 297.804 171.853C286.094 171.463 270.677 169.218 249.161 166.144C241.403 165.071 234.475 164.339 228.474 163.949C225.839 163.754 223.351 163.607 221.058 163.559C221.058 163.559 207.543 164.925 214.666 176.439C222.18 188.441 261.992 220.252 295.511 215.422Z" fill="#AB6A46"/>
<path d="M254.332 198.979C285.362 214.933 326.541 197.613 319.027 180.049C313.075 174.243 304.39 172.096 297.804 171.852C286.094 171.462 270.677 169.218 249.16 166.144C241.403 165.07 234.475 164.339 228.474 163.948C228.474 163.948 221.838 164.778 220.423 167.071C215.837 174.78 219.057 180.829 254.332 198.979Z" fill="#B4724D"/>
<path d="M221.058 163.607C221.058 163.607 252.722 169.316 271.165 172.292C296.73 176.342 312.343 174.146 319.174 189.954C325.516 204.493 319.759 214.3 313.514 220.984C319.857 216.056 324.589 209.47 325.516 201.322C325.858 198.199 325.809 195.321 325.419 192.784C324.589 187.319 322.199 183.172 319.027 180.098C313.075 174.292 304.39 172.146 297.804 171.902C286.094 171.511 270.677 169.267 249.16 166.193C241.403 165.12 234.475 164.388 228.474 163.998C225.839 163.803 223.351 163.656 221.058 163.607Z" fill="#D39877"/>
<path d="M224.327 206.933C238.769 216.837 261.505 227.619 277.215 231.132C284.582 232.791 296.487 230.791 306.684 225.375C296.536 228.059 284.778 231.913 260.48 222.887C249.307 218.74 237.208 213.763 224.327 206.933Z" fill="#AB6A46"/>
<path d="M116.599 153.606C106.793 152.142 89.2771 148.971 75.9576 123.99C71.5177 115.696 66.0045 108.378 60.0033 103.694C41.756 89.5449 15.068 98.1807 6.57864 114.574C-0.105545 127.503 2.18757 139.945 3.60247 148.873C-3.95993 127.747 0.675091 111.744 14.7753 101.352C31.315 89.1546 51.4651 90.228 64.2968 102.621C79.5192 117.306 80.7389 134.431 97.0347 145.263C104.256 150.093 108.988 151.703 116.599 153.606Z" fill="#D39877"/>
<path d="M41.3165 145.604C43.2836 145.604 44.8782 144.009 44.8782 142.042C44.8782 140.075 43.2836 138.48 41.3165 138.48C39.3495 138.48 37.7549 140.075 37.7549 142.042C37.7549 144.009 39.3495 145.604 41.3165 145.604Z" fill="#C39E6F"/>
<path d="M32.2422 139.408C32.1446 139.408 32.047 139.408 31.9494 139.311C31.6079 139.164 31.5103 138.725 31.6567 138.384C32.9252 135.895 35.0232 133.944 37.609 132.919C40.0973 131.895 42.8783 131.748 45.4642 132.529C45.8057 132.627 46.0008 133.017 45.9033 133.358C45.8057 133.7 45.4154 133.895 45.0738 133.797C42.7807 133.114 40.3412 133.212 38.0969 134.139C35.8038 135.066 33.9498 136.822 32.8276 138.969C32.7301 139.262 32.4861 139.408 32.2422 139.408Z" fill="#C39E6F"/>
<path d="M26.1918 136.579C26.0942 136.579 25.9966 136.579 25.9478 136.53C25.6063 136.384 25.46 135.993 25.6063 135.652C27.3628 131.407 30.6317 128.138 34.8764 126.382C38.7795 124.772 43.073 124.625 47.0738 126.04C47.4153 126.187 47.6105 126.528 47.4641 126.919C47.3177 127.26 46.9762 127.455 46.5859 127.309C42.9267 126.04 38.9259 126.138 35.3643 127.65C31.4611 129.26 28.4361 132.285 26.8261 136.189C26.7285 136.433 26.4845 136.579 26.1918 136.579Z" fill="#C39E6F"/>
<path d="M20.1916 133.651C20.1428 133.651 20.0452 133.651 19.9965 133.602C19.6549 133.505 19.4598 133.114 19.5573 132.773C21.6553 126.674 26.2415 121.746 32.1939 119.258C37.7071 116.965 43.8058 116.965 49.3678 119.258C49.7094 119.404 49.8557 119.795 49.7094 120.136C49.563 120.478 49.1727 120.624 48.8312 120.478C43.6107 118.331 37.9023 118.331 32.7306 120.478C27.1197 122.82 22.8263 127.406 20.8747 133.163C20.7283 133.456 20.4843 133.651 20.1916 133.651Z" fill="#C39E6F"/>
<path d="M73.4196 35.8276C60.7342 49.6351 71.0289 63.0035 76.0542 68.1264C77.4203 69.5413 78.3961 70.3219 78.3961 70.3219L93.0818 54.3677L96.741 50.0742L107.426 37.6328C107.426 37.6328 88.8371 19.2879 73.4196 35.8276ZM58.1484 22.4104C58.1484 22.4104 58.0996 22.4592 58.1484 22.4104C57.9044 22.6544 57.7093 22.8983 57.5141 23.1423C56.2456 24.5572 55.1234 26.0209 54.1476 27.4358C33.7536 55.929 58.929 80.0798 66.3939 86.3249C67.6136 87.3495 68.3454 87.8862 68.3454 87.8862L96.9362 58.71L96.985 58.7588L97.4729 58.1733L98.1071 57.539L98.0584 57.4902L114.452 37.0961L123.429 25.9233L123.722 25.5818C123.673 25.5818 89.4226 -11.8887 58.1484 22.4104Z" fill="#B4724D"/>
<path d="M93.7165 53.587L93.0823 54.3188L92.6432 54.8067L78.3966 70.3218C78.3966 70.3218 74.5422 67.2481 71.3709 62.3203C67.2725 55.9289 64.3452 46.5125 72.5906 36.7545C73.0297 36.2666 73.4688 35.7787 73.9079 35.3396C74.2007 35.0469 74.4934 34.7542 74.7862 34.4614C87.1299 22.9471 101.084 32.3635 105.768 36.2178C106.841 37.0961 107.426 37.6327 107.426 37.6327L93.7165 53.587Z" fill="#DABA88"/>
<path d="M98.1081 57.4412L98.1569 57.49L97.5227 58.1243L97.0348 58.7098L96.986 58.661L68.3952 87.886C68.3952 87.886 33.7058 63.0033 51.3676 31.8267C52.1971 30.4118 53.1241 28.9481 54.1487 27.4844C52.2946 38.706 49.4161 56.6606 67.9073 72.6636C67.9073 72.6636 70.8835 66.6625 72.6887 63.8815C75.4209 59.588 78.5923 55.636 81.9588 52.0256C86.4962 47.1466 91.4728 42.8531 96.4493 38.8524C102.158 34.2173 108.695 40.8527 114.55 37.0959L98.1081 57.4412Z" fill="#935339"/>
<path d="M81.9098 51.9777C73.4692 65.1022 67.9072 79.5927 67.9072 79.5927C47.6107 62.1748 47.6594 44.025 51.3675 31.7788C52.1969 30.3639 53.1239 28.9002 54.1485 27.4365C52.2945 38.6581 49.4159 56.6127 67.9072 72.6158C67.9072 72.6158 70.8833 66.6146 72.6885 63.8336C75.372 59.5401 78.4945 55.5882 81.9098 51.9777Z" fill="#AB6A46"/>
<path d="M95.4242 37.2914C80.2506 46.1223 73.9567 56.2218 71.3709 62.3205C67.2725 55.929 64.3452 46.5126 72.5906 36.7547C73.0297 36.2668 73.4688 35.7789 73.9079 35.3398C74.2007 35.047 74.4934 34.7543 74.7862 34.4616C85.2271 30.7536 95.4242 37.2914 95.4242 37.2914Z" fill="#EACD9A"/>
<path d="M123.674 25.5817L123.381 25.9232L120.698 26.6062C120.698 26.6062 112.745 18.1168 101.865 13.8233C90.9847 9.52986 76.1038 10.4569 65.9068 18.6047C55.7098 26.7526 45.6103 43.8778 49.8062 58.5635C53.6606 72.0294 64.5895 84.422 66.3459 86.3736C58.8811 80.1285 33.7056 56.0264 54.0509 27.4845C55.0755 26.0696 56.1976 24.6547 57.4174 23.191C57.6125 22.947 57.8077 22.7519 58.0517 22.5079C58.0517 22.5079 58.0517 22.5079 58.1004 22.4591C89.4234 -11.8888 123.674 25.5817 123.674 25.5817Z" fill="#D39877"/>
<path d="M105.768 36.169L103.865 38.2669C90.0576 28.3138 80.0069 30.9972 73.9082 35.2907C86.4471 22.4591 100.986 32.2658 105.768 36.169Z" fill="#C39E6F"/>
<path d="M253.503 76.3724C254.088 77.9336 254.625 79.5925 255.113 81.2513C255.113 81.2513 255.113 81.2513 255.113 81.3001C255.113 81.3489 255.162 81.3977 255.162 81.4465C255.259 81.6904 255.308 81.8856 255.357 82.1296C255.357 82.1783 255.357 82.2271 255.405 82.2271C255.405 82.2759 255.405 82.3247 255.454 82.3247C255.503 82.5199 255.601 82.7638 255.649 82.959C255.747 83.2029 255.796 83.4957 255.893 83.7884C255.991 84.0811 256.04 84.3739 256.137 84.6178C256.284 85.0569 256.381 85.496 256.479 85.9839C256.576 86.3743 256.674 86.7158 256.772 87.1061C256.772 87.2037 256.82 87.2525 256.82 87.35C256.82 87.4476 256.869 87.5452 256.918 87.6428C257.016 87.9843 257.113 88.3746 257.162 88.7162C257.211 88.9113 257.259 89.1065 257.308 89.3504C257.357 89.5944 257.406 89.8871 257.503 90.1311C257.552 90.375 257.601 90.619 257.65 90.8629C257.699 91.1069 257.747 91.3508 257.796 91.5947C257.894 91.9851 257.943 92.3266 258.04 92.7169C258.138 93.1072 258.186 93.4976 258.284 93.8879C258.333 94.2294 258.43 94.5709 258.479 94.9124C258.528 95.254 258.626 95.5955 258.674 95.937C258.87 96.9128 259.016 97.9374 259.162 98.9132C259.309 99.9378 259.455 100.914 259.601 101.938C259.65 102.28 259.699 102.621 259.748 102.914C259.845 103.548 259.894 104.231 259.943 104.866C260.138 107.11 260.236 109.305 260.187 111.452C260.187 111.745 260.187 112.038 260.187 112.379C260.138 113.892 260.04 115.355 259.894 116.819C259.894 116.965 259.845 117.112 259.845 117.258C259.845 117.404 259.797 117.551 259.797 117.697C259.748 117.99 259.699 118.331 259.65 118.624C259.65 118.771 259.601 118.868 259.601 119.015C259.601 119.161 259.553 119.258 259.553 119.405L259.504 119.6C259.455 119.795 259.455 119.99 259.406 120.186C259.357 120.527 259.309 120.82 259.211 121.161C259.162 121.356 259.113 121.6 259.065 121.796C259.065 121.844 259.065 121.893 259.016 121.942C259.016 122.04 258.967 122.137 258.967 122.186C258.821 122.82 258.674 123.454 258.528 124.089C258.479 124.235 258.43 124.43 258.43 124.577C258.382 124.723 258.382 124.821 258.333 124.967C258.333 125.016 258.284 125.113 258.284 125.162C258.284 125.211 258.235 125.308 258.235 125.357C258.186 125.552 258.138 125.796 258.04 125.991C257.991 126.138 257.943 126.333 257.894 126.479C257.894 126.528 257.894 126.528 257.845 126.577C257.747 126.87 257.65 127.211 257.552 127.504C257.503 127.699 257.455 127.845 257.357 128.041C257.259 128.285 257.211 128.529 257.113 128.772C257.064 128.87 257.064 128.968 257.016 129.065C256.967 129.212 256.918 129.309 256.869 129.456C256.869 129.504 256.82 129.553 256.82 129.602C256.772 129.699 256.772 129.797 256.723 129.846C256.674 129.895 256.674 129.992 256.625 130.041C256.528 130.236 256.479 130.431 256.381 130.626C256.284 130.919 256.186 131.163 256.04 131.407C255.991 131.505 255.942 131.602 255.893 131.7C255.845 131.797 255.796 131.895 255.747 131.993C255.601 132.285 255.503 132.578 255.357 132.871C255.21 133.164 255.113 133.456 254.966 133.7C254.918 133.847 254.869 133.944 254.771 134.091C254.674 134.237 254.674 134.335 254.576 134.481C254.527 134.627 254.43 134.725 254.381 134.871C254.332 135.018 254.235 135.115 254.186 135.262C254.137 135.359 254.088 135.457 254.039 135.505C253.991 135.603 253.942 135.652 253.893 135.749C253.844 135.847 253.795 135.896 253.747 135.993C253.6 136.286 253.405 136.628 253.21 136.92C253.015 137.213 252.868 137.555 252.673 137.847C252.283 138.433 251.941 139.067 251.551 139.653C251.405 139.897 251.258 140.092 251.112 140.336C249.697 142.434 248.087 144.434 246.428 146.337C245.404 147.459 244.379 148.581 243.257 149.606C243.159 149.703 243.062 149.801 242.964 149.898C242.867 149.996 242.769 150.094 242.671 150.191C242.574 150.289 242.476 150.386 242.379 150.484C242.281 150.581 242.183 150.679 242.086 150.728C241.793 151.021 241.5 151.265 241.208 151.557C240.915 151.85 240.622 152.094 240.281 152.387C240.183 152.484 240.085 152.582 239.988 152.631C239.89 152.728 239.793 152.826 239.695 152.875C239.598 152.972 239.5 153.07 239.402 153.119C239.305 153.216 239.207 153.314 239.061 153.362L239.012 153.411C238.963 153.46 238.866 153.558 238.768 153.606C238.719 153.655 238.671 153.704 238.573 153.753C238.524 153.802 238.475 153.85 238.378 153.899C238.183 154.046 237.988 154.241 237.744 154.436C237.695 154.485 237.646 154.533 237.548 154.582C237.451 154.68 237.304 154.777 237.158 154.875C236.963 155.021 236.768 155.216 236.524 155.363C236.231 155.558 235.987 155.802 235.646 156.046C235.255 156.339 234.816 156.68 234.377 157.022C234.28 157.07 234.182 157.168 234.084 157.217C233.499 157.656 232.816 158.095 232.182 158.534C232.084 158.632 231.938 158.681 231.84 158.778C230.279 159.803 228.62 160.778 226.961 161.462C224.131 162.681 221.301 163.852 218.423 164.974C217.398 165.365 216.325 165.755 215.252 166.145C203.054 170.585 189.149 173.952 167.34 175.855C166.559 175.903 165.779 176.001 164.949 176.05C164.608 176.098 164.266 176.098 163.925 176.147C155.728 176.733 147.873 176.586 140.701 176.05C120.502 174.488 105.963 169.805 105.963 169.805C104.206 169.122 102.45 168.39 100.742 167.609C100.449 167.463 100.206 167.365 99.9128 167.219C99.864 167.17 99.7664 167.17 99.7176 167.121C99.5712 167.072 99.4737 167.024 99.3273 166.926C99.0345 166.78 98.7906 166.682 98.4979 166.536C98.2539 166.389 97.9612 166.292 97.6684 166.145C97.3269 165.95 96.9854 165.804 96.6439 165.609C96.3511 165.462 96.1072 165.316 95.8144 165.17C95.229 164.877 94.6923 164.584 94.1068 164.243C93.6189 163.95 93.0822 163.657 92.5943 163.364C92.3016 163.169 92.0088 163.023 91.7161 162.828C91.5697 162.73 91.4234 162.633 91.277 162.535C90.9843 162.34 90.6915 162.145 90.3988 161.998C90.106 161.803 89.8621 161.657 89.5694 161.462C88.2032 160.583 86.8859 159.656 85.5686 158.681C85.3247 158.485 85.0807 158.29 84.8368 158.095C84.4952 157.851 84.1537 157.558 83.861 157.314C83.5682 157.07 83.2755 156.875 83.0315 156.631L82.9827 156.583C82.69 156.387 82.4461 156.143 82.2021 155.9C82.1533 155.851 82.1533 155.851 82.1045 155.802C81.9094 155.656 81.7142 155.509 81.5678 155.314C81.1287 154.973 80.7384 154.582 80.3481 154.192C80.1529 154.046 80.0066 153.85 79.8114 153.704C79.5675 153.509 79.3723 153.265 79.1284 153.021C78.982 152.875 78.7868 152.679 78.6405 152.533C77.9086 151.801 77.1768 151.021 76.4449 150.191C76.201 149.898 75.957 149.606 75.7131 149.313C75.6643 149.215 75.5667 149.167 75.5179 149.069C75.4691 148.971 75.3716 148.923 75.3228 148.825C75.3228 148.825 75.274 148.776 75.274 148.727L75.2252 148.679C75.1276 148.581 75.03 148.484 74.9324 148.337C73.7615 146.873 72.6393 145.312 71.6147 143.702C71.0293 142.775 70.4438 141.848 69.9559 140.872C69.8095 140.58 69.6632 140.336 69.5168 140.043C69.1265 139.311 68.7362 138.53 68.3946 137.75C68.2483 137.408 68.0531 137.067 67.9067 136.676C67.7604 136.384 67.6628 136.091 67.5652 135.798C67.5164 135.701 67.4676 135.603 67.4188 135.505C67.3213 135.213 67.1749 134.871 67.0285 134.53C67.0285 134.481 66.9797 134.481 66.9797 134.432C66.8334 134.091 66.687 133.7 66.5894 133.31C66.443 132.92 66.3455 132.578 66.1991 132.188C66.1503 132.041 66.1015 131.846 66.0527 131.7C66.0039 131.456 65.9064 131.261 65.8576 131.017C65.76 130.626 65.6624 130.285 65.516 129.895C65.516 129.895 65.516 129.846 65.516 129.797C65.4185 129.504 65.3697 129.212 65.2721 128.919C65.2233 128.772 65.2233 128.626 65.1745 128.529C65.0769 128.187 64.9794 127.845 64.9306 127.455C64.833 127.114 64.7842 126.723 64.6866 126.382C64.6866 126.284 64.6378 126.235 64.6378 126.138C64.5402 125.748 64.4915 125.406 64.4427 125.016C64.3451 124.625 64.2963 124.235 64.2475 123.796C64.2475 123.747 64.2475 123.747 64.2475 123.698C64.1987 123.357 64.1499 123.015 64.1011 122.723C64.0524 122.576 64.0523 122.43 64.0523 122.235C64.0036 121.893 63.9548 121.552 63.906 121.161C63.8572 120.722 63.8084 120.332 63.7596 119.893V119.795C63.7108 119.356 63.7108 118.917 63.662 118.527C63.6132 118.088 63.6132 117.697 63.6132 117.258C63.6132 117.161 63.6132 117.063 63.6132 116.965C63.6132 116.624 63.5645 116.234 63.5645 115.892C63.5645 115.794 63.5645 115.648 63.5645 115.55C63.5645 115.453 63.5645 115.355 63.5645 115.209C63.5645 114.965 63.5645 114.672 63.5645 114.428C63.5645 114.428 63.5645 114.38 63.5645 114.331C63.5645 114.282 63.5645 114.233 63.5645 114.184C63.5645 113.843 63.5645 113.501 63.5645 113.16C63.5645 112.769 63.5645 112.379 63.5645 111.94C63.6132 110.525 63.662 109.159 63.7596 107.793C64.0524 102.524 64.6378 97.5471 65.4673 92.8633C65.516 92.5218 65.6136 92.229 65.6624 91.8875C65.8576 90.7653 66.1015 89.6432 66.3455 88.521C66.4918 87.7404 66.687 87.0085 66.8822 86.2767C67.5652 83.3005 68.3946 80.4707 69.3216 77.6897C70.7365 73.445 72.4442 69.4442 74.2982 65.6874C78.6893 56.9541 84.2025 49.6356 90.5451 43.5369C93.6189 40.5607 96.8878 37.8773 100.303 35.4866C101.181 34.8524 102.06 34.2669 102.987 33.6814C108.305 30.2173 113.964 27.3875 119.77 25.1432C120.746 24.7529 121.673 24.4114 122.649 24.0698C133.187 20.313 144.165 18.459 154.655 17.9711C155.435 17.9223 158.948 17.7272 159.924 17.6784C170.121 17.0929 180.904 17.8248 191.442 20.3618C192.564 20.6058 193.638 20.8985 194.76 21.1912C195.394 21.3376 196.028 21.5328 196.663 21.7279C197.004 21.8255 197.346 21.9231 197.736 22.0207H197.785C198.468 22.2158 199.151 22.4598 199.834 22.6549C200.176 22.7525 200.517 22.8989 200.907 22.9965C201.249 23.094 201.59 23.2404 201.981 23.338C202.322 23.4844 202.713 23.5819 203.054 23.7283C203.396 23.8747 203.737 23.9723 204.079 24.1186C204.274 24.2162 204.518 24.265 204.713 24.3626C205.006 24.4602 205.298 24.6065 205.591 24.7041C205.933 24.8505 206.274 24.9968 206.616 25.1432C206.665 25.1432 206.665 25.192 206.713 25.192C207.055 25.3384 207.396 25.4847 207.738 25.6311C208.031 25.7287 208.275 25.8751 208.567 26.0214C209.006 26.2166 209.446 26.4117 209.885 26.6557C210.129 26.7533 210.421 26.8996 210.665 27.046C210.909 27.1436 211.153 27.29 211.446 27.4363C212.373 27.8754 213.251 28.3633 214.178 28.8512C214.178 28.8512 214.178 28.8512 214.227 28.8512C214.715 29.0952 215.154 29.3879 215.642 29.6319C215.935 29.827 216.276 29.9734 216.569 30.1685C216.715 30.2661 216.91 30.3637 217.057 30.4613C217.545 30.754 218.033 31.0468 218.472 31.3395C219.447 31.925 220.374 32.5592 221.301 33.1935C222.228 33.8278 223.155 34.462 224.082 35.1451C225.449 36.1697 226.815 37.2431 228.132 38.3652C229.01 39.0971 229.84 39.8289 230.669 40.6095C230.718 40.6583 230.718 40.6583 230.767 40.7071C231.206 41.0974 231.596 41.4878 231.986 41.8781C232.426 42.2684 232.816 42.7075 233.255 43.0978C233.645 43.5369 234.084 43.9272 234.475 44.3663C234.865 44.7567 235.207 45.147 235.597 45.5861C237.061 47.1961 238.475 48.855 239.842 50.6602C240.378 51.3433 240.915 52.0751 241.452 52.807C241.647 53.0509 241.793 53.2949 241.988 53.5876C242.183 53.8315 242.33 54.1243 242.525 54.3682C243.062 55.1489 243.598 55.9783 244.135 56.7589C244.281 57.0029 244.477 57.2956 244.623 57.5396C244.964 58.0762 245.306 58.6129 245.648 59.1984C245.794 59.4424 245.94 59.7351 246.135 59.979C246.477 60.5645 246.818 61.1988 247.209 61.833C247.404 62.2234 247.648 62.6137 247.843 63.004C248.038 63.3455 248.185 63.6383 248.38 63.9798C248.429 64.0774 248.477 64.2237 248.575 64.3213C248.77 64.6628 248.916 65.0532 249.112 65.3947C249.209 65.6386 249.356 65.8826 249.453 66.1265C249.599 66.4193 249.746 66.712 249.843 66.956C249.99 67.2487 250.136 67.5414 250.283 67.883C250.429 68.2245 250.575 68.566 250.722 68.9076C250.917 69.3467 251.112 69.7858 251.307 70.2249C251.356 70.3225 251.356 70.3712 251.405 70.4688C251.6 70.8591 251.746 71.2982 251.941 71.6886C251.941 71.6886 251.941 71.7374 251.99 71.7374C252.429 73.5426 252.966 74.9575 253.503 76.3724Z" fill="#B4724D"/>
<path d="M253.503 76.372C254.089 77.9333 254.625 79.5921 255.113 81.251C255.113 81.251 255.113 81.251 255.113 81.2998C255.113 81.3486 255.162 81.3974 255.162 81.4461C255.259 81.6901 255.308 81.8852 255.357 82.1292C255.357 82.178 255.357 82.2268 255.406 82.2268C255.406 82.2756 255.406 82.3244 255.455 82.3244C255.503 82.5195 255.601 82.7635 255.65 82.9586C255.747 83.2026 255.796 83.4953 255.894 83.788C255.991 84.0808 256.04 84.3735 256.138 84.6175C256.284 85.0566 256.382 85.4957 256.479 85.9836C256.577 86.3739 256.674 86.7154 256.772 87.1057C256.772 87.2033 256.821 87.2521 256.821 87.3497C256.918 87.7888 257.065 88.2767 257.162 88.7158C257.211 88.911 257.26 89.1061 257.309 89.3501C257.357 89.594 257.455 89.8868 257.504 90.1307C257.553 90.2771 257.553 90.4722 257.601 90.6186C257.601 90.6674 257.65 90.765 257.65 90.8138C257.699 91.0577 257.748 91.3017 257.797 91.5456C257.894 91.9359 257.943 92.2775 258.04 92.6678C258.138 93.0581 258.187 93.4484 258.284 93.8387C258.431 94.5218 258.528 95.2048 258.675 95.8879C258.87 96.8637 259.016 97.8883 259.163 98.8641C259.26 99.352 259.309 99.8886 259.407 100.377C259.455 100.864 259.553 101.401 259.602 101.889C259.651 102.231 259.699 102.572 259.748 102.865C259.846 103.499 259.895 104.182 259.943 104.816C260.138 107.061 260.236 109.256 260.187 111.403C260.187 111.696 260.187 111.988 260.187 112.33C260.138 113.842 260.041 115.306 259.894 116.77C259.894 116.916 259.846 117.063 259.846 117.209C259.846 117.355 259.797 117.502 259.797 117.648C259.748 117.941 259.699 118.282 259.651 118.575C259.651 118.721 259.602 118.819 259.602 118.965C259.602 119.112 259.553 119.209 259.553 119.356C259.553 119.405 259.553 119.502 259.504 119.551C259.455 119.746 259.455 119.941 259.407 120.136C259.358 120.478 259.309 120.771 259.211 121.112C259.163 121.307 259.114 121.551 259.065 121.746C259.065 121.795 259.065 121.844 259.016 121.893C259.016 121.99 258.967 122.088 258.967 122.137C258.821 122.771 258.675 123.405 258.528 124.04C258.48 124.186 258.431 124.381 258.382 124.527C258.333 124.674 258.333 124.771 258.284 124.918C258.284 124.967 258.236 125.064 258.236 125.113C258.236 125.162 258.187 125.259 258.187 125.308C258.138 125.503 258.089 125.747 257.992 125.942C257.943 126.089 257.894 126.284 257.845 126.43C257.845 126.479 257.845 126.479 257.797 126.528C257.699 126.821 257.601 127.162 257.504 127.455C257.455 127.65 257.406 127.796 257.309 127.992C257.211 128.235 257.162 128.479 257.065 128.723C257.016 128.821 257.016 128.918 256.967 129.016C256.918 129.162 256.87 129.26 256.821 129.406C256.821 129.455 256.772 129.504 256.772 129.553C256.723 129.65 256.723 129.748 256.674 129.797C256.626 129.845 256.626 129.943 256.577 129.992C256.479 130.187 256.43 130.382 256.333 130.577C256.235 130.821 256.138 131.114 255.991 131.358C255.943 131.456 255.894 131.553 255.845 131.651C255.796 131.748 255.747 131.846 255.699 131.943C255.552 132.236 255.455 132.529 255.308 132.822C255.162 133.114 255.064 133.407 254.918 133.651C254.869 133.797 254.82 133.895 254.723 134.041C254.625 134.188 254.625 134.285 254.528 134.432C254.479 134.578 254.381 134.676 254.332 134.822C254.284 134.968 254.186 135.066 254.137 135.212C254.089 135.31 254.04 135.408 253.991 135.456C253.942 135.554 253.893 135.603 253.845 135.7C253.796 135.798 253.747 135.847 253.698 135.944C253.357 136.578 253.015 137.164 252.625 137.798C252.235 138.384 251.893 139.018 251.503 139.603C251.356 139.847 251.21 140.043 251.064 140.286C249.649 142.384 248.039 144.385 246.38 146.288C245.355 147.41 244.331 148.532 243.208 149.557C243.111 149.654 243.013 149.752 242.916 149.849C242.818 149.947 242.721 150.044 242.623 150.142C242.623 150.142 242.623 150.142 242.574 150.142C242.477 150.24 242.379 150.337 242.281 150.435C242.184 150.532 242.086 150.63 241.989 150.727C241.696 151.02 241.403 151.264 241.11 151.557C240.818 151.85 240.525 152.094 240.183 152.386C240.086 152.484 239.988 152.581 239.891 152.63C239.793 152.728 239.696 152.825 239.598 152.874C239.5 152.972 239.403 153.069 239.305 153.118C239.208 153.216 239.11 153.313 238.964 153.362C238.915 153.411 238.915 153.411 238.866 153.46C238.622 153.655 238.232 153.996 237.695 154.436C237.646 154.484 237.598 154.533 237.5 154.582C237.354 154.679 237.256 154.777 237.11 154.875C236.915 155.021 236.719 155.216 236.475 155.363C236.183 155.558 235.939 155.802 235.597 156.046C235.207 156.338 234.768 156.68 234.329 157.021C234.231 157.07 234.134 157.168 234.036 157.217C233.451 157.656 232.816 158.095 232.133 158.534C232.036 158.631 231.889 158.68 231.792 158.778C230.23 159.802 228.084 161.217 224.522 162.73C221.79 163.901 219.155 164.974 216.472 165.95C216.081 166.096 215.691 166.243 215.35 166.34C204.665 170.146 193.492 172.683 175.586 175.61C175.537 175.61 175.488 175.61 175.44 175.61C173.293 175.952 171 176.342 168.658 176.684C167.438 176.879 166.17 177.074 164.852 177.269C164.511 177.318 164.169 177.367 163.828 177.415C161.047 177.855 158.314 178.196 155.729 178.44C151.581 178.879 147.629 179.074 143.873 179.172C142.263 179.221 140.701 179.221 139.189 179.172C91.7653 178.391 77.3235 151.313 76.4453 150.191C76.2014 149.898 75.9574 149.605 75.7135 149.313C75.6647 149.215 75.5671 149.166 75.5183 149.069C75.4695 148.971 75.372 148.922 75.3232 148.825C75.3232 148.825 75.2744 148.776 75.2744 148.727C75.2256 148.678 75.2256 148.678 75.2256 148.63C76.2502 149.41 77.3235 150.142 78.3481 150.825C80.9828 152.63 83.6662 154.289 86.3496 155.802C106.89 167.414 128.699 171.024 148.898 169.365C154.314 168.926 159.632 168.097 164.803 166.926C174.22 164.828 183.1 161.608 191.052 157.607C209.983 148.093 223.741 134.188 227.742 120.332C237.402 86.6666 226.913 59.9787 214.471 42.0241C213.3 40.3652 212.178 38.804 211.007 37.2915C209.544 35.4375 208.129 33.681 206.714 32.071C203.835 28.7533 201.054 25.9235 198.566 23.6304C197.883 22.9961 197.2 22.3618 196.565 21.7764C196.907 21.8739 197.297 21.9715 197.639 22.1179H197.688C198.371 22.3131 199.054 22.557 199.737 22.7522C200.078 22.8497 200.42 22.9961 200.81 23.0937C201.152 23.1913 201.493 23.3376 201.884 23.4352C202.225 23.5816 202.615 23.6792 202.957 23.8255C203.298 23.9719 203.64 24.0695 203.982 24.2159C204.177 24.3134 204.421 24.3622 204.616 24.4598C204.909 24.5574 205.201 24.7037 205.494 24.8013C205.836 24.9477 206.177 25.0941 206.519 25.2404C206.567 25.2404 206.567 25.2892 206.616 25.2892C206.958 25.4356 207.299 25.582 207.641 25.7283C207.934 25.8259 208.177 25.9723 208.47 26.1186C208.909 26.3138 209.348 26.509 209.788 26.7529C210.031 26.8505 210.324 26.9969 210.568 27.1432C210.812 27.2408 211.056 27.3872 211.349 27.5335C212.276 27.9727 213.154 28.4606 214.081 28.9485C214.081 28.9485 214.081 28.9485 214.13 28.9485C214.618 29.1924 215.057 29.4851 215.545 29.7291C215.837 29.9242 216.179 30.0706 216.472 30.2658C216.667 30.3634 216.813 30.4609 217.008 30.5585C217.496 30.8512 217.984 31.144 218.423 31.4367C219.399 32.0222 220.326 32.6565 221.253 33.2907C222.18 33.925 223.107 34.6081 224.034 35.2423C225.4 36.2669 226.766 37.3403 228.084 38.4624C228.962 39.1943 229.791 39.9261 230.621 40.7068C230.669 40.7556 230.669 40.7556 230.718 40.8043C231.157 41.1947 231.548 41.585 231.938 41.9753C232.377 42.3656 232.767 42.8047 233.207 43.195C233.597 43.6341 234.036 44.0245 234.426 44.4636C234.817 44.8539 235.158 45.2442 235.548 45.6833C237.012 47.2934 238.427 48.9522 239.793 50.7574C240.33 51.4405 240.867 52.1723 241.403 52.9042C241.598 53.1481 241.745 53.3921 241.94 53.6848C242.135 53.9288 242.281 54.2215 242.477 54.4655C243.013 55.2461 243.55 56.0755 244.087 56.8561C244.233 57.1001 244.428 57.3928 244.575 57.6368C244.916 58.1735 245.258 58.7102 245.599 59.2956C245.745 59.5396 245.892 59.8323 246.087 60.0763C246.429 60.6617 246.77 61.296 247.16 61.9303C247.356 62.3206 247.6 62.7109 247.795 63.1012C247.99 63.4427 248.136 63.7355 248.331 64.077C248.38 64.1746 248.429 64.321 248.527 64.4185C248.722 64.7601 248.868 65.1504 249.063 65.4919C249.161 65.7359 249.307 65.9798 249.405 66.2238C249.551 66.5165 249.697 66.8092 249.795 67.0532C249.941 67.3459 250.088 67.6387 250.234 67.9802C250.381 68.3217 250.527 68.6632 250.673 69.0048C250.868 69.4439 251.064 69.883 251.259 70.3221C251.308 70.4197 251.308 70.4685 251.356 70.566C251.405 70.6636 251.454 70.81 251.503 70.9076C251.649 71.2003 251.747 71.493 251.893 71.7858C251.893 71.7858 251.893 71.8346 251.942 71.8346C252.43 73.5422 252.966 74.9571 253.503 76.372Z" fill="#AB6A46"/>
<path d="M253.503 76.3719C254.088 77.9332 254.625 79.592 255.113 81.2509C255.113 81.2509 255.113 81.2509 255.113 81.2996C255.113 81.3484 255.162 81.3972 255.162 81.446C255.259 81.69 255.308 81.8851 255.357 82.1291C255.357 82.1779 255.357 82.2266 255.406 82.2266C255.406 82.2754 255.406 82.3242 255.455 82.3242C255.503 82.5194 255.601 82.7633 255.65 82.9585C255.747 83.2024 255.796 83.4952 255.894 83.7879C255.991 84.0807 256.04 84.3734 256.138 84.6173C256.284 85.0564 256.382 85.4956 256.479 85.9835C256.577 86.3738 256.674 86.7153 256.772 87.1056C256.772 87.2032 256.821 87.252 256.821 87.3496C256.918 87.7887 257.065 88.2766 257.162 88.7157C257.211 88.9108 257.26 89.106 257.309 89.3499C257.357 89.5939 257.455 89.8866 257.504 90.1306C257.553 90.2769 257.553 90.4721 257.601 90.6185C257.601 90.6673 257.65 90.7648 257.65 90.8136C257.699 91.0576 257.748 91.3015 257.797 91.5455C257.894 91.9358 257.943 92.2773 258.04 92.6676C258.138 93.058 258.187 93.4483 258.284 93.8386C258.431 94.5216 258.528 95.2047 258.675 95.8878C258.87 96.8635 259.016 97.8881 259.163 98.8639C259.26 99.3518 259.309 99.8885 259.407 100.376C259.455 100.864 259.553 101.401 259.602 101.889C259.651 102.23 259.699 102.572 259.748 102.865C259.846 103.499 259.894 104.182 259.943 104.816C260.138 107.061 260.236 109.256 260.187 111.403C260.187 111.696 260.187 111.988 260.187 112.33C260.138 113.842 260.041 115.306 259.894 116.77C259.894 116.916 259.846 117.062 259.846 117.209C259.846 117.355 259.797 117.502 259.797 117.648C259.748 117.941 259.699 118.282 259.651 118.575C259.651 118.721 259.602 118.819 259.602 118.965C259.602 119.112 259.553 119.209 259.553 119.356C259.553 119.404 259.553 119.502 259.504 119.551C259.455 119.746 259.455 119.941 259.407 120.136C259.358 120.478 259.309 120.771 259.211 121.112C259.163 121.307 259.114 121.551 259.065 121.746C259.065 121.795 259.065 121.844 259.016 121.893C259.016 121.99 258.967 122.088 258.967 122.137C258.821 122.771 258.675 123.405 258.528 124.039C258.48 124.186 258.431 124.381 258.382 124.527C258.333 124.674 258.333 124.771 258.284 124.918C258.284 124.966 258.236 125.064 258.236 125.113C258.236 125.162 258.187 125.259 258.187 125.308C258.138 125.503 258.089 125.747 257.992 125.942C257.943 126.089 257.894 126.284 257.845 126.43C257.845 126.479 257.845 126.479 257.797 126.528C257.699 126.82 257.601 127.162 257.504 127.455C257.455 127.65 257.406 127.796 257.309 127.991C257.211 128.235 257.162 128.479 257.065 128.723C257.016 128.821 257.016 128.918 256.967 129.016C256.918 129.162 256.869 129.26 256.821 129.406C256.821 129.455 256.772 129.504 256.772 129.553C256.723 129.65 256.723 129.748 256.674 129.797C256.626 129.845 256.626 129.943 256.577 129.992C256.479 130.187 256.43 130.382 256.333 130.577C256.235 130.821 256.138 131.114 255.991 131.358C255.942 131.455 255.894 131.553 255.845 131.651C255.796 131.748 255.747 131.846 255.699 131.943C255.552 132.236 255.455 132.529 255.308 132.822C255.162 133.114 255.064 133.407 254.918 133.651C254.869 133.797 254.82 133.895 254.723 134.041C254.625 134.188 254.625 134.285 254.528 134.432C254.479 134.578 254.381 134.676 254.332 134.822C254.284 134.968 254.186 135.066 254.137 135.212C254.088 135.31 254.04 135.407 253.991 135.456C253.942 135.554 253.893 135.603 253.845 135.7C253.796 135.798 253.747 135.847 253.698 135.944C253.357 136.578 253.015 137.164 252.625 137.798C252.234 138.384 251.893 139.018 251.503 139.603C251.356 139.847 251.21 140.042 251.064 140.286C249.649 142.384 248.039 144.385 246.38 146.287C245.355 147.41 244.331 148.532 243.208 149.556C243.111 149.654 243.013 149.752 242.916 149.849C242.818 149.947 242.721 150.044 242.623 150.142C242.623 150.142 242.623 150.142 242.574 150.142C242.477 150.239 242.379 150.337 242.281 150.435C242.184 150.532 242.086 150.63 241.989 150.727C241.696 151.02 241.403 151.264 241.11 151.557C240.818 151.85 240.525 152.093 240.183 152.386C240.086 152.484 239.988 152.581 239.891 152.63C239.793 152.728 239.696 152.825 239.598 152.874C239.5 152.972 239.403 153.069 239.305 153.118C239.208 153.216 239.11 153.313 238.964 153.362C238.915 153.411 238.915 153.411 238.866 153.46C238.622 153.655 238.232 153.996 237.695 154.435C237.646 154.484 237.598 154.533 237.5 154.582C237.354 154.679 237.256 154.777 237.11 154.874C236.915 155.021 236.719 155.216 236.475 155.362C236.183 155.558 235.939 155.801 235.597 156.045C235.207 156.338 234.768 156.68 234.329 157.021C234.231 157.07 234.134 157.168 234.036 157.216C233.45 157.655 232.816 158.095 232.133 158.534C232.036 158.631 231.889 158.68 231.792 158.778C230.23 159.802 228.084 161.217 224.522 162.73C221.79 163.901 219.155 164.974 216.472 165.95C216.081 166.096 215.691 166.242 215.349 166.34C204.665 170.146 193.492 172.683 175.586 175.61C175.537 175.61 175.488 175.61 175.44 175.61C173.293 175.952 171 176.342 168.658 176.683C167.438 176.879 166.169 177.074 164.852 177.269C164.511 177.318 164.169 177.367 163.828 177.415C161.047 177.854 158.314 178.196 155.729 178.44C158.022 178.001 160.315 177.464 162.657 176.927C163.047 176.83 163.486 176.732 163.876 176.635C165.047 176.342 166.169 176.049 167.34 175.756C182.319 171.853 197.883 166.047 211.3 158.485C213.642 157.168 215.935 155.753 218.131 154.338C232.914 144.726 244.087 132.675 247.16 118.477C250.429 103.499 249.161 89.4475 246.136 77.4453C246.136 77.3965 246.136 77.3965 246.087 77.3477C246.038 77.1525 245.989 76.9086 245.941 76.7134C243.648 68.0289 240.427 60.4177 237.354 54.4165C233.109 46.1223 229.108 40.8042 228.181 39.6333C228.035 39.4869 227.986 39.3893 227.986 39.3893L227.303 38.9014L219.058 32.8027L216.081 30.6072L213.935 29.0459C214.422 29.2898 214.862 29.5826 215.349 29.8265C215.642 30.0217 215.984 30.1681 216.277 30.3632C216.472 30.4608 216.618 30.5584 216.813 30.656C217.301 30.9487 217.789 31.2414 218.228 31.5342C219.204 32.1196 220.131 32.7539 221.058 33.3882C221.985 34.0224 222.912 34.7055 223.839 35.3398C225.205 36.3644 226.571 37.4377 227.888 38.5599C228.767 39.2917 229.596 40.0236 230.426 40.8042C230.474 40.853 230.474 40.853 230.523 40.9018C230.962 41.2921 231.353 41.6824 231.743 42.0727C232.182 42.4631 232.572 42.9022 233.011 43.2925C233.402 43.7316 233.841 44.1219 234.231 44.561C234.621 44.9513 234.963 45.3416 235.353 45.7808C236.817 47.3908 238.232 49.0497 239.598 50.8549C240.135 51.5379 240.671 52.2698 241.208 53.0016C241.403 53.2456 241.55 53.4895 241.745 53.7823C241.94 54.0262 242.086 54.3189 242.281 54.5629C242.818 55.3435 243.355 56.173 243.891 56.9536C244.038 57.1975 244.233 57.4903 244.379 57.7342C244.721 58.2709 245.062 58.8076 245.404 59.3931C245.55 59.637 245.697 59.9298 245.892 60.1737C246.233 60.7592 246.575 61.3935 246.965 62.0277C247.16 62.418 247.404 62.8083 247.599 63.1987C247.795 63.5402 247.941 63.8329 248.136 64.1745C248.185 64.272 248.234 64.4184 248.331 64.516C248.526 64.8575 248.673 65.2478 248.868 65.5894C248.966 65.8333 249.112 66.0773 249.21 66.3212C249.356 66.6139 249.502 66.9067 249.6 67.1506C249.746 67.4434 249.893 67.7361 250.039 68.0776C250.185 68.4192 250.332 68.7607 250.478 69.1022C250.673 69.5413 250.868 69.9804 251.064 70.4195C251.112 70.5171 251.112 70.5659 251.161 70.6635C251.21 70.7611 251.259 70.9074 251.307 71.005C251.454 71.2978 251.551 71.5905 251.698 71.8832C251.698 71.8832 251.698 71.932 251.747 71.932C252.43 73.5421 252.966 74.957 253.503 76.3719Z" fill="#935339"/>
<path d="M153.679 17.4836C198.614 13.434 234.084 28.6564 251.893 72.1768C244.135 57.5887 227.303 24.119 180.952 20.9476C111.817 16.215 77.9574 46.3183 71.1268 91.7414C66.9797 119.112 69.0289 142.775 83.0803 156.729C114.989 188.394 159.582 176.587 175.829 175.757C172.658 176.099 164.51 177.709 160.949 178.246C130.845 182.783 108.89 175.806 108.89 175.806C63.0277 160.486 58.7342 119.21 66.2479 86.6185C74.4933 50.9533 100.108 22.3137 153.679 17.4836Z" fill="#D39877"/>
<path d="M255.112 81.251C255.21 81.5437 255.259 81.7877 255.356 82.0804C255.356 82.1292 255.356 82.178 255.405 82.178C255.405 82.2268 255.454 82.2756 255.454 82.2756C255.503 82.4707 255.6 82.7147 255.649 82.9098C255.747 83.1538 255.796 83.4465 255.893 83.7393C255.991 84.032 256.04 84.3247 256.137 84.5687C256.283 85.0078 256.381 85.4469 256.479 85.9348C256.576 86.3251 256.674 86.6666 256.771 87.057C256.771 87.1545 256.82 87.2033 256.82 87.3009C256.869 87.3985 256.869 87.4961 256.918 87.5936C257.015 87.9352 257.113 88.3255 257.162 88.667C257.21 88.8622 257.259 89.0573 257.308 89.3013C257.357 89.5452 257.406 89.838 257.503 90.0819C257.552 90.2283 257.601 90.4234 257.601 90.5698C257.601 90.6186 257.65 90.7162 257.65 90.765C257.698 91.0089 257.747 91.2529 257.796 91.448C257.894 91.8383 257.942 92.2287 258.04 92.5702C258.137 92.9605 258.186 93.3508 258.284 93.7411C258.333 94.0827 258.43 94.4242 258.479 94.7657C258.528 95.1073 258.625 95.4488 258.674 95.7903C258.869 96.7661 259.016 97.7907 259.162 98.7665C259.26 99.2544 259.308 99.7911 259.406 100.279C259.504 100.767 259.552 101.304 259.601 101.791C259.65 102.133 259.699 102.474 259.748 102.767C259.845 103.401 259.894 104.085 259.943 104.719C260.138 106.963 260.235 109.159 260.187 111.305C260.187 111.598 260.187 111.891 260.187 112.232C260.138 113.745 260.04 115.209 259.894 116.672C259.894 116.819 259.845 116.965 259.845 117.111C259.845 117.258 259.796 117.404 259.796 117.55C259.748 117.843 259.699 118.185 259.65 118.478C259.65 118.624 259.601 118.721 259.601 118.868C259.601 119.014 259.552 119.112 259.552 119.258C259.552 119.307 259.552 119.405 259.504 119.453C259.455 119.648 259.455 119.844 259.406 120.039C259.357 120.38 259.308 120.673 259.211 121.015C259.162 121.21 259.113 121.454 259.064 121.649C259.064 121.698 259.064 121.746 259.016 121.795C259.016 121.893 258.967 121.99 258.967 122.039C258.869 122.381 258.821 122.722 258.723 123.064C258.625 123.552 258.479 123.991 258.381 124.479C258.333 124.625 258.333 124.723 258.284 124.869C258.284 124.918 258.235 125.015 258.235 125.064C258.235 125.113 258.186 125.21 258.186 125.259C258.137 125.454 258.089 125.698 257.991 125.894C257.942 126.04 257.894 126.235 257.845 126.381C257.845 126.43 257.845 126.43 257.796 126.479C257.698 126.772 257.601 127.064 257.503 127.406C257.454 127.601 257.406 127.748 257.308 127.943C257.21 128.187 257.162 128.431 257.064 128.675C257.015 128.772 257.015 128.87 256.966 128.967C256.918 129.114 256.869 129.211 256.82 129.358C256.82 129.406 256.771 129.455 256.771 129.504C256.723 129.602 256.723 129.699 256.674 129.748C256.625 129.797 256.625 129.894 256.576 129.943C256.479 130.138 256.43 130.333 256.332 130.529C256.235 130.821 256.137 131.065 255.991 131.309C255.942 131.407 255.893 131.504 255.844 131.602C255.796 131.7 255.747 131.797 255.698 131.895C255.552 132.187 255.454 132.48 255.308 132.773C255.161 133.066 255.064 133.358 254.917 133.602C254.869 133.749 254.82 133.846 254.722 133.993C254.625 134.139 254.576 134.237 254.527 134.383C254.478 134.529 254.381 134.627 254.332 134.773C254.283 134.92 254.185 135.017 254.137 135.164C254.088 135.261 254.039 135.359 253.99 135.408C253.942 135.505 253.893 135.554 253.844 135.651C253.795 135.749 253.746 135.847 253.698 135.895C253.551 136.188 253.356 136.53 253.161 136.822C252.966 137.115 252.819 137.457 252.624 137.749C252.234 138.335 251.892 138.969 251.502 139.555C251.356 139.799 251.209 139.994 251.063 140.238C249.648 142.336 248.038 144.336 246.379 146.239C245.355 147.361 244.33 148.483 243.208 149.508C243.11 149.605 243.013 149.703 242.915 149.8C242.817 149.898 242.72 149.996 242.622 150.093L242.574 150.142C242.378 150.337 242.183 150.484 241.988 150.679C241.403 151.215 240.768 151.752 240.183 152.289C240.085 152.386 239.988 152.484 239.89 152.533C239.793 152.63 239.695 152.728 239.597 152.777C239.5 152.874 239.402 152.923 239.305 153.021C239.207 153.118 239.109 153.216 239.012 153.265L238.963 153.313C238.914 153.362 238.817 153.46 238.719 153.508C238.67 153.557 238.622 153.606 238.524 153.655C238.475 153.704 238.426 153.752 238.329 153.801C236.963 154.972 234.474 157.168 233.157 158.144C232.962 158.29 232.718 158.436 232.523 158.583C226.375 162.974 218.374 165.657 215.544 166.487C214.861 166.682 214.471 166.779 214.471 166.779C214.812 166.633 215.154 166.487 215.495 166.34C215.837 166.194 216.227 165.999 216.569 165.852C217.203 165.56 217.837 165.218 218.471 164.876C222.131 162.925 226.083 160.388 230.035 157.46C241.159 149.069 252.185 137.31 255.893 125.796C258.723 117.014 258.967 107.5 258.284 99.2544C258.04 96.4246 257.698 93.7899 257.308 91.3504C256.674 87.5936 255.942 84.3735 255.356 82.0316C255.308 81.7389 255.21 81.4949 255.161 81.251C255.113 81.3486 255.112 81.2998 255.112 81.251Z" fill="#AB6A46"/>
<path d="M260.187 16.5573C259.065 15.24 257.797 13.9226 256.431 12.6053C256.187 12.4102 255.992 12.1662 255.748 11.9711C255.748 11.9711 255.748 11.9711 255.699 11.9223C251.747 8.31183 247.795 5.67719 243.989 3.82318C237.939 0.895804 232.182 -0.0799891 226.767 0.212749C211.203 1.04217 198.81 12.3614 193.541 18.0698L193.492 18.1186C193.004 18.6065 192.614 19.0944 192.272 19.4847C191.882 19.9726 191.54 20.3629 191.296 20.6556C190.955 21.0947 190.76 21.3387 190.76 21.3387L191.053 21.6314C191.053 21.6314 191.101 21.8266 191.248 22.2169C191.98 24.5588 195.639 34.4143 203.25 36.0732C213.74 38.2687 219.155 44.221 221.058 45.9287C225.352 49.7343 229.304 58.0285 231.158 62.7123C231.792 64.3224 232.231 64.8591 232.231 64.8591C233.353 67.0546 234.622 68.8598 235.939 70.4211C239.208 74.0803 242.965 75.9831 245.99 77.0077C246.185 77.0565 246.331 77.1053 246.526 77.1541C249.551 78.0811 251.698 78.0811 251.698 78.0811C251.698 78.0811 252.381 77.4956 253.455 76.3734L253.503 76.3246C253.601 76.2271 253.698 76.1295 253.796 76.0319C253.942 75.8855 254.138 75.6904 254.284 75.4952C254.333 75.4464 254.333 75.4464 254.382 75.3976C254.674 75.0561 255.016 74.7146 255.357 74.3243C263.7 65.2494 281.362 40.9033 260.187 16.5573Z" fill="#B4724D"/>
<path d="M255.406 74.3233C255.064 74.7136 254.723 75.0551 254.381 75.3967C254.333 75.4454 254.333 75.4454 254.284 75.4942C254.089 75.6894 253.942 75.8358 253.796 76.0309C253.698 76.1285 253.601 76.2261 253.503 76.3237L253.454 76.3724C252.381 77.4458 251.698 78.0801 251.698 78.0801C251.698 78.0801 249.551 78.0801 246.526 77.1531C246.331 77.1043 246.185 77.0555 245.99 77.0067C242.965 76.0309 239.208 74.0793 235.939 70.4201C241.989 64.8581 258.919 46.562 249.551 24.6066C239.745 1.62667 219.155 3.13915 219.155 3.13915L226.718 0.211772C232.133 -0.0809657 237.939 0.894828 243.94 3.82221C247.746 5.67622 251.698 8.31086 255.65 11.9213C255.65 11.9213 255.65 11.9213 255.699 11.9701C255.943 12.1652 256.138 12.4092 256.382 12.6043C257.748 13.9217 259.016 15.239 260.139 16.5563C281.362 40.9024 263.7 65.2484 255.406 74.3233Z" fill="#AB6A46"/>
<path d="M255.406 74.3227C255.064 74.713 254.723 75.0545 254.381 75.396C254.332 75.4448 254.332 75.4448 254.284 75.4936C254.088 75.6888 253.942 75.8351 253.796 76.0303C253.698 76.1279 253.601 76.2255 253.503 76.323C255.064 74.2251 264.725 60.8567 267.31 47.098C269.896 33.2905 260.187 18.5073 250.088 10.7009C249.209 10.0179 248.38 9.43239 247.502 8.84692C236.622 1.72362 221.741 2.16273 211.3 7.48081C204.079 11.1888 198.419 17.0436 195.59 20.2637C195.199 20.7028 194.858 21.0931 194.614 21.4347C194.077 22.1177 193.736 22.508 193.687 22.6056L191.296 22.1177H191.247L190.32 21.9226C190.32 21.9226 190.515 21.6786 190.808 21.2395C190.955 21.0443 191.15 20.8492 191.345 20.5564C191.638 20.2149 191.93 19.8246 192.321 19.3855C192.662 18.9464 193.101 18.5073 193.54 18.0194L193.589 17.9706C201.005 9.82271 220.326 -7.35126 243.794 3.48005C247.843 5.33406 251.99 8.06628 256.284 11.7743C256.284 11.7743 259.602 15.092 260.773 16.4093C281.85 40.8529 263.749 65.2478 255.406 74.3227Z" fill="#D39877"/>
<path d="M231.206 62.711C229.303 58.1247 226.424 53.5385 222.619 49.245C218.715 44.8539 214.373 41.3899 209.933 38.9504C208.665 38.2185 207.396 37.6331 206.079 37.0964C205.152 36.7061 204.176 36.3645 203.249 36.0718C203.883 35.2912 204.762 34.2178 205.786 33.0468C206.079 32.7053 206.42 32.3638 206.713 32.0223C207.689 30.9977 208.811 29.8755 210.031 28.7533C213.495 25.6308 217.886 22.5571 222.619 21.2397C222.911 21.1422 223.204 21.0934 223.497 21.0446C223.643 20.9958 223.789 20.9958 223.936 20.947C224.082 20.8982 224.229 20.8982 224.375 20.8494C224.521 20.8494 224.668 20.8006 224.814 20.8006C225.692 20.6543 226.57 20.6055 227.497 20.6055C227.644 20.6055 227.79 20.6055 227.937 20.6055C228.083 20.6055 228.229 20.6055 228.376 20.6055C228.522 20.6055 228.668 20.6055 228.815 20.6543C229.108 20.703 229.4 20.703 229.693 20.7518C229.839 20.8006 229.986 20.8006 230.181 20.8494C230.327 20.8982 230.474 20.8982 230.62 20.947C230.766 20.9958 230.962 21.0446 231.108 21.0934C231.254 21.1422 231.401 21.1909 231.498 21.1909C231.791 21.2885 232.084 21.3861 232.425 21.4837C232.864 21.6301 233.352 21.8252 233.791 22.0692C234.084 22.2155 234.426 22.3619 234.718 22.5083C234.865 22.6058 235.011 22.6546 235.157 22.7522C235.353 22.8986 235.597 22.9962 235.792 23.1425C235.938 23.2401 236.133 23.3377 236.28 23.4841C236.768 23.7768 237.207 24.1671 237.646 24.5086C238.475 25.1917 239.256 25.9235 239.939 26.6554C251.551 39.3407 237.011 56.7098 231.206 62.711Z" fill="#EACD9A"/>
<path d="M235.157 22.7522C221.545 17.9708 209.787 31.9246 206.079 37.0476C205.152 36.6572 204.176 36.3157 203.249 36.023C203.883 35.2423 204.762 34.169 205.786 32.998C206.079 32.6565 206.42 32.315 206.713 31.9734C207.689 30.9488 208.811 29.8267 210.031 28.7045C213.495 25.582 217.886 22.5082 222.619 21.1909C222.911 21.0933 223.204 21.0445 223.497 20.9957C223.643 20.947 223.789 20.947 223.936 20.8982C224.082 20.8494 224.229 20.8494 224.375 20.8006C224.521 20.8006 224.668 20.7518 224.814 20.7518C225.692 20.6054 226.57 20.5566 227.497 20.5566C227.644 20.5566 227.79 20.5566 227.937 20.5566C228.083 20.5566 228.229 20.5566 228.376 20.5566C228.522 20.5566 228.668 20.5566 228.815 20.6054C229.108 20.6542 229.4 20.6542 229.693 20.703C229.839 20.7518 229.986 20.7518 230.181 20.8006C230.327 20.8494 230.474 20.8494 230.62 20.8982C230.766 20.947 230.962 20.9957 231.108 21.0445C231.254 21.0933 231.401 21.1421 231.498 21.1421C231.791 21.2397 232.084 21.3373 232.425 21.4349C232.864 21.5812 233.352 21.7764 233.791 22.0203C234.084 22.1667 234.426 22.3131 234.718 22.4594C234.865 22.6058 235.011 22.7034 235.157 22.7522Z" fill="#C39E6F"/>
<path d="M239.988 26.704C224.619 17.7267 213.739 32.5588 209.933 38.9502C208.665 38.2184 207.396 37.6329 206.079 37.0962C209.836 31.9733 221.545 18.0195 235.158 22.8008C235.353 22.9472 235.597 23.0448 235.792 23.1912C235.938 23.2887 236.134 23.3863 236.28 23.5327C236.768 23.8254 237.207 24.2157 237.646 24.5573C238.524 25.2403 239.305 25.9722 239.988 26.704Z" fill="#DABA88"/>
<path d="M160.607 84.665C164.657 88.129 170.756 87.6411 174.22 83.5916C177.293 79.9812 177.245 74.8095 174.415 71.2966C174.025 70.8575 173.634 70.4184 173.146 70.0281C169.097 66.564 162.998 67.0519 159.534 71.1015C157.143 73.8825 156.655 77.5905 157.826 80.8106C158.412 82.2255 159.339 83.5916 160.607 84.665Z" fill="#333132"/>
<path d="M159.145 82.0313C163.194 85.4953 169.293 85.0074 172.757 80.9579C175.148 78.1769 175.636 74.4689 174.465 71.2488C174.074 70.8096 173.684 70.3705 173.196 69.9802C169.147 66.5162 163.048 67.0041 159.584 71.0536C157.193 73.8346 156.705 77.5426 157.876 80.7627C158.267 81.2018 158.657 81.641 159.145 82.0313Z" fill="#252324"/>
<path d="M164.267 77.7384C166.288 77.7384 167.926 76.1001 167.926 74.0791C167.926 72.0582 166.288 70.4199 164.267 70.4199C162.246 70.4199 160.607 72.0582 160.607 74.0791C160.607 76.1001 162.246 77.7384 164.267 77.7384Z" fill="white"/>
<path d="M97.9125 91.0083C102.938 92.7647 108.451 90.1301 110.207 85.1048C111.769 80.6649 109.866 75.8347 105.914 73.5416C105.426 73.2489 104.841 73.0049 104.304 72.8098C99.2786 71.0533 93.7654 73.688 92.0089 78.7133C90.7892 82.1774 91.6674 85.8366 93.9605 88.3737C94.9851 89.5446 96.3512 90.4716 97.9125 91.0083Z" fill="#333132"/>
<path d="M95.3264 88.9593C100.303 90.8621 105.865 88.4226 107.817 83.4461C109.134 80.0308 108.402 76.3228 106.206 73.737C105.719 73.4442 105.182 73.1515 104.596 72.9563C99.6199 71.0535 94.0578 73.493 92.1063 78.4696C90.7889 81.8848 91.5208 85.5929 93.7163 88.1787C94.253 88.4714 94.7897 88.7154 95.3264 88.9593Z" fill="#252324"/>
<path d="M98.254 82.5196C100.275 82.5196 101.913 80.8813 101.913 78.8604C101.913 76.8395 100.275 75.2012 98.254 75.2012C96.233 75.2012 94.5947 76.8395 94.5947 78.8604C94.5947 80.8813 96.233 82.5196 98.254 82.5196Z" fill="white"/>
<path d="M137.56 142.061C157.996 139.574 172.914 124.005 170.879 107.287C168.845 90.5685 150.629 79.0318 130.193 81.5186C109.756 84.0055 94.8387 99.5742 96.8731 116.292C98.9075 133.011 117.124 144.547 137.56 142.061Z" fill="#AB6A46"/>
<path d="M141.119 153.042C161.69 150.539 176.716 134.957 174.681 118.239C172.647 101.52 154.322 89.9968 133.752 92.4999C113.182 95.003 98.156 110.585 100.19 127.303C102.225 144.021 120.549 155.545 141.119 153.042Z" fill="#935339"/>
<path d="M162.899 117.159C158.02 136.138 122.452 155.069 98.5451 131.064C97.2765 128.332 96.3983 125.356 96.008 122.233C95.7153 119.94 95.7153 117.696 95.9104 115.451C96.5447 107.84 99.8624 100.912 104.937 95.5453C105.815 94.5695 106.791 93.6913 107.815 92.8618C112.157 89.2514 125.77 82.6648 141.236 83.9333C144.017 84.1773 146.896 84.6652 149.725 85.4458C151.384 85.8849 152.994 86.4704 154.653 87.1534C156.702 87.9829 158.508 89.2514 160.215 90.5687C163.24 95.2525 166.363 103.742 162.899 117.159Z" fill="#EACD9A"/>
<path d="M162.899 117.159C166.364 103.742 163.241 95.2522 160.265 90.6172C160.411 90.7148 160.606 90.8611 160.753 90.9587C166.607 95.5449 170.901 102.034 172.609 109.645C172.853 110.67 173.048 111.743 173.145 112.865C175.341 130.82 165.29 146.969 138.7 150.189C127.527 151.555 117.379 149.067 109.768 143.993C104.791 140.675 100.937 136.236 98.5459 131.113C122.502 155.068 158.021 136.138 162.899 117.159Z" fill="#DABA88"/>
<path d="M131.625 121.844C131.332 121.893 131.039 121.698 130.893 121.405C126.697 110.622 126.551 103.45 126.551 103.109C126.551 102.719 126.844 102.426 127.234 102.426C127.624 102.426 127.917 102.719 127.917 103.109C127.917 103.158 128.063 110.378 132.162 120.917C132.308 121.259 132.113 121.649 131.771 121.795C131.722 121.795 131.674 121.844 131.625 121.844Z" fill="#43281F"/>
<path d="M149.776 85.4949C149.19 88.1295 148.166 90.6666 146.702 92.8621C143.335 98.0338 137.578 101.888 129.235 103.449C125.527 104.133 122.161 104.181 119.038 103.693C135.773 98.8145 140.213 89.8372 141.237 83.9824C144.067 84.1776 146.897 84.6655 149.776 85.4949Z" fill="#43281F"/>
<path d="M141.286 83.9831C140.261 89.8378 135.821 98.8639 119.087 103.694C115.671 103.157 112.695 101.986 110.06 100.279C108.109 99.0103 106.401 97.4002 104.938 95.595C105.816 94.6192 106.792 93.741 107.816 92.9116C112.158 89.2524 125.771 82.6657 141.286 83.9831Z" fill="#5D392D"/>
<path d="M134.162 87.8374C133.674 87.7398 133.235 87.691 132.796 87.691C132.357 87.6422 131.918 87.6422 131.478 87.5935C130.6 87.5447 129.673 87.5935 128.795 87.6422C127.039 87.7398 125.233 87.9838 123.477 88.3741C121.721 88.7644 119.964 89.3011 118.305 89.9841C116.646 90.716 114.988 91.5942 113.524 92.7652C112.841 93.3506 112.743 94.3264 113.28 95.0583C113.719 95.595 114.353 95.7413 114.939 95.595L115.036 95.5462C116.646 95.1071 118.159 94.668 119.72 94.2776C121.281 93.8873 122.891 93.497 124.502 93.1555L129.332 92.1309L131.771 91.5942C132.162 91.4966 132.601 91.399 132.991 91.3015C133.381 91.2039 133.82 91.1063 134.211 91.0087L134.308 90.9599C135.186 90.716 135.674 89.8378 135.43 88.9596C135.284 88.3741 134.747 87.935 134.162 87.8374Z" fill="white"/>
<path d="M131.137 135.797C132.405 136.431 133.869 136.675 135.625 136.529C138.699 136.285 144.017 132.333 144.212 124.136C144.212 123.795 144.212 123.453 144.261 123.112C144.456 116.427 144.847 113.646 144.847 113.646C144.847 113.646 132.259 124.039 120.013 120.331C120.013 120.331 122.745 124.38 124.892 128.283C126.941 132.089 128.746 134.577 131.137 135.797Z" fill="#43281F"/>
<path d="M131.137 135.798C132.405 136.432 133.869 136.676 135.625 136.529C138.699 136.286 144.017 132.334 144.212 124.137C144.212 123.795 144.212 123.454 144.261 123.112C143.188 123.356 142.017 123.747 140.797 124.283C137.235 125.796 133.381 128.674 131.673 133.944C131.429 134.529 131.283 135.163 131.137 135.798Z" fill="#C35F6A"/>
<path d="M131.625 133.944C134.845 137.31 142.456 131.748 141.773 126.576C141.627 125.405 141.188 124.722 140.749 124.283C137.187 125.844 133.381 128.674 131.625 133.944Z" fill="#D67579"/>
<path d="M128.6 121.648C121.086 122.185 117.037 119.599 116.89 119.501C116.598 119.306 116.5 118.867 116.695 118.574C116.89 118.282 117.33 118.184 117.622 118.379C117.671 118.428 122.16 121.258 130.454 120.136C140.261 118.769 147.921 110.768 147.969 110.67C148.213 110.378 148.653 110.378 148.945 110.622C149.238 110.866 149.238 111.305 148.994 111.597C148.653 111.939 140.944 120.038 130.698 121.453C129.917 121.551 129.234 121.599 128.6 121.648Z" fill="#43281F"/>
<path d="M189.832 153.704C191.101 154.192 192.223 155.217 192.808 156.583L190.32 156.973L189.832 153.704Z" fill="white"/>
<path d="M186.271 153.557C187.344 153.265 188.417 153.265 189.442 153.557L186.368 153.997L186.271 153.557Z" fill="#71495A"/>
<path d="M184.466 154.289C184.856 154.094 185.295 153.948 185.686 153.753C185.881 153.655 186.076 153.606 186.271 153.558L186.32 154.046L184.466 154.289Z" fill="#D5BDB2"/>
<path d="M186.855 157.461L186.367 153.997L189.441 153.558C189.587 153.606 189.734 153.655 189.831 153.704L190.319 156.973L186.855 157.461Z" fill="#D5BDB2"/>
<path d="M186.855 157.46L183.391 157.948L182.952 154.923C183.44 154.679 183.928 154.484 184.416 154.24L186.319 153.947L186.855 157.46Z" fill="white"/>
<path d="M179.976 158.485L179.684 156.582C180.757 156.045 181.83 155.508 182.952 154.972L183.392 157.997L179.976 158.485Z" fill="#D5BDB2"/>
<path d="M176.513 159.022L176.415 158.338C177.44 157.753 178.562 157.168 179.684 156.582L179.977 158.485L176.513 159.022Z" fill="white"/>
<path d="M174.806 159.266C175.342 158.973 175.879 158.632 176.416 158.339L176.513 159.022L174.806 159.266Z" fill="#D5BDB2"/>
<path d="M121.185 166.535C121.77 166.682 122.307 166.779 122.892 166.925L121.282 167.169L121.185 166.535Z" fill="white"/>
<path d="M117.819 167.707L117.526 165.804C118.795 166.048 119.966 166.292 121.186 166.536L121.283 167.17L117.819 167.707Z" fill="#D5BDB2"/>
<path d="M114.354 168.194L113.915 165.218C115.135 165.413 116.355 165.608 117.525 165.803L117.818 167.706L114.354 168.194Z" fill="white"/>
<path d="M110.305 164.779C110.5 164.779 110.646 164.779 110.841 164.828C111.28 164.877 111.72 164.926 112.159 164.974L110.353 165.218L110.305 164.779Z" fill="#71495A"/>
<path d="M107.231 165.706C108.11 165.121 109.183 164.779 110.305 164.779L110.354 165.218L107.231 165.706Z" fill="#D5BDB2"/>
<path d="M110.891 168.682L110.403 165.218L112.209 164.974C112.794 165.022 113.379 165.12 113.916 165.218L114.355 168.194L110.891 168.682Z" fill="#D5BDB2"/>
<path d="M110.89 168.683L107.426 169.171L106.938 165.853C107.036 165.804 107.134 165.707 107.182 165.658L110.354 165.17L110.89 168.683Z" fill="white"/>
<path d="M104.889 169.609C105.035 168.097 105.864 166.78 106.987 165.95L107.475 169.268L104.889 169.609Z" fill="#D5BDB2"/>
<path d="M190.32 156.972L192.809 156.582C192.809 156.631 192.857 156.631 192.857 156.68C193.248 157.607 193.638 158.68 194.028 159.9L190.808 160.388L190.32 156.972Z" fill="#D5BDB2"/>
<path d="M194.516 161.363C194.711 161.998 194.906 162.632 195.101 163.315L194.808 163.364L194.516 161.363Z" fill="#D5BDB2"/>
<path d="M191.344 163.852L190.856 160.388L194.077 159.9C194.223 160.339 194.369 160.827 194.516 161.315L194.808 163.316L191.344 163.852Z" fill="white"/>
<path d="M190.337 156.966L186.862 157.479L187.376 160.954L190.851 160.44L190.337 156.966Z" fill="#71495A"/>
<path d="M186.87 157.455L183.396 157.969L183.909 161.444L187.384 160.93L186.87 157.455Z" fill="#D5BDB2"/>
<path d="M190.82 160.385L187.345 160.899L187.859 164.374L191.334 163.86L190.82 160.385Z" fill="#D5BDB2"/>
<path d="M187.408 160.914L183.933 161.428L184.447 164.903L187.921 164.389L187.408 160.914Z" fill="white"/>
<path d="M183.409 157.995L179.934 158.509L180.448 161.984L183.922 161.47L183.409 157.995Z" fill="#71495A"/>
<path d="M179.992 158.475L176.518 158.989L177.032 162.464L180.506 161.95L179.992 158.475Z" fill="#D5BDB2"/>
<path d="M183.942 161.405L180.467 161.919L180.981 165.394L184.456 164.88L183.942 161.405Z" fill="#D5BDB2"/>
<path d="M180.482 161.941L177.007 162.455L177.521 165.93L180.996 165.416L180.482 161.941Z" fill="white"/>
<path d="M177.001 162.438L173.537 162.926L173.146 160.193C173.683 159.852 174.22 159.51 174.805 159.169L176.513 158.925L177.001 162.438Z" fill="#71495A"/>
<path d="M170.121 163.462L169.975 162.34C170.999 161.657 172.073 160.925 173.195 160.242L173.585 162.974L170.121 163.462Z" fill="#D5BDB2"/>
<path d="M177.013 162.432L173.538 162.946L174.052 166.421L177.527 165.907L177.013 162.432Z" fill="#D5BDB2"/>
<path d="M173.603 162.963L170.128 163.477L170.642 166.951L174.117 166.438L173.603 162.963Z" fill="white"/>
<path d="M167.926 163.804C168.56 163.316 169.243 162.828 169.926 162.389L170.073 163.511L167.926 163.804Z" fill="#71495A"/>
<path d="M170.609 166.926L167.145 167.414L166.755 164.633C167.145 164.34 167.536 164.047 167.926 163.755L170.121 163.413L170.609 166.926Z" fill="#D5BDB2"/>
<path d="M163.73 167.951L163.633 167.219C164.609 166.389 165.633 165.56 166.804 164.682L167.194 167.463L163.73 167.951Z" fill="white"/>
<path d="M162.559 168.097C162.9 167.804 163.242 167.511 163.583 167.219L163.681 167.951L162.559 168.097Z" fill="#D5BDB2"/>
<path d="M136.018 171.366C136.408 171.561 136.798 171.708 137.189 171.903L136.115 172.049L136.018 171.366Z" fill="white"/>
<path d="M128.504 168.536C129.285 168.78 130.016 169.024 130.748 169.317L128.65 169.61L128.504 168.536Z" fill="#D5BDB2"/>
<path d="M132.651 172.537L132.261 169.805C133.578 170.293 134.847 170.829 136.018 171.317L136.115 172L132.651 172.537Z" fill="#D5BDB2"/>
<path d="M129.187 173.073L128.699 169.609L130.797 169.316C131.285 169.512 131.773 169.658 132.261 169.853L132.651 172.585L129.187 173.073Z" fill="white"/>
<path d="M125.235 170.097L124.845 167.413C126.113 167.755 127.333 168.145 128.553 168.486L128.699 169.56L125.235 170.097Z" fill="#71495A"/>
<path d="M121.771 170.634L121.283 167.17L122.893 166.926C123.576 167.072 124.211 167.267 124.845 167.414L125.235 170.097L121.771 170.634Z" fill="#D5BDB2"/>
<path d="M128.719 169.6L125.244 170.114L125.758 173.589L129.233 173.075L128.719 169.6Z" fill="#D5BDB2"/>
<path d="M125.251 170.09L121.776 170.604L122.29 174.078L125.765 173.565L125.251 170.09Z" fill="white"/>
<path d="M121.302 167.161L117.827 167.675L118.341 171.15L121.816 170.636L121.302 167.161Z" fill="#71495A"/>
<path d="M117.834 167.65L114.359 168.164L114.873 171.639L118.348 171.125L117.834 167.65Z" fill="#D5BDB2"/>
<path d="M121.79 170.628L118.315 171.142L118.829 174.617L122.304 174.103L121.79 170.628Z" fill="#D5BDB2"/>
<path d="M118.325 171.118L114.85 171.632L115.364 175.107L118.838 174.593L118.325 171.118Z" fill="white"/>
<path d="M114.373 168.189L110.898 168.703L111.412 172.178L114.887 171.664L114.373 168.189Z" fill="#71495A"/>
<path d="M110.906 168.68L107.431 169.194L107.945 172.669L111.42 172.155L110.906 168.68Z" fill="#D5BDB2"/>
<path d="M114.913 171.65L111.438 172.164L111.952 175.639L115.427 175.125L114.913 171.65Z" fill="#D5BDB2"/>
<path d="M111.445 172.139L107.97 172.653L108.484 176.128L111.959 175.614L111.445 172.139Z" fill="white"/>
<path d="M107.963 172.683L104.646 173.171C104.694 171.902 104.743 170.731 104.841 169.707C104.841 169.658 104.841 169.609 104.841 169.609L107.427 169.219L107.963 172.683Z" fill="#71495A"/>
<path d="M108.451 176.099L104.987 176.587L104.597 174.05C104.597 173.757 104.597 173.415 104.597 173.123L107.914 172.635L108.451 176.099Z" fill="#D5BDB2"/>
<path d="M104.646 176.684C104.646 175.757 104.597 174.879 104.646 174.05L105.036 176.587L104.646 176.684Z" fill="white"/>
<path d="M194.809 163.364L195.101 163.315C195.394 164.389 195.687 165.511 195.931 166.731L195.345 166.828L194.809 163.364Z" fill="#71495A"/>
<path d="M194.825 163.355L191.35 163.869L191.864 167.344L195.338 166.83L194.825 163.355Z" fill="#D5BDB2"/>
<path d="M195.297 166.829L195.882 166.731C196.126 167.805 196.37 168.976 196.565 170.147L195.785 170.244L195.297 166.829Z" fill="#D5BDB2"/>
<path d="M195.307 166.771L191.832 167.285L192.346 170.76L195.821 170.246L195.307 166.771Z" fill="white"/>
<path d="M191.359 163.844L187.884 164.358L188.398 167.833L191.873 167.319L191.359 163.844Z" fill="#71495A"/>
<path d="M187.899 164.382L184.424 164.896L184.938 168.37L188.413 167.856L187.899 164.382Z" fill="#D5BDB2"/>
<path d="M191.848 167.311L188.373 167.825L188.887 171.3L192.362 170.786L191.848 167.311Z" fill="#D5BDB2"/>
<path d="M188.429 167.793L184.954 168.307L185.468 171.782L188.943 171.268L188.429 167.793Z" fill="white"/>
<path d="M184.431 164.87L180.956 165.384L181.47 168.859L184.945 168.345L184.431 164.87Z" fill="#71495A"/>
<path d="M181.019 165.402L177.544 165.916L178.058 169.391L181.533 168.877L181.019 165.402Z" fill="#D5BDB2"/>
<path d="M184.97 168.331L181.495 168.845L182.009 172.32L185.484 171.806L184.97 168.331Z" fill="#D5BDB2"/>
<path d="M181.502 168.82L178.027 169.334L178.541 172.809L182.016 172.295L181.502 168.82Z" fill="white"/>
<path d="M177.552 165.891L174.077 166.405L174.591 169.88L178.066 169.366L177.552 165.891Z" fill="#71495A"/>
<path d="M174.083 166.384L170.608 166.897L171.122 170.372L174.597 169.858L174.083 166.384Z" fill="#D5BDB2"/>
<path d="M178.041 169.36L174.566 169.874L175.08 173.349L178.555 172.835L178.041 169.36Z" fill="#D5BDB2"/>
<path d="M174.623 169.842L171.148 170.355L171.662 173.83L175.137 173.316L174.623 169.842Z" fill="white"/>
<path d="M170.625 166.921L167.15 167.435L167.664 170.909L171.139 170.396L170.625 166.921Z" fill="#71495A"/>
<path d="M167.206 167.403L163.731 167.917L164.245 171.392L167.72 170.878L167.206 167.403Z" fill="#D5BDB2"/>
<path d="M171.162 170.383L167.688 170.896L168.201 174.371L171.676 173.857L171.162 170.383Z" fill="#D5BDB2"/>
<path d="M167.696 170.871L164.221 171.385L164.735 174.86L168.21 174.346L167.696 170.871Z" fill="white"/>
<path d="M164.218 171.414L160.754 171.902L160.461 170.048C161.095 169.414 161.778 168.78 162.559 168.145L163.681 167.999L164.218 171.414Z" fill="#71495A"/>
<path d="M158.265 172.292C158.948 171.56 159.68 170.828 160.46 170.048L160.753 171.902L158.265 172.292Z" fill="#D5BDB2"/>
<path d="M164.237 171.407L160.762 171.921L161.276 175.396L164.751 174.882L164.237 171.407Z" fill="#D5BDB2"/>
<path d="M161.291 175.366L157.827 175.854L157.437 173.171C157.68 172.878 157.973 172.585 158.266 172.244L160.754 171.854L161.291 175.366Z" fill="white"/>
<path d="M154.85 176.342C155.484 175.513 156.362 174.439 157.435 173.22L157.826 175.903L154.85 176.342Z" fill="#D5BDB2"/>
<path d="M143.629 175.317C144.995 176.147 146.068 176.879 146.898 177.513L144.019 177.952L143.629 175.317Z" fill="white"/>
<path d="M139.773 173.171C140.749 173.659 141.627 174.147 142.457 174.635L140.066 174.976L139.773 173.171Z" fill="#71495A"/>
<path d="M136.602 175.464L136.114 172L137.188 171.854C138.115 172.293 138.993 172.732 139.822 173.122L140.066 174.927L136.602 175.464Z" fill="#D5BDB2"/>
<path d="M140.555 178.44L140.067 174.976L142.458 174.635C142.848 174.879 143.239 175.123 143.629 175.318L144.019 177.904L140.555 178.44Z" fill="#D5BDB2"/>
<path d="M140.085 174.967L136.61 175.48L137.124 178.955L140.599 178.441L140.085 174.967Z" fill="white"/>
<path d="M136.134 172.038L132.659 172.552L133.173 176.027L136.648 175.513L136.134 172.038Z" fill="#71495A"/>
<path d="M132.668 172.529L129.193 173.043L129.707 176.518L133.182 176.004L132.668 172.529Z" fill="#D5BDB2"/>
<path d="M136.618 175.458L133.144 175.972L133.657 179.447L137.132 178.933L136.618 175.458Z" fill="#D5BDB2"/>
<path d="M133.158 175.997L129.683 176.511L130.197 179.986L133.671 179.472L133.158 175.997Z" fill="white"/>
<path d="M129.201 173.018L125.727 173.532L126.24 177.007L129.715 176.493L129.201 173.018Z" fill="#71495A"/>
<path d="M125.74 173.557L122.265 174.071L122.779 177.546L126.254 177.032L125.74 173.557Z" fill="#D5BDB2"/>
<path d="M129.739 176.479L126.264 176.993L126.778 180.468L130.253 179.954L129.739 176.479Z" fill="#D5BDB2"/>
<path d="M126.279 177.017L122.804 177.531L123.318 181.006L126.793 180.492L126.279 177.017Z" fill="white"/>
<path d="M122.323 174.039L118.848 174.553L119.362 178.028L122.837 177.514L122.323 174.039Z" fill="#71495A"/>
<path d="M118.862 174.578L115.387 175.092L115.901 178.567L119.376 178.053L118.862 174.578Z" fill="#D5BDB2"/>
<path d="M122.811 177.507L119.336 178.021L119.85 181.495L123.325 180.981L122.811 177.507Z" fill="#D5BDB2"/>
<path d="M119.352 178.045L115.877 178.559L116.391 182.034L119.866 181.52L119.352 178.045Z" fill="white"/>
<path d="M115.395 175.068L111.92 175.582L112.434 179.057L115.909 178.543L115.395 175.068Z" fill="#71495A"/>
<path d="M111.936 175.605L108.461 176.119L108.975 179.594L112.45 179.08L111.936 175.605Z" fill="#D5BDB2"/>
<path d="M115.934 178.528L112.459 179.042L112.973 182.517L116.448 182.003L115.934 178.528Z" fill="#D5BDB2"/>
<path d="M112.474 179.066L108.999 179.58L109.513 183.055L112.988 182.541L112.474 179.066Z" fill="white"/>
<path d="M108.516 176.089L105.041 176.603L105.555 180.077L109.03 179.564L108.516 176.089Z" fill="#71495A"/>
<path d="M105.524 180.099L104.841 180.196C104.743 178.977 104.694 177.806 104.646 176.684L104.987 176.635L105.524 180.099Z" fill="#D5BDB2"/>
<path d="M109.005 179.556L105.53 180.07L106.044 183.545L109.519 183.031L109.005 179.556Z" fill="#D5BDB2"/>
<path d="M106.06 183.515L105.181 183.661C105.035 182.442 104.937 181.271 104.84 180.197L105.523 180.1L106.06 183.515Z" fill="white"/>
<path d="M195.833 170.244L196.614 170.146C196.809 171.22 197.004 172.391 197.15 173.611L196.321 173.757L195.833 170.244Z" fill="#71495A"/>
<path d="M195.847 170.232L192.372 170.746L192.886 174.221L196.361 173.707L195.847 170.232Z" fill="#D5BDB2"/>
<path d="M196.321 173.708L197.151 173.562C197.151 173.708 197.2 173.903 197.2 174.049C197.346 175.074 197.492 176.05 197.639 176.977L196.809 177.074L196.321 173.708Z" fill="#D5BDB2"/>
<path d="M196.336 173.699L192.861 174.213L193.375 177.688L196.85 177.174L196.336 173.699Z" fill="white"/>
<path d="M192.386 170.77L188.911 171.284L189.425 174.759L192.9 174.245L192.386 170.77Z" fill="#71495A"/>
<path d="M188.919 171.26L185.444 171.773L185.958 175.248L189.433 174.734L188.919 171.26Z" fill="#D5BDB2"/>
<path d="M192.868 174.189L189.394 174.703L189.907 178.178L193.382 177.664L192.868 174.189Z" fill="#D5BDB2"/>
<path d="M189.458 174.719L185.983 175.233L186.497 178.708L189.972 178.194L189.458 174.719Z" fill="white"/>
<path d="M185.459 171.799L181.984 172.312L182.498 175.787L185.973 175.273L185.459 171.799Z" fill="#71495A"/>
<path d="M182.04 172.283L178.565 172.797L179.079 176.272L182.554 175.758L182.04 172.283Z" fill="#D5BDB2"/>
<path d="M185.991 175.21L182.516 175.724L183.03 179.199L186.504 178.685L185.991 175.21Z" fill="#D5BDB2"/>
<path d="M182.53 175.748L179.055 176.262L179.569 179.737L183.044 179.223L182.53 175.748Z" fill="white"/>
<path d="M178.58 172.819L175.105 173.333L175.619 176.808L179.094 176.294L178.58 172.819Z" fill="#71495A"/>
<path d="M175.114 173.308L171.639 173.822L172.153 177.297L175.628 176.783L175.114 173.308Z" fill="#D5BDB2"/>
<path d="M179.064 176.237L175.589 176.751L176.103 180.226L179.578 179.712L179.064 176.237Z" fill="#D5BDB2"/>
<path d="M175.604 176.776L172.129 177.29L172.643 180.765L176.118 180.251L175.604 176.776Z" fill="white"/>
<path d="M171.648 173.799L168.173 174.312L168.687 177.787L172.162 177.273L171.648 173.799Z" fill="#71495A"/>
<path d="M168.184 174.341L164.709 174.854L165.223 178.329L168.698 177.815L168.184 174.341Z" fill="#D5BDB2"/>
<path d="M172.185 177.259L168.71 177.772L169.224 181.247L172.699 180.733L172.185 177.259Z" fill="#D5BDB2"/>
<path d="M168.725 177.797L165.25 178.311L165.764 181.785L169.239 181.272L168.725 177.797Z" fill="white"/>
<path d="M164.768 174.82L161.293 175.334L161.807 178.809L165.282 178.295L164.768 174.82Z" fill="#71495A"/>
<path d="M161.307 175.357L157.832 175.871L158.346 179.346L161.821 178.832L161.307 175.357Z" fill="#D5BDB2"/>
<path d="M165.257 178.288L161.782 178.802L162.296 182.277L165.771 181.763L165.257 178.288Z" fill="#D5BDB2"/>
<path d="M161.798 178.824L158.323 179.338L158.837 182.813L162.312 182.299L161.798 178.824Z" fill="white"/>
<path d="M158.363 179.319L155.338 179.758L154.997 177.416C154.948 177.123 154.802 176.879 154.558 176.684C154.655 176.538 154.753 176.44 154.85 176.294L157.827 175.854L158.363 179.319Z" fill="#71495A"/>
<path d="M158.364 179.318L158.852 182.782L155.827 183.222L155.388 180.343L155.29 179.757L158.364 179.318Z" fill="#D5BDB2"/>
<path d="M146.897 178.636L147.239 180.978L144.506 181.368L144.019 177.904L146.897 177.465C146.995 177.514 147.092 177.611 147.19 177.66C146.995 177.953 146.848 178.245 146.897 178.636Z" fill="#D5BDB2"/>
<path d="M147.239 180.978L147.337 181.563L147.776 184.442L145.044 184.832L144.556 181.368L147.239 180.978Z" fill="white"/>
<path d="M144.034 177.896L140.56 178.41L141.074 181.885L144.548 181.371L144.034 177.896Z" fill="#71495A"/>
<path d="M140.575 178.436L137.1 178.95L137.614 182.425L141.088 181.911L140.575 178.436Z" fill="#D5BDB2"/>
<path d="M144.574 181.357L141.099 181.871L141.613 185.346L145.087 184.832L144.574 181.357Z" fill="#D5BDB2"/>
<path d="M141.106 181.846L137.631 182.36L138.145 185.835L141.62 185.321L141.106 181.846Z" fill="white"/>
<path d="M137.157 178.917L133.682 179.431L134.196 182.906L137.67 182.392L137.157 178.917Z" fill="#71495A"/>
<path d="M133.697 179.457L130.222 179.971L130.736 183.446L134.211 182.932L133.697 179.457Z" fill="#D5BDB2"/>
<path d="M137.646 182.385L134.171 182.899L134.685 186.374L138.16 185.86L137.646 182.385Z" fill="#D5BDB2"/>
<path d="M134.179 182.875L130.704 183.389L131.218 186.864L134.693 186.35L134.179 182.875Z" fill="white"/>
<path d="M130.229 179.946L126.754 180.46L127.268 183.935L130.743 183.421L130.229 179.946Z" fill="#71495A"/>
<path d="M126.762 180.435L123.287 180.949L123.801 184.424L127.276 183.91L126.762 180.435Z" fill="#D5BDB2"/>
<path d="M130.768 183.407L127.293 183.921L127.807 187.396L131.282 186.882L130.768 183.407Z" fill="#D5BDB2"/>
<path d="M127.3 183.896L123.825 184.41L124.339 187.885L127.814 187.371L127.3 183.896Z" fill="white"/>
<path d="M123.348 180.969L119.873 181.483L120.387 184.958L123.862 184.444L123.348 180.969Z" fill="#71495A"/>
<path d="M119.883 181.457L116.408 181.971L116.922 185.446L120.397 184.932L119.883 181.457Z" fill="#D5BDB2"/>
<path d="M123.84 184.432L120.365 184.946L120.879 188.421L124.354 187.907L123.84 184.432Z" fill="#D5BDB2"/>
<path d="M120.374 184.924L116.899 185.438L117.413 188.912L120.888 188.398L120.374 184.924Z" fill="white"/>
<path d="M116.423 181.995L112.948 182.509L113.462 185.984L116.937 185.47L116.423 181.995Z" fill="#71495A"/>
<path d="M112.954 182.485L109.479 182.999L109.993 186.474L113.468 185.96L112.954 182.485Z" fill="#D5BDB2"/>
<path d="M116.911 185.464L113.437 185.978L113.95 189.452L117.425 188.939L116.911 185.464Z" fill="#D5BDB2"/>
<path d="M113.495 185.945L110.021 186.459L110.534 189.934L114.009 189.42L113.495 185.945Z" fill="white"/>
<path d="M109.496 183.022L106.021 183.536L106.535 187.011L110.01 186.497L109.496 183.022Z" fill="#71495A"/>
<path d="M106.549 186.979L105.622 187.125C105.427 185.905 105.28 184.783 105.134 183.661L106.012 183.515L106.549 186.979Z" fill="#D5BDB2"/>
<path d="M110.034 186.483L106.559 186.997L107.073 190.472L110.547 189.958L110.034 186.483Z" fill="#D5BDB2"/>
<path d="M107.085 190.443L106.158 190.589C106.011 189.662 105.865 188.686 105.719 187.662C105.67 187.466 105.67 187.32 105.621 187.174L106.548 187.027L107.085 190.443Z" fill="white"/>
<path d="M196.809 177.172L197.638 177.074C197.784 178.294 197.931 179.416 198.028 180.538L197.345 180.636L196.809 177.172Z" fill="#71495A"/>
<path d="M196.875 177.159L193.4 177.673L193.914 181.148L197.389 180.634L196.875 177.159Z" fill="#D5BDB2"/>
<path d="M197.346 180.636L198.029 180.538C198.126 181.758 198.224 182.929 198.273 184.051L197.882 184.1L197.346 180.636Z" fill="#D5BDB2"/>
<path d="M197.365 180.627L193.89 181.141L194.404 184.616L197.879 184.102L197.365 180.627Z" fill="white"/>
<path d="M193.408 177.648L189.933 178.162L190.447 181.637L193.921 181.123L193.408 177.648Z" fill="#71495A"/>
<path d="M189.948 178.187L186.473 178.701L186.987 182.176L190.461 181.662L189.948 178.187Z" fill="#D5BDB2"/>
<path d="M193.897 181.116L190.422 181.63L190.936 185.105L194.411 184.591L193.897 181.116Z" fill="#D5BDB2"/>
<path d="M190.43 181.607L186.955 182.121L187.469 185.596L190.944 185.082L190.43 181.607Z" fill="white"/>
<path d="M186.48 178.676L183.005 179.19L183.519 182.665L186.994 182.151L186.48 178.676Z" fill="#71495A"/>
<path d="M183.021 179.215L179.546 179.729L180.06 183.203L183.535 182.689L183.021 179.215Z" fill="#D5BDB2"/>
<path d="M187.018 182.137L183.543 182.651L184.057 186.126L187.532 185.612L187.018 182.137Z" fill="#D5BDB2"/>
<path d="M183.551 182.627L180.076 183.141L180.59 186.616L184.065 186.102L183.551 182.627Z" fill="white"/>
<path d="M179.601 179.698L176.126 180.212L176.64 183.687L180.115 183.173L179.601 179.698Z" fill="#71495A"/>
<path d="M176.142 180.235L172.667 180.749L173.181 184.224L176.656 183.71L176.142 180.235Z" fill="#D5BDB2"/>
<path d="M180.089 183.168L176.614 183.682L177.128 187.157L180.603 186.643L180.089 183.168Z" fill="#D5BDB2"/>
<path d="M176.623 183.654L173.148 184.168L173.662 187.643L177.137 187.129L176.623 183.654Z" fill="white"/>
<path d="M172.674 180.725L169.199 181.239L169.713 184.714L173.188 184.2L172.674 180.725Z" fill="#71495A"/>
<path d="M169.206 181.217L165.731 181.73L166.245 185.205L169.72 184.691L169.206 181.217Z" fill="#D5BDB2"/>
<path d="M173.212 184.185L169.737 184.699L170.251 188.174L173.726 187.66L173.212 184.185Z" fill="#D5BDB2"/>
<path d="M169.744 184.677L166.27 185.191L166.783 188.666L170.258 188.152L169.744 184.677Z" fill="white"/>
<path d="M165.796 181.747L162.321 182.261L162.835 185.736L166.31 185.222L165.796 181.747Z" fill="#71495A"/>
<path d="M162.328 182.237L158.854 182.751L159.367 186.226L162.842 185.712L162.328 182.237Z" fill="#D5BDB2"/>
<path d="M166.267 185.222L166.755 188.686L164.12 189.076C163.827 188.93 163.535 188.783 163.242 188.637L162.803 185.758L166.267 185.222Z" fill="#D5BDB2"/>
<path d="M162.802 185.71L163.241 188.589C161.777 187.857 160.509 187.125 159.387 186.442L159.338 186.198L162.802 185.71Z" fill="white"/>
<path d="M155.825 183.27L158.85 182.782L159.338 186.246L159.045 186.295C157.63 185.417 156.508 184.636 155.63 184.002C155.825 183.807 155.874 183.514 155.825 183.27Z" fill="#71495A"/>
<path d="M159.387 186.49C159.29 186.441 159.143 186.344 159.046 186.295L159.339 186.246L159.387 186.49Z" fill="#D5BDB2"/>
<path d="M145.044 184.832L147.776 184.441V184.49C147.825 184.832 148.02 185.076 148.264 185.222C147.63 186.051 146.849 187.076 145.776 188.247L145.581 188.296L145.044 184.832Z" fill="#D5BDB2"/>
<path d="M145.776 188.247C145.727 188.296 145.678 188.394 145.58 188.443L145.531 188.296L145.776 188.247Z" fill="white"/>
<path d="M145.063 184.824L141.588 185.338L142.102 188.813L145.577 188.299L145.063 184.824Z" fill="#71495A"/>
<path d="M141.595 185.314L138.12 185.828L138.634 189.303L142.109 188.789L141.595 185.314Z" fill="#D5BDB2"/>
<path d="M145.531 188.296L145.58 188.442C144.702 189.418 143.677 190.491 142.506 191.614L142.067 188.784L145.531 188.296Z" fill="#D5BDB2"/>
<path d="M138.652 189.32L142.116 188.832L142.556 191.662C142.312 191.906 142.019 192.15 141.775 192.394L139.189 192.784L138.652 189.32Z" fill="white"/>
<path d="M138.185 185.843L134.71 186.357L135.224 189.832L138.699 189.318L138.185 185.843Z" fill="#71495A"/>
<path d="M134.717 186.336L131.242 186.85L131.756 190.325L135.231 189.811L134.717 186.336Z" fill="#D5BDB2"/>
<path d="M138.667 189.262L135.192 189.776L135.706 193.251L139.181 192.737L138.667 189.262Z" fill="#D5BDB2"/>
<path d="M135.206 189.802L131.731 190.316L132.245 193.791L135.72 193.277L135.206 189.802Z" fill="white"/>
<path d="M131.256 186.874L127.781 187.388L128.295 190.863L131.77 190.349L131.256 186.874Z" fill="#71495A"/>
<path d="M127.79 187.362L124.315 187.876L124.829 191.351L128.304 190.837L127.79 187.362Z" fill="#D5BDB2"/>
<path d="M131.738 190.294L128.263 190.808L128.777 194.283L132.252 193.769L131.738 190.294Z" fill="#D5BDB2"/>
<path d="M128.327 190.822L124.853 191.336L125.366 194.811L128.841 194.297L128.327 190.822Z" fill="white"/>
<path d="M124.323 187.852L120.848 188.366L121.362 191.841L124.837 191.327L124.323 187.852Z" fill="#71495A"/>
<path d="M120.911 188.385L117.437 188.898L117.95 192.373L121.425 191.859L120.911 188.385Z" fill="#D5BDB2"/>
<path d="M124.862 191.311L121.387 191.825L121.901 195.3L125.376 194.786L124.862 191.311Z" fill="#D5BDB2"/>
<path d="M121.402 191.851L117.927 192.365L118.441 195.84L121.916 195.326L121.402 191.851Z" fill="white"/>
<path d="M117.445 188.874L113.97 189.388L114.484 192.863L117.959 192.349L117.445 188.874Z" fill="#71495A"/>
<path d="M113.985 189.412L110.51 189.926L111.024 193.401L114.499 192.887L113.985 189.412Z" fill="#D5BDB2"/>
<path d="M117.934 192.341L114.459 192.854L114.973 196.329L118.448 195.815L117.934 192.341Z" fill="#D5BDB2"/>
<path d="M114.523 192.871L111.048 193.385L111.562 196.86L115.037 196.346L114.523 192.871Z" fill="white"/>
<path d="M110.517 189.901L107.042 190.415L107.556 193.89L111.031 193.376L110.517 189.901Z" fill="#71495A"/>
<path d="M107.573 193.906L106.792 194.004C106.549 192.931 106.353 191.76 106.158 190.589L107.085 190.442L107.573 193.906Z" fill="#D5BDB2"/>
<path d="M111.056 193.362L107.581 193.876L108.095 197.351L111.57 196.837L111.056 193.362Z" fill="#D5BDB2"/>
<path d="M108.061 197.321L107.573 197.37C107.28 196.297 107.036 195.175 106.792 193.955L107.573 193.857L108.061 197.321Z" fill="white"/>
<path d="M198.224 184.003C198.273 185.076 198.273 186.101 198.273 187.077L197.834 184.052L198.224 184.003Z" fill="#71495A"/>
<path d="M194.419 184.588L197.883 184.1L198.322 187.125C198.322 187.271 198.322 187.417 198.322 187.564L194.956 188.052L194.419 184.588Z" fill="#D5BDB2"/>
<path d="M194.906 188.052L198.273 187.564C198.273 188.882 198.224 190.053 198.126 191.126L195.394 191.516L194.906 188.052Z" fill="white"/>
<path d="M194.435 184.579L190.96 185.093L191.474 188.568L194.949 188.054L194.435 184.579Z" fill="#71495A"/>
<path d="M190.968 185.065L187.493 185.579L188.007 189.054L191.482 188.54L190.968 185.065Z" fill="#D5BDB2"/>
<path d="M194.925 188.043L191.45 188.557L191.964 192.032L195.439 191.518L194.925 188.043Z" fill="#D5BDB2"/>
<path d="M191.458 188.533L187.983 189.047L188.497 192.522L191.972 192.008L191.458 188.533Z" fill="white"/>
<path d="M187.508 185.604L184.033 186.118L184.547 189.593L188.022 189.079L187.508 185.604Z" fill="#71495A"/>
<path d="M184.042 186.093L180.567 186.607L181.081 190.082L184.556 189.568L184.042 186.093Z" fill="#D5BDB2"/>
<path d="M188.039 189.015L184.564 189.529L185.078 193.004L188.553 192.49L188.039 189.015Z" fill="#D5BDB2"/>
<path d="M184.579 189.554L181.104 190.068L181.618 193.543L185.093 193.029L184.579 189.554Z" fill="white"/>
<path d="M180.629 186.625L177.154 187.139L177.668 190.614L181.143 190.1L180.629 186.625Z" fill="#71495A"/>
<path d="M177.16 187.118L173.686 187.632L174.199 191.107L177.674 190.593L177.16 187.118Z" fill="#D5BDB2"/>
<path d="M181.113 190.044L177.638 190.558L178.152 194.033L181.627 193.519L181.113 190.044Z" fill="#D5BDB2"/>
<path d="M177.635 190.589L178.123 194.053L177.489 194.151C176.464 193.858 175.439 193.565 174.464 193.272L174.171 191.126L177.635 190.589Z" fill="white"/>
<path d="M173.701 187.654L170.226 188.168L170.74 191.643L174.214 191.129L173.701 187.654Z" fill="#71495A"/>
<path d="M170.219 188.149L170.707 191.613L170.121 191.711C169.048 191.272 167.975 190.882 166.999 190.443L166.755 188.686L170.219 188.149Z" fill="#D5BDB2"/>
<path d="M174.17 191.076L174.463 193.223C173.146 192.784 171.926 192.393 170.755 191.954L170.706 191.613L174.17 191.076Z" fill="#D5BDB2"/>
<path d="M170.805 191.955C170.61 191.857 170.366 191.808 170.171 191.711L170.756 191.613L170.805 191.955Z" fill="white"/>
<path d="M167.047 190.394C166.023 189.955 165.047 189.467 164.12 189.028L166.755 188.638L167.047 190.394Z" fill="#71495A"/>
<path d="M141.726 192.394C140.994 193.077 140.213 193.76 139.432 194.443L139.188 192.735L141.726 192.394Z" fill="#D5BDB2"/>
<path d="M135.725 193.272L139.189 192.784L139.433 194.492C138.603 195.224 137.725 195.956 136.749 196.687L136.261 196.785L135.725 193.272Z" fill="#71495A"/>
<path d="M135.744 193.261L132.27 193.775L132.783 197.25L136.258 196.736L135.744 193.261Z" fill="#D5BDB2"/>
<path d="M136.701 196.639C136.554 196.736 136.408 196.883 136.213 196.98L136.164 196.687L136.701 196.639Z" fill="#D5BDB2"/>
<path d="M136.212 196.736L136.261 197.029C135.285 197.81 134.212 198.59 133.09 199.322L132.797 197.224L136.212 196.736Z" fill="white"/>
<path d="M132.277 193.752L128.802 194.266L129.316 197.741L132.791 197.227L132.277 193.752Z" fill="#71495A"/>
<path d="M128.819 194.29L125.344 194.804L125.858 198.279L129.333 197.765L128.819 194.29Z" fill="#D5BDB2"/>
<path d="M129.333 197.712L132.797 197.224L133.09 199.322C132.212 199.907 131.333 200.541 130.358 201.127L129.821 201.224L129.333 197.712Z" fill="#D5BDB2"/>
<path d="M129.349 197.702L125.874 198.216L126.388 201.691L129.863 201.177L129.349 197.702Z" fill="white"/>
<path d="M125.351 194.78L121.876 195.294L122.39 198.769L125.865 198.255L125.351 194.78Z" fill="#71495A"/>
<path d="M121.933 195.262L118.458 195.776L118.972 199.251L122.447 198.737L121.933 195.262Z" fill="#D5BDB2"/>
<path d="M125.889 198.24L122.414 198.754L122.928 202.229L126.403 201.715L125.889 198.24Z" fill="#D5BDB2"/>
<path d="M122.422 198.728L118.947 199.242L119.461 202.717L122.936 202.203L122.422 198.728Z" fill="white"/>
<path d="M118.473 195.8L114.998 196.313L115.512 199.788L118.987 199.274L118.473 195.8Z" fill="#71495A"/>
<path d="M115.004 196.291L111.529 196.805L112.043 200.28L115.518 199.766L115.004 196.291Z" fill="#D5BDB2"/>
<path d="M118.963 199.268L115.488 199.782L116.002 203.257L119.477 202.743L118.963 199.268Z" fill="#D5BDB2"/>
<path d="M115.544 199.75L112.069 200.264L112.583 203.739L116.058 203.225L115.544 199.75Z" fill="white"/>
<path d="M111.545 196.828L108.07 197.342L108.584 200.817L112.059 200.303L111.545 196.828Z" fill="#71495A"/>
<path d="M108.598 200.785C108.256 199.761 107.915 198.639 107.622 197.419L108.11 197.37L108.598 200.785Z" fill="#D5BDB2"/>
<path d="M112.062 200.299L112.55 203.763L109.72 204.202C109.33 203.226 108.988 202.153 108.598 200.982V200.836L112.062 200.299Z" fill="#D5BDB2"/>
<path d="M108.598 200.932C108.598 200.883 108.549 200.834 108.549 200.834L108.598 200.932Z" fill="white"/>
<path d="M195.443 191.466L198.176 191.076C198.176 191.418 198.127 191.71 198.078 192.003C197.98 193.028 197.59 194.004 197.005 194.735L195.931 194.882L195.443 191.466Z" fill="#D5BDB2"/>
<path d="M197.004 194.785C196.711 195.127 196.419 195.468 196.077 195.761L195.979 194.932L197.004 194.785Z" fill="white"/>
<path d="M195.456 191.455L191.981 191.969L192.495 195.444L195.97 194.93L195.456 191.455Z" fill="#71495A"/>
<path d="M191.996 191.993L188.521 192.507L189.035 195.982L192.51 195.468L191.996 191.993Z" fill="#D5BDB2"/>
<path d="M195.931 194.931L196.028 195.76C195.101 196.492 193.93 196.931 192.662 196.931L192.418 195.419L195.931 194.931Z" fill="#D5BDB2"/>
<path d="M192.466 195.468L192.71 196.98C192.515 196.98 192.271 196.98 192.076 196.931C191.051 196.834 190.075 196.688 189.1 196.541L189.002 195.956L192.466 195.468Z" fill="white"/>
<path d="M188.515 192.492L189.003 195.956L187.149 196.249C186.612 196.151 186.027 196.054 185.49 195.956L185.051 193.029L188.515 192.492Z" fill="#71495A"/>
<path d="M185.051 193.027L185.49 195.955C184.222 195.711 183.051 195.467 181.831 195.223L181.587 193.515L185.051 193.027Z" fill="#D5BDB2"/>
<path d="M189.1 196.542C188.417 196.444 187.783 196.346 187.148 196.249L189.002 195.956L189.1 196.542Z" fill="#D5BDB2"/>
<path d="M181.586 193.516L181.83 195.223C180.562 194.931 179.342 194.638 178.171 194.345L178.122 194.052L181.586 193.516Z" fill="#71495A"/>
<path d="M178.22 194.297C177.976 194.248 177.781 194.15 177.537 194.101L178.171 194.004L178.22 194.297Z" fill="#D5BDB2"/>
<path d="M130.358 201.127C130.212 201.225 130.016 201.322 129.87 201.468L129.821 201.225L130.358 201.127Z" fill="#71495A"/>
<path d="M129.822 201.176L129.87 201.42C128.846 202.054 127.772 202.688 126.65 203.371L126.406 201.712L129.822 201.176Z" fill="#D5BDB2"/>
<path d="M126.357 201.713L126.601 203.372C125.576 203.957 124.454 204.543 123.332 205.128L122.893 202.201L126.357 201.713Z" fill="#71495A"/>
<path d="M119.478 202.738L122.942 202.25L123.381 205.177C122.844 205.421 122.307 205.714 121.771 205.958L120.014 206.202L119.478 202.738Z" fill="#D5BDB2"/>
<path d="M121.771 205.908C121.234 206.201 120.649 206.445 120.063 206.738L119.966 206.201L121.771 205.908Z" fill="white"/>
<path d="M119.493 202.678L116.019 203.192L116.532 206.667L120.007 206.153L119.493 202.678Z" fill="#71495A"/>
<path d="M116.034 203.218L112.559 203.731L113.073 207.206L116.547 206.692L116.034 203.218Z" fill="#D5BDB2"/>
<path d="M119.965 206.153L120.063 206.69C119.136 207.129 118.209 207.519 117.282 207.959C117.135 208.007 116.94 208.105 116.794 208.154L116.599 206.69L119.965 206.153Z" fill="#D5BDB2"/>
<path d="M113.086 207.176L116.55 206.688L116.745 208.152C115.574 208.542 114.306 208.445 113.184 208.055L113.086 207.176Z" fill="white"/>
<path d="M113.086 207.178L111.915 207.373C111.135 206.788 110.5 206.007 110.11 205.031C110.013 204.738 109.866 204.446 109.769 204.153L112.598 203.714L113.086 207.178Z" fill="#71495A"/>
<path d="M113.184 208.055C112.744 207.86 112.305 207.665 111.915 207.372L113.086 207.177L113.184 208.055Z" fill="#D5BDB2"/>
<path d="M151.337 180.928L147.287 181.514L147.19 180.928L146.897 178.635C146.848 178.294 146.946 177.952 147.19 177.708C147.336 177.513 147.58 177.416 147.824 177.367L150.751 176.928L151.337 180.928Z" fill="#71495A"/>
<path d="M147.776 184.49L147.337 181.563L151.386 180.978L151.972 185.027L149.045 185.466C148.752 185.515 148.459 185.417 148.264 185.271C147.971 185.076 147.825 184.783 147.776 184.49Z" fill="#D5BDB2"/>
<path d="M154.948 177.416L155.289 179.758L155.387 180.343L151.337 180.929L150.752 176.879L153.679 176.44C153.972 176.391 154.314 176.489 154.509 176.684C154.753 176.879 154.899 177.123 154.948 177.416Z" fill="#D5BDB2"/>
<path d="M151.337 180.928L155.386 180.343L155.826 183.221V183.27C155.874 183.514 155.826 183.758 155.679 184.002C155.533 184.295 155.24 184.49 154.899 184.539L151.971 184.978L151.337 180.928Z" fill="white"/>
<path d="M255.406 74.3222C255.064 74.7125 254.723 75.054 254.381 75.3956C254.332 75.4443 254.332 75.4443 254.284 75.4931C254.088 75.6883 253.942 75.8347 253.796 76.0298C253.698 76.1274 253.601 76.225 253.503 76.3226L253.454 76.3713C251.015 80.8112 245.989 76.9568 245.989 76.9568C247.697 74.8101 249.746 72.8585 251.112 70.7605C251.161 70.7117 251.161 70.663 251.21 70.6142C268.628 43.8774 259.407 22.7515 250.137 10.7004C247.99 7.91943 245.843 5.62631 243.989 3.8211C243.891 3.72352 243.794 3.62594 243.696 3.57715C247.746 5.43116 251.893 8.16338 256.186 11.8714C256.186 11.8714 259.504 15.1891 260.675 16.5064C281.85 40.8525 263.749 65.2473 255.406 74.3222Z" fill="#935339"/>
<path d="M54.2458 144.287L53.8555 144.873L54.2458 144.336V144.287Z" fill="#C39E6F"/>
<path d="M187.832 249.038C162.266 254.112 139.384 243.72 130.797 223.57C128.748 218.789 126.894 213.324 125.967 207.274C126.406 208.982 133.578 236.792 157.485 245.184C169.243 249.38 179.879 249.77 187.832 249.038Z" fill="#D39877"/>
</svg>
