<svg width="80" height="25" viewBox="0 0 80 25" fill="none" xmlns="http://www.w3.org/2000/svg">
<g clip-path="url(#clip0_1919_85)">
<path fill-rule="evenodd" clip-rule="evenodd" d="M28.1053 24.1126L32.1294 0.379883H38.625L34.5693 24.1126H28.1053Z" fill="#01549A"/>
<path fill-rule="evenodd" clip-rule="evenodd" d="M58.0168 0.982261C56.7494 0.538659 54.7215 0 52.2183 0C45.8178 0 41.3184 3.20027 41.2867 7.8264C41.255 11.2168 44.4869 13.1179 46.9584 14.2586C49.4616 15.431 50.3171 16.1598 50.2855 17.2054C50.2855 18.8214 48.2892 19.5185 46.4198 19.5185C43.8215 19.5185 42.4591 19.1699 40.3361 18.2827L39.4806 17.9025L38.5934 23.194C40.0826 23.8911 42.871 24.4298 45.7861 24.4615C52.5985 24.4615 56.9712 21.2929 57.0345 16.3499C57.0662 13.6566 55.3235 11.597 51.6163 9.91767C49.3666 8.84035 47.9724 8.11157 47.9724 7.00257C47.9724 5.98862 49.1448 4.94299 51.6796 4.94299C53.8026 4.9113 55.3552 5.35491 56.5276 5.86188L57.1296 6.11537L58.0168 0.982261Z" fill="#01549A"/>
<path fill-rule="evenodd" clip-rule="evenodd" d="M74.5884 0.412109H69.5821C68.0295 0.412109 66.8571 0.824025 66.1917 2.37663L56.6226 24.1131H63.3716C63.3716 24.1131 64.4806 21.1663 64.7341 20.5326C65.4946 20.5326 72.0536 20.5326 73.0041 20.5326C73.1943 21.3564 73.7963 24.1131 73.7963 24.1131H79.7849L74.5884 0.412109ZM66.6036 15.6847C67.1423 14.3539 69.2018 9.09403 69.2018 9.09403C69.1385 9.1574 69.7405 7.73154 70.0574 6.84433L70.4693 8.87223C70.4693 8.87223 71.705 14.544 71.9585 15.7164H66.6036V15.6847Z" fill="#01549A"/>
<path fill-rule="evenodd" clip-rule="evenodd" d="M22.6869 0.412109L16.3498 16.5719L15.6844 13.3082C14.512 9.50594 10.8048 5.41847 6.71729 3.35889L12.5158 24.0814H19.3599L29.5311 0.412109H22.6869Z" fill="#01549A"/>
<path fill-rule="evenodd" clip-rule="evenodd" d="M10.488 0.379883H0.0633717L0 0.918542C8.07989 2.88306 13.4665 7.60425 15.6845 13.3077L13.4031 2.40778C13.0229 0.918542 11.9139 0.443254 10.488 0.379883Z" fill="#F7A707"/>
</g>
<defs>
<clipPath id="clip0_1919_85">
<rect width="79.7849" height="24.4615" fill="white"/>
</clipPath>
</defs>
</svg>
